<?xml version="1.0" encoding="UTF-8" standalone="no"?>
<!-- Created with Inkscape (http://www.inkscape.org/) -->

<svg
   xmlns:dc="http://purl.org/dc/elements/1.1/"
   xmlns:cc="http://creativecommons.org/ns#"
   xmlns:rdf="http://www.w3.org/1999/02/22-rdf-syntax-ns#"
   xmlns:svg="http://www.w3.org/2000/svg"
   xmlns="http://www.w3.org/2000/svg"
   xmlns:sodipodi="http://sodipodi.sourceforge.net/DTD/sodipodi-0.dtd"
   xmlns:inkscape="http://www.inkscape.org/namespaces/inkscape"
   width="250"
   height="250"
   id="svg14461"
   version="1.1"
   inkscape:version="0.48.3.1 r9886"
   sodipodi:docname="groundMask.svg">
  <defs
     id="defs14463" />
  <sodipodi:namedview
     id="base"
     pagecolor="#ffffff"
     bordercolor="#666666"
     borderopacity="1.0"
     inkscape:pageopacity="0.0"
     inkscape:pageshadow="2"
     inkscape:zoom="0.98994949"
     inkscape:cx="95.001519"
     inkscape:cy="139.06668"
     inkscape:document-units="px"
     inkscape:current-layer="layer1"
     showgrid="true"
     inkscape:window-width="744"
     inkscape:window-height="623"
     inkscape:window-x="50"
     inkscape:window-y="142"
     inkscape:window-maximized="0">
    <inkscape:grid
       type="xygrid"
       id="grid14469"
       empspacing="5"
       visible="true"
       enabled="true"
       snapvisiblegridlinesonly="true"
       spacingx="5px"
       spacingy="5px" />
  </sodipodi:namedview>
  <metadata
     id="metadata14466">
    <rdf:RDF>
      <cc:Work
         rdf:about="">
        <dc:format>image/svg+xml</dc:format>
        <dc:type
           rdf:resource="http://purl.org/dc/dcmitype/StillImage" />
        <dc:title></dc:title>
      </cc:Work>
    </rdf:RDF>
  </metadata>
  <g
     inkscape:label="Layer 1"
     inkscape:groupmode="layer"
     id="layer1"
     transform="translate(0,-802.36218)">
    <path
       style="fill:#6aa0d7;fill-opacity:0.70588235;stroke:none"
       d="m 110,802.36218 45,0 0,50 -45,0 z"
       id="path13888"
       inkscape:connector-curvature="0"
       sodipodi:nodetypes="ccccc" />
    <path
       sodipodi:nodetypes="ccccc"
       inkscape:connector-curvature="0"
       id="path13894"
       d="m 60,802.36218 40,0 0,50 -40,0 z"
       style="fill:#6aa0d7;fill-opacity:0.70776253;stroke:none" />
    <path
       sodipodi:nodetypes="ccccc"
       inkscape:connector-curvature="0"
       id="path14404"
       d="m 5,802.36218 45,0 0,50 -45,0 z"
       style="fill:#6aa0d7;fill-opacity:0.70588235;stroke:none" />
    <path
       sodipodi:nodetypes="cccccc"
       inkscape:connector-curvature="0"
       id="path14406"
       d="m 110,852.36218 45,0 0,45 0,0 -45,0 z"
       style="fill:#6aa0d7;fill-opacity:0.70588235;stroke:none" />
    <path
       style="fill:#6aa0d7;fill-opacity:0.70776253;stroke:none"
       d="m 60,852.36218 40,0 0,45 -40,0 z"
       id="path14408"
       inkscape:connector-curvature="0"
       sodipodi:nodetypes="ccccc" />
    <path
       style="fill:#6aa0d7;fill-opacity:0.70588235;stroke:none"
       d="m 5,852.36218 45,0 0,45 -45,0 z"
       id="path14410"
       inkscape:connector-curvature="0"
       sodipodi:nodetypes="ccccc" />
    <path
       style="fill:#6aa0d7;fill-opacity:0.70588235;stroke:none"
       d="m 110,907.36218 45,0 0,46.00002 0,-6 -45,0 z"
       id="path14412"
       inkscape:connector-curvature="0"
       sodipodi:nodetypes="cccccc" />
    <path
       sodipodi:nodetypes="ccccc"
       inkscape:connector-curvature="0"
       id="path14414"
       d="m 60,907.36218 40,0 0,40.00002 -40,0 z"
       style="fill:#6aa0d7;fill-opacity:0.70776253;stroke:none" />
    <path
       sodipodi:nodetypes="ccccc"
       inkscape:connector-curvature="0"
       id="path14416"
       d="m 5,907.36218 45,0 0,40.00002 -45,0 z"
       style="fill:#6aa0d7;fill-opacity:0.70588235;stroke:none" />
    <path
       sodipodi:nodetypes="ccccc"
       inkscape:connector-curvature="0"
       id="path14418"
       d="m 110,957.3622 45,0 0,45 -45,0 z"
       style="fill:#6aa0d7;fill-opacity:0.70588235;stroke:none" />
    <path
       style="fill:#6aa0d7;fill-opacity:0.70776253;stroke:none"
       d="m 60,957.3622 40,0 0,45 -40,0 z"
       id="path14420"
       inkscape:connector-curvature="0"
       sodipodi:nodetypes="ccccc" />
    <path
       style="fill:#6aa0d7;fill-opacity:0.70588235;stroke:none"
       d="m 5,957.3622 45,0 0,45 -45,0 z"
       id="path14422"
       inkscape:connector-curvature="0"
       sodipodi:nodetypes="ccccc" />
    <path
       style="fill:#6aa0d7;fill-opacity:0.70588235;stroke:none"
       d="m 155,852.36218 50,0 0,45 0,0 -50,0 z"
       id="path14424"
       inkscape:connector-curvature="0"
       sodipodi:nodetypes="cccccc" />
    <path
       sodipodi:nodetypes="cccccc"
       inkscape:connector-curvature="0"
       id="path14426"
       d="m 155,907.36218 50,0 0,46.00002 0,-6 -50,0 z"
       style="fill:#6aa0d7;fill-opacity:0.70588235;stroke:none" />
    <path
       style="fill:#6aa0d7;fill-opacity:0.70588235;stroke:none"
       d="m 155,957.3622 50,0 0,45 -50,0 z"
       id="path14428"
       inkscape:connector-curvature="0"
       sodipodi:nodetypes="ccccc" />
  </g>
</svg>
