<?xml version="1.0" encoding="UTF-8" standalone="no"?>
<!-- Created with Inkscape (http://www.inkscape.org/) -->

<svg
   xmlns:dc="http://purl.org/dc/elements/1.1/"
   xmlns:cc="http://creativecommons.org/ns#"
   xmlns:rdf="http://www.w3.org/1999/02/22-rdf-syntax-ns#"
   xmlns:svg="http://www.w3.org/2000/svg"
   xmlns="http://www.w3.org/2000/svg"
   xmlns:sodipodi="http://sodipodi.sourceforge.net/DTD/sodipodi-0.dtd"
   xmlns:inkscape="http://www.inkscape.org/namespaces/inkscape"
   width="1024"
   height="640"
   id="svg2"
   version="1.1"
   inkscape:version="0.48.2 r9819"
   sodipodi:docname="background1.svg"
   inkscape:export-filename="/home/micha/Programmieren/git/platformer/images/backgrounds/40background1.png"
   inkscape:export-xdpi="90"
   inkscape:export-ydpi="90">
  <sodipodi:namedview
     id="base"
     pagecolor="#000000"
     bordercolor="#666666"
     borderopacity="1.0"
     inkscape:pageopacity="0.0"
     inkscape:pageshadow="2"
     inkscape:zoom="0.70710675"
     inkscape:cx="660.27139"
     inkscape:cy="227.69497"
     inkscape:document-units="px"
     inkscape:current-layer="layer1"
     showgrid="false"
     inkscape:showpageshadow="true"
     inkscape:window-width="1280"
     inkscape:window-height="750"
     inkscape:window-x="0"
     inkscape:window-y="25"
     inkscape:window-maximized="1">
    <inkscape:grid
       originy="0px"
       originx="0px"
       spacingy="10px"
       spacingx="10px"
       snapvisiblegridlinesonly="true"
       enabled="true"
       visible="true"
       empspacing="5"
       id="grid2985"
       type="xygrid" />
  </sodipodi:namedview>
  <defs
     id="defs4">
    <inkscape:path-effect
       fuse_tolerance="0"
       vertical_pattern="false"
       prop_units="false"
       tang_offset="0"
       normal_offset="0"
       spacing="0"
       scale_y_rel="false"
       prop_scale="1"
       copytype="single_stretched"
       pattern="M 0,0 0,10 10,5 z"
       is_visible="true"
       id="path-effect3017"
       effect="skeletal" />
  </defs>
  <metadata
     id="metadata7">
    <rdf:RDF>
      <cc:Work
         rdf:about="">
        <dc:format>image/svg+xml</dc:format>
        <dc:type
           rdf:resource="http://purl.org/dc/dcmitype/StillImage" />
        <dc:title></dc:title>
      </cc:Work>
    </rdf:RDF>
  </metadata>
  <g
     transform="translate(0,-412.3622)"
     id="layer1"
     inkscape:groupmode="layer"
     inkscape:label="Ebene 1">
    <rect
       style="fill:#5096cd;fill-opacity:1;stroke:none"
       id="rect4069"
       width="1024"
       height="640"
       x="0"
       y="412.36218" />
    <path
       style="fill:#2ca02c;stroke:#4d4d4d;stroke-width:2;stroke-linecap:butt;stroke-linejoin:miter;stroke-miterlimit:4;stroke-opacity:1;stroke-dasharray:none"
       d="m -74.953322,898.21291 c 27.120067,-28.64772 72.6374679,-46.44439 105.265423,-75.43183 52.10355,-46.29002 123.634699,-61.99333 193.083549,-60.33267 46.85712,1.12045 92.6314,4.97856 138.64304,16.97056 121.18208,31.58365 219.9969,112.34827 336.39478,153.02792 41.66368,14.56095 88.98002,14.68755 131.33549,4.67101 52.43674,-12.40063 87.12146,-61.59464 135.78152,-85.45894 49.02802,-24.04474 63.20762,-32.514 118.08842,-35.57316 l -18.736,277.2886 -1090.158309,-2.8284 z"
       id="path3064"
       inkscape:connector-curvature="0"
       sodipodi:nodetypes="csssssscccc" />
    <path
       style="fill:#4d4d4d;fill-opacity:1;stroke:#4d4d4d;stroke-width:2.32746959000000020;stroke-linecap:butt;stroke-linejoin:round;stroke-miterlimit:4;stroke-opacity:1;stroke-dasharray:none"
       d="m 200.82411,690.45989 c -3.31456,0.13258 -0.32486,3.37895 -0.71875,4.0625 -1.83367,3.18219 -3.4164,12.10622 -8.71539,13.26073 -3.73329,0.81338 -6.61795,-2.59651 -6.61795,-2.59651 l 2.33854,6.9804 c 4.07292,0.13542 5.47768,2.37622 6.3698,2.51163 0,0 -2.21717,9.14281 -7.6875,11.125 -2.25951,0.81875 -7,-1.65625 -7,-1.65625 l 3.1875,6.75 9.96875,2.78125 c -0.32539,2.6143 -0.63735,5.1052 -0.90625,7.46875 -1.44446,2.09287 -3.38622,4.01819 -5.9375,4.625 -2.143,0.50971 -6.03125,-2.71875 -6.03125,-2.71875 l 3.625,6.59375 7.25,2.1875 c -0.93991,9.66547 -1.59294,18.32729 -2.53125,29.34375 4.32016,2.04584 21.54088,1.62919 27.15625,0 0.46983,-8.90023 -1.11849,-20.0756 -2.71875,-30.28125 l 5.125,-2.3125 2.875,-7.625 c 0,0 -3.88584,4.055 -6.28125,3.65625 -1.07697,-0.17926 -2.03845,-0.64334 -2.875,-1.28125 -0.16296,-1.04437 -0.3518,-2.19201 -0.5,-3.1875 -0.4024,-2.7029 -1.22726,-5.4183 -2.09375,-8.125 l 7.8125,-2.53125 3.4375,-7.78125 c 0,0 -4.09728,4.21656 -6.5625,3.71875 -5.52492,-1.11561 -6.25,-10.375 -6.25,-10.375 l 7.25552,-2.17769 1.73223,-6.71967 c 0,0 -4.33416,2.4502 -6.98131,1.54197 -4.58771,-1.574 -5.65481,-10.34309 -7.25644,-13.23836 -0.35871,-0.64845 2.71323,-3.82322 -0.46875,-4 z"
       id="path6459"
       inkscape:connector-curvature="0"
       sodipodi:nodetypes="csscccsccccsccccccccscscccscccssc" />
    <path
       inkscape:connector-curvature="0"
       id="path6463"
       d="m 803.61529,949.038 c -0.91425,-6.26643 -1.2875,-0.78967 -1.26765,-7.18594 -0.31283,-5.02219 -2.74107,-12.35267 4.90873,-10.34515 6.63769,-1.06576 -3.9192,-5.99316 -5.99057,-8.48949 -3.89665,-4.69608 -6.73242,-10.36115 -11.78158,-13.96308 -2.2137,-1.5792 -4.12467,-8.43356 -7.04441,-3.73386 -2.03544,6.7526 -8.8226,10.65511 -11.25698,17.09459 -1.42446,3.76803 -4.57114,7.98697 -4.10071,11.40864 9.34879,-0.64103 5.11039,-0.66712 6.49762,10.5713 0.47438,6.2627 -0.63681,1.03017 0.77514,7.15193 3.65111,3.58398 9.83493,-0.86888 14.57965,-0.74276 4.86645,-0.67347 9.72547,-1.62697 14.68076,-1.76618 z"
       style="fill:#4d4d4d;fill-opacity:1;stroke:#4d4d4d"
       sodipodi:nodetypes="cccsscsccccc" />
    <path
       id="path6465"
       d="m 998.52947,801.35419 c -0.94582,0.49426 -2.09987,3.42514 -2.1645,5.10929 -0.80211,6.58255 -8.31644,6.11474 -12.9644,8.4354 -5.86353,2.61846 -12.14532,4.05428 -18.03648,6.55771 -6.96507,3.06589 -15.67677,6.80186 -22.82516,2.3732 -0.0149,-0.11881 0.7184,6.79069 2.76143,8.3088 6.86522,1.02866 13.30793,-2.85795 19.51948,-5.37635 0.077,0.1727 0.15009,0.34388 0.22602,0.51606 0.50607,1.38029 1.02289,2.75221 1.53927,4.12864 -0.60714,0.24002 -1.20479,0.4923 -1.84157,0.65329 -1.47965,1.17125 -7.32354,1.54405 -4.30479,4.23968 1.56794,2.12845 1.904,7.19329 5.73875,4.29723 1.15097,-0.46497 2.28637,-0.96866 3.41868,-1.47468 0.19556,1.0931 0.39377,2.17332 1.16486,3.03424 2.22609,3.66933 3.80062,7.70137 5.85273,11.4586 0.33057,2.46987 3.33306,4.07675 4.36844,1.07278 -1.32766,-3.11519 -2.05158,-6.53868 -3.90228,-9.38427 -0.98688,-2.73719 -1.99335,-5.45307 -3.01627,-8.18045 2.12517,-0.96017 4.25771,-1.92008 6.45673,-2.7074 3.27735,-1.29968 5.87234,-3.72131 9.17174,-4.98697 1.08184,-0.80549 2.32848,-1.42357 3.53928,-2.05326 0.55089,1.66625 1.3731,3.16886 2.19603,4.71756 0.67912,2.03853 0.82015,4.23959 1.92407,6.15301 0.5278,2.03154 0.60828,4.28874 0.43803,6.40688 1.74076,0.32685 2.68054,-0.24997 3.48664,-1.83354 -2.0376,-5.50833 -4.10345,-11.01218 -6.15702,-16.51458 0.95063,-0.56995 1.84894,-1.20883 2.60334,-2.03783 -0.80227,-2.21513 -2.7882,-4.51138 -4.84128,-3.96481 -0.52054,-1.39518 -1.04122,-2.79179 -1.5611,-4.1872 1.87449,-0.68926 3.75214,-1.37446 5.62098,-2.06235 7.07908,-0.52765 3.93288,-5.99284 2.79607,-10.18069 -0.13932,-2.24381 -0.64025,-2.81451 -1.20781,-2.51795 z m -16.90507,18.34245 c 2.44653,-0.91257 4.88565,-1.79856 7.33358,-2.70086 0.31086,0.99039 0.64766,1.9327 1.42094,2.63861 0.2286,0.64577 0.45432,1.30074 0.691,1.94356 -0.0152,0.0192 -0.0331,0.0318 -0.0481,0.0512 -5.24182,2.9807 -11.08666,4.75885 -16.72565,6.73603 -1.19846,0.21886 -2.33322,0.66183 -3.43926,1.14884 -0.38267,-1.24568 -0.59503,-2.5782 -1.56036,-3.55381 -0.23344,-0.29058 -0.46716,-0.76985 -0.67934,-1.28088 4.30701,-1.68208 8.65671,-3.36007 13.00723,-4.98284 z"
       style="fill:#4d4d4d;fill-opacity:1;stroke:#4d4d4d"
       inkscape:connector-curvature="0" />
    <path
       style="fill:#4d4d4d;fill-opacity:1;stroke:#4d4d4d"
       d="m 366.55987,779.2427 c -1.44928,-1.44251 -0.52295,-0.40618 -3.05553,-1.91457 4.64955,-4.03245 11.77048,-7.0631 17.57185,-8.59395 5.76454,-1.52113 5.45237,-0.82276 11.77027,-1.44711 3.74399,7.6631 8.54831,19.9798 13.84452,26.72462 -4.59741,-0.68758 -2.73811,-1.53201 -6.14531,-1.08244 0.302,6.18553 0.62527,4.73906 -1.9865,10.07536 -6.06181,-1.78286 -12.54042,-4.33857 -18.89593,-5.76957 -4.34698,-0.97875 -13.1227,-5.9561 -17.59143,-7.76296 2.90336,-7.55456 2.98434,-5.98687 4.48806,-10.22938 z"
       id="path5989"
       inkscape:connector-curvature="0"
       sodipodi:nodetypes="ccsccccscc"
       inkscape:transform-center-x="12.727923"
       inkscape:transform-center-y="-8.4852817" />
    <path
       inkscape:connector-curvature="0"
       style="fill:#4d4d4d;fill-opacity:1;stroke:#4d4d4d"
       d="m 282.00809,774.12757 c -0.92117,-0.007 -1.8539,0.0517 -2.78125,0.1875 -2.2032,0.1145 -4.36814,0.2595 -6.5625,0.3125 -2.09561,0.15289 -4.17619,0.43949 -6.25,0.78125 -3.00919,-0.64142 -1.66369,2.86651 -1.8125,4.59375 0.24842,2.90389 0.0256,5.88608 0.0937,8.81251 -0.0361,0.55377 -0.0556,1.68321 0.125,2.59375 -0.3337,0.003 -0.66749,0.0115 -1,0 l -0.0312,0.15625 -0.0312,0.15625 c -0.0308,0.96126 -0.86764,2.04319 -0.53125,2.875 1.70026,-0.0232 3.41633,0.47462 4.84375,1.40625 -0.0122,2.10271 0.0222,4.21082 -0.0312,6.3125 -0.0386,1.49688 0.4828,2.95446 0.5,4.4375 0.044,1.20614 1.34565,1.68355 2.375,1.65625 2.37723,-0.11625 4.75374,0.18935 7.125,0.28125 0.88439,0.0358 2.28973,0.61902 2.75,-0.4375 -0.0253,-1.88908 -0.0282,-3.80217 0.15625,-5.6875 -0.0968,-1.80676 0.34525,-3.59927 0.1875,-5.40625 -0.29191,-0.96428 0.57078,-1.7827 1.5,-1.75 0.94164,-0.21163 2.01555,0.26506 2.84375,-0.21875 0.58387,-1.01172 0.0102,-2.27224 0.375,-3.34375 -0.23993,0.041 -0.47723,0.057 -0.71875,0.0625 0.0494,-0.19823 0.0317,-0.44218 -0.0937,-0.75 -0.10869,-1.84203 0.10308,-3.65572 0.15625,-5.46875 -0.40939,-2.09186 -0.065,-4.18131 -0.0312,-6.28125 -0.43794,-1.59551 0.27601,-3.97706 -0.375,-5.125 -0.927,-0.0964 -1.86008,-0.14935 -2.78125,-0.15625 z m -13.53125,3.125 c 0.91497,0.008 1.92765,0.15252 2.71875,0 0.89334,0.006 1.79414,-0.005 2.6875,0 -0.017,1.44581 0.55005,3.80572 0.65625,5.5 -0.75495,-0.15035 -1.15251,-0.15744 -2.875,-0.0937 0.38061,1.52053 1.07532,4.64398 1.34375,5.84375 1.1826,0.053 2.80175,-0.125 4.59375,-0.28125 0.0928,-1.5792 0.67021,-4.13892 0.8125,-5.78125 -1.85862,-0.0967 -1.78486,0.85257 -2.65625,-0.0937 -0.47212,-1.51275 -0.37004,-3.36423 -0.4375,-5.0625 2.26458,0.01 4.51773,0.002 6.78125,-0.0312 1.24633,1.28318 1.07411,3.46796 1.6875,5.15625 0.41568,2.92591 0.60698,5.94412 0,8.84376 -0.0642,0.23882 -0.0661,0.42728 -0.0312,0.59375 -0.99764,-0.0997 -1.99697,-0.2302 -2.96875,0.0937 -2.15937,0.0271 -4.3095,-0.0145 -6.46875,0.0312 -1.77143,0.21988 -3.48275,-0.72693 -5.25,-0.34375 -0.73965,-0.15371 -1.49983,-0.21081 -2.25,-0.21875 0.008,-2.30815 0.13684,-4.62275 -0.46875,-6.875 0.0225,-2.12113 -0.15841,-4.25945 -0.0625,-6.375 0.42948,-0.78912 1.27253,-0.91388 2.1875,-0.90625 z"
       id="path5995" />
    <path
       style="fill:#ffff00;stroke:#4d4d4d;stroke-width:2;stroke-linecap:butt;stroke-linejoin:miter;stroke-opacity:1;fill-opacity:1;stroke-miterlimit:4;stroke-dasharray:none"
       d="m 110.65216,521.72788 c -6.51747,11.60522 -11.418904,28.58107 -2.88717,40.00218 7.57041,10.13423 21.94306,11.86423 33.70643,15.1336 13.80836,3.83773 29.32652,3.2198 41.75793,-5.77139 16.57748,-11.98989 20.82828,-32.92968 20.8237,-51.96264 -0.003,-11.67844 -4.25998,-23.7608 -17.08476,-26.74748 -18.66831,-4.34755 -38.83522,-7.15318 -55.7393,1.00732 -13.83553,6.67915 -15.03335,18.46752 -20.57683,28.33841 z"
       id="path4071"
       inkscape:connector-curvature="0"
       sodipodi:nodetypes="ssssssss" />
  </g>
</svg>
