<?xml version="1.0" encoding="UTF-8" standalone="no"?>
<!-- Created with Inkscape (http://www.inkscape.org/) -->

<svg
   xmlns:dc="http://purl.org/dc/elements/1.1/"
   xmlns:cc="http://creativecommons.org/ns#"
   xmlns:rdf="http://www.w3.org/1999/02/22-rdf-syntax-ns#"
   xmlns:svg="http://www.w3.org/2000/svg"
   xmlns="http://www.w3.org/2000/svg"
   xmlns:sodipodi="http://sodipodi.sourceforge.net/DTD/sodipodi-0.dtd"
   xmlns:inkscape="http://www.inkscape.org/namespaces/inkscape"
   width="400"
   height="400"
   id="svg2"
   version="1.1"
   inkscape:version="0.48.2 r9819"
   sodipodi:docname="foreground4.svg"
   inkscape:export-filename="/home/micha/Programmieren/git/platformer/images/tilesets/64foreground4.png"
   inkscape:export-xdpi="144"
   inkscape:export-ydpi="144">
  <sodipodi:namedview
     id="base"
     pagecolor="#000000"
     bordercolor="#666666"
     borderopacity="1.0"
     inkscape:pageopacity="0.0"
     inkscape:pageshadow="2"
     inkscape:zoom="1.9999999"
     inkscape:cx="160.17249"
     inkscape:cy="145.99863"
     inkscape:document-units="px"
     inkscape:current-layer="layer1"
     showgrid="false"
     inkscape:showpageshadow="true"
     inkscape:window-width="1280"
     inkscape:window-height="750"
     inkscape:window-x="0"
     inkscape:window-y="25"
     inkscape:window-maximized="1"
     showguides="true"
     inkscape:guide-bbox="true">
    <inkscape:grid
       originy="0px"
       originx="0px"
       spacingy="5px"
       spacingx="5px"
       snapvisiblegridlinesonly="true"
       enabled="true"
       visible="true"
       empspacing="5"
       id="grid2985"
       type="xygrid" />
  </sodipodi:namedview>
  <defs
     id="defs4">
    <inkscape:path-effect
       effect="skeletal"
       id="path-effect8298"
       is_visible="true"
       pattern="m 4.4999999,552.29967 0,10 10.0000001,-5 z"
       copytype="single_stretched"
       prop_scale="0.4"
       scale_y_rel="false"
       spacing="0"
       normal_offset="0"
       tang_offset="0"
       prop_units="false"
       vertical_pattern="false"
       fuse_tolerance="0" />
    <inkscape:path-effect
       effect="skeletal"
       id="path-effect8295"
       is_visible="true"
       pattern="m 9.8749998,552.48717 0,10 10.0000002,-5 z"
       copytype="single_stretched"
       prop_scale="0.4"
       scale_y_rel="false"
       spacing="0"
       normal_offset="0"
       tang_offset="0"
       prop_units="false"
       vertical_pattern="false"
       fuse_tolerance="0" />
    <inkscape:path-effect
       effect="skeletal"
       id="path-effect8292"
       is_visible="true"
       pattern="m 18.0625,552.73717 0,10 10,-5 z"
       copytype="single_stretched"
       prop_scale="0.4"
       scale_y_rel="false"
       spacing="0"
       normal_offset="0"
       tang_offset="0"
       prop_units="false"
       vertical_pattern="false"
       fuse_tolerance="0" />
    <inkscape:path-effect
       effect="skeletal"
       id="path-effect8289"
       is_visible="true"
       pattern="m 14.125,552.61217 0,10 10,-5 z"
       copytype="single_stretched"
       prop_scale="0.4"
       scale_y_rel="false"
       spacing="0"
       normal_offset="0"
       tang_offset="0"
       prop_units="false"
       vertical_pattern="false"
       fuse_tolerance="0" />
    <inkscape:path-effect
       effect="skeletal"
       id="path-effect8286"
       is_visible="true"
       pattern="m 21.874999,552.67467 0,10 10,-5 z"
       copytype="single_stretched"
       prop_scale="0.4"
       scale_y_rel="false"
       spacing="0"
       normal_offset="0"
       tang_offset="0"
       prop_units="false"
       vertical_pattern="false"
       fuse_tolerance="0" />
    <inkscape:path-effect
       effect="skeletal"
       id="path-effect8283"
       is_visible="true"
       pattern="m 26.624999,552.29967 0,10 10,-5 z"
       copytype="single_stretched"
       prop_scale="0.4"
       scale_y_rel="false"
       spacing="0"
       normal_offset="0"
       tang_offset="0"
       prop_units="false"
       vertical_pattern="false"
       fuse_tolerance="0" />
    <inkscape:path-effect
       effect="skeletal"
       id="path-effect8280"
       is_visible="true"
       pattern="m -0.1875,552.42467 0,10 10,-5 z"
       copytype="single_stretched"
       prop_scale="0.4"
       scale_y_rel="false"
       spacing="0"
       normal_offset="0"
       tang_offset="0"
       prop_units="false"
       vertical_pattern="false"
       fuse_tolerance="0" />
    <inkscape:path-effect
       effect="skeletal"
       id="path-effect8277"
       is_visible="true"
       pattern="m -4.9374999,552.42467 0,10 10,-5 z"
       copytype="single_stretched"
       prop_scale="0.4"
       scale_y_rel="false"
       spacing="0"
       normal_offset="0"
       tang_offset="0"
       prop_units="false"
       vertical_pattern="false"
       fuse_tolerance="0" />
    <inkscape:path-effect
       effect="skeletal"
       id="path-effect8274"
       is_visible="true"
       pattern="m -7.5624998,552.36217 0,10 10,-5 z"
       copytype="single_stretched"
       prop_scale="0.4"
       scale_y_rel="false"
       spacing="0"
       normal_offset="0"
       tang_offset="0"
       prop_units="false"
       vertical_pattern="false"
       fuse_tolerance="0" />
    <inkscape:path-effect
       fuse_tolerance="0"
       vertical_pattern="false"
       prop_units="false"
       tang_offset="0"
       normal_offset="0"
       spacing="0"
       scale_y_rel="false"
       prop_scale="0.4"
       copytype="single_stretched"
       pattern="m -7.5624998,552.36217 0,10 10,-5 z"
       is_visible="true"
       id="path-effect8271"
       effect="skeletal" />
    <inkscape:path-effect
       fuse_tolerance="0"
       vertical_pattern="false"
       prop_units="false"
       tang_offset="0"
       normal_offset="0"
       spacing="0"
       scale_y_rel="false"
       prop_scale="0.4"
       copytype="single_stretched"
       pattern="m -7.5624998,552.36217 0,10 10,-5 z"
       is_visible="true"
       id="path-effect4594"
       effect="skeletal" />
    <inkscape:path-effect
       fuse_tolerance="0"
       vertical_pattern="false"
       prop_units="false"
       tang_offset="0"
       normal_offset="0"
       spacing="0"
       scale_y_rel="false"
       prop_scale="0.4"
       copytype="single_stretched"
       pattern="m -4.9374999,552.42467 0,10 10,-5 z"
       is_visible="true"
       id="path-effect4590"
       effect="skeletal" />
    <inkscape:path-effect
       fuse_tolerance="0"
       vertical_pattern="false"
       prop_units="false"
       tang_offset="0"
       normal_offset="0"
       spacing="0"
       scale_y_rel="false"
       prop_scale="0.4"
       copytype="single_stretched"
       pattern="m -0.1875,552.42467 0,10 10,-5 z"
       is_visible="true"
       id="path-effect4586"
       effect="skeletal" />
    <inkscape:path-effect
       fuse_tolerance="0"
       vertical_pattern="false"
       prop_units="false"
       tang_offset="0"
       normal_offset="0"
       spacing="0"
       scale_y_rel="false"
       prop_scale="0.4"
       copytype="single_stretched"
       pattern="m 26.624999,552.29967 0,10 10,-5 z"
       is_visible="true"
       id="path-effect4582"
       effect="skeletal" />
    <inkscape:path-effect
       fuse_tolerance="0"
       vertical_pattern="false"
       prop_units="false"
       tang_offset="0"
       normal_offset="0"
       spacing="0"
       scale_y_rel="false"
       prop_scale="0.4"
       copytype="single_stretched"
       pattern="m 21.874999,552.67467 0,10 10,-5 z"
       is_visible="true"
       id="path-effect4578"
       effect="skeletal" />
    <inkscape:path-effect
       fuse_tolerance="0"
       vertical_pattern="false"
       prop_units="false"
       tang_offset="0"
       normal_offset="0"
       spacing="0"
       scale_y_rel="false"
       prop_scale="0.4"
       copytype="single_stretched"
       pattern="m 14.125,552.61217 0,10 10,-5 z"
       is_visible="true"
       id="path-effect4574"
       effect="skeletal" />
    <inkscape:path-effect
       fuse_tolerance="0"
       vertical_pattern="false"
       prop_units="false"
       tang_offset="0"
       normal_offset="0"
       spacing="0"
       scale_y_rel="false"
       prop_scale="0.4"
       copytype="single_stretched"
       pattern="m 18.0625,552.73717 0,10 10,-5 z"
       is_visible="true"
       id="path-effect4570"
       effect="skeletal" />
    <inkscape:path-effect
       fuse_tolerance="0"
       vertical_pattern="false"
       prop_units="false"
       tang_offset="0"
       normal_offset="0"
       spacing="0"
       scale_y_rel="false"
       prop_scale="0.4"
       copytype="single_stretched"
       pattern="m 9.8749998,552.48717 0,10 10.0000002,-5 z"
       is_visible="true"
       id="path-effect4566"
       effect="skeletal" />
    <inkscape:path-effect
       fuse_tolerance="0"
       vertical_pattern="false"
       prop_units="false"
       tang_offset="0"
       normal_offset="0"
       spacing="0"
       scale_y_rel="false"
       prop_scale="0.4"
       copytype="single_stretched"
       pattern="m 4.4999999,552.29967 0,10 10.0000001,-5 z"
       is_visible="true"
       id="path-effect4562"
       effect="skeletal" />
    <inkscape:path-effect
       effect="skeletal"
       id="path-effect4546"
       is_visible="true"
       pattern="M 0,0 0,10 10,5 z"
       copytype="single_stretched"
       prop_scale="1"
       scale_y_rel="false"
       spacing="0"
       normal_offset="0"
       tang_offset="0"
       prop_units="false"
       vertical_pattern="false"
       fuse_tolerance="0" />
    <inkscape:path-effect
       effect="skeletal"
       id="path-effect4542"
       is_visible="true"
       pattern="M 0,0 0,10 10,5 z"
       copytype="single_stretched"
       prop_scale="1"
       scale_y_rel="false"
       spacing="0"
       normal_offset="0"
       tang_offset="0"
       prop_units="false"
       vertical_pattern="false"
       fuse_tolerance="0" />
    <inkscape:path-effect
       effect="skeletal"
       id="path-effect4538"
       is_visible="true"
       pattern="M 0,0 0,10 10,5 z"
       copytype="single_stretched"
       prop_scale="1"
       scale_y_rel="false"
       spacing="0"
       normal_offset="0"
       tang_offset="0"
       prop_units="false"
       vertical_pattern="false"
       fuse_tolerance="0" />
    <inkscape:path-effect
       effect="skeletal"
       id="path-effect4534"
       is_visible="true"
       pattern="m -7.5624998,552.36217 0,10 10,-5 z"
       copytype="single_stretched"
       prop_scale="0.4"
       scale_y_rel="false"
       spacing="0"
       normal_offset="0"
       tang_offset="0"
       prop_units="false"
       vertical_pattern="false"
       fuse_tolerance="0" />
    <inkscape:path-effect
       effect="skeletal"
       id="path-effect4220"
       is_visible="true"
       pattern="m 0,552.36217 0,10 10,-5 z"
       copytype="single_stretched"
       prop_scale="1"
       scale_y_rel="false"
       spacing="0"
       normal_offset="0"
       tang_offset="0"
       prop_units="false"
       vertical_pattern="false"
       fuse_tolerance="0" />
    <inkscape:path-effect
       effect="skeletal"
       id="path-effect6242"
       is_visible="true"
       pattern="M 0,5 10,10 10,0 z"
       copytype="single_stretched"
       prop_scale="1"
       scale_y_rel="false"
       spacing="0"
       normal_offset="0"
       tang_offset="0"
       prop_units="false"
       vertical_pattern="false"
       fuse_tolerance="0" />
    <inkscape:path-effect
       effect="skeletal"
       id="path-effect6238"
       is_visible="true"
       pattern="M 0,5 10,10 10,0 z"
       copytype="single_stretched"
       prop_scale="1"
       scale_y_rel="false"
       spacing="0"
       normal_offset="0"
       tang_offset="0"
       prop_units="false"
       vertical_pattern="false"
       fuse_tolerance="0" />
    <inkscape:path-effect
       effect="skeletal"
       id="path-effect6234"
       is_visible="true"
       pattern="M 0,0 0,10 10,5 z"
       copytype="single_stretched"
       prop_scale="1"
       scale_y_rel="false"
       spacing="0"
       normal_offset="0"
       tang_offset="0"
       prop_units="false"
       vertical_pattern="false"
       fuse_tolerance="0" />
    <inkscape:path-effect
       effect="skeletal"
       id="path-effect6230"
       is_visible="true"
       pattern="M 0,0 0,10 10,5 z"
       copytype="single_stretched"
       prop_scale="1"
       scale_y_rel="false"
       spacing="0"
       normal_offset="0"
       tang_offset="0"
       prop_units="false"
       vertical_pattern="false"
       fuse_tolerance="0" />
    <inkscape:path-effect
       fuse_tolerance="0"
       vertical_pattern="false"
       prop_units="false"
       tang_offset="0"
       normal_offset="0"
       spacing="0"
       scale_y_rel="false"
       prop_scale="0.4"
       copytype="single_stretched"
       pattern="m 4.4999999,452.29967 0,10 10.0000001,-5 z"
       is_visible="true"
       id="path-effect4562-4"
       effect="skeletal" />
    <inkscape:path-effect
       fuse_tolerance="0"
       vertical_pattern="false"
       prop_units="false"
       tang_offset="0"
       normal_offset="0"
       spacing="0"
       scale_y_rel="false"
       prop_scale="0.4"
       copytype="single_stretched"
       pattern="m 9.8749998,452.48717 0,10 10.0000002,-5 z"
       is_visible="true"
       id="path-effect4566-8"
       effect="skeletal" />
    <inkscape:path-effect
       fuse_tolerance="0"
       vertical_pattern="false"
       prop_units="false"
       tang_offset="0"
       normal_offset="0"
       spacing="0"
       scale_y_rel="false"
       prop_scale="0.4"
       copytype="single_stretched"
       pattern="m 18.0625,452.73717 0,10 10,-5 z"
       is_visible="true"
       id="path-effect4570-7"
       effect="skeletal" />
    <inkscape:path-effect
       fuse_tolerance="0"
       vertical_pattern="false"
       prop_units="false"
       tang_offset="0"
       normal_offset="0"
       spacing="0"
       scale_y_rel="false"
       prop_scale="0.4"
       copytype="single_stretched"
       pattern="m 14.125,452.61217 0,10 10,-5 z"
       is_visible="true"
       id="path-effect4574-0"
       effect="skeletal" />
    <inkscape:path-effect
       fuse_tolerance="0"
       vertical_pattern="false"
       prop_units="false"
       tang_offset="0"
       normal_offset="0"
       spacing="0"
       scale_y_rel="false"
       prop_scale="0.4"
       copytype="single_stretched"
       pattern="m 21.874999,452.67467 0,10 10,-5 z"
       is_visible="true"
       id="path-effect4578-2"
       effect="skeletal" />
    <inkscape:path-effect
       fuse_tolerance="0"
       vertical_pattern="false"
       prop_units="false"
       tang_offset="0"
       normal_offset="0"
       spacing="0"
       scale_y_rel="false"
       prop_scale="0.4"
       copytype="single_stretched"
       pattern="m 26.624999,452.29967 0,10 10,-5 z"
       is_visible="true"
       id="path-effect4582-5"
       effect="skeletal" />
    <inkscape:path-effect
       fuse_tolerance="0"
       vertical_pattern="false"
       prop_units="false"
       tang_offset="0"
       normal_offset="0"
       spacing="0"
       scale_y_rel="false"
       prop_scale="0.4"
       copytype="single_stretched"
       pattern="m -0.1875,452.42467 0,10 10,-5 z"
       is_visible="true"
       id="path-effect4586-5"
       effect="skeletal" />
    <inkscape:path-effect
       fuse_tolerance="0"
       vertical_pattern="false"
       prop_units="false"
       tang_offset="0"
       normal_offset="0"
       spacing="0"
       scale_y_rel="false"
       prop_scale="0.4"
       copytype="single_stretched"
       pattern="m -4.9374999,452.42467 0,10 10,-5 z"
       is_visible="true"
       id="path-effect4590-6"
       effect="skeletal" />
    <inkscape:path-effect
       fuse_tolerance="0"
       vertical_pattern="false"
       prop_units="false"
       tang_offset="0"
       normal_offset="0"
       spacing="0"
       scale_y_rel="false"
       prop_scale="0.4"
       copytype="single_stretched"
       pattern="m -7.5624998,452.36217 0,10 10,-5 z"
       is_visible="true"
       id="path-effect4594-6"
       effect="skeletal" />
    <inkscape:path-effect
       effect="skeletal"
       id="path-effect4534-2"
       is_visible="true"
       pattern="m -7.5624998,452.36217 0,10 10,-5 z"
       copytype="single_stretched"
       prop_scale="0.4"
       scale_y_rel="false"
       spacing="0"
       normal_offset="0"
       tang_offset="0"
       prop_units="false"
       vertical_pattern="false"
       fuse_tolerance="0" />
    <inkscape:path-effect
       effect="skeletal"
       id="path-effect8298-7"
       is_visible="true"
       pattern="m 4.4999999,452.29967 0,10 10.0000001,-5 z"
       copytype="single_stretched"
       prop_scale="0.4"
       scale_y_rel="false"
       spacing="0"
       normal_offset="0"
       tang_offset="0"
       prop_units="false"
       vertical_pattern="false"
       fuse_tolerance="0" />
    <inkscape:path-effect
       effect="skeletal"
       id="path-effect8295-2"
       is_visible="true"
       pattern="m 9.8749998,452.48717 0,10 10.0000002,-5 z"
       copytype="single_stretched"
       prop_scale="0.4"
       scale_y_rel="false"
       spacing="0"
       normal_offset="0"
       tang_offset="0"
       prop_units="false"
       vertical_pattern="false"
       fuse_tolerance="0" />
    <inkscape:path-effect
       effect="skeletal"
       id="path-effect8292-1"
       is_visible="true"
       pattern="m 18.0625,452.73717 0,10 10,-5 z"
       copytype="single_stretched"
       prop_scale="0.4"
       scale_y_rel="false"
       spacing="0"
       normal_offset="0"
       tang_offset="0"
       prop_units="false"
       vertical_pattern="false"
       fuse_tolerance="0" />
    <inkscape:path-effect
       effect="skeletal"
       id="path-effect8289-8"
       is_visible="true"
       pattern="m 14.125,452.61217 0,10 10,-5 z"
       copytype="single_stretched"
       prop_scale="0.4"
       scale_y_rel="false"
       spacing="0"
       normal_offset="0"
       tang_offset="0"
       prop_units="false"
       vertical_pattern="false"
       fuse_tolerance="0" />
    <inkscape:path-effect
       effect="skeletal"
       id="path-effect8286-7"
       is_visible="true"
       pattern="m 21.874999,452.67467 0,10 10,-5 z"
       copytype="single_stretched"
       prop_scale="0.4"
       scale_y_rel="false"
       spacing="0"
       normal_offset="0"
       tang_offset="0"
       prop_units="false"
       vertical_pattern="false"
       fuse_tolerance="0" />
    <inkscape:path-effect
       effect="skeletal"
       id="path-effect8283-9"
       is_visible="true"
       pattern="m 26.624999,452.29967 0,10 10,-5 z"
       copytype="single_stretched"
       prop_scale="0.4"
       scale_y_rel="false"
       spacing="0"
       normal_offset="0"
       tang_offset="0"
       prop_units="false"
       vertical_pattern="false"
       fuse_tolerance="0" />
    <inkscape:path-effect
       effect="skeletal"
       id="path-effect8280-8"
       is_visible="true"
       pattern="m -0.1875,452.42467 0,10 10,-5 z"
       copytype="single_stretched"
       prop_scale="0.4"
       scale_y_rel="false"
       spacing="0"
       normal_offset="0"
       tang_offset="0"
       prop_units="false"
       vertical_pattern="false"
       fuse_tolerance="0" />
    <inkscape:path-effect
       effect="skeletal"
       id="path-effect8277-1"
       is_visible="true"
       pattern="m -4.9374999,452.42467 0,10 10,-5 z"
       copytype="single_stretched"
       prop_scale="0.4"
       scale_y_rel="false"
       spacing="0"
       normal_offset="0"
       tang_offset="0"
       prop_units="false"
       vertical_pattern="false"
       fuse_tolerance="0" />
    <inkscape:path-effect
       effect="skeletal"
       id="path-effect8274-8"
       is_visible="true"
       pattern="m -7.5624998,452.36217 0,10 10,-5 z"
       copytype="single_stretched"
       prop_scale="0.4"
       scale_y_rel="false"
       spacing="0"
       normal_offset="0"
       tang_offset="0"
       prop_units="false"
       vertical_pattern="false"
       fuse_tolerance="0" />
    <inkscape:path-effect
       fuse_tolerance="0"
       vertical_pattern="false"
       prop_units="false"
       tang_offset="0"
       normal_offset="0"
       spacing="0"
       scale_y_rel="false"
       prop_scale="0.4"
       copytype="single_stretched"
       pattern="m -7.5624998,452.36217 0,10 10,-5 z"
       is_visible="true"
       id="path-effect8271-0"
       effect="skeletal" />
  </defs>
  <metadata
     id="metadata7">
    <rdf:RDF>
      <cc:Work
         rdf:about="">
        <dc:format>image/svg+xml</dc:format>
        <dc:type
           rdf:resource="http://purl.org/dc/dcmitype/StillImage" />
        <dc:title></dc:title>
      </cc:Work>
    </rdf:RDF>
  </metadata>
  <g
     transform="translate(0,-652.36217)"
     id="layer1"
     inkscape:groupmode="layer"
     inkscape:label="Ebene 1">
    <g
       id="g3234"
       style="fill:#55d400">
      <path
         sodipodi:nodetypes="ccccccccccccccccccccccsccccccssssssssssssssssssssss"
         inkscape:connector-curvature="0"
         id="path7054"
         transform="translate(0,652.36217)"
         d="m 190.5,201 -8,8 -4,-7.25 -7.25,7.25 -3.5,-6.75 -4.75,7.25 c 0,0 -3,-5 -4,-6 l 0.5,7 -5,-4.75 3.75,7.75 -6.5,2.5 9.75,7.75 -8.25,4.25 6.75,5.5 -5.5,4.25 2.75,3 0.5,6 6.5,-7.25 5.25,8 8.75,-6 5.5,5.75 2.75,-6.75 c 0,0 9.25,3 10.25,2.5 1,-0.5 -8,-10 -8,-10 l 7.75,-3.5 -6.75,-7.75 9,-9.75 -9.25,-1 z m -13.53125,10.71875 c 2.65165,0.70711 3.71263,0.8946 6.1875,0.1875 2.47488,-0.70711 2.10631,-0.52144 3.34375,-0.875 1.23744,-0.35355 2.14553,2.97243 1.96875,5.09375 -0.17678,2.12132 -2.5,3.03401 -2.5,4.625 0,1.59099 2.46875,4.40993 2.46875,6.53125 0,2.12132 -1.57506,0.87684 -2.8125,1.9375 -1.23744,1.06066 -0.70803,2.65993 -0.53125,4.78125 0.17677,2.12132 0.33211,3.18842 -0.375,3.71875 -0.7071,0.53033 -2.07506,1.30178 -3.3125,1.125 -1.23743,-0.17678 -4.62868,0.11519 -6.75,0.46875 -2.12132,0.35355 -4.24388,-0.0107 -6.71875,-0.1875 -2.47488,-0.17678 -3.15803,-2.44331 -3.84375,-3.3125 -0.93478,-1.18489 -1.35631,-2.75184 -2.59375,-3.8125 -1.23744,-1.06066 0.4911,-2.9351 0.6875,-4.28125 0.39335,-2.69608 3.911,-1.84176 1.75,-5.59375 -0.71133,-1.23502 -2.14829,-3.06342 -3.4375,-4.03125 -1.20789,-0.90679 0.94462,-2.75993 1.59375,-4.0625 0.40118,-0.80503 0.61704,-1.9439 1.4375,-2.3125 1.85575,-0.83371 4.23223,1.41605 6,1.0625 1.76777,-0.35355 2.47059,-1.58395 3.57874,-1.87044 1.10816,-0.28649 1.53857,0.18922 3.85876,0.80794 z"
         style="fill:#55d400;stroke:none" />
      <path
         sodipodi:nodetypes="ccccccccccccccccccccccccsssssssssssscc"
         style="fill:#55d400;stroke:none"
         d="m 105,205 5,4.24999 4.25001,-6.75 3.5,7 5.5,-6.25 4,7.75 5.75,-8 2,7 5.75,-7.5 -0.75,6.75 7,0.75 -6.75,7.75 5.75,5.5 -6.25,5 5.75,5.75 -6,4.25 5,6.5 -9,-4.75 -4,6.25 -6.75,-7.75 -5.25,6.75 -6.75,-5.5 L 105,245 l 0,-5 c 5,0 4.16877,-2.8432 6.5,-3.75001 2.1481,-0.83558 3.82013,0.69503 6.125,0.68751 2.75932,-0.009 5.87501,-0.43751 7.62501,-0.68751 1.75,-0.25 5.27851,2.63316 8.125,1.0625 1.31536,-0.7258 3.93671,-3.57203 4.125,-5.0625 0.22131,-1.75188 -1.65304,-3.23686 -1.75,-5 -0.1221,-2.22026 1.2128,-4.29502 1.5,-6.5 0.33384,-2.56303 2.07862,-5.92334 0.25,-7.75 -1.7697,-1.7678 -5.01735,0.55563 -7.5,0.25 -1.80639,-0.22238 -2.31765,0.2231 -4.125,0.4375 -2.18631,0.25936 -4.55962,-1.78494 -6.75,-1.5625 -2.70053,0.27424 -5.83665,1.31298 -7.87501,0.375 C 109.42902,211.66204 110,210 105,210 z"
         id="path7030"
         inkscape:connector-curvature="0"
         transform="translate(0,652.36217)" />
      <path
         sodipodi:nodetypes="ccccccccccssssssscc"
         style="fill:#55d400;stroke:none"
         d="m 55,205 5.500003,5.74999 4.75,-8.5 4,7.75 4.75,-6.5 6.000001,6 5,-7.25 3.75,7.25 L 95,205 l 0,5 c -5,0 -3.303632,2.29855 -5.937496,2.81249 -2.020084,0.39417 -2.007688,0.55523 -4.0625,0.4375 -1.563128,-0.0896 -5.6875,-1 -6.6875,-1 -1,0 -1.721429,1.64198 -3.812501,1 -1.41164,-0.43339 -2.780769,-1.39804 -4.25,-1.25 -1.594873,0.1607 -2.75,1.5 -4.25,2.25 -1.5,0.75 -3.69132,0.79416 -5.8125,0.0625 C 57.824146,213.4973 60,210 55,210 z"
         id="path7026"
         inkscape:connector-curvature="0"
         transform="translate(0,652.36217)" />
      <path
         sodipodi:nodetypes="ccscccccccsssssscc"
         style="fill:#55d400;stroke:none"
         d="m 55,245 c 0.75,-1 7.000003,-4.25001 7.000003,-4.25001 0,0 1,6.75 2.5,5.75 1.5,-1 6.75,-7 6.75,-7 l 5.5,6.5 6.000001,-6.25 5.75,6.25 0.75,-5.75 L 95,245 l 0,-5 c -5,0 -2.208524,-3.64002 -5.125,-4.1875 -2.092932,-0.39288 -4.374996,0.43749 -5.874996,0.43749 -1.5,0 -5.367386,-1.2429 -8.000001,-0.75 -2.197877,0.4115 -5.625,2.125 -6.625,2.125 -1,0 -1.934587,-0.85974 -3.375,-1.375 -1.354503,-0.48453 -4.154555,0.82981 -5.5625,1.125 C 57.79088,237.92988 60,240 55,240 z"
         id="path7024"
         inkscape:connector-curvature="0"
         transform="translate(0,652.36217)" />
      <path
         sodipodi:nodetypes="cccccsccccccccccscccccscccsssssssssssscc"
         style="fill:#55d400;stroke:none"
         d="m 45,205 -7.499998,4.74999 -6.500001,-6.75 -3.5,6.75 -6,-6 c 0,0 -0.5,6.75 -1.75,6.75 -1.25,0 -6,-6.25 -6,-6.25 l -1,5.75 -7.7500008,-4.5 5.7499998,7.75 -7.7499999,4.75 6.2500003,5 -4.5000002,2.25 5.9999998,4.25 -7.2499998,2 7.2499998,5 c 0,0 -7.7499999,8.75 -6.7499998,8.25 1,-0.5 9.7500008,-4.25 9.7500008,-4.25 l 3,7 4.75,-6.5 4,4.5 3,-5 c 0,0 1.25,6.25 3.5,5.25 2.250001,-1 6.000001,-7 6.000001,-7 L 45,245 c 0,0 0,0 0,-5 -5,0 0.140506,-7.90866 -11.749999,-4.75001 -2.754893,0.73182 -6.5,1 -8.25,1.25 -1.75,0.25 -6.25,1 -7.5,0.5 -1.25,-0.5 -4.643002,-1.07801 -5.25,-3 -0.471516,-1.493 1.65844,-2.72202 2,-4.25 0.254512,-1.13857 0.25,-2.25 0,-3.5 -0.25,-1.25 -2.491701,-4.69362 -2.6875,-6.6875 -0.163696,-1.66696 0.63117,-2.59438 1.4375,-4.0625 0.714253,-1.30047 2.625,-3.375 3.875,-3.375 1.25,0 4.5,1 5.75,1.25 1.25,0.25 4.743422,0.73506 7.125,0.625 1.861404,-0.086 3.652249,-0.75909 5.500001,-1 C 41.647057,212.16595 40,210 45,210 z"
         id="path7028"
         inkscape:connector-curvature="0"
         transform="translate(0,652.36217)" />
      <path
         sodipodi:nodetypes="cccccccccccccsccccccscccssssssssssssscc"
         style="fill:#55d400;stroke:none"
         d="m 155,295 6.00001,-7.5 -6.75,-6.50001 5,-6.25 -7.75,-4.75 7,-4.5 -7,-6.75 9,1 3,-6.5 5.5,7.5 5.75,-7 3,7 5,-8 c 0,0 1.25,8 2.25,7.75 1,-0.25 7.75,-7.75 7.75,-7.75 l -2.25,10 6.25,4.25 -7.75,6.75 7.25,5.5 -6.75,5 c 0,0 8,3 7,3.50001 -1,0.5 -6.75,2.5 -6.75,2.5 L 195,295 l -5,0 c 0,-5 -3.27513,-3.46967 -3.85095,-5.44194 -0.35033,-1.19991 1.84841,-7.46847 1.95451,-9.32584 0.12682,-2.21999 -1.63175,-4.01522 -1.76516,-6.23483 -0.14079,-2.34246 2.44141,-3.68228 2.51777,-6.02773 0.0651,-2.00068 -0.18737,-3.07284 -1.75261,-4.32062 -1.78928,-1.42639 -5.83541,-1.11874 -7.98743,-0.34099 -2.2456,0.81157 -4.21863,1.75997 -6.60356,1.64384 -2.33206,-0.11356 -2.33245,-0.86614 -4.51256,-1.7019 -1.25467,-0.48099 -2.78204,-1.06755 -4,-0.5 -1.52947,0.71271 -2.55743,2.57365 -2.75,4.25 -0.2527,2.19975 1.2081,5.01064 1.10095,7.22227 -0.0848,1.74993 -1.91644,4.58912 -1.89645,6.34099 0.0223,1.95505 2.99192,3.45478 3.51517,5.2422 2.03617,6.95563 -3.8772,5.15847 -3.96968,9.19455 z"
         id="path7052"
         inkscape:connector-curvature="0"
         transform="translate(0,652.36217)" />
      <path
         sodipodi:nodetypes="ccccccccccsssscc"
         style="fill:#55d400;stroke:none"
         d="m 5,305 5,7.25 L 3.7500002,317.5 10.25,323.75 3.5000002,329 9.7500004,334.5 4.2500002,337 8.6286796,340.57322 5,345 l 5,0 c 0,-5 1,-6 1.750001,-8 0.75,-2 2.570621,-6.05546 2.320621,-8.46967 -0.293861,-2.83777 -2.71967,-7.23744 -2.71967,-8.48744 0,-1.25 2.275964,-3.38287 2.058059,-5.85095 C 13.113571,310.84568 10,310 10,305 z"
         id="path7036"
         inkscape:connector-curvature="0"
         transform="translate(0,652.36217)" />
      <path
         sodipodi:nodetypes="ccccccccccccccccccsssssssscc"
         style="fill:#55d400;stroke:none"
         d="M 4.5000002,355.25 10,360.75 4.5000002,364 l 5.0000002,3.75 -6.5000003,6.25 6.7500003,3 -7.2500003,6.25 7.9999999,3 -6.7499998,7.5 8.0000008,-4 3,7.5 5,-6.75 6.25,5.75 4,-6.25 5.500001,6.5 5.25,-6.25 L 45,395 l 0,-5 c 0,0 -2.69454,-3.29108 -5.497396,-2.98223 -1.933732,0.21307 -3.580278,2.18325 -5.502602,2.48223 -2.543329,0.39557 -2.025127,-0.90901 -4.275127,-2.15901 -4.406458,-2.44803 -9.282798,1.5743 -13.691942,-0.10616 -2.929304,-1.11644 -4.338271,-3.14776 -5.118719,-6.05805 -0.348868,-1.30093 2.376322,-5.48253 2.085787,-8.42678 -0.155596,-1.57679 -1.530033,-2.00322 -1.60907,-3.59698 -0.111497,-2.2483 1.359879,-5.6519 0.904565,-7.8402 C 11.839387,359.12069 10,355 10,355 z"
         id="path7038"
         inkscape:connector-curvature="0"
         transform="translate(0,652.36217)" />
      <path
         sodipodi:nodetypes="ccccccccccssssssscc"
         style="fill:#55d400;stroke:none"
         d="m 55,395 5.500003,-4.75 5.5,5.75 2.75,-5.75 7,5.75 5.000001,-7.25 4,6.5 4.25,-6.75 L 95,395 l 0,-5 c -5,0 -3.14466,-4.91021 -5.911608,-5.04289 -2.014971,-0.0966 -5.34099,0.74479 -6.34099,0.74479 -1,0 -2.500464,1.0007 -4.997399,1.2981 -1.561294,0.18596 -2.873033,-1.0705 -4.441942,-1.17417 -2.009458,-0.13279 -4.058058,0.92417 -5.058058,1.17417 -1,0.25 -2.642215,-0.0855 -4.512563,-0.57322 -1.302721,-0.33974 -2.6348,0.68471 -3.926777,1.06326 C 57.746844,388.09473 60,390 55,390 c 0,5 0,5 0,5 z"
         id="path7040"
         inkscape:connector-curvature="0"
         transform="translate(0,652.36217)" />
      <path
         sodipodi:nodetypes="ccccccccccccccccccsssssssscc"
         style="fill:#55d400;stroke:none"
         d="m 105,395 c 2.5,-1.5 6.5,-5.25 6.5,-5.25 l 5.25001,7.5 4.25,-6.5 4.5,4.25 6,-5 2.5,5.75 2.5,-5.5 6.75,5.25 -4.75,-8.25 6,-2.75 -5.5,-4.75 6.25,-4.25 -6.75,-4.5 6.25,-5 -5.25,-4 5.49999,-7 -5,0 c 0,5 -5.11995,7.64396 -4.60094,8.68198 0.5,1 2.20655,1.4165 2.35095,2.56802 0.32935,2.62649 -2.26647,4.226 -2.77773,6.82322 -0.46925,2.38382 1.6855,1.73007 1.81066,4.15641 0.0987,1.91412 -0.47229,7.9077 -2.03293,9.02037 -2.08146,1.48399 -4.69558,-2.5982 -7.25,-2.5 -2.72262,0.10467 -4.78369,3.03721 -7.5,3.25 -2.65982,0.20836 -5.12307,-2.46609 -7.75001,-2 -2.89051,0.51285 -2.25,5 -7.25,5 z"
         id="path7042"
         inkscape:connector-curvature="0"
         transform="translate(0,652.36217)" />
      <path
         sodipodi:nodetypes="ccccccccccsssssscc"
         style="fill:#55d400;stroke:none"
         d="m 145,345 -6,-6.25 7.75001,-5.25 -7.5,-4.75 6.75,-5 -6.25,-6.25 7,-3.5 -7,-4 5.24999,-5 -5,0 c 0,5 -2.5605,4.02283 -3.39383,5.35616 -1.12022,1.79234 -0.17449,1.71921 0.14384,3.64384 0.3737,2.25938 0.16737,4.59989 -0.14384,6.86872 -0.27426,1.99937 -1.53511,3.84561 -1.50781,5.86351 0.0353,2.6063 2.13613,4.91128 2.15165,7.51777 0.0102,1.70773 -1.64656,3.25997 -1.35095,4.94194 C 136.3093,341.52615 140,340 140,345 z"
         id="path7044"
         inkscape:connector-curvature="0"
         transform="translate(0,652.36217)" />
      <path
         sodipodi:nodetypes="cscccsscccccccccccccccccsssssssssssscc"
         style="fill:#55d400;stroke:none"
         d="m 155,355 c 0,0 6.00001,5.25 4.75001,6 -1.25,0.75 -6.75,5.75 -6.75,5.75 l 6.5,4.25 -6,4.5 c 0,0 8.25,5.75 7.25,6.25 -1,0.5 -9.5,4 -8.25,4.5 1.25,0.5 8.25,2.25 8.25,2.25 l -2.5,7.5 6.25,-6 6.25,6 4.75,-5.5 9.75,5.75 1,-5.75 6.75,4 -3.5,-6.5 5.75,-3 -6.25,-6.25 5,-4 -4.5,-4.25 7.25,-4.25 -7,-5.25 5.24999,-6 -5,0 c 0,5 -2.18354,5.269 -2.49999,6.25 -0.83333,2.58333 -1.66667,5.16667 -2.5,7.75 -0.54271,1.6824 1.39384,8.01517 1.39384,9.51517 0,1.5 2.0118,4.20228 1.06587,6.55805 -0.53061,1.32145 -2.38765,3.64769 -3.70971,4.17678 -2.66441,1.06631 -4.88356,-3.6099 -7.75,-3.75 -1.68536,-0.0824 -3.09962,1.39861 -4.75,1.75 -2.45062,0.52177 -5.59464,2.12708 -7.5,0.5 -1.39992,-1.19546 -0.56451,-3.66024 -0.5,-5.5 0.10946,-3.12169 -2.0371,-4.18676 -2.21231,-7.30546 -0.12136,-2.16005 2.40791,-6.07747 1.96231,-8.19454 -0.3641,-1.72986 -0.5,-3.5 -0.75,-5.25 C 162.00001,359.75 160,360 160,355 z"
         id="path7046"
         inkscape:connector-curvature="0"
         transform="translate(0,652.36217)" />
      <path
         sodipodi:nodetypes="ccscccccccsssscc"
         style="fill:#55d400;stroke:none"
         d="m 155,345 2.75001,-6.75 c 0,0 -6.5,-2.5 -5.5,-3.25 1,-0.75 9,-4.75 9,-4.75 l -8.25,-4 8,-3.75 -8.75,-5 7.25,-4.25 L 155,305 l 5,0 c 0,0 -0.24999,4 0.25001,5.75 0.5,1.75 5,5.75 4.75,7 -0.25,1.25 -2.2448,6.95711 -2.2448,7.95711 0,1 1.07082,3.04434 0.9948,5.04289 C 163.40471,339.82768 160,340 160,345 z"
         id="path7048"
         inkscape:connector-curvature="0"
         transform="translate(0,652.36217)" />
      <path
         sodipodi:nodetypes="csccccccccssssscc"
         style="fill:#55d400;stroke:none"
         d="m 195,345 c 0,0 -6.99999,-5 -5.24999,-6 1.75,-1 7.75,-3.5 7.75,-3.5 l -7.5,-3.75 7.75,-5 -9,-6.75 6.75,-2.75 -6.5,-5.5 L 195,305 l -5,0 c 0,5 -1.88938,4.31046 -2.74999,6.5 -0.71362,1.81557 -1.85893,3.55432 -2,5.5 -0.17846,2.46139 1.90649,4.81586 1.5,7.25 -0.43079,2.57967 -4.00715,4.13462 -4,6.75 0.007,2.42955 3.75,6.25 3.75,6.25 C 189.85027,342.83376 190,340 190,345 c 5,0 5,0 5,0 z"
         id="path7050"
         inkscape:connector-curvature="0"
         transform="translate(0,652.36217)" />
      <path
         sodipodi:nodetypes="cccccccccccccccccccssssssssscc"
         style="fill:#55d400;stroke:none"
         d="m 105,255 5.48544,5.16963 5.3033,-7.07107 4.06586,7.07107 5.83364,-6.89429 5.3033,7.24784 3.18198,-5.65685 3.88909,6.54073 8.13172,-6.89429 -1.59099,7.6014 -4.94974,4.24264 7.24784,3.18198 -6.36396,4.41942 6.01041,3.0052 -6.89429,6.01041 7.77817,3.71231 -7.24784,3.35876 5.65685,4.94975 L 140,295 c 0,-5 -4.96011,-4.07005 -4.76214,-5.88189 0.29649,-2.71357 2.11764,-5.2604 2.29442,-6.14429 0.17677,-0.88388 -2.20386,-5.87423 -2.55699,-8.65317 -0.32986,-2.59585 2.46995,-3.96659 1.93566,-6.52818 -0.32396,-1.55319 -3.26776,-4.61764 -3.97487,-4.44086 -0.70711,0.17678 -4.22898,0.41984 -4.93608,0.77339 -0.70711,0.35355 -3.86808,-2.40364 -6.01041,-2.2981 -1.84243,0.0908 -4.24264,2.2981 -4.94975,2.47488 -0.70711,0.17677 -3.92907,-1.59706 -6.01041,-1.76777 C 109.43002,262.40283 110,260 105,260 z"
         id="path6994"
         inkscape:connector-curvature="0"
         transform="translate(0,652.36217)" />
      <path
         sodipodi:nodetypes="cccccccccccccccccssssssssscc"
         style="fill:#55d400;stroke:none"
         d="m 45,255 -5.624998,5.12499 -4.75,-6.125 -4.750001,6.625 -5.25,-6.875 -6.625,6.625 -4.5,-6.375 -3.6250006,2.75 -4.6250002,0.125 4.9999998,7.125 -5.4999998,4.75 5.0000002,4.375 -5.3750002,6.625 5.5000002,3 -5.3750002,4.125 L 10.5,290.625 5,295 l 5,0 c 1.302375,0 3.125001,-4.875 3.125001,-5.75 0,-0.875 -1.375,-11.00001 -1.375,-11.50001 0,-0.5 1.047104,-2.61789 1.25,-4 0.5326,-3.62802 -1.184045,-6.38245 1.25,-9.125 1.029302,-1.15976 3.250577,-2.02028 4.75,-1.625 1.587761,0.41856 3.50289,1.87017 5.125,2.125 2.551369,0.40082 4.792411,-2.35563 7.375,-2.375 1.568417,-0.0118 3.081769,2.04484 4.500001,1.375 C 39.638021,262.40672 40.602241,260.10377 45,260 z"
         id="path6990"
         inkscape:connector-curvature="0"
         transform="translate(0,652.36217)" />
      <path
         sodipodi:nodetypes="ccccccccccssssscc"
         style="fill:#55d400;stroke:none"
         d="m 55,255 4.308584,5.08124 4.949748,-5.74524 6.363961,5.48007 5.656854,-5.92202 4.684583,6.0988 5.214913,-5.3033 3.005204,5.65685 L 95,255 l 0,5 c -3.182369,0 -5.489885,2.55838 -8.754413,4.61309 -0.455024,0.28639 -3.696199,-1.83669 -5.656855,-1.67937 -1.760144,0.14123 -3.007879,2.24807 -4.772971,2.29809 -3.314378,0.0939 -5.920838,-4.34003 -9.192388,-3.8007 -1.854136,0.30567 -2.38908,3.40318 -4.242641,3.71231 C 59.617606,265.60424 56.469082,260 55,260 z"
         id="path6986"
         inkscape:connector-curvature="0"
         transform="translate(0,652.36217)" />
    </g>
    <path
       inkscape:connector-curvature="0"
       id="rect7829-2-2-8-5-9-0-5-4"
       d="m 159.99999,1007.3622 c 0.0131,3.4156 -0.1993,7.1826 -0.375,10.5937 -0.1523,2.9566 -0.21948,5.9171 -0.0937,8.875 0.14255,3.3539 0.95875,6.6743 0.96875,10.0313 0.005,1.8414 -0.5,5.5 -0.5,5.5 0,0 3.76788,-0.1878 5.65625,-0.2188 3.34047,-0.055 6.69287,-0.068 10.03125,0.062 3.26134,0.1273 6.48707,0.7645 9.75,0.6875 1.5263,-0.036 4.56245,-0.5312 4.56245,-0.5312 0,0 -0.5235,-3.0532 -0.5625,-4.5938 -0.0936,-3.6989 0.6396,-7.3652 0.78125,-11.0625 0.1274,-3.3252 0.2061,-6.6755 0.0625,-10 -0.14025,-3.2468 -0.31225,-6.0941 -0.28125,-9.3437 l -30,0 z"
       style="fill:none;fill-opacity:1;stroke:none" />
    <path
       inkscape:connector-curvature="0"
       id="rect7829-2-8-4-7-4-0"
       d="m 160,957.3622 c 0,3.3337 -0.79528,6.3582 -0.625,9.6875 0.16652,3.256 0.9493,6.459 1,9.7187 0.058,3.7262 -0.83795,7.4302 -0.78125,11.1563 0.0501,3.2922 0.39365,6.145 0.40625,9.4375 l 30,0 c 0.029,-3.0417 0.20701,-6.4023 0.40625,-9.4375 0.22387,-3.4067 0.25015,-6.805 0.21875,-10.2188 -0.0297,-3.228 -0.41325,-6.4593 -0.40625,-9.6875 C 190.22675,964.468 190,960.9126 190,957.3622 l -30,0 z"
       style="fill:none;fill-opacity:1;stroke:none" />
    <path
       inkscape:connector-curvature="0"
       id="rect7829-2-13-6-2-8-9"
       d="m 160,912.3622 c 0,0 -0.57604,3.5338 -0.6875,5.3125 -0.19731,3.1483 -0.17337,6.3209 0.0312,9.4687 0.22678,3.4886 1.35765,6.8791 1.34375,10.375 -0.0126,3.1995 -0.68745,6.3841 -0.68745,9.8438 l 30,0 c 0,-3.0441 0.005,-6.2198 -0.21875,-9.3438 -0.2543,-3.5575 -0.63188,-7.1248 -0.46875,-10.6875 0.14935,-3.262 1.31725,-6.4222 1.34375,-9.6875 0.0144,-1.7718 -0.65625,-5.2812 -0.65625,-5.2812 0,0 -3.59512,0.5165 -5.40625,0.5625 -2.97021,0.076 -5.93508,-0.4685 -8.90625,-0.4688 -3.48548,-3e-4 -6.95413,0.6836 -10.4375,0.5625 -1.76353,-0.061 -5.25,-0.6562 -5.25,-0.6562 z"
       style="fill:none;fill-opacity:1;stroke:none" />
    <path
       style="fill:none;stroke:#000000;stroke-width:2;stroke-linecap:round;stroke-linejoin:miter;stroke-miterlimit:4;stroke-opacity:1;stroke-dasharray:none"
       d="m 55,255 4.308584,5.08124 4.949748,-5.74524 6.363961,5.48007 5.656854,-5.92202 4.684583,6.0988 5.214913,-5.3033 3.005204,5.65685 L 95,255"
       id="path6984"
       inkscape:connector-curvature="0"
       transform="translate(0,652.36217)"
       sodipodi:nodetypes="ccccccccc" />
    <path
       style="fill:none;stroke:#000000;stroke-width:2;stroke-linecap:round;stroke-linejoin:miter;stroke-miterlimit:4;stroke-opacity:1;stroke-dasharray:none"
       d="m 45,255 -5.624998,5.12499 -4.75,-6.125 -4.750001,6.625 -5.25,-6.875 -6.625,6.625 -4.5,-6.375 -3.6250006,2.75 -4.6250002,0.125 4.9999998,7.125 -5.4999998,4.75 5.0000002,4.375 -5.3750002,6.625 5.5000002,3 -5.3750002,4.125 L 10.5,290.625 5,295"
       id="path6988"
       inkscape:connector-curvature="0"
       transform="translate(0,652.36217)"
       sodipodi:nodetypes="ccccccccccccccccc" />
    <path
       style="fill:none;stroke:#000000;stroke-width:2;stroke-linecap:round;stroke-linejoin:miter;stroke-miterlimit:4;stroke-opacity:1;stroke-dasharray:none"
       d="m 105,255 5.48544,5.16963 5.3033,-7.07107 4.06586,7.07107 5.83364,-6.89429 5.3033,7.24784 3.18198,-5.65685 3.88909,6.54073 8.13172,-6.89429 -1.59099,7.6014 -4.94974,4.24264 7.24784,3.18198 -6.36396,4.41942 6.01041,3.0052 -6.89429,6.01041 7.77817,3.71231 -7.24784,3.35876 L 145,295"
       id="path6992"
       inkscape:connector-curvature="0"
       transform="translate(0,652.36217)"
       sodipodi:nodetypes="cccccccccccccccccc" />
    <path
       style="fill:none;stroke:#000000;stroke-width:2;stroke-linecap:butt;stroke-linejoin:miter;stroke-miterlimit:4;stroke-opacity:1;stroke-dasharray:none"
       d="m 5,305 5,7.25 L 3.7500002,317.5 10.25,323.75 3.5000002,329 9.7500004,334.5 4.2500002,337 8.4519029,340.48483 5,345"
       id="path6996"
       inkscape:connector-curvature="0"
       transform="translate(0,652.36217)"
       sodipodi:nodetypes="ccccccccc" />
    <path
       style="fill:none;stroke:#000000;stroke-width:2;stroke-linecap:butt;stroke-linejoin:miter;stroke-miterlimit:4;stroke-opacity:1;stroke-dasharray:none"
       d="m 5,355 5,5.75 -5.4999998,3.25 5.0000002,3.75 -6.5000003,6.25 6.7500003,3 -7.2500003,6.25 7.9999999,3 -6.7499998,7.5 8.0000008,-4 3,7.5 5,-6.75 6.25,5.75 4,-6.25 5.500001,6.5 5.25,-6.25 L 45,395"
       id="path6998"
       inkscape:connector-curvature="0"
       transform="translate(0,652.36217)"
       sodipodi:nodetypes="ccccccccccccccccc" />
    <path
       style="fill:none;stroke:#000000;stroke-width:2;stroke-linecap:butt;stroke-linejoin:miter;stroke-miterlimit:4;stroke-opacity:1;stroke-dasharray:none"
       d="m 55,395 5.500003,-4.75 5.5,5.75 2.75,-5.75 7,5.75 5.000001,-7.25 4,6.5 4.25,-6.75 L 95,395"
       id="path7000"
       inkscape:connector-curvature="0"
       transform="translate(0,652.36217)"
       sodipodi:nodetypes="ccccccccc" />
    <path
       style="fill:none;stroke:#000000;stroke-width:2;stroke-linecap:butt;stroke-linejoin:miter;stroke-miterlimit:4;stroke-opacity:1;stroke-dasharray:none"
       d="m 105,395 6.5,-5.25 5.25001,7.5 4.25,-6.5 4.5,4.25 6,-5 2.5,5.75 2.5,-5.5 6.75,5.25 -4.75,-8.25 6,-2.75 -5.5,-4.75 6.25,-4.25 -6.75,-4.5 6.25,-5 -5.25,-4 L 145,355"
       id="path7002"
       inkscape:connector-curvature="0"
       transform="translate(0,652.36217)"
       sodipodi:nodetypes="ccccccccccccccccc" />
    <path
       style="fill:none;stroke:#000000;stroke-width:2;stroke-linecap:butt;stroke-linejoin:miter;stroke-miterlimit:4;stroke-opacity:1;stroke-dasharray:none"
       d="m 145,345 -5.24999,-6.25 7,-5.25 -7.5,-4.75 6.75,-5 -6.25,-6.25 7,-3.5 -7,-4 L 145,305"
       id="path7004"
       inkscape:connector-curvature="0"
       transform="translate(0,652.36217)"
       sodipodi:nodetypes="ccccccccc" />
    <path
       style="fill:none;stroke:#000000;stroke-width:2;stroke-linecap:butt;stroke-linejoin:miter;stroke-miterlimit:4;stroke-opacity:1;stroke-dasharray:none"
       d="m 55,245 7.000003,-4.25001 2.5,5.75 6.75,-7 5.5,6.5 6.000001,-6.25 5.75,6.25 0.75,-5.75 L 95,245"
       id="path7006"
       inkscape:connector-curvature="0"
       transform="translate(0,652.36217)"
       sodipodi:nodetypes="ccccccccc" />
    <path
       style="fill:none;stroke:#000000;stroke-width:2;stroke-linecap:butt;stroke-linejoin:miter;stroke-miterlimit:4;stroke-opacity:1;stroke-dasharray:none"
       d="m 55,205 5.500003,5.74999 4.75,-8.5 4,7.75 4.75,-6.5 6.000001,6 5,-7.25 3.75,7.25 L 95,205"
       id="path7008"
       inkscape:connector-curvature="0"
       transform="translate(0,652.36217)"
       sodipodi:nodetypes="ccccccccc" />
    <path
       style="fill:none;stroke:#000000;stroke-width:2;stroke-linecap:butt;stroke-linejoin:miter;stroke-miterlimit:4;stroke-opacity:1;stroke-dasharray:none"
       d="m 45,205 -7.499998,4.74999 -6.500001,-6.75 -3.5,6.75 -6,-6 -1.75,6.75 -6,-6.25 -1,5.75 -7.7500008,-4.5 5.7499998,7.75 -7.7499999,4.75 6.2500003,5 -4.5000002,2.25 5.9999998,4.25 -7.2499998,2 7.2499998,5 -6.7499998,8.25 9.7500008,-4.25 3,7 4.75,-6.5 4,4.5 3,-5 3.5,5.25 6.000001,-7 L 45,245"
       id="path7010"
       inkscape:connector-curvature="0"
       transform="translate(0,652.36217)"
       sodipodi:nodetypes="ccccccccccccccccccccccccc" />
    <path
       style="fill:none;stroke:#000000;stroke-width:2;stroke-linecap:butt;stroke-linejoin:miter;stroke-miterlimit:4;stroke-opacity:1;stroke-dasharray:none"
       d="m 104.25,203.24999 5.75,6 4.25001,-6.75 3.5,7 5.5,-6.25 4,7.75 5.75,-8 2,7 5.75,-7.5 -0.75,6.75 7,0.75 -6.75,7.75 5.75,5.5 -6.25,5 5.75,5.75 -6,4.25 5,6.5 -9,-4.75 -4,6.25 -6.75,-7.75 -5.25,6.75 -6.75,-5.5 L 105,245"
       id="path7012"
       inkscape:connector-curvature="0"
       transform="translate(0,652.36217)"
       sodipodi:nodetypes="ccccccccccccccccccccccc" />
    <path
       style="fill:none;stroke:#000000;stroke-width:2;stroke-linecap:butt;stroke-linejoin:miter;stroke-miterlimit:4;stroke-opacity:1;stroke-dasharray:none"
       d="m 159.00001,203.49999 4,6 4.75,-7.25 3.5,6.75 7.25,-7.25 4,7.25 8,-8 -1,10 9.25,1 -9,9.75 6.75,7.75 -7.75,3.5 8,10 -10.25,-2.5 -2.75,6.75 -5.5,-5.75 -8.75,6 -5.25,-8 -6.5,7.25 -0.5,-6 -2.75,-3 5.5,-4.25 -6.75,-5.5 8.25,-4.25 -9.75,-7.75 6.5,-2.5 -3.75,-7.75 5,4.75 z"
       id="path7014"
       inkscape:connector-curvature="0"
       transform="translate(0,652.36217)"
       sodipodi:nodetypes="ccccccccccccccccccccccccccccc" />
    <path
       style="fill:none;stroke:#000000;stroke-width:2;stroke-linecap:butt;stroke-linejoin:miter;stroke-miterlimit:4;stroke-opacity:1;stroke-dasharray:none"
       d="m 155,295 6.00001,-7.5 -6.75,-6.50001 5,-6.25 -7.75,-4.75 7,-4.5 -7,-6.75 9,1 3,-6.5 5.5,7.5 5.75,-7 3,7 5,-8 2.25,7.75 7.75,-7.75 -2.25,10 6.25,4.25 -7.75,6.75 7.25,5.5 -6.75,5 7,3.50001 -6.75,2.5 L 195,295"
       id="path7016"
       inkscape:connector-curvature="0"
       transform="translate(0,652.36217)"
       sodipodi:nodetypes="ccccccccccccccccccccccc" />
    <path
       style="fill:none;stroke:#000000;stroke-width:2;stroke-linecap:butt;stroke-linejoin:miter;stroke-miterlimit:4;stroke-opacity:1;stroke-dasharray:none"
       d="m 155,355 4.75001,6 -6.75,5.75 6.5,4.25 -6,4.5 7.25,6.25 -8.25,4.5 8.25,2.25 -2.5,7.5 6.25,-6 6.25,6 4.75,-5.5 9.75,5.75 1,-5.75 6.75,4 -3.5,-6.5 5.75,-3 -6.25,-6.25 5,-4 -4.5,-4.25 7.25,-4.25 -7,-5.25 L 195,355"
       id="path7018"
       inkscape:connector-curvature="0"
       transform="translate(0,652.36217)"
       sodipodi:nodetypes="ccccccccccccccccccccccc" />
    <path
       style="fill:none;stroke:#000000;stroke-width:2;stroke-linecap:butt;stroke-linejoin:miter;stroke-miterlimit:4;stroke-opacity:1;stroke-dasharray:none"
       d="m 155,345 2.75001,-6.75 -5.5,-3.25 9,-4.75 -8.25,-4 8,-3.75 -8.75,-5 7.25,-4.25 L 155,305"
       id="path7020"
       inkscape:connector-curvature="0"
       transform="translate(0,652.36217)"
       sodipodi:nodetypes="ccccccccc" />
    <path
       style="fill:none;stroke:#000000;stroke-width:2;stroke-linecap:round;stroke-linejoin:miter;stroke-miterlimit:4;stroke-opacity:1;stroke-dasharray:none"
       d="m 195,345 -5.24999,-6 7.75,-3.5 -7.5,-3.75 7.75,-5 -9,-6.75 6.75,-2.75 -6.5,-5.5 L 195,305"
       id="path7022"
       inkscape:connector-curvature="0"
       transform="translate(0,652.36217)"
       sodipodi:nodetypes="ccccccccc" />
  </g>
</svg>
