<?xml version="1.0" encoding="UTF-8" standalone="no"?>
<!-- Created with Inkscape (http://www.inkscape.org/) -->

<svg
   xmlns:dc="http://purl.org/dc/elements/1.1/"
   xmlns:cc="http://creativecommons.org/ns#"
   xmlns:rdf="http://www.w3.org/1999/02/22-rdf-syntax-ns#"
   xmlns:svg="http://www.w3.org/2000/svg"
   xmlns="http://www.w3.org/2000/svg"
   xmlns:sodipodi="http://sodipodi.sourceforge.net/DTD/sodipodi-0.dtd"
   xmlns:inkscape="http://www.inkscape.org/namespaces/inkscape"
   width="50"
   height="50"
   id="svg2"
   version="1.1"
   inkscape:version="0.48.4 r9939"
   sodipodi:docname="anchor.svg"
   inkscape:export-filename="/home/micha/Programmieren/git/platformer/images/64appearblock.png"
   inkscape:export-xdpi="144"
   inkscape:export-ydpi="144">
  <sodipodi:namedview
     id="base"
     pagecolor="#000000"
     bordercolor="#666666"
     borderopacity="1.0"
     inkscape:pageopacity="0.0"
     inkscape:pageshadow="2"
     inkscape:zoom="2.828427"
     inkscape:cx="62.74248"
     inkscape:cy="55.188465"
     inkscape:document-units="px"
     inkscape:current-layer="layer1"
     showgrid="false"
     inkscape:showpageshadow="true"
     inkscape:window-width="1280"
     inkscape:window-height="750"
     inkscape:window-x="0"
     inkscape:window-y="25"
     inkscape:window-maximized="1">
    <inkscape:grid
       type="xygrid"
       id="grid2985"
       empspacing="5"
       visible="true"
       enabled="true"
       snapvisiblegridlinesonly="true"
       spacingx="10px"
       spacingy="10px"
       originx="0px"
       originy="0px" />
  </sodipodi:namedview>
  <defs
     id="defs4">
    <inkscape:path-effect
       effect="skeletal"
       id="path-effect3017"
       is_visible="true"
       pattern="M 0,0 0,10 10,5 z"
       copytype="single_stretched"
       prop_scale="1"
       scale_y_rel="false"
       spacing="0"
       normal_offset="0"
       tang_offset="0"
       prop_units="false"
       vertical_pattern="false"
       fuse_tolerance="0" />
  </defs>
  <metadata
     id="metadata7">
    <rdf:RDF>
      <cc:Work
         rdf:about="">
        <dc:format>image/svg+xml</dc:format>
        <dc:type
           rdf:resource="http://purl.org/dc/dcmitype/StillImage" />
        <dc:title />
      </cc:Work>
    </rdf:RDF>
  </metadata>
  <g
     inkscape:label="Ebene 1"
     inkscape:groupmode="layer"
     id="layer1"
     transform="translate(0,-1002.3622)">
    <path
       sodipodi:nodetypes="ssssssssssssssscs"
       inkscape:connector-curvature="0"
       id="path3003"
       d="m 41.037366,1039.3445 c -1.473079,2.0806 -3.640304,3.5936 -5.755252,4.9476 -2.114918,1.354 -4.239201,2.5883 -6.745359,3.0553 -2.506158,0.4669 -5.325788,0.095 -7.972508,-0.4857 -2.646709,-0.5806 -4.747457,-1.4667 -6.828059,-2.9397 -2.080601,-1.4731 -4.1724695,-3.5088 -5.5264824,-5.6238 -1.3540095,-2.1149 -1.9764103,-4.283 -2.4433619,-6.7892 -0.4669516,-2.5061 -0.8093419,-5.3131 -0.2287705,-7.9599 0.5805609,-2.6467 1.694018,-5.0809 3.1670995,-7.1614 1.4730813,-2.0806 3.5452393,-3.8863 5.6601873,-5.2404 2.114918,-1.354 4.573379,-2.2422 7.079537,-2.7092 2.506158,-0.4669 5.072442,-0.1441 7.719162,0.4365 2.646709,0.5806 4.883263,1.3068 6.963864,2.7798 2.080602,1.4731 3.789551,3.3613 5.143563,5.4762 1.354009,2.1149 2.563985,4.512 3.054793,7.0136 0.488822,2.4915 -0.08837,6.0234 -0.539035,8.3295 -0.450661,2.3061 -1.276299,4.7903 -2.749378,6.8708 z"
       style="fill:#d3bc5f;fill-opacity:1;stroke:#776621;stroke-width:2;stroke-linecap:butt;stroke-miterlimit:4;stroke-opacity:1;stroke-dashoffset:0" />
    <path
       sodipodi:nodetypes="sss"
       inkscape:connector-curvature="0"
       id="path4845"
       d="m 12.125,1018.3622 c 2.120796,-0.3951 1.910006,4.5852 -0.04482,2.9133 -0.924581,-0.7908 -2.1943541,-2.4962 0.04482,-2.9133 z"
       style="fill:none;stroke:#38300f;stroke-width:1px;stroke-linecap:butt;stroke-linejoin:miter;stroke-opacity:1" />
    <path
       sodipodi:nodetypes="sss"
       inkscape:connector-curvature="0"
       id="path4847"
       d="m 20.250001,1015.3622 c -1.099911,0.3576 0.6325,3.4386 0.875,1.4149 0.06784,-0.5662 -0.319111,-1.5956 -0.875,-1.4149 z"
       style="fill:none;stroke:#38300f;stroke-width:1px;stroke-linecap:butt;stroke-linejoin:miter;stroke-opacity:1" />
    <path
       sodipodi:nodetypes="sss"
       inkscape:connector-curvature="0"
       id="path4849"
       d="m 37.125002,1031.2372 c -2.137745,0.052 -1.216237,2.8671 0.04572,1.2128 0.739578,-0.9695 1.00729,-1.2383 -0.04572,-1.2128 z"
       style="fill:none;stroke:#38300f;stroke-width:1px;stroke-linecap:butt;stroke-linejoin:miter;stroke-opacity:1" />
    <path
       sodipodi:nodetypes="sss"
       inkscape:connector-curvature="0"
       id="path4851"
       d="m 37.000002,1019.8622 c -0.233712,-1.4825 -5.22772,-1.0731 -4.869509,0.4692 0.516456,2.2236 5.167066,1.4183 4.869509,-0.4692 z"
       style="fill:none;stroke:#38300f;stroke-width:1px;stroke-linecap:butt;stroke-linejoin:miter;stroke-opacity:1" />
    <path
       sodipodi:nodetypes="sss"
       inkscape:connector-curvature="0"
       id="path4853"
       d="m 23.062209,1027.9344 c 2.448434,-0.5694 1.076965,-0.5944 -0.49242,-1.6896 -0.89542,-0.6249 -1.577661,2.171 0.49242,1.6896 z"
       style="fill:none;stroke:#38300f;stroke-width:1px;stroke-linecap:butt;stroke-linejoin:miter;stroke-opacity:1" />
    <path
       sodipodi:nodetypes="sss"
       inkscape:connector-curvature="0"
       id="path4855"
       d="m 28.979205,1035.4278 c -0.349845,-0.037 -1.690652,0.4641 -0.220422,0.8552 1.373311,0.3653 2.885516,-0.5751 0.220422,-0.8552 z"
       style="fill:none;stroke:#38300f;stroke-width:1px;stroke-linecap:butt;stroke-linejoin:miter;stroke-opacity:1" />
    <path
       sodipodi:nodetypes="sss"
       inkscape:connector-curvature="0"
       id="path4857"
       d="m 17.000001,1036.1122 c -2.370349,1.6081 2.933368,1.7258 1.26323,0.1588 -0.319484,-0.2998 -0.891438,-0.411 -1.26323,-0.1588 z"
       style="fill:none;stroke:#38300f;stroke-width:1px;stroke-linecap:butt;stroke-linejoin:miter;stroke-opacity:1" />
    <path
       sodipodi:nodetypes="sss"
       inkscape:connector-curvature="0"
       id="path4859"
       d="m 11.250001,1029.2372 c -1.081767,0.6408 -0.52235,2.5494 0.618799,1.0327 0.500406,-0.6651 -0.05752,-1.3652 -0.618799,-1.0327 z"
       style="fill:none;stroke:#38300f;stroke-width:1px;stroke-linecap:butt;stroke-linejoin:miter;stroke-opacity:1" />
    <path
       sodipodi:nodetypes="sss"
       inkscape:connector-curvature="0"
       id="path4861"
       d="m 31.500002,1012.7372 c -2.472275,0.166 1.093008,2.5434 0.59919,0.667 -0.07264,-0.276 -0.318911,-0.6858 -0.59919,-0.667 z"
       style="fill:none;stroke:#38300f;stroke-width:1px;stroke-linecap:butt;stroke-linejoin:miter;stroke-opacity:1" />
    <path
       sodipodi:nodetypes="sss"
       inkscape:connector-curvature="0"
       id="path4863"
       d="m 25.750002,1042.7372 c -1.208466,0.4222 0.01323,1.2999 0.500645,1.123 0.472923,-0.1717 0.762857,-1.5644 -0.500645,-1.123 z"
       style="fill:none;stroke:#38300f;stroke-width:1px;stroke-linecap:butt;stroke-linejoin:miter;stroke-opacity:1" />
  </g>
</svg>
