<?xml version="1.0" encoding="UTF-8" standalone="no"?>
<!-- Created with Inkscape (http://www.inkscape.org/) -->

<svg
   xmlns:dc="http://purl.org/dc/elements/1.1/"
   xmlns:cc="http://creativecommons.org/ns#"
   xmlns:rdf="http://www.w3.org/1999/02/22-rdf-syntax-ns#"
   xmlns:svg="http://www.w3.org/2000/svg"
   xmlns="http://www.w3.org/2000/svg"
   xmlns:sodipodi="http://sodipodi.sourceforge.net/DTD/sodipodi-0.dtd"
   xmlns:inkscape="http://www.inkscape.org/namespaces/inkscape"
   width="50"
   height="50"
   id="svg2"
   version="1.1"
   inkscape:version="0.48.4 r9939"
   sodipodi:docname="anchor.svg"
   inkscape:export-filename="/home/micha/Programmieren/git/platformer/images/64appearblock.png"
   inkscape:export-xdpi="144"
   inkscape:export-ydpi="144">
  <sodipodi:namedview
     id="base"
     pagecolor="#000000"
     bordercolor="#666666"
     borderopacity="1.0"
     inkscape:pageopacity="0.0"
     inkscape:pageshadow="2"
     inkscape:zoom="5.656854"
     inkscape:cx="55.259436"
     inkscape:cy="29.153585"
     inkscape:document-units="px"
     inkscape:current-layer="layer1"
     showgrid="true"
     inkscape:showpageshadow="true"
     inkscape:window-width="1280"
     inkscape:window-height="750"
     inkscape:window-x="0"
     inkscape:window-y="25"
     inkscape:window-maximized="1">
    <inkscape:grid
       type="xygrid"
       id="grid2985"
       empspacing="5"
       visible="true"
       enabled="true"
       snapvisiblegridlinesonly="true"
       spacingx="10px"
       spacingy="10px"
       originx="0px"
       originy="0px" />
  </sodipodi:namedview>
  <defs
     id="defs4">
    <inkscape:path-effect
       effect="skeletal"
       id="path-effect3017"
       is_visible="true"
       pattern="M 0,0 0,10 10,5 z"
       copytype="single_stretched"
       prop_scale="1"
       scale_y_rel="false"
       spacing="0"
       normal_offset="0"
       tang_offset="0"
       prop_units="false"
       vertical_pattern="false"
       fuse_tolerance="0" />
  </defs>
  <metadata
     id="metadata7">
    <rdf:RDF>
      <cc:Work
         rdf:about="">
        <dc:format>image/svg+xml</dc:format>
        <dc:type
           rdf:resource="http://purl.org/dc/dcmitype/StillImage" />
        <dc:title />
      </cc:Work>
    </rdf:RDF>
  </metadata>
  <g
     inkscape:label="Ebene 1"
     inkscape:groupmode="layer"
     id="layer1"
     transform="translate(0,-1002.3622)">
    <path
       sodipodi:nodetypes="ssssssssssssssscs"
       inkscape:connector-curvature="0"
       id="path3003"
       d="m 36.613699,1036.2091 c -1.069972,1.5112 -2.644139,2.6102 -4.180334,3.5937 -1.536173,0.9835 -3.079148,1.88 -4.899499,2.2192 -1.82035,0.3391 -3.868392,0.069 -5.79084,-0.3528 -1.92244,-0.4217 -3.448321,-1.0653 -4.959568,-2.1352 -1.511247,-1.07 -3.030678,-2.5487 -4.014167,-4.0849 -0.983486,-1.5362 -1.435568,-3.111 -1.774739,-4.9313 -0.33917,-1.8204 -0.587866,-3.8592 -0.166167,-5.7817 0.421691,-1.9225 1.230452,-3.6905 2.300426,-5.2017 1.069974,-1.5113 2.575089,-2.8228 4.111283,-3.8064 1.536173,-0.9835 3.321879,-1.6286 5.14223,-1.9678 1.820351,-0.3392 3.684374,-0.1047 5.606822,0.317 1.92244,0.4218 3.546964,0.9492 5.058211,2.0191 1.511247,1.07 2.752544,2.4415 3.736032,3.9777 0.983486,1.5361 1.862354,3.2773 2.218853,5.0943 0.355056,1.8097 -0.06419,4.3751 -0.391529,6.0502 -0.327338,1.675 -0.927041,3.4794 -1.997014,4.9906 z"
       style="fill:#800080;fill-opacity:1;stroke:#350035;stroke-width:1.45270228;stroke-linecap:butt;stroke-miterlimit:4;stroke-opacity:1;stroke-dashoffset:0" />
  </g>
</svg>
