<?xml version="1.0" encoding="UTF-8" standalone="no"?>
<!-- Created with Inkscape (http://www.inkscape.org/) -->

<svg
   xmlns:dc="http://purl.org/dc/elements/1.1/"
   xmlns:cc="http://creativecommons.org/ns#"
   xmlns:rdf="http://www.w3.org/1999/02/22-rdf-syntax-ns#"
   xmlns:svg="http://www.w3.org/2000/svg"
   xmlns="http://www.w3.org/2000/svg"
   xmlns:sodipodi="http://sodipodi.sourceforge.net/DTD/sodipodi-0.dtd"
   xmlns:inkscape="http://www.inkscape.org/namespaces/inkscape"
   width="50"
   height="50"
   id="svg2"
   version="1.1"
   inkscape:version="0.48.4 r9939"
   sodipodi:docname="anchor.svg"
   inkscape:export-filename="/home/micha/Programmieren/git/platformer/images/64appearblock.png"
   inkscape:export-xdpi="144"
   inkscape:export-ydpi="144">
  <sodipodi:namedview
     id="base"
     pagecolor="#000000"
     bordercolor="#666666"
     borderopacity="1.0"
     inkscape:pageopacity="0.0"
     inkscape:pageshadow="2"
     inkscape:zoom="3.9999998"
     inkscape:cx="61.062333"
     inkscape:cy="45.741066"
     inkscape:document-units="px"
     inkscape:current-layer="layer1"
     showgrid="false"
     inkscape:showpageshadow="true"
     inkscape:window-width="1280"
     inkscape:window-height="750"
     inkscape:window-x="0"
     inkscape:window-y="25"
     inkscape:window-maximized="1">
    <inkscape:grid
       type="xygrid"
       id="grid2985"
       empspacing="5"
       visible="true"
       enabled="true"
       snapvisiblegridlinesonly="true"
       spacingx="10px"
       spacingy="10px"
       originx="0px"
       originy="0px" />
  </sodipodi:namedview>
  <defs
     id="defs4">
    <inkscape:path-effect
       effect="skeletal"
       id="path-effect3017"
       is_visible="true"
       pattern="M 0,0 0,10 10,5 z"
       copytype="single_stretched"
       prop_scale="1"
       scale_y_rel="false"
       spacing="0"
       normal_offset="0"
       tang_offset="0"
       prop_units="false"
       vertical_pattern="false"
       fuse_tolerance="0" />
  </defs>
  <metadata
     id="metadata7">
    <rdf:RDF>
      <cc:Work
         rdf:about="">
        <dc:format>image/svg+xml</dc:format>
        <dc:type
           rdf:resource="http://purl.org/dc/dcmitype/StillImage" />
        <dc:title />
      </cc:Work>
    </rdf:RDF>
  </metadata>
  <g
     inkscape:label="Ebene 1"
     inkscape:groupmode="layer"
     id="layer1"
     transform="translate(0,-1002.3622)">
    <path
       sodipodi:nodetypes="ssssssssssssssscs"
       inkscape:connector-curvature="0"
       id="path3003"
       d="m 41.037366,1039.3445 c -1.473079,2.0806 -3.640304,3.5936 -5.755252,4.9476 -2.114918,1.354 -4.239201,2.5883 -6.745359,3.0553 -2.506158,0.4669 -5.325788,0.095 -7.972508,-0.4857 -2.646709,-0.5806 -4.747457,-1.4667 -6.828059,-2.9397 -2.080601,-1.4731 -4.1724695,-3.5088 -5.5264824,-5.6238 -1.3540095,-2.1149 -1.9764103,-4.283 -2.4433619,-6.7892 -0.4669516,-2.5061 -0.8093419,-5.3131 -0.2287705,-7.9599 0.5805609,-2.6467 1.694018,-5.0809 3.1670995,-7.1614 1.4730813,-2.0806 3.5452393,-3.8863 5.6601873,-5.2404 2.114918,-1.354 4.573379,-2.2422 7.079537,-2.7092 2.506158,-0.4669 5.072442,-0.1441 7.719162,0.4365 2.646709,0.5806 4.883263,1.3068 6.963864,2.7798 2.080602,1.4731 3.789551,3.3613 5.143563,5.4762 1.354009,2.1149 2.563985,4.512 3.054793,7.0136 0.488822,2.4915 -0.08837,6.0234 -0.539035,8.3295 -0.450661,2.3061 -1.276299,4.7903 -2.749378,6.8708 z"
       style="fill:#800080;fill-opacity:1;stroke:#350035;stroke-width:2;stroke-linecap:butt;stroke-miterlimit:4;stroke-opacity:1;stroke-dashoffset:0" />
  </g>
</svg>
