<?xml version="1.0" encoding="UTF-8" standalone="no"?>
<!-- Created with Inkscape (http://www.inkscape.org/) -->

<svg
   xmlns:dc="http://purl.org/dc/elements/1.1/"
   xmlns:cc="http://creativecommons.org/ns#"
   xmlns:rdf="http://www.w3.org/1999/02/22-rdf-syntax-ns#"
   xmlns:svg="http://www.w3.org/2000/svg"
   xmlns="http://www.w3.org/2000/svg"
   xmlns:sodipodi="http://sodipodi.sourceforge.net/DTD/sodipodi-0.dtd"
   xmlns:inkscape="http://www.inkscape.org/namespaces/inkscape"
   width="200"
   height="100"
   id="svg2"
   version="1.1"
   inkscape:version="0.48.3.1 r9886"
   sodipodi:docname="appearblock.svg"
   inkscape:export-filename="/home/micha/Programmieren/git/platformer/images/64appearblock.png"
   inkscape:export-xdpi="144"
   inkscape:export-ydpi="144">
  <sodipodi:namedview
     id="base"
     pagecolor="#000000"
     bordercolor="#666666"
     borderopacity="1.0"
     inkscape:pageopacity="0.0"
     inkscape:pageshadow="2"
     inkscape:zoom="2.828427"
     inkscape:cx="141.29864"
     inkscape:cy="50.12045"
     inkscape:document-units="px"
     inkscape:current-layer="layer1"
     showgrid="true"
     inkscape:showpageshadow="true"
     inkscape:window-width="1280"
     inkscape:window-height="750"
     inkscape:window-x="0"
     inkscape:window-y="25"
     inkscape:window-maximized="1">
    <inkscape:grid
       originy="0px"
       originx="0px"
       spacingy="10px"
       spacingx="10px"
       snapvisiblegridlinesonly="true"
       enabled="true"
       visible="true"
       empspacing="5"
       id="grid2985"
       type="xygrid" />
  </sodipodi:namedview>
  <defs
     id="defs4">
    <inkscape:path-effect
       fuse_tolerance="0"
       vertical_pattern="false"
       prop_units="false"
       tang_offset="0"
       normal_offset="0"
       spacing="0"
       scale_y_rel="false"
       prop_scale="1"
       copytype="single_stretched"
       pattern="M 0,0 0,10 10,5 z"
       is_visible="true"
       id="path-effect3017"
       effect="skeletal" />
  </defs>
  <metadata
     id="metadata7">
    <rdf:RDF>
      <cc:Work
         rdf:about="">
        <dc:format>image/svg+xml</dc:format>
        <dc:type
           rdf:resource="http://purl.org/dc/dcmitype/StillImage" />
        <dc:title />
      </cc:Work>
    </rdf:RDF>
  </metadata>
  <g
     transform="translate(0,-952.3622)"
     id="layer1"
     inkscape:groupmode="layer"
     inkscape:label="Ebene 1">
    <path
       sodipodi:nodetypes="ssscssscssscssscs"
       inkscape:connector-curvature="0"
       id="rect5672"
       d="m 14.300567,957.3353 c 3.71132,0.092 7.40976,0.5452 11.12201,0.585 2.97992,0.032 5.95707,-0.1926 8.93593,-0.2781 3.54695,-0.1019 10.64154,-0.28 10.64154,-0.28 0,0 -0.57964,6.589 -0.69174,9.8928 -0.11205,3.3021 -0.0316,6.6083 0.0195,9.9119 0.0557,3.5997 0.19187,7.1979 0.31279,10.796 0.1053,3.1336 0.35941,9.3993 0.35941,9.3993 0,0 -7.05767,-0.3663 -10.58983,-0.377 -2.90807,-0.01 -5.81603,0.1114 -8.72043,0.2576 -3.64688,0.1836 -7.27534,0.7712 -10.92682,0.778 C 11.501224,998.0308 5,997.3622 5,997.3622 c 0,0 -0.646195,-6.3754 -0.551551,-9.569 0.104994,-3.5428 1.058848,-7.0208 1.239441,-10.5606 C 5.863231,973.7958 5.65602,970.349 5.534259,966.9099 5.421475,963.7244 5,957.3622 5,957.3622 c 0,0 6.201287,-0.1039 9.300517,-0.027 z"
       style="fill:#aa0000;fill-opacity:1;stroke:#000000;stroke-width:2;stroke-miterlimit:4;stroke-opacity:1" />
    <path
       style="fill:none;stroke:#000000;stroke-width:2;stroke-linecap:round;stroke-miterlimit:4;stroke-opacity:1;stroke-dasharray:2, 8;stroke-dashoffset:0"
       d="m 66.210464,961.0618 c 3.030998,0.075 6.051477,0.4452 9.083234,0.4778 2.433671,0.026 4.865079,-0.1574 7.297884,-0.2272 2.896759,-0.083 8.690839,-0.2287 8.690839,-0.2287 0,0 -0.473385,5.3812 -0.564937,8.0794 -0.09151,2.6968 -0.02581,5.3969 0.01593,8.0949 0.04549,2.9398 0.156698,5.8785 0.255453,8.817 0.08599,2.5591 0.293526,7.6763 0.293526,7.6763 0,0 -5.763928,-0.2991 -8.648608,-0.3078 -2.374991,-0.011 -4.749893,0.091 -7.121888,0.2103 -2.97837,0.1499 -5.941696,0.6298 -8.923823,0.6354 -2.6638,0.011 -7.973285,-0.5379 -7.973285,-0.5379 0,0 -0.527741,-5.2067 -0.450445,-7.8149 0.08574,-2.8934 0.86475,-5.7338 1.012239,-8.6248 0.143199,-2.8067 -0.02603,-5.6217 -0.12547,-8.4304 -0.09211,-2.6015 -0.436324,-7.7975 -0.436324,-7.7975 0,0 5.064529,-0.085 7.59564,-0.022 z"
       id="path3849"
       inkscape:connector-curvature="0"
       sodipodi:nodetypes="ssscssscssscssscs" />
    <path
       sodipodi:nodetypes="ssscssscssscssscs"
       inkscape:connector-curvature="0"
       id="path3851"
       d="m 66.210464,961.0618 c 3.030998,0.075 6.051477,0.4452 9.083234,0.4778 2.433671,0.026 4.865079,-0.1574 7.297884,-0.2272 2.896759,-0.083 8.690839,-0.2287 8.690839,-0.2287 0,0 -0.473385,5.3812 -0.564937,8.0794 -0.09151,2.6968 -0.02581,5.3969 0.01593,8.0949 0.04549,2.9398 0.156698,5.8785 0.255453,8.817 0.08599,2.5591 0.293526,7.6763 0.293526,7.6763 0,0 -5.763928,-0.2991 -8.648608,-0.3078 -2.374991,-0.011 -4.749893,0.091 -7.121888,0.2103 -2.97837,0.1499 -5.941696,0.6298 -8.923823,0.6354 -2.6638,0.011 -7.973285,-0.5379 -7.973285,-0.5379 0,0 -0.527741,-5.2067 -0.450445,-7.8149 0.08574,-2.8934 0.86475,-5.7338 1.012239,-8.6248 0.143199,-2.8067 -0.02603,-5.6217 -0.12547,-8.4304 -0.09211,-2.6015 -0.436324,-7.7975 -0.436324,-7.7975 0,0 5.064529,-0.085 7.59564,-0.022 z"
       style="opacity:0.22903227;fill:#aa0000;fill-opacity:1;stroke:none" />
    <path
       sodipodi:nodetypes="ssscssscssscssscs"
       inkscape:connector-curvature="0"
       id="rect5672-0"
       d="m 114.30057,957.3353 c 3.71132,0.092 7.40976,0.5452 11.12201,0.585 2.97992,0.032 5.95707,-0.1926 8.93593,-0.2781 3.54695,-0.1019 10.64154,-0.28 10.64154,-0.28 0,0 -0.57964,6.589 -0.69174,9.8928 -0.11205,3.3021 -0.0316,6.6083 0.0195,9.9119 0.0557,3.5997 0.19187,7.1979 0.31279,10.796 0.1053,3.1336 0.35941,9.3993 0.35941,9.3993 0,0 -7.05767,-0.3663 -10.58983,-0.377 -2.90807,-0.01 -5.81603,0.1114 -8.72043,0.2576 -3.64688,0.1836 -7.27534,0.7712 -10.92682,0.778 -3.26171,0.01 -9.76293,-0.6586 -9.76293,-0.6586 0,0 -0.6462,-6.3754 -0.55155,-9.569 0.10499,-3.5428 1.05885,-7.0208 1.23944,-10.5606 0.17534,-3.4368 -0.0319,-6.8836 -0.15363,-10.3227 C 105.42147,963.7244 105,957.3622 105,957.3622 c 0,0 6.20129,-0.1039 9.30052,-0.027 z"
       style="fill:#002255;fill-opacity:1;stroke:#000000;stroke-width:2;stroke-miterlimit:4;stroke-opacity:1" />
    <path
       style="fill:none;stroke:#000000;stroke-width:2;stroke-linecap:round;stroke-miterlimit:4;stroke-opacity:1;stroke-dasharray:2, 8;stroke-dashoffset:0"
       d="m 166.21046,961.0618 c 3.031,0.075 6.05148,0.4452 9.08324,0.4778 2.43367,0.026 4.86508,-0.1574 7.29788,-0.2272 2.89676,-0.083 8.69084,-0.2287 8.69084,-0.2287 0,0 -0.47338,5.3812 -0.56494,8.0794 -0.0915,2.6968 -0.0258,5.3969 0.0159,8.0949 0.0455,2.9398 0.1567,5.8785 0.25546,8.817 0.086,2.5591 0.29352,7.6763 0.29352,7.6763 0,0 -5.76392,-0.2991 -8.6486,-0.3078 -2.375,-0.011 -4.7499,0.091 -7.12189,0.2103 -2.97837,0.1499 -5.9417,0.6298 -8.92383,0.6354 -2.6638,0.011 -7.97328,-0.5379 -7.97328,-0.5379 0,0 -0.52774,-5.2067 -0.45045,-7.8149 0.0857,-2.8934 0.86475,-5.7338 1.01224,-8.6248 0.1432,-2.8067 -0.026,-5.6217 -0.12547,-8.4304 -0.0921,-2.6015 -0.43632,-7.7975 -0.43632,-7.7975 0,0 5.06453,-0.085 7.59564,-0.022 z"
       id="path3849-0"
       inkscape:connector-curvature="0"
       sodipodi:nodetypes="ssscssscssscssscs" />
    <path
       sodipodi:nodetypes="ssscssscssscssscs"
       inkscape:connector-curvature="0"
       id="path3851-2"
       d="m 166.21046,961.0618 c 3.031,0.075 6.05148,0.4452 9.08324,0.4778 2.43367,0.026 4.86508,-0.1574 7.29788,-0.2272 2.89676,-0.083 8.69084,-0.2287 8.69084,-0.2287 0,0 -0.47338,5.3812 -0.56494,8.0794 -0.0915,2.6968 -0.0258,5.3969 0.0159,8.0949 0.0455,2.9398 0.1567,5.8785 0.25546,8.817 0.086,2.5591 0.29352,7.6763 0.29352,7.6763 0,0 -5.76392,-0.2991 -8.6486,-0.3078 -2.375,-0.011 -4.7499,0.091 -7.12189,0.2103 -2.97837,0.1499 -5.9417,0.6298 -8.92383,0.6354 -2.6638,0.011 -7.97328,-0.5379 -7.97328,-0.5379 0,0 -0.52774,-5.2067 -0.45045,-7.8149 0.0857,-2.8934 0.86475,-5.7338 1.01224,-8.6248 0.1432,-2.8067 -0.026,-5.6217 -0.12547,-8.4304 -0.0921,-2.6015 -0.43632,-7.7975 -0.43632,-7.7975 0,0 5.06453,-0.085 7.59564,-0.022 z"
       style="opacity:0.22903227000000001;fill:#002255;fill-opacity:1;stroke:none" />
    <path
       sodipodi:nodetypes="ssscssscssscssscs"
       inkscape:connector-curvature="0"
       id="rect5672-9"
       d="m 14.300567,1007.3353 c 3.71132,0.092 7.40976,0.5452 11.12201,0.585 2.97992,0.032 5.95707,-0.1926 8.93593,-0.2781 3.54695,-0.1019 10.64154,-0.28 10.64154,-0.28 0,0 -0.57964,6.589 -0.69174,9.8928 -0.11205,3.3021 -0.0316,6.6083 0.0195,9.9119 0.0557,3.5997 0.19187,7.1979 0.31279,10.796 0.1053,3.1336 0.35941,9.3993 0.35941,9.3993 0,0 -7.05767,-0.3663 -10.58983,-0.377 -2.90807,-0.01 -5.81603,0.1114 -8.72043,0.2576 -3.64688,0.1836 -7.27534,0.7712 -10.92682,0.778 C 11.501224,1048.0308 5,1047.3622 5,1047.3622 c 0,0 -0.646195,-6.3754 -0.551551,-9.569 0.104994,-3.5428 1.058848,-7.0208 1.239441,-10.5606 0.175341,-3.4368 -0.03187,-6.8836 -0.153631,-10.3227 C 5.421475,1013.7244 5,1007.3622 5,1007.3622 c 0,0 6.201287,-0.1039 9.300517,-0.027 z"
       style="fill:#00aa00;fill-opacity:1;stroke:#000000;stroke-width:2;stroke-miterlimit:4;stroke-opacity:1" />
    <path
       style="fill:none;stroke:#000000;stroke-width:2;stroke-linecap:round;stroke-miterlimit:4;stroke-opacity:1;stroke-dasharray:2, 8;stroke-dashoffset:0"
       d="m 66.210464,1011.0618 c 3.030998,0.075 6.051477,0.4452 9.083234,0.4778 2.433671,0.026 4.865079,-0.1574 7.297884,-0.2272 2.896759,-0.083 8.690839,-0.2287 8.690839,-0.2287 0,0 -0.473385,5.3812 -0.564937,8.0794 -0.09151,2.6968 -0.02581,5.3969 0.01593,8.0949 0.04549,2.9398 0.156698,5.8785 0.255453,8.817 0.08599,2.5591 0.293526,7.6763 0.293526,7.6763 0,0 -5.763928,-0.2991 -8.648608,-0.3078 -2.374991,-0.011 -4.749893,0.091 -7.121888,0.2103 -2.97837,0.1499 -5.941696,0.6298 -8.923823,0.6354 -2.6638,0.011 -7.973285,-0.5379 -7.973285,-0.5379 0,0 -0.527741,-5.2067 -0.450445,-7.8149 0.08574,-2.8934 0.86475,-5.7338 1.012239,-8.6248 0.143199,-2.8067 -0.02603,-5.6217 -0.12547,-8.4304 -0.09211,-2.6015 -0.436324,-7.7975 -0.436324,-7.7975 0,0 5.064529,-0.085 7.59564,-0.022 z"
       id="path3849-1"
       inkscape:connector-curvature="0"
       sodipodi:nodetypes="ssscssscssscssscs" />
    <path
       sodipodi:nodetypes="ssscssscssscssscs"
       inkscape:connector-curvature="0"
       id="path3851-9"
       d="m 66.210464,1011.0618 c 3.030998,0.075 6.051477,0.4452 9.083234,0.4778 2.433671,0.026 4.865079,-0.1574 7.297884,-0.2272 2.896759,-0.083 8.690839,-0.2287 8.690839,-0.2287 0,0 -0.473385,5.3812 -0.564937,8.0794 -0.09151,2.6968 -0.02581,5.3969 0.01593,8.0949 0.04549,2.9398 0.156698,5.8785 0.255453,8.817 0.08599,2.5591 0.293526,7.6763 0.293526,7.6763 0,0 -5.763928,-0.2991 -8.648608,-0.3078 -2.374991,-0.011 -4.749893,0.091 -7.121888,0.2103 -2.97837,0.1499 -5.941696,0.6298 -8.923823,0.6354 -2.6638,0.011 -7.973285,-0.5379 -7.973285,-0.5379 0,0 -0.527741,-5.2067 -0.450445,-7.8149 0.08574,-2.8934 0.86475,-5.7338 1.012239,-8.6248 0.143199,-2.8067 -0.02603,-5.6217 -0.12547,-8.4304 -0.09211,-2.6015 -0.436324,-7.7975 -0.436324,-7.7975 0,0 5.064529,-0.085 7.59564,-0.022 z"
       style="opacity:0.22903227000000001;fill:#00aa00;fill-opacity:1;stroke:none" />
    <path
       sodipodi:nodetypes="ssscssscssscssscs"
       inkscape:connector-curvature="0"
       id="rect5672-8"
       d="m 114.30057,1007.3353 c 3.71132,0.092 7.40976,0.5452 11.12201,0.585 2.97992,0.032 5.95707,-0.1926 8.93593,-0.2781 3.54695,-0.1019 10.64154,-0.28 10.64154,-0.28 0,0 -0.57964,6.589 -0.69174,9.8928 -0.11205,3.3021 -0.0316,6.6083 0.0195,9.9119 0.0557,3.5997 0.19187,7.1979 0.31279,10.796 0.1053,3.1336 0.35941,9.3993 0.35941,9.3993 0,0 -7.05767,-0.3663 -10.58983,-0.377 -2.90807,-0.01 -5.81603,0.1114 -8.72043,0.2576 -3.64688,0.1836 -7.27534,0.7712 -10.92682,0.778 -3.26171,0.01 -9.76293,-0.6586 -9.76293,-0.6586 0,0 -0.6462,-6.3754 -0.55155,-9.569 0.10499,-3.5428 1.05885,-7.0208 1.23944,-10.5606 0.17534,-3.4368 -0.0319,-6.8836 -0.15363,-10.3227 -0.11279,-3.1855 -0.53426,-9.5477 -0.53426,-9.5477 0,0 6.20129,-0.1039 9.30052,-0.027 z"
       style="fill:#ffcc00;fill-opacity:1;stroke:#000000;stroke-width:2;stroke-miterlimit:4;stroke-opacity:1" />
    <path
       style="fill:none;stroke:#000000;stroke-width:2;stroke-linecap:round;stroke-miterlimit:4;stroke-opacity:1;stroke-dasharray:2, 8;stroke-dashoffset:0"
       d="m 166.21046,1011.0618 c 3.031,0.075 6.05148,0.4452 9.08324,0.4778 2.43367,0.026 4.86508,-0.1574 7.29788,-0.2272 2.89676,-0.083 8.69084,-0.2287 8.69084,-0.2287 0,0 -0.47338,5.3812 -0.56494,8.0794 -0.0915,2.6968 -0.0258,5.3969 0.0159,8.0949 0.0455,2.9398 0.1567,5.8785 0.25546,8.817 0.086,2.5591 0.29352,7.6763 0.29352,7.6763 0,0 -5.76392,-0.2991 -8.6486,-0.3078 -2.375,-0.011 -4.7499,0.091 -7.12189,0.2103 -2.97837,0.1499 -5.9417,0.6298 -8.92383,0.6354 -2.6638,0.011 -7.97328,-0.5379 -7.97328,-0.5379 0,0 -0.52774,-5.2067 -0.45045,-7.8149 0.0857,-2.8934 0.86475,-5.7338 1.01224,-8.6248 0.1432,-2.8067 -0.026,-5.6217 -0.12547,-8.4304 -0.0921,-2.6015 -0.43632,-7.7975 -0.43632,-7.7975 0,0 5.06453,-0.085 7.59564,-0.022 z"
       id="path3849-09"
       inkscape:connector-curvature="0"
       sodipodi:nodetypes="ssscssscssscssscs" />
    <path
       sodipodi:nodetypes="ssscssscssscssscs"
       inkscape:connector-curvature="0"
       id="path3851-3"
       d="m 166.21046,1011.0618 c 3.031,0.075 6.05148,0.4452 9.08324,0.4778 2.43367,0.026 4.86508,-0.1574 7.29788,-0.2272 2.89676,-0.083 8.69084,-0.2287 8.69084,-0.2287 0,0 -0.47338,5.3812 -0.56494,8.0794 -0.0915,2.6968 -0.0258,5.3969 0.0159,8.0949 0.0455,2.9398 0.1567,5.8785 0.25546,8.817 0.086,2.5591 0.29352,7.6763 0.29352,7.6763 0,0 -5.76392,-0.2991 -8.6486,-0.3078 -2.375,-0.011 -4.7499,0.091 -7.12189,0.2103 -2.97837,0.1499 -5.9417,0.6298 -8.92383,0.6354 -2.6638,0.011 -7.97328,-0.5379 -7.97328,-0.5379 0,0 -0.52774,-5.2067 -0.45045,-7.8149 0.0857,-2.8934 0.86475,-5.7338 1.01224,-8.6248 0.1432,-2.8067 -0.026,-5.6217 -0.12547,-8.4304 -0.0921,-2.6015 -0.43632,-7.7975 -0.43632,-7.7975 0,0 5.06453,-0.085 7.59564,-0.022 z"
       style="opacity:0.22903227000000001;fill:#ffcc00;fill-opacity:1;stroke:none" />
  </g>
</svg>
