<?xml version="1.0" encoding="UTF-8" standalone="no"?>
<!-- Created with Inkscape (http://www.inkscape.org/) -->

<svg
   xmlns:dc="http://purl.org/dc/elements/1.1/"
   xmlns:cc="http://creativecommons.org/ns#"
   xmlns:rdf="http://www.w3.org/1999/02/22-rdf-syntax-ns#"
   xmlns:svg="http://www.w3.org/2000/svg"
   xmlns="http://www.w3.org/2000/svg"
   xmlns:sodipodi="http://sodipodi.sourceforge.net/DTD/sodipodi-0.dtd"
   xmlns:inkscape="http://www.inkscape.org/namespaces/inkscape"
   width="150"
   height="150"
   id="svg2"
   version="1.1"
   inkscape:version="0.48.3.1 r9886"
   sodipodi:docname="bandana.svg"
   inkscape:export-filename="/home/micha/Programmieren/git/platformer/images/32bandana.png"
   inkscape:export-xdpi="72"
   inkscape:export-ydpi="72">
  <sodipodi:namedview
     id="base"
     pagecolor="#000000"
     bordercolor="#666666"
     borderopacity="1.0"
     inkscape:pageopacity="0.0"
     inkscape:pageshadow="2"
     inkscape:zoom="2.8284271"
     inkscape:cx="145.40809"
     inkscape:cy="31.797665"
     inkscape:document-units="px"
     inkscape:current-layer="layer1"
     showgrid="true"
     inkscape:showpageshadow="true"
     inkscape:window-width="1280"
     inkscape:window-height="750"
     inkscape:window-x="0"
     inkscape:window-y="25"
     inkscape:window-maximized="1">
    <inkscape:grid
       type="xygrid"
       id="grid2985"
       empspacing="5"
       visible="true"
       enabled="true"
       snapvisiblegridlinesonly="true"
       spacingx="10px"
       spacingy="10px"
       originx="0px"
       originy="0px" />
  </sodipodi:namedview>
  <defs
     id="defs4" />
  <metadata
     id="metadata7">
    <rdf:RDF>
      <cc:Work
         rdf:about="">
        <dc:format>image/svg+xml</dc:format>
        <dc:type
           rdf:resource="http://purl.org/dc/dcmitype/StillImage" />
        <dc:title />
      </cc:Work>
    </rdf:RDF>
  </metadata>
  <g
     inkscape:label="Ebene 1"
     inkscape:groupmode="layer"
     id="layer1"
     transform="translate(0,-902.3622)">
    <g
       id="g4324-3-10-1"
       transform="matrix(0.3347786,-0.0574067,0.0574067,0.3347786,-120.67262,973.87387)"
       style="stroke-width:2.94407821;stroke-miterlimit:4;stroke-dasharray:none" />
    <path
       inkscape:transform-center-y="0.52770047"
       inkscape:transform-center-x="0.070910225"
       transform="matrix(1.3933817,0.15089039,-0.15089039,1.3933817,18.042987,729.05692)"
       d="m 30,150 -5.935827,-1.28435 -2.831605,5.37267 -3.721541,-4.79935 -5.622623,2.29559 0.234096,-6.06867 -5.782754,-1.85564 4.080196,-4.4984 L 7.1828723,134.02328 13.2,133.2 l 0.823275,-6.01713 5.138578,3.23707 4.498401,-4.08019 1.855631,5.78275 6.068674,-0.2341 -2.295586,5.62263 4.799348,3.72154 -5.372674,2.8316 z"
       inkscape:randomized="0"
       inkscape:rounded="0"
       inkscape:flatsided="false"
       sodipodi:arg2="1.134464"
       sodipodi:arg1="0.78539816"
       sodipodi:r2="9.6166525"
       sodipodi:r1="14.142136"
       sodipodi:cy="140"
       sodipodi:cx="20"
       sodipodi:sides="9"
       id="path4569-1-42-3"
       style="opacity:0.75161288;fill:#ffff00;fill-opacity:1;stroke:#d4aa00;stroke-width:1.42701399;stroke-miterlimit:4;stroke-dasharray:none"
       sodipodi:type="star" />
    <path
       sodipodi:nodetypes="csssccccccssc"
       inkscape:connector-curvature="0"
       id="path4605-2-9-9"
       d="m 67.703611,920.6232 c 0,0 -0.909895,2.8825 -0.202223,4.2179 0.792272,1.4951 2.350085,2.5229 2.83385,4.2043 0.343054,1.1923 -0.157551,2.3947 -0.356042,3.5669 -0.216357,1.2777 -1.471917,4.1997 -1.471917,4.1997 0,0 6.576582,-2.7396 9.900572,-2.5502 2.862384,-0.031 3.790349,0.5939 3.790349,0.5939 0,0 -0.355432,-3.5094 -0.425991,-4.5443 -0.303072,-2.5629 -2.11103,-3.1897 -3.114349,-4.9158 -0.839868,-2.4937 0.205251,-6.7583 0.205251,-6.7583 0,0 -2.060189,-0.355 -2.845372,0.2895 -0.903931,0.742 -1.709463,1.9113 -2.976306,1.8799 -2.014339,-0.05 -5.337822,-0.1835 -5.337822,-0.1835 z"
       style="fill:#e3dbdb;stroke:#000000;stroke-width:2;stroke-linecap:butt;stroke-linejoin:miter;stroke-miterlimit:4;stroke-opacity:1;stroke-dasharray:none" />
    <path
       sodipodi:nodetypes="csssccccccssc"
       inkscape:connector-curvature="0"
       id="path4605-2-12"
       d="m 17.703611,970.6232 c 0,0 -0.909895,2.8825 -0.202223,4.2179 0.792272,1.4951 2.350085,2.5229 2.83385,4.2043 0.343054,1.1923 -0.157551,2.3947 -0.356042,3.5669 -0.216357,1.2777 -1.471917,4.1997 -1.471917,4.1997 0,0 6.576582,-2.7396 9.900572,-2.5502 2.862384,-0.031 3.790349,0.5939 3.790349,0.5939 0,0 -0.355432,-3.5094 -0.425991,-4.5443 -0.303072,-2.5629 -2.11103,-3.1897 -3.114349,-4.9158 -0.839868,-2.4937 0.205251,-6.7583 0.205251,-6.7583 0,0 -2.060189,-0.355 -2.845372,0.2895 -0.903931,0.742 -1.709463,1.9113 -2.976306,1.8799 -2.014339,-0.05 -5.337822,-0.1835 -5.337822,-0.1835 z"
       style="fill:#2c5aa0;stroke:#000000;stroke-width:2;stroke-linecap:butt;stroke-linejoin:miter;stroke-miterlimit:4;stroke-opacity:1;stroke-dasharray:none" />
    <path
       sodipodi:nodetypes="csssccccccssc"
       inkscape:connector-curvature="0"
       id="path4605-2-1-2-2"
       d="m 67.703611,970.6232 c 0,0 -0.909895,2.8825 -0.202223,4.2179 0.792272,1.4951 2.350085,2.5229 2.83385,4.2043 0.343054,1.1923 -0.157551,2.3947 -0.356042,3.5669 -0.216357,1.2777 -1.471917,4.1997 -1.471917,4.1997 0,0 6.576582,-2.7396 9.900572,-2.5502 2.862384,-0.031 3.790349,0.5939 3.790349,0.5939 0,0 -0.355432,-3.5094 -0.425991,-4.5443 -0.303072,-2.5629 -2.11103,-3.1897 -3.114349,-4.9158 -0.839868,-2.4937 0.205251,-6.7583 0.205251,-6.7583 0,0 -2.060189,-0.355 -2.845372,0.2895 -0.903931,0.742 -1.709463,1.9113 -2.976306,1.8799 -2.014339,-0.05 -5.337822,-0.1835 -5.337822,-0.1835 z"
       style="fill:#d40000;stroke:#000000;stroke-width:2;stroke-linecap:butt;stroke-linejoin:miter;stroke-miterlimit:4;stroke-opacity:1;stroke-dasharray:none" />
    <path
       sodipodi:nodetypes="csssccccccssc"
       inkscape:connector-curvature="0"
       id="path4605-2-1-1-3"
       d="m 117.70361,920.6232 c 0,0 -0.90989,2.8825 -0.20222,4.2179 0.79227,1.4951 2.35008,2.5229 2.83385,4.2043 0.34305,1.1923 -0.15755,2.3947 -0.35604,3.5669 -0.21636,1.2777 -1.47192,4.1997 -1.47192,4.1997 0,0 6.57658,-2.7396 9.90057,-2.5502 2.86238,-0.031 3.79035,0.5939 3.79035,0.5939 0,0 -0.35543,-3.5094 -0.42599,-4.5443 -0.30307,-2.5629 -2.11103,-3.1897 -3.11435,-4.9158 -0.83987,-2.4937 0.20525,-6.7583 0.20525,-6.7583 0,0 -2.06019,-0.355 -2.84537,0.2895 -0.90393,0.742 -1.70946,1.9113 -2.97631,1.8799 -2.01434,-0.05 -5.33782,-0.1835 -5.33782,-0.1835 z"
       style="fill:#00d400;stroke:#000000;stroke-width:2;stroke-linecap:butt;stroke-linejoin:miter;stroke-miterlimit:4;stroke-opacity:1;stroke-dasharray:none" />
    <g
       id="g6194"
       style="stroke-width:2;stroke-miterlimit:4;stroke-dasharray:none"
       transform="translate(7.2182956,-47.255026)">
      <path
         sodipodi:nodetypes="ccccc"
         inkscape:connector-curvature="0"
         id="path6186"
         d="m 109.87499,1028.206 c -3.08129,1.0659 -2.50294,1.2813 -5.24125,3.1267 -2.83847,-0.8293 -6.37812,3.2783 -0.70609,3.3771 -1.1507,4.2874 3.08244,4.5899 2.89797,-0.4023 3.85107,-3.01 1.24792,-0.7863 4.73687,-3.2265"
         style="fill:#e9ddaf;stroke:#000000;stroke-width:2;stroke-linecap:butt;stroke-linejoin:miter;stroke-miterlimit:4;stroke-opacity:1;stroke-dasharray:none" />
      <path
         sodipodi:nodetypes="csssssscc"
         inkscape:connector-curvature="0"
         id="path6184"
         d="m 112.34308,1032.0423 c 2.53488,-0.6688 5.17516,-3.0695 7.91007,-2.9013 2.83153,0.1743 7.88688,0.069 10.45732,-1.4838 2.49794,-1.5085 3.96282,-4.4927 3.15229,-7.3616 -0.83807,-2.9663 -2.87721,-6.5379 -5.31068,-7.8808 -2.40145,-1.3253 -6.43252,0.095 -8.70704,0.9299 -2.88649,1.0606 -4.22107,4.6132 -5.48213,7.243 -1.32856,2.7703 -3.41319,4.5084 -5.226,6.2042 1.08365,1.9646 1.48157,2.379 3.20617,5.2504 z"
         style="fill:#552200;stroke:#000000;stroke-width:2;stroke-linecap:butt;stroke-linejoin:miter;stroke-miterlimit:4;stroke-opacity:1;stroke-dasharray:none" />
    </g>
    <path
       style="fill:#a02c2c;stroke:#000000;stroke-width:2;stroke-linecap:butt;stroke-linejoin:miter;stroke-opacity:1;stroke-miterlimit:4;stroke-dasharray:none"
       d="m 18.324335,1031.6767 c 1.850053,0.9309 4.735197,1.2778 6.08811,1.2402 1.352913,-0.038 5.035843,-0.4134 6.651823,-1.8039 1.069296,-0.9201 2.533934,-2.2921 2.517921,-4.3218 -0.01809,-2.2927 -0.676456,-3.1944 -1.615979,-3.9836 -0.939523,-0.7892 -2.593084,-0.7516 -4.021159,-0.075 -1.428075,0.6765 -2.367598,1.8039 -4.171482,1.7288 -1.803884,-0.075 -2.629787,-1.0018 -4.396968,-1.0523 -1.315332,-0.038 -3.570188,0.5261 -4.09632,1.7287 -0.316684,0.7239 -0.676457,2.781 0.112743,3.9084 0.789199,1.1275 1.75852,2.0406 2.931311,2.6307 z"
       id="path3080-2"
       inkscape:connector-curvature="0"
       sodipodi:nodetypes="sssssssssss" />
    <path
       style="fill:none;stroke:#000000;stroke-width:1;stroke-linecap:butt;stroke-linejoin:miter;stroke-miterlimit:4;stroke-opacity:1;stroke-dasharray:2,1;stroke-dashoffset:0"
       d="m 68.324335,1031.6767 c 1.850053,0.9309 4.735197,1.2778 6.08811,1.2402 1.352913,-0.038 5.035843,-0.4134 6.651823,-1.8039 1.069296,-0.9201 2.533934,-2.2921 2.517921,-4.3218 -0.01809,-2.2927 -0.676456,-3.1944 -1.615979,-3.9836 -0.939523,-0.7892 -2.593084,-0.7516 -4.021159,-0.075 -1.428075,0.6765 -2.367598,1.8039 -4.171482,1.7288 -1.803884,-0.075 -2.629787,-1.0018 -4.396968,-1.0523 -1.315332,-0.038 -3.570188,0.5261 -4.09632,1.7287 -0.316684,0.7239 -0.676457,2.781 0.112743,3.9084 0.789199,1.1275 1.75852,2.0406 2.931311,2.6307 z"
       id="path3080-2-9"
       inkscape:connector-curvature="0"
       sodipodi:nodetypes="sssssssssss" />
  </g>
</svg>
