<?xml version="1.0" encoding="UTF-8" standalone="no"?>
<!-- Created with Inkscape (http://www.inkscape.org/) -->

<svg
   xmlns:dc="http://purl.org/dc/elements/1.1/"
   xmlns:cc="http://creativecommons.org/ns#"
   xmlns:rdf="http://www.w3.org/1999/02/22-rdf-syntax-ns#"
   xmlns:svg="http://www.w3.org/2000/svg"
   xmlns="http://www.w3.org/2000/svg"
   xmlns:sodipodi="http://sodipodi.sourceforge.net/DTD/sodipodi-0.dtd"
   xmlns:inkscape="http://www.inkscape.org/namespaces/inkscape"
   inkscape:export-ydpi="144"
   inkscape:export-xdpi="144"
   inkscape:export-filename="/home/micha/Programmieren/git/platformer/images/64bumper.png"
   sodipodi:docname="bumper.svg"
   inkscape:version="0.48.2 r9819"
   version="1.1"
   id="svg2"
   height="50"
   width="50">
  <sodipodi:namedview
     id="base"
     pagecolor="#000000"
     bordercolor="#666666"
     borderopacity="1.0"
     inkscape:pageopacity="0.0"
     inkscape:pageshadow="2"
     inkscape:zoom="0.99999996"
     inkscape:cx="-45.646498"
     inkscape:cy="41.040254"
     inkscape:document-units="px"
     inkscape:current-layer="layer1"
     showgrid="false"
     inkscape:showpageshadow="true"
     inkscape:window-width="1280"
     inkscape:window-height="750"
     inkscape:window-x="0"
     inkscape:window-y="25"
     inkscape:window-maximized="1">
    <inkscape:grid
       originy="0px"
       originx="0px"
       spacingy="10px"
       spacingx="10px"
       snapvisiblegridlinesonly="true"
       enabled="true"
       visible="true"
       empspacing="5"
       id="grid2985"
       type="xygrid" />
  </sodipodi:namedview>
  <defs
     id="defs4">
    <inkscape:path-effect
       fuse_tolerance="0"
       vertical_pattern="false"
       prop_units="false"
       tang_offset="0"
       normal_offset="0"
       spacing="0"
       scale_y_rel="false"
       prop_scale="1"
       copytype="single_stretched"
       pattern="M 0,0 0,10 10,5 z"
       is_visible="true"
       id="path-effect3017"
       effect="skeletal" />
  </defs>
  <metadata
     id="metadata7">
    <rdf:RDF>
      <cc:Work
         rdf:about="">
        <dc:format>image/svg+xml</dc:format>
        <dc:type
           rdf:resource="http://purl.org/dc/dcmitype/StillImage" />
        <dc:title></dc:title>
      </cc:Work>
    </rdf:RDF>
  </metadata>
  <g
     transform="translate(0,-1002.3622)"
     id="layer1"
     inkscape:groupmode="layer"
     inkscape:label="Ebene 1">
    <g
       id="g3912"
       transform="translate(0.1621643,0)">
      <path
         sodipodi:nodetypes="sssssssssssssssss"
         inkscape:connector-curvature="0"
         id="path3834"
         d="m 40.701268,1042.2674 c -2.018884,2.0189 -4.061538,3.9313 -6.730969,5.0604 -2.66943,1.1291 -6.732187,2.7835 -9.8129,2.7835 -3.080714,0 -6.397163,-1.1583 -9.066594,-2.2873 -2.669431,-1.1291 -4.734252,-2.4287 -6.7531364,-4.4476 -2.0188846,-2.0188 -3.2960859,-4.8182 -4.4251599,-7.4876 -1.1290741,-2.6695 -2.0457575,-6.2996 -2.0457575,-9.3803 0,-3.0807 0.1442294,-5.3628 1.2733033,-8.0322 1.1290742,-2.6694 2.9528092,-5.135 4.9716937,-7.1539 2.0188848,-2.0188 5.3153438,-3.6936 7.9847748,-4.8227 2.669431,-1.1291 4.469796,-1.8866 7.55051,-1.8866 3.080713,0 7.20936,0.9474 9.87879,2.0765 2.669431,1.1291 5.067747,2.2603 7.086631,4.2791 2.018885,2.0189 4.841455,5.3559 5.970529,8.0254 1.129074,2.6694 0.986992,4.6546 1.186011,7.1535 0.199019,2.4989 -0.342202,6.3189 -1.708861,9.0398 -1.366658,2.7208 -3.33998,5.0612 -5.358865,7.08 z"
         style="fill:#e3dbdb;fill-opacity:1;stroke:#000000;stroke-width:2;stroke-linecap:round;stroke-linejoin:bevel;stroke-miterlimit:4;stroke-opacity:1;stroke-dashoffset:0" />
      <path
         sodipodi:nodetypes="ccccccccccccccccccc"
         inkscape:connector-curvature="0"
         id="path3867"
         d="m 42.028661,36.609164 c -3.281794,-0.560169 -4.313758,-0.838206 -9.845383,-1.680508 0,3.623922 -2.332268,10.357453 -2.332268,10.357453 l -6.158514,-8.220519 -8.74592,6.626882 C 14.524668,40.7037 14.810263,39.602285 15.58082,32.570826 12.575616,33.277933 4.8808532,33.139125 4.8808532,33.139125 9.6538242,28.896484 8.2587935,28.380414 12.147881,24.668103 L 2.5357293,17.268149 C 9.0764673,16.914596 14.021036,16.62092 14.021036,16.62092 c 0,0 -2.731334,-6.60697 -2.731334,-11.2031646 3.358757,1.0606602 9.491669,5.9807586 9.491669,5.9807586 3.181981,-4.0658642 5.424588,-9.585723 5.424588,-9.585723 0,0 3.423025,5.4795104 3.599802,9.898928 0,0 7.567358,-3.4097833 11.279669,-2.7026765 0,3.1819805 -4.516514,9.1990935 -4.516514,9.1990935 1.900349,-0.04419 10.692863,3.771746 10.692863,3.771746 0,0 -5.774739,4.978894 -9.928992,5.641807 2.43068,3.402951 4.695874,8.987475 4.695874,8.987475 z"
         inkscape:transform-center-y="-0.3346632"
         inkscape:transform-center-x="-0.30358449"
         style="fill:#ff0000;fill-opacity:1;stroke:#000000;stroke-width:2;stroke-linecap:round;stroke-linejoin:bevel;stroke-miterlimit:4;stroke-opacity:1;stroke-dashoffset:0"
         transform="translate(0,1003.4229)" />
      <path
         style="fill:#e3dbdb;fill-opacity:1;stroke:#000000;stroke-width:2;stroke-linecap:round;stroke-linejoin:bevel;stroke-miterlimit:4;stroke-opacity:1;stroke-dasharray:none;stroke-dashoffset:0"
         d="m 20.476151,1038.7908 c -1.480549,-0.6185 -2.910762,-1.2721 -4.067586,-2.4187 -1.156824,-1.1467 -2.884269,-2.9055 -3.541965,-4.5069 -0.657696,-1.6015 -0.763523,-3.5729 -0.746575,-5.2015 0.01713,-1.6288 0.251869,-2.9796 0.870402,-4.4602 0.61844,-1.4804 1.801032,-2.742 2.947627,-3.8988 1.146688,-1.1569 2.838051,-2.4084 4.439558,-3.0661 1.601414,-0.6577 2.818557,-1.0699 4.447241,-1.0528 1.628776,0.017 3.299845,0.4387 4.780301,1.0572 1.480456,0.6185 3.054851,1.9746 4.211675,3.1212 1.156916,1.1466 1.935059,1.9208 2.592755,3.5223 0.657695,1.6015 1.046626,3.95 1.029492,5.5787 -0.01704,1.6288 -0.09307,3.117 -0.711511,4.5975 -0.618532,1.4805 -1.750658,3.6602 -2.897346,4.8171 -1.146596,1.1568 -2.208893,1.5067 -3.465427,2.1437 -1.256533,0.6369 -3.357934,1.1711 -5.064073,1.0415 -1.70623,-0.1295 -3.344112,-0.6557 -4.824568,-1.2742 z"
         id="path3871"
         inkscape:connector-curvature="0"
         sodipodi:nodetypes="sssssssssssssssss" />
      <path
         sodipodi:nodetypes="cscssc"
         inkscape:connector-curvature="0"
         id="path3873"
         d="m 16.750001,1026.7372 c 0.626591,-1.095 0.880815,-2.0484 1.950557,-3.015 0.452142,-0.4085 1.512187,-1.8031 1.666794,-1.6684 -0.01273,1.821 -0.23196,3.6253 0.105687,5.4286 0.256326,1.369 0.835913,2.61 1.158966,3.968 0.264776,1.113 0.222948,2.2542 0.305493,2.9748"
         style="fill:none;stroke:#000000;stroke-width:2;stroke-linecap:butt;stroke-linejoin:miter;stroke-miterlimit:4;stroke-opacity:1;stroke-dasharray:none" />
      <path
         sodipodi:nodetypes="sssss"
         inkscape:connector-curvature="0"
         id="path3875"
         d="m 26.375001,1020.7372 c -2.589434,2.03 -1.421214,5.7238 -1.484969,8.5263 -0.06673,2.9333 3.822796,4.8825 6.076557,2.4389 2.046218,-2.2186 0.989079,-5.2329 0.952092,-7.842 -0.0317,-2.2359 -3.480701,-4.7405 -5.54368,-3.1232 z"
         style="fill:none;stroke:#000000;stroke-width:2;stroke-linecap:butt;stroke-linejoin:miter;stroke-miterlimit:4;stroke-opacity:1;stroke-dasharray:none" />
    </g>
  </g>
</svg>
