<?xml version="1.0" encoding="UTF-8" standalone="no"?>
<!-- Created with Inkscape (http://www.inkscape.org/) -->

<svg
   xmlns:dc="http://purl.org/dc/elements/1.1/"
   xmlns:cc="http://creativecommons.org/ns#"
   xmlns:rdf="http://www.w3.org/1999/02/22-rdf-syntax-ns#"
   xmlns:svg="http://www.w3.org/2000/svg"
   xmlns="http://www.w3.org/2000/svg"
   xmlns:sodipodi="http://sodipodi.sourceforge.net/DTD/sodipodi-0.dtd"
   xmlns:inkscape="http://www.inkscape.org/namespaces/inkscape"
   width="150"
   height="50"
   id="svg2"
   version="1.1"
   inkscape:version="0.48.2 r9819"
   sodipodi:docname="button.svg"
   inkscape:export-filename="/home/micha/Programmieren/git/platformer/images/button.png"
   inkscape:export-xdpi="90"
   inkscape:export-ydpi="90">
  <sodipodi:namedview
     id="base"
     pagecolor="#000000"
     bordercolor="#666666"
     borderopacity="1.0"
     inkscape:pageopacity="0.0"
     inkscape:pageshadow="2"
     inkscape:zoom="0.99999995"
     inkscape:cx="72.745804"
     inkscape:cy="169.77144"
     inkscape:document-units="px"
     inkscape:current-layer="layer1"
     showgrid="false"
     inkscape:showpageshadow="true"
     inkscape:window-width="1280"
     inkscape:window-height="750"
     inkscape:window-x="0"
     inkscape:window-y="25"
     inkscape:window-maximized="1">
    <inkscape:grid
       type="xygrid"
       id="grid2985"
       empspacing="5"
       visible="true"
       enabled="true"
       snapvisiblegridlinesonly="true"
       spacingx="10px"
       spacingy="10px"
       originx="0px"
       originy="0px" />
  </sodipodi:namedview>
  <defs
     id="defs4" />
  <metadata
     id="metadata7">
    <rdf:RDF>
      <cc:Work
         rdf:about="">
        <dc:format>image/svg+xml</dc:format>
        <dc:type
           rdf:resource="http://purl.org/dc/dcmitype/StillImage" />
        <dc:title />
      </cc:Work>
    </rdf:RDF>
  </metadata>
  <g
     inkscape:label="Ebene 1"
     inkscape:groupmode="layer"
     id="layer1"
     transform="translate(0,-1002.3622)">
    <g
       id="g3805"
       transform="translate(0.40591468,23.770625)">
      <path
         sodipodi:nodetypes="cccccc"
         inkscape:connector-curvature="0"
         id="path3793"
         d="m 13.057057,1006.9354 c 0.287499,-1.9446 -0.268034,-3.9079 0.06808,-5.8572 0.0032,-1.96798 -0.319378,-2.79602 -0.133987,-5.07843 4.103252,0.16519 19.156606,0.0288 23.263361,0.0759 -0.684631,2.74652 -0.272159,5.61043 -0.375,8.41573 0,1.0281 0,2.0562 0,3.0843"
         style="fill:#916f6f;stroke:#000000;stroke-width:2;stroke-linecap:butt;stroke-linejoin:miter;stroke-miterlimit:4;stroke-opacity:1;stroke-dasharray:none" />
      <path
         sodipodi:nodetypes="ccccc"
         inkscape:connector-curvature="0"
         id="path3791"
         d="m 10.597264,1006.9901 c 8.700013,0 20.409284,-0.018 29.098661,0.5093 2.044831,0.3562 2.651356,2.5925 1.651123,3.9732 -10.629907,0.1171 -28.152012,-0.2946 -33.922176,0.034 -0.2701634,-3.2964 0.3829269,-3.3053 3.172392,-4.5165 z"
         style="fill:#aa0000;stroke:#000000;stroke-width:2;stroke-linecap:butt;stroke-linejoin:miter;stroke-miterlimit:4;stroke-opacity:1;stroke-dasharray:none" />
    </g>
    <path
       style="fill:#916f6f;stroke:#000000;stroke-width:2;stroke-linecap:butt;stroke-linejoin:miter;stroke-miterlimit:4;stroke-opacity:1;stroke-dasharray:none"
       d="m 66.523014,1033.138 c 0.287499,-1.9446 -3.475141,0.5644 -3.139027,-1.3849 0.0032,-1.968 -0.319378,-2.796 -0.133987,-5.0784 4.103252,0.1652 19.330745,0.203 23.4375,0.25 -0.684631,2.7465 -0.537324,3.1355 -0.640165,5.9408 0,1.0281 -1.859835,0.4061 -1.859835,1.4342"
       id="path3793-0"
       inkscape:connector-curvature="0"
       sodipodi:nodetypes="cccccc" />
    <path
       style="fill:#aa0000;stroke:#000000;stroke-width:2;stroke-linecap:butt;stroke-linejoin:miter;stroke-miterlimit:4;stroke-opacity:1;stroke-dasharray:none"
       d="m 61.003179,1030.7607 c 8.700013,0 20.409284,-0.018 29.098661,0.5093 2.044831,0.3562 2.651356,2.5925 1.651123,3.9732 -10.629907,0.1171 -28.152012,-0.2946 -33.922176,0.034 -0.270163,-3.2964 0.382927,-3.3053 3.172392,-4.5165 z"
       id="path3791-8"
       inkscape:connector-curvature="0"
       sodipodi:nodetypes="ccccc" />
    <path
       style="fill:#916f6f;stroke:#000000;stroke-width:2;stroke-linecap:butt;stroke-linejoin:miter;stroke-miterlimit:4;stroke-opacity:1;stroke-dasharray:none"
       d="m 116.46051,1034.013 c 0.2875,-1.9446 -3.47514,0.5644 -3.13902,-1.3849 0.003,-1.968 -0.25688,-1.671 -0.0715,-3.9534 3.36981,-0.079 18.09242,-0.2098 23.4375,0.25 -0.68463,2.7465 -0.53732,1.573 -0.64017,4.3783 0,1.0281 -1.85983,0.4061 -1.85983,1.4342"
       id="path3793-0-6"
       inkscape:connector-curvature="0"
       sodipodi:nodetypes="cccccc" />
    <path
       style="fill:#aa0000;stroke:#000000;stroke-width:2;stroke-linecap:butt;stroke-linejoin:miter;stroke-miterlimit:4;stroke-opacity:1;stroke-dasharray:none"
       d="m 111.00318,1030.7607 c 8.70001,0 20.40928,-0.018 29.09866,0.5093 2.04483,0.3562 2.65136,2.5925 1.65112,3.9732 -10.6299,0.1171 -28.15201,-0.2946 -33.92217,0.034 -0.27017,-3.2964 0.38292,-3.3053 3.17239,-4.5165 z"
       id="path3791-8-2"
       inkscape:connector-curvature="0"
       sodipodi:nodetypes="ccccc" />
  </g>
</svg>
