<?xml version="1.0" encoding="UTF-8" standalone="no"?>
<!-- Created with Inkscape (http://www.inkscape.org/) -->

<svg
   xmlns:dc="http://purl.org/dc/elements/1.1/"
   xmlns:cc="http://creativecommons.org/ns#"
   xmlns:rdf="http://www.w3.org/1999/02/22-rdf-syntax-ns#"
   xmlns:svg="http://www.w3.org/2000/svg"
   xmlns="http://www.w3.org/2000/svg"
   xmlns:sodipodi="http://sodipodi.sourceforge.net/DTD/sodipodi-0.dtd"
   xmlns:inkscape="http://www.inkscape.org/namespaces/inkscape"
   width="80"
   height="20"
   id="svg2"
   version="1.1"
   inkscape:version="0.48.2 r9819"
   sodipodi:docname="butterfly.svg"
   inkscape:export-filename="/home/micha/Programmieren/git/platformer/images/butterfly.png"
   inkscape:export-xdpi="90"
   inkscape:export-ydpi="90">
  <sodipodi:namedview
     id="base"
     pagecolor="#000000"
     bordercolor="#666666"
     borderopacity="1.0"
     inkscape:pageopacity="0.0"
     inkscape:pageshadow="2"
     inkscape:zoom="8.0000001"
     inkscape:cx="43.950534"
     inkscape:cy="5.909328"
     inkscape:document-units="px"
     inkscape:current-layer="layer1"
     showgrid="true"
     inkscape:showpageshadow="true"
     inkscape:window-width="1280"
     inkscape:window-height="750"
     inkscape:window-x="0"
     inkscape:window-y="25"
     inkscape:window-maximized="1"
     showguides="true"
     inkscape:guide-bbox="true">
    <inkscape:grid
       type="xygrid"
       id="grid2985"
       empspacing="5"
       visible="true"
       enabled="true"
       snapvisiblegridlinesonly="true"
       spacingx="10px"
       spacingy="10px"
       originx="0px"
       originy="0px" />
  </sodipodi:namedview>
  <defs
     id="defs4" />
  <metadata
     id="metadata7">
    <rdf:RDF>
      <cc:Work
         rdf:about="">
        <dc:format>image/svg+xml</dc:format>
        <dc:type
           rdf:resource="http://purl.org/dc/dcmitype/StillImage" />
        <dc:title></dc:title>
      </cc:Work>
    </rdf:RDF>
  </metadata>
  <g
     inkscape:label="Ebene 1"
     inkscape:groupmode="layer"
     id="layer1"
     transform="translate(0,-1032.3622)">
    <path
       style="fill:#502d16;stroke:#000000;stroke-width:2;stroke-linecap:butt;stroke-linejoin:miter;stroke-miterlimit:4;stroke-opacity:1;stroke-dasharray:none"
       d="m 14.765933,1041.4713 c -1.0884,-1.6571 -3.305133,-1.9136 -5.1062663,-2.2415 -1.8812,0.051 -4.1698667,-0.8108 -5.7387333,0.5584 -1.2657335,1.5447 0.092667,4.2344 2.1090666,4.0759 2.7059334,0.094 5.4708,0.2556 8.133067,-0.3026 0.824333,-0.3217 1.015133,-1.3776 0.602866,-2.0902 z"
       id="path3813"
       inkscape:connector-curvature="0" />
    <path
       style="fill:#ffff00;stroke:#000000;stroke-width:2;stroke-linecap:butt;stroke-linejoin:miter;stroke-miterlimit:4;stroke-opacity:1;stroke-dasharray:none"
       d="m 34.058734,1044.2997 c 1.764666,0.7276 3.136733,2.3041 3.539266,4.0284 0.319734,1.3694 -2.1202,2.5664 -3.665666,2.1941 -1.650001,-0.291 -2.935401,-1.6021 -4.531867,-2.1225 -1.502934,0.2122 -2.822534,0.9758 -3.9072,2.002 -0.977534,1.094 -3.263134,1.3476 -3.7066,-0.3677 -0.495134,-2.2616 0.582333,-4.3907 1.4586,-6.3995 0.397533,-1.5372 1.106733,-3.2146 -0.2332,-4.4899 -0.8364,-1.2669 -0.544667,-2.8492 -1.300934,-4.1331 -1.113333,-2.0172 1.819134,-1.5456 2.965134,-1.488 2.142333,-0.3043 2.705266,2.239 4.464933,2.7232 1.642667,0.067 3.325067,-0.7702 4.448134,-1.9304 0.917,-0.9661 3.152066,-1.8808 3.862333,-0.2584 0.609333,1.6484 -0.1456,3.3255 -0.8374,4.936 -0.506267,1.1786 -2.5662,1.9251 -2.457467,2.5324 0.163067,0.9106 -1.046,1.9984 -0.09807,2.7734 z"
       id="path3817"
       inkscape:connector-curvature="0"
       sodipodi:nodetypes="cscccccccccccssc" />
    <path
       style="fill:#ff0000;stroke:#000000;stroke-width:2;stroke-linecap:butt;stroke-linejoin:miter;stroke-miterlimit:4;stroke-opacity:1;stroke-dasharray:none"
       d="m 54.058734,1044.2997 c 1.764666,0.7276 3.136733,2.3041 3.539266,4.0284 0.319734,1.3694 -2.1202,2.5664 -3.665666,2.1941 -1.650001,-0.291 -2.935401,-1.6021 -4.531867,-2.1225 -1.502934,0.2122 -2.822534,0.9758 -3.9072,2.002 -0.977534,1.094 -3.263134,1.3476 -3.7066,-0.3677 -0.495134,-2.2616 0.582333,-4.3907 1.4586,-6.3995 0.397533,-1.5372 1.106733,-3.2146 -0.2332,-4.4899 -0.8364,-1.2669 -0.544667,-2.8492 -1.300934,-4.1331 -1.113333,-2.0172 1.819134,-1.5456 2.965134,-1.488 2.142333,-0.3043 2.705266,2.239 4.464933,2.7232 1.642667,0.067 3.325067,-0.7702 4.448134,-1.9304 0.917,-0.9661 3.152066,-1.8808 3.862333,-0.2584 0.609333,1.6484 -0.1456,3.3255 -0.8374,4.936 -0.506267,1.1786 -2.5662,1.9251 -2.457467,2.5324 0.163067,0.9106 -1.046,1.9984 -0.09807,2.7734 z"
       id="path3817-5"
       inkscape:connector-curvature="0"
       sodipodi:nodetypes="cscccccccccccssc" />
    <path
       style="fill:#00ff00;stroke:#000000;stroke-width:2;stroke-linecap:butt;stroke-linejoin:miter;stroke-miterlimit:4;stroke-opacity:1;stroke-dasharray:none"
       d="m 74.058734,1044.2997 c 1.764666,0.7276 3.136733,2.3041 3.539266,4.0284 0.319734,1.3694 -2.1202,2.5664 -3.665666,2.1941 -1.650001,-0.291 -2.935401,-1.6021 -4.531867,-2.1225 -1.502934,0.2122 -2.822534,0.9758 -3.9072,2.002 -0.977534,1.094 -3.263134,1.3476 -3.7066,-0.3677 -0.495134,-2.2616 0.582333,-4.3907 1.4586,-6.3995 0.397533,-1.5372 1.106733,-3.2146 -0.2332,-4.4899 -0.8364,-1.2669 -0.544667,-2.8492 -1.300934,-4.1331 -1.113333,-2.0172 1.819134,-1.5456 2.965134,-1.488 2.142333,-0.3043 2.705266,2.239 4.464933,2.7232 1.642667,0.067 3.325067,-0.7702 4.448134,-1.9304 0.917,-0.9661 3.152066,-1.8808 3.862333,-0.2584 0.609333,1.6484 -0.1456,3.3255 -0.8374,4.936 -0.506267,1.1786 -2.5662,1.9251 -2.457467,2.5324 0.163067,0.9106 -1.046,1.9984 -0.09807,2.7734 z"
       id="path3817-6"
       inkscape:connector-curvature="0"
       sodipodi:nodetypes="cscccccccccccssc" />
  </g>
</svg>
