<?xml version="1.0" encoding="UTF-8" standalone="no"?>
<!-- Created with Inkscape (http://www.inkscape.org/) -->

<svg
   xmlns:dc="http://purl.org/dc/elements/1.1/"
   xmlns:cc="http://creativecommons.org/ns#"
   xmlns:rdf="http://www.w3.org/1999/02/22-rdf-syntax-ns#"
   xmlns:svg="http://www.w3.org/2000/svg"
   xmlns="http://www.w3.org/2000/svg"
   xmlns:sodipodi="http://sodipodi.sourceforge.net/DTD/sodipodi-0.dtd"
   xmlns:inkscape="http://www.inkscape.org/namespaces/inkscape"
   width="200"
   height="100"
   id="svg2"
   version="1.1"
   inkscape:version="0.48.4 r9939"
   sodipodi:docname="button.svg"
   inkscape:export-filename="/home/micha/Programmieren/git/platformer/images/button.png"
   inkscape:export-xdpi="90"
   inkscape:export-ydpi="90">
  <sodipodi:namedview
     id="base"
     pagecolor="#000000"
     bordercolor="#666666"
     borderopacity="1.0"
     inkscape:pageopacity="0.0"
     inkscape:pageshadow="2"
     inkscape:zoom="1.9999999"
     inkscape:cx="53.126131"
     inkscape:cy="13.38447"
     inkscape:document-units="px"
     inkscape:current-layer="layer1"
     showgrid="true"
     inkscape:showpageshadow="true"
     inkscape:window-width="1280"
     inkscape:window-height="750"
     inkscape:window-x="0"
     inkscape:window-y="25"
     inkscape:window-maximized="1">
    <inkscape:grid
       type="xygrid"
       id="grid2985"
       empspacing="5"
       visible="true"
       enabled="true"
       snapvisiblegridlinesonly="true"
       spacingx="10px"
       spacingy="10px"
       originx="0px"
       originy="0px" />
  </sodipodi:namedview>
  <defs
     id="defs4" />
  <metadata
     id="metadata7">
    <rdf:RDF>
      <cc:Work
         rdf:about="">
        <dc:format>image/svg+xml</dc:format>
        <dc:type
           rdf:resource="http://purl.org/dc/dcmitype/StillImage" />
        <dc:title />
      </cc:Work>
    </rdf:RDF>
  </metadata>
  <g
     inkscape:label="Ebene 1"
     inkscape:groupmode="layer"
     id="layer1"
     transform="translate(0,-952.3622)">
    <path
       style="fill:#916f6f;stroke:#201414;stroke-width:2;stroke-linecap:butt;stroke-linejoin:miter;stroke-miterlimit:4;stroke-opacity:1;stroke-dasharray:none"
       d="m 13.816525,980.70602 c 0.287499,-1.9446 -0.268034,-3.9079 0.06808,-5.8572 0.0032,-1.96798 -0.319378,-2.79602 -0.133987,-5.07843 4.103252,0.16519 19.156606,0.0288 23.263361,0.0759 -0.684631,2.74652 -0.272159,5.61043 -0.375,8.41573 0,1.0281 0,2.0562 0,3.0843"
       id="path3793-6"
       inkscape:connector-curvature="0"
       sodipodi:nodetypes="cccccc" />
    <path
       style="fill:#916f6f;stroke:#201414;stroke-width:2;stroke-linecap:butt;stroke-linejoin:miter;stroke-miterlimit:4;stroke-opacity:1;stroke-dasharray:none"
       d="m 66.523014,983.13801 c 0.287499,-1.94461 -3.475141,0.56439 -3.139027,-1.38491 0.0032,-1.96799 -0.319378,-2.796 -0.133987,-5.07839 4.103252,0.1652 19.330745,0.20299 23.4375,0.25 -0.684631,2.74649 -0.537324,3.13549 -0.640165,5.94079 0,1.0281 -1.859835,0.40611 -1.859835,1.43421"
       id="path3793-0-5"
       inkscape:connector-curvature="0"
       sodipodi:nodetypes="cccccc" />
    <path
       style="fill:#916f6f;stroke:#201414;stroke-width:2;stroke-linecap:butt;stroke-linejoin:miter;stroke-miterlimit:4;stroke-opacity:1;stroke-dasharray:none"
       d="m 116.46051,984.01301 c 0.2875,-1.94461 -3.47514,0.56439 -3.13902,-1.38491 0.003,-1.96799 -0.25688,-1.671 -0.0715,-3.95339 3.36981,-0.079 18.09242,-0.2098 23.4375,0.25 -0.68463,2.74649 -0.53732,1.57299 -0.64017,4.37829 0,1.0281 -1.85983,0.40611 -1.85983,1.43421"
       id="path3793-0-6-4"
       inkscape:connector-curvature="0"
       sodipodi:nodetypes="cccccc" />
    <path
       style="fill:#aa0000;stroke:#3c0000;stroke-width:2;stroke-linecap:butt;stroke-linejoin:miter;stroke-miterlimit:4;stroke-opacity:1;stroke-dasharray:none"
       d="m 10.878179,1029.8857 c 8.902071,-0.037 20.159284,-0.393 28.848661,0.1343 2.044831,0.3562 3.026356,3.8425 2.026123,5.2232 -10.629907,0.1171 -28.152012,-0.2946 -33.9221765,0.034 -0.2701634,-3.2964 0.00635,-5.3788 3.0473925,-5.3915 z"
       id="path3791-86-5"
       inkscape:connector-curvature="0"
       sodipodi:nodetypes="scccs" />
    <path
       style="fill:#ffcc00;fill-opacity:1;stroke:#7f6600;stroke-width:2;stroke-linecap:butt;stroke-linejoin:miter;stroke-miterlimit:4;stroke-opacity:1;stroke-dasharray:none"
       d="m 160.87817,1029.8857 c 8.90207,-0.037 20.15929,-0.393 28.84866,0.1343 2.04484,0.3562 3.02636,3.8425 2.02613,5.2232 -10.62991,0.1171 -28.15201,-0.2946 -33.92218,0.034 -0.27016,-3.2964 0.006,-5.3788 3.04739,-5.3915 z"
       id="path3791-86-7"
       inkscape:connector-curvature="0"
       sodipodi:nodetypes="scccs" />
    <path
       style="fill:#00aa00;fill-opacity:1;stroke:#003c00;stroke-width:2;stroke-linecap:butt;stroke-linejoin:miter;stroke-miterlimit:4;stroke-opacity:1;stroke-dasharray:none"
       d="m 110.87817,1029.8857 c 8.90208,-0.037 20.15929,-0.393 28.84866,0.1343 2.04484,0.3562 3.02636,3.8425 2.02613,5.2232 -10.62991,0.1171 -28.15201,-0.2946 -33.92218,0.034 -0.27016,-3.2964 0.006,-5.3788 3.04739,-5.3915 z"
       id="path3791-86-8"
       inkscape:connector-curvature="0"
       sodipodi:nodetypes="scccs" />
    <path
       style="fill:#0058dd;fill-opacity:1;stroke:#001385;stroke-width:2;stroke-linecap:butt;stroke-linejoin:miter;stroke-miterlimit:4;stroke-opacity:1;stroke-dasharray:none"
       d="m 60.878179,1029.8857 c 8.902071,-0.037 20.159284,-0.393 28.848661,0.1343 2.044831,0.3562 3.026356,3.8425 2.026123,5.2232 -10.629907,0.1171 -28.152012,-0.2946 -33.922176,0.034 -0.270163,-3.2964 0.0063,-5.3788 3.047392,-5.3915 z"
       id="path3791-86-3-8-3"
       inkscape:connector-curvature="0"
       sodipodi:nodetypes="scccs" />
  </g>
</svg>
