<?xml version="1.0" encoding="UTF-8" standalone="no"?>
<!-- Created with Inkscape (http://www.inkscape.org/) -->

<svg
   xmlns:dc="http://purl.org/dc/elements/1.1/"
   xmlns:cc="http://creativecommons.org/ns#"
   xmlns:rdf="http://www.w3.org/1999/02/22-rdf-syntax-ns#"
   xmlns:svg="http://www.w3.org/2000/svg"
   xmlns="http://www.w3.org/2000/svg"
   xmlns:sodipodi="http://sodipodi.sourceforge.net/DTD/sodipodi-0.dtd"
   xmlns:inkscape="http://www.inkscape.org/namespaces/inkscape"
   inkscape:export-ydpi="144"
   inkscape:export-xdpi="144"
   inkscape:export-filename="/home/micha/Programmieren/git/platformer/images/64bumper.png"
   sodipodi:docname="camera.svg"
   inkscape:version="0.48.3.1 r9886"
   version="1.1"
   id="svg2"
   height="50"
   width="100">
  <sodipodi:namedview
     id="base"
     pagecolor="#000000"
     bordercolor="#666666"
     borderopacity="1.0"
     inkscape:pageopacity="0.0"
     inkscape:pageshadow="2"
     inkscape:zoom="3.9999998"
     inkscape:cx="102.32098"
     inkscape:cy="30.141681"
     inkscape:document-units="px"
     inkscape:current-layer="layer1"
     showgrid="true"
     inkscape:showpageshadow="true"
     inkscape:window-width="1280"
     inkscape:window-height="750"
     inkscape:window-x="0"
     inkscape:window-y="25"
     inkscape:window-maximized="1">
    <inkscape:grid
       originy="0px"
       originx="0px"
       spacingy="10px"
       spacingx="10px"
       snapvisiblegridlinesonly="true"
       enabled="true"
       visible="true"
       empspacing="5"
       id="grid2985"
       type="xygrid" />
  </sodipodi:namedview>
  <defs
     id="defs4">
    <inkscape:path-effect
       fuse_tolerance="0"
       vertical_pattern="false"
       prop_units="false"
       tang_offset="0"
       normal_offset="0"
       spacing="0"
       scale_y_rel="false"
       prop_scale="1"
       copytype="single_stretched"
       pattern="M 0,0 0,10 10,5 z"
       is_visible="true"
       id="path-effect3017"
       effect="skeletal" />
  </defs>
  <metadata
     id="metadata7">
    <rdf:RDF>
      <cc:Work
         rdf:about="">
        <dc:format>image/svg+xml</dc:format>
        <dc:type
           rdf:resource="http://purl.org/dc/dcmitype/StillImage" />
        <dc:title />
      </cc:Work>
    </rdf:RDF>
  </metadata>
  <g
     transform="translate(0,-1002.3622)"
     id="layer1"
     inkscape:groupmode="layer"
     inkscape:label="Ebene 1">
    <path
       style="fill:#666666;stroke:#000000;stroke-width:1.75267637;stroke-linecap:butt;stroke-linejoin:miter;stroke-miterlimit:4;stroke-opacity:1;stroke-dasharray:none"
       d="m 70.455377,1009.5374 c -4.537138,1.6057 -4.257647,7.7213 -3.941814,8.467 -1.878128,-3.4403 -8.021818,-6.7654 -12.194975,-2.1312 -2.239096,2.4865 -3.311443,8.3582 1.720907,11.0293 2.345117,1.2448 3.965852,0.3159 4.745616,0.5288 -0.04572,2.3203 -0.230748,6.2769 -0.20716,8.4166 6.77466,-0.5857 7.166329,-1.003 10.516058,-0.2465 5.13507,0.1454 12.683647,-0.8835 17.773234,-0.4929 -0.08604,-4.6578 -0.09648,-8.8765 0.191699,-11.5567 -3.212137,-0.227 -6.825571,-0.217 -10.461287,-0.1096 4.229086,-3.833 4.628927,-10.6136 -1.108689,-13.9083 -1.399266,-0.8035 -5.074819,-0.6897 -7.033589,0 z m 26.216756,14.1787 c -0.813574,0.5501 -2.104723,2.3472 -3.368425,2.8755 -1.144867,0.4755 -2.874278,-3e-4 -4.08045,0.4655 l 0.191699,4.5186 c 1.468822,-0.093 2.968231,-0.2843 3.861365,0.3013 1.882113,1.234 2.128372,2.4826 3.368425,3.5053 -0.0243,-2.858 0.108315,-7.8692 0.02739,-11.6662 z"
       id="path3101-7"
       inkscape:connector-curvature="0"
       sodipodi:nodetypes="scssccccccssccccccc" />
    <rect
       transform="translate(0,1002.3622)"
       y="30.75"
       x="55.750004"
       height="14.250001"
       width="24.000002"
       id="rect4074"
       style="opacity:0.57096773000000001;fill:#00ff00;fill-opacity:1;stroke:none;stroke-width:1;stroke-linecap:butt;stroke-miterlimit:4;stroke-opacity:1;stroke-dasharray:1, 1;stroke-dashoffset:0" />
    <rect
       style="opacity:1;fill:none;fill-opacity:1;stroke:#000000;stroke-width:1;stroke-linecap:butt;stroke-miterlimit:4;stroke-opacity:1;stroke-dasharray:1, 1;stroke-dashoffset:0"
       id="rect4072"
       width="24.000002"
       height="14.250001"
       x="55.750004"
       y="30.75"
       transform="translate(0,1002.3622)" />
    <path
       style="fill:#666666;stroke:#000000;stroke-width:1.75267637;stroke-linecap:butt;stroke-linejoin:miter;stroke-miterlimit:4;stroke-opacity:1;stroke-dasharray:none"
       d="m 20.455377,1009.5374 c -4.537138,1.6057 -4.257647,7.7213 -3.941814,8.467 -1.878128,-3.4403 -8.0218179,-6.7654 -12.1949749,-2.1312 -2.239096,2.4865 -3.311443,8.3582 1.720907,11.0293 2.345117,1.2448 3.9658519,0.3159 4.7456159,0.5288 -0.04572,2.3203 -0.230748,6.2769 -0.20716,8.4166 6.77466,-0.5857 7.166329,-1.003 10.516058,-0.2465 5.13507,0.1454 12.683647,-0.8835 17.773234,-0.4929 -0.08604,-4.6578 -0.09648,-8.8765 0.191699,-11.5567 -3.212137,-0.227 -6.825571,-0.217 -10.461287,-0.1096 4.229086,-3.833 4.628927,-10.6136 -1.108689,-13.9083 -1.399266,-0.8035 -5.074819,-0.6897 -7.033589,0 z m 26.216756,14.1787 c -0.813574,0.5501 -2.104723,2.3472 -3.368425,2.8755 -1.144867,0.4755 -2.874278,-3e-4 -4.08045,0.4655 l 0.191699,4.5186 c 1.468822,-0.093 2.968231,-0.2843 3.861365,0.3013 1.882113,1.234 2.128372,2.4826 3.368425,3.5053 -0.0243,-2.858 0.108315,-7.8692 0.02739,-11.6662 z"
       id="path3101-7-2"
       inkscape:connector-curvature="0"
       sodipodi:nodetypes="scssccccccssccccccc" />
    <g
       id="g4041"
       transform="matrix(0.83516483,0,0,0.83516483,-12.456045,173.99515)">
      <path
         sodipodi:type="arc"
         style="opacity:0.57096773;fill:#00ff00;fill-opacity:1;stroke:none"
         id="path4039"
         sodipodi:cx="32.875"
         sodipodi:cy="34.25"
         sodipodi:rx="10.875"
         sodipodi:ry="10.875"
         d="m 43.75,34.25 c 0,6.006097 -4.868903,10.875 -10.875,10.875 C 26.868903,45.125 22,40.256097 22,34.25 c 0,-6.006097 4.868903,-10.875 10.875,-10.875 6.006097,0 10.875,4.868903 10.875,10.875 z"
         transform="translate(0,1002.3622)" />
      <path
         transform="translate(0,1002.3622)"
         d="m 43.75,34.25 c 0,6.006097 -4.868903,10.875 -10.875,10.875 C 26.868903,45.125 22,40.256097 22,34.25 c 0,-6.006097 4.868903,-10.875 10.875,-10.875 6.006097,0 10.875,4.868903 10.875,10.875 z"
         sodipodi:ry="10.875"
         sodipodi:rx="10.875"
         sodipodi:cy="34.25"
         sodipodi:cx="32.875"
         id="path4037"
         style="fill:none;stroke:#000000;stroke-width:1;stroke-linecap:butt;stroke-miterlimit:4;stroke-opacity:1;stroke-dasharray:1, 1;stroke-dashoffset:0"
         sodipodi:type="arc" />
    </g>
  </g>
</svg>
