<?xml version="1.0" encoding="UTF-8" standalone="no"?>
<!-- Created with Inkscape (http://www.inkscape.org/) -->

<svg
   xmlns:dc="http://purl.org/dc/elements/1.1/"
   xmlns:cc="http://creativecommons.org/ns#"
   xmlns:rdf="http://www.w3.org/1999/02/22-rdf-syntax-ns#"
   xmlns:svg="http://www.w3.org/2000/svg"
   xmlns="http://www.w3.org/2000/svg"
   xmlns:sodipodi="http://sodipodi.sourceforge.net/DTD/sodipodi-0.dtd"
   xmlns:inkscape="http://www.inkscape.org/namespaces/inkscape"
   width="70"
   height="70"
   id="svg2"
   version="1.1"
   inkscape:version="0.48.4 r9939"
   sodipodi:docname="crosshairs.svg"
   inkscape:export-filename="/home/micha/Programmieren/git/platformer/images/64appearblock.png"
   inkscape:export-xdpi="144"
   inkscape:export-ydpi="144">
  <sodipodi:namedview
     id="base"
     pagecolor="#000000"
     bordercolor="#666666"
     borderopacity="1.0"
     inkscape:pageopacity="0.0"
     inkscape:pageshadow="2"
     inkscape:zoom="5.656854"
     inkscape:cx="90.875104"
     inkscape:cy="30.293782"
     inkscape:document-units="px"
     inkscape:current-layer="layer1"
     showgrid="false"
     inkscape:showpageshadow="true"
     inkscape:window-width="1280"
     inkscape:window-height="750"
     inkscape:window-x="0"
     inkscape:window-y="25"
     inkscape:window-maximized="1">
    <inkscape:grid
       type="xygrid"
       id="grid2985"
       empspacing="5"
       visible="true"
       enabled="true"
       snapvisiblegridlinesonly="true"
       spacingx="10px"
       spacingy="10px"
       originx="0px"
       originy="0px" />
  </sodipodi:namedview>
  <defs
     id="defs4">
    <inkscape:path-effect
       effect="skeletal"
       id="path-effect3017"
       is_visible="true"
       pattern="M 0,0 0,10 10,5 z"
       copytype="single_stretched"
       prop_scale="1"
       scale_y_rel="false"
       spacing="0"
       normal_offset="0"
       tang_offset="0"
       prop_units="false"
       vertical_pattern="false"
       fuse_tolerance="0" />
  </defs>
  <metadata
     id="metadata7">
    <rdf:RDF>
      <cc:Work
         rdf:about="">
        <dc:format>image/svg+xml</dc:format>
        <dc:type
           rdf:resource="http://purl.org/dc/dcmitype/StillImage" />
        <dc:title />
      </cc:Work>
    </rdf:RDF>
  </metadata>
  <g
     inkscape:label="Ebene 1"
     inkscape:groupmode="layer"
     id="layer1"
     transform="translate(0,-982.3622)">
    <g
       id="g3913"
       transform="translate(-15,15)">
      <path
         style="fill:none;stroke:#aa0000;stroke-width:2;stroke-linecap:butt;stroke-miterlimit:4;stroke-opacity:1;stroke-dasharray:none;stroke-dashoffset:0"
         d="m 74.466917,1002.4838 c 0.01257,3.2176 -0.780358,6.4206 -1.917944,9.3555 -1.137587,2.9349 -2.614182,5.9823 -4.61121,8.1978 -2.264615,2.5124 -5.217831,4.2818 -8.297957,5.4896 -3.080127,1.2078 -6.193224,1.5422 -9.842065,1.5564 -3.512445,0.014 -7.388439,-0.7049 -10.603212,-2.1869 -3.214774,-1.4821 -5.805796,-3.4459 -8.075958,-5.7791 -2.16778,-2.228 -4.047443,-4.8731 -5.082543,-7.7158 -1.035099,-2.8428 -1.199962,-6.179 -1.213061,-9.5331 -0.01274,-3.26145 0.14279,-6.25711 1.216716,-9.06603 1.073926,-2.80892 2.841555,-5.11081 5.117119,-7.10319 2.473587,-2.16576 5.192715,-4.20741 8.256376,-5.67095 3.063661,-1.46354 6.696184,-2.66965 10.298091,-2.69073 3.633728,-0.0142 7.140568,1.10939 10.292802,2.60148 3.152235,1.49209 5.891186,3.30941 8.175065,5.77837 2.039471,2.20474 3.525646,4.75953 4.591748,7.59303 1.066101,2.8335 1.472046,6.25475 1.4847,9.49392 0,0 0.330568,-0.038 0.330568,-0.038"
         id="path3003"
         inkscape:connector-curvature="0"
         sodipodi:nodetypes="sssssssssssscssss" />
      <path
         inkscape:connector-curvature="0"
         id="path3793"
         transform="translate(0,952.3622)"
         d="m 51.019607,20.729473 -3.25,0.1875 1.916973,14.551777 z M 21.21875,47.40625 l -0.0625,3.125 13.325063,-1.09375 z m 57.59375,0.8125 -14.108153,1.9375 14.139403,1.65625 z M 49.46875,64.875 47.5,79.09375 51.34375,78.9375 z"
         style="fill:#800000;stroke:#800000;stroke-width:2;stroke-miterlimit:4;stroke-opacity:1;stroke-dasharray:none"
         sodipodi:nodetypes="cccccccccccccccc" />
    </g>
  </g>
</svg>
