<?xml version="1.0" encoding="UTF-8" standalone="no"?>
<!-- Created with Inkscape (http://www.inkscape.org/) -->

<svg
   xmlns:dc="http://purl.org/dc/elements/1.1/"
   xmlns:cc="http://creativecommons.org/ns#"
   xmlns:rdf="http://www.w3.org/1999/02/22-rdf-syntax-ns#"
   xmlns:svg="http://www.w3.org/2000/svg"
   xmlns="http://www.w3.org/2000/svg"
   xmlns:sodipodi="http://sodipodi.sourceforge.net/DTD/sodipodi-0.dtd"
   xmlns:inkscape="http://www.inkscape.org/namespaces/inkscape"
   width="50"
   height="50"
   id="svg2"
   version="1.1"
   inkscape:version="0.48.2 r9819"
   sodipodi:docname="crumbleblock.svg"
   inkscape:export-filename="/home/micha/Programmieren/git/platformer/images/crumbleblock.png"
   inkscape:export-xdpi="90"
   inkscape:export-ydpi="90">
  <sodipodi:namedview
     id="base"
     pagecolor="#ffffff"
     bordercolor="#666666"
     borderopacity="1.0"
     inkscape:pageopacity="0.0"
     inkscape:pageshadow="2"
     inkscape:zoom="3.9999998"
     inkscape:cx="97.106505"
     inkscape:cy="3.6889391"
     inkscape:document-units="px"
     inkscape:current-layer="layer1"
     showgrid="true"
     inkscape:showpageshadow="true"
     inkscape:window-width="1280"
     inkscape:window-height="750"
     inkscape:window-x="0"
     inkscape:window-y="25"
     inkscape:window-maximized="1">
    <inkscape:grid
       originy="0px"
       originx="0px"
       spacingy="10px"
       spacingx="10px"
       snapvisiblegridlinesonly="true"
       enabled="true"
       visible="true"
       empspacing="5"
       id="grid2985"
       type="xygrid" />
  </sodipodi:namedview>
  <defs
     id="defs4">
    <inkscape:path-effect
       fuse_tolerance="0"
       vertical_pattern="false"
       prop_units="false"
       tang_offset="0"
       normal_offset="0"
       spacing="0"
       scale_y_rel="false"
       prop_scale="1"
       copytype="single_stretched"
       pattern="M 0,0 0,10 10,5 z"
       is_visible="true"
       id="path-effect3017"
       effect="skeletal" />
  </defs>
  <metadata
     id="metadata7">
    <rdf:RDF>
      <cc:Work
         rdf:about="">
        <dc:format>image/svg+xml</dc:format>
        <dc:type
           rdf:resource="http://purl.org/dc/dcmitype/StillImage" />
        <dc:title />
      </cc:Work>
    </rdf:RDF>
  </metadata>
  <g
     transform="translate(0,-1002.3622)"
     id="layer1"
     inkscape:groupmode="layer"
     inkscape:label="Ebene 1">
    <path
       sodipodi:nodetypes="ssscssscssscssscs"
       inkscape:connector-curvature="0"
       id="rect5672"
       d="m 14.300567,1007.3353 c 3.71132,0.092 7.40976,0.5452 11.12201,0.585 2.97992,0.032 5.95707,-0.1926 8.93593,-0.2781 3.54695,-0.1019 10.64154,-0.28 10.64154,-0.28 0,0 -0.57964,6.589 -0.69174,9.8928 -0.11205,3.3021 -0.0316,6.6083 0.0195,9.9119 0.0557,3.5997 0.19187,7.1979 0.31279,10.796 0.1053,3.1336 0.35941,9.3993 0.35941,9.3993 0,0 -7.05767,-0.3663 -10.58983,-0.377 -2.90807,-0.01 -5.81603,0.1114 -8.72043,0.2576 -3.64688,0.1836 -7.27534,0.7712 -10.92682,0.778 C 11.501224,1048.0308 5,1047.3622 5,1047.3622 c 0,0 -0.646195,-6.3754 -0.551551,-9.569 0.104994,-3.5428 1.058848,-7.0208 1.239441,-10.5606 0.175341,-3.4368 -0.03187,-6.8836 -0.153631,-10.3227 C 5.421475,1013.7244 5,1007.3622 5,1007.3622 c 0,0 6.201287,-0.1039 9.300517,-0.027 z"
       style="fill:#002255;fill-opacity:1;stroke:#000000;stroke-width:2;stroke-miterlimit:4;stroke-opacity:1" />
    <path
       sodipodi:nodetypes="ssscssscssscssscs"
       inkscape:connector-curvature="0"
       id="rect5672-2"
       d="m 64.300567,1007.3353 c 3.71132,0.092 7.40976,0.5452 11.12201,0.585 2.97992,0.032 5.95707,-0.1926 8.93593,-0.2781 3.54695,-0.1019 10.64154,-0.28 10.64154,-0.28 0,0 -0.57964,6.589 -0.69174,9.8928 -0.11205,3.3021 -0.0316,6.6083 0.0195,9.9119 0.0557,3.5997 0.19187,7.1979 0.31279,10.796 0.1053,3.1336 0.35941,9.3993 0.35941,9.3993 0,0 -7.05767,-0.3663 -10.58983,-0.377 -2.90807,-0.01 -5.81603,0.1114 -8.72043,0.2576 -3.64688,0.1836 -7.27534,0.7712 -10.92682,0.778 C 61.501224,1048.0308 55,1047.3622 55,1047.3622 c 0,0 -0.646195,-6.3754 -0.551551,-9.569 0.104994,-3.5428 1.058848,-7.0208 1.239441,-10.5606 0.175341,-3.4368 -0.03187,-6.8836 -0.153631,-10.3227 C 55.421475,1013.7244 55,1007.3622 55,1007.3622 c 0,0 6.201287,-0.1039 9.300517,-0.027 z"
       style="fill:#2a7fff;fill-opacity:1;stroke:#000000;stroke-width:2;stroke-miterlimit:4;stroke-opacity:1" />
  </g>
</svg>
