<?xml version="1.0" encoding="UTF-8" standalone="no"?>
<!-- Created with Inkscape (http://www.inkscape.org/) -->

<svg
   xmlns:dc="http://purl.org/dc/elements/1.1/"
   xmlns:cc="http://creativecommons.org/ns#"
   xmlns:rdf="http://www.w3.org/1999/02/22-rdf-syntax-ns#"
   xmlns:svg="http://www.w3.org/2000/svg"
   xmlns="http://www.w3.org/2000/svg"
   xmlns:sodipodi="http://sodipodi.sourceforge.net/DTD/sodipodi-0.dtd"
   xmlns:inkscape="http://www.inkscape.org/namespaces/inkscape"
   width="80"
   height="100"
   id="svg2"
   version="1.1"
   inkscape:version="0.48.3.1 r9886"
   sodipodi:docname="crumble.svg"
   inkscape:export-filename="/home/micha/Programmieren/git/platformer/images/64crumble.png"
   inkscape:export-xdpi="144"
   inkscape:export-ydpi="144">
  <sodipodi:namedview
     id="base"
     pagecolor="#000000"
     bordercolor="#666666"
     borderopacity="1.0"
     inkscape:pageopacity="0.0"
     inkscape:pageshadow="2"
     inkscape:zoom="5.6568542"
     inkscape:cx="71.986879"
     inkscape:cy="69.402074"
     inkscape:document-units="px"
     inkscape:current-layer="layer1"
     showgrid="true"
     inkscape:showpageshadow="true"
     inkscape:window-width="1280"
     inkscape:window-height="750"
     inkscape:window-x="0"
     inkscape:window-y="25"
     inkscape:window-maximized="1"
     inkscape:snap-global="false">
    <inkscape:grid
       type="xygrid"
       id="grid2985"
       empspacing="5"
       visible="true"
       enabled="true"
       snapvisiblegridlinesonly="true"
       spacingx="10px"
       spacingy="10px"
       originx="0px"
       originy="0px" />
  </sodipodi:namedview>
  <defs
     id="defs4" />
  <metadata
     id="metadata7">
    <rdf:RDF>
      <cc:Work
         rdf:about="">
        <dc:format>image/svg+xml</dc:format>
        <dc:type
           rdf:resource="http://purl.org/dc/dcmitype/StillImage" />
        <dc:title />
      </cc:Work>
    </rdf:RDF>
  </metadata>
  <g
     inkscape:label="Ebene 1"
     inkscape:groupmode="layer"
     id="layer1"
     transform="translate(0,-952.3622)">
    <path
       style="opacity:0.5;fill:#afc6e9;fill-opacity:1;stroke:none"
       d="m 4.0103034,1016.324 c 0,0 0.3512619,5.531 0.6631874,8.273 0.056828,1.3015 -0.5208873,5.4219 1.558859,3.1146 1.8657273,-2.1544 3.8671402,-4.2313 6.6840432,-5.0337 1.113282,-0.8768 4.864246,-1.7514 2.044446,-2.9147 -2.15409,-0.9688 -3.707848,-1.5046 -5.9245241,-2.2435 -0.7983894,-0.6723 -5.0260115,-1.1957 -5.0260115,-1.1957 z"
       id="path3016"
       inkscape:connector-curvature="0"
       sodipodi:nodetypes="ccccccc" />
    <path
       style="opacity:0.5;fill:#afc6e9;fill-opacity:1;stroke:none"
       d="m 25.986889,1029.0889 c 4.640544,-1.6927 6.811913,-4.2164 10.185727,-3.7182 0.77468,-3.1953 -0.76203,-2.11 -0.262679,-5.2598 -4.172544,-1.5513 -12.305077,-4.4754 -12.305077,-4.4754 0,0 0.539133,10.2144 2.382029,13.4534 z"
       id="path3024"
       inkscape:connector-curvature="0"
       sodipodi:nodetypes="ccccc" />
    <path
       style="opacity:0.5;fill:#afc6e9;fill-opacity:1;stroke:none"
       d="m 44.87104,1016.1216 c 0.739587,2.7601 -0.470616,9.2177 -0.208362,11.8971 1.456309,1.1563 2.216046,0.2422 3.231619,0.2239 2.975034,0.502 5.271636,-0.01 7.480952,-1.4165 -1.577117,-1.8402 -0.600511,-5.39 -0.569161,-7.7957 -0.554756,-0.9748 -2.774496,-0.9836 -4.929454,-0.9043 -1.068731,-0.2036 -4.128824,-1.3056 -5.005594,-2.0045 z"
       id="path3026"
       inkscape:connector-curvature="0"
       sodipodi:nodetypes="ccccccc" />
    <path
       style="opacity:0.5;fill:#afc6e9;fill-opacity:1;stroke:none"
       d="m 64.276233,1016.3951 c 0.695122,3.8461 -1.486366,10.1288 1.284279,12.3561 3.226088,-0.7139 8.168232,0.6852 10.329366,-1.1891 -1.709333,-2.6673 1.769489,-8.3576 -3.557193,-6.3458 -4.0282,0.6489 1.312373,-6.2219 -3.909822,-5.1241 -1.389328,0 -2.758132,0.2903 -4.14663,0.3029 z"
       id="path3028"
       inkscape:connector-curvature="0"
       sodipodi:nodetypes="cccccc" />
    <path
       sodipodi:nodetypes="ccccccc"
       inkscape:connector-curvature="0"
       id="path3882"
       d="m 4.0103034,1016.324 c 0,0 0.3512619,5.531 0.6631874,8.273 0.056828,1.3015 -0.5208873,5.4219 1.558859,3.1146 1.8657273,-2.1544 3.8671402,-4.2313 6.6840432,-5.0337 1.113282,-0.8768 4.864246,-1.7514 2.044446,-2.9147 -2.15409,-0.9688 -3.707848,-1.5046 -5.9245241,-2.2435 -0.7983894,-0.6723 -5.0260115,-1.1957 -5.0260115,-1.1957 z"
       style="fill:none;stroke:#ffffff;stroke-width:2;stroke-linecap:butt;stroke-linejoin:miter;stroke-miterlimit:4;stroke-opacity:1;stroke-dasharray:none" />
    <path
       sodipodi:nodetypes="ccccc"
       inkscape:connector-curvature="0"
       id="path3884"
       d="m 25.986889,1029.0889 c 4.640544,-1.6927 6.811913,-4.2164 10.185727,-3.7182 0.77468,-3.1953 -0.76203,-2.11 -0.262679,-5.2598 -4.172544,-1.5513 -12.305077,-4.4754 -12.305077,-4.4754 0,0 0.539133,10.2144 2.382029,13.4534 z"
       style="fill:none;stroke:#ffffff;stroke-width:2;stroke-linecap:butt;stroke-linejoin:miter;stroke-miterlimit:4;stroke-opacity:1;stroke-dasharray:none" />
    <path
       sodipodi:nodetypes="ccccccc"
       inkscape:connector-curvature="0"
       id="path3886"
       d="m 44.87104,1016.1216 c 0.739587,2.7601 -0.470616,9.2177 -0.208362,11.8971 1.456309,1.1563 2.216046,0.2422 3.231619,0.2239 2.975034,0.502 5.271636,-0.01 7.480952,-1.4165 -1.577117,-1.8402 -0.600511,-5.39 -0.569161,-7.7957 -0.554756,-0.9748 -2.774496,-0.9836 -4.929454,-0.9043 -1.068731,-0.2036 -4.128824,-1.3056 -5.005594,-2.0045 z"
       style="fill:none;stroke:#ffffff;stroke-width:2;stroke-linecap:butt;stroke-linejoin:miter;stroke-miterlimit:4;stroke-opacity:1;stroke-dasharray:none" />
    <path
       sodipodi:nodetypes="cccccc"
       inkscape:connector-curvature="0"
       id="path3888"
       d="m 64.276233,1016.3951 c 0.695122,3.8461 -1.486366,10.1288 1.284279,12.3561 3.226088,-0.7139 8.168232,0.6852 10.329366,-1.1891 -1.709333,-2.6673 1.769489,-8.3576 -3.557193,-6.3458 -4.0282,0.6489 1.312373,-6.2219 -3.909822,-5.1241 -1.389328,0 -2.758132,0.2903 -4.14663,0.3029 z"
       style="fill:none;stroke:#ffffff;stroke-width:2;stroke-linecap:butt;stroke-linejoin:miter;stroke-miterlimit:4;stroke-opacity:1;stroke-dasharray:none" />
    <path
       style="fill:#241c1c;fill-opacity:1;stroke:#000000;stroke-width:2;stroke-linecap:butt;stroke-linejoin:miter;stroke-miterlimit:4;stroke-opacity:1;stroke-dasharray:none"
       d="m 4.0103034,1036.324 c 0,0 0.3512619,5.531 0.6631874,8.273 0.056828,1.3015 -0.5208873,5.4219 1.558859,3.1146 1.8657273,-2.1544 3.8671402,-4.2313 6.6840432,-5.0337 1.113282,-0.8768 4.864246,-1.7514 2.044446,-2.9147 -2.15409,-0.9688 -3.707848,-1.5046 -5.9245241,-2.2435 -0.7983894,-0.6723 -5.0260115,-1.1957 -5.0260115,-1.1957 z"
       id="path3016-9-9"
       inkscape:connector-curvature="0"
       sodipodi:nodetypes="ccccccc" />
    <path
       style="fill:#241c1c;fill-opacity:1;stroke:#000000;stroke-width:2;stroke-linecap:butt;stroke-linejoin:miter;stroke-miterlimit:4;stroke-opacity:1;stroke-dasharray:none"
       d="m 25.986889,1049.0889 c 4.640544,-1.6927 6.811913,-4.2164 10.185727,-3.7182 0.77468,-3.1953 -0.76203,-2.11 -0.262679,-5.2598 -4.172544,-1.5513 -12.305077,-4.4754 -12.305077,-4.4754 0,0 0.539133,10.2144 2.382029,13.4534 z"
       id="path3024-9-0"
       inkscape:connector-curvature="0"
       sodipodi:nodetypes="ccccc" />
    <path
       style="fill:#241c1c;fill-opacity:1;stroke:#000000;stroke-width:2;stroke-linecap:butt;stroke-linejoin:miter;stroke-miterlimit:4;stroke-opacity:1;stroke-dasharray:none"
       d="m 44.87104,1036.1216 c 0.739587,2.7601 -0.470616,9.2177 -0.208362,11.8971 1.456309,1.1563 2.216046,0.2422 3.231619,0.2239 2.975034,0.502 5.271636,-0.01 7.480952,-1.4165 -1.577117,-1.8402 -0.600511,-5.39 -0.569161,-7.7957 -0.554756,-0.9748 -2.774496,-0.9836 -4.929454,-0.9043 -1.068731,-0.2036 -4.128824,-1.3056 -5.005594,-2.0045 z"
       id="path3026-6-0"
       inkscape:connector-curvature="0"
       sodipodi:nodetypes="ccccccc" />
    <path
       style="fill:#241c1c;fill-opacity:1;stroke:#000000;stroke-width:2;stroke-linecap:butt;stroke-linejoin:miter;stroke-miterlimit:4;stroke-opacity:1;stroke-dasharray:none"
       d="m 64.276233,1036.3951 c 0.695122,3.8461 -1.486366,10.1288 1.284279,12.3561 3.226088,-0.7139 8.168232,0.6852 10.329366,-1.1891 -1.709333,-2.6673 1.769489,-8.3576 -3.557193,-6.3458 -4.0282,0.6489 1.312373,-6.2219 -3.909822,-5.1241 -1.389328,0 -2.758132,0.2903 -4.14663,0.3029 z"
       id="path3028-3-8"
       inkscape:connector-curvature="0"
       sodipodi:nodetypes="cccccc" />
    <path
       style="fill:#9e8c80;fill-opacity:1;stroke:#000000;stroke-width:2;stroke-linecap:butt;stroke-linejoin:miter;stroke-miterlimit:4;stroke-opacity:1;stroke-dasharray:none"
       d="m 104.0103,996.324 c 0,0 0.35127,5.531 0.66319,8.273 0.0568,1.3015 -0.52089,5.4219 1.55886,3.1146 1.86573,-2.1544 3.86714,-4.2313 6.68404,-5.0337 1.11329,-0.8768 4.86425,-1.7514 2.04445,-2.9147 -2.15409,-0.9688 -3.70785,-1.5046 -5.92453,-2.2435 -0.79838,-0.6723 -5.02601,-1.1957 -5.02601,-1.1957 z"
       id="path3016-9"
       inkscape:connector-curvature="0"
       sodipodi:nodetypes="ccccccc" />
    <path
       style="fill:#9e8c80;fill-opacity:1;stroke:#000000;stroke-width:2;stroke-linecap:butt;stroke-linejoin:miter;stroke-miterlimit:4;stroke-opacity:1;stroke-dasharray:none"
       d="m 125.98689,1009.0889 c 4.64054,-1.6927 6.81191,-4.2164 10.18573,-3.7182 0.77468,-3.1953 -0.76203,-2.11 -0.26268,-5.2598 -4.17255,-1.5513 -12.30508,-4.4754 -12.30508,-4.4754 0,0 0.53913,10.2144 2.38203,13.4534 z"
       id="path3024-9"
       inkscape:connector-curvature="0"
       sodipodi:nodetypes="ccccc" />
    <path
       style="fill:#9e8c80;fill-opacity:1;stroke:#000000;stroke-width:2;stroke-linecap:butt;stroke-linejoin:miter;stroke-miterlimit:4;stroke-opacity:1;stroke-dasharray:none"
       d="m 144.87104,996.1216 c 0.73959,2.7601 -0.47062,9.2177 -0.20836,11.8971 1.45631,1.1563 2.21604,0.2422 3.23162,0.2239 2.97503,0.502 5.27163,-0.01 7.48095,-1.4165 -1.57712,-1.8402 -0.60051,-5.39 -0.56916,-7.7957 -0.55476,-0.9748 -2.7745,-0.9836 -4.92946,-0.9043 -1.06873,-0.2036 -4.12882,-1.3056 -5.00559,-2.0045 z"
       id="path3026-6"
       inkscape:connector-curvature="0"
       sodipodi:nodetypes="ccccccc" />
    <path
       style="fill:#9e8c80;fill-opacity:1;stroke:#000000;stroke-width:2;stroke-linecap:butt;stroke-linejoin:miter;stroke-miterlimit:4;stroke-opacity:1;stroke-dasharray:none"
       d="m 164.27623,996.3951 c 0.69513,3.8461 -1.48636,10.1288 1.28428,12.3561 3.22609,-0.7139 8.16823,0.6852 10.32937,-1.1891 -1.70933,-2.6673 1.76949,-8.3576 -3.55719,-6.3458 -4.0282,0.6489 1.31237,-6.2219 -3.90983,-5.1241 -1.38932,0 -2.75813,0.2903 -4.14663,0.3029 z"
       id="path3028-3"
       inkscape:connector-curvature="0"
       sodipodi:nodetypes="cccccc" />
    <path
       style="fill:#ac9d93;fill-opacity:1;stroke:#000000;stroke-width:2;stroke-linecap:butt;stroke-linejoin:miter;stroke-miterlimit:4;stroke-opacity:1;stroke-dasharray:none"
       d="m 104.0103,976.324 c 0,0 0.35127,5.531 0.66319,8.273 0.0568,1.3015 -0.52089,5.4219 1.55886,3.1146 1.86573,-2.1544 3.86714,-4.2313 6.68404,-5.0337 1.11329,-0.8768 4.86425,-1.7514 2.04445,-2.9147 -2.15409,-0.9688 -3.70785,-1.5046 -5.92453,-2.2435 -0.79838,-0.6723 -5.02601,-1.1957 -5.02601,-1.1957 z"
       id="path3016-9-0"
       inkscape:connector-curvature="0"
       sodipodi:nodetypes="ccccccc" />
    <path
       style="fill:#ac9d93;fill-opacity:1;stroke:#000000;stroke-width:2;stroke-linecap:butt;stroke-linejoin:miter;stroke-miterlimit:4;stroke-opacity:1;stroke-dasharray:none"
       d="m 125.98689,989.0889 c 4.64054,-1.6927 6.81191,-4.2164 10.18573,-3.7182 0.77468,-3.1953 -0.76203,-2.11 -0.26268,-5.2598 -4.17255,-1.5513 -12.30508,-4.4754 -12.30508,-4.4754 0,0 0.53913,10.2144 2.38203,13.4534 z"
       id="path3024-9-7"
       inkscape:connector-curvature="0"
       sodipodi:nodetypes="ccccc" />
    <path
       style="fill:#ac9d93;fill-opacity:1;stroke:#000000;stroke-width:2;stroke-linecap:butt;stroke-linejoin:miter;stroke-miterlimit:4;stroke-opacity:1;stroke-dasharray:none"
       d="m 144.87104,976.1216 c 0.73959,2.7601 -0.47062,9.2177 -0.20836,11.8971 1.45631,1.1563 2.21604,0.2422 3.23162,0.2239 2.97503,0.502 5.27163,-0.01 7.48095,-1.4165 -1.57712,-1.8402 -0.60051,-5.39 -0.56916,-7.7957 -0.55476,-0.9748 -2.7745,-0.9836 -4.92946,-0.9043 -1.06873,-0.2036 -4.12882,-1.3056 -5.00559,-2.0045 z"
       id="path3026-6-9"
       inkscape:connector-curvature="0"
       sodipodi:nodetypes="ccccccc" />
    <path
       style="fill:#ac9d93;fill-opacity:1;stroke:#000000;stroke-width:2;stroke-linecap:butt;stroke-linejoin:miter;stroke-miterlimit:4;stroke-opacity:1;stroke-dasharray:none"
       d="m 164.27623,976.3951 c 0.69513,3.8461 -1.48636,10.1288 1.28428,12.3561 3.22609,-0.7139 8.16823,0.6852 10.32937,-1.1891 -1.70933,-2.6673 1.76949,-8.3576 -3.55719,-6.3458 -4.0282,0.6489 1.31237,-6.2219 -3.90983,-5.1241 -1.38932,0 -2.75813,0.2903 -4.14663,0.3029 z"
       id="path3028-3-87"
       inkscape:connector-curvature="0"
       sodipodi:nodetypes="cccccc" />
    <path
       style="fill:#beb3ab;fill-opacity:1;stroke:#000000;stroke-width:2;stroke-linecap:butt;stroke-linejoin:miter;stroke-miterlimit:4;stroke-opacity:1;stroke-dasharray:none"
       d="m 104.0103,956.324 c 0,0 0.35127,5.531 0.66319,8.273 0.0568,1.3015 -0.52089,5.4219 1.55886,3.1146 1.86573,-2.1544 3.86714,-4.2313 6.68404,-5.0337 1.11329,-0.8768 4.86425,-1.7514 2.04445,-2.9147 -2.15409,-0.9688 -3.70785,-1.5046 -5.92453,-2.2435 -0.79838,-0.6723 -5.02601,-1.1957 -5.02601,-1.1957 z"
       id="path3016-9-5"
       inkscape:connector-curvature="0"
       sodipodi:nodetypes="ccccccc" />
    <path
       style="fill:#beb3ab;fill-opacity:1;stroke:#000000;stroke-width:2;stroke-linecap:butt;stroke-linejoin:miter;stroke-miterlimit:4;stroke-opacity:1;stroke-dasharray:none"
       d="m 125.98689,969.0889 c 4.64054,-1.6927 6.81191,-4.2164 10.18573,-3.7182 0.77468,-3.1953 -0.76203,-2.11 -0.26268,-5.2598 -4.17255,-1.5513 -12.30508,-4.4754 -12.30508,-4.4754 0,0 0.53913,10.2144 2.38203,13.4534 z"
       id="path3024-9-07"
       inkscape:connector-curvature="0"
       sodipodi:nodetypes="ccccc" />
    <path
       style="fill:#beb3ab;fill-opacity:1;stroke:#000000;stroke-width:2;stroke-linecap:butt;stroke-linejoin:miter;stroke-miterlimit:4;stroke-opacity:1;stroke-dasharray:none"
       d="m 144.87104,956.1216 c 0.73959,2.7601 -0.47062,9.2177 -0.20836,11.8971 1.45631,1.1563 2.21604,0.2422 3.23162,0.2239 2.97503,0.502 5.27163,-0.01 7.48095,-1.4165 -1.57712,-1.8402 -0.60051,-5.39 -0.56916,-7.7957 -0.55476,-0.9748 -2.7745,-0.9836 -4.92946,-0.9043 -1.06873,-0.2036 -4.12882,-1.3056 -5.00559,-2.0045 z"
       id="path3026-6-98"
       inkscape:connector-curvature="0"
       sodipodi:nodetypes="ccccccc" />
    <path
       style="fill:#beb3ab;fill-opacity:1;stroke:#000000;stroke-width:2;stroke-linecap:butt;stroke-linejoin:miter;stroke-miterlimit:4;stroke-opacity:1;stroke-dasharray:none"
       d="m 164.27623,956.3951 c 0.69513,3.8461 -1.48636,10.1288 1.28428,12.3561 3.22609,-0.7139 8.16823,0.6852 10.32937,-1.1891 -1.70933,-2.6673 1.76949,-8.3576 -3.55719,-6.3458 -4.0282,0.6489 1.31237,-6.2219 -3.90983,-5.1241 -1.38932,0 -2.75813,0.2903 -4.14663,0.3029 z"
       id="path3028-3-3"
       inkscape:connector-curvature="0"
       sodipodi:nodetypes="cccccc" />
    <path
       style="fill:#ac9d93;fill-opacity:1;stroke:#000000;stroke-width:2;stroke-linecap:butt;stroke-linejoin:miter;stroke-miterlimit:4;stroke-opacity:1;stroke-dasharray:none"
       d="m 3.6302448,955.8824 c -0.2849747,6.00911 -0.5318879,8.45428 -0.3035891,11.86102 3.2385029,0.3996 13.8363413,0.5489 15.2844503,1.03434 -2.104818,-4.59248 -2.335675,-9.6458 -3.418721,-12.73117 -3.520445,-0.0593 -8.0412858,-0.3929 -11.5621402,-0.16419 z"
       id="path3134"
       inkscape:connector-curvature="0"
       sodipodi:nodetypes="ccccc" />
    <path
       style="fill:#ac9d93;fill-opacity:1;stroke:#000000;stroke-width:2;stroke-linecap:butt;stroke-linejoin:miter;stroke-miterlimit:4;stroke-opacity:1;stroke-dasharray:none"
       d="m 25.059423,956.36115 c -3.069465,4.41537 -1.184719,8.48209 -0.345245,11.39345 5.756238,1.8019 12.152042,-1.0163 12.090781,-5.27305 1.235604,-3.38141 1.496683,-7.70194 -2.766429,-6.65359 -1.36704,0.25076 -7.693744,0.42034 -8.979107,0.53319 z"
       id="path3136"
       inkscape:connector-curvature="0"
       sodipodi:nodetypes="ccccc" />
    <path
       style="fill:#ac9d93;fill-opacity:1;stroke:#000000;stroke-width:2;stroke-linecap:butt;stroke-linejoin:miter;stroke-miterlimit:4;stroke-opacity:1;stroke-dasharray:none"
       d="m 45.43747,957.4141 c -3.012792,3.51355 -3.950434,11.19787 2.876674,11.15672 4.564262,-0.0275 10.664822,0.27687 8.74439,-5.81759 -0.145199,-3.87246 -0.818589,-8.314 -5.840794,-6.62482 -1.441748,0.46825 -5.573147,-0.87848 -5.78027,1.28569 z"
       id="path3138"
       inkscape:connector-curvature="0"
       sodipodi:nodetypes="csccc" />
    <path
       style="fill:#ac9d93;fill-opacity:1;stroke:#000000;stroke-width:2;stroke-linecap:butt;stroke-linejoin:miter;stroke-miterlimit:4;stroke-opacity:1;stroke-dasharray:none"
       d="m 62.80306,955.47861 c 4.578431,1.64189 13.936853,-2.85994 14.903303,3.04908 -0.241888,3.37805 0.04188,9.70545 -1.101657,11.19848 -3.912693,-2.90637 -9.089469,-2.54076 -13.116359,-1.3047 -0.445045,-4.269 0.213888,-8.622 -0.685287,-12.94286 z"
       id="path3140"
       inkscape:connector-curvature="0"
       sodipodi:nodetypes="ccccc" />
    <path
       style="fill:#988679;fill-opacity:1;stroke:#000000;stroke-width:2;stroke-linecap:butt;stroke-linejoin:miter;stroke-miterlimit:4;stroke-opacity:1;stroke-dasharray:none"
       d="m 3.9185532,975.93308 c 4.2109296,0.87884 8.8552948,-0.18809 12.8495608,0.96045 -0.384326,4.04149 0.887563,9.91755 -1.859019,12.88601 -4.859647,0.003 -10.8932783,0.31696 -10.7279872,-5.9195 0.057691,-2.17671 -0.3872398,-5.71058 -0.2625546,-7.92696 z"
       id="path3142"
       inkscape:connector-curvature="0"
       sodipodi:nodetypes="cccsc" />
    <path
       style="fill:#988679;fill-opacity:1;stroke:#000000;stroke-width:2;stroke-linecap:butt;stroke-linejoin:miter;stroke-miterlimit:4;stroke-opacity:1;stroke-dasharray:none"
       d="m 24.526355,976.04319 c 0.342375,4.04352 -5.446965,12.02807 0.128738,13.11091 4.250063,-0.49979 13.809143,2.84707 12.679514,-4.34635 -1.816257,-3.33688 2.63593,-13.07527 -4.090956,-9.25063 -2.874735,0.54115 -5.811773,0.34823 -8.717296,0.48607 z"
       id="path3144"
       inkscape:connector-curvature="0"
       sodipodi:nodetypes="ccccc" />
    <path
       style="fill:#988679;fill-opacity:1;stroke:#000000;stroke-width:2;stroke-linecap:butt;stroke-linejoin:miter;stroke-miterlimit:4;stroke-opacity:1;stroke-dasharray:none"
       d="m 42.377021,975.03391 c 3.57821,4.26346 14.246528,-2.61795 15.011115,2.46772 1.29098,4.44059 2.682471,13.98359 -5.731033,12.03306 -6.355899,-1.47351 -7.3454,1.07199 -8.791002,-3.9574 -0.176291,-1.10876 -0.756267,-9.41715 -0.48908,-10.54338 z"
       id="path3146"
       inkscape:connector-curvature="0"
       sodipodi:nodetypes="ccscc" />
    <path
       style="fill:#988679;fill-opacity:1;stroke:#000000;stroke-width:2;stroke-linecap:butt;stroke-linejoin:miter;stroke-miterlimit:4;stroke-opacity:1;stroke-dasharray:none"
       d="m 64.015287,976.51926 c 1.023712,4.00706 -0.858807,10.64072 -0.786188,12.73004 4.17661,-1.66247 13.496555,2.73829 13.596235,-3.29868 -1.071671,-4.38186 3.125693,-12.67128 -4.945195,-10.13549 -2.636315,0.0382 -5.245358,0.45165 -7.864852,0.70413 z"
       id="path3148"
       inkscape:connector-curvature="0"
       sodipodi:nodetypes="ccccc" />
    <path
       style="fill:#baaea5;fill-opacity:1;stroke:#000000;stroke-width:2;stroke-linecap:butt;stroke-linejoin:miter;stroke-miterlimit:4;stroke-opacity:1;stroke-dasharray:none"
       d="m 64.474953,995.59951 c 3.754035,2.77563 13.897223,-2.8685 12.110564,3.72094 -1.434522,4.40975 3.448647,11.76935 -4.277307,9.58605 -4.164322,-0.3332 -11.448827,1.1568 -9.172629,-5.563 0.08841,-2.635 0.944708,-5.15398 1.339372,-7.74399 z"
       id="path3150"
       inkscape:connector-curvature="0"
       sodipodi:nodetypes="ccccc" />
    <path
       style="fill:#baaea5;fill-opacity:1;stroke:#000000;stroke-width:2;stroke-linecap:butt;stroke-linejoin:miter;stroke-miterlimit:4;stroke-opacity:1;stroke-dasharray:none"
       d="m 55.936433,995.17852 c -3.946013,3.00572 -9.151669,-1.03399 -12.86511,0.78803 0.475852,4.97175 -1.76338,13.95825 7.129256,13.51315 6.365871,-0.3186 7.287167,-2.1036 6.512154,-7.2309 -0.10681,-2.25957 0.495134,-5.12354 -0.7763,-7.07028 z"
       id="path3152"
       inkscape:connector-curvature="0"
       sodipodi:nodetypes="ccscc" />
    <path
       style="fill:#ac9d93;fill-opacity:1;stroke:#000000;stroke-width:2;stroke-linecap:butt;stroke-linejoin:miter;stroke-miterlimit:4;stroke-opacity:1;stroke-dasharray:none"
       d="m 36.068086,1009.4439 c -5.459177,-0.489 -14.506204,1.3216 -12.723,-11.11979 0.963851,-6.72476 9.066107,-1.88759 14.316108,-3.18913 -0.02142,4.29513 -1.322999,12.48602 -1.593108,14.30892 z"
       id="path3154"
       inkscape:connector-curvature="0"
       sodipodi:nodetypes="cscc" />
    <path
       style="fill:#baaea5;fill-opacity:1;stroke:#000000;stroke-width:2;stroke-linecap:butt;stroke-linejoin:miter;stroke-miterlimit:4;stroke-opacity:1;stroke-dasharray:none"
       d="m 15.996676,996.18556 c -4.739041,0.20738 -11.8600307,-1.98604 -11.6620838,5.09624 0.1150928,4.1179 -2.8661752,7.0746 5.0248457,6.8017 5.7993121,-0.2006 6.3393791,0.3644 6.5743391,-4.1014 l -0.03736,-6.0429 z"
       id="path3156"
       inkscape:connector-curvature="0"
       sodipodi:nodetypes="cssccc" />
  </g>
</svg>
