<?xml version="1.0" encoding="UTF-8" standalone="no"?>
<!-- Created with Inkscape (http://www.inkscape.org/) -->

<svg
   xmlns:dc="http://purl.org/dc/elements/1.1/"
   xmlns:cc="http://creativecommons.org/ns#"
   xmlns:rdf="http://www.w3.org/1999/02/22-rdf-syntax-ns#"
   xmlns:svg="http://www.w3.org/2000/svg"
   xmlns="http://www.w3.org/2000/svg"
   xmlns:sodipodi="http://sodipodi.sourceforge.net/DTD/sodipodi-0.dtd"
   xmlns:inkscape="http://www.inkscape.org/namespaces/inkscape"
   width="50"
   height="50"
   id="svg2"
   version="1.1"
   inkscape:version="0.48.4 r9939"
   sodipodi:docname="crumbleblock.svg"
   inkscape:export-filename="/home/micha/Programmieren/git/platformer/images/crumbleblock.png"
   inkscape:export-xdpi="90"
   inkscape:export-ydpi="90">
  <sodipodi:namedview
     id="base"
     pagecolor="#000000"
     bordercolor="#666666"
     borderopacity="1.0"
     inkscape:pageopacity="0.0"
     inkscape:pageshadow="2"
     inkscape:zoom="4"
     inkscape:cx="133.06606"
     inkscape:cy="29.032764"
     inkscape:document-units="px"
     inkscape:current-layer="layer1"
     showgrid="true"
     inkscape:showpageshadow="true"
     inkscape:window-width="1280"
     inkscape:window-height="750"
     inkscape:window-x="0"
     inkscape:window-y="25"
     inkscape:window-maximized="1">
    <inkscape:grid
       originy="0px"
       originx="0px"
       spacingy="10px"
       spacingx="10px"
       snapvisiblegridlinesonly="true"
       enabled="true"
       visible="true"
       empspacing="5"
       id="grid2985"
       type="xygrid" />
  </sodipodi:namedview>
  <defs
     id="defs4">
    <inkscape:path-effect
       fuse_tolerance="0"
       vertical_pattern="false"
       prop_units="false"
       tang_offset="0"
       normal_offset="0"
       spacing="0"
       scale_y_rel="false"
       prop_scale="1"
       copytype="single_stretched"
       pattern="M 0,0 0,10 10,5 z"
       is_visible="true"
       id="path-effect3017"
       effect="skeletal" />
    <clipPath
       clipPathUnits="userSpaceOnUse"
       id="clipPath9034">
      <path
         style="fill:#6aa0d7;fill-opacity:0.70588235;stroke:#000000;stroke-opacity:1"
         d="m 685,937.3622 45,0 0,45 -45,0 z"
         id="path9036"
         inkscape:connector-curvature="0"
         sodipodi:nodetypes="ccccc" />
    </clipPath>
    <clipPath
       clipPathUnits="userSpaceOnUse"
       id="clipPath8980">
      <path
         sodipodi:nodetypes="ccccc"
         inkscape:connector-curvature="0"
         id="path8982"
         d="m 645,937.3622 40,0 0,45 -40,0 z"
         style="fill:#6aa0d7;fill-opacity:0.70776253;stroke:#000000;stroke-opacity:1" />
    </clipPath>
    <clipPath
       clipPathUnits="userSpaceOnUse"
       id="clipPath8926">
      <path
         sodipodi:nodetypes="ccccc"
         inkscape:connector-curvature="0"
         id="path8928"
         d="m 600,937.3622 45,0 0,45 -45,0 z"
         style="fill:#6aa0d7;fill-opacity:0.70588235;stroke:#000000;stroke-opacity:1" />
    </clipPath>
    <clipPath
       clipPathUnits="userSpaceOnUse"
       id="clipPath9214">
      <path
         style="fill:#6aa0d7;fill-opacity:0.70588235;stroke:#000000;stroke-opacity:1"
         d="m 685,852.3622 45,0 0,45 0,0 -45,0 z"
         id="path9216"
         inkscape:connector-curvature="0"
         sodipodi:nodetypes="cccccc" />
    </clipPath>
    <clipPath
       clipPathUnits="userSpaceOnUse"
       id="clipPath8817">
      <path
         style="fill:#6aa0d7;fill-opacity:0.70776253;stroke:#000000;stroke-opacity:1"
         d="m 645,897.3622 40,0 0,40 -40,0 z"
         id="path8819"
         inkscape:connector-curvature="0"
         sodipodi:nodetypes="ccccc" />
    </clipPath>
    <clipPath
       clipPathUnits="userSpaceOnUse"
       id="clipPath8763">
      <path
         style="fill:#6aa0d7;fill-opacity:0.70588235;stroke:#000000;stroke-opacity:1"
         d="m 600,897.3622 45,0 0,40 -45,0 z"
         id="path8765"
         inkscape:connector-curvature="0"
         sodipodi:nodetypes="ccccc" />
    </clipPath>
    <clipPath
       clipPathUnits="userSpaceOnUse"
       id="clipPath8872">
      <path
         sodipodi:nodetypes="cccccc"
         inkscape:connector-curvature="0"
         id="path8874"
         d="m 685,897.3622 45,0 0,46 0,-6 -45,0 z"
         style="fill:#6aa0d7;fill-opacity:0.70588235;stroke:#000000;stroke-opacity:1" />
    </clipPath>
    <clipPath
       clipPathUnits="userSpaceOnUse"
       id="clipPath8603">
      <path
         sodipodi:nodetypes="ccccc"
         inkscape:connector-curvature="0"
         id="path8605"
         d="m 645,852.3622 40,0 0,45 -40,0 z"
         style="fill:#6aa0d7;fill-opacity:0.70776253;stroke:#000000;stroke-opacity:1" />
    </clipPath>
    <clipPath
       clipPathUnits="userSpaceOnUse"
       id="clipPath8548">
      <path
         sodipodi:nodetypes="ccccc"
         inkscape:connector-curvature="0"
         id="path8551"
         d="m 600,852.3622 45,0 0,45 -45,0 z"
         style="fill:#6aa0d7;fill-opacity:0.70588235;stroke:#000000;stroke-opacity:1" />
    </clipPath>
    <clipPath
       clipPathUnits="userSpaceOnUse"
       id="clipPath21399-9">
      <path
         style="fill:#6aa0d7;fill-opacity:0.70588235;stroke:#441b00;stroke-opacity:1"
         d="m 225,1287.3622 50,0 0,45 -50,0 z"
         id="path21401-9"
         inkscape:connector-curvature="0"
         sodipodi:nodetypes="ccccc" />
    </clipPath>
    <clipPath
       clipPathUnits="userSpaceOnUse"
       id="clipPath21359-8">
      <path
         sodipodi:nodetypes="cccccc"
         inkscape:connector-curvature="0"
         id="path21361-9"
         d="m 225,1247.3622 50,0 0,46 0,-6 -50,0 z"
         style="fill:#6aa0d7;fill-opacity:0.70588235;stroke:#441b00;stroke-opacity:1" />
    </clipPath>
    <clipPath
       clipPathUnits="userSpaceOnUse"
       id="clipPath21321-9">
      <path
         style="fill:#6aa0d7;fill-opacity:0.70588235;stroke:#441b00;stroke-opacity:1"
         d="m 225,1202.3622 50,0 0,45 0,0 -50,0 z"
         id="path21323-3"
         inkscape:connector-curvature="0"
         sodipodi:nodetypes="cccccc" />
    </clipPath>
    <clipPath
       clipPathUnits="userSpaceOnUse"
       id="clipPath20800-7">
      <path
         style="fill:#6aa0d7;fill-opacity:0.70588235;stroke:#000000;stroke-opacity:1"
         d="m 245,1092.3622 45,0 0,50 -45,0 z"
         id="path20802-5"
         inkscape:connector-curvature="0"
         sodipodi:nodetypes="ccccc" />
    </clipPath>
    <clipPath
       clipPathUnits="userSpaceOnUse"
       id="clipPath20772-5">
      <path
         sodipodi:nodetypes="ccccc"
         inkscape:connector-curvature="0"
         id="path20774-7"
         d="m 160,1092.3622 45,0 0,50 -45,0 z"
         style="fill:#6aa0d7;fill-opacity:0.70588235;stroke:#000000;stroke-opacity:1" />
    </clipPath>
    <clipPath
       clipPathUnits="userSpaceOnUse"
       id="clipPath20796-8">
      <path
         sodipodi:nodetypes="ccccc"
         inkscape:connector-curvature="0"
         id="path20798-9"
         d="m 205,1092.3622 40,0 0,50 -40,0 z"
         style="fill:#6aa0d7;fill-opacity:0.70776253;stroke:#000000;stroke-opacity:1" />
    </clipPath>
  </defs>
  <metadata
     id="metadata7">
    <rdf:RDF>
      <cc:Work
         rdf:about="">
        <dc:format>image/svg+xml</dc:format>
        <dc:type
           rdf:resource="http://purl.org/dc/dcmitype/StillImage" />
        <dc:title />
      </cc:Work>
    </rdf:RDF>
  </metadata>
  <g
     transform="translate(0,-1002.3622)"
     id="layer1"
     inkscape:groupmode="layer"
     inkscape:label="Ebene 1">
    <path
       style="fill:#ac9d93;fill-opacity:1;stroke:#000000;stroke-width:2;stroke-linecap:butt;stroke-linejoin:miter;stroke-miterlimit:4;stroke-opacity:1;stroke-dasharray:none"
       d="m 19.553885,1006.2678 c -0.284975,6.009 -0.531888,8.4542 -0.303589,11.8609 3.238503,0.3996 13.83634,0.5489 15.284449,1.0344 -2.104818,-4.5925 -2.335675,-9.6458 -3.418721,-12.7311 -3.520444,-0.059 -8.041285,-0.3929 -11.562139,-0.1642 z"
       id="path3134"
       inkscape:connector-curvature="0"
       sodipodi:nodetypes="ccccc" />
    <path
       style="fill:#ac9d93;fill-opacity:1;stroke:#000000;stroke-width:2;stroke-linecap:butt;stroke-linejoin:miter;stroke-miterlimit:4;stroke-opacity:1;stroke-dasharray:none"
       d="m 32.851334,1014.8783 c -3.069465,4.4153 -1.184719,8.4821 -0.345245,11.3934 5.756238,1.8019 12.152042,-1.0163 12.090781,-5.273 1.235604,-3.3814 1.496683,-7.702 -2.766429,-6.6536 -1.36704,0.2507 -7.693744,0.4203 -8.979107,0.5332 z"
       id="path3136"
       inkscape:connector-curvature="0"
       sodipodi:nodetypes="ccccc" />
    <path
       style="fill:#ac9d93;fill-opacity:1;stroke:#000000;stroke-width:2;stroke-linecap:butt;stroke-linejoin:miter;stroke-miterlimit:4;stroke-opacity:1;stroke-dasharray:none"
       d="m 26.182547,1036.6141 c -3.012792,3.5135 -3.950434,11.1978 2.876674,11.1566 4.564262,-0.028 10.664822,0.2769 8.74439,-5.8176 -0.145199,-3.8724 -0.818589,-8.3139 -5.840794,-6.6247 -1.441748,0.4683 -5.573147,-0.8785 -5.78027,1.2857 z"
       id="path3138"
       inkscape:connector-curvature="0"
       sodipodi:nodetypes="csccc" />
    <path
       style="fill:#ac9d93;fill-opacity:1;stroke:#000000;stroke-width:2;stroke-linecap:butt;stroke-linejoin:miter;stroke-miterlimit:4;stroke-opacity:1;stroke-dasharray:none"
       d="m 30.996992,1007.1014 c 4.578431,1.6419 13.936853,-2.8599 14.903303,3.0491 -0.241888,3.3781 0.04188,9.7055 -1.101657,11.1985 -3.912693,-2.9064 -9.089469,-2.5408 -13.116359,-1.3047 -0.445045,-4.269 0.213888,-8.622 -0.685287,-12.9429 z"
       id="path3140"
       inkscape:connector-curvature="0"
       sodipodi:nodetypes="ccccc" />
    <path
       style="fill:#988679;fill-opacity:1;stroke:#000000;stroke-width:2;stroke-linecap:butt;stroke-linejoin:miter;stroke-miterlimit:4;stroke-opacity:1;stroke-dasharray:none"
       d="m 12.240795,1024.3739 c 4.21093,0.8788 8.855294,-0.1881 12.84956,0.9605 -0.384326,4.0414 0.887563,9.9175 -1.859019,12.886 -4.859646,0 -10.893277,0.3169 -10.727986,-5.9195 0.05769,-2.1767 -0.38724,-5.7106 -0.262555,-7.927 z"
       id="path3142"
       inkscape:connector-curvature="0"
       sodipodi:nodetypes="cccsc" />
    <path
       style="fill:#988679;fill-opacity:1;stroke:#000000;stroke-width:2;stroke-linecap:butt;stroke-linejoin:miter;stroke-miterlimit:4;stroke-opacity:1;stroke-dasharray:none"
       d="m 32.67182,1023.9537 c 0.342375,4.0435 -5.446965,12.0281 0.128738,13.1109 4.250063,-0.4998 13.809143,2.8471 12.679514,-4.3463 -1.816257,-3.3369 2.63593,-13.0753 -4.090956,-9.2507 -2.874735,0.5412 -5.811773,0.3483 -8.717296,0.4861 z"
       id="path3144"
       inkscape:connector-curvature="0"
       sodipodi:nodetypes="ccccc" />
    <path
       style="fill:#988679;fill-opacity:1;stroke:#000000;stroke-width:2;stroke-linecap:butt;stroke-linejoin:miter;stroke-miterlimit:4;stroke-opacity:1;stroke-dasharray:none"
       d="m 19.763341,1018.7017 c 3.57821,4.2635 14.246528,-2.6179 15.011115,2.4677 1.29098,4.4406 2.682472,13.9836 -5.731033,12.0331 -6.355899,-1.4735 -7.3454,1.072 -8.791002,-3.9574 -0.176291,-1.1088 -0.756267,-9.4171 -0.48908,-10.5434 z"
       id="path3146"
       inkscape:connector-curvature="0"
       sodipodi:nodetypes="ccscc" />
    <path
       style="fill:#988679;fill-opacity:1;stroke:#000000;stroke-width:2;stroke-linecap:butt;stroke-linejoin:miter;stroke-miterlimit:4;stroke-opacity:1;stroke-dasharray:none"
       d="m 3.7481714,1016.4748 c 1.023712,4.007 -0.858807,10.6407 -0.786188,12.73 4.17661,-1.6624 13.4965546,2.7383 13.5962346,-3.2987 -1.071671,-4.3818 3.125693,-12.6712 -4.945195,-10.1354 -2.6363146,0.038 -5.2453576,0.4516 -7.8648516,0.7041 z"
       id="path3148"
       inkscape:connector-curvature="0"
       sodipodi:nodetypes="ccccc" />
    <path
       style="fill:#baaea5;fill-opacity:1;stroke:#000000;stroke-width:2;stroke-linecap:butt;stroke-linejoin:miter;stroke-miterlimit:4;stroke-opacity:1;stroke-dasharray:none"
       d="m 3.1471772,1025.6555 c 3.754035,2.7757 13.8972228,-2.8685 12.1105638,3.721 -1.434522,4.4097 3.448647,11.7693 -4.277307,9.586 -4.1643218,-0.3332 -11.44882677,1.1568 -9.1726288,-5.563 0.08841,-2.635 0.944708,-5.154 1.339372,-7.744 z"
       id="path3150"
       inkscape:connector-curvature="0"
       sodipodi:nodetypes="ccccc" />
    <path
       style="fill:#baaea5;fill-opacity:1;stroke:#000000;stroke-width:2;stroke-linecap:butt;stroke-linejoin:miter;stroke-miterlimit:4;stroke-opacity:1;stroke-dasharray:none"
       d="m 25.367801,1017.2796 c -3.946013,3.0058 -9.151669,-1.0339 -12.86511,0.7881 0.475852,4.9717 -1.76338,13.9582 7.129256,13.5131 6.365871,-0.3186 7.287167,-2.1036 6.512154,-7.2309 -0.10681,-2.2595 0.495134,-5.1235 -0.7763,-7.0703 z"
       id="path3152"
       inkscape:connector-curvature="0"
       sodipodi:nodetypes="ccscc" />
    <path
       style="fill:#ac9d93;fill-opacity:1;stroke:#000000;stroke-width:2;stroke-linecap:butt;stroke-linejoin:miter;stroke-miterlimit:4;stroke-opacity:1;stroke-dasharray:none"
       d="m 45.450987,1048.3388 c -5.459177,-0.489 -14.506204,1.3216 -12.723,-11.1198 0.963851,-6.7247 9.066107,-1.8876 14.316108,-3.1891 -0.02142,4.2951 -1.322999,12.486 -1.593108,14.3089 z"
       id="path3154"
       inkscape:connector-curvature="0"
       sodipodi:nodetypes="cscc" />
    <path
       style="fill:#baaea5;fill-opacity:1;stroke:#000000;stroke-width:2;stroke-linecap:butt;stroke-linejoin:miter;stroke-miterlimit:4;stroke-opacity:1;stroke-dasharray:none"
       d="m 34.571966,1027.3023 c -4.73904,0.2074 -11.86003,-1.9861 -11.662083,5.0962 0.115093,4.1179 -2.866175,7.0746 5.024846,6.8017 5.799311,-0.2006 6.339378,0.3644 6.574338,-4.1014 l -0.03736,-6.0429 z"
       id="path3156"
       inkscape:connector-curvature="0"
       sodipodi:nodetypes="cssccc" />
    <path
       style="fill:#988679;fill-opacity:1;stroke:#000000;stroke-width:2;stroke-linecap:butt;stroke-linejoin:miter;stroke-miterlimit:4;stroke-opacity:1;stroke-dasharray:none"
       d="m 4.3269683,1007.4592 c 1.023712,4.007 -0.858807,10.6407 -0.786188,12.73 4.17661,-1.6624 13.4965547,2.7383 13.5962347,-3.2987 -1.071671,-4.3818 3.125693,-12.6712 -4.945195,-10.1354 -2.6363147,0.038 -5.2453577,0.4516 -7.8648517,0.7041 z"
       id="path3148-8"
       inkscape:connector-curvature="0"
       sodipodi:nodetypes="ccccc" />
    <path
       style="fill:#ac9d93;fill-opacity:1;stroke:#000000;stroke-width:2;stroke-linecap:butt;stroke-linejoin:miter;stroke-miterlimit:4;stroke-opacity:1;stroke-dasharray:none"
       d="m 14.08546,1008.7838 c -3.012792,3.5136 -3.950434,11.1979 2.876674,11.1567 4.564262,-0.028 10.664822,0.2769 8.74439,-5.8176 -0.145199,-3.8724 -0.818589,-8.314 -5.840794,-6.6248 -1.441748,0.4683 -5.573147,-0.8785 -5.78027,1.2857 z"
       id="path3138-5"
       inkscape:connector-curvature="0"
       sodipodi:nodetypes="csccc" />
    <path
       style="fill:#988679;fill-opacity:1;stroke:#000000;stroke-width:2;stroke-linecap:butt;stroke-linejoin:miter;stroke-miterlimit:4;stroke-opacity:1;stroke-dasharray:none"
       d="m 3.222603,1034.7121 c 3.5782103,4.2635 14.246528,-2.6179 15.011115,2.4677 1.29098,4.4406 2.682472,13.9836 -5.731033,12.0331 -6.3558987,-1.4735 -7.3453997,1.072 -8.7910017,-3.9574 -0.176291,-1.1088 -0.7562673,-9.4171 -0.4890803,-10.5434 z"
       id="path3146-8"
       inkscape:connector-curvature="0"
       sodipodi:nodetypes="ccscc" />
    <path
       style="fill:#baaea5;fill-opacity:1;stroke:#000000;stroke-width:2;stroke-linecap:butt;stroke-linejoin:miter;stroke-miterlimit:4;stroke-opacity:1;stroke-dasharray:none"
       d="m 28.47351,1034.7042 c -3.946013,3.0058 -9.151669,-1.0339 -12.86511,0.7881 0.475852,4.9717 -1.76338,13.9582 7.129256,13.5131 6.365871,-0.3186 7.287167,-2.1036 6.512154,-7.2309 -0.10681,-2.2595 0.495134,-5.1235 -0.7763,-7.0703 z"
       id="path3152-2"
       inkscape:connector-curvature="0"
       sodipodi:nodetypes="ccscc" />
  </g>
</svg>
