<?xml version="1.0" encoding="UTF-8" standalone="no"?>
<!-- Created with Inkscape (http://www.inkscape.org/) -->

<svg
   xmlns:dc="http://purl.org/dc/elements/1.1/"
   xmlns:cc="http://creativecommons.org/ns#"
   xmlns:rdf="http://www.w3.org/1999/02/22-rdf-syntax-ns#"
   xmlns:svg="http://www.w3.org/2000/svg"
   xmlns="http://www.w3.org/2000/svg"
   xmlns:sodipodi="http://sodipodi.sourceforge.net/DTD/sodipodi-0.dtd"
   xmlns:inkscape="http://www.inkscape.org/namespaces/inkscape"
   width="300"
   height="50"
   id="svg2"
   version="1.1"
   inkscape:version="0.48.2 r9819"
   sodipodi:docname="explosion.svg"
   inkscape:export-filename="/home/micha/Programmieren/git/platformer/images/explosion.png"
   inkscape:export-xdpi="90"
   inkscape:export-ydpi="90">
  <sodipodi:namedview
     id="base"
     pagecolor="#ffffff"
     bordercolor="#666666"
     borderopacity="1.0"
     inkscape:pageopacity="0.0"
     inkscape:pageshadow="2"
     inkscape:zoom="4"
     inkscape:cx="252.3227"
     inkscape:cy="10.43927"
     inkscape:document-units="px"
     inkscape:current-layer="layer1"
     showgrid="false"
     inkscape:showpageshadow="true"
     inkscape:window-width="1280"
     inkscape:window-height="750"
     inkscape:window-x="0"
     inkscape:window-y="25"
     inkscape:window-maximized="1">
    <inkscape:grid
       type="xygrid"
       id="grid2985"
       empspacing="5"
       visible="true"
       enabled="true"
       snapvisiblegridlinesonly="true"
       spacingx="10px"
       spacingy="10px"
       originx="0px"
       originy="0px" />
  </sodipodi:namedview>
  <defs
     id="defs4" />
  <metadata
     id="metadata7">
    <rdf:RDF>
      <cc:Work
         rdf:about="">
        <dc:format>image/svg+xml</dc:format>
        <dc:type
           rdf:resource="http://purl.org/dc/dcmitype/StillImage" />
        <dc:title></dc:title>
      </cc:Work>
    </rdf:RDF>
  </metadata>
  <g
     inkscape:label="Ebene 1"
     inkscape:groupmode="layer"
     id="layer1"
     transform="translate(0,-1002.3622)">
    <g
       id="g4324-3-10-1"
       transform="matrix(0.3347786,-0.0574067,0.0574067,0.3347786,-120.67262,973.87387)"
       style="stroke-width:5.88815641;stroke-miterlimit:4;stroke-dasharray:none" />
    <path
       style="fill:#ffff00;stroke:#000000;stroke-width:2;stroke-linecap:butt;stroke-linejoin:miter;stroke-miterlimit:4;stroke-opacity:1;stroke-dasharray:none"
       d="m 71.107402,1028.3165 c -2.157701,3.3059 3.428155,8.6722 4.77148,3.5963 0.628635,-4.297 6.051198,0.7321 6.552466,-3.7377 0.126857,-3.259 -5.17255,-2.2473 -4.325168,-6.1037 -1.858954,-3.8433 -4.654933,1.6996 -6.873532,2.2861 -4.561482,-2.2903 -5.025869,6.6898 -0.492482,4.2135 l 0.367236,-0.2545 0,0 z"
       id="path3523"
       inkscape:connector-curvature="0" />
    <path
       style="fill:#ffff00;stroke:#000000;stroke-width:2;stroke-linecap:butt;stroke-linejoin:miter;stroke-miterlimit:4;stroke-opacity:1;stroke-dasharray:none"
       d="m 128.11202,1035.2409 c 2.80967,-0.063 7.34523,1.0359 7.42518,-3.0136 4.88458,1.1543 5.24388,-5.3654 0.93765,-5.8759 0.54781,-2.7361 0.66664,-7.8476 -3.57196,-5.6761 -2.07534,-0.8819 0.81736,-7.0036 -3.82998,-5.7917 -1.37958,4.1372 -4.86512,-3.4808 -7.38624,0.335 -2.57568,1.0555 -1.0143,7.4703 -4.50199,4.2337 -2.95319,-0.6137 -6.18904,3.969 -3.90764,6.2348 3.58423,2.839 -2.99834,4.3349 -2.71841,7.5715 -0.4007,3.6381 3.54561,2.609 5.41493,3.0578 -1.30153,3.4502 3.29021,5.5468 5.76196,3.4707 -0.28546,-5.3515 4.72008,1.3861 6.68522,-1.8557 0.19042,-1.0932 -1.35882,-1.7213 -0.30872,-2.6905 z"
       id="path3550"
       inkscape:connector-curvature="0" />
    <path
       style="fill:#ffff00;stroke:#000000;stroke-width:2;stroke-linecap:butt;stroke-linejoin:miter;stroke-miterlimit:4;stroke-opacity:1;stroke-dasharray:none"
       d="m 25.321944,1025.1433 c -2.05917,0.411 -4.282035,4.1385 -0.978395,4.3994 2.529288,0.5497 4.380199,-3.4166 1.642565,-4.3577 l -0.325424,-0.056 -0.338746,0.014 z"
       id="path3535"
       inkscape:connector-curvature="0" />
    <path
       style="fill:#ff0000;stroke:#000000;stroke-width:2;stroke-linecap:butt;stroke-linejoin:miter;stroke-miterlimit:4;stroke-opacity:1;stroke-dasharray:none"
       d="m 120.38493,1029.3812 c -0.55455,1.4764 0.90602,3.395 2.47214,2.4567 1.20339,-1.1715 2.69927,-1.2226 4.21961,-1.2691 1.86153,-1.1515 -0.89757,-2.3211 -1.09852,-3.5983 -0.4888,-1.3731 1.7548,-2.8422 0.23651,-3.986 -1.33451,0.1974 -3.21962,0.073 -4.01158,1.4708 -0.10652,1.3506 -0.56363,2.6338 -1.59859,3.5084 -0.14687,0.4603 -0.0703,0.9578 -0.21957,1.4175 z"
       id="path3711"
       inkscape:connector-curvature="0" />
    <path
       style="fill:#ffff00;stroke:#000000;stroke-width:2;stroke-linecap:butt;stroke-linejoin:miter;stroke-miterlimit:4;stroke-opacity:1;stroke-dasharray:none"
       d="m 187.00194,1038.9272 c 4.90292,0.1228 7.18406,-8.0946 4.93864,-11.3533 -4.13965,-3.4348 2.46852,-10.7822 -2.42813,-12.0785 -2.13854,2.1018 0.0323,-6.483 -4.54019,-6.3065 -4.03608,1.6824 -8.23434,2.6214 -12.04138,-0.7916 -6.61219,-3.01 -3.29137,8.9518 -10.23513,6.868 -4.8991,0 -5.9012,5.1627 -4.62732,8.1543 -3.65577,4.3833 -1.32139,10.2772 -1.79915,15.2594 2.21124,6.8099 10.27939,1.3234 13.92318,6.6884 3.24516,3.1759 7.82716,1.5802 7.24536,-3.0281 2.96838,-4.2303 8.79443,2.2101 9.56412,-3.4121 z"
       id="path3719"
       inkscape:connector-curvature="0" />
    <path
       style="fill:#ff0000;stroke:#000000;stroke-width:2;stroke-linecap:butt;stroke-linejoin:miter;stroke-miterlimit:4;stroke-opacity:1;stroke-dasharray:none"
       d="m 162.81134,1030.9722 c -1.61853,3.433 2.6927,4.8424 5.2483,3.8141 2.9601,0.2889 6.09656,2.7217 8.90881,0.5497 3.10762,-2.0027 4.18359,-5.7361 4.58013,-9.2 1.08151,-2.0363 2.76082,-5.9007 -0.65303,-6.7354 -2.96979,-1.1599 -6.76504,-0.6573 -8.55633,2.2387 -1.67851,2.7731 -4.54845,4.2351 -6.95159,6.2552 -0.90618,0.8926 -2.41564,1.722 -2.57629,3.0777 z"
       id="path3744"
       inkscape:connector-curvature="0" />
    <path
       style="fill:#ffff00;stroke:#000000;stroke-width:2;stroke-linecap:butt;stroke-linejoin:miter;stroke-opacity:1;stroke-miterlimit:4;stroke-dasharray:none"
       d="m 217.25856,1034.8613 c 2.49791,0.5437 5.33786,-0.4276 7.60558,1.0297 1.49605,1.4892 0.77896,3.9424 1.85371,5.7223 0.69654,1.8087 1.29473,4.4155 -0.67691,5.6674 -1.78244,1.5076 -4.24174,0.5583 -5.57592,-1.0552 -1.49187,-1.7505 -3.47781,-2.9008 -5.74394,-3.2548 -2.88168,-0.788 -6.48211,-1.1159 -8.14118,-3.9713 -0.26273,-2.1195 1.96768,-3.9108 3.86173,-4.5495 2.21361,-0.7861 4.69266,-0.5179 6.81693,0.4114 z"
       id="path4542"
       inkscape:connector-curvature="0" />
    <path
       style="fill:#ffff00;stroke:#000000;stroke-width:2;stroke-linecap:butt;stroke-linejoin:miter;stroke-opacity:1;stroke-miterlimit:4;stroke-dasharray:none"
       d="m 214.96046,1028.3206 c 2.12362,-3.4371 6.92412,-4.4608 8.32868,-8.4268 -0.39616,-3.1566 -0.32628,-6.3483 -0.15584,-9.518 -0.48918,-2.1986 -3.18495,-2.3055 -4.12583,-0.3947 -1.54301,1.4413 -1.35709,4.0859 -3.25221,5.1099 -2.27105,1.2131 -5.56472,0.7501 -7.01699,3.2662 0.57192,2.544 -1.6811,4.6969 -1.36397,7.2024 0.82173,2.1108 3.58563,2.0417 5.2855,3.1244 0.76571,0.2751 1.69128,0.2335 2.30066,-0.3634 z"
       id="path4544"
       inkscape:connector-curvature="0" />
    <path
       style="fill:#ffff00;stroke:#000000;stroke-width:2;stroke-linecap:butt;stroke-linejoin:miter;stroke-opacity:1;stroke-miterlimit:4;stroke-dasharray:none"
       d="m 230.34003,1019.6585 c 2.09331,2.4133 5.95287,1.6254 7.95485,-0.4887 2.03522,-2.0127 1.3352,-5.3675 0.0298,-7.5941 -1.01769,-1.8892 -2.79515,-3.5033 -4.8251,-2.0722 -1.76295,0.4918 -4.15918,0.1923 -5.28479,1.918 -0.49348,1.8165 0.69551,3.6194 0.52301,5.5045 0.16548,0.9679 0.16246,2.9225 1.60225,2.7325 z"
       id="path4546"
       inkscape:connector-curvature="0" />
    <path
       style="fill:#ffff00;stroke:#000000;stroke-width:2;stroke-linecap:butt;stroke-linejoin:miter;stroke-opacity:1;stroke-miterlimit:4;stroke-dasharray:none"
       d="m 231.57747,1025.4921 c 3.45292,0.1766 7.28059,-1.03 10.41141,0.9471 0.87561,1.4931 0.32584,3.6008 0.16735,5.3118 -0.49042,1.6754 -0.12721,3.7933 -1.66127,4.9386 -1.67099,1.7929 -3.58501,3.9713 -6.25563,3.9214 -3.01767,-0.7914 -4.90977,-3.8581 -5.52903,-6.7548 -0.54135,-1.662 1.09042,-2.7267 1.44231,-4.2285 0.51745,-1.3639 0.85348,-2.7914 1.42486,-4.1356 z"
       id="path4548"
       inkscape:connector-curvature="0" />
    <path
       style="fill:#ff9c00;stroke:#000000;stroke-width:2;stroke-linecap:butt;stroke-linejoin:miter;stroke-miterlimit:4;stroke-opacity:1;stroke-dasharray:none;fill-opacity:1"
       d="m 264.50856,1037.1113 c 2.49791,0.5437 2.71286,0.3224 4.98058,1.7797 1.49605,1.4892 3.31111,1.3163 4.38586,3.0962 0.69654,1.8087 4.13758,4.0416 2.16594,5.2935 -1.78244,1.5076 -4.24174,0.5583 -5.57592,-1.0552 -1.49187,-1.7505 -3.47781,-2.9008 -5.74394,-3.2548 -2.88168,-0.788 -5.76566,-0.3153 -6.14118,-3.5963 -0.36412,-3.1814 3.77901,-3.3002 5.92866,-2.2631 z"
       id="path4542-3"
       inkscape:connector-curvature="0"
       sodipodi:nodetypes="ccccccsc" />
    <path
       style="fill:#ff9c00;stroke:#000000;stroke-width:2;stroke-linecap:butt;stroke-linejoin:miter;stroke-miterlimit:4;stroke-opacity:1;stroke-dasharray:none;fill-opacity:1"
       d="m 269.66414,1017.7688 c 1.24946,-1.3037 0.5837,-5.2986 -1.90667,-3.6627 -1.45184,1.8579 -5.26715,1.7231 -7.0192,4.5011 0.57192,2.544 -2.4311,3.5719 -2.11397,6.0774 0.82173,2.1108 1.21063,1.0417 2.9105,2.1244 2.73526,0.4569 7.72028,-8.0057 8.12934,-9.0402 z"
       id="path4544-2"
       inkscape:connector-curvature="0"
       sodipodi:nodetypes="cccccc" />
    <path
       style="fill:#ff9c00;stroke:#000000;stroke-width:2;stroke-linecap:butt;stroke-linejoin:miter;stroke-miterlimit:4;stroke-opacity:1;stroke-dasharray:none;fill-opacity:1"
       d="m 288.54488,1016.2948 c 2.03522,-2.0127 1.0852,-2.4925 -0.2202,-4.7191 -1.01769,-1.8892 -2.79515,-3.5033 -4.8251,-2.0722 -1.76295,0.4918 -4.15918,0.1923 -5.28479,1.918 -0.49348,1.8165 2.07051,1.3694 1.89801,3.2545 0.16548,0.9679 2.53746,3.4225 3.97725,3.2325 2.53548,0.7765 2.02963,0.8031 4.45483,-1.6137 z"
       id="path4546-7"
       inkscape:connector-curvature="0"
       sodipodi:nodetypes="ccccccc" />
    <path
       style="fill:#ff9c00;stroke:#000000;stroke-width:2;stroke-linecap:butt;stroke-linejoin:miter;stroke-miterlimit:4;stroke-opacity:1;stroke-dasharray:none;fill-opacity:1"
       d="m 286.45247,1028.4921 c 3.3205,-0.9634 2.40559,-4.03 5.53641,-2.0529 0.87561,1.4931 0.32584,3.6008 0.16735,5.3118 -0.49042,1.6754 -0.12721,3.7933 -1.66127,4.9386 -1.67099,1.7929 -3.58501,3.9713 -6.25563,3.9214 -3.01767,-0.7914 -2.53477,-1.3581 -3.15403,-4.2548 -0.54135,-1.662 2.21542,-1.9767 2.56731,-3.4785 0.51745,-1.3639 1.39711,-3.9786 2.79986,-4.3856 z"
       id="path4548-9"
       inkscape:connector-curvature="0"
       sodipodi:nodetypes="sccccccs" />
  </g>
</svg>
