<?xml version="1.0" encoding="UTF-8" standalone="no"?>
<!-- Created with Inkscape (http://www.inkscape.org/) -->

<svg
   xmlns:dc="http://purl.org/dc/elements/1.1/"
   xmlns:cc="http://creativecommons.org/ns#"
   xmlns:rdf="http://www.w3.org/1999/02/22-rdf-syntax-ns#"
   xmlns:svg="http://www.w3.org/2000/svg"
   xmlns="http://www.w3.org/2000/svg"
   xmlns:sodipodi="http://sodipodi.sourceforge.net/DTD/sodipodi-0.dtd"
   xmlns:inkscape="http://www.inkscape.org/namespaces/inkscape"
   width="150"
   height="100"
   id="svg2"
   version="1.1"
   inkscape:version="0.48.4 r9939"
   sodipodi:docname="follower.svg"
   inkscape:export-filename="/home/micha/Programmieren/git/platformer/images/goalie.png"
   inkscape:export-xdpi="90"
   inkscape:export-ydpi="90">
  <sodipodi:namedview
     id="base"
     pagecolor="#000000"
     bordercolor="#666666"
     borderopacity="1.0"
     inkscape:pageopacity="0.0"
     inkscape:pageshadow="2"
     inkscape:zoom="4"
     inkscape:cx="104.99399"
     inkscape:cy="30.997267"
     inkscape:document-units="px"
     inkscape:current-layer="layer1"
     showgrid="false"
     inkscape:showpageshadow="true"
     inkscape:window-width="1280"
     inkscape:window-height="750"
     inkscape:window-x="0"
     inkscape:window-y="25"
     inkscape:window-maximized="1">
    <inkscape:grid
       originy="0px"
       originx="0px"
       spacingy="10px"
       spacingx="10px"
       snapvisiblegridlinesonly="true"
       enabled="true"
       visible="true"
       empspacing="5"
       id="grid2985"
       type="xygrid" />
  </sodipodi:namedview>
  <defs
     id="defs4" />
  <metadata
     id="metadata7">
    <rdf:RDF>
      <cc:Work
         rdf:about="">
        <dc:format>image/svg+xml</dc:format>
        <dc:type
           rdf:resource="http://purl.org/dc/dcmitype/StillImage" />
        <dc:title />
      </cc:Work>
    </rdf:RDF>
  </metadata>
  <g
     transform="translate(0,-952.3622)"
     id="layer1"
     inkscape:groupmode="layer"
     inkscape:label="Ebene 1">
    <path
       sodipodi:nodetypes="sscccsscsscs"
       inkscape:connector-curvature="0"
       id="path3106-7"
       d="m 9.6731315,971.4935 c 0.032118,3.2166 -0.1183325,7.7829 -0.1199585,10.9964 -0.09355,3.4248 0.3924955,9.6414 0.3924955,9.6414 6.7190535,-0.7547 13.6913075,0.9103 20.0941675,0.8634 C 33.599818,993.1844 40,992.3597 40,992.3597 c 0,0 0.920249,-6.8804 0.359334,-9.9834 -0.53536,-2.9616 -0.470499,-6.4252 -0.222374,-9.925 C 40.38774,968.914 40,962.3622 40,962.3622 c 0,0 -6.105773,-0.4811 -9.368778,-0.25 -3.483058,0.1029 -7.132878,0.3596 -10.580814,0.5031 C 16.339964,962.6322 10,962.3622 10,962.3622 c 0,0 -0.3765299,6.0259 -0.3268685,9.1313 z"
       style="fill:#9f009f;fill-opacity:1;stroke:#000000;stroke-width:2;stroke-linecap:butt;stroke-linejoin:miter;stroke-miterlimit:4;stroke-opacity:1;stroke-dasharray:none" />
    <path
       style="fill:#9f009f;fill-opacity:1;stroke:#000000;stroke-width:1px;stroke-linecap:butt;stroke-linejoin:miter;stroke-opacity:1"
       d="m 19.413279,978.0188 c 3.720316,0.1847 7.446905,-0.08 11.168266,0.01 1.605703,-0.062 4.263436,0.3341 5.637217,-0.079 0.02508,1.2136 0.04227,1.676 -0.173603,2.525 -0.214284,2.2091 -1.385446,4.2229 -2.997898,5.6243 -2.06905,1.7982 -5.047615,3.518 -7.881115,3.0188 -3.600184,-0.6343 -7.726997,-2.3804 -9.730162,-5.7992 -1.013844,-1.7303 -1.756041,-4.1411 -1.726164,-5.7217 1.967377,0.4194 3.577895,0.5679 5.703459,0.4219 z"
       id="path4009-4"
       inkscape:connector-curvature="0"
       sodipodi:nodetypes="ccccssscc" />
    <path
       style="fill:#9f009f;fill-opacity:1;stroke:#000000;stroke-width:2;stroke-linecap:butt;stroke-linejoin:miter;stroke-miterlimit:4;stroke-opacity:1;stroke-dasharray:none"
       d="M 81.96875 9.6875 C 81.489515 9.6964619 81.032876 9.7211125 80.625 9.75 C 77.141942 9.8529 73.510436 10.1065 70.0625 10.25 C 66.352056 10.2669 60 10 60 10 C 60 10 59.637839 16.0196 59.6875 19.125 C 59.71962 22.3416 59.564126 26.9115 59.5625 30.125 C 59.46895 33.5498 59.9375 39.78125 59.9375 39.78125 C 66.656554 39.02655 73.62839 40.6719 80.03125 40.625 C 83.591232 40.8147 90 40 90 40 C 90 40 90.904665 33.103 90.34375 30 C 89.80839 27.0384 89.876875 23.59355 90.125 20.09375 C 90.37578 16.55645 90 10 90 10 C 90 10 85.323392 9.6247666 81.96875 9.6875 z M 73.71875 14 C 74.071796 13.983318 74.438397 13.978385 74.8125 14 C 77.871675 14.11027 80.163672 15.33982 82.21875 17.21875 C 84.173502 19.40914 85.670656 22.28148 85.375 25.28125 C 85.079345 28.28103 84.328658 31.12881 82.3125 32.96875 C 80.344125 34.78193 77.849609 36.07402 74.9375 35.875 C 72.240981 35.9158 69.557339 34.854 67.6875 32.65625 C 65.606238 30.73078 64.226909 27.9199 64.34375 25.03125 C 64.165861 21.88887 65.771612 19.24387 67.75 17.0625 C 69.29374 15.180909 71.247429 14.116773 73.71875 14 z "
       transform="translate(0,952.3622)"
       id="path3106-2" />
    <path
       style="fill:#9f009f;fill-opacity:1;stroke:#000000;stroke-width:1px;stroke-linecap:butt;stroke-linejoin:miter;stroke-opacity:1"
       d="m 80.519045,981.7788 c 1.525776,-0.50412 4.325936,-3.4159 5.699717,-3.829 0.02508,1.2136 0.04227,1.676 -0.173603,2.525 -0.214284,2.2091 -1.385446,4.2229 -2.997898,5.6243 -2.06905,1.7982 -5.047615,3.518 -7.881115,3.0188 -3.600184,-0.6343 -7.726997,-2.3804 -9.730162,-5.7992 -1.013844,-1.7303 -1.756041,-4.1411 -1.726164,-5.7217 1.967377,0.4194 3.760935,4.00269 7.094585,4.6497 3.64169,0.7068 6.179742,0.70003 9.71464,-0.4679 z"
       id="path4009-5"
       inkscape:connector-curvature="0"
       sodipodi:nodetypes="sccssscss" />
    <path
       style="fill:#9f009f;fill-opacity:1;stroke:#000000;stroke-width:1px;stroke-linecap:butt;stroke-linejoin:miter;stroke-opacity:1"
       d="m 63.016765,976.7574 c 0.686156,2.4246 5.476761,-1.77281 8.06222,-2.4484 2.561231,-0.66926 5.087161,-0.6309 8.171015,0.2407 1.699437,0.48032 6.461787,4.9826 7.604829,3.5262 0.878721,-1.4324 -0.833664,-1.4107 -0.908809,-3.011 -0.03052,-3.0301 -2.528494,-6.1174 -5.053588,-7.4126 -2.908855,-1.8567 -7.181168,-3.0487 -10.3504,-1.3071 -1.527299,0.8799 -3.166818,1.719 -4.848808,4.2398 -0.973456,1.459 -1.337125,3.1037 -1.638073,4.2741 -0.219046,0.8519 -1.22413,1.242 -1.038386,1.8983 z"
       id="path4004-4"
       inkscape:connector-curvature="0"
       sodipodi:nodetypes="ssscccccss" />
    <path
       style="fill:#9f009f;fill-opacity:1;stroke:#000000;stroke-width:2;stroke-linecap:butt;stroke-linejoin:miter;stroke-miterlimit:4;stroke-opacity:1;stroke-dasharray:none"
       d="M 131.96875 9.6875 C 131.48952 9.6964619 131.03288 9.7211125 130.625 9.75 C 127.14194 9.8529 123.51043 10.1065 120.0625 10.25 C 116.35205 10.2669 110 10 110 10 C 110 10 109.63784 16.0196 109.6875 19.125 C 109.7196 22.3416 109.56413 26.9115 109.5625 30.125 C 109.469 33.5498 109.9375 39.78125 109.9375 39.78125 C 116.65655 39.02655 123.62839 40.6719 130.03125 40.625 C 133.59123 40.8147 140 40 140 40 C 140 40 140.90467 33.103 140.34375 30 C 139.80839 27.0384 139.87687 23.59355 140.125 20.09375 C 140.37578 16.55645 140 10 140 10 C 140 10 135.32339 9.6247666 131.96875 9.6875 z M 123.71875 14 C 124.0718 13.983318 124.4384 13.978385 124.8125 14 C 127.87168 14.11027 130.16367 15.33982 132.21875 17.21875 C 134.1735 19.40914 135.67066 22.28148 135.375 25.28125 C 135.07934 28.28103 134.32866 31.12881 132.3125 32.96875 C 130.34412 34.78193 127.84961 36.07402 124.9375 35.875 C 122.24098 35.9158 119.55734 34.854 117.6875 32.65625 C 115.60624 30.73078 114.22691 27.9199 114.34375 25.03125 C 114.16586 21.88887 115.77161 19.24387 117.75 17.0625 C 119.29374 15.180909 121.24743 14.116773 123.71875 14 z "
       transform="translate(0,952.3622)"
       id="path3106-70" />
    <path
       style="fill:#9f009f;fill-opacity:1;stroke:#000000;stroke-width:1px;stroke-linecap:butt;stroke-linejoin:miter;stroke-opacity:1"
       d="m 130.34226,984.47465 c 2.68219,-1.76004 4.50272,-6.11175 5.8765,-6.52485 0.0251,1.21361 0.0423,1.67601 -0.1736,2.525 -0.21429,2.20911 -1.38545,4.22291 -2.9979,5.62431 -2.06905,1.79819 -5.04761,3.518 -7.88111,3.01879 -3.60019,-0.63429 -7.727,-2.3804 -9.73017,-5.79919 -1.01384,-1.73031 -1.75604,-4.14111 -1.72616,-5.72171 1.96738,0.4194 3.34135,5.67263 6.43167,7.08039 3.68588,1.67906 6.85233,1.99451 10.20077,-0.20274 z"
       id="path4009-5-3"
       inkscape:connector-curvature="0"
       sodipodi:nodetypes="sccssscss" />
    <path
       style="fill:#9f009f;fill-opacity:1;stroke:#000000;stroke-width:1px;stroke-linecap:butt;stroke-linejoin:miter;stroke-opacity:1"
       d="m 113.01676,976.7574 c 0.68616,2.42461 3.40327,-3.93528 7.70867,-6.07232 3.73662,-1.85473 5.72462,-1.37503 8.47907,0.26291 3.33463,1.98293 6.50729,8.58431 7.65033,7.12792 0.87872,-1.4324 -0.83367,-1.4107 -0.90881,-3.01101 -0.0305,-3.0301 -2.52849,-6.1174 -5.05359,-7.4126 -2.90885,-1.8567 -7.18117,-3.0487 -10.3504,-1.3071 -1.5273,0.8799 -3.16682,1.719 -4.84881,4.2398 -0.97345,1.459 -1.33712,3.1037 -1.63807,4.2741 -0.21905,0.85191 -1.22413,1.242 -1.03839,1.8983 z"
       id="path4004-4-8"
       inkscape:connector-curvature="0"
       sodipodi:nodetypes="ssscccccss" />
    <path
       sodipodi:type="arc"
       style="fill:#000000;fill-opacity:1;stroke:none"
       id="path4209"
       sodipodi:cx="68.412582"
       sodipodi:cy="77.814522"
       sodipodi:rx="0.44194174"
       sodipodi:ry="0.088388346"
       d="m 68.854524,77.814522 a 0.44194174,0.08838835 0 1 1 -0.883883,0 0.44194174,0.08838835 0 1 1 0.883883,0 z"
       transform="translate(0,952.3622)" />
    <path
       sodipodi:type="arc"
       style="fill:#1616a4;fill-opacity:1;stroke:#10107a;stroke-opacity:1;stroke-width:0.7795188;stroke-miterlimit:4;stroke-dasharray:none"
       id="path4211"
       sodipodi:cx="25.15625"
       sodipodi:cy="75.4375"
       sodipodi:rx="3.90625"
       sodipodi:ry="3.875"
       d="m 29.0625,75.4375 a 3.90625,3.875 0 1 1 -7.8125,0 3.90625,3.875 0 1 1 7.8125,0 z"
       transform="matrix(1.2828427,0,0,1.2828427,92.728487,930.58774)" />
    <path
       sodipodi:type="arc"
       style="fill:#000000;fill-opacity:1;stroke:none"
       id="path4207"
       sodipodi:cx="25.19068"
       sodipodi:cy="74.897713"
       sodipodi:rx="1.2374369"
       sodipodi:ry="1.2374369"
       d="m 26.428116,74.897713 a 1.2374369,1.2374369 0 1 1 -2.474873,0 1.2374369,1.2374369 0 1 1 2.474873,0 z"
       transform="matrix(1.7410009,0,0,1.7410009,81.106995,896.81051)" />
    <path
       style="opacity:0.14556963;fill:#000000;fill-opacity:1;stroke:none"
       d="m 124.07796,1025.9357 0.20044,-3.2873 1.48329,3.3674 2.60577,-1.6437 -1.20266,1.4834 -0.52116,0.6414 0.20044,0.6013 2.28507,1.9644 -2.64586,-0.7618 -1.32294,0.6415 -0.84186,2.7661 -0.16036,-2.9265 -0.32071,-0.6013 c 0,0 -3.64808,0.922 -3.40755,0.882 0.24053,-0.04 3.00666,-1.4834 3.00666,-1.4834 l 0.04,-0.8017 -2.64586,-2.1648 3.00666,1.6437 z"
       id="path4213"
       inkscape:connector-curvature="0"
       sodipodi:nodetypes="cccccccccccccsccccc" />
    <path
       sodipodi:nodetypes="cccccccccccccsccccc"
       inkscape:connector-curvature="0"
       id="path4215"
       d="m 126.01656,1026.4825 3.28729,0.2004 -3.36747,1.4834 1.64365,2.6057 -1.48329,-1.2027 -0.64142,-0.5211 -0.60133,0.2004 -1.96436,2.2851 0.76169,-2.6458 -0.64142,-1.323 -2.76613,-0.8418 2.92648,-0.1604 0.60134,-0.3207 c 0,0 -0.92205,-3.6482 -0.88196,-3.4076 0.04,0.2405 1.48329,3.0067 1.48329,3.0067 l 0.80178,0.04 2.16479,-2.6459 -1.64364,3.0067 z"
       style="opacity:0.14556963;fill:#000000;fill-opacity:1;stroke:none" />
    <path
       style="fill:#9f009f;fill-opacity:1;stroke:#000000;stroke-width:2;stroke-linecap:butt;stroke-linejoin:miter;stroke-miterlimit:4;stroke-opacity:1;stroke-dasharray:none"
       d="M 31.96875 59.6875 C 31.489515 59.696462 31.032876 59.721113 30.625 59.75 C 27.14194 59.8529 23.51043 60.1065 20.0625 60.25 C 16.35205 60.2669 10 60 10 60 C 10 60 9.63784 66.0196 9.6875 69.125 C 9.7196 72.3416 9.56413 76.9115 9.5625 80.125 C 9.469 83.5498 9.9375 89.78125 9.9375 89.78125 C 16.65655 89.02655 23.62839 90.6719 30.03125 90.625 C 33.59123 90.8147 40 90 40 90 C 40 90 40.90467 83.103 40.34375 80 C 39.80839 77.0384 39.87687 73.59355 40.125 70.09375 C 40.37578 66.55645 40 60 40 60 C 40 60 35.323394 59.624767 31.96875 59.6875 z M 23.71875 64 C 24.071796 63.983316 24.438398 63.978388 24.8125 64 C 27.87167 64.1103 30.16367 65.33975 32.21875 67.21875 C 34.1735 69.40915 35.67066 72.28155 35.375 75.28125 C 35.07934 78.28105 34.32866 81.12875 32.3125 82.96875 C 30.34412 84.78185 27.84961 86.0741 24.9375 85.875 C 22.24098 85.916 19.55734 84.85405 17.6875 82.65625 C 15.60623 80.73085 14.22691 77.91985 14.34375 75.03125 C 14.16586 71.88885 15.77161 69.2439 17.75 67.0625 C 19.293736 65.1809 21.247429 64.116787 23.71875 64 z "
       transform="translate(0,952.3622)"
       id="path3106-9" />
    <path
       style="fill:#9f009f;fill-opacity:1;stroke:#000000;stroke-width:1px;stroke-linecap:butt;stroke-linejoin:miter;stroke-opacity:1"
       d="m 30.51904,1035.4027 c 2.68219,-1.76 3.70333,-6.707 4.90422,-6.4806 1.19288,0.2248 0.8378,0.7037 0.6219,1.5527 -0.21429,2.2091 -1.38545,4.2229 -2.9979,5.6243 -2.06905,1.7982 -5.04761,3.518 -7.88111,3.0188 -3.60019,-0.6343 -7.727,-2.3804 -9.73017,-5.7992 -1.01384,-1.7303 -2.54849,-4.3405 -1.06325,-4.882 1.07612,-0.3924 2.76683,5.5842 5.85715,6.992 3.68588,1.6791 6.94072,2.1713 10.28916,-0.026 z"
       id="path4009-5-3-6"
       inkscape:connector-curvature="0"
       sodipodi:nodetypes="sscssssss" />
    <path
       style="fill:#9f009f;fill-opacity:1;stroke:#000000;stroke-width:1px;stroke-linecap:butt;stroke-linejoin:miter;stroke-opacity:1"
       d="m 13.54709,1025.0668 c 1.96779,2.8223 2.87294,-4.2447 7.17834,-6.3817 3.73662,-1.8547 5.72462,-1.375 8.47907,0.2629 3.33463,1.9829 5.31405,8.1866 6.98742,7.3047 0.87872,-1.4324 -0.17076,-1.5875 -0.2459,-3.1878 -1.09116,-1.8369 -2.52849,-4.1174 -5.05359,-5.4126 -2.90885,-1.8567 -7.18117,-3.0487 -10.3504,-1.3071 -1.5273,0.8799 -3.16682,1.719 -4.84881,4.2398 -0.97345,1.459 -0.63001,0.8827 -1.63807,2.2741 -0.51608,0.7123 -0.89816,1.6482 -0.50806,2.2077 z"
       id="path4004-4-8-0"
       inkscape:connector-curvature="0"
       sodipodi:nodetypes="ssscccccss" />
    <path
       sodipodi:nodetypes="ccccccccccccccccccccccccccccccccccccccccccccccccccccccccccccccccc"
       inkscape:connector-curvature="0"
       id="path3964-3-3"
       d="m 53.8125,1015.6122 6.1875,-1.5 -4.0625,-5.6875 6.3125,5.0625 0.375,-6.875 2,6 2.125,-5.875 1.625,12.25 1.375,-12.5 2.25,12.625 4.25,-12.5 1.125,9.5 2.375,-10.375 1.875,9.75 2.75,-7.875 1.25,5.25 2.375,-6 0.3125,5.75 6.1875,-4.5 -4.75,6.3125 6.5,0.5625 -8.5,3.75 8.375,2.75 -11,3.125 10.75,1 -9.625,1.25 9.5,4.75 -8.375,1 7.875,2.75 -5.875,1.625 5.75,2.125 -5.5625,-0.062 5.25,2.1875 -4.8125,-0.375 4.25,7.25 -7.0625,-6.4375 -2.1875,6.6875 -2.375,-8.375 -2.125,7.5 -3,-9 -1.625,9.75 -2.375,-9.5 -1.625,9.625 -1.125,-9.75 -1.875,9.125 -1.5,-8.125 -1.875,8.5 -1.25,-9.125 -4,9.125 1.4375,-6.4375 -6.0625,5.6875 4.1875,-8.9375 -5.125,0.1875 6.1875,-3.25 -6.0625,-2.875 6.5625,-0.5 -6.5625,-2.5 6.9375,-0.125 -7.3125,-2.5 8.4375,-3.125 -8.6875,-0.125 8.8125,-1.75 -8.3125,-1.25 7.1875,-2.75 z"
       style="fill:#000000;fill-opacity:1;stroke:none" />
    <path
       sodipodi:nodetypes="ssssssscs"
       inkscape:connector-curvature="0"
       id="path3985-1-6"
       d="m 84.319117,1037.5312 c -2.504067,2.3066 -5.664918,3.9168 -9.369549,3.6635 -3.430368,0.052 -6.819366,-1.2951 -9.198076,-4.091 -2.64768,-2.4494 -4.439664,-6.0057 -4.291026,-9.6804 -0.226302,-3.9976 1.825924,-7.3777 4.342726,-10.1528 2.24441,-2.7356 5.183704,-4.0863 8.991009,-3.8663 3.891712,0.1403 6.801098,1.704 9.415461,4.0944 2.486728,2.7865 4.415238,6.4186 4.039116,10.2347 -0.376123,3.8162 -1.36481,7.4572 -3.929661,9.7979 z"
       style="fill:#ffe6d5;fill-opacity:1;stroke:#000000;stroke-width:2.54429269;stroke-miterlimit:4" />
    <path
       style="fill:#9f009f;fill-opacity:1;stroke:#000000;stroke-width:1px;stroke-linecap:butt;stroke-linejoin:miter;stroke-opacity:1"
       d="m 13.016765,976.7574 c 0.686156,2.4246 7.967636,3.6481 10.62472,3.7391 2.774275,0 5.56369,0.016 8.335044,-0.1749 1.761825,-0.1215 3.735258,-0.7893 4.8783,-2.2457 0.878721,-1.4324 -0.833664,-1.4107 -0.908809,-3.011 -0.03052,-3.0301 -2.528494,-6.1174 -5.053588,-7.4126 -2.908855,-1.8567 -7.181168,-3.0487 -10.3504,-1.3071 -1.527299,0.8799 -3.166818,1.719 -4.848808,4.2398 -0.973456,1.459 -1.337125,3.1037 -1.638073,4.2741 -0.219046,0.8519 -1.22413,1.242 -1.038386,1.8983 z"
       id="path4004-3"
       inkscape:connector-curvature="0"
       sodipodi:nodetypes="scscccccss" />
  </g>
</svg>
