<?xml version="1.0" encoding="UTF-8" standalone="no"?>
<!-- Created with Inkscape (http://www.inkscape.org/) -->

<svg
   xmlns:dc="http://purl.org/dc/elements/1.1/"
   xmlns:cc="http://creativecommons.org/ns#"
   xmlns:rdf="http://www.w3.org/1999/02/22-rdf-syntax-ns#"
   xmlns:svg="http://www.w3.org/2000/svg"
   xmlns="http://www.w3.org/2000/svg"
   xmlns:sodipodi="http://sodipodi.sourceforge.net/DTD/sodipodi-0.dtd"
   xmlns:inkscape="http://www.inkscape.org/namespaces/inkscape"
   width="50"
   height="50"
   id="svg2"
   version="1.1"
   inkscape:version="0.48.3.1 r9886"
   sodipodi:docname="horizon.svg"
   inkscape:export-filename="/home/micha/Programmieren/git/platformer/images/goalie.png"
   inkscape:export-xdpi="90"
   inkscape:export-ydpi="90">
  <sodipodi:namedview
     id="base"
     pagecolor="#000000"
     bordercolor="#666666"
     borderopacity="1.0"
     inkscape:pageopacity="0.0"
     inkscape:pageshadow="2"
     inkscape:zoom="5.6568542"
     inkscape:cx="45.927467"
     inkscape:cy="34.687057"
     inkscape:document-units="px"
     inkscape:current-layer="layer1"
     showgrid="true"
     inkscape:showpageshadow="true"
     inkscape:window-width="1280"
     inkscape:window-height="750"
     inkscape:window-x="0"
     inkscape:window-y="25"
     inkscape:window-maximized="1"
     inkscape:snap-global="false">
    <inkscape:grid
       type="xygrid"
       id="grid2985"
       empspacing="5"
       visible="true"
       enabled="true"
       snapvisiblegridlinesonly="true"
       spacingx="10px"
       spacingy="10px"
       originx="0px"
       originy="0px" />
  </sodipodi:namedview>
  <defs
     id="defs4" />
  <metadata
     id="metadata7">
    <rdf:RDF>
      <cc:Work
         rdf:about="">
        <dc:format>image/svg+xml</dc:format>
        <dc:type
           rdf:resource="http://purl.org/dc/dcmitype/StillImage" />
        <dc:title></dc:title>
      </cc:Work>
    </rdf:RDF>
  </metadata>
  <g
     inkscape:label="Ebene 1"
     inkscape:groupmode="layer"
     id="layer1"
     transform="translate(0,-1002.3622)">
    <path
       sodipodi:nodetypes="sscsscscsscs"
       transform="translate(0,1002.3622)"
       inkscape:connector-curvature="0"
       id="path6317"
       d="M 1.875,33.125 C 2.0430573,28.036592 3.8617421,23.089305 4,18 4.1328699,13.10903 2.75,3.3749996 2.75,3.3749996 c 0,0 10.24472,0.7613234 15.375,1 4.455266,0.2072729 10.500671,0.5429478 13.375,0.375 3.995139,-0.233437 15,-1.25 15,-1.25 0,0 1.663709,19.3217954 1.5,29.0000004 -0.07426,4.390414 -1.125,13.125 -1.125,13.125 0,0 -11.42166,-0.117311 -17.125,0.125 -3.757935,0.159659 -7.488973,0.922371 -11.25,0.875 C 13.222549,46.558529 2.75,45 2.75,45 2.75,45 1.7439833,37.091901 1.875,33.125 z"
       style="fill:#ffffff;stroke:none;stroke-width:2;stroke-linecap:butt;stroke-linejoin:miter;stroke-miterlimit:4;stroke-opacity:1;stroke-dasharray:none" />
    <path
       style="fill:#5f8dd3;stroke:none"
       d="m 2.625,32.625 21.5,0.25 8.875,-0.75 14.5,1 L 47.125,46 c 0,0 -33.625,0.5 -44.2500001,-1 z"
       id="path6290"
       inkscape:connector-curvature="0"
       transform="translate(0,1002.3622)"
       sodipodi:nodetypes="ccccccc" />
    <path
       style="fill:#162d50;stroke:none;stroke-width:1px;stroke-linecap:butt;stroke-linejoin:miter;stroke-opacity:1"
       d="M 27.125,10.375 34,19.75 41.25,33 29.375,32.125 l -6.5,0.5 -5.75,-6.75 L 21,19.5 25.75,11.875 z"
       id="path6311"
       inkscape:connector-curvature="0"
       transform="translate(0,1002.3622)"
       sodipodi:nodetypes="ccccccccc" />
    <path
       style="fill:#214478;stroke:none;stroke-width:1px;stroke-linecap:butt;stroke-linejoin:miter;stroke-opacity:1"
       d="M 12.374369,21.538952 23.246136,32.499107 5.9220194,32.233942 z"
       id="path6313"
       inkscape:connector-curvature="0"
       transform="translate(0,1002.3622)" />
    <path
       style="fill:none;stroke:#000000;stroke-width:2;stroke-linecap:butt;stroke-linejoin:miter;stroke-opacity:1;stroke-miterlimit:4;stroke-dasharray:none"
       d="m 1.4142136,1035.2149 c 6.3266909,-0.7894 12.7191574,0.1857 19.0786574,-0.1501 6.879443,-0.065 13.822638,-1.2572 20.631478,0.074 2.542135,0.2749 5.152169,-0.1902 7.666019,0.2528"
       id="path5505"
       inkscape:connector-curvature="0" />
    <path
       style="fill:none;stroke:#000000;stroke-width:2;stroke-linecap:butt;stroke-linejoin:miter;stroke-opacity:1;stroke-miterlimit:4;stroke-dasharray:none"
       d="m 5.3033009,1034.8613 c 3.3148514,-3.0277 4.6677803,-8.0379 7.2064761,-11.1857 3.708614,3.5451 7.559328,6.7284 10.132423,10.5866 0.258571,0.3412 0.49008,0.7297 0.869101,0.9527"
       id="path5507"
       inkscape:connector-curvature="0"
       sodipodi:nodetypes="cccc" />
    <path
       style="fill:none;stroke:#000000;stroke-width:2;stroke-linecap:butt;stroke-linejoin:miter;stroke-opacity:1;stroke-miterlimit:4;stroke-dasharray:none"
       d="m 17.14734,1027.7902 c 0.893206,-1.6927 2.283147,-3.0765 2.995999,-4.8774 1.97894,-4.9996 5.488218,-8.5695 7.353727,-10.4312 2.607769,4.2587 3.349665,5.6193 6.688353,9.9598 0.682662,0.8875 6.21017,11.4847 6.826775,12.4199"
       id="path5509"
       inkscape:connector-curvature="0"
       sodipodi:nodetypes="cscsc" />
    <path
       style="fill:none;stroke:#000000;stroke-width:2;stroke-linecap:butt;stroke-linejoin:miter;stroke-miterlimit:4;stroke-opacity:1;stroke-dasharray:none"
       d="M 1.875,33.125 C 2.0430573,28.036592 3.8617421,23.089305 4,18 4.1328699,13.10903 2.75,3.3749996 2.75,3.3749996 c 0,0 10.24472,0.7613234 15.375,1 4.455266,0.2072729 10.500671,0.5429478 13.375,0.375 3.995139,-0.233437 15,-1.25 15,-1.25 0,0 1.663709,19.3217954 1.5,29.0000004 -0.07426,4.390414 -1.125,13.125 -1.125,13.125 0,0 -11.42166,-0.117311 -17.125,0.125 -3.757935,0.159659 -7.488973,0.922371 -11.25,0.875 C 13.222549,46.558529 2.75,45 2.75,45 2.75,45 1.7439833,37.091901 1.875,33.125 z"
       id="path6315"
       inkscape:connector-curvature="0"
       transform="translate(0,1002.3622)"
       sodipodi:nodetypes="sscsscscsscs" />
  </g>
</svg>
