<?xml version="1.0" encoding="UTF-8" standalone="no"?>
<!-- Created with Inkscape (http://www.inkscape.org/) -->

<svg
   xmlns:dc="http://purl.org/dc/elements/1.1/"
   xmlns:cc="http://creativecommons.org/ns#"
   xmlns:rdf="http://www.w3.org/1999/02/22-rdf-syntax-ns#"
   xmlns:svg="http://www.w3.org/2000/svg"
   xmlns="http://www.w3.org/2000/svg"
   xmlns:sodipodi="http://sodipodi.sourceforge.net/DTD/sodipodi-0.dtd"
   xmlns:inkscape="http://www.inkscape.org/namespaces/inkscape"
   inkscape:export-ydpi="144"
   inkscape:export-xdpi="144"
   inkscape:export-filename="/home/micha/Programmieren/git/platformer/images/64bumper.png"
   sodipodi:docname="preview-icons.svg"
   inkscape:version="0.48.4 r9939"
   version="1.1"
   id="svg2"
   height="150"
   width="250">
  <sodipodi:namedview
     id="base"
     pagecolor="#000000"
     bordercolor="#666666"
     borderopacity="1.0"
     inkscape:pageopacity="0.0"
     inkscape:pageshadow="2"
     inkscape:zoom="0.70710675"
     inkscape:cx="-39.255213"
     inkscape:cy="-10.74688"
     inkscape:document-units="px"
     inkscape:current-layer="layer1"
     showgrid="true"
     inkscape:showpageshadow="true"
     inkscape:window-width="1280"
     inkscape:window-height="750"
     inkscape:window-x="0"
     inkscape:window-y="25"
     inkscape:window-maximized="1">
    <inkscape:grid
       originy="0px"
       originx="0px"
       spacingy="10px"
       spacingx="10px"
       snapvisiblegridlinesonly="true"
       enabled="true"
       visible="true"
       empspacing="5"
       id="grid2985"
       type="xygrid" />
  </sodipodi:namedview>
  <defs
     id="defs4">
    <inkscape:path-effect
       fuse_tolerance="0"
       vertical_pattern="false"
       prop_units="false"
       tang_offset="0"
       normal_offset="0"
       spacing="0"
       scale_y_rel="false"
       prop_scale="1"
       copytype="single_stretched"
       pattern="M 0,0 0,10 10,5 z"
       is_visible="true"
       id="path-effect3017"
       effect="skeletal" />
  </defs>
  <metadata
     id="metadata7">
    <rdf:RDF>
      <cc:Work
         rdf:about="">
        <dc:format>image/svg+xml</dc:format>
        <dc:type
           rdf:resource="http://purl.org/dc/dcmitype/StillImage" />
        <dc:title></dc:title>
      </cc:Work>
    </rdf:RDF>
  </metadata>
  <g
     transform="translate(0,-902.3622)"
     id="layer1"
     inkscape:groupmode="layer"
     inkscape:label="Ebene 1">
    <g
       transform="translate(0,-100)"
       id="g24522">
      <path
         sodipodi:nodetypes="scssccccccssccccccc"
         inkscape:connector-curvature="0"
         id="path3101-7"
         d="m 70.455377,1009.5374 c -4.537138,1.6057 -4.257647,7.7213 -3.941814,8.467 -1.878128,-3.4403 -8.021818,-6.7654 -12.194975,-2.1312 -2.239096,2.4865 -3.311443,8.3582 1.720907,11.0293 2.345117,1.2448 3.965852,0.3159 4.745616,0.5288 -0.04572,2.3203 -0.230748,6.2769 -0.20716,8.4166 6.77466,-0.5857 7.166329,-1.003 10.516058,-0.2465 5.13507,0.1454 12.683647,-0.8835 17.773234,-0.4929 -0.08604,-4.6578 -0.09648,-8.8765 0.191699,-11.5567 -3.212137,-0.227 -6.825571,-0.217 -10.461287,-0.1096 4.229086,-3.833 4.628927,-10.6136 -1.108689,-13.9083 -1.399266,-0.8035 -5.074819,-0.6897 -7.033589,0 z m 26.216756,14.1787 c -0.813574,0.5501 -2.104723,2.3472 -3.368425,2.8755 -1.144867,0.4755 -2.874278,-3e-4 -4.08045,0.4655 l 0.191699,4.5186 c 1.468822,-0.093 2.968231,-0.2843 3.861365,0.3013 1.882113,1.234 2.128372,2.4826 3.368425,3.5053 -0.0243,-2.858 0.108315,-7.8692 0.02739,-11.6662 z"
         style="fill:#666666;stroke:#000000;stroke-width:1.75267637;stroke-linecap:butt;stroke-linejoin:miter;stroke-miterlimit:4;stroke-opacity:1;stroke-dasharray:none" />
      <rect
         style="opacity:0.57096773;fill:#00ff00;fill-opacity:1;stroke:none"
         id="rect4074"
         width="24.000002"
         height="14.250001"
         x="55.750004"
         y="30.75"
         transform="translate(0,1002.3622)" />
      <rect
         transform="translate(0,1002.3622)"
         y="30.75"
         x="55.750004"
         height="14.250001"
         width="24.000002"
         id="rect4072"
         style="fill:none;stroke:#000000;stroke-width:1;stroke-linecap:butt;stroke-miterlimit:4;stroke-opacity:1;stroke-dasharray:1, 1;stroke-dashoffset:0" />
    </g>
    <g
       transform="translate(0,-100)"
       id="g24527">
      <path
         sodipodi:nodetypes="scssccccccssccccccc"
         inkscape:connector-curvature="0"
         id="path3101-7-2"
         d="m 20.455377,1009.5374 c -4.537138,1.6057 -4.257647,7.7213 -3.941814,8.467 -1.878128,-3.4403 -8.0218179,-6.7654 -12.1949749,-2.1312 -2.239096,2.4865 -3.311443,8.3582 1.720907,11.0293 2.345117,1.2448 3.9658519,0.3159 4.7456159,0.5288 -0.04572,2.3203 -0.230748,6.2769 -0.20716,8.4166 6.77466,-0.5857 7.166329,-1.003 10.516058,-0.2465 5.13507,0.1454 12.683647,-0.8835 17.773234,-0.4929 -0.08604,-4.6578 -0.09648,-8.8765 0.191699,-11.5567 -3.212137,-0.227 -6.825571,-0.217 -10.461287,-0.1096 4.229086,-3.833 4.628927,-10.6136 -1.108689,-13.9083 -1.399266,-0.8035 -5.074819,-0.6897 -7.033589,0 z m 26.216756,14.1787 c -0.813574,0.5501 -2.104723,2.3472 -3.368425,2.8755 -1.144867,0.4755 -2.874278,-3e-4 -4.08045,0.4655 l 0.191699,4.5186 c 1.468822,-0.093 2.968231,-0.2843 3.861365,0.3013 1.882113,1.234 2.128372,2.4826 3.368425,3.5053 -0.0243,-2.858 0.108315,-7.8692 0.02739,-11.6662 z"
         style="fill:#666666;stroke:#000000;stroke-width:1.75267637;stroke-linecap:butt;stroke-linejoin:miter;stroke-miterlimit:4;stroke-opacity:1;stroke-dasharray:none" />
      <g
         transform="matrix(0.83516483,0,0,0.83516483,-12.456045,173.99515)"
         id="g4041">
        <path
           transform="translate(0,1002.3622)"
           d="m 43.75,34.25 c 0,6.006097 -4.868903,10.875 -10.875,10.875 C 26.868903,45.125 22,40.256097 22,34.25 c 0,-6.006097 4.868903,-10.875 10.875,-10.875 6.006097,0 10.875,4.868903 10.875,10.875 z"
           sodipodi:ry="10.875"
           sodipodi:rx="10.875"
           sodipodi:cy="34.25"
           sodipodi:cx="32.875"
           id="path4039"
           style="opacity:0.57096773;fill:#00ff00;fill-opacity:1;stroke:none"
           sodipodi:type="arc" />
        <path
           sodipodi:type="arc"
           style="fill:none;stroke:#000000;stroke-width:1;stroke-linecap:butt;stroke-miterlimit:4;stroke-opacity:1;stroke-dasharray:1, 1;stroke-dashoffset:0"
           id="path4037"
           sodipodi:cx="32.875"
           sodipodi:cy="34.25"
           sodipodi:rx="10.875"
           sodipodi:ry="10.875"
           d="m 43.75,34.25 c 0,6.006097 -4.868903,10.875 -10.875,10.875 C 26.868903,45.125 22,40.256097 22,34.25 c 0,-6.006097 4.868903,-10.875 10.875,-10.875 6.006097,0 10.875,4.868903 10.875,10.875 z"
           transform="translate(0,1002.3622)" />
      </g>
    </g>
    <g
       transform="translate(0,-100)"
       id="g24512">
      <path
         style="fill:#ffffff;stroke:none"
         d="m 101.875,1035.4872 c 0.16806,-5.0884 1.98674,-10.0357 2.125,-15.125 0.13287,-4.891 -1.25,-14.625 -1.25,-14.625 0,0 10.24472,0.7613 15.375,1 4.45527,0.2073 10.50067,0.543 13.375,0.375 3.99514,-0.2334 15,-1.25 15,-1.25 0,0 1.66371,19.3218 1.5,29 -0.0743,4.3904 -1.125,13.125 -1.125,13.125 0,0 -11.42166,-0.1173 -17.125,0.125 -3.75794,0.1597 -7.48897,0.9224 -11.25,0.875 -5.27745,-0.067 -15.75,-1.625 -15.75,-1.625 0,0 -1.00602,-7.9081 -0.875,-11.875 z"
         id="path6317"
         inkscape:connector-curvature="0"
         sodipodi:nodetypes="sscsscscsscs" />
      <path
         sodipodi:nodetypes="ccccccc"
         inkscape:connector-curvature="0"
         id="path6290"
         d="m 102.625,1034.9872 21.5,0.25 8.875,-0.75 14.5,1 -0.375,12.875 c 0,0 -33.625,0.5 -44.25,-1 z"
         style="fill:#5f8dd3;stroke:none" />
      <path
         sodipodi:nodetypes="ccccccccc"
         inkscape:connector-curvature="0"
         id="path6311"
         d="m 127.125,1012.7372 6.875,9.375 7.25,13.25 -11.875,-0.875 -6.5,0.5 -5.75,-6.75 3.875,-6.375 4.75,-7.625 z"
         style="fill:#162d50;stroke:none" />
      <path
         inkscape:connector-curvature="0"
         id="path6313"
         d="m 112.37437,1023.9012 10.87177,10.9601 -17.32412,-0.2652 z"
         style="fill:#214478;stroke:none" />
      <path
         inkscape:connector-curvature="0"
         id="path5505"
         d="m 101.41421,1035.2149 c 6.32669,-0.7894 12.71916,0.1857 19.07866,-0.1501 6.87944,-0.065 13.82264,-1.2572 20.63148,0.074 2.54213,0.2749 5.15217,-0.1902 7.66602,0.2528"
         style="fill:none;stroke:#000000;stroke-width:2;stroke-linecap:butt;stroke-linejoin:miter;stroke-miterlimit:4;stroke-opacity:1;stroke-dasharray:none" />
      <path
         sodipodi:nodetypes="cccc"
         inkscape:connector-curvature="0"
         id="path5507"
         d="m 105.3033,1034.8613 c 3.31485,-3.0277 4.66778,-8.0379 7.20648,-11.1857 3.70861,3.5451 7.55932,6.7284 10.13242,10.5866 0.25857,0.3412 0.49008,0.7297 0.8691,0.9527"
         style="fill:none;stroke:#000000;stroke-width:2;stroke-linecap:butt;stroke-linejoin:miter;stroke-miterlimit:4;stroke-opacity:1;stroke-dasharray:none" />
      <path
         sodipodi:nodetypes="cscsc"
         inkscape:connector-curvature="0"
         id="path5509"
         d="m 117.14734,1027.7902 c 0.89321,-1.6927 2.28315,-3.0765 2.996,-4.8774 1.97894,-4.9996 5.48822,-8.5695 7.35373,-10.4312 2.60776,4.2587 3.34966,5.6193 6.68835,9.9598 0.68266,0.8875 6.21017,11.4847 6.82677,12.4199"
         style="fill:none;stroke:#000000;stroke-width:2;stroke-linecap:butt;stroke-linejoin:miter;stroke-miterlimit:4;stroke-opacity:1;stroke-dasharray:none" />
      <path
         sodipodi:nodetypes="sscsscscsscs"
         inkscape:connector-curvature="0"
         id="path6315"
         d="m 101.875,1035.4872 c 0.16806,-5.0884 1.98674,-10.0357 2.125,-15.125 0.13287,-4.891 -1.25,-14.625 -1.25,-14.625 0,0 10.24472,0.7613 15.375,1 4.45527,0.2073 10.50067,0.543 13.375,0.375 3.99514,-0.2334 15,-1.25 15,-1.25 0,0 1.66371,19.3218 1.5,29 -0.0743,4.3904 -1.125,13.125 -1.125,13.125 0,0 -11.42166,-0.1173 -17.125,0.125 -3.75794,0.1597 -7.48897,0.9224 -11.25,0.875 -5.27745,-0.067 -15.75,-1.625 -15.75,-1.625 0,0 -1.00602,-7.9081 -0.875,-11.875 z"
         style="fill:none;stroke:#000000;stroke-width:2;stroke-linecap:butt;stroke-linejoin:miter;stroke-miterlimit:4;stroke-opacity:1;stroke-dasharray:none" />
    </g>
    <path
       style="fill:#ffffff;fill-opacity:1;stroke:none"
       d="m 21.269795,974.3483 c 1.51199,-0.1546 2.24859,-2.8046 -0.11825,-3.0015 -2.35894,-0.1963 -1.82241,3.1999 0.11825,3.0015 z"
       id="path4361"
       inkscape:connector-curvature="0"
       sodipodi:nodetypes="sss" />
    <path
       style="fill:#ffffff;fill-opacity:1;stroke:#000000;stroke-width:2;stroke-miterlimit:4;stroke-opacity:1"
       d="m 47.826235,971.4103 c 2.4862,8.3258 -7.13184,18.1708 -19.41048,19.8704 -4.51077,0.6244 -8.87843,0.4809 -12.6939,-0.3577 l -8.8144196,5.7525 1.22422,-8.8555 c -2.76998,-1.8818 -4.65276,-4.4199 -5.22299,-7.5388 -1.5585301,-8.5245 6.86595,-18.2939 19.4104796,-19.8705 12.52865,-1.5746 23.07356,2.85 25.50709,10.9996 z"
       id="path3068"
       inkscape:connector-curvature="0"
       sodipodi:nodetypes="sscccsss" />
    <path
       style="fill:none;stroke:#000000;stroke-width:2;stroke-linecap:round;stroke-linejoin:miter;stroke-miterlimit:4;stroke-opacity:1;stroke-dasharray:none"
       d="m 10.749995,974.7372 c 0.38646,-2.492 2.13175,-3.0917 3.23943,-0.9735 1.36548,-0.048 2.85679,-4.2067 2.97174,-0.8902 0.35149,2.5162 2.25215,0.2159 3.02755,1.1506 0.81232,-2.0157 1.94035,-3.7395 3.31841,-1.1106 1.51253,-0.9554 2.65574,-3.2885 4.69272,-1.9269 2.05732,-2.2703 4.37801,1.4068 6.27331,-1.5523 1.24109,-1.0226 3.23942,0.1857 3.97684,-1.6971"
       id="path3853"
       inkscape:connector-curvature="0" />
    <path
       style="fill:none;stroke:#000000;stroke-width:2;stroke-linecap:round;stroke-linejoin:miter;stroke-miterlimit:4;stroke-opacity:1;stroke-dasharray:none"
       d="m 10.818475,984.4739 c 1.10209,-1.9174 2.71394,-5.1514 4.8088,-2.1946 2.14003,0.3507 4.21775,-1.8423 5.93247,0.08 1.65669,-0.9223 2.5591,-5.0619 4.10751,-1.9101 2.17416,0.5209 3.95421,-1.2511 5.56755,-0.8549 0.67427,-1.5489 1.78617,-1.0566 2.20206,-1.0529 2.31701,-1.4844 5.40935,-0.4454 7.99464,-1.7904"
       id="path3855"
       inkscape:connector-curvature="0" />
    <path
       style="fill:#ffffff;fill-opacity:1;fill-rule:nonzero;stroke:none"
       d="m 116.31271,975.8191 c 7.24518,7.0331 9.0548,11.09 11.11548,24.7753 5.39449,-7.5182 6.61989,-13.6563 8.18351,-24.7665 l 0.42417,-4.2775 -19.91085,0.1472 z"
       id="path3058-7"
       inkscape:connector-curvature="0"
       sodipodi:nodetypes="cccccc" />
    <path
       style="fill:#ffffff;fill-opacity:1;stroke:#000000;stroke-width:2;stroke-miterlimit:4;stroke-opacity:1"
       d="m 97.826235,971.4103 c 2.486195,8.3258 -7.13184,18.1708 -19.41048,19.8704 -4.51077,0.6244 -8.87843,0.4809 -12.6939,-0.3577 l -8.81442,5.7525 1.22422,-8.8555 c -2.76998,-1.8818 -4.65276,-4.4199 -5.22299,-7.5388 -1.55853,-8.5246 6.86595,-18.2939 19.41048,-19.8705 12.52865,-1.5746 23.07356,2.85 25.50709,10.9996 z"
       id="path3068-9"
       inkscape:connector-curvature="0"
       sodipodi:nodetypes="sscccsss" />
    <path
       style="fill:none;stroke:#000000;stroke-width:2;stroke-linecap:round;stroke-linejoin:miter;stroke-miterlimit:4;stroke-opacity:1;stroke-dasharray:none"
       d="m 60.749995,974.7372 c 0.38646,-2.492 2.13175,-3.0917 3.23943,-0.9735 1.36548,-0.048 2.85679,-4.2067 2.97174,-0.8902 0.35149,2.5162 2.25215,0.2159 3.02755,1.1506 0.81232,-2.0157 1.94035,-3.7395 3.31841,-1.1106 1.51253,-0.9554 2.65574,-3.2885 4.69272,-1.9269 2.05732,-2.2703 4.37801,1.4068 6.27331,-1.5523 1.24109,-1.0226 3.23942,0.1857 3.97684,-1.6971"
       id="path3853-2"
       inkscape:connector-curvature="0" />
    <path
       style="fill:none;stroke:#000000;stroke-width:2;stroke-linecap:round;stroke-linejoin:miter;stroke-miterlimit:4;stroke-opacity:1;stroke-dasharray:none"
       d="m 60.818475,984.4739 c 1.10209,-1.9174 2.71394,-5.1514 4.8088,-2.1946 2.14003,0.3507 4.21775,-1.8423 5.93247,0.08 1.65669,-0.9223 2.5591,-5.0619 4.10751,-1.9101 2.17416,0.5209 3.95421,-1.2511 5.56755,-0.8549 0.67427,-1.5489 1.78617,-1.0566 2.20206,-1.0529 2.31701,-1.4844 5.40935,-0.4454 7.99464,-1.7904"
       id="path3855-5"
       inkscape:connector-curvature="0" />
    <rect
       style="opacity:0.59677417;fill:#00ff00;fill-opacity:1;stroke:none"
       id="rect3053"
       width="20.152544"
       height="16.086679"
       x="24.925501"
       y="980.08838" />
    <rect
       y="980.08838"
       x="24.925501"
       height="16.086679"
       width="20.152544"
       id="rect3823"
       style="fill:none;stroke:#000000;stroke-width:1;stroke-miterlimit:4;stroke-opacity:1;stroke-dasharray:1, 1;stroke-dashoffset:0" />
    <g
       id="g3930"
       transform="matrix(0.79456193,0,0,0.79456193,15.533605,161.86784)">
      <path
         transform="matrix(0.76173576,0,0,0.76173576,19.933494,1014.7693)"
         d="m 97.5,35.75 c 0,5.79899 -4.70101,10.5 -10.5,10.5 -5.79899,0 -10.5,-4.70101 -10.5,-10.5 0,-5.79899 4.70101,-10.5 10.5,-10.5 5.79899,0 10.5,4.70101 10.5,10.5 z"
         sodipodi:ry="10.5"
         sodipodi:rx="10.5"
         sodipodi:cy="35.75"
         sodipodi:cx="87"
         id="path3843"
         style="fill:#e2e5d9;fill-opacity:1;stroke:none"
         sodipodi:type="arc" />
      <path
         id="path3845"
         transform="translate(0,1002.3622)"
         d="m 88.75,27.71875 -4.96875,0.1875 0,2 1.78125,-0.0625 -0.09375,1.09375 c -1.360647,0.114808 -2.636413,0.519828 -3.75,1.1875 C 81.167525,31.420524 80.25,30.375 80.25,30.375 l -1.9375,1.34375 1.625,1.8125 c -1.540295,1.579657 -2.5,3.719269 -2.5,6.09375 0,4.8289 3.95228,8.78125 8.78125,8.78125 4.828971,0 8.75,-3.95235 8.75,-8.78125 0,-2.382818 -0.950144,-4.543872 -2.5,-6.125 L 94,32 l -1.59375,-1.46875 -1.6875,1.625 c -1.098106,-0.665755 -2.345287,-1.091708 -3.6875,-1.21875 l 0,-1.03125 1.5625,0.03125 z m -2.53125,4.6875 c 4.005626,0 7.21875,3.21305 7.21875,7.21875 0,4.0056 -3.213124,7.25 -7.21875,7.25 -4.005625,0 -7.25,-3.2444 -7.25,-7.25 0,-4.0057 3.244375,-7.21875 7.25,-7.21875 z m 3.762878,3.247441 c -0.05977,0.03061 -0.113267,0.07341 -0.15625,0.125 -0.923727,0.8394 -0.993791,0.895659 -1.919128,1.752559 -0.311848,0.181284 -0.570842,0.418404 -0.75,0.625 -0.169787,0.195816 -0.328066,0.357038 -0.46875,0.46875 -0.467346,-0.306839 -1.157106,-0.324749 -1.5,0.1875 -0.273138,0.4098 -0.646103,1.06185 -0.1875,1.46875 0.362404,0.3615 0.828082,0.6835 1.34375,0.75 0.482739,-0.1 0.78294,-0.57695 1.03125,-0.96875 0.0848,-0.21755 0.02724,-0.445925 -0.0625,-0.65625 0.246424,-0.187913 0.438577,-0.414785 0.59375,-0.59375 0.19993,-0.2306 0.354501,-0.38925 0.53125,-0.46875 l 0.09375,-0.03125 0.0625,-0.0625 c 0.913529,-0.8461 0.988049,-0.875309 1.919128,-1.721309 0.23829,-0.212427 0.186656,-0.659922 -0.09375,-0.8125 -0.110476,-0.06851 -0.248277,-0.09148 -0.375,-0.0625 -0.02081,-0.0013 -0.04169,-0.0013 -0.0625,0 z"
         style="fill:#800000;fill-opacity:1;stroke:none"
         inkscape:connector-curvature="0"
         sodipodi:nodetypes="cccccccccsssccccccccssssscccccccccccccccccc" />
    </g>
    <path
       style="font-size:medium;font-style:normal;font-variant:normal;font-weight:normal;font-stretch:normal;text-indent:0;text-align:start;text-decoration:none;line-height:normal;letter-spacing:normal;word-spacing:normal;text-transform:none;direction:ltr;block-progression:tb;writing-mode:lr-tb;text-anchor:start;baseline-shift:baseline;color:#000000;fill:#000000;fill-opacity:1;fill-rule:nonzero;stroke:none;stroke-width:2;marker:none;visibility:visible;display:inline;overflow:visible;enable-background:accumulate;font-family:Sans;-inkscape-font-specification:Sans"
       d="m 116.1875,974.8125 a 1.0001,1.0001 0 0 0 -0.5625,1.7187 c 7.16699,6.9572 8.76032,10.59 10.8125,24.2188 a 1.0001,1.0001 0 0 0 1.8125,0.4375 c 5.50297,-7.6694 6.77717,-14.0875 8.34375,-25.2187 a 1.0001,1.0001 0 1 0 -1.96875,-0.2813 c -1.40319,9.9702 -2.64218,15.7432 -6.6875,22.1563 -1.9358,-11.5164 -4.15636,-16.1674 -10.9375,-22.75 a 1.0001,1.0001 0 0 0 -0.8125,-0.2813 z"
       id="path3774"
       inkscape:connector-curvature="0" />
    <path
       style="fill:#ffffff;stroke:#000000;stroke-width:1.2107085;stroke-linecap:butt;stroke-miterlimit:4;stroke-opacity:1;stroke-dashoffset:0"
       d="m 193.34348,980.4291 c 0,4.3367 -7.92893,7.3663 -17.98234,7.3663 -10.05342,0 -18.42429,-3.0296 -18.42429,-7.3663 0,-0.6594 -0.12318,-4.9486 0.0129,-6.1543 0.32275,-1.2879 9.40036,-2.14 17.92525,-2.14 8.97841,0 17.34487,0.1477 18.36889,2.2739 0.20675,0.4292 0.0996,5.5566 0.0996,6.0204 z"
       id="path3982-1-9-1"
       inkscape:connector-curvature="0"
       sodipodi:nodetypes="ssscsss" />
    <path
       sodipodi:type="arc"
       style="fill:#ffffff;stroke:#000000;stroke-width:2;stroke-linecap:butt;stroke-miterlimit:4;stroke-opacity:1;stroke-dasharray:none;stroke-dashoffset:0"
       id="path3982-1-1"
       sodipodi:cx="24.25"
       sodipodi:cy="24.625"
       sodipodi:rx="19.75"
       sodipodi:ry="19.75"
       d="m 44,24.625 a 19.75,19.75 0 1 1 -39.5,0 19.75,19.75 0 1 1 39.5,0 z"
       transform="matrix(0.92168675,0,0,0.39759036,152.7741,964.9465)" />
    <g
       id="g3974-6-7"
       transform="matrix(0.70928786,0,0,0.30596731,157.40955,660.5248)"
       style="fill:#008080;stroke-width:2.81972957;stroke-miterlimit:4;stroke-dasharray:none">
      <path
         sodipodi:nodetypes="sss"
         inkscape:connector-curvature="0"
         id="path4361-1-7"
         d="m 21.269795,1024.3483 c 1.511994,-0.1546 2.248595,-2.8046 -0.118242,-3.0015 -2.358948,-0.1963 -1.822415,3.1999 0.118242,3.0015 z"
         style="fill:#008080;fill-opacity:1;stroke:none" />
      <path
         inkscape:transform-center-y="10.625"
         inkscape:transform-center-x="4.6875"
         sodipodi:nodetypes="csccssc"
         inkscape:connector-curvature="0"
         id="path3964-4-8"
         d="m 27.400388,1028.6741 c 0.601882,2.8479 0.87514,5.965 0.445303,8.7479 -0.398464,2.5798 -1.943106,4.743 -3.659259,6.6699 -3.408262,2.7354 -8.616948,4.4667 -10.775066,2.3716 -1.156999,-1.1548 -1.859365,-4.0154 0.722951,-7.5464 1.282167,-1.7532 4.891227,-2.3343 6.046449,-4.5411 0.907133,-1.7329 2.139365,-4.3057 3.153758,-5.964"
         style="fill:#008080;stroke:#000000;stroke-width:2.81972957;stroke-linecap:butt;stroke-linejoin:miter;stroke-miterlimit:4;stroke-opacity:1;stroke-dasharray:none" />
      <path
         style="fill:#008080;stroke:#000000;stroke-width:2.81972957;stroke-linecap:butt;stroke-linejoin:miter;stroke-miterlimit:4;stroke-opacity:1;stroke-dasharray:none"
         d="m 22.440749,1028.7442 c -2.767299,-0.9027 -5.603417,-2.2246 -7.79856,-3.9883 -2.034924,-1.635 -3.135988,-4.0543 -3.94664,-6.504 -0.664831,-4.3193 0.440159,-9.6958 3.333597,-10.5172 1.578594,-0.4246 4.407158,0.3974 6.173893,4.3993 0.877223,1.987 -0.423983,5.403 0.909509,7.5069 1.047299,1.652 2.659158,4.0056 3.588126,5.7132"
         id="path3970-9-4"
         inkscape:connector-curvature="0"
         sodipodi:nodetypes="csccssc"
         inkscape:transform-center-x="7.2957949"
         inkscape:transform-center-y="-9.0882023" />
      <path
         inkscape:transform-center-y="-2.3420712"
         inkscape:transform-center-x="-11.202837"
         sodipodi:nodetypes="csccssc"
         inkscape:connector-curvature="0"
         id="path3972-1-5"
         d="m 24.859821,1024.414 c 2.165413,-1.9452 4.728272,-3.7404 7.353252,-4.7596 2.433405,-0.9448 5.079112,-0.6887 7.605933,-0.1659 4.073056,1.5839 8.176749,5.2291 7.441398,8.1456 -0.421586,1.5794 -2.547755,3.618 -6.896849,3.1471 -2.159399,-0.2338 -4.467177,-3.0687 -6.955933,-2.9658 -1.954302,0.081 -4.798528,0.3001 -6.741854,0.2508"
         style="fill:#008080;stroke:#000000;stroke-width:2.81972957;stroke-linecap:butt;stroke-linejoin:miter;stroke-miterlimit:4;stroke-opacity:1;stroke-dasharray:none" />
    </g>
    <path
       sodipodi:type="arc"
       style="fill:#000080;fill-opacity:1;stroke:#000000;stroke-width:2;stroke-linecap:butt;stroke-miterlimit:4;stroke-opacity:1;stroke-dasharray:none;stroke-dashoffset:0"
       id="path3980-1-5"
       sodipodi:cx="24.375"
       sodipodi:cy="24.75"
       sodipodi:rx="2.875"
       sodipodi:ry="2.875"
       d="m 27.25,24.75 a 2.875,2.875 0 1 1 -5.75,0 2.875,2.875 0 1 1 5.75,0 z"
       transform="matrix(1,0,0,0.43137255,150.5,964.0607)" />
    <g
       id="g3977"
       transform="matrix(-0.63440936,0.26513918,0.26513918,0.63440936,-84.05734,261.95689)"
       style="stroke-width:2.9087286;stroke-miterlimit:4;stroke-dasharray:none">
      <path
         sodipodi:nodetypes="ccccc"
         inkscape:connector-curvature="0"
         id="rect3002"
         d="m 20.57552,1033.292 3.98892,-1.8621 4.655234,9.9722 c -0.499854,1.546 -2.328684,2.376 -3.988919,1.8621 z"
         style="fill:#c4b1b1;fill-opacity:1;stroke:#000000;stroke-width:2.9087286;stroke-linecap:round;stroke-linejoin:round;stroke-miterlimit:4;stroke-opacity:1;stroke-dasharray:none" />
      <path
         transform="matrix(0.20487294,-0.09563872,0.10841228,0.23223589,-81.674203,1022.6248)"
         d="m 462.85714,199.50504 c 0,18.14649 -28.1421,32.85714 -62.85714,32.85714 -34.71504,0 -62.85714,-14.71065 -62.85714,-32.85714 0,-18.1465 28.1421,-32.85715 62.85714,-32.85715 34.71504,0 62.85714,14.71065 62.85714,32.85715 z"
         sodipodi:ry="32.857143"
         sodipodi:rx="62.857143"
         sodipodi:cy="199.50504"
         sodipodi:cx="400"
         id="path3000"
         style="fill:#1a1a1a;fill-opacity:1;stroke:#000000;stroke-width:12.08333302;stroke-linecap:round;stroke-linejoin:round;stroke-miterlimit:4;stroke-opacity:1;stroke-dasharray:none"
         sodipodi:type="arc" />
      <path
         sodipodi:type="arc"
         style="fill:#000000;fill-opacity:1;stroke:none"
         id="path4471"
         sodipodi:cx="-28.4375"
         sodipodi:cy="-4.5624995"
         sodipodi:rx="9.8125"
         sodipodi:ry="4.1875"
         d="m -18.625,-4.5624995 c 0,2.3126924 -4.393206,4.18749998 -9.8125,4.18749998 -5.419294,0 -9.8125,-1.87480758 -9.8125,-4.18749998 0,-2.3126924 4.393206,-4.1875 9.8125,-4.1875 5.419294,0 9.8125,1.8748076 9.8125,4.1875 z"
         transform="matrix(0.87981859,-0.37289287,0.53726221,1.2300372,46.457998,1026.0318)" />
      <path
         inkscape:connector-curvature="0"
         id="rect2998"
         d="m 5.012549,1016.3207 7.426049,15.9078 c 0.01586,0.039 0.02798,0.077 0.04604,0.1161 1.115534,2.3897 5.693244,2.617 10.218116,0.5047 4.509999,-2.1053 7.265396,-5.7401 6.178945,-8.1301 l 0.0067,0 -7.489922,-16.0445 -16.385937,7.6492 z"
         style="fill:#1a1a1a;fill-opacity:1;stroke:#000000;stroke-width:2.9087286;stroke-linecap:round;stroke-linejoin:round;stroke-miterlimit:4;stroke-opacity:1;stroke-dasharray:none" />
      <path
         sodipodi:nodetypes="ccccc"
         inkscape:connector-curvature="0"
         id="rect4475"
         d="m 17.820622,1012.207 2.737452,-1.2128 6.938338,14.7214 c -0.135795,1.1103 -0.80732,1.8496 -1.7062,2.4316 z"
         inkscape:transform-center-y="0.41867335"
         inkscape:transform-center-x="-12.770283"
         style="fill:#666666;fill-opacity:1;stroke:none" />
      <path
         transform="matrix(0.2168056,-0.10120912,0.10873847,0.23293464,-85.201724,1026.3687)"
         d="m 454.28571,120.21932 c 0,17.75201 -24.62434,32.14286 -55,32.14286 -30.37567,0 -55,-14.39085 -55,-32.14286 0,-17.75201 24.62433,-32.142854 55,-32.142854 30.37566,0 55,14.390844 55,32.142854 z"
         sodipodi:ry="32.142857"
         sodipodi:rx="55"
         sodipodi:cy="120.21932"
         sodipodi:cx="399.28571"
         id="path2996"
         style="fill:#1a1a1a;fill-opacity:1;stroke:#000000;stroke-width:11.72847176;stroke-linecap:round;stroke-linejoin:round;stroke-miterlimit:4;stroke-opacity:1;stroke-dasharray:none"
         sodipodi:type="arc" />
      <path
         transform="matrix(0.69016086,-0.29737545,0.34837527,0.80852329,35.875071,1005.6961)"
         d="m -18.625,-4.5624995 c 0,2.3126924 -4.393206,4.18749998 -9.8125,4.18749998 -5.419294,0 -9.8125,-1.87480758 -9.8125,-4.18749998 0,-2.3126924 4.393206,-4.1875 9.8125,-4.1875 5.419294,0 9.8125,1.8748076 9.8125,4.1875 z"
         sodipodi:ry="4.1875"
         sodipodi:rx="9.8125"
         sodipodi:cy="-4.5624995"
         sodipodi:cx="-28.4375"
         id="path4464"
         style="fill:#666666;fill-opacity:1;stroke:none"
         sodipodi:type="arc" />
    </g>
    <g
       transform="translate(200,-100)"
       id="g25099">
      <path
         sodipodi:nodetypes="sss"
         inkscape:connector-curvature="0"
         id="path4361-3"
         d="m 21.269795,1024.3483 c 1.511994,-0.1546 2.248595,-2.8046 -0.118242,-3.0015 -2.358948,-0.1963 -1.822415,3.1999 0.118242,3.0015 z"
         style="fill:#ffffff;fill-opacity:1;stroke:none" />
      <g
         style="stroke-width:9.00494862;stroke-miterlimit:4;stroke-dasharray:none"
         transform="matrix(0,-0.11105005,0.11105005,0,-67.912303,993.42761)"
         id="g5446">
        <g
           style="stroke-width:9.00494862;stroke-miterlimit:4;stroke-dasharray:none"
           id="g5394">
          <g
             style="stroke-width:9.00494862;stroke-miterlimit:4;stroke-dasharray:none"
             inkscape:transform-center-y="-43.500002"
             inkscape:transform-center-x="-88.000004"
             transform="translate(-330.34523,-190.48978)"
             id="g3990">
            <path
               style="fill:#c8b7b7;stroke:#000000;stroke-width:9.00494862;stroke-linecap:butt;stroke-linejoin:miter;stroke-miterlimit:4;stroke-opacity:1;stroke-dasharray:none"
               d="m 152.90585,142.31735 c -6.18859,3.97029 -11.24707,8.28699 -17.35066,12.38676 -6.05449,4.0668 -12.97957,8.06245 -19.12531,11.99 -6.1221,3.91243 -12.55027,6.88701 -18.747366,10.67954 -5.857476,3.5847 -11.548364,7.42172 -17.337287,11.1161 -6.121892,3.90687 -11.241694,7.48771 -17.287163,11.51183 -6.312001,4.20154 -13.084397,8.65325 -19.396257,12.85499 -5.84284,3.88953 -18.228208,11.98228 -18.228208,11.98228 l 179.431331,0.74704 c 0,0 -1.1775,-1.81677 -2.02086,-2.98222 -0.84336,-1.16544 -2.12941,-2.84307 -3.58306,-5.09036 -1.45365,-2.24728 -3.44386,-4.43732 -5.27474,-7.68284 -1.83087,-3.24552 -3.3947,-7.61062 -5.36973,-11.77078 -1.97504,-4.16016 -2.9631,-8.1749 -4.84922,-13.1661 -1.88612,-4.99119 -4.93499,-10.73778 -6.49913,-16.4764 -1.56414,-5.73863 -1.64538,-11.34916 -2.65447,-17.75161 -1.00909,-6.40245 -2.13399,-15.03084 -2.06117,-18.86485 0,0 -13.52148,6.58698 -19.6467,10.51662 z"
               id="path3904"
               inkscape:connector-curvature="0"
               transform="translate(0,802.3622)"
               sodipodi:nodetypes="sssssssccssssssscs" />
            <path
               sodipodi:nodetypes="ssssssssccssssssssccs"
               inkscape:connector-curvature="0"
               id="path3862"
               d="m 48.795956,1024.2189 c 6.689019,-0.065 13.35337,-0.6389 20.040017,-0.7839 6.289273,-0.1363 12.583777,-0.084 18.875827,-0.081 6.542635,0 13.08592,0.011 19.62743,0.1 6.0528,0.082 12.09947,0.3796 18.15325,0.4006 6.45363,0.022 12.90322,-0.2875 19.35692,-0.2933 6.81956,-0.01 13.63726,0.1677 20.45531,0.2729 6.01121,0.092 12.01992,0.3097 18.03246,0.316 6.58839,0.01 19.76076,-0.305 19.76076,-0.305 5.04868,0 3.6062,6.5349 0,7.0157 0,0 -13.23639,-0.1051 -19.8539,-0.1898 -6.17685,-0.079 -12.35145,-0.2507 -18.52893,-0.2975 -6.5044,-0.049 -13.01027,-0.056 -19.51425,0.018 -6.12509,0.069 -12.24379,0.3576 -18.36936,0.3979 -6.4363,0.042 -12.87204,-0.1245 -19.30838,-0.164 -6.78084,-0.041 -13.564193,-0.2058 -20.342981,-0.077 -6.167441,0.1171 -12.308767,0.7865 -18.478269,0.7726 -6.391614,-0.014 -12.745596,-0.8089 -19.136342,-0.8871 C 43.041679,1030.3542 30,1030.8611 30,1030.8611 l 0,-7.0157 c 0,0 12.528858,0.4337 18.795956,0.3735 z"
               style="fill:#502d16;stroke:#000000;stroke-width:9.00494862;stroke-linecap:butt;stroke-linejoin:miter;stroke-miterlimit:4;stroke-opacity:1;stroke-dasharray:none" />
            <path
               transform="matrix(0.57954545,0,0,0.57954545,13.409091,1015.7713)"
               d="m 30,20 c 0,5.522847 -4.477153,10 -10,10 -5.522847,0 -10,-4.477153 -10,-10 0,-5.522847 4.477153,-10 10,-10 5.522847,0 10,4.477153 10,10 z"
               sodipodi:ry="10"
               sodipodi:rx="10"
               sodipodi:cy="20"
               sodipodi:cx="20"
               id="path3090"
               style="fill:#784421;stroke:#000000;stroke-width:15.53795052;stroke-linecap:square;stroke-linejoin:miter;stroke-miterlimit:4;stroke-opacity:1;stroke-dasharray:none;stroke-dashoffset:0"
               sodipodi:type="arc" />
          </g>
          <g
             style="stroke-width:9.00494862;stroke-miterlimit:4;stroke-dasharray:none"
             id="g5370"
             transform="matrix(-1,0,0,-1,-280.81329,1863.8308)"
             inkscape:transform-center-x="88.000002"
             inkscape:transform-center-y="43.499984">
            <path
               sodipodi:nodetypes="sssssssccssssssscs"
               transform="translate(0,802.3622)"
               inkscape:connector-curvature="0"
               id="path5372"
               d="m 152.90585,142.31735 c -6.18859,3.97029 -11.24707,8.28699 -17.35066,12.38676 -6.05449,4.0668 -12.97957,8.06245 -19.12531,11.99 -6.1221,3.91243 -12.55027,6.88701 -18.747366,10.67954 -5.857476,3.5847 -11.548364,7.42172 -17.337287,11.1161 -6.121892,3.90687 -11.241694,7.48771 -17.287163,11.51183 -6.312001,4.20154 -13.084397,8.65325 -19.396257,12.85499 -5.84284,3.88953 -18.228208,11.98228 -18.228208,11.98228 l 179.431331,0.74704 c 0,0 -1.1775,-1.81677 -2.02086,-2.98222 -0.84336,-1.16544 -2.12941,-2.84307 -3.58306,-5.09036 -1.45365,-2.24728 -3.44386,-4.43732 -5.27474,-7.68284 -1.83087,-3.24552 -3.3947,-7.61062 -5.36973,-11.77078 -1.97504,-4.16016 -2.9631,-8.1749 -4.84922,-13.1661 -1.88612,-4.99119 -4.93499,-10.73778 -6.49913,-16.4764 -1.56414,-5.73863 -1.64538,-11.34916 -2.65447,-17.75161 -1.00909,-6.40245 -2.13399,-15.03084 -2.06117,-18.86485 0,0 -13.52148,6.58698 -19.6467,10.51662 z"
               style="fill:#c8b7b7;stroke:#000000;stroke-width:9.00494862;stroke-linecap:butt;stroke-linejoin:miter;stroke-miterlimit:4;stroke-opacity:1;stroke-dasharray:none" />
            <path
               style="fill:#502d16;stroke:#000000;stroke-width:9.00494862;stroke-linecap:butt;stroke-linejoin:miter;stroke-miterlimit:4;stroke-opacity:1;stroke-dasharray:none"
               d="m 48.795956,1024.2189 c 6.689019,-0.065 13.35337,-0.6389 20.040017,-0.7839 6.289273,-0.1363 12.583777,-0.084 18.875827,-0.081 6.542635,0 13.08592,0.011 19.62743,0.1 6.0528,0.082 12.09947,0.3796 18.15325,0.4006 6.45363,0.022 12.90322,-0.2875 19.35692,-0.2933 6.81956,-0.01 13.63726,0.1677 20.45531,0.2729 6.01121,0.092 12.01992,0.3097 18.03246,0.316 6.58839,0.01 19.76076,-0.305 19.76076,-0.305 5.04868,0 3.6062,6.5349 0,7.0157 0,0 -13.23639,-0.1051 -19.8539,-0.1898 -6.17685,-0.079 -12.35145,-0.2507 -18.52893,-0.2975 -6.5044,-0.049 -13.01027,-0.056 -19.51425,0.018 -6.12509,0.069 -12.24379,0.3576 -18.36936,0.3979 -6.4363,0.042 -12.87204,-0.1245 -19.30838,-0.164 -6.78084,-0.041 -13.564193,-0.2058 -20.342981,-0.077 -6.167441,0.1171 -12.308767,0.7865 -18.478269,0.7726 -6.391614,-0.014 -12.745596,-0.8089 -19.136342,-0.8871 C 43.041679,1030.3542 30,1030.8611 30,1030.8611 l 0,-7.0157 c 0,0 12.528858,0.4337 18.795956,0.3735 z"
               id="path5374"
               inkscape:connector-curvature="0"
               sodipodi:nodetypes="ssssssssccssssssssccs" />
            <path
               sodipodi:type="arc"
               style="fill:#784421;stroke:#000000;stroke-width:15.53795052;stroke-linecap:square;stroke-linejoin:miter;stroke-miterlimit:4;stroke-opacity:1;stroke-dasharray:none;stroke-dashoffset:0"
               id="path5376"
               sodipodi:cx="20"
               sodipodi:cy="20"
               sodipodi:rx="10"
               sodipodi:ry="10"
               d="m 30,20 c 0,5.522847 -4.477153,10 -10,10 -5.522847,0 -10,-4.477153 -10,-10 0,-5.522847 4.477153,-10 10,-10 5.522847,0 10,4.477153 10,10 z"
               transform="matrix(0.57954545,0,0,0.57954545,13.409091,1015.7713)" />
          </g>
          <g
             style="stroke-width:9.00494862;stroke-miterlimit:4;stroke-dasharray:none"
             id="g5378"
             transform="matrix(0,1,-1,0,721.58104,811.90455)"
             inkscape:transform-center-x="-43.500004"
             inkscape:transform-center-y="88.000004">
            <path
               sodipodi:nodetypes="sssssssccssssssscs"
               transform="translate(0,802.3622)"
               inkscape:connector-curvature="0"
               id="path5380"
               d="m 152.90585,142.31735 c -6.18859,3.97029 -11.24707,8.28699 -17.35066,12.38676 -6.05449,4.0668 -12.97957,8.06245 -19.12531,11.99 -6.1221,3.91243 -12.55027,6.88701 -18.747366,10.67954 -5.857476,3.5847 -11.548364,7.42172 -17.337287,11.1161 -6.121892,3.90687 -11.241694,7.48771 -17.287163,11.51183 -6.312001,4.20154 -13.084397,8.65325 -19.396257,12.85499 -5.84284,3.88953 -18.228208,11.98228 -18.228208,11.98228 l 179.431331,0.74704 c 0,0 -1.1775,-1.81677 -2.02086,-2.98222 -0.84336,-1.16544 -2.12941,-2.84307 -3.58306,-5.09036 -1.45365,-2.24728 -3.44386,-4.43732 -5.27474,-7.68284 -1.83087,-3.24552 -3.3947,-7.61062 -5.36973,-11.77078 -1.97504,-4.16016 -2.9631,-8.1749 -4.84922,-13.1661 -1.88612,-4.99119 -4.93499,-10.73778 -6.49913,-16.4764 -1.56414,-5.73863 -1.64538,-11.34916 -2.65447,-17.75161 -1.00909,-6.40245 -2.13399,-15.03084 -2.06117,-18.86485 0,0 -13.52148,6.58698 -19.6467,10.51662 z"
               style="fill:#c8b7b7;stroke:#000000;stroke-width:9.00494862;stroke-linecap:butt;stroke-linejoin:miter;stroke-miterlimit:4;stroke-opacity:1;stroke-dasharray:none" />
            <path
               style="fill:#502d16;stroke:#000000;stroke-width:9.00494862;stroke-linecap:butt;stroke-linejoin:miter;stroke-miterlimit:4;stroke-opacity:1;stroke-dasharray:none"
               d="m 48.795956,1024.2189 c 6.689019,-0.065 13.35337,-0.6389 20.040017,-0.7839 6.289273,-0.1363 12.583777,-0.084 18.875827,-0.081 6.542635,0 13.08592,0.011 19.62743,0.1 6.0528,0.082 12.09947,0.3796 18.15325,0.4006 6.45363,0.022 12.90322,-0.2875 19.35692,-0.2933 6.81956,-0.01 13.63726,0.1677 20.45531,0.2729 6.01121,0.092 12.01992,0.3097 18.03246,0.316 6.58839,0.01 19.76076,-0.305 19.76076,-0.305 5.04868,0 3.6062,6.5349 0,7.0157 0,0 -13.23639,-0.1051 -19.8539,-0.1898 -6.17685,-0.079 -12.35145,-0.2507 -18.52893,-0.2975 -6.5044,-0.049 -13.01027,-0.056 -19.51425,0.018 -6.12509,0.069 -12.24379,0.3576 -18.36936,0.3979 -6.4363,0.042 -12.87204,-0.1245 -19.30838,-0.164 -6.78084,-0.041 -13.564193,-0.2058 -20.342981,-0.077 -6.167441,0.1171 -12.308767,0.7865 -18.478269,0.7726 -6.391614,-0.014 -12.745596,-0.8089 -19.136342,-0.8871 C 43.041679,1030.3542 30,1030.8611 30,1030.8611 l 0,-7.0157 c 0,0 12.528858,0.4337 18.795956,0.3735 z"
               id="path5382"
               inkscape:connector-curvature="0"
               sodipodi:nodetypes="ssssssssccssssssssccs" />
            <path
               sodipodi:type="arc"
               style="fill:#784421;stroke:#000000;stroke-width:15.53795052;stroke-linecap:square;stroke-linejoin:miter;stroke-miterlimit:4;stroke-opacity:1;stroke-dasharray:none;stroke-dashoffset:0"
               id="path5384"
               sodipodi:cx="20"
               sodipodi:cy="20"
               sodipodi:rx="10"
               sodipodi:ry="10"
               d="m 30,20 c 0,5.522847 -4.477153,10 -10,10 -5.522847,0 -10,-4.477153 -10,-10 0,-5.522847 4.477153,-10 10,-10 5.522847,0 10,4.477153 10,10 z"
               transform="matrix(0.57954545,0,0,0.57954545,13.409091,1015.7713)" />
          </g>
          <g
             style="stroke-width:9.00494862;stroke-miterlimit:4;stroke-dasharray:none"
             inkscape:transform-center-y="-88.000002"
             inkscape:transform-center-x="43.499942"
             transform="matrix(0,-1,1,0,-1332.7395,861.43649)"
             id="g5386">
            <path
               style="fill:#c8b7b7;stroke:#000000;stroke-width:9.00494862;stroke-linecap:butt;stroke-linejoin:miter;stroke-miterlimit:4;stroke-opacity:1;stroke-dasharray:none"
               d="m 152.90585,142.31735 c -6.18859,3.97029 -11.24707,8.28699 -17.35066,12.38676 -6.05449,4.0668 -12.97957,8.06245 -19.12531,11.99 -6.1221,3.91243 -12.55027,6.88701 -18.747366,10.67954 -5.857476,3.5847 -11.548364,7.42172 -17.337287,11.1161 -6.121892,3.90687 -11.241694,7.48771 -17.287163,11.51183 -6.312001,4.20154 -13.084397,8.65325 -19.396257,12.85499 -5.84284,3.88953 -18.228208,11.98228 -18.228208,11.98228 l 179.431331,0.74704 c 0,0 -1.1775,-1.81677 -2.02086,-2.98222 -0.84336,-1.16544 -2.12941,-2.84307 -3.58306,-5.09036 -1.45365,-2.24728 -3.44386,-4.43732 -5.27474,-7.68284 -1.83087,-3.24552 -3.3947,-7.61062 -5.36973,-11.77078 -1.97504,-4.16016 -2.9631,-8.1749 -4.84922,-13.1661 -1.88612,-4.99119 -4.93499,-10.73778 -6.49913,-16.4764 -1.56414,-5.73863 -1.64538,-11.34916 -2.65447,-17.75161 -1.00909,-6.40245 -2.13399,-15.03084 -2.06117,-18.86485 0,0 -13.52148,6.58698 -19.6467,10.51662 z"
               id="path5388"
               inkscape:connector-curvature="0"
               transform="translate(0,802.3622)"
               sodipodi:nodetypes="sssssssccssssssscs" />
            <path
               sodipodi:nodetypes="ssssssssccssssssssccs"
               inkscape:connector-curvature="0"
               id="path5390"
               d="m 48.795956,1024.2189 c 6.689019,-0.065 13.35337,-0.6389 20.040017,-0.7839 6.289273,-0.1363 12.583777,-0.084 18.875827,-0.081 6.542635,0 13.08592,0.011 19.62743,0.1 6.0528,0.082 12.09947,0.3796 18.15325,0.4006 6.45363,0.022 12.90322,-0.2875 19.35692,-0.2933 6.81956,-0.01 13.63726,0.1677 20.45531,0.2729 6.01121,0.092 12.01992,0.3097 18.03246,0.316 6.58839,0.01 19.76076,-0.305 19.76076,-0.305 5.04868,0 3.6062,6.5349 0,7.0157 0,0 -13.23639,-0.1051 -19.8539,-0.1898 -6.17685,-0.079 -12.35145,-0.2507 -18.52893,-0.2975 -6.5044,-0.049 -13.01027,-0.056 -19.51425,0.018 -6.12509,0.069 -12.24379,0.3576 -18.36936,0.3979 -6.4363,0.042 -12.87204,-0.1245 -19.30838,-0.164 -6.78084,-0.041 -13.564193,-0.2058 -20.342981,-0.077 -6.167441,0.1171 -12.308767,0.7865 -18.478269,0.7726 -6.391614,-0.014 -12.745596,-0.8089 -19.136342,-0.8871 C 43.041679,1030.3542 30,1030.8611 30,1030.8611 l 0,-7.0157 c 0,0 12.528858,0.4337 18.795956,0.3735 z"
               style="fill:#502d16;stroke:#000000;stroke-width:9.00494862;stroke-linecap:butt;stroke-linejoin:miter;stroke-miterlimit:4;stroke-opacity:1;stroke-dasharray:none" />
            <path
               transform="matrix(0.57954545,0,0,0.57954545,13.409091,1015.7713)"
               d="m 30,20 c 0,5.522847 -4.477153,10 -10,10 -5.522847,0 -10,-4.477153 -10,-10 0,-5.522847 4.477153,-10 10,-10 5.522847,0 10,4.477153 10,10 z"
               sodipodi:ry="10"
               sodipodi:rx="10"
               sodipodi:cy="20"
               sodipodi:cx="20"
               id="path5392"
               style="fill:#784421;stroke:#000000;stroke-width:15.53795052;stroke-linecap:square;stroke-linejoin:miter;stroke-miterlimit:4;stroke-opacity:1;stroke-dasharray:none;stroke-dashoffset:0"
               sodipodi:type="arc" />
          </g>
        </g>
        <g
           style="stroke-width:9.00494862;stroke-miterlimit:4;stroke-dasharray:none"
           id="g5412"
           transform="matrix(0.70710678,-0.70710678,0.70710678,0.70710678,-681.11749,28.977955)">
          <g
             style="stroke-width:9.00494862;stroke-miterlimit:4;stroke-dasharray:none"
             id="g5414"
             transform="translate(-330.34523,-190.48978)"
             inkscape:transform-center-x="-88.000004"
             inkscape:transform-center-y="-43.500002">
            <path
               sodipodi:nodetypes="sssssssccssssssscs"
               transform="translate(0,802.3622)"
               inkscape:connector-curvature="0"
               id="path5416"
               d="m 152.90585,142.31735 c -6.18859,3.97029 -11.24707,8.28699 -17.35066,12.38676 -6.05449,4.0668 -12.97957,8.06245 -19.12531,11.99 -6.1221,3.91243 -12.55027,6.88701 -18.747366,10.67954 -5.857476,3.5847 -11.548364,7.42172 -17.337287,11.1161 -6.121892,3.90687 -11.241694,7.48771 -17.287163,11.51183 -6.312001,4.20154 -13.084397,8.65325 -19.396257,12.85499 -5.84284,3.88953 -18.228208,11.98228 -18.228208,11.98228 l 179.431331,0.74704 c 0,0 -1.1775,-1.81677 -2.02086,-2.98222 -0.84336,-1.16544 -2.12941,-2.84307 -3.58306,-5.09036 -1.45365,-2.24728 -3.44386,-4.43732 -5.27474,-7.68284 -1.83087,-3.24552 -3.3947,-7.61062 -5.36973,-11.77078 -1.97504,-4.16016 -2.9631,-8.1749 -4.84922,-13.1661 -1.88612,-4.99119 -4.93499,-10.73778 -6.49913,-16.4764 -1.56414,-5.73863 -1.64538,-11.34916 -2.65447,-17.75161 -1.00909,-6.40245 -2.13399,-15.03084 -2.06117,-18.86485 0,0 -13.52148,6.58698 -19.6467,10.51662 z"
               style="fill:#c8b7b7;stroke:#000000;stroke-width:9.00494862;stroke-linecap:butt;stroke-linejoin:miter;stroke-miterlimit:4;stroke-opacity:1;stroke-dasharray:none" />
            <path
               style="fill:#502d16;stroke:#000000;stroke-width:9.00494862;stroke-linecap:butt;stroke-linejoin:miter;stroke-miterlimit:4;stroke-opacity:1;stroke-dasharray:none"
               d="m 48.795956,1024.2189 c 6.689019,-0.065 13.35337,-0.6389 20.040017,-0.7839 6.289273,-0.1363 12.583777,-0.084 18.875827,-0.081 6.542635,0 13.08592,0.011 19.62743,0.1 6.0528,0.082 12.09947,0.3796 18.15325,0.4006 6.45363,0.022 12.90322,-0.2875 19.35692,-0.2933 6.81956,-0.01 13.63726,0.1677 20.45531,0.2729 6.01121,0.092 12.01992,0.3097 18.03246,0.316 6.58839,0.01 19.76076,-0.305 19.76076,-0.305 5.04868,0 3.6062,6.5349 0,7.0157 0,0 -13.23639,-0.1051 -19.8539,-0.1898 -6.17685,-0.079 -12.35145,-0.2507 -18.52893,-0.2975 -6.5044,-0.049 -13.01027,-0.056 -19.51425,0.018 -6.12509,0.069 -12.24379,0.3576 -18.36936,0.3979 -6.4363,0.042 -12.87204,-0.1245 -19.30838,-0.164 -6.78084,-0.041 -13.564193,-0.2058 -20.342981,-0.077 -6.167441,0.1171 -12.308767,0.7865 -18.478269,0.7726 -6.391614,-0.014 -12.745596,-0.8089 -19.136342,-0.8871 C 43.041679,1030.3542 30,1030.8611 30,1030.8611 l 0,-7.0157 c 0,0 12.528858,0.4337 18.795956,0.3735 z"
               id="path5418"
               inkscape:connector-curvature="0"
               sodipodi:nodetypes="ssssssssccssssssssccs" />
            <path
               sodipodi:type="arc"
               style="fill:#784421;stroke:#000000;stroke-width:15.53795052;stroke-linecap:square;stroke-linejoin:miter;stroke-miterlimit:4;stroke-opacity:1;stroke-dasharray:none;stroke-dashoffset:0"
               id="path5420"
               sodipodi:cx="20"
               sodipodi:cy="20"
               sodipodi:rx="10"
               sodipodi:ry="10"
               d="m 30,20 c 0,5.522847 -4.477153,10 -10,10 -5.522847,0 -10,-4.477153 -10,-10 0,-5.522847 4.477153,-10 10,-10 5.522847,0 10,4.477153 10,10 z"
               transform="matrix(0.57954545,0,0,0.57954545,13.409091,1015.7713)" />
          </g>
          <g
             style="stroke-width:9.00494862;stroke-miterlimit:4;stroke-dasharray:none"
             inkscape:transform-center-y="43.499984"
             inkscape:transform-center-x="88.000002"
             transform="matrix(-1,0,0,-1,-280.81329,1863.8308)"
             id="g5422">
            <path
               style="fill:#c8b7b7;stroke:#000000;stroke-width:9.00494862;stroke-linecap:butt;stroke-linejoin:miter;stroke-miterlimit:4;stroke-opacity:1;stroke-dasharray:none"
               d="m 152.90585,142.31735 c -6.18859,3.97029 -11.24707,8.28699 -17.35066,12.38676 -6.05449,4.0668 -12.97957,8.06245 -19.12531,11.99 -6.1221,3.91243 -12.55027,6.88701 -18.747366,10.67954 -5.857476,3.5847 -11.548364,7.42172 -17.337287,11.1161 -6.121892,3.90687 -11.241694,7.48771 -17.287163,11.51183 -6.312001,4.20154 -13.084397,8.65325 -19.396257,12.85499 -5.84284,3.88953 -18.228208,11.98228 -18.228208,11.98228 l 179.431331,0.74704 c 0,0 -1.1775,-1.81677 -2.02086,-2.98222 -0.84336,-1.16544 -2.12941,-2.84307 -3.58306,-5.09036 -1.45365,-2.24728 -3.44386,-4.43732 -5.27474,-7.68284 -1.83087,-3.24552 -3.3947,-7.61062 -5.36973,-11.77078 -1.97504,-4.16016 -2.9631,-8.1749 -4.84922,-13.1661 -1.88612,-4.99119 -4.93499,-10.73778 -6.49913,-16.4764 -1.56414,-5.73863 -1.64538,-11.34916 -2.65447,-17.75161 -1.00909,-6.40245 -2.13399,-15.03084 -2.06117,-18.86485 0,0 -13.52148,6.58698 -19.6467,10.51662 z"
               id="path5424"
               inkscape:connector-curvature="0"
               transform="translate(0,802.3622)"
               sodipodi:nodetypes="sssssssccssssssscs" />
            <path
               sodipodi:nodetypes="ssssssssccssssssssccs"
               inkscape:connector-curvature="0"
               id="path5426"
               d="m 48.795956,1024.2189 c 6.689019,-0.065 13.35337,-0.6389 20.040017,-0.7839 6.289273,-0.1363 12.583777,-0.084 18.875827,-0.081 6.542635,0 13.08592,0.011 19.62743,0.1 6.0528,0.082 12.09947,0.3796 18.15325,0.4006 6.45363,0.022 12.90322,-0.2875 19.35692,-0.2933 6.81956,-0.01 13.63726,0.1677 20.45531,0.2729 6.01121,0.092 12.01992,0.3097 18.03246,0.316 6.58839,0.01 19.76076,-0.305 19.76076,-0.305 5.04868,0 3.6062,6.5349 0,7.0157 0,0 -13.23639,-0.1051 -19.8539,-0.1898 -6.17685,-0.079 -12.35145,-0.2507 -18.52893,-0.2975 -6.5044,-0.049 -13.01027,-0.056 -19.51425,0.018 -6.12509,0.069 -12.24379,0.3576 -18.36936,0.3979 -6.4363,0.042 -12.87204,-0.1245 -19.30838,-0.164 -6.78084,-0.041 -13.564193,-0.2058 -20.342981,-0.077 -6.167441,0.1171 -12.308767,0.7865 -18.478269,0.7726 -6.391614,-0.014 -12.745596,-0.8089 -19.136342,-0.8871 C 43.041679,1030.3542 30,1030.8611 30,1030.8611 l 0,-7.0157 c 0,0 12.528858,0.4337 18.795956,0.3735 z"
               style="fill:#502d16;stroke:#000000;stroke-width:9.00494862;stroke-linecap:butt;stroke-linejoin:miter;stroke-miterlimit:4;stroke-opacity:1;stroke-dasharray:none" />
            <path
               transform="matrix(0.57954545,0,0,0.57954545,13.409091,1015.7713)"
               d="m 30,20 c 0,5.522847 -4.477153,10 -10,10 -5.522847,0 -10,-4.477153 -10,-10 0,-5.522847 4.477153,-10 10,-10 5.522847,0 10,4.477153 10,10 z"
               sodipodi:ry="10"
               sodipodi:rx="10"
               sodipodi:cy="20"
               sodipodi:cx="20"
               id="path5428"
               style="fill:#784421;stroke:#000000;stroke-width:15.53795052;stroke-linecap:square;stroke-linejoin:miter;stroke-miterlimit:4;stroke-opacity:1;stroke-dasharray:none;stroke-dashoffset:0"
               sodipodi:type="arc" />
          </g>
          <g
             style="stroke-width:9.00494862;stroke-miterlimit:4;stroke-dasharray:none"
             inkscape:transform-center-y="88.000004"
             inkscape:transform-center-x="-43.500004"
             transform="matrix(0,1,-1,0,721.58104,811.90455)"
             id="g5430">
            <path
               style="fill:#c8b7b7;stroke:#000000;stroke-width:9.00494862;stroke-linecap:butt;stroke-linejoin:miter;stroke-miterlimit:4;stroke-opacity:1;stroke-dasharray:none"
               d="m 152.90585,142.31735 c -6.18859,3.97029 -11.24707,8.28699 -17.35066,12.38676 -6.05449,4.0668 -12.97957,8.06245 -19.12531,11.99 -6.1221,3.91243 -12.55027,6.88701 -18.747366,10.67954 -5.857476,3.5847 -11.548364,7.42172 -17.337287,11.1161 -6.121892,3.90687 -11.241694,7.48771 -17.287163,11.51183 -6.312001,4.20154 -13.084397,8.65325 -19.396257,12.85499 -5.84284,3.88953 -18.228208,11.98228 -18.228208,11.98228 l 179.431331,0.74704 c 0,0 -1.1775,-1.81677 -2.02086,-2.98222 -0.84336,-1.16544 -2.12941,-2.84307 -3.58306,-5.09036 -1.45365,-2.24728 -3.44386,-4.43732 -5.27474,-7.68284 -1.83087,-3.24552 -3.3947,-7.61062 -5.36973,-11.77078 -1.97504,-4.16016 -2.9631,-8.1749 -4.84922,-13.1661 -1.88612,-4.99119 -4.93499,-10.73778 -6.49913,-16.4764 -1.56414,-5.73863 -1.64538,-11.34916 -2.65447,-17.75161 -1.00909,-6.40245 -2.13399,-15.03084 -2.06117,-18.86485 0,0 -13.52148,6.58698 -19.6467,10.51662 z"
               id="path5432"
               inkscape:connector-curvature="0"
               transform="translate(0,802.3622)"
               sodipodi:nodetypes="sssssssccssssssscs" />
            <path
               sodipodi:nodetypes="ssssssssccssssssssccs"
               inkscape:connector-curvature="0"
               id="path5434"
               d="m 48.795956,1024.2189 c 6.689019,-0.065 13.35337,-0.6389 20.040017,-0.7839 6.289273,-0.1363 12.583777,-0.084 18.875827,-0.081 6.542635,0 13.08592,0.011 19.62743,0.1 6.0528,0.082 12.09947,0.3796 18.15325,0.4006 6.45363,0.022 12.90322,-0.2875 19.35692,-0.2933 6.81956,-0.01 13.63726,0.1677 20.45531,0.2729 6.01121,0.092 12.01992,0.3097 18.03246,0.316 6.58839,0.01 19.76076,-0.305 19.76076,-0.305 5.04868,0 3.6062,6.5349 0,7.0157 0,0 -13.23639,-0.1051 -19.8539,-0.1898 -6.17685,-0.079 -12.35145,-0.2507 -18.52893,-0.2975 -6.5044,-0.049 -13.01027,-0.056 -19.51425,0.018 -6.12509,0.069 -12.24379,0.3576 -18.36936,0.3979 -6.4363,0.042 -12.87204,-0.1245 -19.30838,-0.164 -6.78084,-0.041 -13.564193,-0.2058 -20.342981,-0.077 -6.167441,0.1171 -12.308767,0.7865 -18.478269,0.7726 -6.391614,-0.014 -12.745596,-0.8089 -19.136342,-0.8871 C 43.041679,1030.3542 30,1030.8611 30,1030.8611 l 0,-7.0157 c 0,0 12.528858,0.4337 18.795956,0.3735 z"
               style="fill:#502d16;stroke:#000000;stroke-width:9.00494862;stroke-linecap:butt;stroke-linejoin:miter;stroke-miterlimit:4;stroke-opacity:1;stroke-dasharray:none" />
            <path
               transform="matrix(0.57954545,0,0,0.57954545,13.409091,1015.7713)"
               d="m 30,20 c 0,5.522847 -4.477153,10 -10,10 -5.522847,0 -10,-4.477153 -10,-10 0,-5.522847 4.477153,-10 10,-10 5.522847,0 10,4.477153 10,10 z"
               sodipodi:ry="10"
               sodipodi:rx="10"
               sodipodi:cy="20"
               sodipodi:cx="20"
               id="path5436"
               style="fill:#784421;stroke:#000000;stroke-width:15.53795052;stroke-linecap:square;stroke-linejoin:miter;stroke-miterlimit:4;stroke-opacity:1;stroke-dasharray:none;stroke-dashoffset:0"
               sodipodi:type="arc" />
          </g>
          <g
             style="stroke-width:9.00494862;stroke-miterlimit:4;stroke-dasharray:none"
             id="g5438"
             transform="matrix(0,-1,1,0,-1332.7395,861.43649)"
             inkscape:transform-center-x="43.499942"
             inkscape:transform-center-y="-88.000002">
            <path
               sodipodi:nodetypes="sssssssccssssssscs"
               transform="translate(0,802.3622)"
               inkscape:connector-curvature="0"
               id="path5440"
               d="m 152.90585,142.31735 c -6.18859,3.97029 -11.24707,8.28699 -17.35066,12.38676 -6.05449,4.0668 -12.97957,8.06245 -19.12531,11.99 -6.1221,3.91243 -12.55027,6.88701 -18.747366,10.67954 -5.857476,3.5847 -11.548364,7.42172 -17.337287,11.1161 -6.121892,3.90687 -11.241694,7.48771 -17.287163,11.51183 -6.312001,4.20154 -13.084397,8.65325 -19.396257,12.85499 -5.84284,3.88953 -18.228208,11.98228 -18.228208,11.98228 l 179.431331,0.74704 c 0,0 -1.1775,-1.81677 -2.02086,-2.98222 -0.84336,-1.16544 -2.12941,-2.84307 -3.58306,-5.09036 -1.45365,-2.24728 -3.44386,-4.43732 -5.27474,-7.68284 -1.83087,-3.24552 -3.3947,-7.61062 -5.36973,-11.77078 -1.97504,-4.16016 -2.9631,-8.1749 -4.84922,-13.1661 -1.88612,-4.99119 -4.93499,-10.73778 -6.49913,-16.4764 -1.56414,-5.73863 -1.64538,-11.34916 -2.65447,-17.75161 -1.00909,-6.40245 -2.13399,-15.03084 -2.06117,-18.86485 0,0 -13.52148,6.58698 -19.6467,10.51662 z"
               style="fill:#c8b7b7;stroke:#000000;stroke-width:9.00494862;stroke-linecap:butt;stroke-linejoin:miter;stroke-miterlimit:4;stroke-opacity:1;stroke-dasharray:none" />
            <path
               style="fill:#502d16;stroke:#000000;stroke-width:9.00494862;stroke-linecap:butt;stroke-linejoin:miter;stroke-miterlimit:4;stroke-opacity:1;stroke-dasharray:none"
               d="m 48.795956,1024.2189 c 6.689019,-0.065 13.35337,-0.6389 20.040017,-0.7839 6.289273,-0.1363 12.583777,-0.084 18.875827,-0.081 6.542635,0 13.08592,0.011 19.62743,0.1 6.0528,0.082 12.09947,0.3796 18.15325,0.4006 6.45363,0.022 12.90322,-0.2875 19.35692,-0.2933 6.81956,-0.01 13.63726,0.1677 20.45531,0.2729 6.01121,0.092 12.01992,0.3097 18.03246,0.316 6.58839,0.01 19.76076,-0.305 19.76076,-0.305 5.04868,0 3.6062,6.5349 0,7.0157 0,0 -13.23639,-0.1051 -19.8539,-0.1898 -6.17685,-0.079 -12.35145,-0.2507 -18.52893,-0.2975 -6.5044,-0.049 -13.01027,-0.056 -19.51425,0.018 -6.12509,0.069 -12.24379,0.3576 -18.36936,0.3979 -6.4363,0.042 -12.87204,-0.1245 -19.30838,-0.164 -6.78084,-0.041 -13.564193,-0.2058 -20.342981,-0.077 -6.167441,0.1171 -12.308767,0.7865 -18.478269,0.7726 -6.391614,-0.014 -12.745596,-0.8089 -19.136342,-0.8871 C 43.041679,1030.3542 30,1030.8611 30,1030.8611 l 0,-7.0157 c 0,0 12.528858,0.4337 18.795956,0.3735 z"
               id="path5442"
               inkscape:connector-curvature="0"
               sodipodi:nodetypes="ssssssssccssssssssccs" />
            <path
               sodipodi:type="arc"
               style="fill:#784421;stroke:#000000;stroke-width:15.53795052;stroke-linecap:square;stroke-linejoin:miter;stroke-miterlimit:4;stroke-opacity:1;stroke-dasharray:none;stroke-dashoffset:0"
               id="path5444"
               sodipodi:cx="20"
               sodipodi:cy="20"
               sodipodi:rx="10"
               sodipodi:ry="10"
               d="m 30,20 c 0,5.522847 -4.477153,10 -10,10 -5.522847,0 -10,-4.477153 -10,-10 0,-5.522847 4.477153,-10 10,-10 5.522847,0 10,4.477153 10,10 z"
               transform="matrix(0.57954545,0,0,0.57954545,13.409091,1015.7713)" />
          </g>
        </g>
      </g>
      <path
         transform="translate(-250,752.3622)"
         d="m 280,275 c 0,2.76142 -2.23858,5 -5,5 -2.76142,0 -5,-2.23858 -5,-5 0,-2.76142 2.23858,-5 5,-5 2.76142,0 5,2.23858 5,5 z"
         sodipodi:ry="5"
         sodipodi:rx="5"
         sodipodi:cy="275"
         sodipodi:cx="275"
         id="path4185-2-6-9-0"
         style="fill:#502d16;fill-opacity:1;stroke:#000000;stroke-width:2;stroke-linecap:square;stroke-linejoin:miter;stroke-miterlimit:4;stroke-opacity:1;stroke-dasharray:none;stroke-dashoffset:0"
         sodipodi:type="arc" />
    </g>
    <g
       id="g18942"
       transform="translate(350.98567,-124.0354)">
      <path
         inkscape:connector-curvature="0"
         id="path18930"
         d="m -140.86586,1135.6609 c 1.34729,22.8856 2.58485,31.6876 2.58485,31.6876 0,0 0.97702,-0.7145 1.23351,-3.9424 0.38499,-4.8451 0.19149,-13.2891 0.19149,-17.7763 0,-7.4766 -4.00985,-9.9689 -4.00985,-9.9689 z"
         style="fill:#ffffff;fill-opacity:1;stroke:#000000;stroke-width:0.91299999;stroke-linejoin:round;stroke-miterlimit:4;stroke-opacity:1;stroke-dasharray:none"
         sodipodi:nodetypes="ccssc" />
      <path
         sodipodi:nodetypes="ccssc"
         style="fill:#ffffff;fill-opacity:1;stroke:#000000;stroke-width:0.9125731;stroke-linejoin:round;stroke-opacity:1"
         d="m -132.51201,1167.7485 c 1.34731,-27.6456 0.22183,-32.2012 1.4358,-31.3341 2.46544,-2.3854 3.8416,6.5881 1.69017,21.3651 -0.57543,3.9523 -0.72207,6.2477 -1.19838,9.0148 -0.42075,2.4444 -1.92759,0.9542 -1.92759,0.9542 z"
         id="path18932"
         inkscape:connector-curvature="0" />
      <path
         sodipodi:nodetypes="ccsc"
         style="fill:#ffffff;fill-opacity:1;stroke:#000000;stroke-width:0.9125731;stroke-linejoin:round;stroke-opacity:1"
         d="m -124.15815,1136.5955 c -0.27155,26.4086 1.88949,31.3701 2.67324,31.776 0,0 1.31327,-14.3304 1.33661,-21.8071 0.0234,-7.5 -2.30117,-11.6776 -4.00985,-9.9689 z"
         id="path18934"
         inkscape:connector-curvature="0" />
      <path
         sodipodi:nodetypes="cscsc"
         inkscape:connector-curvature="0"
         id="path18936"
         d="m -113.67001,1136.1071 c 1.7463,13.5906 2.99041,20.7985 1.76869,26.7991 -0.85296,4.1894 -2.43699,4.9769 -2.43699,4.9769 0,0 -0.76327,-14.6997 -0.43551,-21.9172 0.45399,-9.9972 1.09682,-9.8868 1.10381,-9.8588 z"
         style="fill:#ffffff;fill-opacity:1;stroke:#000000;stroke-width:0.9125731;stroke-linejoin:round;stroke-opacity:1" />
      <path
         sodipodi:nodetypes="ccsc"
         style="fill:#ffffff;fill-opacity:1;stroke:#000000;stroke-width:0.9125731;stroke-linejoin:round;stroke-opacity:1"
         d="m -104.52252,1140.9999 c -27.9968,8.5271 -44.29176,20.9838 -44.29176,20.9838 0,0 21.21553,-8.8521 28.96774,-10.767 7.75213,-1.9149 15.32402,-10.2168 15.32402,-10.2168 z"
         id="path18938"
         inkscape:connector-curvature="0" />
    </g>
    <g
       id="g16023"
       transform="translate(249.86067,-124.1604)">
      <path
         inkscape:connector-curvature="0"
         id="path16026"
         d="m -140.86586,1135.6609 c 1.67078,27.4145 2.67324,31.776 2.67324,31.776 0,0 1.33661,-14.3304 1.33661,-21.8071 0,-7.4766 -4.00985,-9.9689 -4.00985,-9.9689 z"
         style="fill:#ffffff;fill-opacity:1;stroke:#000000;stroke-width:0.9125731;stroke-linejoin:round;stroke-opacity:1" />
      <path
         sodipodi:nodetypes="ccsc"
         style="fill:#ffffff;fill-opacity:1;stroke:#000000;stroke-width:0.9125731;stroke-linejoin:round;stroke-opacity:1"
         d="m -132.51201,1167.7485 c 1.67078,-27.4146 2.67324,-31.776 2.67324,-31.776 0.24769,-0.2772 5.03788,10.1895 1.33661,21.807 -2.28341,7.1672 -4.00985,9.969 -4.00985,9.969 z"
         id="path16028"
         inkscape:connector-curvature="0" />
      <path
         sodipodi:nodetypes="ccsc"
         style="fill:#ffffff;fill-opacity:1;stroke:#000000;stroke-width:0.9125731;stroke-linejoin:round;stroke-opacity:1"
         d="m -124.15815,1136.5955 c -0.27155,26.4086 1.88949,31.3701 2.67324,31.776 0,0 1.33661,-14.3304 1.33661,-21.8071 0,-7.4766 -4.00985,-9.9689 -4.00985,-9.9689 z"
         id="path16030"
         inkscape:connector-curvature="0" />
    </g>
    <g
       transform="translate(199.86067,-124.1604)"
       id="g16036">
      <path
         inkscape:connector-curvature="0"
         id="path16040"
         d="m -132.51201,1167.7485 c 1.67078,-27.4146 2.67324,-31.776 2.67324,-31.776 0.24769,-0.2772 5.03788,10.1895 1.33661,21.807 -2.28341,7.1672 -4.00985,9.969 -4.00985,9.969 z"
         style="fill:#ffffff;fill-opacity:1;stroke:#000000;stroke-width:0.9125731;stroke-linejoin:round;stroke-opacity:1"
         sodipodi:nodetypes="ccsc" />
      <path
         style="fill:#ffffff;fill-opacity:1;stroke:#000000;stroke-width:0.9125731;stroke-linejoin:round;stroke-opacity:1"
         d="m -139.12585,1139.0239 c 0.85542,14.036 3.43235,17.3514 2.21063,23.352 -0.85296,4.1894 -2.43699,4.9769 -2.43699,4.9769 0,0 -1.94072,-11.3238 -0.87745,-18.4701 1.10187,-7.4057 1.10381,-9.8588 1.10381,-9.8588 z"
         id="path16044"
         inkscape:connector-curvature="0"
         sodipodi:nodetypes="cscsc" />
    </g>
    <path
       style="fill:#ffffff;fill-opacity:1;stroke:#000000;stroke-width:0.9125731;stroke-linejoin:round;stroke-opacity:1"
       d="m 9.61981,1011.5005 c 1.67078,27.4145 2.67324,31.776 2.67324,31.776 0,0 1.33661,-14.3304 1.33661,-21.8071 0,-7.4766 -4.00985,-9.9689 -4.00985,-9.9689 z"
       id="path16050"
       inkscape:connector-curvature="0" />
    <g
       transform="translate(301.23567,-124.6604)"
       id="g16568">
      <path
         sodipodi:nodetypes="ccssc"
         style="fill:#ffffff;fill-opacity:1;stroke:#000000;stroke-width:0.91299999;stroke-linejoin:round;stroke-miterlimit:4;stroke-opacity:1;stroke-dasharray:none"
         d="m -132.9993,1135.5725 c 1.34729,22.8856 2.58485,31.6876 2.58485,31.6876 0,0 0.97702,-0.7145 1.23351,-3.9424 0.38499,-4.8451 0.19149,-13.2891 0.19149,-17.7763 0,-7.4766 -4.00985,-9.9689 -4.00985,-9.9689 z"
         id="path16570"
         inkscape:connector-curvature="0" />
      <path
         inkscape:connector-curvature="0"
         id="path16572"
         d="m -137.2062,1168.128 c -3.90739,-27.4012 -5.87443,-31.6616 -4.51834,-31.0398 1.96962,-2.8088 5.01865,5.7423 5.70179,20.6595 0.18271,3.9897 0.47299,6.2714 0.5288,9.0787 0.0493,2.4798 -1.71225,1.3016 -1.71225,1.3016 z"
         style="fill:#ffffff;fill-opacity:1;stroke:#000000;stroke-width:0.9125731;stroke-linejoin:round;stroke-opacity:1"
         sodipodi:nodetypes="ccssc" />
      <path
         inkscape:connector-curvature="0"
         id="path16574"
         d="m -124.15815,1136.5955 c -0.27155,26.4086 1.88949,31.3701 2.67324,31.776 0,0 1.31327,-14.3304 1.33661,-21.8071 0.0234,-7.5 -2.30117,-11.6776 -4.00985,-9.9689 z"
         style="fill:#ffffff;fill-opacity:1;stroke:#000000;stroke-width:0.9125731;stroke-linejoin:round;stroke-opacity:1"
         sodipodi:nodetypes="ccsc" />
      <path
         style="fill:#ffffff;fill-opacity:1;stroke:#000000;stroke-width:0.9125731;stroke-linejoin:round;stroke-opacity:1"
         d="m -113.67001,1136.1071 c 1.7463,13.5906 2.99041,20.7985 1.76869,26.7991 -0.85296,4.1894 -2.43699,4.9769 -2.43699,4.9769 0,0 -0.76327,-14.6997 -0.43551,-21.9172 0.45399,-9.9972 1.09682,-9.8868 1.10381,-9.8588 z"
         id="path16576"
         inkscape:connector-curvature="0"
         sodipodi:nodetypes="cscsc" />
    </g>
  </g>
</svg>
