<?xml version="1.0" encoding="UTF-8" standalone="no"?>
<!-- Created with Inkscape (http://www.inkscape.org/) -->

<svg
   xmlns:dc="http://purl.org/dc/elements/1.1/"
   xmlns:cc="http://creativecommons.org/ns#"
   xmlns:rdf="http://www.w3.org/1999/02/22-rdf-syntax-ns#"
   xmlns:svg="http://www.w3.org/2000/svg"
   xmlns="http://www.w3.org/2000/svg"
   xmlns:xlink="http://www.w3.org/1999/xlink"
   xmlns:sodipodi="http://sodipodi.sourceforge.net/DTD/sodipodi-0.dtd"
   xmlns:inkscape="http://www.inkscape.org/namespaces/inkscape"
   inkscape:export-ydpi="90"
   inkscape:export-xdpi="90"
   inkscape:export-filename="/home/micha/Programmieren/git/platformer/images/imitator.png"
   sodipodi:docname="imitator.svg"
   inkscape:version="0.48.2 r9819"
   version="1.1"
   id="svg2"
   height="150"
   width="200">
  <sodipodi:namedview
     id="base"
     pagecolor="#000000"
     bordercolor="#666666"
     borderopacity="1.0"
     inkscape:pageopacity="0.0"
     inkscape:pageshadow="2"
     inkscape:zoom="2"
     inkscape:cx="128.47136"
     inkscape:cy="87.956524"
     inkscape:document-units="px"
     inkscape:current-layer="layer1"
     showgrid="false"
     inkscape:showpageshadow="true"
     inkscape:window-width="1280"
     inkscape:window-height="750"
     inkscape:window-x="0"
     inkscape:window-y="25"
     inkscape:window-maximized="1">
    <inkscape:grid
       originy="0px"
       originx="0px"
       spacingy="10px"
       spacingx="10px"
       snapvisiblegridlinesonly="true"
       enabled="true"
       visible="true"
       empspacing="5"
       id="grid2985"
       type="xygrid" />
  </sodipodi:namedview>
  <defs
     id="defs4">
    <linearGradient
       id="linearGradient3847">
      <stop
         style="stop-color:#ffff00;stop-opacity:1;"
         offset="0"
         id="stop3849" />
      <stop
         style="stop-color:#ffff00;stop-opacity:0;"
         offset="1"
         id="stop3851" />
    </linearGradient>
    <radialGradient
       inkscape:collect="always"
       xlink:href="#linearGradient3847"
       id="radialGradient3853"
       cx="25"
       cy="25"
       fx="25"
       fy="25"
       r="15"
       gradientUnits="userSpaceOnUse" />
    <radialGradient
       inkscape:collect="always"
       xlink:href="#linearGradient3847-4"
       id="radialGradient3853-0"
       cx="25"
       cy="25"
       fx="25"
       fy="25"
       r="15"
       gradientUnits="userSpaceOnUse" />
    <linearGradient
       id="linearGradient3847-4">
      <stop
         style="stop-color:#ffff00;stop-opacity:1;"
         offset="0"
         id="stop3849-1" />
      <stop
         style="stop-color:#ffff00;stop-opacity:0;"
         offset="1"
         id="stop3851-7" />
    </linearGradient>
    <radialGradient
       r="15"
       fy="25"
       fx="25"
       cy="25"
       cx="25"
       gradientUnits="userSpaceOnUse"
       id="radialGradient3889"
       xlink:href="#linearGradient3847-4"
       inkscape:collect="always" />
  </defs>
  <metadata
     id="metadata7">
    <rdf:RDF>
      <cc:Work
         rdf:about="">
        <dc:format>image/svg+xml</dc:format>
        <dc:type
           rdf:resource="http://purl.org/dc/dcmitype/StillImage" />
        <dc:title />
      </cc:Work>
    </rdf:RDF>
  </metadata>
  <g
     transform="translate(0,-902.3622)"
     id="layer1"
     inkscape:groupmode="layer"
     inkscape:label="Ebene 1">
    <g
       transform="translate(-50,0)"
       id="g3429">
      <path
         sodipodi:nodetypes="ccccc"
         inkscape:connector-curvature="0"
         id="path3423"
         d="m 30,1012.4247 c 1.018202,-0.3771 1.392884,-1.4789 1.980995,-2.2889 0.548304,-1.2308 1.103135,-3.0941 1.240897,-3.5916 0.582763,2.1495 0.689808,4.6125 0.432719,6.6092 -0.224652,0.8632 -0.715015,1.7079 -1.404615,2.2718"
         style="fill:#ff0000;stroke:#000000;stroke-width:1px;stroke-linecap:butt;stroke-linejoin:miter;stroke-opacity:1" />
      <path
         inkscape:connector-curvature="0"
         id="path4336-7-3-0"
         d="m 33.64351,1027.4107 c 0.715508,1.7698 2.227956,3.0016 3.256013,4.5584 1.367466,1.8743 -1.192135,3.1444 -2.805612,2.6423 -1.799431,-0.254 -2.62358,-2.0168 -3.475897,-3.3884 -0.202875,-0.2693 -0.443372,-0.513 -0.725041,-0.7002"
         style="fill:#800080;stroke:#000000;stroke-width:0.93000001;stroke-linecap:round;stroke-linejoin:miter;stroke-miterlimit:4;stroke-opacity:1;stroke-dasharray:none" />
      <path
         sodipodi:nodetypes="ccscc"
         inkscape:connector-curvature="0"
         id="path4025-7-2-5-8-9-4-7-8-1-1"
         d="m 32.401613,1035.4649 c 0.04352,1.3618 0.209983,5.3594 0.09193,7.1187 0.04855,0.8798 -1.748754,1.1096 -2.848408,1.0104 -0.797102,-0.072 -1.820259,0.1565 -1.931031,-1.0149 -0.08454,-1.4056 0.413651,-1.7806 -0.179957,-3.1244"
         style="fill:#800080;stroke:#000000;stroke-width:0.93000001;stroke-linecap:butt;stroke-linejoin:miter;stroke-miterlimit:4;stroke-opacity:1;stroke-dasharray:none" />
      <path
         sodipodi:nodetypes="sscssccss"
         inkscape:connector-curvature="0"
         id="path2985-6-6-0-8-7-5-9-7-5"
         d="m 24.515188,1010.6158 c -5.2572,0.044 -10.105859,3.5115 -9.707115,8.2332 0.368758,4.3666 0.259848,3.6874 1.80303,7.2312 -0.0055,1.4562 0.332123,2.9797 0.332123,4.6352 0,5.5771 3.721462,10.0985 8.325859,10.0985 4.604397,0 8.587371,-3.8255 8.456631,-9.4011 -0.0438,-1.867 -0.09255,-3.4254 -0.159833,-4.9548 1.375956,-3.0633 1.481169,-5.9361 1.034413,-8.8383 -1.005976,-6.5349 -5.839472,-7.0397 -10.085108,-7.0039 z"
         style="fill:#800080;stroke:#000000;stroke-width:0.93000001;stroke-miterlimit:4;stroke-opacity:1;stroke-dasharray:none" />
      <path
         sodipodi:nodetypes="csscc"
         inkscape:connector-curvature="0"
         id="path4025-5-4-4-6-7-0-2-3-26"
         d="m 18.266957,1035.9276 c 0.641139,1.1073 0.400948,4.7899 0.396455,6.0884 -0.0064,1.856 1.114932,1.8676 2.489029,1.8385 0.824002,-0.017 2.499964,0.1202 2.51699,-1.3949 0.08454,-1.4057 -0.187687,-1.1505 0.40593,-2.4943"
         style="fill:#800080;stroke:#000000;stroke-width:0.93000001;stroke-linecap:round;stroke-linejoin:miter;stroke-miterlimit:4;stroke-opacity:1;stroke-dasharray:none" />
      <g
         style="stroke-width:2.35648537;stroke-miterlimit:4;stroke-dasharray:none"
         transform="matrix(0.39462959,0,0,0.39462959,-185.24885,932.87187)"
         id="g4319-3-9-1">
        <path
           style="fill:#000000;stroke:#000000;stroke-width:2.35664034;stroke-linecap:butt;stroke-linejoin:miter;stroke-miterlimit:4;stroke-opacity:1;stroke-dasharray:none"
           d="m 526.60758,225.66459 c 1.30376,7.17526 8.90089,4.97545 13.86986,4.54096 5.62963,-0.49226 11.99791,2.60399 13.60797,-3.16891 2.50066,-8.96618 -7.10574,-7.93813 -12.22627,-6.72513 -5.04069,1.19408 -11.83708,-4.38075 -15.28916,1.71943 -0.6144,1.08571 -0.18761,2.3942 0.0376,3.63365 z"
           id="path4029-4-1-1-0-69"
           inkscape:connector-curvature="0"
           sodipodi:nodetypes="ssssss" />
        <path
           style="fill:#ff0000;fill-opacity:1;stroke:#ff0000;stroke-width:2.05121613;stroke-linecap:butt;stroke-linejoin:miter;stroke-miterlimit:4;stroke-opacity:1;stroke-dasharray:none"
           d="m 534.79163,223.66006 c -0.59064,0.27049 -1.0959,0.45531 -1.0883,1.20853 -0.005,0.71731 0.3195,1.50206 1.05833,1.72765 0.78323,0.44034 1.56627,-0.23349 1.91594,-0.9075 0.50579,-0.57716 0.47437,-1.12937 -0.19001,-1.87723 -0.32743,-0.36861 -1.16436,-0.42005 -1.69596,-0.15145 z"
           id="path4057-1-3-8-2-6"
           inkscape:connector-curvature="0"
           sodipodi:nodetypes="ccccsc" />
        <path
           style="fill:#ff0000;fill-opacity:1;stroke:#ff0000;stroke-width:2.08680105;stroke-linecap:butt;stroke-linejoin:miter;stroke-miterlimit:4;stroke-opacity:1;stroke-dasharray:none"
           d="m 547.21449,223.73922 c -1.80654,0.51355 -1.91033,3.01092 0.39052,2.86663 1.67437,-0.10501 1.20599,-3.15557 -0.39052,-2.86663 z"
           id="path4066-9-2-6-8-0"
           inkscape:connector-curvature="0"
           sodipodi:nodetypes="csc" />
      </g>
      <path
         sodipodi:nodetypes="cccccc"
         inkscape:connector-curvature="0"
         id="path4051-8-1-8-8-3-8-0-3-7"
         d="m 16.86735,1026.9019 c -0.772542,0.8672 -1.45753,1.808 -2.237112,2.665 -1.044553,1.4296 -1.547539,3.1751 -1.811637,4.9007 -0.240882,1.8199 1.453378,1.5966 2.577558,1.6639 1.543457,0.1703 2.14701,-1.8611 2.836323,-2.9503 0.552161,-0.5283 0.841571,-1.5673 1.743198,-1.559"
         style="fill:#800080;stroke:#000000;stroke-width:0.93000001;stroke-linecap:round;stroke-linejoin:miter;stroke-miterlimit:4;stroke-opacity:1;stroke-dasharray:none" />
      <path
         sodipodi:nodetypes="cccc"
         inkscape:connector-curvature="0"
         id="path3416"
         d="m 19.25,1014.1122 c -2.252427,-1.995 -3.268508,-5.1879 -4.221781,-7.3091 -0.523185,2.4752 -0.05611,4.6423 0.20919,6.0365 0.438346,1.5205 1.290494,2.595 2.450123,3.6473"
         style="fill:#ff0000;stroke:#000000;stroke-width:1px;stroke-linecap:butt;stroke-linejoin:miter;stroke-opacity:1" />
    </g>
    <path
       style="fill:#800080;stroke:#000000;stroke-width:0.93000000999999999;stroke-linecap:round;stroke-linejoin:miter;stroke-miterlimit:4;stroke-opacity:1;stroke-dasharray:none"
       d="m 33.64351,1027.4107 c 0.715508,1.7698 2.227956,3.0016 3.256013,4.5584 1.367466,1.8743 -1.192135,3.1444 -2.805612,2.6423 -1.799431,-0.254 -2.62358,-2.0168 -3.475897,-3.3884 -0.202875,-0.2693 -0.443372,-0.513 -0.725041,-0.7002"
       id="path4336-7-3-0-1"
       inkscape:connector-curvature="0" />
    <path
       style="fill:#800080;stroke:#000000;stroke-width:0.93000000999999999;stroke-linecap:butt;stroke-linejoin:miter;stroke-miterlimit:4;stroke-opacity:1;stroke-dasharray:none"
       d="m 32.401613,1035.4649 c 0.04352,1.3618 0.209983,5.3594 0.09193,7.1187 0.04855,0.8798 -1.748754,1.1096 -2.848408,1.0104 -0.797102,-0.072 -1.820259,0.1565 -1.931031,-1.0149 -0.08454,-1.4056 0.413651,-1.7806 -0.179957,-3.1244"
       id="path4025-7-2-5-8-9-4-7-8-1-1-9"
       inkscape:connector-curvature="0"
       sodipodi:nodetypes="ccscc" />
    <path
       sodipodi:nodetypes="ccccc"
       inkscape:connector-curvature="0"
       id="path3423-8"
       d="m 30,1012.4247 c 1.018202,-0.3771 1.392884,-1.4789 1.980995,-2.2889 0.548304,-1.2308 1.103135,-3.0941 1.240897,-3.5916 0.582763,2.1495 0.689808,4.6125 0.432719,6.6092 -0.224652,0.8632 -0.715015,1.7079 -1.404615,2.2718"
       style="fill:#ff0000;stroke:#000000;stroke-width:1px;stroke-linecap:butt;stroke-linejoin:miter;stroke-opacity:1" />
    <path
       style="fill:#800080;stroke:#000000;stroke-width:0.93000000999999999;stroke-miterlimit:4;stroke-opacity:1;stroke-dasharray:none"
       d="m 24.515188,1010.6158 c -5.2572,0.044 -10.105859,3.5115 -9.707115,8.2332 0.368758,4.3666 0.259848,3.6874 1.80303,7.2312 -0.0055,1.4562 0.332123,2.9797 0.332123,4.6352 0,5.5771 3.721462,10.0985 8.325859,10.0985 4.604397,0 8.587371,-3.8255 8.456631,-9.4011 -0.0438,-1.867 -0.09255,-3.4254 -0.159833,-4.9548 1.375956,-3.0633 1.481169,-5.9361 1.034413,-8.8383 -1.005976,-6.5349 -5.839472,-7.0397 -10.085108,-7.0039 z"
       id="path2985-6-6-0-8-7-5-9-7-5-6"
       inkscape:connector-curvature="0"
       sodipodi:nodetypes="sscssccss" />
    <path
       sodipodi:nodetypes="cccc"
       inkscape:connector-curvature="0"
       id="path3416-2"
       d="m 19.25,1014.1122 c -2.252427,-1.995 -3.268508,-5.1879 -4.221781,-7.3091 -0.523185,2.4752 -0.05611,4.6423 0.20919,6.0365 0.438346,1.5205 1.290494,2.595 2.450123,3.6473"
       style="fill:#ff0000;stroke:#000000;stroke-width:1px;stroke-linecap:butt;stroke-linejoin:miter;stroke-opacity:1" />
    <path
       style="fill:#800080;stroke:#000000;stroke-width:0.93000000999999999;stroke-linecap:round;stroke-linejoin:miter;stroke-miterlimit:4;stroke-opacity:1;stroke-dasharray:none"
       d="m 18.266957,1035.9276 c 0.641139,1.1073 0.400948,4.7899 0.396455,6.0884 -0.0064,1.856 1.114932,1.8676 2.489029,1.8385 0.824002,-0.017 2.499964,0.1202 2.51699,-1.3949 0.08454,-1.4057 -0.187687,-1.1505 0.40593,-2.4943"
       id="path4025-5-4-4-6-7-0-2-3-26-6"
       inkscape:connector-curvature="0"
       sodipodi:nodetypes="csscc" />
    <path
       style="fill:#000000;stroke:#000000;stroke-width:0.93000001000000021;stroke-linecap:butt;stroke-linejoin:miter;stroke-miterlimit:4;stroke-opacity:1;stroke-dasharray:none"
       d="m 22.566093,1021.9258 c 0.514503,2.8316 3.512555,1.9635 5.473458,1.792 2.221618,-0.1943 4.73473,1.0276 5.370107,-1.2506 0.986835,-3.5383 -2.804135,-3.1326 -4.824848,-2.6539 -1.989205,0.4712 -4.671262,-1.7288 -6.033555,0.6785 -0.24246,0.4285 -0.07404,0.9449 0.01484,1.434 z"
       id="path4029-4-1-1-0-69-3"
       inkscape:connector-curvature="0"
       sodipodi:nodetypes="ssssss" />
    <path
       style="fill:#ff0000;fill-opacity:1;stroke:#ff0000;stroke-width:0.80947058999999999;stroke-linecap:butt;stroke-linejoin:miter;stroke-miterlimit:4;stroke-opacity:1;stroke-dasharray:none"
       d="m 25.795762,1021.1347 c -0.233084,0.1068 -0.432475,0.1797 -0.429476,0.477 -0.002,0.283 0.126084,0.5927 0.417649,0.6818 0.309085,0.1737 0.618096,-0.092 0.756086,-0.3582 0.1996,-0.2277 0.187201,-0.4457 -0.07498,-0.7408 -0.129214,-0.1454 -0.459491,-0.1657 -0.669276,-0.06 z"
       id="path4057-1-3-8-2-6-1"
       inkscape:connector-curvature="0"
       sodipodi:nodetypes="ccccsc" />
    <path
       style="fill:#ff0000;fill-opacity:1;stroke:#ff0000;stroke-width:0.82351344999999998;stroke-linecap:butt;stroke-linejoin:miter;stroke-miterlimit:4;stroke-opacity:1;stroke-dasharray:none"
       d="m 30.69819,1021.166 c -0.712914,0.2026 -0.753873,1.1882 0.154111,1.1312 0.660756,-0.041 0.475919,-1.2452 -0.154111,-1.1312 z"
       id="path4066-9-2-6-8-0-0"
       inkscape:connector-curvature="0"
       sodipodi:nodetypes="csc" />
    <path
       style="fill:#800080;stroke:#000000;stroke-width:0.93000000999999999;stroke-linecap:round;stroke-linejoin:miter;stroke-miterlimit:4;stroke-opacity:1;stroke-dasharray:none"
       d="m 16.86735,1026.9019 c -0.772542,0.8672 -1.45753,1.808 -2.237112,2.665 -1.044553,1.4296 -1.547539,3.1751 -1.811637,4.9007 -0.240882,1.8199 1.453378,1.5966 2.577558,1.6639 1.543457,0.1703 2.14701,-1.8611 2.836323,-2.9503 0.552161,-0.5283 0.841571,-1.5673 1.743198,-1.559"
       id="path4051-8-1-8-8-3-8-0-3-7-7"
       inkscape:connector-curvature="0"
       sodipodi:nodetypes="cccccc" />
    <path
       style="fill:#800080;stroke:#000000;stroke-width:0.93000000999999999;stroke-linecap:butt;stroke-linejoin:miter;stroke-miterlimit:4;stroke-opacity:1;stroke-dasharray:none"
       d="m 80.59174,1032.2665 c 0.75801,1.1322 3.016,4.4352 3.84743,5.9901 0.50706,0.7207 -0.89592,1.8673 -1.88128,2.3654 -0.71431,0.361 -1.46126,1.0966 -2.1755,0.1616 -0.816,-1.1476 -0.59195,-1.7295 -1.80707,-2.5551"
       id="path4025-7-2-5-8-9-4-7-8-1-0-3"
       inkscape:connector-curvature="0"
       sodipodi:nodetypes="ccscc" />
    <path
       sodipodi:nodetypes="ccccc"
       inkscape:connector-curvature="0"
       id="path3423-6"
       d="m 80,1010.9247 c 1.018202,-0.3771 1.392884,-1.4789 1.980995,-2.2889 0.548304,-1.2308 1.103135,-3.0941 1.240897,-3.5916 0.582763,2.1495 0.689808,4.6125 0.432719,6.6092 -0.224652,0.8632 -0.715015,1.7079 -1.404615,2.2718"
       style="fill:#ff0000;stroke:#000000;stroke-width:1px;stroke-linecap:butt;stroke-linejoin:miter;stroke-opacity:1" />
    <path
       style="fill:#800080;stroke:#000000;stroke-width:0.93000000999999999;stroke-miterlimit:4;stroke-opacity:1;stroke-dasharray:none"
       d="m 74.51519,1009.2016 c -5.257202,0.044 -10.105861,3.5115 -9.707117,8.2332 0.368758,4.3666 0.259848,3.6874 1.80303,7.2312 -0.0055,1.4562 0.332123,2.9797 0.332123,4.6352 0,5.5771 3.721464,10.0985 8.325854,10.0985 4.6044,0 8.58738,-3.8255 8.45664,-9.4011 -0.0438,-1.867 -0.0925,-3.4254 -0.15984,-4.9548 1.37596,-3.0633 1.48117,-5.9361 1.03442,-8.8383 -1.00598,-6.5349 -5.83948,-7.0397 -10.08511,-7.0039 z"
       id="path2985-6-6-0-8-7-5-9-7-2-71"
       inkscape:connector-curvature="0"
       sodipodi:nodetypes="sscssccss" />
    <path
       style="fill:#800080;stroke:#000000;stroke-width:0.93000000999999999;stroke-linecap:round;stroke-linejoin:miter;stroke-miterlimit:4;stroke-opacity:1;stroke-dasharray:none"
       d="m 68.074167,1032.7395 c 0.259443,1.253 -1.129243,4.6721 -1.542788,5.903 -0.591076,1.7594 0.469442,2.1238 1.782669,2.5294 0.787359,0.2435 2.334642,0.902 2.828352,-0.5305 0.52331,-1.3074 0.18452,-1.151 1.17143,-2.2392"
       id="path4025-5-4-4-6-7-0-2-3-4-93"
       inkscape:connector-curvature="0"
       sodipodi:nodetypes="csscc" />
    <path
       style="fill:#000000;stroke:#000000;stroke-width:0.93000001000000021;stroke-linecap:butt;stroke-linejoin:miter;stroke-miterlimit:4;stroke-opacity:1;stroke-dasharray:none"
       d="m 72.566083,1020.5116 c 0.514503,2.8315 3.512555,1.9634 5.473458,1.792 2.221618,-0.1943 4.73473,1.0276 5.370107,-1.2506 0.986835,-3.5383 -2.804135,-3.1326 -4.824848,-2.6539 -1.989205,0.4712 -4.671262,-1.7288 -6.033555,0.6785 -0.24246,0.4285 -0.07404,0.9449 0.01484,1.434 z"
       id="path4029-4-1-1-0-0-1"
       inkscape:connector-curvature="0"
       sodipodi:nodetypes="ssssss" />
    <path
       style="fill:#ff0000;fill-opacity:1;stroke:#ff0000;stroke-width:0.80947058999999999;stroke-linecap:butt;stroke-linejoin:miter;stroke-miterlimit:4;stroke-opacity:1;stroke-dasharray:none"
       d="m 75.795752,1019.7205 c -0.233084,0.1068 -0.432475,0.1797 -0.429476,0.4769 -0.002,0.2831 0.126084,0.5928 0.417649,0.6818 0.309085,0.1738 0.618096,-0.092 0.756086,-0.3581 0.1996,-0.2278 0.187201,-0.4457 -0.07498,-0.7408 -0.129214,-0.1455 -0.459491,-0.1658 -0.669276,-0.06 z"
       id="path4057-1-3-8-2-8-7"
       inkscape:connector-curvature="0"
       sodipodi:nodetypes="ccccsc" />
    <path
       style="fill:#ff0000;fill-opacity:1;stroke:#ff0000;stroke-width:0.82351344999999998;stroke-linecap:butt;stroke-linejoin:miter;stroke-miterlimit:4;stroke-opacity:1;stroke-dasharray:none"
       d="m 80.69818,1019.7518 c -0.712914,0.2026 -0.753873,1.1882 0.154111,1.1312 0.660756,-0.041 0.475919,-1.2453 -0.154111,-1.1312 z"
       id="path4066-9-2-6-8-2-3"
       inkscape:connector-curvature="0"
       sodipodi:nodetypes="csc" />
    <path
       style="fill:#800080;stroke:#000000;stroke-width:0.93000000999999999;stroke-linecap:round;stroke-linejoin:miter;stroke-miterlimit:4;stroke-opacity:1;stroke-dasharray:none"
       d="m 67.853665,1029.1568 c 0.552172,1.0217 1.203366,1.9862 1.743551,3.0111 0.988274,1.4691 2.458034,2.5366 3.990464,3.3727 1.629,0.8464 1.9962,-0.8226 2.44242,-1.8566 0.68589,-1.3931 -1.01841,-2.6526 -1.80766,-3.6717 -0.30861,-0.6991 -1.18688,-1.3251 -0.87194,-2.17"
       id="path4051-8-1-8-8-3-8-0-3-0-0"
       inkscape:connector-curvature="0"
       sodipodi:nodetypes="cccccc" />
    <path
       style="fill:#800080;stroke:#000000;stroke-width:0.93000000999999999;stroke-linecap:round;stroke-linejoin:miter;stroke-miterlimit:4;stroke-opacity:1;stroke-dasharray:none"
       d="m 133.12463,1024.7633 c 1.11655,1.5483 2.87892,2.3843 4.24827,3.6514 1.77463,1.4945 -0.40868,3.3379 -2.09532,3.2346 -1.80813,0.182 -3.02852,-1.3337 -4.18307,-2.4627 -0.26119,-0.2132 -0.55283,-0.3926 -0.87098,-0.5073"
       id="path4336-7-3-8-1-79"
       inkscape:connector-curvature="0" />
    <path
       style="fill:#800080;stroke:#000000;stroke-width:0.93000000999999999;stroke-linecap:butt;stroke-linejoin:miter;stroke-miterlimit:4;stroke-opacity:1;stroke-dasharray:none"
       d="m 126.65214,1037.5592 c -0.81065,1.0951 -3.15997,4.3338 -4.34393,5.6404 -0.50769,0.7202 -2.05992,-0.2145 -2.86088,-0.9745 -0.58053,-0.5509 -1.52477,-1.0064 -0.88499,-1.9939 0.80564,-1.1549 1.42902,-1.14 1.79704,-2.5622"
       id="path4025-7-2-5-8-9-4-7-8-1-0-8-9"
       inkscape:connector-curvature="0"
       sodipodi:nodetypes="ccscc" />
    <path
       sodipodi:nodetypes="ccccc"
       inkscape:connector-curvature="0"
       id="path3423-6-5"
       d="m 130,1010.9247 c 1.0182,-0.3771 1.39288,-1.4789 1.98099,-2.2889 0.54831,-1.2308 1.10314,-3.0941 1.2409,-3.5916 0.58277,2.1495 0.68981,4.6125 0.43272,6.6092 -0.22465,0.8632 -0.71501,1.7079 -1.40461,2.2718"
       style="fill:#ff0000;stroke:#000000;stroke-width:1px;stroke-linecap:butt;stroke-linejoin:miter;stroke-opacity:1" />
    <path
       style="fill:#800080;stroke:#000000;stroke-width:0.93000000999999999;stroke-miterlimit:4;stroke-opacity:1;stroke-dasharray:none"
       d="m 124.51518,1009.2016 c -5.2572,0.044 -10.10586,3.5115 -9.70711,8.2332 0.36876,4.3666 0.25985,3.6874 1.80303,7.2312 -0.005,1.4562 0.33212,2.9797 0.33212,4.6352 0,5.5771 3.72146,10.0985 8.32586,10.0985 4.6044,0 8.58737,-3.8255 8.45663,-9.4011 -0.0438,-1.867 -0.0925,-3.4254 -0.15983,-4.9548 1.37595,-3.0633 1.48117,-5.9361 1.03441,-8.8383 -1.00598,-6.5349 -5.83947,-7.0397 -10.08511,-7.0039 z"
       id="path2985-6-6-0-8-7-5-9-7-2-5-0"
       inkscape:connector-curvature="0"
       sodipodi:nodetypes="sscssccss" />
    <path
       style="fill:#800080;stroke:#000000;stroke-width:0.93000000999999999;stroke-linecap:round;stroke-linejoin:miter;stroke-miterlimit:4;stroke-opacity:1;stroke-dasharray:none"
       d="m 121.1414,1037.7327 c 1.11733,0.6235 2.79475,3.9107 3.45513,5.0287 0.94393,1.5981 1.91336,1.0344 3.07919,0.3066 0.69932,-0.4362 2.2096,-1.1756 1.44918,-2.4862 -0.64643,-1.2511 -0.7498,-0.8925 -0.92714,-2.3509"
       id="path4025-5-4-4-6-7-0-2-3-4-9-6"
       inkscape:connector-curvature="0"
       sodipodi:nodetypes="csscc" />
    <path
       style="fill:#000000;stroke:#000000;stroke-width:0.93000001000000021;stroke-linecap:butt;stroke-linejoin:miter;stroke-miterlimit:4;stroke-opacity:1;stroke-dasharray:none"
       d="m 122.5661,1020.5116 c 0.5145,2.8315 3.51255,1.9634 5.47346,1.792 2.22161,-0.1943 4.73473,1.0276 5.3701,-1.2506 0.98684,-3.5383 -2.80413,-3.1326 -4.82484,-2.6539 -1.98921,0.4712 -4.67127,-1.7288 -6.03356,0.6785 -0.24246,0.4285 -0.074,0.9449 0.0148,1.434 z"
       id="path4029-4-1-1-0-0-5-6"
       inkscape:connector-curvature="0"
       sodipodi:nodetypes="ssssss" />
    <path
       style="fill:#ff0000;fill-opacity:1;stroke:#ff0000;stroke-width:0.80947058999999999;stroke-linecap:butt;stroke-linejoin:miter;stroke-miterlimit:4;stroke-opacity:1;stroke-dasharray:none"
       d="m 125.79577,1019.7205 c -0.23309,0.1068 -0.43248,0.1797 -0.42948,0.4769 -0.002,0.2831 0.12609,0.5928 0.41765,0.6818 0.30909,0.1738 0.6181,-0.092 0.75609,-0.3581 0.1996,-0.2278 0.1872,-0.4457 -0.075,-0.7408 -0.12921,-0.1455 -0.45949,-0.1658 -0.66927,-0.06 z"
       id="path4057-1-3-8-2-8-4-8"
       inkscape:connector-curvature="0"
       sodipodi:nodetypes="ccccsc" />
    <path
       style="fill:#ff0000;fill-opacity:1;stroke:#ff0000;stroke-width:0.82351344999999998;stroke-linecap:butt;stroke-linejoin:miter;stroke-miterlimit:4;stroke-opacity:1;stroke-dasharray:none"
       d="m 130.69819,1019.7518 c -0.71291,0.2026 -0.75387,1.1882 0.15412,1.1312 0.66075,-0.041 0.47591,-1.2453 -0.15412,-1.1312 z"
       id="path4066-9-2-6-8-2-7-9"
       inkscape:connector-curvature="0"
       sodipodi:nodetypes="csc" />
    <path
       style="fill:#800080;stroke:#000000;stroke-width:0.93000000999999999;stroke-linecap:round;stroke-linejoin:miter;stroke-miterlimit:4;stroke-opacity:1;stroke-dasharray:none"
       d="m 117.51006,1024.9183 c -0.98261,0.6191 -1.9015,1.3332 -2.88805,1.9406 -1.39982,1.0841 -2.36684,2.6219 -3.09881,4.2067 -0.7358,1.6819 0.95398,1.9369 2.01548,2.3131 1.43581,0.5913 2.57868,-1.1932 3.54285,-2.0488 0.67694,-0.3545 1.24296,-1.2726 2.10697,-1.0148"
       id="path4051-8-1-8-8-3-8-0-3-0-5-3"
       inkscape:connector-curvature="0"
       sodipodi:nodetypes="cccccc" />
    <path
       style="fill:#800080;stroke:#000000;stroke-width:0.93000000999999999;stroke-linecap:round;stroke-linejoin:miter;stroke-miterlimit:4;stroke-opacity:1;stroke-dasharray:none"
       d="m 81.60565,974.31825 c 1.81203,0.6004 3.73001,0.2452 5.58212,0.4696 2.31377,0.1713 1.62468,2.9444 0.19739,3.8489 -1.35857,1.207 -3.23564,0.6939 -4.83276,0.4555 -0.33658,-0.02 -0.67803,0.01 -1.00305,0.099"
       id="path4336-7-3-8-1-7-8"
       inkscape:connector-curvature="0" />
    <path
       style="fill:#800080;stroke:#000000;stroke-width:0.93000000999999999;stroke-linecap:round;stroke-linejoin:miter;stroke-miterlimit:4;stroke-opacity:1;stroke-dasharray:none"
       d="m 33.124649,974.76335 c 1.11655,1.5483 2.87892,2.3843 4.24827,3.6514 1.77463,1.4945 -0.40868,3.3379 -2.09532,3.2346 -1.80813,0.182 -3.02852,-1.3337 -4.18307,-2.4627 -0.26119,-0.2132 -0.55283,-0.3926 -0.87098,-0.5073"
       id="path4336-7-3-8-1-7"
       inkscape:connector-curvature="0" />
    <path
       style="fill:#800080;stroke:#000000;stroke-width:0.93000000999999999;stroke-linecap:butt;stroke-linejoin:miter;stroke-miterlimit:4;stroke-opacity:1;stroke-dasharray:none"
       d="m 30.061419,981.55945 c 0.75801,1.1322 3.016006,4.4352 3.847436,5.9901 0.507051,0.7206 -0.895922,1.8673 -1.881287,2.3654 -0.714308,0.361 -1.461259,1.0966 -2.1755,0.1616 -0.816,-1.1476 -0.591952,-1.7295 -1.807071,-2.5552"
       id="path4025-7-2-5-8-9-4-7-8-1-0-1"
       inkscape:connector-curvature="0"
       sodipodi:nodetypes="ccscc" />
    <path
       sodipodi:nodetypes="ccccc"
       inkscape:connector-curvature="0"
       id="path3423-6-2"
       d="m 30,960.9247 c 1.018202,-0.3771 1.392884,-1.4789 1.980995,-2.2889 0.548304,-1.2308 1.103135,-3.0941 1.240897,-3.5916 0.582763,2.1495 0.689808,4.6125 0.432719,6.6092 -0.224652,0.8632 -0.715015,1.7079 -1.404615,2.2718"
       style="fill:#ff0000;stroke:#000000;stroke-width:1px;stroke-linecap:butt;stroke-linejoin:miter;stroke-opacity:1" />
    <path
       style="fill:#800080;stroke:#000000;stroke-width:0.93000000999999999;stroke-miterlimit:4;stroke-opacity:1;stroke-dasharray:none"
       d="m 24.515198,959.20165 c -5.2572,0.044 -10.105859,3.5115 -9.707115,8.2332 0.368758,4.3666 0.259848,3.6874 1.80303,7.2312 -0.0055,1.4562 0.332123,2.9797 0.332123,4.6352 0,5.5771 3.721462,10.0985 8.325859,10.0985 4.604397,0 8.587371,-3.8255 8.456631,-9.4011 -0.0438,-1.867 -0.09255,-3.4254 -0.159833,-4.9548 1.375956,-3.0633 1.481169,-5.9361 1.034413,-8.8383 -1.005976,-6.5349 -5.839472,-7.0397 -10.085108,-7.0039 z"
       id="path2985-6-6-0-8-7-5-9-7-2-7"
       inkscape:connector-curvature="0"
       sodipodi:nodetypes="sscssccss" />
    <path
       style="fill:#800080;stroke:#000000;stroke-width:0.93000000999999999;stroke-linecap:round;stroke-linejoin:miter;stroke-miterlimit:4;stroke-opacity:1;stroke-dasharray:none"
       d="m 17.8974,982.38595 c 0.259443,1.253 -1.129243,4.6721 -1.542788,5.903 -0.591076,1.7594 0.469442,2.1238 1.782669,2.5293 0.787359,0.2436 2.334647,0.9021 2.828357,-0.5304 0.523301,-1.3074 0.184512,-1.151 1.17143,-2.2392"
       id="path4025-5-4-4-6-7-0-2-3-4-7"
       inkscape:connector-curvature="0"
       sodipodi:nodetypes="csscc" />
    <path
       style="fill:#000000;stroke:#000000;stroke-width:0.93000001000000021;stroke-linecap:butt;stroke-linejoin:miter;stroke-miterlimit:4;stroke-opacity:1;stroke-dasharray:none"
       d="m 22.770179,970.62381 c 1.144848,2.64042 3.86699,1.11338 5.737547,0.50055 2.11926,-0.69431 4.844368,-0.0759 4.945113,-2.43881 0.156469,-3.67002 -3.442962,-2.41298 -5.301907,-1.48738 -1.829962,0.91117 -4.941988,-0.62138 -5.721242,2.03263 -0.138692,0.47236 0.142729,0.93691 0.340489,1.39301 z"
       id="path4029-4-1-1-0-0-8"
       inkscape:connector-curvature="0"
       sodipodi:nodetypes="ssssss" />
    <path
       style="fill:#ff0000;fill-opacity:1;stroke:#ff0000;stroke-width:0.80947058999999999;stroke-linecap:butt;stroke-linejoin:miter;stroke-miterlimit:4;stroke-opacity:1;stroke-dasharray:none"
       d="m 25.735393,969.11915 c -0.202709,0.15694 -0.380293,0.2733 -0.309788,0.56208 0.06244,0.2761 0.257559,0.54856 0.561728,0.56896 0.340501,0.0989 0.580957,-0.23027 0.654855,-0.52066 0.142584,-0.26718 0.08096,-0.47657 -0.24146,-0.70436 -0.158903,-0.11227 -0.485146,-0.0569 -0.665335,0.094 z"
       id="path4057-1-3-8-2-8-5"
       inkscape:connector-curvature="0"
       sodipodi:nodetypes="ccccsc" />
    <path
       style="fill:#ff0000;fill-opacity:1;stroke:#ff0000;stroke-width:0.82351344999999998;stroke-linecap:butt;stroke-linejoin:miter;stroke-miterlimit:4;stroke-opacity:1;stroke-dasharray:none"
       d="m 30.516519,968.03489 c -0.648162,0.35945 -0.463964,1.32849 0.407291,1.06659 0.634027,-0.1906 0.180311,-1.32088 -0.407291,-1.06659 z"
       id="path4066-9-2-6-8-2-5"
       inkscape:connector-curvature="0"
       sodipodi:nodetypes="csc" />
    <path
       style="fill:#800080;stroke:#000000;stroke-width:0.93000000999999999;stroke-linecap:round;stroke-linejoin:miter;stroke-miterlimit:4;stroke-opacity:1;stroke-dasharray:none"
       d="m 17.510079,974.91835 c -0.98261,0.6191 -1.9015,1.3332 -2.88805,1.9406 -1.39982,1.0842 -2.36684,2.6219 -3.09881,4.2067 -0.7358,1.6819 0.95398,1.9369 2.01548,2.3131 1.43581,0.5913 2.57868,-1.1932 3.54285,-2.0487 0.67694,-0.3546 1.24296,-1.2727 2.10697,-1.0149"
       id="path4051-8-1-8-8-3-8-0-3-0-5-1"
       inkscape:connector-curvature="0"
       sodipodi:nodetypes="cccccc" />
    <path
       style="fill:#800080;stroke:#000000;stroke-width:0.93000000999999999;stroke-linecap:butt;stroke-linejoin:miter;stroke-miterlimit:4;stroke-opacity:1;stroke-dasharray:none"
       d="m 80.84851,980.82875 c 0.73445,1.1477 2.92374,4.4966 3.72288,6.0683 0.49208,0.7309 -0.93431,1.8484 -1.92969,2.3261 -0.72166,0.3462 -1.4836,1.0661 -2.17837,0.1166 -0.79212,-1.1642 -0.55615,-1.7413 -1.75392,-2.592"
       id="path4025-7-2-5-8-9-4-7-8-1-0-1-6"
       inkscape:connector-curvature="0"
       sodipodi:nodetypes="ccscc" />
    <path
       sodipodi:nodetypes="ccccc"
       inkscape:connector-curvature="0"
       id="path3423-6-4"
       d="m 80,960.9247 c 1.018202,-0.3771 1.392884,-1.4789 1.980995,-2.2889 0.548304,-1.2308 1.103135,-3.0941 1.240897,-3.5916 0.582763,2.1495 0.689808,4.6125 0.432719,6.6092 -0.224652,0.8632 -0.715015,1.7079 -1.404615,2.2718"
       style="fill:#ff0000;stroke:#000000;stroke-width:1px;stroke-linecap:butt;stroke-linejoin:miter;stroke-opacity:1" />
    <path
       style="fill:#800080;stroke:#000000;stroke-width:0.93000000999999999;stroke-miterlimit:4;stroke-opacity:1;stroke-dasharray:none"
       d="m 74.5152,959.20165 c -5.257202,0.044 -10.105861,3.5115 -9.707117,8.2332 0.368758,4.3666 0.259848,3.6874 1.80303,7.2312 -0.0055,1.4562 0.332123,2.9797 0.332123,4.6352 0,5.5771 3.721464,10.0985 8.325854,10.0985 4.6044,0 8.58738,-3.8255 8.45664,-9.4011 -0.0438,-1.867 -0.0926,-3.4254 -0.15984,-4.9548 1.37596,-3.0633 1.48117,-5.9361 1.03442,-8.8383 -1.00598,-6.5349 -5.83948,-7.0397 -10.08511,-7.0039 z"
       id="path2985-6-6-0-8-7-5-9-7-2-7-9"
       inkscape:connector-curvature="0"
       sodipodi:nodetypes="sscssccss" />
    <path
       style="fill:#800080;stroke:#000000;stroke-width:0.93000000999999999;stroke-linecap:round;stroke-linejoin:miter;stroke-miterlimit:4;stroke-opacity:1;stroke-dasharray:none"
       d="m 67.476169,981.66105 c 0.175604,1.2675 -1.437458,4.5867 -1.931926,5.7874 -0.706796,1.7161 0.32711,2.1503 1.610483,2.6422 0.76941,0.2955 2.269423,1.0554 2.857354,-0.3409 0.60913,-1.2697 0.26071,-1.1362 1.31777,-2.1563"
       id="path4025-5-4-4-6-7-0-2-3-4-7-9"
       inkscape:connector-curvature="0"
       sodipodi:nodetypes="csscc" />
    <path
       style="fill:#800080;stroke:#000000;stroke-width:0.93000000999999999;stroke-linecap:round;stroke-linejoin:miter;stroke-miterlimit:4;stroke-opacity:1;stroke-dasharray:none"
       d="m 131.40597,972.72075 c 1.90751,-0.073 3.57912,-1.0784 5.39231,-1.5177 2.22688,-0.651 2.55401,2.1876 1.53458,3.5353 -0.84904,1.6067 -2.78685,1.7844 -4.36615,2.1212 -0.32212,0.1 -0.63294,0.2432 -0.90454,0.4447"
       id="path4336-7-3-8-1-7-7-8"
       inkscape:connector-curvature="0" />
    <path
       style="fill:#800080;stroke:#000000;stroke-width:0.93000000999999999;stroke-linecap:butt;stroke-linejoin:miter;stroke-miterlimit:4;stroke-opacity:1;stroke-dasharray:none"
       d="m 131.536,980.57875 c 0.73445,1.1477 2.92374,4.4966 3.72289,6.0683 0.49207,0.7309 -0.93432,1.8484 -1.92969,2.3261 -0.72167,0.3462 -1.48361,1.0661 -2.17838,0.1166 -0.79212,-1.1642 -0.55615,-1.7413 -1.75392,-2.592"
       id="path4025-7-2-5-8-9-4-7-8-1-0-1-6-9"
       inkscape:connector-curvature="0"
       sodipodi:nodetypes="ccscc" />
    <path
       sodipodi:nodetypes="ccccc"
       inkscape:connector-curvature="0"
       id="path3423-6-8"
       d="m 130,960.9247 c 1.0182,-0.3771 1.39288,-1.4789 1.98099,-2.2889 0.54831,-1.2308 1.10314,-3.0941 1.2409,-3.5916 0.58277,2.1495 0.68981,4.6125 0.43272,6.6092 -0.22465,0.8632 -0.71501,1.7079 -1.40461,2.2718"
       style="fill:#ff0000;stroke:#000000;stroke-width:1px;stroke-linecap:butt;stroke-linejoin:miter;stroke-opacity:1" />
    <path
       style="fill:#800080;stroke:#000000;stroke-width:0.93000000999999999;stroke-miterlimit:4;stroke-opacity:1;stroke-dasharray:none"
       d="m 124.51519,959.20165 c -5.2572,0.044 -10.10586,3.5115 -9.70712,8.2332 0.36876,4.3666 0.25985,3.6874 1.80303,7.2312 -0.005,1.4562 0.33213,2.9797 0.33213,4.6352 0,5.5771 3.72146,10.0985 8.32586,10.0985 4.60439,0 8.58737,-3.8255 8.45663,-9.4011 -0.0438,-1.867 -0.0925,-3.4254 -0.15984,-4.9548 1.37596,-3.0633 1.48117,-5.9361 1.03442,-8.8383 -1.00598,-6.5349 -5.83948,-7.0397 -10.08511,-7.0039 z"
       id="path2985-6-6-0-8-7-5-9-7-2-7-9-8"
       inkscape:connector-curvature="0"
       sodipodi:nodetypes="sscssccss" />
    <path
       style="fill:#800080;stroke:#000000;stroke-width:0.93000000999999999;stroke-linecap:round;stroke-linejoin:miter;stroke-miterlimit:4;stroke-opacity:1;stroke-dasharray:none"
       d="m 117.69912,980.74755 c 0.006,1.2796 -2.0329,4.3556 -2.68219,5.4801 -0.9281,1.6073 0.0391,2.1747 1.24594,2.8324 0.72344,0.3949 2.10945,1.347 2.87732,0.041 0.7721,-1.1777 0.40905,-1.0916 1.59204,-1.9626"
       id="path4025-5-4-4-6-7-0-2-3-4-7-9-5"
       inkscape:connector-curvature="0"
       sodipodi:nodetypes="csscc" />
    <path
       style="fill:#000000;stroke:#000000;stroke-width:0.93000001000000021;stroke-linecap:butt;stroke-linejoin:miter;stroke-miterlimit:4;stroke-opacity:1;stroke-dasharray:none"
       d="m 121.91006,970.23245 c -0.15686,2.87366 2.96082,2.72521 4.90796,3.01363 2.20603,0.32676 4.36685,2.09864 5.51371,0.0302 1.78125,-3.21259 -2.00034,-3.69799 -4.07698,-3.70146 -2.04425,-0.003 -4.14235,-2.76591 -6.02625,-0.7406 -0.33529,0.36047 -0.29134,0.90183 -0.31844,1.39822 z"
       id="path4029-4-1-1-0-0-8-4-4"
       inkscape:connector-curvature="0"
       sodipodi:nodetypes="ssssss" />
    <path
       style="fill:#ff0000;fill-opacity:1;stroke:#ff0000;stroke-width:0.80947058999999999;stroke-linecap:butt;stroke-linejoin:miter;stroke-miterlimit:4;stroke-opacity:1;stroke-dasharray:none"
       d="m 125.23514,970.21273 c -0.2515,0.0497 -0.46237,0.0744 -0.52845,0.3642 -0.0676,0.27488 -0.015,0.60583 0.24797,0.76011 0.2603,0.24077 0.6226,0.0539 0.81857,-0.17283 0.24702,-0.17521 0.28554,-0.39005 0.099,-0.73798 -0.0919,-0.17149 -0.40846,-0.2679 -0.63712,-0.2135 z"
       id="path4057-1-3-8-2-8-5-8-4"
       inkscape:connector-curvature="0"
       sodipodi:nodetypes="ccccsc" />
    <path
       style="fill:#ff0000;fill-opacity:1;stroke:#ff0000;stroke-width:0.82351344999999998;stroke-linecap:butt;stroke-linejoin:miter;stroke-miterlimit:4;stroke-opacity:1;stroke-dasharray:none"
       d="m 129.9964,971.38115 c -0.74049,0.0316 -1.0091,0.98074 -0.1127,1.13613 0.65232,0.11307 0.75199,-1.10079 0.1127,-1.13613 z"
       id="path4066-9-2-6-8-2-5-7-8"
       inkscape:connector-curvature="0"
       sodipodi:nodetypes="csc" />
    <path
       style="fill:#800080;stroke:#000000;stroke-width:0.93000000999999999;stroke-linecap:round;stroke-linejoin:miter;stroke-miterlimit:4;stroke-opacity:1;stroke-dasharray:none"
       d="m 120.63453,973.92855 c -1.02197,-0.5517 -2.09538,-1.0013 -3.10909,-1.5622 -1.63203,-0.6866 -3.44645,-0.7734 -5.18642,-0.6324 -1.82642,0.1853 -1.21839,1.7824 -1.02458,2.8918 0.19034,1.5411 2.30611,1.6599 3.52492,2.0794 0.64142,0.4154 1.71916,0.4574 1.91908,1.3366"
       id="path4051-8-1-8-8-3-8-0-3-0-5-1-5-1"
       inkscape:connector-curvature="0"
       sodipodi:nodetypes="cccccc" />
    <path
       style="fill:#800080;stroke:#000000;stroke-width:0.93000000999999999;stroke-linecap:round;stroke-linejoin:miter;stroke-miterlimit:4;stroke-opacity:1;stroke-dasharray:none"
       d="m 69.575566,974.05245 c -1.153424,0.1357 -2.290238,0.3846 -3.442181,0.5081 -1.730231,0.3759 -3.265083,1.3474 -4.608064,2.4627 -1.388244,1.2012 0.02711,2.1589 0.823216,2.9555 1.041336,1.1518 2.841163,0.033 4.079724,-0.3238 0.763657,-0.029 1.669812,-0.6135 2.338646,-0.01"
       id="path4051-8-1-8-8-3-8-0-3-0-5-1-8"
       inkscape:connector-curvature="0"
       sodipodi:nodetypes="cccccc" />
    <path
       style="fill:#000000;stroke:#000000;stroke-width:0.93000001000000021;stroke-linecap:butt;stroke-linejoin:miter;stroke-miterlimit:4;stroke-opacity:1;stroke-dasharray:none"
       d="m 72.566093,970.51158 c 0.514503,2.83157 3.512555,1.96346 5.473458,1.792 2.221618,-0.19426 4.73473,1.02761 5.370107,-1.25054 0.986835,-3.53832 -2.804135,-3.13262 -4.824848,-2.65394 -1.989205,0.47122 -4.671262,-1.72877 -6.033555,0.67854 -0.24246,0.42845 -0.07404,0.94482 0.01484,1.43394 z"
       id="path4029-4-1-1-0-0-88"
       inkscape:connector-curvature="0"
       sodipodi:nodetypes="ssssss" />
    <path
       style="fill:#ff0000;fill-opacity:1;stroke:#ff0000;stroke-width:0.80947058999999999;stroke-linecap:butt;stroke-linejoin:miter;stroke-miterlimit:4;stroke-opacity:1;stroke-dasharray:none"
       d="m 75.795762,969.72054 c -0.233084,0.10674 -0.432475,0.17968 -0.429476,0.47692 -0.002,0.28307 0.126084,0.59276 0.417649,0.68178 0.309085,0.17377 0.618096,-0.0921 0.756086,-0.35813 0.1996,-0.22776 0.187201,-0.44568 -0.07498,-0.74081 -0.129214,-0.14546 -0.459491,-0.16576 -0.669276,-0.0598 z"
       id="path4057-1-3-8-2-8-47"
       inkscape:connector-curvature="0"
       sodipodi:nodetypes="ccccsc" />
    <path
       style="fill:#ff0000;fill-opacity:1;stroke:#ff0000;stroke-width:0.82351344999999998;stroke-linecap:butt;stroke-linejoin:miter;stroke-miterlimit:4;stroke-opacity:1;stroke-dasharray:none"
       d="m 80.69819,969.75178 c -0.712914,0.20266 -0.753873,1.18819 0.154111,1.13125 0.660756,-0.0414 0.475919,-1.24528 -0.154111,-1.13125 z"
       id="path4066-9-2-6-8-2-70"
       inkscape:connector-curvature="0"
       sodipodi:nodetypes="csc" />
    <path
       style="fill:#800080;stroke:#000000;stroke-width:0.93000000999999999;stroke-linecap:round;stroke-linejoin:miter;stroke-miterlimit:4;stroke-opacity:1;stroke-dasharray:none"
       d="m 168.48922,926.47885 c -1.456,1.2346 -3.36765,1.6225 -5.00141,2.5232 -2.08184,1.0242 -0.40563,3.3383 1.25638,3.6435 1.71136,0.6113 3.26031,-0.5666 4.6524,-1.3851 0.30478,-0.1441 0.63098,-0.2482 0.96738,-0.283"
       id="path4336-7-3-6"
       inkscape:connector-curvature="0" />
    <path
       style="fill:#800080;stroke:#000000;stroke-width:0.93000000999999999;stroke-linecap:butt;stroke-linejoin:miter;stroke-miterlimit:4;stroke-opacity:1;stroke-dasharray:none"
       d="m 167.09536,933.24235 c -0.77893,1.1179 -3.098,4.3783 -3.95818,5.9176 -0.52042,0.711 0.86102,1.8836 1.83696,2.3999 0.70746,0.3743 1.44059,1.1236 2.17211,0.202 0.83718,-1.1322 0.62403,-1.7182 1.85429,-2.521"
       id="path4025-7-2-5-8-9-4-7-8-1-2"
       inkscape:connector-curvature="0"
       sodipodi:nodetypes="ccscc" />
    <path
       sodipodi:nodetypes="ccccc"
       inkscape:connector-curvature="0"
       id="path3423-6-8-9-8"
       d="m 183.33041,915.44964 c 1.08194,-0.0913 1.73738,-1.05297 2.52053,-1.67639 0.85723,-1.03956 1.88973,-2.68687 2.15541,-3.12948 -0.0127,2.22706 -0.56766,4.62912 -1.34889,6.48454 -0.44712,0.7718 -1.14535,1.45477 -1.96054,1.81392"
       style="fill:#ff0000;stroke:#000000;stroke-width:1px;stroke-linecap:butt;stroke-linejoin:miter;stroke-opacity:1" />
    <path
       style="fill:#800080;stroke:#000000;stroke-width:0.93000000999999999;stroke-miterlimit:4;stroke-opacity:1;stroke-dasharray:none"
       d="m 178.33077,911.47875 c -5.09509,-1.2962 -10.66692,0.8222 -11.48374,5.4898 -0.75538,4.3166 -0.68774,3.632 -0.0979,7.452 -0.37567,1.4069 -0.43762,2.966 -0.85921,4.5669 -1.42025,5.3932 1.02711,10.7133 5.4797,11.8858 4.4526,1.1726 9.27846,-1.5125 10.5719,-6.9376 0.43309,-1.8166 0.78285,-3.336 1.10721,-4.8321 2.11068,-2.6119 2.944,-5.3633 3.25105,-8.2835 0.69135,-6.5757 -3.85425,-8.2947 -7.96902,-9.3413 z"
       id="path2985-6-6-0-8-7-5-9-7-8"
       inkscape:connector-curvature="0"
       sodipodi:nodetypes="sscssccss" />
    <path
       style="fill:#000000;stroke:#000000;stroke-width:0.93000001000000021;stroke-linecap:butt;stroke-linejoin:miter;stroke-miterlimit:4;stroke-opacity:1;stroke-dasharray:none"
       d="m 173.56575,921.91955 c -0.22354,2.86923 2.89674,2.79322 4.83666,3.12677 2.19784,0.37789 4.31694,2.19947 5.51152,0.15822 1.85536,-3.17036 -1.91394,-3.74344 -3.98994,-3.79512 -2.04362,-0.0509 -4.07701,-2.86135 -6.00743,-0.88032 -0.34357,0.35258 -0.3122,0.89481 -0.35081,1.39045 z"
       id="path4029-4-1-1-0-2"
       inkscape:connector-curvature="0"
       sodipodi:nodetypes="ssssss" />
    <path
       style="fill:#ff0000;fill-opacity:1;stroke:#ff0000;stroke-width:0.80947058999999999;stroke-linecap:butt;stroke-linejoin:miter;stroke-miterlimit:4;stroke-opacity:1;stroke-dasharray:none"
       d="m 176.89038,921.97704 c -0.25258,0.0439 -0.46397,0.0636 -0.53677,0.35183 -0.074,0.27323 -0.029,0.60532 0.23026,0.76566 0.25465,0.24675 0.62119,0.0683 0.82236,-0.15378 0.25102,-0.16942 0.29453,-0.38332 0.11614,-0.73548 -0.0879,-0.17357 -0.40213,-0.27731 -0.63199,-0.22823 z"
       id="path4057-1-3-8-2-20"
       inkscape:connector-curvature="0"
       sodipodi:nodetypes="ccccsc" />
    <path
       style="fill:#ff0000;fill-opacity:1;stroke:#ff0000;stroke-width:0.82351344999999998;stroke-linecap:butt;stroke-linejoin:miter;stroke-miterlimit:4;stroke-opacity:1;stroke-dasharray:none"
       d="m 181.62323,923.25569 c -0.74102,0.0144 -1.0316,0.95704 -0.13905,1.1332 0.64952,0.12819 0.77734,-1.08303 0.13905,-1.1332 z"
       id="path4066-9-2-6-8-39"
       inkscape:connector-curvature="0"
       sodipodi:nodetypes="csc" />
    <path
       style="fill:#800080;stroke:#000000;stroke-width:0.93000000999999999;stroke-linecap:round;stroke-linejoin:miter;stroke-miterlimit:4;stroke-opacity:1;stroke-dasharray:none"
       d="m 179.48062,936.81125 c -1.01619,0.7775 -2.20407,4.2715 -2.69701,5.4728 -0.70497,1.7169 -1.74495,1.2985 -3.00324,0.7456 -0.75472,-0.3312 -2.35553,-0.846 -1.79125,-2.2522 0.46006,-1.331 0.61382,-0.991 0.57986,-2.4597"
       id="path4025-5-4-4-6-7-0-2-3-28"
       inkscape:connector-curvature="0"
       sodipodi:nodetypes="csscc" />
    <path
       style="fill:#800080;stroke:#000000;stroke-width:0.93000000999999999;stroke-linecap:round;stroke-linejoin:miter;stroke-miterlimit:4;stroke-opacity:1;stroke-dasharray:none"
       d="m 178.81029,928.40295 c -1.0792,0.4291 -2.11312,0.9633 -3.19405,1.3802 -1.57438,0.81 -2.80612,2.1452 -3.81539,3.5695 -1.03076,1.5191 0.58397,2.0786 1.55884,2.6424 1.30357,0.8438 2.75332,-0.7018 3.85758,-1.3667 0.73035,-0.2249 1.45461,-1.0241 2.25695,-0.6127"
       id="path4051-8-1-8-8-3-8-0-3-72"
       inkscape:connector-curvature="0"
       sodipodi:nodetypes="cccccc" />
    <path
       style="fill:#800080;stroke:#000000;stroke-width:0.93000000999999999;stroke-linecap:round;stroke-linejoin:miter;stroke-miterlimit:4;stroke-opacity:1;stroke-dasharray:none"
       d="m 33.643515,927.41065 c 0.715508,1.7698 2.227956,3.0017 3.256013,4.5585 1.367466,1.8743 -1.192135,3.1444 -2.805612,2.6423 -1.799431,-0.254 -2.62358,-2.0168 -3.475897,-3.3884 -0.202875,-0.2693 -0.443372,-0.5131 -0.725041,-0.7002"
       id="path4336-7-3"
       inkscape:connector-curvature="0" />
    <path
       style="fill:#800080;stroke:#000000;stroke-width:0.93000000999999999;stroke-linecap:butt;stroke-linejoin:miter;stroke-miterlimit:4;stroke-opacity:1;stroke-dasharray:none"
       d="m 32.401618,935.46495 c 0.04352,1.3618 0.209983,5.3594 0.09193,7.1187 0.04855,0.8798 -1.748754,1.1096 -2.848408,1.0104 -0.797102,-0.072 -1.820259,0.1565 -1.931031,-1.0149 -0.08454,-1.4056 0.413651,-1.7806 -0.179957,-3.1244"
       id="path4025-7-2-5-8-9-4-7-8-1"
       inkscape:connector-curvature="0"
       sodipodi:nodetypes="ccscc" />
    <path
       sodipodi:nodetypes="ccccc"
       inkscape:connector-curvature="0"
       id="path3423-6-8-9-0-8-3"
       d="m 33.80005,913.19798 c 1.07555,-0.14876 1.67892,-1.1439 2.4278,-1.80809 0.80072,-1.08367 1.74415,-2.78358 1.98591,-3.23969 0.10574,2.22459 -0.32064,4.65276 -1.00208,6.54711 -0.40544,0.79448 -1.06635,1.51363 -1.86129,1.91563"
       style="fill:#ff0000;stroke:#000000;stroke-width:1px;stroke-linecap:butt;stroke-linejoin:miter;stroke-opacity:1" />
    <path
       style="fill:#800080;stroke:#000000;stroke-width:0.93000000999999999;stroke-miterlimit:4;stroke-opacity:1;stroke-dasharray:none"
       d="m 28.625005,910.86219 c -5.148181,-1.06599 -10.619193,1.30068 -11.22545,6.00024 -0.560662,4.34613 -0.523846,3.65924 0.237056,7.44882 -0.312557,1.42227 -0.30391,2.98271 -0.653133,4.60096 -1.176473,5.4516 1.507471,10.65629 6.008257,11.62757 4.500787,0.97129 9.201112,-1.92793 10.249471,-7.40565 0.351023,-1.83422 0.63211,-3.36784 0.888964,-4.87702 1.991188,-2.70411 2.700042,-5.49007 2.87555,-8.42121 0.395179,-6.60005 -4.223065,-8.1131 -8.380715,-8.97371 z"
       id="path2985-6-6-0-8-7-5-9-7"
       inkscape:connector-curvature="0"
       sodipodi:nodetypes="sscssccss" />
    <path
       style="fill:#000000;stroke:#000000;stroke-width:0.93000001000000021;stroke-linecap:butt;stroke-linejoin:miter;stroke-miterlimit:4;stroke-opacity:1;stroke-dasharray:none"
       d="m 24.333954,921.50652 c -0.09439,2.87639 3.019327,2.66024 4.972274,2.90628 2.212605,0.27876 4.411415,2.00327 5.513065,-0.0896 1.711027,-3.25053 -2.080217,-3.65366 -4.156436,-3.61201 -2.043846,0.041 -4.201467,-2.67526 -6.040921,-0.60949 -0.327385,0.36767 -0.271678,0.90795 -0.287982,1.40481 z"
       id="path4029-4-1-1-0"
       inkscape:connector-curvature="0"
       sodipodi:nodetypes="ssssss" />
    <path
       style="fill:#ff0000;fill-opacity:1;stroke:#ff0000;stroke-width:0.80947058999999999;stroke-linecap:butt;stroke-linejoin:miter;stroke-miterlimit:4;stroke-opacity:1;stroke-dasharray:none"
       d="m 27.657816,921.41456 c -0.250357,0.0552 -0.460646,0.0844 -0.520417,0.3756 -0.06164,0.27628 -0.0018,0.60601 0.26443,0.75454 0.265474,0.23506 0.623625,0.0403 0.814619,-0.19057 0.243154,-0.18054 0.277003,-0.39617 0.08298,-0.73996 -0.09562,-0.16945 -0.414184,-0.25896 -0.641608,-0.19961 z"
       id="path4057-1-3-8-2"
       inkscape:connector-curvature="0"
       sodipodi:nodetypes="ccccsc" />
    <path
       style="fill:#ff0000;fill-opacity:1;stroke:#ff0000;stroke-width:0.82351344999999998;stroke-linecap:butt;stroke-linejoin:miter;stroke-miterlimit:4;stroke-opacity:1;stroke-dasharray:none"
       d="m 32.443337,922.47925 c -0.739623,0.0477 -0.987556,1.00244 -0.08799,1.13831 0.654629,0.0989 0.727899,-1.11686 0.08799,-1.13831 z"
       id="path4066-9-2-6-8"
       inkscape:connector-curvature="0"
       sodipodi:nodetypes="csc" />
    <path
       style="fill:#800080;stroke:#000000;stroke-width:0.93000000999999999;stroke-linecap:round;stroke-linejoin:miter;stroke-miterlimit:4;stroke-opacity:1;stroke-dasharray:none"
       d="m 17.679424,926.12065 c -0.872916,0.7661 -1.66795,1.6159 -2.546604,2.371 -1.211746,1.291 -1.924682,2.9617 -2.39809,4.642 -0.461915,1.7767 1.246938,1.7626 2.354418,1.967 1.510989,0.358 2.358743,-1.5842 3.176241,-2.5808 0.612695,-0.4567 1.027152,-1.4524 1.920978,-1.3338"
       id="path4051-8-1-8-8-3-8-0-3"
       inkscape:connector-curvature="0"
       sodipodi:nodetypes="cccccc" />
    <path
       style="fill:#800080;stroke:#000000;stroke-width:0.93000000999999999;stroke-linecap:round;stroke-linejoin:miter;stroke-miterlimit:4;stroke-opacity:1;stroke-dasharray:none"
       d="m 18.016962,935.80265 c 0.641139,1.1073 0.400948,4.7899 0.396455,6.0884 -0.0064,1.856 1.114932,1.8676 2.489029,1.8385 0.824002,-0.017 2.499964,0.1202 2.51699,-1.3949 0.08454,-1.4057 -0.187687,-1.1505 0.40593,-2.4943"
       id="path4025-5-4-4-6-7-0-2-3"
       inkscape:connector-curvature="0"
       sodipodi:nodetypes="csscc" />
    <path
       style="fill:#800080;stroke:#000000;stroke-width:0.93000000999999999;stroke-linecap:butt;stroke-linejoin:miter;stroke-miterlimit:4;stroke-opacity:1;stroke-dasharray:none"
       d="m 126.65215,937.55916 c -0.81065,1.09511 -3.15997,4.33383 -4.34393,5.64047 -0.50769,0.72017 -2.05992,-0.21453 -2.86088,-0.9745 -0.58053,-0.55094 -1.52477,-1.00643 -0.88499,-1.99392 0.80564,-1.15489 1.42902,-1.13998 1.79704,-2.56219"
       id="path4025-7-2-5-8-9-4-7-8-1-0-8"
       inkscape:connector-curvature="0"
       sodipodi:nodetypes="ccscc" />
    <path
       style="fill:#800080;stroke:#000000;stroke-width:0.93000000999999999;stroke-linecap:butt;stroke-linejoin:miter;stroke-miterlimit:4;stroke-opacity:1;stroke-dasharray:none"
       d="m 80.591744,932.2665 c 0.75801,1.13217 3.016006,4.4352 3.847436,5.99013 0.507051,0.72062 -0.895922,1.86726 -1.881287,2.36539 -0.714308,0.361 -1.461259,1.09661 -2.1755,0.16157 -0.816,-1.14761 -0.591952,-1.72952 -1.807071,-2.55514"
       id="path4025-7-2-5-8-9-4-7-8-1-0"
       inkscape:connector-curvature="0"
       sodipodi:nodetypes="ccscc" />
    <path
       sodipodi:nodetypes="ccccc"
       inkscape:connector-curvature="0"
       id="path3423-6-8-9-0-8"
       d="m 83.73755,912.38548 c 1.07555,-0.14876 1.67892,-1.1439 2.4278,-1.80809 0.80072,-1.08367 1.74415,-2.78358 1.98591,-3.23969 0.10574,2.22459 -0.32064,4.65276 -1.00208,6.54711 -0.40544,0.79448 -1.06635,1.51363 -1.86129,1.91563"
       style="fill:#ff0000;stroke:#000000;stroke-width:1px;stroke-linecap:butt;stroke-linejoin:miter;stroke-opacity:1" />
    <path
       style="fill:#800080;stroke:#000000;stroke-width:0.93000000999999999;stroke-miterlimit:4;stroke-opacity:1;stroke-dasharray:none"
       d="m 78.750005,909.86221 c -5.148181,-1.06599 -10.619193,1.30068 -11.22545,6.00024 -0.560662,4.34613 -0.523846,3.65924 0.237056,7.44882 -0.312557,1.42228 -0.30391,2.98271 -0.653133,4.60096 -1.176473,5.4516 1.507471,10.65629 6.008257,11.62758 4.500787,0.97128 9.201112,-1.92794 10.249471,-7.40565 0.351023,-1.83423 0.63211,-3.36785 0.888964,-4.87703 1.991188,-2.70411 2.700042,-5.49007 2.87555,-8.4212 0.395179,-6.60006 -4.223065,-8.11311 -8.380715,-8.97372 z"
       id="path2985-6-6-0-8-7-5-9-7-2"
       inkscape:connector-curvature="0"
       sodipodi:nodetypes="sscssccss" />
    <path
       style="fill:#000000;stroke:#000000;stroke-width:0.93000001000000021;stroke-linecap:butt;stroke-linejoin:miter;stroke-miterlimit:4;stroke-opacity:1;stroke-dasharray:none"
       d="m 74.458954,920.50654 c -0.09439,2.87639 3.019327,2.66024 4.972274,2.90628 2.212605,0.27876 4.411415,2.00327 5.513065,-0.0896 1.711027,-3.25053 -2.080217,-3.65366 -4.156436,-3.61201 -2.043846,0.041 -4.201467,-2.67526 -6.040921,-0.60949 -0.327385,0.36767 -0.271678,0.90795 -0.287982,1.40481 z"
       id="path4029-4-1-1-0-0"
       inkscape:connector-curvature="0"
       sodipodi:nodetypes="ssssss" />
    <path
       style="fill:#ff0000;fill-opacity:1;stroke:#ff0000;stroke-width:0.80947058999999999;stroke-linecap:butt;stroke-linejoin:miter;stroke-miterlimit:4;stroke-opacity:1;stroke-dasharray:none"
       d="m 77.782816,920.41458 c -0.250357,0.0552 -0.460646,0.0844 -0.520417,0.3756 -0.06164,0.27628 -0.0018,0.60601 0.26443,0.75454 0.265474,0.23506 0.623625,0.0403 0.814619,-0.19057 0.243154,-0.18054 0.277003,-0.39617 0.08298,-0.73996 -0.09562,-0.16945 -0.414184,-0.25896 -0.641608,-0.19961 z"
       id="path4057-1-3-8-2-3"
       inkscape:connector-curvature="0"
       sodipodi:nodetypes="ccccsc" />
    <path
       style="fill:#ff0000;fill-opacity:1;stroke:#ff0000;stroke-width:0.82351344999999998;stroke-linecap:butt;stroke-linejoin:miter;stroke-miterlimit:4;stroke-opacity:1;stroke-dasharray:none"
       d="m 82.568337,921.47927 c -0.739623,0.0477 -0.987556,1.00244 -0.08799,1.13831 0.654629,0.0989 0.727899,-1.11686 0.08799,-1.13831 z"
       id="path4066-9-2-6-8-7"
       inkscape:connector-curvature="0"
       sodipodi:nodetypes="csc" />
    <path
       style="fill:#800080;stroke:#000000;stroke-width:0.93000000999999999;stroke-linecap:round;stroke-linejoin:miter;stroke-miterlimit:4;stroke-opacity:1;stroke-dasharray:none"
       d="m 67.3376,932.7489 c 0.288724,1.24652 -1.019482,4.69729 -1.404078,5.93753 -0.549697,1.77275 0.519067,2.11224 1.841433,2.48687 0.79285,0.22507 2.355139,0.84711 2.815154,-0.59658 0.49253,-1.3193 0.157498,-1.15501 1.118652,-2.26603"
       id="path4025-5-4-4-6-7-0-2-3-4"
       inkscape:connector-curvature="0"
       sodipodi:nodetypes="csscc" />
    <path
       style="fill:#800080;stroke:#000000;stroke-width:0.93000000999999999;stroke-linecap:round;stroke-linejoin:miter;stroke-miterlimit:4;stroke-opacity:1;stroke-dasharray:none"
       d="m 67.85367,929.15675 c 0.552172,1.02175 1.203366,1.98625 1.743551,3.01114 0.988276,1.46907 2.45803,2.53657 3.990467,3.3727 1.628996,0.84642 1.996198,-0.82258 2.442422,-1.8566 0.685889,-1.39313 -1.018416,-2.65257 -1.807662,-3.67169 -0.308615,-0.6991 -1.186887,-1.32514 -0.87194,-2.17001"
       id="path4051-8-1-8-8-3-8-0-3-0"
       inkscape:connector-curvature="0"
       sodipodi:nodetypes="cccccc" />
    <path
       style="fill:#800080;stroke:#000000;stroke-width:0.93000000999999999;stroke-linecap:round;stroke-linejoin:miter;stroke-miterlimit:4;stroke-opacity:1;stroke-dasharray:none"
       d="m 133.12464,924.76326 c 1.11655,1.54837 2.87892,2.38437 4.24827,3.65142 1.77463,1.49454 -0.40868,3.33787 -2.09532,3.23463 -1.80813,0.18202 -3.02852,-1.33368 -4.18307,-2.46272 -0.26119,-0.21321 -0.55283,-0.3926 -0.87098,-0.5073"
       id="path4336-7-3-8-1"
       inkscape:connector-curvature="0" />
    <path
       sodipodi:nodetypes="ccccc"
       inkscape:connector-curvature="0"
       id="path3423-6-8-9-0"
       d="m 133.73755,912.38548 c 1.07555,-0.14876 1.67892,-1.1439 2.4278,-1.80809 0.80072,-1.08367 1.74415,-2.78358 1.98591,-3.23969 0.10574,2.22459 -0.32064,4.65276 -1.00208,6.54711 -0.40544,0.79448 -1.06635,1.51363 -1.86129,1.91563"
       style="fill:#ff0000;stroke:#000000;stroke-width:1px;stroke-linecap:butt;stroke-linejoin:miter;stroke-opacity:1" />
    <path
       style="fill:#800080;stroke:#000000;stroke-width:0.93000000999999999;stroke-miterlimit:4;stroke-opacity:1;stroke-dasharray:none"
       d="m 128.75,909.8622 c -5.14818,-1.06598 -10.61919,1.30068 -11.22545,6.00025 -0.56066,4.34613 -0.52384,3.65924 0.23706,7.44882 -0.31256,1.42227 -0.30391,2.98271 -0.65313,4.60096 -1.17647,5.4516 1.50747,10.65629 6.00826,11.62757 4.50078,0.97129 9.20111,-1.92793 10.24947,-7.40565 0.35102,-1.83422 0.63211,-3.36784 0.88896,-4.87702 1.99119,-2.70411 2.70004,-5.49007 2.87555,-8.42121 0.39518,-6.60005 -4.22306,-8.11311 -8.38072,-8.97372 z"
       id="path2985-6-6-0-8-7-5-9-7-2-3"
       inkscape:connector-curvature="0"
       sodipodi:nodetypes="sscssccss" />
    <path
       style="fill:#000000;stroke:#000000;stroke-width:0.93000001000000021;stroke-linecap:butt;stroke-linejoin:miter;stroke-miterlimit:4;stroke-opacity:1;stroke-dasharray:none"
       d="m 124.45895,920.50654 c -0.0944,2.87639 3.01933,2.66024 4.97228,2.90628 2.2126,0.27876 4.41141,2.00327 5.51306,-0.0896 1.71103,-3.25053 -2.08022,-3.65366 -4.15643,-3.61201 -2.04385,0.041 -4.20147,-2.67526 -6.04092,-0.60949 -0.32739,0.36767 -0.27168,0.90795 -0.28799,1.40481 z"
       id="path4029-4-1-1-0-0-9"
       inkscape:connector-curvature="0"
       sodipodi:nodetypes="ssssss" />
    <path
       style="fill:#ff0000;fill-opacity:1;stroke:#ff0000;stroke-width:0.80947058999999999;stroke-linecap:butt;stroke-linejoin:miter;stroke-miterlimit:4;stroke-opacity:1;stroke-dasharray:none"
       d="m 127.78281,920.41458 c -0.25035,0.0552 -0.46064,0.0844 -0.52041,0.3756 -0.0616,0.27628 -0.002,0.60601 0.26443,0.75454 0.26547,0.23506 0.62362,0.0403 0.81462,-0.19057 0.24315,-0.18054 0.277,-0.39617 0.083,-0.73996 -0.0956,-0.16945 -0.41418,-0.25896 -0.64161,-0.19961 z"
       id="path4057-1-3-8-2-3-4"
       inkscape:connector-curvature="0"
       sodipodi:nodetypes="ccccsc" />
    <path
       style="fill:#ff0000;fill-opacity:1;stroke:#ff0000;stroke-width:0.82351344999999998;stroke-linecap:butt;stroke-linejoin:miter;stroke-miterlimit:4;stroke-opacity:1;stroke-dasharray:none"
       d="m 132.56834,921.47927 c -0.73963,0.0477 -0.98756,1.00244 -0.088,1.13831 0.65463,0.0989 0.7279,-1.11686 0.088,-1.13831 z"
       id="path4066-9-2-6-8-7-1"
       inkscape:connector-curvature="0"
       sodipodi:nodetypes="csc" />
    <path
       style="fill:#800080;stroke:#000000;stroke-width:0.93000000999999999;stroke-linecap:round;stroke-linejoin:miter;stroke-miterlimit:4;stroke-opacity:1;stroke-dasharray:none"
       d="m 121.14141,937.73274 c 1.11733,0.62348 2.79475,3.91065 3.45513,5.0287 0.94393,1.59805 1.91336,1.0344 3.07919,0.30652 0.69932,-0.43613 2.2096,-1.17556 1.44918,-2.48613 -0.64643,-1.2511 -0.7498,-0.89256 -0.92714,-2.35091"
       id="path4025-5-4-4-6-7-0-2-3-4-9"
       inkscape:connector-curvature="0"
       sodipodi:nodetypes="csscc" />
    <path
       style="fill:#800080;stroke:#000000;stroke-width:0.93000000999999999;stroke-linecap:round;stroke-linejoin:miter;stroke-miterlimit:4;stroke-opacity:1;stroke-dasharray:none"
       d="m 117.90051,925.1464 c -1.03609,0.52475 -2.01761,1.15001 -3.05654,1.66269 -1.49487,0.94877 -2.60117,2.38955 -3.47783,3.89917 -0.88953,1.60586 0.76908,2.0174 1.79084,2.49103 1.37436,0.72277 2.67877,-0.94737 3.71857,-1.70917 0.70707,-0.28988 1.35629,-1.15115 2.19247,-0.8138"
       id="path4051-8-1-8-8-3-8-0-3-0-5"
       inkscape:connector-curvature="0"
       sodipodi:nodetypes="cccccc" />
    <path
       sodipodi:nodetypes="cccc"
       inkscape:connector-curvature="0"
       id="path3416-8"
       d="m 69.25,1012.6122 c -2.252427,-1.995 -3.268508,-5.1879 -4.221781,-7.3091 -0.523185,2.4752 -0.05611,4.6423 0.20919,6.0365 0.438346,1.5205 1.290494,2.595 2.450123,3.6473"
       style="fill:#ff0000;stroke:#000000;stroke-width:1px;stroke-linecap:butt;stroke-linejoin:miter;stroke-opacity:1" />
    <path
       sodipodi:nodetypes="cccc"
       inkscape:connector-curvature="0"
       id="path3416-8-4"
       d="m 119.25,1012.6122 c -2.25243,-1.995 -3.26851,-5.1879 -4.22178,-7.3091 -0.52319,2.4752 -0.0561,4.6423 0.20919,6.0365 0.43835,1.5205 1.29049,2.595 2.45012,3.6473"
       style="fill:#ff0000;stroke:#000000;stroke-width:1px;stroke-linecap:butt;stroke-linejoin:miter;stroke-opacity:1" />
    <path
       sodipodi:nodetypes="cccc"
       inkscape:connector-curvature="0"
       id="path3416-8-3"
       d="m 119.25,962.6122 c -2.25243,-1.995 -3.26851,-5.1879 -4.22178,-7.3091 -0.52319,2.4752 -0.0561,4.6423 0.20919,6.0365 0.43835,1.5205 1.29049,2.595 2.45012,3.6473"
       style="fill:#ff0000;stroke:#000000;stroke-width:1px;stroke-linecap:butt;stroke-linejoin:miter;stroke-opacity:1" />
    <path
       sodipodi:nodetypes="cccc"
       inkscape:connector-curvature="0"
       id="path3416-8-9"
       d="m 69.25,962.6122 c -2.252427,-1.995 -3.268508,-5.1879 -4.221781,-7.3091 -0.523185,2.4752 -0.05611,4.6423 0.20919,6.0365 0.438346,1.5205 1.290494,2.595 2.450123,3.6473"
       style="fill:#ff0000;stroke:#000000;stroke-width:1px;stroke-linecap:butt;stroke-linejoin:miter;stroke-opacity:1" />
    <path
       sodipodi:nodetypes="cccc"
       inkscape:connector-curvature="0"
       id="path3416-8-43"
       d="m 19.25,962.6122 c -2.252427,-1.995 -3.268508,-5.1879 -4.221781,-7.3091 -0.523185,2.4752 -0.05611,4.6423 0.20919,6.0365 0.438346,1.5205 1.290494,2.595 2.450123,3.6473"
       style="fill:#ff0000;stroke:#000000;stroke-width:1px;stroke-linecap:butt;stroke-linejoin:miter;stroke-opacity:1" />
    <path
       sodipodi:nodetypes="cccc"
       inkscape:connector-curvature="0"
       id="path3416-8-3-2-5"
       d="m 122.87652,911.71611 c -1.76946,-2.43362 -2.07341,-5.77048 -2.54704,-8.04729 -1.04443,2.30423 -1.05544,4.52107 -1.09691,5.93968 0.10029,1.57925 0.70079,2.81217 1.60633,4.08969"
       style="fill:#ff0000;stroke:#000000;stroke-width:1px;stroke-linecap:butt;stroke-linejoin:miter;stroke-opacity:1" />
    <path
       sodipodi:nodetypes="cccc"
       inkscape:connector-curvature="0"
       id="path3416-8-3-2-5-5"
       d="m 72.87652,911.71611 c -1.76946,-2.43362 -2.07341,-5.77048 -2.54704,-8.04729 -1.04443,2.30423 -1.05544,4.52107 -1.09691,5.93968 0.10029,1.57925 0.70079,2.81217 1.60633,4.08969"
       style="fill:#ff0000;stroke:#000000;stroke-width:1px;stroke-linecap:butt;stroke-linejoin:miter;stroke-opacity:1" />
    <path
       sodipodi:nodetypes="cccc"
       inkscape:connector-curvature="0"
       id="path3416-8-3-2-5-5-6"
       d="m 22.93902,912.52861 c -1.76946,-2.43362 -2.07341,-5.77048 -2.54704,-8.04729 -1.04443,2.30423 -1.05544,4.52107 -1.09691,5.93968 0.10029,1.57925 0.70079,2.81217 1.60633,4.08969"
       style="fill:#ff0000;stroke:#000000;stroke-width:1px;stroke-linecap:butt;stroke-linejoin:miter;stroke-opacity:1" />
    <path
       sodipodi:nodetypes="cccc"
       inkscape:connector-curvature="0"
       id="path3416-8-3-2-8"
       d="m 172.52035,914.20355 c -1.63751,-2.52429 -1.76355,-5.87259 -2.11541,-8.17138 -1.16551,2.24543 -1.29442,4.45854 -1.41129,5.87294 0.0162,1.58234 0.55023,2.84546 1.38654,4.16934"
       style="fill:#ff0000;stroke:#000000;stroke-width:1px;stroke-linecap:butt;stroke-linejoin:miter;stroke-opacity:1" />
  </g>
</svg>
