<?xml version="1.0" encoding="UTF-8" standalone="no"?>
<!-- Created with Inkscape (http://www.inkscape.org/) -->

<svg
   xmlns:dc="http://purl.org/dc/elements/1.1/"
   xmlns:cc="http://creativecommons.org/ns#"
   xmlns:rdf="http://www.w3.org/1999/02/22-rdf-syntax-ns#"
   xmlns:svg="http://www.w3.org/2000/svg"
   xmlns="http://www.w3.org/2000/svg"
   xmlns:sodipodi="http://sodipodi.sourceforge.net/DTD/sodipodi-0.dtd"
   xmlns:inkscape="http://www.inkscape.org/namespaces/inkscape"
   inkscape:export-ydpi="90"
   inkscape:export-xdpi="90"
   inkscape:export-filename="/home/micha/Programmieren/git/platformer/images/cannon.png"
   sodipodi:docname="launcher.svg"
   inkscape:version="0.48.4 r9939"
   version="1.1"
   id="svg2"
   height="50"
   width="50">
  <sodipodi:namedview
     id="base"
     pagecolor="#000000"
     bordercolor="#666666"
     borderopacity="1.0"
     inkscape:pageopacity="0.0"
     inkscape:pageshadow="2"
     inkscape:zoom="11.313708"
     inkscape:cx="16.360474"
     inkscape:cy="26.328537"
     inkscape:document-units="px"
     inkscape:current-layer="layer1"
     showgrid="false"
     inkscape:showpageshadow="true"
     inkscape:window-width="1280"
     inkscape:window-height="750"
     inkscape:window-x="0"
     inkscape:window-y="25"
     inkscape:window-maximized="1">
    <inkscape:grid
       originy="0px"
       originx="0px"
       spacingy="10px"
       spacingx="10px"
       snapvisiblegridlinesonly="true"
       enabled="true"
       visible="true"
       empspacing="5"
       id="grid2985"
       type="xygrid" />
  </sodipodi:namedview>
  <defs
     id="defs4" />
  <metadata
     id="metadata7">
    <rdf:RDF>
      <cc:Work
         rdf:about="">
        <dc:format>image/svg+xml</dc:format>
        <dc:type
           rdf:resource="http://purl.org/dc/dcmitype/StillImage" />
        <dc:title />
      </cc:Work>
    </rdf:RDF>
  </metadata>
  <g
     transform="translate(0,-1002.3622)"
     id="layer1"
     inkscape:groupmode="layer"
     inkscape:label="Ebene 1">
    <path
       style="fill:#483737;stroke:#0f0909;stroke-width:2;stroke-linecap:butt;stroke-linejoin:miter;stroke-miterlimit:4;stroke-opacity:1;stroke-dasharray:none"
       d="m 6.875,1021.2372 c 2.5295242,-0.1413 5.296894,-0.2093 7.810839,-0.1276 l 6.616212,-1.7698 c 5.108866,-0.01 10.275257,-0.2822 14.048078,0.072 0.458863,2.2353 -0.224314,14.746 0.07182,16.7151 -5.919175,-0.013 -5.955645,-0.08 -13.160806,-0.2757 0,0 -6.248983,-2.1117 -7.54449,-2.2966 -2.445122,0 -5.1983034,-0.2588 -7.6434257,-0.2588 -0.1987378,-2.2435 -0.089513,-9.8369 -0.1982273,-12.0581 z"
       id="path4101"
       inkscape:connector-curvature="0"
       sodipodi:nodetypes="cccccccccc" />
    <path
       style="fill:#0f0909;fill-opacity:1;stroke:none"
       d="m 7.5,1024.3622 c 0.19979,1.6436 -0.4477,3.8135 0.520445,5.1303 1.644064,-0.037 3.269038,0.1137 4.926003,0.1184 3.440996,0.04 6.897047,0.02 10.309509,-0.4334 1.85473,-0.017 2.882022,-2.7382 0.97445,-3.5672 -1.484687,-1.0792 -3.431841,-1.1448 -5.195102,-1.2516 -2.043499,0.2472 -4.105453,0.1261 -6.158854,0.095 -1.778444,-0.3433 -3.609637,0.2859 -5.376451,-0.092 z"
       id="path4074"
       inkscape:connector-curvature="0" />
    <g
       id="g3039"
       style="fill:#666666;stroke-width:2;stroke-miterlimit:4;stroke-dasharray:none"
       transform="translate(92.390625,0.125)">
      <path
         id="path2996"
         transform="translate(0,1002.3622)"
         d="m -17.375,12.9375 -1.875,5.40625 0.8125,0.75 -0.09375,1.375 -1.5,1.15625 -1.59375,-0.875 -0.59375,-0.875 -5.34375,-1.09375 3.96875,4.5 0.875,-0.28125 1.53125,0.71875 0.125,1.375 -0.5,1.4375 -2.1875,-0.125 -3.8125,4.34375 6.15625,-1.09375 0.28125,-0.9375 1.21875,-1.25 1.25,0.8125 0.65625,0.78125 -0.21875,1.53125 -0.96875,0.5 1.96875,5.71875 1.75,-5.34375 -0.65625,-1.53125 0.71875,-1.4375 1.8125,-0.4375 0.4375,0.59375 0.4375,1.0625 5.5,0.875 -3.46875,-4.125 -1.53125,0 -0.8125,-0.8125 -0.34375,-1.375 1.09375,-1 1.4375,0 3.625,-4.40625 -5.4375,1 -0.65625,1.15625 -1,0.65625 -1.53125,-0.78125 -0.375,-1.6875 0.8125,-0.875 z m 0.02968,10.405925 1.169194,0.430242 0.529679,1.432464 -1.25065,1.121534 -1.237381,-0.224437 -0.582702,-0.946978 0.1875,-1.23359 z"
         style="fill:#666666;stroke:#000000;stroke-width:2;stroke-linecap:butt;stroke-linejoin:miter;stroke-miterlimit:4;stroke-opacity:1;stroke-dasharray:none"
         inkscape:connector-curvature="0"
         sodipodi:nodetypes="cccccccccccccccccccccccccccccccccccccccccccccccccccc" />
    </g>
  </g>
</svg>
