<?xml version="1.0" encoding="UTF-8" standalone="no"?>
<!-- Created with Inkscape (http://www.inkscape.org/) -->

<svg
   xmlns:dc="http://purl.org/dc/elements/1.1/"
   xmlns:cc="http://creativecommons.org/ns#"
   xmlns:rdf="http://www.w3.org/1999/02/22-rdf-syntax-ns#"
   xmlns:svg="http://www.w3.org/2000/svg"
   xmlns="http://www.w3.org/2000/svg"
   xmlns:sodipodi="http://sodipodi.sourceforge.net/DTD/sodipodi-0.dtd"
   xmlns:inkscape="http://www.inkscape.org/namespaces/inkscape"
   width="32"
   height="60"
   id="svg2"
   version="1.1"
   inkscape:version="0.48.3.1 r9886"
   sodipodi:docname="log.svg"
   inkscape:export-filename="/home/micha/Programmieren/git/platformer/images/64appearblock.png"
   inkscape:export-xdpi="144"
   inkscape:export-ydpi="144">
  <sodipodi:namedview
     id="base"
     pagecolor="#000000"
     bordercolor="#666666"
     borderopacity="1.0"
     inkscape:pageopacity="0.0"
     inkscape:pageshadow="2"
     inkscape:zoom="3.9999998"
     inkscape:cx="43.763047"
     inkscape:cy="30.967537"
     inkscape:document-units="px"
     inkscape:current-layer="layer1"
     showgrid="false"
     inkscape:showpageshadow="true"
     inkscape:window-width="1280"
     inkscape:window-height="750"
     inkscape:window-x="0"
     inkscape:window-y="25"
     inkscape:window-maximized="1"
     fit-margin-top="0"
     fit-margin-left="0"
     fit-margin-right="0"
     fit-margin-bottom="0">
    <inkscape:grid
       originy="-2.1293775px"
       originx="-0.95903721px"
       spacingy="10px"
       spacingx="10px"
       snapvisiblegridlinesonly="true"
       enabled="true"
       visible="true"
       empspacing="5"
       id="grid2985"
       type="xygrid" />
  </sodipodi:namedview>
  <defs
     id="defs4">
    <inkscape:path-effect
       fuse_tolerance="0"
       vertical_pattern="false"
       prop_units="false"
       tang_offset="0"
       normal_offset="0"
       spacing="0"
       scale_y_rel="false"
       prop_scale="1"
       copytype="single_stretched"
       pattern="M 0,0 0,10 10,5 z"
       is_visible="true"
       id="path-effect3017"
       effect="skeletal" />
  </defs>
  <metadata
     id="metadata7">
    <rdf:RDF>
      <cc:Work
         rdf:about="">
        <dc:format>image/svg+xml</dc:format>
        <dc:type
           rdf:resource="http://purl.org/dc/dcmitype/StillImage" />
        <dc:title />
      </cc:Work>
    </rdf:RDF>
  </metadata>
  <g
     transform="translate(-0.95903721,-990.23282)"
     id="layer1"
     inkscape:groupmode="layer"
     inkscape:label="Ebene 1">
    <g
       id="g3054"
       transform="translate(92.86202,-24.881463)">
      <path
         sodipodi:nodetypes="cssccsssc"
         inkscape:connector-curvature="0"
         id="path3913"
         d="m 15.679435,1045.3618 c -0.07281,-3.2831 -0.522997,-6.5769 -0.60455,-9.8675 -0.04696,-1.8947 -0.69495,-25.9813 -0.79264,-27.8696 -0.151387,-2.9263 -3.479901,-3.4526 -4.968477,-3.5186 -1.7763142,0.032 -5.0561059,0.9965 -4.9450231,3.7317 -0.020749,0.9264 0.1000612,0.9195 0.035018,2.5697 -0.061955,1.572 0.90705,24.7257 0.8687748,26.2911 -0.053495,2.1884 0.1649747,3.0178 0.088051,4.9214 -0.063753,1.5778 0.063921,3.2051 0.089122,4.784"
         style="fill:#28170b;stroke:#000000;stroke-width:2;stroke-linecap:butt;stroke-linejoin:miter;stroke-miterlimit:4;stroke-opacity:1;stroke-dasharray:none" />
      <path
         sodipodi:nodetypes="sssssss"
         inkscape:connector-curvature="0"
         id="path3140"
         d="m 10.821051,1042.6822 c -0.994821,-0.033 -2.506092,-0.2932 -3.9383529,0.9814 -1.0751039,0.9569 -2.2267838,2.9786 -0.7790557,4.0486 1.2578679,0.9297 2.9800357,1.112 4.5241886,1.0341 1.780433,-0.09 3.741331,-0.5355 4.794478,-2.1789 1.078013,-1.6822 -0.672714,-2.6755 -1.998574,-3.3267 -0.632686,-0.3107 -1.752338,-0.5301 -2.602684,-0.5585 z"
         style="fill:#a05a2c;stroke:#000000;stroke-width:2;stroke-linecap:butt;stroke-linejoin:miter;stroke-miterlimit:4;stroke-opacity:1;stroke-dasharray:none" />
    </g>
    <path
       style="fill:#28170b;stroke:#000000;stroke-width:1.34904397;stroke-linecap:butt;stroke-linejoin:miter;stroke-miterlimit:4;stroke-opacity:1;stroke-dasharray:none"
       d="m 111.21125,1069.9037 c -0.13114,-5.9132 -0.94196,-11.8456 -1.08885,-17.7724 -0.0846,-3.4124 0.0992,-8.9717 -0.0768,-12.3727 -0.27266,-5.2705 -6.26761,-6.2184 -8.94866,-6.3373 -3.199301,0.058 -9.106495,1.7948 -8.906425,6.7211 -0.03737,1.6685 0.180219,1.6561 0.06307,4.6283 -0.111586,2.8314 0.282861,6.7103 0.213924,9.5298 -0.09635,3.9415 0.297134,5.4353 0.158587,8.8639 -0.114824,2.8416 0.115127,5.7725 0.160517,8.6164"
       id="path3913-0"
       inkscape:connector-curvature="0"
       sodipodi:nodetypes="cssccsssc" />
    <path
       style="fill:#a05a2c;stroke:#000000;stroke-width:1.34904397;stroke-linecap:butt;stroke-linejoin:miter;stroke-miterlimit:4;stroke-opacity:1;stroke-dasharray:none"
       d="m 102.46087,1065.0775 c -1.79176,-0.059 -4.513689,-0.5281 -7.093317,1.7676 -1.936357,1.7233 -4.010634,5.3647 -1.403148,7.2918 2.265531,1.6744 5.367307,2.0028 8.148465,1.8625 3.20671,-0.1618 6.73846,-0.9645 8.63527,-3.9243 1.9416,-3.0298 -1.21161,-4.8189 -3.5996,-5.9917 -1.13953,-0.5596 -3.15612,-0.9549 -4.68767,-1.0059 z"
       id="path3140-5"
       inkscape:connector-curvature="0"
       sodipodi:nodetypes="sssssss" />
    <g
       id="g6325"
       transform="translate(40.262585,1.9457278)">
      <path
         style="fill:#28170b;stroke:#000000;stroke-width:2;stroke-linecap:butt;stroke-linejoin:miter;stroke-miterlimit:4;stroke-opacity:1;stroke-dasharray:none"
         d="m -27.646187,1043.9186 c 1.20163,-3.0562 1.840588,-5.3617 3.037053,-8.4282 0.688912,-1.7656 15.0851172,-38.77382 15.7393928,-40.54783 0.9028813,-2.44809 -2.0396088,-3.53309 -3.5320238,-4.0163 -1.690218,-0.54724 -5.09258,-0.85812 -6.047171,1.7075 -0.377152,0.84641 -0.263061,0.88673 -0.960786,2.38358 -0.664655,1.42593 -14.06533,36.36655 -14.705594,37.79555 -0.895066,1.9977 -1.014099,2.8471 -1.820709,4.5731 -0.668555,1.4306 -1.273435,3.7308 -1.860372,5.1968"
         id="path5077-9"
         inkscape:connector-curvature="0"
         sodipodi:nodetypes="cssscsssc" />
      <path
         style="fill:#a05a2c;stroke:#000000;stroke-width:2;stroke-linecap:butt;stroke-linejoin:miter;stroke-miterlimit:4;stroke-opacity:1;stroke-dasharray:none"
         d="m -32.009621,1039.9981 c -0.979551,-0.1767 -2.437187,-0.6531 -4.038959,0.4006 -1.202391,0.7911 -2.634757,2.6247 -1.357302,3.893 1.109938,1.1021 2.78754,1.532 4.326691,1.6786 1.774703,0.1689 3.779447,0.012 5.05954,-1.4614 1.310311,-1.5083 -0.278069,-2.7447 -1.49562,-3.5811 -0.581016,-0.3991 -1.657091,-0.7784 -2.49435,-0.9297 z"
         id="path5079-1"
         inkscape:connector-curvature="0"
         sodipodi:nodetypes="sssssss" />
    </g>
  </g>
</svg>
