<?xml version="1.0" encoding="UTF-8" standalone="no"?>
<!-- Created with Inkscape (http://www.inkscape.org/) -->

<svg
   xmlns:dc="http://purl.org/dc/elements/1.1/"
   xmlns:cc="http://creativecommons.org/ns#"
   xmlns:rdf="http://www.w3.org/1999/02/22-rdf-syntax-ns#"
   xmlns:svg="http://www.w3.org/2000/svg"
   xmlns="http://www.w3.org/2000/svg"
   xmlns:sodipodi="http://sodipodi.sourceforge.net/DTD/sodipodi-0.dtd"
   xmlns:inkscape="http://www.inkscape.org/namespaces/inkscape"
   width="22"
   height="50"
   id="svg2"
   version="1.1"
   inkscape:version="0.48.3.1 r9886"
   sodipodi:docname="log.svg"
   inkscape:export-filename="/home/micha/Programmieren/git/platformer/images/64appearblock.png"
   inkscape:export-xdpi="144"
   inkscape:export-ydpi="144">
  <sodipodi:namedview
     id="base"
     pagecolor="#000000"
     bordercolor="#666666"
     borderopacity="1.0"
     inkscape:pageopacity="0.0"
     inkscape:pageshadow="2"
     inkscape:zoom="7.9999996"
     inkscape:cx="16.171108"
     inkscape:cy="26.986836"
     inkscape:document-units="px"
     inkscape:current-layer="layer1"
     showgrid="false"
     inkscape:showpageshadow="true"
     inkscape:window-width="1280"
     inkscape:window-height="750"
     inkscape:window-x="0"
     inkscape:window-y="25"
     inkscape:window-maximized="1">
    <inkscape:grid
       originy="0px"
       originx="0px"
       spacingy="10px"
       spacingx="10px"
       snapvisiblegridlinesonly="true"
       enabled="true"
       visible="true"
       empspacing="5"
       id="grid2985"
       type="xygrid" />
  </sodipodi:namedview>
  <defs
     id="defs4">
    <inkscape:path-effect
       fuse_tolerance="0"
       vertical_pattern="false"
       prop_units="false"
       tang_offset="0"
       normal_offset="0"
       spacing="0"
       scale_y_rel="false"
       prop_scale="1"
       copytype="single_stretched"
       pattern="M 0,0 0,10 10,5 z"
       is_visible="true"
       id="path-effect3017"
       effect="skeletal" />
  </defs>
  <metadata
     id="metadata7">
    <rdf:RDF>
      <cc:Work
         rdf:about="">
        <dc:format>image/svg+xml</dc:format>
        <dc:type
           rdf:resource="http://purl.org/dc/dcmitype/StillImage" />
        <dc:title />
      </cc:Work>
    </rdf:RDF>
  </metadata>
  <g
     transform="translate(0,-1002.3622)"
     id="layer1"
     inkscape:groupmode="layer"
     inkscape:label="Ebene 1">
    <g
       id="g3054"
       transform="translate(0.93813379,0.92793606)">
      <path
         sodipodi:nodetypes="cssccsssc"
         inkscape:connector-curvature="0"
         id="path3913"
         d="m 15.679435,1045.3618 c -0.07281,-3.2831 -0.522997,-6.5769 -0.60455,-9.8675 -0.04696,-1.8947 -0.69495,-25.9813 -0.79264,-27.8696 -0.151387,-2.9263 -3.479901,-3.4526 -4.968477,-3.5186 -1.7763142,0.032 -5.0561059,0.9965 -4.9450231,3.7317 -0.020749,0.9264 0.1000612,0.9195 0.035018,2.5697 -0.061955,1.572 0.90705,24.7257 0.8687748,26.2911 -0.053495,2.1884 0.1649747,3.0178 0.088051,4.9214 -0.063753,1.5778 0.063921,3.2051 0.089122,4.784"
         style="fill:#28170b;stroke:#000000;stroke-width:2;stroke-linecap:butt;stroke-linejoin:miter;stroke-miterlimit:4;stroke-opacity:1;stroke-dasharray:none" />
      <path
         sodipodi:nodetypes="sssssss"
         inkscape:connector-curvature="0"
         id="path3140"
         d="m 10.821051,1042.6822 c -0.994821,-0.033 -2.506092,-0.2932 -3.9383529,0.9814 -1.0751039,0.9569 -2.2267838,2.9786 -0.7790557,4.0486 1.2578679,0.9297 2.9800357,1.112 4.5241886,1.0341 1.780433,-0.09 3.741331,-0.5355 4.794478,-2.1789 1.078013,-1.6822 -0.672714,-2.6755 -1.998574,-3.3267 -0.632686,-0.3107 -1.752338,-0.5301 -2.602684,-0.5585 z"
         style="fill:#a05a2c;stroke:#000000;stroke-width:2;stroke-linecap:butt;stroke-linejoin:miter;stroke-miterlimit:4;stroke-opacity:1;stroke-dasharray:none" />
    </g>
    <path
       style="fill:#28170b;stroke:#000000;stroke-width:1.34904397;stroke-linecap:butt;stroke-linejoin:miter;stroke-miterlimit:4;stroke-opacity:1;stroke-dasharray:none"
       d="m 62.067327,1038.791 c -0.131141,-5.9132 -0.941964,-11.8456 -1.088848,-17.7724 -0.08457,-3.4124 0.09916,-8.9717 -0.07679,-12.3727 -0.272662,-5.2705 -6.267609,-6.2184 -8.948666,-6.3373 -3.199298,0.058 -9.106492,1.7948 -8.906422,6.7211 -0.03737,1.6685 0.180219,1.6561 0.06307,4.6283 -0.111586,2.8314 0.282861,6.7103 0.213924,9.5298 -0.09635,3.9415 0.297134,5.4353 0.158587,8.8639 -0.114824,2.8416 0.115127,5.7725 0.160517,8.6164"
       id="path3913-0"
       inkscape:connector-curvature="0"
       sodipodi:nodetypes="cssccsssc" />
    <path
       style="fill:#a05a2c;stroke:#000000;stroke-width:1.34904397;stroke-linecap:butt;stroke-linejoin:miter;stroke-miterlimit:4;stroke-opacity:1;stroke-dasharray:none"
       d="m 53.316949,1033.9648 c -1.79176,-0.059 -4.513692,-0.5281 -7.09332,1.7676 -1.936357,1.7233 -4.010634,5.3647 -1.403148,7.2918 2.265531,1.6744 5.367307,2.0028 8.148462,1.8625 3.206717,-0.1618 6.738467,-0.9645 8.635277,-3.9243 1.941598,-3.0298 -1.211617,-4.8189 -3.599607,-5.9917 -1.139524,-0.5596 -3.156115,-0.9549 -4.687664,-1.0059 z"
       id="path3140-5"
       inkscape:connector-curvature="0"
       sodipodi:nodetypes="sssssss" />
  </g>
</svg>
