<?xml version="1.0" encoding="UTF-8" standalone="no"?>
<!-- Created with Inkscape (http://www.inkscape.org/) -->

<svg
   xmlns:dc="http://purl.org/dc/elements/1.1/"
   xmlns:cc="http://creativecommons.org/ns#"
   xmlns:rdf="http://www.w3.org/1999/02/22-rdf-syntax-ns#"
   xmlns:svg="http://www.w3.org/2000/svg"
   xmlns="http://www.w3.org/2000/svg"
   xmlns:sodipodi="http://sodipodi.sourceforge.net/DTD/sodipodi-0.dtd"
   xmlns:inkscape="http://www.inkscape.org/namespaces/inkscape"
   width="100"
   height="50"
   id="svg2"
   version="1.1"
   inkscape:version="0.48.3.1 r9886"
   sodipodi:docname="medusaSpawner.svg"
   inkscape:export-filename="/home/micha/Programmieren/git/platformer/images/fixedcannon.png"
   inkscape:export-xdpi="90"
   inkscape:export-ydpi="90">
  <sodipodi:namedview
     id="base"
     pagecolor="#000000"
     bordercolor="#666666"
     borderopacity="1.0"
     inkscape:pageopacity="0.0"
     inkscape:pageshadow="2"
     inkscape:zoom="5.656854"
     inkscape:cx="52.030126"
     inkscape:cy="16.406182"
     inkscape:document-units="px"
     inkscape:current-layer="layer1"
     showgrid="true"
     inkscape:showpageshadow="true"
     inkscape:window-width="1280"
     inkscape:window-height="750"
     inkscape:window-x="0"
     inkscape:window-y="25"
     inkscape:window-maximized="1">
    <inkscape:grid
       originy="0px"
       originx="0px"
       spacingy="5px"
       spacingx="5px"
       snapvisiblegridlinesonly="true"
       enabled="true"
       visible="true"
       empspacing="5"
       id="grid2985"
       type="xygrid" />
  </sodipodi:namedview>
  <defs
     id="defs4">
    <inkscape:path-effect
       fuse_tolerance="0"
       vertical_pattern="false"
       prop_units="false"
       tang_offset="0"
       normal_offset="0"
       spacing="0"
       scale_y_rel="false"
       prop_scale="1"
       copytype="single_stretched"
       pattern="M 0,0 0,10 10,5 z"
       is_visible="true"
       id="path-effect3017"
       effect="skeletal" />
    <clipPath
       clipPathUnits="userSpaceOnUse"
       id="clipPath9034">
      <path
         style="fill:#6aa0d7;fill-opacity:0.70588235;stroke:#000000;stroke-opacity:1"
         d="m 685,937.3622 45,0 0,45 -45,0 z"
         id="path9036"
         inkscape:connector-curvature="0"
         sodipodi:nodetypes="ccccc" />
    </clipPath>
    <clipPath
       clipPathUnits="userSpaceOnUse"
       id="clipPath8980">
      <path
         sodipodi:nodetypes="ccccc"
         inkscape:connector-curvature="0"
         id="path8982"
         d="m 645,937.3622 40,0 0,45 -40,0 z"
         style="fill:#6aa0d7;fill-opacity:0.70776253;stroke:#000000;stroke-opacity:1" />
    </clipPath>
    <clipPath
       clipPathUnits="userSpaceOnUse"
       id="clipPath8926">
      <path
         sodipodi:nodetypes="ccccc"
         inkscape:connector-curvature="0"
         id="path8928"
         d="m 600,937.3622 45,0 0,45 -45,0 z"
         style="fill:#6aa0d7;fill-opacity:0.70588235;stroke:#000000;stroke-opacity:1" />
    </clipPath>
    <clipPath
       clipPathUnits="userSpaceOnUse"
       id="clipPath9214">
      <path
         style="fill:#6aa0d7;fill-opacity:0.70588235;stroke:#000000;stroke-opacity:1"
         d="m 685,852.3622 45,0 0,45 0,0 -45,0 z"
         id="path9216"
         inkscape:connector-curvature="0"
         sodipodi:nodetypes="cccccc" />
    </clipPath>
    <clipPath
       clipPathUnits="userSpaceOnUse"
       id="clipPath8817">
      <path
         style="fill:#6aa0d7;fill-opacity:0.70776253;stroke:#000000;stroke-opacity:1"
         d="m 645,897.3622 40,0 0,40 -40,0 z"
         id="path8819"
         inkscape:connector-curvature="0"
         sodipodi:nodetypes="ccccc" />
    </clipPath>
    <clipPath
       clipPathUnits="userSpaceOnUse"
       id="clipPath8763">
      <path
         style="fill:#6aa0d7;fill-opacity:0.70588235;stroke:#000000;stroke-opacity:1"
         d="m 600,897.3622 45,0 0,40 -45,0 z"
         id="path8765"
         inkscape:connector-curvature="0"
         sodipodi:nodetypes="ccccc" />
    </clipPath>
    <clipPath
       clipPathUnits="userSpaceOnUse"
       id="clipPath8872">
      <path
         sodipodi:nodetypes="cccccc"
         inkscape:connector-curvature="0"
         id="path8874"
         d="m 685,897.3622 45,0 0,46 0,-6 -45,0 z"
         style="fill:#6aa0d7;fill-opacity:0.70588235;stroke:#000000;stroke-opacity:1" />
    </clipPath>
    <clipPath
       clipPathUnits="userSpaceOnUse"
       id="clipPath8603">
      <path
         sodipodi:nodetypes="ccccc"
         inkscape:connector-curvature="0"
         id="path8605"
         d="m 645,852.3622 40,0 0,45 -40,0 z"
         style="fill:#6aa0d7;fill-opacity:0.70776253;stroke:#000000;stroke-opacity:1" />
    </clipPath>
    <clipPath
       clipPathUnits="userSpaceOnUse"
       id="clipPath8548">
      <path
         sodipodi:nodetypes="ccccc"
         inkscape:connector-curvature="0"
         id="path8551"
         d="m 600,852.3622 45,0 0,45 -45,0 z"
         style="fill:#6aa0d7;fill-opacity:0.70588235;stroke:#000000;stroke-opacity:1" />
    </clipPath>
    <clipPath
       clipPathUnits="userSpaceOnUse"
       id="clipPath21399-9">
      <path
         style="fill:#6aa0d7;fill-opacity:0.70588235;stroke:#441b00;stroke-opacity:1"
         d="m 225,1287.3622 50,0 0,45 -50,0 z"
         id="path21401-9"
         inkscape:connector-curvature="0"
         sodipodi:nodetypes="ccccc" />
    </clipPath>
    <clipPath
       clipPathUnits="userSpaceOnUse"
       id="clipPath21359-8">
      <path
         sodipodi:nodetypes="cccccc"
         inkscape:connector-curvature="0"
         id="path21361-9"
         d="m 225,1247.3622 50,0 0,46 0,-6 -50,0 z"
         style="fill:#6aa0d7;fill-opacity:0.70588235;stroke:#441b00;stroke-opacity:1" />
    </clipPath>
    <clipPath
       clipPathUnits="userSpaceOnUse"
       id="clipPath21321-9">
      <path
         style="fill:#6aa0d7;fill-opacity:0.70588235;stroke:#441b00;stroke-opacity:1"
         d="m 225,1202.3622 50,0 0,45 0,0 -50,0 z"
         id="path21323-3"
         inkscape:connector-curvature="0"
         sodipodi:nodetypes="cccccc" />
    </clipPath>
    <clipPath
       clipPathUnits="userSpaceOnUse"
       id="clipPath20800-7">
      <path
         style="fill:#6aa0d7;fill-opacity:0.70588235;stroke:#000000;stroke-opacity:1"
         d="m 245,1092.3622 45,0 0,50 -45,0 z"
         id="path20802-5"
         inkscape:connector-curvature="0"
         sodipodi:nodetypes="ccccc" />
    </clipPath>
    <clipPath
       clipPathUnits="userSpaceOnUse"
       id="clipPath20772-5">
      <path
         sodipodi:nodetypes="ccccc"
         inkscape:connector-curvature="0"
         id="path20774-7"
         d="m 160,1092.3622 45,0 0,50 -45,0 z"
         style="fill:#6aa0d7;fill-opacity:0.70588235;stroke:#000000;stroke-opacity:1" />
    </clipPath>
    <clipPath
       clipPathUnits="userSpaceOnUse"
       id="clipPath20796-8">
      <path
         sodipodi:nodetypes="ccccc"
         inkscape:connector-curvature="0"
         id="path20798-9"
         d="m 205,1092.3622 40,0 0,50 -40,0 z"
         style="fill:#6aa0d7;fill-opacity:0.70776253;stroke:#000000;stroke-opacity:1" />
    </clipPath>
  </defs>
  <metadata
     id="metadata7">
    <rdf:RDF>
      <cc:Work
         rdf:about="">
        <dc:format>image/svg+xml</dc:format>
        <dc:type
           rdf:resource="http://purl.org/dc/dcmitype/StillImage" />
        <dc:title></dc:title>
      </cc:Work>
    </rdf:RDF>
  </metadata>
  <g
     transform="translate(0,-1002.3622)"
     id="layer1"
     inkscape:groupmode="layer"
     inkscape:label="Ebene 1">
    <path
       style="fill:#002255;fill-opacity:1;stroke:none"
       d="m 26.914479,1005.3794 c 1.643074,7.7849 5.552464,5.5205 10.011082,2.223 -2.282341,7.7841 0.53482,9.753 9.099839,10.7667 -13.987828,6.1464 -5.548392,10.9323 -0.561766,12.6555 -14.606228,5.126 -10.407169,8.01 -4.442746,14.1013 -8.601621,-3.4185 -14.403138,-0.7805 -16.723197,3.103 -1.165725,-7.6923 -9.586504,-7.3182 -15.5410091,-2.9949 4.5238371,-5.7543 2.0060741,-13.0329 -6.881682,-12.9151 9.4055331,-4.5827 5.428139,-12.3624 2.148394,-14.9509 4.382837,0.3954 9.9467801,-4.1751 6.4876231,-9.3199 5.289966,4.5874 12.589048,5.9559 16.403458,-2.6692 z"
       id="path16791"
       inkscape:connector-curvature="0"
       sodipodi:nodetypes="cccccccccccc" />
    <path
       style="fill:#000a19;fill-opacity:1;stroke:#000000;stroke-width:2;stroke-miterlimit:4;stroke-dasharray:none"
       d="m 35.628951,1026.9467 c 0,3.1111 -0.364016,5.5782 -1.791773,7.7957 -1.814483,2.8184 -3.052128,4.6654 -10.078479,4.6123 -6.611816,-0.049 -8.327786,-3.3307 -10.040936,-7.1404 -0.848688,-1.8875 -1.334731,-4.1773 -1.334731,-6.518 0,-7.0652 3.475371,-11.9017 11.375667,-11.9271 8.649454,-0.028 7.823887,3.0348 9.53882,6.8353 0.853318,1.8911 2.331432,3.9948 2.331432,6.3422 z"
       id="path16181-9"
       inkscape:connector-curvature="0"
       sodipodi:nodetypes="ssssssss" />
    <path
       sodipodi:nodetypes="ccccc"
       inkscape:connector-curvature="0"
       id="path16800"
       d="m 12.343751,1010.4872 c 0.87484,0.8914 2.461416,2.8909 2.925642,3.808 -1.236301,1.2718 -2.718168,3.4035 -3.980206,5.3449 -1.9467008,-0.7578 -2.6253527,-0.8166 -4.9611519,-1.651 4.9354119,0.4628 7.8839849,-3.7841 6.0157159,-7.5019 z"
       style="fill:#0044aa;fill-opacity:1;stroke:none" />
    <path
       sodipodi:nodetypes="ccc"
       inkscape:connector-curvature="0"
       id="path16802"
       d="m 10.96875,1030.1903 c -1.9830221,0.7547 -4.851642,0.9509 -6.3437498,1.3907 2.8632124,-1.3892 4.9764267,-4.398 6.2343738,-6.2032"
       style="fill:#0044aa;fill-opacity:1;stroke:none" />
    <path
       sodipodi:nodetypes="cccc"
       inkscape:connector-curvature="0"
       id="path16804"
       d="m 10.937501,1043.1747 c 1.530754,-1.1353 3.620577,-3.4313 4.847402,-4.5294 -0.806846,-0.9658 -1.067838,-1.2512 -1.91531,-2.2323 -0.09618,2.3335 -1.808192,4.6251 -2.932092,6.7617 z"
       style="fill:#0044aa;fill-opacity:1;stroke:none" />
    <path
       inkscape:connector-curvature="0"
       id="path16806"
       d="m 24.593751,1045.8934 c 1.057489,-1.0525 -0.112902,-6.5327 -0.682342,-3.3347 0.52354,1.1547 0.788263,2.4438 0.619842,3.7097"
       style="fill:#0044aa;fill-opacity:1;stroke:none" />
    <path
       sodipodi:nodetypes="cccc"
       inkscape:connector-curvature="0"
       id="path16808"
       d="m 26.625001,1007.4559 c -0.140733,1.8971 -0.270686,3.2781 -0.471399,4.6254 -0.887814,-0.131 -1.280977,-0.021 -2.574137,-0.068 1.5348,-0.8556 2.360665,-3.0498 3.045536,-4.5579 z"
       style="fill:#0044aa;fill-opacity:1;stroke:none" />
    <path
       inkscape:connector-curvature="0"
       id="path16810"
       d="m 35.312502,1009.9872 c -0.530233,1.3926 -4.777098,5.0503 -3.936401,2.238 1.250575,-0.8386 2.495934,-1.7521 3.936401,-2.238 z"
       style="fill:#0044aa;fill-opacity:1;stroke:none" />
    <path
       inkscape:connector-curvature="0"
       id="path16812"
       d="m 42.312502,1018.5497 c -1.605391,0.5426 -6.930818,3.8248 -6.12646,0.7011 2.060158,-0.175 4.098996,-0.5721 6.12646,-0.7011 z"
       style="fill:#0044aa;fill-opacity:1;stroke:none" />
    <path
       style="fill:#0044aa;fill-opacity:1;stroke:none"
       d="m 74.534367,1025.5045 -1.141493,2.3401 2.282986,1.1985 c 0,0 2.603093,-1.4431 2.910807,-2.7395 0.44896,-1.8914 -0.393824,-4.3806 -1.997613,-5.4792 -1.569859,-1.0754 -4.133484,-0.9552 -5.707465,0.1141 -2.440407,1.658 -4.066303,5.282 -3.424479,8.1617 0.580188,2.6031 3.341489,4.7464 5.935764,5.365 3.088726,0.7365 5.911608,-0.8177 8.03997,-3.1741 1.784053,-1.9752 1.135941,-7.0366 1.135941,-7.0366 0,0 -0.896939,4.652 -2.347388,5.8751 -1.978187,1.6682 -3.815699,1.9817 -6.314851,1.3107 -1.378181,-0.37 -2.754432,-1.7207 -2.910808,-3.1391 -0.173781,-1.5763 0.874042,-3.6678 2.397136,-4.1094 0.555726,-0.1611 1.541015,0.799 1.541015,0.799 z"
       id="path16853"
       inkscape:connector-curvature="0"
       sodipodi:nodetypes="cccsssssscsssscc" />
  </g>
</svg>
