<?xml version="1.0" encoding="UTF-8" standalone="no"?>
<!-- Created with Inkscape (http://www.inkscape.org/) -->

<svg
   xmlns:dc="http://purl.org/dc/elements/1.1/"
   xmlns:cc="http://creativecommons.org/ns#"
   xmlns:rdf="http://www.w3.org/1999/02/22-rdf-syntax-ns#"
   xmlns:svg="http://www.w3.org/2000/svg"
   xmlns="http://www.w3.org/2000/svg"
   xmlns:sodipodi="http://sodipodi.sourceforge.net/DTD/sodipodi-0.dtd"
   xmlns:inkscape="http://www.inkscape.org/namespaces/inkscape"
   width="200"
   height="250"
   id="svg2"
   version="1.1"
   inkscape:version="0.48.2 r9819"
   sodipodi:docname="player_blank.svg"
   inkscape:export-filename="/home/micha/Programmieren/git/platformer/images/32player_blank.png"
   inkscape:export-xdpi="72"
   inkscape:export-ydpi="72">
  <sodipodi:namedview
     id="base"
     pagecolor="#000000"
     bordercolor="#666666"
     borderopacity="1.0"
     inkscape:pageopacity="0"
     inkscape:pageshadow="2"
     inkscape:zoom="3.9999998"
     inkscape:cx="70.725581"
     inkscape:cy="188.60961"
     inkscape:document-units="px"
     inkscape:current-layer="layer1"
     showgrid="false"
     inkscape:showpageshadow="true"
     inkscape:window-width="1280"
     inkscape:window-height="750"
     inkscape:window-x="0"
     inkscape:window-y="25"
     inkscape:window-maximized="1">
    <inkscape:grid
       type="xygrid"
       id="grid2985"
       empspacing="5"
       visible="true"
       enabled="true"
       snapvisiblegridlinesonly="true"
       spacingx="10px"
       spacingy="10px"
       originx="0px"
       originy="0px" />
  </sodipodi:namedview>
  <defs
     id="defs4" />
  <metadata
     id="metadata7">
    <rdf:RDF>
      <cc:Work
         rdf:about="">
        <dc:format>image/svg+xml</dc:format>
        <dc:type
           rdf:resource="http://purl.org/dc/dcmitype/StillImage" />
        <dc:title></dc:title>
      </cc:Work>
    </rdf:RDF>
  </metadata>
  <g
     inkscape:label="Ebene 1"
     inkscape:groupmode="layer"
     id="layer1"
     transform="translate(0,-802.3622)">
    <g
       id="g4324-3-10-1"
       transform="matrix(0.3347786,-0.0574067,0.0574067,0.3347786,-120.67262,973.8739)"
       style="stroke-width:2.73781276;stroke-miterlimit:4;stroke-dasharray:none" />
    <g
       id="g4324-3-10-1-1"
       transform="matrix(0.3347786,-0.0574067,0.0574067,0.3347786,79.32738,1003.8738)"
       style="stroke-width:2.73781276;stroke-miterlimit:4;stroke-dasharray:none" />
    <path
       style="fill:#333333;stroke:#000000;stroke-width:0.93000001;stroke-linecap:round;stroke-linejoin:miter;stroke-miterlimit:4;stroke-opacity:1;stroke-dasharray:none"
       d="m 81.605655,874.3182 c 1.812022,0.6004 3.730006,0.2452 5.582113,0.4696 2.313769,0.1713 1.624679,2.9444 0.197389,3.8489 -1.358566,1.207 -3.235632,0.6939 -4.832757,0.4555 -0.336579,-0.02 -0.678028,0.01 -1.003048,0.099"
       id="path4336-7-3-8-1-7-8"
       inkscape:connector-curvature="0" />
    <path
       style="fill:#333333;stroke:#000000;stroke-width:0.93000001;stroke-linecap:round;stroke-linejoin:miter;stroke-miterlimit:4;stroke-opacity:1;stroke-dasharray:none"
       d="m 33.124649,874.7633 c 1.11655,1.5483 2.87892,2.3843 4.24827,3.6514 1.77463,1.4945 -0.40868,3.3379 -2.09532,3.2346 -1.80813,0.182 -3.02852,-1.3337 -4.18307,-2.4627 -0.26119,-0.2132 -0.55283,-0.3926 -0.87098,-0.5073"
       id="path4336-7-3-8-1-7"
       inkscape:connector-curvature="0" />
    <path
       style="fill:#333333;stroke:#000000;stroke-width:0.93000001;stroke-linecap:butt;stroke-linejoin:miter;stroke-miterlimit:4;stroke-opacity:1;stroke-dasharray:none"
       d="m 30.061419,881.5594 c 0.75801,1.1322 3.016006,4.4352 3.847436,5.9901 0.507051,0.7206 -0.895922,1.8673 -1.881287,2.3654 -0.714308,0.361 -1.461259,1.0966 -2.1755,0.1616 -0.816,-1.1476 -0.591952,-1.7295 -1.807071,-2.5552"
       id="path4025-7-2-5-8-9-4-7-8-1-0-1"
       inkscape:connector-curvature="0"
       sodipodi:nodetypes="ccscc" />
    <path
       style="fill:#333333;stroke:#000000;stroke-width:0.93000001;stroke-miterlimit:4;stroke-opacity:1;stroke-dasharray:none"
       d="m 24.515198,859.2016 c -5.2572,0.044 -10.105859,3.5115 -9.707115,8.2332 0.368758,4.3666 0.259848,3.6874 1.80303,7.2312 -0.0055,1.4562 0.332123,2.9797 0.332123,4.6352 0,5.5771 3.721462,10.0985 8.325859,10.0985 4.604397,0 8.587371,-3.8255 8.456631,-9.4011 -0.0438,-1.867 -0.09255,-3.4254 -0.159833,-4.9548 1.375956,-3.0633 1.481169,-5.9361 1.034413,-8.8383 -1.005976,-6.5349 -5.839472,-7.0397 -10.085108,-7.0039 z"
       id="path2985-6-6-0-8-7-5-9-7-2-7"
       inkscape:connector-curvature="0"
       sodipodi:nodetypes="sscssccss" />
    <path
       style="fill:#333333;stroke:#000000;stroke-width:0.93000001;stroke-linecap:round;stroke-linejoin:miter;stroke-miterlimit:4;stroke-opacity:1;stroke-dasharray:none"
       d="m 17.8974,882.3859 c 0.259443,1.253 -1.129243,4.6721 -1.542788,5.903 -0.591076,1.7594 0.469442,2.1238 1.782669,2.5293 0.787359,0.2436 2.334647,0.9021 2.828357,-0.5304 0.523301,-1.3074 0.184512,-1.151 1.17143,-2.2392"
       id="path4025-5-4-4-6-7-0-2-3-4-7"
       inkscape:connector-curvature="0"
       sodipodi:nodetypes="csscc" />
    <g
       id="g4319-3-9-9-41"
       transform="matrix(0.38429338,-0.089728,0.089728,0.38429338,-199.85006,831.15382)"
       style="stroke-width:2.35648537;stroke-miterlimit:4;stroke-dasharray:none">
      <path
         sodipodi:nodetypes="ssssss"
         inkscape:connector-curvature="0"
         id="path4029-4-1-1-0-0-8"
         d="m 526.60758,225.66459 c 1.30376,7.17526 8.90089,4.97545 13.86986,4.54096 5.62963,-0.49226 11.99791,2.60399 13.60797,-3.16891 2.50066,-8.96618 -7.10574,-7.93813 -12.22627,-6.72513 -5.04069,1.19408 -11.83708,-4.38075 -15.28916,1.71943 -0.6144,1.08571 -0.18761,2.3942 0.0376,3.63365 z"
         style="fill:#e9c6af;stroke:#000000;stroke-width:2.35664034;stroke-linecap:butt;stroke-linejoin:miter;stroke-miterlimit:4;stroke-opacity:1;stroke-dasharray:none" />
      <path
         sodipodi:nodetypes="ccccsc"
         inkscape:connector-curvature="0"
         id="path4057-1-3-8-2-8-5"
         d="m 534.79163,223.66006 c -0.59064,0.27049 -1.0959,0.45531 -1.0883,1.20853 -0.005,0.71731 0.3195,1.50206 1.05833,1.72765 0.78323,0.44034 1.56627,-0.23349 1.91594,-0.9075 0.50579,-0.57716 0.47437,-1.12937 -0.19001,-1.87723 -0.32743,-0.36861 -1.16436,-0.42005 -1.69596,-0.15145 z"
         style="fill:#000000;fill-opacity:1;stroke:#000000;stroke-width:2.05121613;stroke-linecap:butt;stroke-linejoin:miter;stroke-miterlimit:4;stroke-opacity:1;stroke-dasharray:none" />
      <path
         sodipodi:nodetypes="csc"
         inkscape:connector-curvature="0"
         id="path4066-9-2-6-8-2-5"
         d="m 547.21449,223.73922 c -1.80654,0.51355 -1.91033,3.01092 0.39052,2.86663 1.67437,-0.10501 1.20599,-3.15557 -0.39052,-2.86663 z"
         style="fill:#000000;fill-opacity:1;stroke:#000000;stroke-width:2.08680105;stroke-linecap:butt;stroke-linejoin:miter;stroke-miterlimit:4;stroke-opacity:1;stroke-dasharray:none" />
    </g>
    <path
       style="fill:#333333;stroke:#000000;stroke-width:0.93000001;stroke-linecap:round;stroke-linejoin:miter;stroke-miterlimit:4;stroke-opacity:1;stroke-dasharray:none"
       d="m 17.510079,874.9183 c -0.98261,0.6191 -1.9015,1.3332 -2.88805,1.9406 -1.39982,1.0842 -2.36684,2.6219 -3.09881,4.2067 -0.7358,1.6819 0.95398,1.9369 2.01548,2.3131 1.43581,0.5913 2.57868,-1.1932 3.54285,-2.0487 0.67694,-0.3546 1.24296,-1.2727 2.10697,-1.0149"
       id="path4051-8-1-8-8-3-8-0-3-0-5-1"
       inkscape:connector-curvature="0"
       sodipodi:nodetypes="cccccc" />
    <path
       style="fill:#333333;stroke:#000000;stroke-width:0.93000001;stroke-linecap:butt;stroke-linejoin:miter;stroke-miterlimit:4;stroke-opacity:1;stroke-dasharray:none"
       d="m 80.848512,880.8287 c 0.73445,1.1477 2.923737,4.4966 3.722883,6.0683 0.492073,0.7309 -0.934318,1.8484 -1.92969,2.3261 -0.721664,0.3462 -1.483607,1.0661 -2.178375,0.1166 -0.792118,-1.1642 -0.55615,-1.7413 -1.753919,-2.592"
       id="path4025-7-2-5-8-9-4-7-8-1-0-1-6"
       inkscape:connector-curvature="0"
       sodipodi:nodetypes="ccscc" />
    <path
       style="fill:#333333;stroke:#000000;stroke-width:0.93000001;stroke-miterlimit:4;stroke-opacity:1;stroke-dasharray:none"
       d="m 74.515198,859.2016 c -5.2572,0.044 -10.105859,3.5115 -9.707115,8.2332 0.368758,4.3666 0.259848,3.6874 1.80303,7.2312 -0.0055,1.4562 0.332123,2.9797 0.332123,4.6352 0,5.5771 3.721462,10.0985 8.325859,10.0985 4.604397,0 8.587371,-3.8255 8.456631,-9.4011 -0.0438,-1.867 -0.09255,-3.4254 -0.159833,-4.9548 1.375956,-3.0633 1.481169,-5.9361 1.034413,-8.8383 -1.005976,-6.5349 -5.839472,-7.0397 -10.085108,-7.0039 z"
       id="path2985-6-6-0-8-7-5-9-7-2-7-9"
       inkscape:connector-curvature="0"
       sodipodi:nodetypes="sscssccss" />
    <path
       style="fill:#333333;stroke:#000000;stroke-width:0.93000001;stroke-linecap:round;stroke-linejoin:miter;stroke-miterlimit:4;stroke-opacity:1;stroke-dasharray:none"
       d="m 67.476169,881.661 c 0.175604,1.2675 -1.437458,4.5867 -1.931926,5.7874 -0.706796,1.7161 0.32711,2.1503 1.610483,2.6422 0.76941,0.2955 2.269423,1.0554 2.857355,-0.3409 0.609134,-1.2697 0.260709,-1.1362 1.317771,-2.1563"
       id="path4025-5-4-4-6-7-0-2-3-4-7-9"
       inkscape:connector-curvature="0"
       sodipodi:nodetypes="csscc" />
    <path
       style="fill:#333333;stroke:#000000;stroke-width:0.93000001;stroke-linecap:round;stroke-linejoin:miter;stroke-miterlimit:4;stroke-opacity:1;stroke-dasharray:none"
       d="m 131.40597,872.7207 c 1.90751,-0.073 3.57912,-1.0784 5.39231,-1.5177 2.22688,-0.651 2.55401,2.1876 1.53458,3.5353 -0.84904,1.6067 -2.78685,1.7844 -4.36615,2.1212 -0.32212,0.1 -0.63294,0.2432 -0.90454,0.4447"
       id="path4336-7-3-8-1-7-7-8"
       inkscape:connector-curvature="0" />
    <path
       style="fill:#333333;stroke:#000000;stroke-width:0.93000001;stroke-linecap:butt;stroke-linejoin:miter;stroke-miterlimit:4;stroke-opacity:1;stroke-dasharray:none"
       d="m 131.536,880.5787 c 0.73445,1.1477 2.92374,4.4966 3.72289,6.0683 0.49207,0.7309 -0.93432,1.8484 -1.92969,2.3261 -0.72167,0.3462 -1.48361,1.0661 -2.17838,0.1166 -0.79212,-1.1642 -0.55615,-1.7413 -1.75392,-2.592"
       id="path4025-7-2-5-8-9-4-7-8-1-0-1-6-9"
       inkscape:connector-curvature="0"
       sodipodi:nodetypes="ccscc" />
    <path
       style="fill:#333333;stroke:#000000;stroke-width:0.93000001;stroke-miterlimit:4;stroke-opacity:1;stroke-dasharray:none"
       d="m 124.51519,859.2016 c -5.2572,0.044 -10.10586,3.5115 -9.70712,8.2332 0.36876,4.3666 0.25985,3.6874 1.80303,7.2312 -0.005,1.4562 0.33213,2.9797 0.33213,4.6352 0,5.5771 3.72146,10.0985 8.32586,10.0985 4.60439,0 8.58737,-3.8255 8.45663,-9.4011 -0.0438,-1.867 -0.0925,-3.4254 -0.15984,-4.9548 1.37596,-3.0633 1.48117,-5.9361 1.03442,-8.8383 -1.00598,-6.5349 -5.83948,-7.0397 -10.08511,-7.0039 z"
       id="path2985-6-6-0-8-7-5-9-7-2-7-9-8"
       inkscape:connector-curvature="0"
       sodipodi:nodetypes="sscssccss" />
    <path
       style="fill:#333333;stroke:#000000;stroke-width:0.93000001;stroke-linecap:round;stroke-linejoin:miter;stroke-miterlimit:4;stroke-opacity:1;stroke-dasharray:none"
       d="m 117.69912,880.7475 c 0.006,1.2796 -2.0329,4.3556 -2.68219,5.4801 -0.9281,1.6073 0.0391,2.1747 1.24594,2.8324 0.72344,0.3949 2.10945,1.347 2.87732,0.041 0.7721,-1.1777 0.40905,-1.0916 1.59204,-1.9626"
       id="path4025-5-4-4-6-7-0-2-3-4-7-9-5"
       inkscape:connector-curvature="0"
       sodipodi:nodetypes="csscc" />
    <g
       id="g4319-3-9-9-41-2-6"
       transform="matrix(0.38384969,0.09160749,-0.09160749,0.38384969,-59.555525,735.36997)"
       style="stroke-width:2.35648537;stroke-miterlimit:4;stroke-dasharray:none">
      <path
         sodipodi:nodetypes="ssssss"
         inkscape:connector-curvature="0"
         id="path4029-4-1-1-0-0-8-4-4"
         d="m 526.60758,225.66459 c 1.30376,7.17526 8.90089,4.97545 13.86986,4.54096 5.62963,-0.49226 11.99791,2.60399 13.60797,-3.16891 2.50066,-8.96618 -7.10574,-7.93813 -12.22627,-6.72513 -5.04069,1.19408 -11.83708,-4.38075 -15.28916,1.71943 -0.6144,1.08571 -0.18761,2.3942 0.0376,3.63365 z"
         style="fill:#e9c6af;stroke:#000000;stroke-width:2.35664034;stroke-linecap:butt;stroke-linejoin:miter;stroke-miterlimit:4;stroke-opacity:1;stroke-dasharray:none" />
      <path
         sodipodi:nodetypes="ccccsc"
         inkscape:connector-curvature="0"
         id="path4057-1-3-8-2-8-5-8-4"
         d="m 534.79163,223.66006 c -0.59064,0.27049 -1.0959,0.45531 -1.0883,1.20853 -0.005,0.71731 0.3195,1.50206 1.05833,1.72765 0.78323,0.44034 1.56627,-0.23349 1.91594,-0.9075 0.50579,-0.57716 0.47437,-1.12937 -0.19001,-1.87723 -0.32743,-0.36861 -1.16436,-0.42005 -1.69596,-0.15145 z"
         style="fill:#000000;fill-opacity:1;stroke:#000000;stroke-width:2.05121613;stroke-linecap:butt;stroke-linejoin:miter;stroke-miterlimit:4;stroke-opacity:1;stroke-dasharray:none" />
      <path
         sodipodi:nodetypes="csc"
         inkscape:connector-curvature="0"
         id="path4066-9-2-6-8-2-5-7-8"
         d="m 547.21449,223.73922 c -1.80654,0.51355 -1.91033,3.01092 0.39052,2.86663 1.67437,-0.10501 1.20599,-3.15557 -0.39052,-2.86663 z"
         style="fill:#000000;fill-opacity:1;stroke:#000000;stroke-width:2.08680105;stroke-linecap:butt;stroke-linejoin:miter;stroke-miterlimit:4;stroke-opacity:1;stroke-dasharray:none" />
    </g>
    <path
       style="fill:#333333;stroke:#000000;stroke-width:0.93000001;stroke-linecap:round;stroke-linejoin:miter;stroke-miterlimit:4;stroke-opacity:1;stroke-dasharray:none"
       d="m 120.63453,873.9285 c -1.02197,-0.5517 -2.09538,-1.0013 -3.10909,-1.5622 -1.63203,-0.6866 -3.44645,-0.7734 -5.18642,-0.6324 -1.82642,0.1853 -1.21839,1.7824 -1.02458,2.8918 0.19034,1.5411 2.30611,1.6599 3.52492,2.0794 0.64142,0.4154 1.71916,0.4574 1.91908,1.3366"
       id="path4051-8-1-8-8-3-8-0-3-0-5-1-5-1"
       inkscape:connector-curvature="0"
       sodipodi:nodetypes="cccccc" />
    <path
       style="fill:#333333;stroke:#000000;stroke-width:0.93000001;stroke-linecap:round;stroke-linejoin:miter;stroke-miterlimit:4;stroke-opacity:1;stroke-dasharray:none"
       d="m 69.575566,874.0524 c -1.153424,0.1357 -2.290238,0.3846 -3.442181,0.5081 -1.730231,0.3759 -3.265083,1.3474 -4.608064,2.4627 -1.388244,1.2012 0.02711,2.1589 0.823216,2.9555 1.041336,1.1518 2.841163,0.033 4.079724,-0.3238 0.763657,-0.029 1.669812,-0.6135 2.338646,-0.01"
       id="path4051-8-1-8-8-3-8-0-3-0-5-1-8"
       inkscape:connector-curvature="0"
       sodipodi:nodetypes="cccccc" />
    <g
       id="g4319-3-9-9-1"
       transform="matrix(0.39462959,0,0,0.39462959,-135.24884,781.45766)"
       style="stroke-width:2.35648537;stroke-miterlimit:4;stroke-dasharray:none">
      <path
         sodipodi:nodetypes="ssssss"
         inkscape:connector-curvature="0"
         id="path4029-4-1-1-0-0-88"
         d="m 526.60758,225.66459 c 1.30376,7.17526 8.90089,4.97545 13.86986,4.54096 5.62963,-0.49226 11.99791,2.60399 13.60797,-3.16891 2.50066,-8.96618 -7.10574,-7.93813 -12.22627,-6.72513 -5.04069,1.19408 -11.83708,-4.38075 -15.28916,1.71943 -0.6144,1.08571 -0.18761,2.3942 0.0376,3.63365 z"
         style="fill:#e9c6af;stroke:#000000;stroke-width:2.35664034;stroke-linecap:butt;stroke-linejoin:miter;stroke-miterlimit:4;stroke-opacity:1;stroke-dasharray:none" />
      <path
         sodipodi:nodetypes="ccccsc"
         inkscape:connector-curvature="0"
         id="path4057-1-3-8-2-8-47"
         d="m 534.79163,223.66006 c -0.59064,0.27049 -1.0959,0.45531 -1.0883,1.20853 -0.005,0.71731 0.3195,1.50206 1.05833,1.72765 0.78323,0.44034 1.56627,-0.23349 1.91594,-0.9075 0.50579,-0.57716 0.47437,-1.12937 -0.19001,-1.87723 -0.32743,-0.36861 -1.16436,-0.42005 -1.69596,-0.15145 z"
         style="fill:#000000;fill-opacity:1;stroke:#000000;stroke-width:2.05121613;stroke-linecap:butt;stroke-linejoin:miter;stroke-miterlimit:4;stroke-opacity:1;stroke-dasharray:none" />
      <path
         sodipodi:nodetypes="csc"
         inkscape:connector-curvature="0"
         id="path4066-9-2-6-8-2-70"
         d="m 547.21449,223.73922 c -1.80654,0.51355 -1.91033,3.01092 0.39052,2.86663 1.67437,-0.10501 1.20599,-3.15557 -0.39052,-2.86663 z"
         style="fill:#000000;fill-opacity:1;stroke:#000000;stroke-width:2.08680105;stroke-linecap:butt;stroke-linejoin:miter;stroke-miterlimit:4;stroke-opacity:1;stroke-dasharray:none" />
    </g>
    <path
       style="fill:#333333;stroke:#000000;stroke-width:0.93000001;stroke-miterlimit:4;stroke-opacity:1;stroke-dasharray:none"
       d="m 21.629645,912.0918 c -5.22898,0.5457 -9.72442,4.4602 -8.87669,9.1224 0.78398,4.3114 0.61072,3.6456 2.4852,7.026 0.13356,1.45 0.6151,2.9343 0.77316,4.5823 0.53248,5.5516 4.66863,9.697 9.25198,9.2574 4.58337,-0.4396 8.18291,-4.628 7.52043,-10.1656 -0.22186,-1.8542 -0.41917,-3.4009 -0.63217,-4.9169 1.07719,-3.1806 0.90764,-6.0503 0.18584,-8.8967 -1.62531,-6.409 -6.48492,-6.45 -10.70775,-6.0089 z"
       id="path2985-6-6-0-8-7-5-9-4"
       inkscape:connector-curvature="0"
       sodipodi:nodetypes="sscssccss" />
    <path
       style="fill:#333333;stroke:#000000;stroke-width:0.93000001;stroke-linecap:round;stroke-linejoin:miter;stroke-miterlimit:4;stroke-opacity:1;stroke-dasharray:none"
       d="m 27.120775,941.4022 c 1.19204,-0.4649 4.79513,0.3338 6.07775,0.5361 1.83333,0.2893 2.01568,-0.8172 2.19642,-2.1797 0.10872,-0.8169 0.49977,-2.4524 -0.99526,-2.7001 -1.37638,-0.2978 -1.16561,0.01 -2.40323,-0.7814"
       id="path4025-5-4-4-6-7-0-2-39"
       inkscape:connector-curvature="0"
       sodipodi:nodetypes="csscc" />
    <g
       id="g4319-3-7"
       transform="matrix(0.38612773,-0.08147321,0.08147321,0.38612773,-200.65884,879.73994)"
       style="stroke-width:2.35648537;stroke-miterlimit:4;stroke-dasharray:none">
      <path
         sodipodi:nodetypes="ssssss"
         inkscape:connector-curvature="0"
         id="path4029-4-1-1-4"
         d="m 526.60758,225.66459 c 1.30376,7.17526 8.90089,4.97545 13.86986,4.54096 5.62963,-0.49226 11.99791,2.60399 13.60797,-3.16891 2.50066,-8.96618 -7.10574,-7.93813 -12.22627,-6.72513 -5.04069,1.19408 -11.83708,-4.38075 -15.28916,1.71943 -0.6144,1.08571 -0.18761,2.3942 0.0376,3.63365 z"
         style="fill:#e9c6af;stroke:#000000;stroke-width:2.35664034;stroke-linecap:butt;stroke-linejoin:miter;stroke-miterlimit:4;stroke-opacity:1;stroke-dasharray:none" />
      <path
         sodipodi:nodetypes="ccccsc"
         inkscape:connector-curvature="0"
         id="path4057-1-3-8-1"
         d="m 534.79163,223.66006 c -0.59064,0.27049 -1.0959,0.45531 -1.0883,1.20853 -0.005,0.71731 0.3195,1.50206 1.05833,1.72765 0.78323,0.44034 1.56627,-0.23349 1.91594,-0.9075 0.50579,-0.57716 0.47437,-1.12937 -0.19001,-1.87723 -0.32743,-0.36861 -1.16436,-0.42005 -1.69596,-0.15145 z"
         style="fill:#000000;fill-opacity:1;stroke:#000000;stroke-width:2.05121613;stroke-linecap:butt;stroke-linejoin:miter;stroke-miterlimit:4;stroke-opacity:1;stroke-dasharray:none" />
      <path
         sodipodi:nodetypes="csc"
         inkscape:connector-curvature="0"
         id="path4066-9-2-6-7"
         d="m 547.21449,223.73922 c -1.80654,0.51355 -1.91033,3.01092 0.39052,2.86663 1.67437,-0.10501 1.20599,-3.15557 -0.39052,-2.86663 z"
         style="fill:#000000;fill-opacity:1;stroke:#000000;stroke-width:2.08680105;stroke-linecap:butt;stroke-linejoin:miter;stroke-miterlimit:4;stroke-opacity:1;stroke-dasharray:none" />
    </g>
    <path
       style="fill:#333333;stroke:#000000;stroke-width:0.93000001;stroke-linecap:round;stroke-linejoin:miter;stroke-miterlimit:4;stroke-opacity:1;stroke-dasharray:none"
       d="m 29.019945,933.8643 c 1.13655,-0.239 2.24636,-0.5892 3.38249,-0.8158 1.68937,-0.53 3.13057,-1.6357 4.36775,-2.8673 1.27452,-1.3213 -0.22129,-2.1477 -1.08586,-2.8694 -1.14074,-1.0536 -2.83262,0.2225 -4.03402,0.6895 -0.75799,0.097 -1.60784,0.7614 -2.32836,0.2193"
       id="path4051-8-1-8-8-3-8-0-1"
       inkscape:connector-curvature="0"
       sodipodi:nodetypes="cccccc" />
    <path
       style="fill:#333333;stroke:#000000;stroke-width:0.93000001;stroke-miterlimit:4;stroke-opacity:1;stroke-dasharray:none"
       d="m 121.62964,912.0918 c -5.22898,0.5457 -9.72442,4.4602 -8.87669,9.1224 0.78398,4.3114 0.61072,3.6456 2.4852,7.026 0.13356,1.45 0.6151,2.9343 0.77316,4.5823 0.53248,5.5516 4.66863,9.697 9.25198,9.2574 4.58337,-0.4396 8.18291,-4.628 7.52043,-10.1656 -0.22186,-1.8542 -0.41917,-3.4009 -0.63217,-4.9169 1.07719,-3.1806 0.90764,-6.0503 0.18584,-8.8967 -1.62531,-6.409 -6.48492,-6.45 -10.70775,-6.0089 z"
       id="path2985-6-6-0-8-7-5-9-4-5"
       inkscape:connector-curvature="0"
       sodipodi:nodetypes="sscssccss" />
    <path
       style="fill:#333333;stroke:#000000;stroke-width:0.93000001;stroke-linecap:round;stroke-linejoin:miter;stroke-miterlimit:4;stroke-opacity:1;stroke-dasharray:none"
       d="m 127.12077,941.4022 c 1.19204,-0.4649 4.79513,0.3338 6.07775,0.5361 1.83333,0.2892 2.01568,-0.8172 2.19642,-2.1797 0.10872,-0.817 0.49977,-2.4524 -0.99526,-2.7001 -1.37638,-0.2978 -1.16561,0.01 -2.40323,-0.7814"
       id="path4025-5-4-4-6-7-0-2-39-5"
       inkscape:connector-curvature="0"
       sodipodi:nodetypes="csscc" />
    <g
       id="g4319-3-7-1"
       transform="matrix(-0.37225468,0.13099224,0.13099224,0.37225468,293.43537,768.88736)"
       style="stroke-width:2.35648537;stroke-miterlimit:4;stroke-dasharray:none">
      <path
         sodipodi:nodetypes="ssssss"
         inkscape:connector-curvature="0"
         id="path4029-4-1-1-4-2"
         d="m 526.60758,225.66459 c 1.30376,7.17526 8.90089,4.97545 13.86986,4.54096 5.62963,-0.49226 11.99791,2.60399 13.60797,-3.16891 2.50066,-8.96618 -7.10574,-7.93813 -12.22627,-6.72513 -5.04069,1.19408 -11.83708,-4.38075 -15.28916,1.71943 -0.6144,1.08571 -0.18761,2.3942 0.0376,3.63365 z"
         style="fill:#e9c6af;stroke:#000000;stroke-width:2.35664034;stroke-linecap:butt;stroke-linejoin:miter;stroke-miterlimit:4;stroke-opacity:1;stroke-dasharray:none" />
      <path
         sodipodi:nodetypes="ccccsc"
         inkscape:connector-curvature="0"
         id="path4057-1-3-8-1-6"
         d="m 534.79163,223.66006 c -0.59064,0.27049 -1.0959,0.45531 -1.0883,1.20853 -0.005,0.71731 0.3195,1.50206 1.05833,1.72765 0.78323,0.44034 1.56627,-0.23349 1.91594,-0.9075 0.50579,-0.57716 0.47437,-1.12937 -0.19001,-1.87723 -0.32743,-0.36861 -1.16436,-0.42005 -1.69596,-0.15145 z"
         style="fill:#000000;fill-opacity:1;stroke:#000000;stroke-width:2.05121613;stroke-linecap:butt;stroke-linejoin:miter;stroke-miterlimit:4;stroke-opacity:1;stroke-dasharray:none" />
      <path
         sodipodi:nodetypes="csc"
         inkscape:connector-curvature="0"
         id="path4066-9-2-6-7-6"
         d="m 547.21449,223.73922 c -1.80654,0.51355 -1.91033,3.01092 0.39052,2.86663 1.67437,-0.10501 1.20599,-3.15557 -0.39052,-2.86663 z"
         style="fill:#000000;fill-opacity:1;stroke:#000000;stroke-width:2.08680105;stroke-linecap:butt;stroke-linejoin:miter;stroke-miterlimit:4;stroke-opacity:1;stroke-dasharray:none" />
    </g>
    <path
       style="fill:#333333;stroke:#000000;stroke-width:0.93000001;stroke-linecap:round;stroke-linejoin:miter;stroke-miterlimit:4;stroke-opacity:1;stroke-dasharray:none"
       d="m 129.01994,933.8643 c 1.13655,-0.239 2.24636,-0.5892 3.38249,-0.8158 1.68937,-0.53 3.13057,-1.6357 4.36775,-2.8673 1.27452,-1.3213 -0.22129,-2.1477 -1.08586,-2.8694 -1.14074,-1.0536 -2.83262,0.2225 -4.03402,0.6895 -0.75799,0.097 -1.60784,0.7614 -2.32836,0.2193"
       id="path4051-8-1-8-8-3-8-0-1-8"
       inkscape:connector-curvature="0"
       sodipodi:nodetypes="cccccc" />
    <path
       style="fill:#333333;stroke:#000000;stroke-width:0.93000001;stroke-miterlimit:4;stroke-opacity:1;stroke-dasharray:none"
       d="m 71.629645,912.0918 c -5.22898,0.5457 -9.72442,4.4602 -8.87669,9.1224 0.78398,4.3114 0.61072,3.6456 2.4852,7.026 0.13356,1.45 0.6151,2.9343 0.77316,4.5823 0.53248,5.5516 4.66863,9.697 9.25198,9.2574 4.58337,-0.4396 8.18291,-4.628 7.52043,-10.1656 -0.22186,-1.8542 -0.41917,-3.4009 -0.63217,-4.9169 1.07719,-3.1806 0.90764,-6.0503 0.18584,-8.8967 -1.62531,-6.409 -6.48492,-6.45 -10.70775,-6.0089 z"
       id="path2985-6-6-0-8-7-5-9-4-55"
       inkscape:connector-curvature="0"
       sodipodi:nodetypes="sscssccss" />
    <path
       style="fill:#333333;stroke:#000000;stroke-width:0.93000001;stroke-linecap:round;stroke-linejoin:miter;stroke-miterlimit:4;stroke-opacity:1;stroke-dasharray:none"
       d="m 77.120775,941.4022 c 1.19204,-0.4649 4.79513,0.3338 6.07775,0.5361 1.83333,0.2893 2.01568,-0.8172 2.19642,-2.1797 0.10872,-0.8169 0.49977,-2.4524 -0.99526,-2.7001 -1.37638,-0.2978 -1.16561,0.01 -2.40323,-0.7814"
       id="path4025-5-4-4-6-7-0-2-39-2"
       inkscape:connector-curvature="0"
       sodipodi:nodetypes="csscc" />
    <g
       id="g4319-3-7-6"
       transform="matrix(0.38612773,-0.08147321,0.08147321,0.38612773,-153.66404,880.27027)"
       style="stroke-width:2.35648537;stroke-miterlimit:4;stroke-dasharray:none">
      <path
         sodipodi:nodetypes="ssssss"
         inkscape:connector-curvature="0"
         id="path4029-4-1-1-4-4"
         d="m 526.60758,225.66459 c 1.30376,7.17526 8.90089,4.97545 13.86986,4.54096 5.62963,-0.49226 11.99791,2.60399 13.60797,-3.16891 2.50066,-8.96618 -7.10574,-7.93813 -12.22627,-6.72513 -5.04069,1.19408 -11.83708,-4.38075 -15.28916,1.71943 -0.6144,1.08571 -0.18761,2.3942 0.0376,3.63365 z"
         style="fill:#e9c6af;stroke:#000000;stroke-width:2.35664034;stroke-linecap:butt;stroke-linejoin:miter;stroke-miterlimit:4;stroke-opacity:1;stroke-dasharray:none" />
      <path
         sodipodi:nodetypes="ccccsc"
         inkscape:connector-curvature="0"
         id="path4057-1-3-8-1-0"
         d="m 534.79163,223.66006 c -0.59064,0.27049 -1.0959,0.45531 -1.0883,1.20853 -0.005,0.71731 0.3195,1.50206 1.05833,1.72765 0.78323,0.44034 1.56627,-0.23349 1.91594,-0.9075 0.50579,-0.57716 0.47437,-1.12937 -0.19001,-1.87723 -0.32743,-0.36861 -1.16436,-0.42005 -1.69596,-0.15145 z"
         style="fill:#000000;fill-opacity:1;stroke:#000000;stroke-width:2.05121613;stroke-linecap:butt;stroke-linejoin:miter;stroke-miterlimit:4;stroke-opacity:1;stroke-dasharray:none" />
      <path
         sodipodi:nodetypes="csc"
         inkscape:connector-curvature="0"
         id="path4066-9-2-6-7-0"
         d="m 547.21449,223.73922 c -1.80654,0.51355 -1.91033,3.01092 0.39052,2.86663 1.67437,-0.10501 1.20599,-3.15557 -0.39052,-2.86663 z"
         style="fill:#000000;fill-opacity:1;stroke:#000000;stroke-width:2.08680105;stroke-linecap:butt;stroke-linejoin:miter;stroke-miterlimit:4;stroke-opacity:1;stroke-dasharray:none" />
    </g>
    <path
       style="fill:#333333;stroke:#000000;stroke-width:0.93000001;stroke-linecap:round;stroke-linejoin:miter;stroke-miterlimit:4;stroke-opacity:1;stroke-dasharray:none"
       d="m 79.019945,933.8643 c 1.13655,-0.239 2.24636,-0.5892 3.38249,-0.8158 1.68937,-0.53 3.13057,-1.6357 4.36775,-2.8673 1.27452,-1.3213 -0.22129,-2.1477 -1.08586,-2.8694 -1.14074,-1.0536 -2.83262,0.2225 -4.03402,0.6895 -0.75799,0.097 -1.60784,0.7614 -2.32836,0.2193"
       id="path4051-8-1-8-8-3-8-0-1-1"
       inkscape:connector-curvature="0"
       sodipodi:nodetypes="cccccc" />
    <path
       style="fill:#333333;stroke:#000000;stroke-width:0.93000001;stroke-linecap:round;stroke-linejoin:miter;stroke-miterlimit:4;stroke-opacity:1;stroke-dasharray:none"
       d="m 168.48922,826.47886 c -1.456,1.23459 -3.36765,1.62246 -5.00141,2.52321 -2.08184,1.02415 -0.40563,3.33824 1.25638,3.64345 1.71136,0.6113 3.26031,-0.56661 4.6524,-1.38504 0.30478,-0.14418 0.63098,-0.2482 0.96738,-0.28307"
       id="path4336-7-3-6"
       inkscape:connector-curvature="0" />
    <path
       style="fill:#333333;stroke:#000000;stroke-width:0.93000001;stroke-linecap:butt;stroke-linejoin:miter;stroke-miterlimit:4;stroke-opacity:1;stroke-dasharray:none"
       d="m 167.09536,833.24237 c -0.77893,1.11788 -3.098,4.37831 -3.95818,5.91753 -0.52042,0.71104 0.86102,1.8836 1.83696,2.39998 0.70746,0.37422 1.44059,1.1236 2.17211,0.20201 0.83718,-1.13225 0.62403,-1.71821 1.85429,-2.52109"
       id="path4025-7-2-5-8-9-4-7-8-1-2"
       inkscape:connector-curvature="0"
       sodipodi:nodetypes="ccscc" />
    <path
       style="fill:#333333;stroke:#000000;stroke-width:0.93000001;stroke-miterlimit:4;stroke-opacity:1;stroke-dasharray:none"
       d="m 178.33077,811.47878 c -5.09509,-1.29624 -10.66692,0.8222 -11.48374,5.48977 -0.75538,4.31655 -0.68774,3.63201 -0.0979,7.45195 -0.37567,1.40692 -0.43762,2.96605 -0.85921,4.56697 -1.42025,5.39323 1.02711,10.71326 5.4797,11.8858 4.4526,1.17255 9.27846,-1.51254 10.5719,-6.93761 0.43309,-1.8166 0.78285,-3.33603 1.10721,-4.83215 2.11068,-2.61191 2.944,-5.36321 3.25105,-8.28349 0.69135,-6.57564 -3.85425,-8.29468 -7.96902,-9.34124 z"
       id="path2985-6-6-0-8-7-5-9-7-8"
       inkscape:connector-curvature="0"
       sodipodi:nodetypes="sscssccss" />
    <g
       id="g4319-3-9-3"
       transform="matrix(0.38161919,0.10049532,-0.10049532,0.38161919,-4.7195768,682.88001)"
       style="stroke-width:2.35648537;stroke-miterlimit:4;stroke-dasharray:none">
      <path
         sodipodi:nodetypes="ssssss"
         inkscape:connector-curvature="0"
         id="path4029-4-1-1-0-2"
         d="m 526.60758,225.66459 c 1.30376,7.17526 8.90089,4.97545 13.86986,4.54096 5.62963,-0.49226 11.99791,2.60399 13.60797,-3.16891 2.50066,-8.96618 -7.10574,-7.93813 -12.22627,-6.72513 -5.04069,1.19408 -11.83708,-4.38075 -15.28916,1.71943 -0.6144,1.08571 -0.18761,2.3942 0.0376,3.63365 z"
         style="fill:#e9c6af;stroke:#000000;stroke-width:2.35664034;stroke-linecap:butt;stroke-linejoin:miter;stroke-miterlimit:4;stroke-opacity:1;stroke-dasharray:none" />
      <path
         sodipodi:nodetypes="ccccsc"
         inkscape:connector-curvature="0"
         id="path4057-1-3-8-2-20"
         d="m 534.79163,223.66006 c -0.59064,0.27049 -1.0959,0.45531 -1.0883,1.20853 -0.005,0.71731 0.3195,1.50206 1.05833,1.72765 0.78323,0.44034 1.56627,-0.23349 1.91594,-0.9075 0.50579,-0.57716 0.47437,-1.12937 -0.19001,-1.87723 -0.32743,-0.36861 -1.16436,-0.42005 -1.69596,-0.15145 z"
         style="fill:#000000;fill-opacity:1;stroke:#000000;stroke-width:2.05121613;stroke-linecap:butt;stroke-linejoin:miter;stroke-miterlimit:4;stroke-opacity:1;stroke-dasharray:none" />
      <path
         sodipodi:nodetypes="csc"
         inkscape:connector-curvature="0"
         id="path4066-9-2-6-8-39"
         d="m 547.21449,223.73922 c -1.80654,0.51355 -1.91033,3.01092 0.39052,2.86663 1.67437,-0.10501 1.20599,-3.15557 -0.39052,-2.86663 z"
         style="fill:#000000;fill-opacity:1;stroke:#000000;stroke-width:2.08680105;stroke-linecap:butt;stroke-linejoin:miter;stroke-miterlimit:4;stroke-opacity:1;stroke-dasharray:none" />
    </g>
    <path
       style="fill:#333333;stroke:#000000;stroke-width:0.93000001;stroke-linecap:round;stroke-linejoin:miter;stroke-miterlimit:4;stroke-opacity:1;stroke-dasharray:none"
       d="m 179.48062,836.8112 c -1.01619,0.77751 -2.20407,4.27153 -2.69701,5.47283 -0.70497,1.71692 -1.74495,1.29852 -3.00324,0.7456 -0.75472,-0.33115 -2.35553,-0.84599 -1.79125,-2.2522 0.46006,-1.33096 0.61382,-0.991 0.57986,-2.45968"
       id="path4025-5-4-4-6-7-0-2-3-28"
       inkscape:connector-curvature="0"
       sodipodi:nodetypes="csscc" />
    <path
       style="fill:#333333;stroke:#000000;stroke-width:0.93000001;stroke-linecap:round;stroke-linejoin:miter;stroke-miterlimit:4;stroke-opacity:1;stroke-dasharray:none"
       d="m 178.81029,828.40293 c -1.0792,0.42914 -2.11312,0.96331 -3.19405,1.38019 -1.57438,0.81005 -2.80612,2.14518 -3.81539,3.56955 -1.03076,1.51908 0.58397,2.07856 1.55884,2.64242 1.30357,0.8438 2.75332,-0.70186 3.85758,-1.36677 0.73035,-0.22491 1.45461,-1.02411 2.25695,-0.61271"
       id="path4051-8-1-8-8-3-8-0-3-72"
       inkscape:connector-curvature="0"
       sodipodi:nodetypes="cccccc" />
    <g
       transform="translate(-1.6200156e-6,-50.000006)"
       id="g4079">
      <path
         sodipodi:nodetypes="sccccccs"
         inkscape:connector-curvature="0"
         id="path4358-8-7-7-5-8-75"
         d="m 176.00153,904.60458 c 0.94152,-0.001 4.11251,5.2196 6.32962,8.1554 1.85396,2.16736 3.42942,4.6366 5.58539,6.50565 1.18852,1.20316 -0.44167,4.30908 -2.07614,3.0435 -1.04097,-1.38247 -2.0908,-2.75391 -3.24131,-4.06135 -2.3503,-2.71485 -4.14445,-5.80952 -6.14073,-8.76631 -1.02296,-1.57784 -2.25075,-2.3752 -3.06563,-4.06671 -0.10943,-1.21492 1.05614,-0.80803 2.6088,-0.81018 z"
         style="fill:#d40000;fill-opacity:1;stroke:#000000;stroke-width:1.02346015;stroke-linecap:butt;stroke-linejoin:miter;stroke-miterlimit:4;stroke-opacity:1;stroke-dasharray:none" />
      <path
         inkscape:connector-curvature="0"
         id="path4336-7-3-8-1-7-7-8-0"
         d="m 181.40597,922.7207 c 1.90751,-0.073 3.57912,-1.0784 5.39231,-1.5177 2.22688,-0.651 2.55401,2.1876 1.53458,3.5353 -0.84904,1.6067 -2.78685,1.7844 -4.36615,2.1212 -0.32212,0.1 -0.63294,0.2432 -0.90454,0.4447"
         style="fill:#333333;stroke:#000000;stroke-width:0.93000001;stroke-linecap:round;stroke-linejoin:miter;stroke-miterlimit:4;stroke-opacity:1;stroke-dasharray:none" />
      <path
         sodipodi:nodetypes="ccscc"
         inkscape:connector-curvature="0"
         id="path4025-7-2-5-8-9-4-7-8-1-8"
         d="m 178.32917,932.84005 c 1.2115,0.62343 4.78673,2.41961 6.2672,3.37736 0.79265,0.38485 0.12052,2.06756 -0.50032,2.98061 -0.4501,0.66178 -0.74733,1.66712 -1.82508,1.19498 -1.2697,-0.60886 -1.35553,-1.22645 -2.81849,-1.36028"
         style="fill:#333333;stroke:#000000;stroke-width:0.93000001;stroke-linecap:butt;stroke-linejoin:miter;stroke-miterlimit:4;stroke-opacity:1;stroke-dasharray:none" />
      <path
         sodipodi:nodetypes="sscssccss"
         inkscape:connector-curvature="0"
         id="path2985-6-6-0-8-7-5-9-7-3"
         d="m 174.5152,910.6158 c -5.2572,0.044 -10.10586,3.5115 -9.70712,8.2332 0.36876,4.3666 0.25985,3.6874 1.80303,7.2312 -0.005,1.4562 0.33213,2.9797 0.33213,4.6352 0,5.5771 3.72146,10.0985 8.32585,10.0985 4.6044,0 8.58738,-3.8255 8.45664,-9.4011 -0.0438,-1.867 -0.0925,-3.4254 -0.15984,-4.9548 1.37596,-3.0633 1.48117,-5.9361 1.03442,-8.8383 -1.00598,-6.5349 -5.83948,-7.0397 -10.08511,-7.0039 z"
         style="fill:#333333;stroke:#000000;stroke-width:0.93000001;stroke-miterlimit:4;stroke-opacity:1;stroke-dasharray:none" />
      <path
         sodipodi:nodetypes="csscc"
         inkscape:connector-curvature="0"
         id="path4025-5-4-4-6-7-0-2-3-2"
         d="m 169.0017,937.28956 c 0.44434,1.02331 3.70394,3.06346 4.62889,3.97482 1.32236,1.30236 2.11462,0.5093 3.05485,-0.49317 0.56415,-0.60084 1.83437,-1.70275 0.76338,-2.77457 -0.94561,-1.04353 -0.95357,-0.67051 -1.49887,-2.03463"
         style="fill:#333333;stroke:#000000;stroke-width:0.93000001;stroke-linecap:round;stroke-linejoin:miter;stroke-miterlimit:4;stroke-opacity:1;stroke-dasharray:none" />
      <g
         style="stroke-width:2.35648537;stroke-miterlimit:4;stroke-dasharray:none"
         transform="matrix(0.39462959,0,0,0.39462959,-35.24884,832.87187)"
         id="g4319-3-9-94">
        <path
           style="fill:#e9c6af;stroke:#000000;stroke-width:2.35664034;stroke-linecap:butt;stroke-linejoin:miter;stroke-miterlimit:4;stroke-opacity:1;stroke-dasharray:none"
           d="m 526.60758,225.66459 c 1.30376,7.17526 8.90089,4.97545 13.86986,4.54096 5.62963,-0.49226 11.99791,2.60399 13.60797,-3.16891 2.50066,-8.96618 -7.10574,-7.93813 -12.22627,-6.72513 -5.04069,1.19408 -11.83708,-4.38075 -15.28916,1.71943 -0.6144,1.08571 -0.18761,2.3942 0.0376,3.63365 z"
           id="path4029-4-1-1-0-6"
           inkscape:connector-curvature="0"
           sodipodi:nodetypes="ssssss" />
        <path
           style="fill:#000000;fill-opacity:1;stroke:#000000;stroke-width:2.05121613;stroke-linecap:butt;stroke-linejoin:miter;stroke-miterlimit:4;stroke-opacity:1;stroke-dasharray:none"
           d="m 534.79163,223.66006 c -0.59064,0.27049 -1.0959,0.45531 -1.0883,1.20853 -0.005,0.71731 0.3195,1.50206 1.05833,1.72765 0.78323,0.44034 1.56627,-0.23349 1.91594,-0.9075 0.50579,-0.57716 0.47437,-1.12937 -0.19001,-1.87723 -0.32743,-0.36861 -1.16436,-0.42005 -1.69596,-0.15145 z"
           id="path4057-1-3-8-2-2"
           inkscape:connector-curvature="0"
           sodipodi:nodetypes="ccccsc" />
        <path
           style="fill:#000000;fill-opacity:1;stroke:#000000;stroke-width:2.08680105;stroke-linecap:butt;stroke-linejoin:miter;stroke-miterlimit:4;stroke-opacity:1;stroke-dasharray:none"
           d="m 547.21449,223.73922 c -1.80654,0.51355 -1.91033,3.01092 0.39052,2.86663 1.67437,-0.10501 1.20599,-3.15557 -0.39052,-2.86663 z"
           id="path4066-9-2-6-8-9"
           inkscape:connector-curvature="0"
           sodipodi:nodetypes="csc" />
      </g>
      <path
         sodipodi:nodetypes="sccccccs"
         inkscape:connector-curvature="0"
         id="path4358-8-7-7-5-8-75-7"
         d="m 176.58609,904.99981 c 0.42431,0.79668 -5.23046,7.44592 -7.29204,10.52671 -1.47015,2.50462 -3.27316,4.78914 -4.40794,7.53965 -0.77805,1.55928 -3.90824,0.60414 -3.18154,-1.44342 0.97154,-1.44749 1.93121,-2.90163 2.81038,-4.44655 1.8348,-3.16701 4.13758,-5.83897 6.27042,-8.69089 1.14824,-1.47704 1.4404,-2.33515 2.73864,-3.61989 1.04605,-0.41832 2.70636,-0.53351 3.06208,0.13439 z"
         style="fill:#d40000;fill-opacity:1;stroke:#000000;stroke-width:1.02084744;stroke-linecap:butt;stroke-linejoin:miter;stroke-miterlimit:4;stroke-opacity:1;stroke-dasharray:none" />
      <path
         sodipodi:nodetypes="cccccc"
         inkscape:connector-curvature="0"
         id="path4051-8-1-8-8-3-8-0-3-0-5-1-5-1-9"
         d="m 170.63453,923.9285 c -1.02197,-0.5517 -2.09538,-1.0013 -3.10909,-1.5622 -1.63203,-0.6866 -3.44645,-0.7734 -5.18642,-0.6324 -1.82642,0.1853 -1.21839,1.7824 -1.02458,2.8918 0.19034,1.5411 2.30611,1.6599 3.52492,2.0794 0.64142,0.4154 1.71916,0.4574 1.91908,1.3366"
         style="fill:#333333;stroke:#000000;stroke-width:0.93000001;stroke-linecap:round;stroke-linejoin:miter;stroke-miterlimit:4;stroke-opacity:1;stroke-dasharray:none" />
    </g>
    <path
       style="fill:#333333;stroke:#000000;stroke-width:0.93000001;stroke-linecap:butt;stroke-linejoin:miter;stroke-miterlimit:4;stroke-opacity:1;stroke-dasharray:none"
       d="m 30.061419,981.5594 c 0.75801,1.1322 3.016006,4.4352 3.847436,5.9901 0.507051,0.7206 -0.895922,1.8673 -1.881287,2.3654 -0.714308,0.361 -1.461259,1.0966 -2.1755,0.1616 -0.816,-1.1476 -0.591952,-1.7295 -1.807071,-2.5552"
       id="path4025-7-2-5-8-9-4-7-8-1-0-1-5"
       inkscape:connector-curvature="0"
       sodipodi:nodetypes="ccscc" />
    <path
       style="fill:#d40000;fill-opacity:1;stroke:#000000;stroke-width:1.02346015;stroke-linecap:butt;stroke-linejoin:miter;stroke-miterlimit:4;stroke-opacity:1;stroke-dasharray:none"
       d="m 26.00153,954.6046 c 0.94152,-10e-4 4.11251,5.2196 6.32962,8.1554 1.85396,2.1673 3.42942,4.6366 5.58539,6.5056 1.18852,1.2032 -0.44167,4.3091 -2.07614,3.0435 -1.04097,-1.3824 -2.0908,-2.7539 -3.24131,-4.0613 -2.3503,-2.7149 -4.14445,-5.8095 -6.14073,-8.7663 -1.02296,-1.5779 -2.25075,-2.3752 -3.06563,-4.0667 -0.10943,-1.215 1.05614,-0.8081 2.6088,-0.8102 z"
       id="path4358-8-7-7-5-8-75-3"
       inkscape:connector-curvature="0"
       sodipodi:nodetypes="sccccccs" />
    <path
       style="fill:#333333;stroke:#000000;stroke-width:0.93000001;stroke-linecap:round;stroke-linejoin:miter;stroke-miterlimit:4;stroke-opacity:1;stroke-dasharray:none"
       d="m 31.40597,972.7207 c 1.90751,-0.073 3.57912,-1.0784 5.39231,-1.5177 2.22688,-0.651 2.55401,2.1876 1.53458,3.5353 -0.84904,1.6067 -2.78685,1.7844 -4.36615,2.1212 -0.32212,0.1 -0.63294,0.2432 -0.90454,0.4447"
       id="path4336-7-3-8-1-7-7-8-0-9"
       inkscape:connector-curvature="0" />
    <path
       style="fill:#333333;stroke:#000000;stroke-width:0.93000001;stroke-miterlimit:4;stroke-opacity:1;stroke-dasharray:none"
       d="m 24.5152,960.6158 c -5.2572,0.044 -10.10586,3.5115 -9.70712,8.2332 0.36876,4.3666 0.25985,3.6874 1.80303,7.2312 -0.005,1.4562 0.33213,2.9797 0.33213,4.6352 0,5.5771 3.72146,10.0985 8.32585,10.0985 4.6044,0 8.58738,-3.8255 8.45664,-9.4011 -0.0438,-1.867 -0.0925,-3.4254 -0.15984,-4.9548 1.37596,-3.0633 1.48117,-5.9361 1.03442,-8.8383 -1.00598,-6.5349 -5.83948,-7.0397 -10.08511,-7.0039 z"
       id="path2985-6-6-0-8-7-5-9-7-3-71"
       inkscape:connector-curvature="0"
       sodipodi:nodetypes="sscssccss" />
    <g
       id="g4319-3-9-94-1"
       transform="matrix(0.39462959,0,0,0.39462959,-185.24884,882.87187)"
       style="stroke-width:2.35648537;stroke-miterlimit:4;stroke-dasharray:none">
      <path
         sodipodi:nodetypes="ssssss"
         inkscape:connector-curvature="0"
         id="path4029-4-1-1-0-6-0"
         d="m 526.60758,225.66459 c 1.30376,7.17526 8.90089,4.97545 13.86986,4.54096 5.62963,-0.49226 11.99791,2.60399 13.60797,-3.16891 2.50066,-8.96618 -7.10574,-7.93813 -12.22627,-6.72513 -5.04069,1.19408 -11.83708,-4.38075 -15.28916,1.71943 -0.6144,1.08571 -0.18761,2.3942 0.0376,3.63365 z"
         style="fill:#e9c6af;stroke:#000000;stroke-width:2.35664034;stroke-linecap:butt;stroke-linejoin:miter;stroke-miterlimit:4;stroke-opacity:1;stroke-dasharray:none" />
      <path
         sodipodi:nodetypes="ccccsc"
         inkscape:connector-curvature="0"
         id="path4057-1-3-8-2-2-1"
         d="m 534.79163,223.66006 c -0.59064,0.27049 -1.0959,0.45531 -1.0883,1.20853 -0.005,0.71731 0.3195,1.50206 1.05833,1.72765 0.78323,0.44034 1.56627,-0.23349 1.91594,-0.9075 0.50579,-0.57716 0.47437,-1.12937 -0.19001,-1.87723 -0.32743,-0.36861 -1.16436,-0.42005 -1.69596,-0.15145 z"
         style="fill:#000000;fill-opacity:1;stroke:#000000;stroke-width:2.05121613;stroke-linecap:butt;stroke-linejoin:miter;stroke-miterlimit:4;stroke-opacity:1;stroke-dasharray:none" />
      <path
         sodipodi:nodetypes="csc"
         inkscape:connector-curvature="0"
         id="path4066-9-2-6-8-9-8"
         d="m 547.21449,223.73922 c -1.80654,0.51355 -1.91033,3.01092 0.39052,2.86663 1.67437,-0.10501 1.20599,-3.15557 -0.39052,-2.86663 z"
         style="fill:#000000;fill-opacity:1;stroke:#000000;stroke-width:2.08680105;stroke-linecap:butt;stroke-linejoin:miter;stroke-miterlimit:4;stroke-opacity:1;stroke-dasharray:none" />
    </g>
    <path
       style="fill:#d40000;fill-opacity:1;stroke:#000000;stroke-width:1.02084744;stroke-linecap:butt;stroke-linejoin:miter;stroke-miterlimit:4;stroke-opacity:1;stroke-dasharray:none"
       d="m 26.58609,954.9998 c 0.42431,0.7967 -5.23046,7.4459 -7.29204,10.5267 -1.47015,2.5046 -3.27316,4.7892 -4.40794,7.5397 -0.77805,1.5593 -3.90824,0.6041 -3.18154,-1.4434 0.97154,-1.4475 1.93121,-2.9017 2.81038,-4.4466 1.8348,-3.167 4.13758,-5.839 6.27042,-8.6909 1.14824,-1.477 1.4404,-2.3351 2.73864,-3.6199 1.04605,-0.4183 2.70636,-0.5335 3.06208,0.1344 z"
       id="path4358-8-7-7-5-8-75-7-92"
       inkscape:connector-curvature="0"
       sodipodi:nodetypes="sccccccs" />
    <path
       style="fill:#333333;stroke:#000000;stroke-width:0.93000001;stroke-linecap:round;stroke-linejoin:miter;stroke-miterlimit:4;stroke-opacity:1;stroke-dasharray:none"
       d="m 20.63453,973.9285 c -1.02197,-0.5517 -2.09538,-1.0013 -3.10909,-1.5622 -1.63203,-0.6866 -3.44645,-0.7734 -5.18642,-0.6324 -1.82642,0.1853 -1.21839,1.7824 -1.02458,2.8918 0.19034,1.5411 2.30611,1.6599 3.52492,2.0794 0.64142,0.4154 1.71916,0.4574 1.91908,1.3366"
       id="path4051-8-1-8-8-3-8-0-3-0-5-1-5-1-9-8"
       inkscape:connector-curvature="0"
       sodipodi:nodetypes="cccccc" />
    <path
       style="fill:#333333;stroke:#000000;stroke-width:0.93000001;stroke-linecap:round;stroke-linejoin:miter;stroke-miterlimit:4;stroke-opacity:1;stroke-dasharray:none"
       d="m 17.8974,982.3859 c 0.259443,1.253 -1.129243,4.6721 -1.542788,5.903 -0.591076,1.7594 0.469442,2.1238 1.782669,2.5293 0.787359,0.2436 2.334647,0.9021 2.828357,-0.5304 0.523301,-1.3074 0.184512,-1.151 1.17143,-2.2392"
       id="path4025-5-4-4-6-7-0-2-3-4-7-3"
       inkscape:connector-curvature="0"
       sodipodi:nodetypes="csscc" />
    <path
       style="fill:#333333;stroke:#000000;stroke-width:0.93000001;stroke-linecap:butt;stroke-linejoin:miter;stroke-miterlimit:4;stroke-opacity:1;stroke-dasharray:none"
       d="m 82.157771,984.2608 c 0.215433,1.3454 0.886286,5.2898 0.991753,7.0499 0.15947,0.8665 -1.59435,1.3219 -2.697705,1.3626 -0.799807,0.029 -1.785832,0.3855 -2.043921,-0.7625 -0.261679,-1.3836 0.185065,-1.8186 -0.573739,-3.0765"
       id="path4025-7-2-5-8-9-4-7-8-1-0-1-5-6"
       inkscape:connector-curvature="0"
       sodipodi:nodetypes="ccscc" />
    <path
       style="fill:#d40000;fill-opacity:1;stroke:#000000;stroke-width:1.02346015;stroke-linecap:butt;stroke-linejoin:miter;stroke-miterlimit:4;stroke-opacity:1;stroke-dasharray:none"
       d="m 76.00153,954.6046 c 0.94152,-10e-4 4.11251,5.2196 6.32962,8.1554 1.85396,2.1673 3.42942,4.6366 5.58539,6.5056 1.18852,1.2032 -0.44167,4.3091 -2.07614,3.0435 -1.04097,-1.3824 -2.0908,-2.7539 -3.24131,-4.0613 -2.3503,-2.7149 -4.14445,-5.8095 -6.14073,-8.7663 -1.02296,-1.5779 -2.25075,-2.3752 -3.06563,-4.0667 -0.10943,-1.215 1.05614,-0.8081 2.6088,-0.8102 z"
       id="path4358-8-7-7-5-8-75-8"
       inkscape:connector-curvature="0"
       sodipodi:nodetypes="sccccccs" />
    <path
       style="fill:#333333;stroke:#000000;stroke-width:0.93000001;stroke-linecap:round;stroke-linejoin:miter;stroke-miterlimit:4;stroke-opacity:1;stroke-dasharray:none"
       d="m 81.40597,972.7207 c 1.90751,-0.073 3.57912,-1.0784 5.39231,-1.5177 2.22688,-0.651 2.55401,2.1876 1.53458,3.5353 -0.84904,1.6067 -2.78685,1.7844 -4.36615,2.1212 -0.32212,0.1 -0.63294,0.2432 -0.90454,0.4447"
       id="path4336-7-3-8-1-7-7-8-0-5"
       inkscape:connector-curvature="0" />
    <path
       style="fill:#333333;stroke:#000000;stroke-width:0.93000001;stroke-miterlimit:4;stroke-opacity:1;stroke-dasharray:none"
       d="m 74.5152,960.6158 c -5.2572,0.044 -10.10586,3.5115 -9.70712,8.2332 0.36876,4.3666 0.25985,3.6874 1.80303,7.2312 -0.005,1.4562 0.33213,2.9797 0.33213,4.6352 0,5.5771 3.72146,10.0985 8.32585,10.0985 4.6044,0 8.58738,-3.8255 8.45664,-9.4011 -0.0438,-1.867 -0.0925,-3.4254 -0.15984,-4.9548 1.37596,-3.0633 1.48117,-5.9361 1.03442,-8.8383 -1.00598,-6.5349 -5.83948,-7.0397 -10.08511,-7.0039 z"
       id="path2985-6-6-0-8-7-5-9-7-3-9"
       inkscape:connector-curvature="0"
       sodipodi:nodetypes="sscssccss" />
    <g
       id="g4319-3-9-94-3"
       transform="matrix(0.39462959,0,0,0.39462959,-135.24884,882.87187)"
       style="stroke-width:2.35648537;stroke-miterlimit:4;stroke-dasharray:none">
      <path
         sodipodi:nodetypes="ssssss"
         inkscape:connector-curvature="0"
         id="path4029-4-1-1-0-6-2"
         d="m 526.60758,225.66459 c 1.30376,7.17526 8.90089,4.97545 13.86986,4.54096 5.62963,-0.49226 11.99791,2.60399 13.60797,-3.16891 2.50066,-8.96618 -7.10574,-7.93813 -12.22627,-6.72513 -5.04069,1.19408 -11.83708,-4.38075 -15.28916,1.71943 -0.6144,1.08571 -0.18761,2.3942 0.0376,3.63365 z"
         style="fill:#e9c6af;stroke:#000000;stroke-width:2.35664034;stroke-linecap:butt;stroke-linejoin:miter;stroke-miterlimit:4;stroke-opacity:1;stroke-dasharray:none" />
      <path
         sodipodi:nodetypes="ccccsc"
         inkscape:connector-curvature="0"
         id="path4057-1-3-8-2-2-7"
         d="m 534.79163,223.66006 c -0.59064,0.27049 -1.0959,0.45531 -1.0883,1.20853 -0.005,0.71731 0.3195,1.50206 1.05833,1.72765 0.78323,0.44034 1.56627,-0.23349 1.91594,-0.9075 0.50579,-0.57716 0.47437,-1.12937 -0.19001,-1.87723 -0.32743,-0.36861 -1.16436,-0.42005 -1.69596,-0.15145 z"
         style="fill:#000000;fill-opacity:1;stroke:#000000;stroke-width:2.05121613;stroke-linecap:butt;stroke-linejoin:miter;stroke-miterlimit:4;stroke-opacity:1;stroke-dasharray:none" />
      <path
         sodipodi:nodetypes="csc"
         inkscape:connector-curvature="0"
         id="path4066-9-2-6-8-9-1"
         d="m 547.21449,223.73922 c -1.80654,0.51355 -1.91033,3.01092 0.39052,2.86663 1.67437,-0.10501 1.20599,-3.15557 -0.39052,-2.86663 z"
         style="fill:#000000;fill-opacity:1;stroke:#000000;stroke-width:2.08680105;stroke-linecap:butt;stroke-linejoin:miter;stroke-miterlimit:4;stroke-opacity:1;stroke-dasharray:none" />
    </g>
    <path
       style="fill:#d40000;fill-opacity:1;stroke:#000000;stroke-width:1.02084744;stroke-linecap:butt;stroke-linejoin:miter;stroke-miterlimit:4;stroke-opacity:1;stroke-dasharray:none"
       d="m 76.58609,954.9998 c 0.42431,0.7967 -5.23046,7.4459 -7.29204,10.5267 -1.47015,2.5046 -3.27316,4.7892 -4.40794,7.5397 -0.77805,1.5593 -3.90824,0.6041 -3.18154,-1.4434 0.97154,-1.4475 1.93121,-2.9017 2.81038,-4.4466 1.8348,-3.167 4.13758,-5.839 6.27042,-8.6909 1.14824,-1.477 1.4404,-2.3351 2.73864,-3.6199 1.04605,-0.4183 2.70636,-0.5335 3.06208,0.1344 z"
       id="path4358-8-7-7-5-8-75-7-9"
       inkscape:connector-curvature="0"
       sodipodi:nodetypes="sccccccs" />
    <path
       style="fill:#333333;stroke:#000000;stroke-width:0.93000001;stroke-linecap:round;stroke-linejoin:miter;stroke-miterlimit:4;stroke-opacity:1;stroke-dasharray:none"
       d="m 70.63453,973.9285 c -1.02197,-0.5517 -2.09538,-1.0013 -3.10909,-1.5622 -1.63203,-0.6866 -3.44645,-0.7734 -5.18642,-0.6324 -1.82642,0.1853 -1.21839,1.7824 -1.02458,2.8918 0.19034,1.5411 2.30611,1.6599 3.52492,2.0794 0.64142,0.4154 1.71916,0.4574 1.91908,1.3366"
       id="path4051-8-1-8-8-3-8-0-3-0-5-1-5-1-9-9"
       inkscape:connector-curvature="0"
       sodipodi:nodetypes="cccccc" />
    <path
       style="fill:#333333;stroke:#000000;stroke-width:0.93000001;stroke-linecap:round;stroke-linejoin:miter;stroke-miterlimit:4;stroke-opacity:1;stroke-dasharray:none"
       d="m 67.928054,984.9792 c 0.633335,1.1119 0.367162,4.7926 0.353515,6.0911 -0.01948,1.8559 1.10173,1.8754 2.476,1.856 0.824106,-0.011 2.499071,0.1378 2.526779,-1.3771 0.09445,-1.4051 -0.179567,-1.1518 0.423509,-2.4914"
       id="path4025-5-4-4-6-7-0-2-3-4-7-3-8"
       inkscape:connector-curvature="0"
       sodipodi:nodetypes="csscc" />
    <path
       style="fill:#333333;stroke:#000000;stroke-width:0.93000001;stroke-linecap:butt;stroke-linejoin:miter;stroke-miterlimit:4;stroke-opacity:1;stroke-dasharray:none"
       d="m 131.08656,985.7634 c -0.69709,1.1707 -2.71069,4.6282 -3.75801,6.0466 -0.4331,0.7674 -2.0711,-0.01 -2.94402,-0.6834 -0.63272,-0.4902 -1.61777,-0.8489 -1.07999,-1.8954 0.6861,-1.2297 1.30783,-1.2772 1.53185,-2.7291"
       id="path4025-7-2-5-8-9-4-7-8-1-0-1-5-9"
       inkscape:connector-curvature="0"
       sodipodi:nodetypes="ccscc" />
    <path
       style="fill:#d40000;fill-opacity:1;stroke:#000000;stroke-width:1.02346015;stroke-linecap:butt;stroke-linejoin:miter;stroke-miterlimit:4;stroke-opacity:1;stroke-dasharray:none"
       d="m 126.00153,954.6046 c 0.94152,-10e-4 4.11251,5.2196 6.32962,8.1554 1.85396,2.1673 3.42942,4.6366 5.58539,6.5056 1.18852,1.2032 -0.44167,4.3091 -2.07614,3.0435 -1.04097,-1.3824 -2.0908,-2.7539 -3.24131,-4.0613 -2.3503,-2.7149 -4.14445,-5.8095 -6.14073,-8.7663 -1.02296,-1.5779 -2.25075,-2.3752 -3.06563,-4.0667 -0.10943,-1.215 1.05614,-0.8081 2.6088,-0.8102 z"
       id="path4358-8-7-7-5-8-75-71"
       inkscape:connector-curvature="0"
       sodipodi:nodetypes="sccccccs" />
    <path
       style="fill:#333333;stroke:#000000;stroke-width:0.93000001;stroke-linecap:round;stroke-linejoin:miter;stroke-miterlimit:4;stroke-opacity:1;stroke-dasharray:none"
       d="m 131.40597,972.7207 c 1.90751,-0.073 3.57912,-1.0784 5.39231,-1.5177 2.22688,-0.651 2.55401,2.1876 1.53458,3.5353 -0.84904,1.6067 -2.78685,1.7844 -4.36615,2.1212 -0.32212,0.1 -0.63294,0.2432 -0.90454,0.4447"
       id="path4336-7-3-8-1-7-7-8-0-8"
       inkscape:connector-curvature="0" />
    <path
       style="fill:#333333;stroke:#000000;stroke-width:0.93000001;stroke-miterlimit:4;stroke-opacity:1;stroke-dasharray:none"
       d="m 124.5152,960.6158 c -5.2572,0.044 -10.10586,3.5115 -9.70712,8.2332 0.36876,4.3666 0.25985,3.6874 1.80303,7.2312 -0.005,1.4562 0.33213,2.9797 0.33213,4.6352 0,5.5771 3.72146,10.0985 8.32585,10.0985 4.6044,0 8.58738,-3.8255 8.45664,-9.4011 -0.0438,-1.867 -0.0925,-3.4254 -0.15984,-4.9548 1.37596,-3.0633 1.48117,-5.9361 1.03442,-8.8383 -1.00598,-6.5349 -5.83948,-7.0397 -10.08511,-7.0039 z"
       id="path2985-6-6-0-8-7-5-9-7-3-0"
       inkscape:connector-curvature="0"
       sodipodi:nodetypes="sscssccss" />
    <g
       id="g4319-3-9-94-4"
       transform="matrix(0.39462959,0,0,0.39462959,-85.248842,882.87187)"
       style="stroke-width:2.35648537;stroke-miterlimit:4;stroke-dasharray:none">
      <path
         sodipodi:nodetypes="ssssss"
         inkscape:connector-curvature="0"
         id="path4029-4-1-1-0-6-8"
         d="m 526.60758,225.66459 c 1.30376,7.17526 8.90089,4.97545 13.86986,4.54096 5.62963,-0.49226 11.99791,2.60399 13.60797,-3.16891 2.50066,-8.96618 -7.10574,-7.93813 -12.22627,-6.72513 -5.04069,1.19408 -11.83708,-4.38075 -15.28916,1.71943 -0.6144,1.08571 -0.18761,2.3942 0.0376,3.63365 z"
         style="fill:#e9c6af;stroke:#000000;stroke-width:2.35664034;stroke-linecap:butt;stroke-linejoin:miter;stroke-miterlimit:4;stroke-opacity:1;stroke-dasharray:none" />
      <path
         sodipodi:nodetypes="ccccsc"
         inkscape:connector-curvature="0"
         id="path4057-1-3-8-2-2-0"
         d="m 534.79163,223.66006 c -0.59064,0.27049 -1.0959,0.45531 -1.0883,1.20853 -0.005,0.71731 0.3195,1.50206 1.05833,1.72765 0.78323,0.44034 1.56627,-0.23349 1.91594,-0.9075 0.50579,-0.57716 0.47437,-1.12937 -0.19001,-1.87723 -0.32743,-0.36861 -1.16436,-0.42005 -1.69596,-0.15145 z"
         style="fill:#000000;fill-opacity:1;stroke:#000000;stroke-width:2.05121613;stroke-linecap:butt;stroke-linejoin:miter;stroke-miterlimit:4;stroke-opacity:1;stroke-dasharray:none" />
      <path
         sodipodi:nodetypes="csc"
         inkscape:connector-curvature="0"
         id="path4066-9-2-6-8-9-4"
         d="m 547.21449,223.73922 c -1.80654,0.51355 -1.91033,3.01092 0.39052,2.86663 1.67437,-0.10501 1.20599,-3.15557 -0.39052,-2.86663 z"
         style="fill:#000000;fill-opacity:1;stroke:#000000;stroke-width:2.08680105;stroke-linecap:butt;stroke-linejoin:miter;stroke-miterlimit:4;stroke-opacity:1;stroke-dasharray:none" />
    </g>
    <path
       style="fill:#d40000;fill-opacity:1;stroke:#000000;stroke-width:1.02084744;stroke-linecap:butt;stroke-linejoin:miter;stroke-miterlimit:4;stroke-opacity:1;stroke-dasharray:none"
       d="m 126.58609,954.9998 c 0.42431,0.7967 -5.23046,7.4459 -7.29204,10.5267 -1.47015,2.5046 -3.27316,4.7892 -4.40794,7.5397 -0.77805,1.5593 -3.90824,0.6041 -3.18154,-1.4434 0.97154,-1.4475 1.93121,-2.9017 2.81038,-4.4466 1.8348,-3.167 4.13758,-5.839 6.27042,-8.6909 1.14824,-1.477 1.4404,-2.3351 2.73864,-3.6199 1.04605,-0.4183 2.70636,-0.5335 3.06208,0.1344 z"
       id="path4358-8-7-7-5-8-75-7-2"
       inkscape:connector-curvature="0"
       sodipodi:nodetypes="sccccccs" />
    <path
       style="fill:#333333;stroke:#000000;stroke-width:0.93000001;stroke-linecap:round;stroke-linejoin:miter;stroke-miterlimit:4;stroke-opacity:1;stroke-dasharray:none"
       d="m 120.63453,973.9285 c -1.02197,-0.5517 -2.09538,-1.0013 -3.10909,-1.5622 -1.63203,-0.6866 -3.44645,-0.7734 -5.18642,-0.6324 -1.82642,0.1853 -1.21839,1.7824 -1.02458,2.8918 0.19034,1.5411 2.30611,1.6599 3.52492,2.0794 0.64142,0.4154 1.71916,0.4574 1.91908,1.3366"
       id="path4051-8-1-8-8-3-8-0-3-0-5-1-5-1-9-71"
       inkscape:connector-curvature="0"
       sodipodi:nodetypes="cccccc" />
    <path
       sodipodi:nodetypes="csscc"
       inkscape:connector-curvature="0"
       id="path4025-5-4-4-6-7-0-2-3-2-4"
       d="m 119.0017,987.2896 c 0.44434,1.0233 3.70394,3.0634 4.62889,3.9748 1.32236,1.3023 2.11462,0.5093 3.05485,-0.4932 0.56415,-0.6008 1.83437,-1.7027 0.76338,-2.7746 -0.94561,-1.0435 -0.95357,-0.6705 -1.49887,-2.0346"
       style="fill:#333333;stroke:#000000;stroke-width:0.93000001;stroke-linecap:round;stroke-linejoin:miter;stroke-miterlimit:4;stroke-opacity:1;stroke-dasharray:none" />
    <path
       style="fill:#333333;stroke:#000000;stroke-width:0.93000001;stroke-linecap:round;stroke-linejoin:miter;stroke-miterlimit:4;stroke-opacity:1;stroke-dasharray:none"
       d="m 33.643515,1027.4107 c 0.715508,1.7698 2.227956,3.0016 3.256013,4.5584 1.367466,1.8743 -1.192135,3.1444 -2.805612,2.6423 -1.799431,-0.254 -2.62358,-2.0168 -3.475897,-3.3884 -0.202875,-0.2693 -0.443372,-0.513 -0.725041,-0.7002"
       id="path4336-7-3-7"
       inkscape:connector-curvature="0" />
    <path
       style="fill:#333333;stroke:#000000;stroke-width:0.93000001;stroke-linecap:butt;stroke-linejoin:miter;stroke-miterlimit:4;stroke-opacity:1;stroke-dasharray:none"
       d="m 32.401618,1035.4649 c 0.04352,1.3618 0.209983,5.3594 0.09193,7.1187 0.04855,0.8798 -1.748754,1.1096 -2.848408,1.0104 -0.797102,-0.072 -1.820259,0.1565 -1.931031,-1.0149 -0.08454,-1.4056 0.413651,-1.7806 -0.179957,-3.1244"
       id="path4025-7-2-5-8-9-4-7-8-1-3"
       inkscape:connector-curvature="0"
       sodipodi:nodetypes="ccscc" />
    <path
       style="fill:#333333;stroke:#000000;stroke-width:0.93000001;stroke-miterlimit:4;stroke-opacity:1;stroke-dasharray:none"
       d="m 24.515193,1010.6158 c -5.2572,0.044 -10.105859,3.5115 -9.707115,8.2332 0.368758,4.3666 0.259848,3.6874 1.80303,7.2312 -0.0055,1.4562 0.332123,2.9797 0.332123,4.6352 0,5.5771 3.721462,10.0985 8.325859,10.0985 4.604397,0 8.587371,-3.8255 8.456631,-9.4011 -0.0438,-1.867 -0.09255,-3.4254 -0.159833,-4.9548 1.375956,-3.0633 1.481169,-5.9361 1.034413,-8.8383 -1.005976,-6.5349 -5.839472,-7.0397 -10.085108,-7.0039 z"
       id="path2985-6-6-0-8-7-5-9-7-9"
       inkscape:connector-curvature="0"
       sodipodi:nodetypes="sscssccss" />
    <path
       style="fill:#333333;stroke:#000000;stroke-width:0.93000001;stroke-linecap:round;stroke-linejoin:miter;stroke-miterlimit:4;stroke-opacity:1;stroke-dasharray:none"
       d="m 18.266962,1035.9276 c 0.641139,1.1073 0.400948,4.7899 0.396455,6.0884 -0.0064,1.856 1.114932,1.8676 2.489029,1.8385 0.824002,-0.017 2.499964,0.1202 2.51699,-1.3949 0.08454,-1.4057 -0.187687,-1.1505 0.40593,-2.4943"
       id="path4025-5-4-4-6-7-0-2-3-18"
       inkscape:connector-curvature="0"
       sodipodi:nodetypes="csscc" />
    <g
       id="g4319-3-9-0"
       transform="matrix(0.39462959,0,0,0.39462959,-185.24884,932.87187)"
       style="stroke-width:2.35648537;stroke-miterlimit:4;stroke-dasharray:none">
      <path
         sodipodi:nodetypes="ssssss"
         inkscape:connector-curvature="0"
         id="path4029-4-1-1-0-64"
         d="m 526.60758,225.66459 c 1.30376,7.17526 8.90089,4.97545 13.86986,4.54096 5.62963,-0.49226 11.99791,2.60399 13.60797,-3.16891 2.50066,-8.96618 -7.10574,-7.93813 -12.22627,-6.72513 -5.04069,1.19408 -11.83708,-4.38075 -15.28916,1.71943 -0.6144,1.08571 -0.18761,2.3942 0.0376,3.63365 z"
         style="fill:#e9c6af;stroke:#000000;stroke-width:2.35664034;stroke-linecap:butt;stroke-linejoin:miter;stroke-miterlimit:4;stroke-opacity:1;stroke-dasharray:none" />
      <path
         sodipodi:nodetypes="ccccsc"
         inkscape:connector-curvature="0"
         id="path4057-1-3-8-2-4"
         d="m 534.79163,223.66006 c -0.59064,0.27049 -1.0959,0.45531 -1.0883,1.20853 -0.005,0.71731 0.3195,1.50206 1.05833,1.72765 0.78323,0.44034 1.56627,-0.23349 1.91594,-0.9075 0.50579,-0.57716 0.47437,-1.12937 -0.19001,-1.87723 -0.32743,-0.36861 -1.16436,-0.42005 -1.69596,-0.15145 z"
         style="fill:#000000;fill-opacity:1;stroke:#000000;stroke-width:2.05121613;stroke-linecap:butt;stroke-linejoin:miter;stroke-miterlimit:4;stroke-opacity:1;stroke-dasharray:none" />
      <path
         sodipodi:nodetypes="csc"
         inkscape:connector-curvature="0"
         id="path4066-9-2-6-8-22"
         d="m 547.21449,223.73922 c -1.80654,0.51355 -1.91033,3.01092 0.39052,2.86663 1.67437,-0.10501 1.20599,-3.15557 -0.39052,-2.86663 z"
         style="fill:#000000;fill-opacity:1;stroke:#000000;stroke-width:2.08680105;stroke-linecap:butt;stroke-linejoin:miter;stroke-miterlimit:4;stroke-opacity:1;stroke-dasharray:none" />
    </g>
    <path
       style="fill:#333333;stroke:#000000;stroke-width:0.93000001;stroke-linecap:round;stroke-linejoin:miter;stroke-miterlimit:4;stroke-opacity:1;stroke-dasharray:none"
       d="m 16.867355,1026.9019 c -0.772542,0.8672 -1.45753,1.808 -2.237112,2.665 -1.044553,1.4296 -1.547539,3.1751 -1.811637,4.9007 -0.240882,1.8199 1.453378,1.5966 2.577558,1.6639 1.543457,0.1703 2.14701,-1.8611 2.836323,-2.9503 0.552161,-0.5283 0.841571,-1.5673 1.743198,-1.559"
       id="path4051-8-1-8-8-3-8-0-3-73"
       inkscape:connector-curvature="0"
       sodipodi:nodetypes="cccccc" />
    <path
       style="fill:#333333;stroke:#000000;stroke-width:0.93000001;stroke-linecap:butt;stroke-linejoin:miter;stroke-miterlimit:4;stroke-opacity:1;stroke-dasharray:none"
       d="m 80.591744,1032.2665 c 0.75801,1.1322 3.016006,4.4352 3.847436,5.9901 0.507051,0.7207 -0.895922,1.8673 -1.881287,2.3654 -0.714308,0.361 -1.461259,1.0966 -2.1755,0.1616 -0.816,-1.1476 -0.591952,-1.7295 -1.807071,-2.5551"
       id="path4025-7-2-5-8-9-4-7-8-1-0-9"
       inkscape:connector-curvature="0"
       sodipodi:nodetypes="ccscc" />
    <path
       style="fill:#333333;stroke:#000000;stroke-width:0.93000001;stroke-miterlimit:4;stroke-opacity:1;stroke-dasharray:none"
       d="m 74.515193,1009.2016 c -5.2572,0.044 -10.105859,3.5115 -9.707115,8.2332 0.368758,4.3666 0.259848,3.6874 1.80303,7.2312 -0.0055,1.4562 0.332123,2.9797 0.332123,4.6352 0,5.5771 3.721462,10.0985 8.325859,10.0985 4.604397,0 8.587371,-3.8255 8.456631,-9.4011 -0.0438,-1.867 -0.09255,-3.4254 -0.159833,-4.9548 1.375956,-3.0633 1.481169,-5.9361 1.034413,-8.8383 -1.005976,-6.5349 -5.839472,-7.0397 -10.085108,-7.0039 z"
       id="path2985-6-6-0-8-7-5-9-7-2-8"
       inkscape:connector-curvature="0"
       sodipodi:nodetypes="sscssccss" />
    <path
       style="fill:#333333;stroke:#000000;stroke-width:0.93000001;stroke-linecap:round;stroke-linejoin:miter;stroke-miterlimit:4;stroke-opacity:1;stroke-dasharray:none"
       d="m 68.074172,1032.7395 c 0.259443,1.253 -1.129243,4.6721 -1.542788,5.903 -0.591076,1.7594 0.469442,2.1238 1.782669,2.5294 0.787359,0.2435 2.334647,0.902 2.828357,-0.5305 0.523301,-1.3074 0.184512,-1.151 1.17143,-2.2392"
       id="path4025-5-4-4-6-7-0-2-3-4-91"
       inkscape:connector-curvature="0"
       sodipodi:nodetypes="csscc" />
    <g
       id="g4319-3-9-9-2"
       transform="matrix(0.39462959,0,0,0.39462959,-135.24884,931.45766)"
       style="stroke-width:2.35648537;stroke-miterlimit:4;stroke-dasharray:none">
      <path
         sodipodi:nodetypes="ssssss"
         inkscape:connector-curvature="0"
         id="path4029-4-1-1-0-0-16"
         d="m 526.60758,225.66459 c 1.30376,7.17526 8.90089,4.97545 13.86986,4.54096 5.62963,-0.49226 11.99791,2.60399 13.60797,-3.16891 2.50066,-8.96618 -7.10574,-7.93813 -12.22627,-6.72513 -5.04069,1.19408 -11.83708,-4.38075 -15.28916,1.71943 -0.6144,1.08571 -0.18761,2.3942 0.0376,3.63365 z"
         style="fill:#e9c6af;stroke:#000000;stroke-width:2.35664034;stroke-linecap:butt;stroke-linejoin:miter;stroke-miterlimit:4;stroke-opacity:1;stroke-dasharray:none" />
      <path
         sodipodi:nodetypes="ccccsc"
         inkscape:connector-curvature="0"
         id="path4057-1-3-8-2-8-2"
         d="m 534.79163,223.66006 c -0.59064,0.27049 -1.0959,0.45531 -1.0883,1.20853 -0.005,0.71731 0.3195,1.50206 1.05833,1.72765 0.78323,0.44034 1.56627,-0.23349 1.91594,-0.9075 0.50579,-0.57716 0.47437,-1.12937 -0.19001,-1.87723 -0.32743,-0.36861 -1.16436,-0.42005 -1.69596,-0.15145 z"
         style="fill:#000000;fill-opacity:1;stroke:#000000;stroke-width:2.05121613;stroke-linecap:butt;stroke-linejoin:miter;stroke-miterlimit:4;stroke-opacity:1;stroke-dasharray:none" />
      <path
         sodipodi:nodetypes="csc"
         inkscape:connector-curvature="0"
         id="path4066-9-2-6-8-2-0"
         d="m 547.21449,223.73922 c -1.80654,0.51355 -1.91033,3.01092 0.39052,2.86663 1.67437,-0.10501 1.20599,-3.15557 -0.39052,-2.86663 z"
         style="fill:#000000;fill-opacity:1;stroke:#000000;stroke-width:2.08680105;stroke-linecap:butt;stroke-linejoin:miter;stroke-miterlimit:4;stroke-opacity:1;stroke-dasharray:none" />
    </g>
    <path
       style="fill:#333333;stroke:#000000;stroke-width:0.93000001;stroke-linecap:round;stroke-linejoin:miter;stroke-miterlimit:4;stroke-opacity:1;stroke-dasharray:none"
       d="m 67.85367,1029.1568 c 0.552172,1.0217 1.203366,1.9862 1.743551,3.0111 0.988276,1.4691 2.45803,2.5366 3.990467,3.3727 1.628996,0.8464 1.996198,-0.8226 2.442422,-1.8566 0.685889,-1.3931 -1.018416,-2.6526 -1.807662,-3.6717 -0.308615,-0.6991 -1.186887,-1.3251 -0.87194,-2.17"
       id="path4051-8-1-8-8-3-8-0-3-0-8"
       inkscape:connector-curvature="0"
       sodipodi:nodetypes="cccccc" />
    <path
       style="fill:#333333;stroke:#000000;stroke-width:0.93000001;stroke-linecap:round;stroke-linejoin:miter;stroke-miterlimit:4;stroke-opacity:1;stroke-dasharray:none"
       d="m 133.12464,1024.7633 c 1.11655,1.5483 2.87892,2.3843 4.24827,3.6514 1.77463,1.4945 -0.40868,3.3379 -2.09532,3.2346 -1.80813,0.182 -3.02852,-1.3337 -4.18307,-2.4627 -0.26119,-0.2132 -0.55283,-0.3926 -0.87098,-0.5073"
       id="path4336-7-3-8-1-9"
       inkscape:connector-curvature="0" />
    <path
       style="fill:#333333;stroke:#000000;stroke-width:0.93000001;stroke-linecap:butt;stroke-linejoin:miter;stroke-miterlimit:4;stroke-opacity:1;stroke-dasharray:none"
       d="m 126.65215,1037.5592 c -0.81065,1.0951 -3.15997,4.3338 -4.34393,5.6404 -0.50769,0.7202 -2.05992,-0.2145 -2.86088,-0.9745 -0.58053,-0.5509 -1.52477,-1.0064 -0.88499,-1.9939 0.80564,-1.1549 1.42902,-1.14 1.79704,-2.5622"
       id="path4025-7-2-5-8-9-4-7-8-1-0-8-3"
       inkscape:connector-curvature="0"
       sodipodi:nodetypes="ccscc" />
    <path
       style="fill:#333333;stroke:#000000;stroke-width:0.93000001;stroke-miterlimit:4;stroke-opacity:1;stroke-dasharray:none"
       d="m 124.51519,1009.2016 c -5.2572,0.044 -10.10586,3.5115 -9.70711,8.2332 0.36876,4.3666 0.25985,3.6874 1.80303,7.2312 -0.005,1.4562 0.33212,2.9797 0.33212,4.6352 0,5.5771 3.72146,10.0985 8.32586,10.0985 4.6044,0 8.58737,-3.8255 8.45663,-9.4011 -0.0438,-1.867 -0.0925,-3.4254 -0.15983,-4.9548 1.37595,-3.0633 1.48117,-5.9361 1.03441,-8.8383 -1.00598,-6.5349 -5.83947,-7.0397 -10.08511,-7.0039 z"
       id="path2985-6-6-0-8-7-5-9-7-2-5-1"
       inkscape:connector-curvature="0"
       sodipodi:nodetypes="sscssccss" />
    <path
       style="fill:#333333;stroke:#000000;stroke-width:0.93000001;stroke-linecap:round;stroke-linejoin:miter;stroke-miterlimit:4;stroke-opacity:1;stroke-dasharray:none"
       d="m 121.14141,1037.7327 c 1.11733,0.6235 2.79475,3.9107 3.45513,5.0287 0.94393,1.5981 1.91336,1.0344 3.07919,0.3066 0.69932,-0.4362 2.2096,-1.1756 1.44918,-2.4862 -0.64643,-1.2511 -0.7498,-0.8925 -0.92714,-2.3509"
       id="path4025-5-4-4-6-7-0-2-3-4-9-63"
       inkscape:connector-curvature="0"
       sodipodi:nodetypes="csscc" />
    <g
       id="g4319-3-9-9-4-0"
       transform="matrix(0.39462959,0,0,0.39462959,-85.24883,931.45766)"
       style="stroke-width:2.35648537;stroke-miterlimit:4;stroke-dasharray:none">
      <path
         sodipodi:nodetypes="ssssss"
         inkscape:connector-curvature="0"
         id="path4029-4-1-1-0-0-5-0"
         d="m 526.60758,225.66459 c 1.30376,7.17526 8.90089,4.97545 13.86986,4.54096 5.62963,-0.49226 11.99791,2.60399 13.60797,-3.16891 2.50066,-8.96618 -7.10574,-7.93813 -12.22627,-6.72513 -5.04069,1.19408 -11.83708,-4.38075 -15.28916,1.71943 -0.6144,1.08571 -0.18761,2.3942 0.0376,3.63365 z"
         style="fill:#e9c6af;stroke:#000000;stroke-width:2.35664034;stroke-linecap:butt;stroke-linejoin:miter;stroke-miterlimit:4;stroke-opacity:1;stroke-dasharray:none" />
      <path
         sodipodi:nodetypes="ccccsc"
         inkscape:connector-curvature="0"
         id="path4057-1-3-8-2-8-4-2"
         d="m 534.79163,223.66006 c -0.59064,0.27049 -1.0959,0.45531 -1.0883,1.20853 -0.005,0.71731 0.3195,1.50206 1.05833,1.72765 0.78323,0.44034 1.56627,-0.23349 1.91594,-0.9075 0.50579,-0.57716 0.47437,-1.12937 -0.19001,-1.87723 -0.32743,-0.36861 -1.16436,-0.42005 -1.69596,-0.15145 z"
         style="fill:#000000;fill-opacity:1;stroke:#000000;stroke-width:2.05121613;stroke-linecap:butt;stroke-linejoin:miter;stroke-miterlimit:4;stroke-opacity:1;stroke-dasharray:none" />
      <path
         sodipodi:nodetypes="csc"
         inkscape:connector-curvature="0"
         id="path4066-9-2-6-8-2-7-5"
         d="m 547.21449,223.73922 c -1.80654,0.51355 -1.91033,3.01092 0.39052,2.86663 1.67437,-0.10501 1.20599,-3.15557 -0.39052,-2.86663 z"
         style="fill:#000000;fill-opacity:1;stroke:#000000;stroke-width:2.08680105;stroke-linecap:butt;stroke-linejoin:miter;stroke-miterlimit:4;stroke-opacity:1;stroke-dasharray:none" />
    </g>
    <path
       style="fill:#333333;stroke:#000000;stroke-width:0.93000001;stroke-linecap:round;stroke-linejoin:miter;stroke-miterlimit:4;stroke-opacity:1;stroke-dasharray:none"
       d="m 117.51007,1024.9183 c -0.98261,0.6191 -1.9015,1.3332 -2.88805,1.9406 -1.39982,1.0841 -2.36684,2.6219 -3.09881,4.2067 -0.7358,1.6819 0.95398,1.9369 2.01548,2.3131 1.43581,0.5913 2.57868,-1.1932 3.54285,-2.0488 0.67694,-0.3545 1.24296,-1.2726 2.10697,-1.0148"
       id="path4051-8-1-8-8-3-8-0-3-0-5-95"
       inkscape:connector-curvature="0"
       sodipodi:nodetypes="cccccc" />
    <path
       style="fill:#333333;stroke:#000000;stroke-width:0.93000001;stroke-linecap:round;stroke-linejoin:miter;stroke-miterlimit:4;stroke-opacity:1;stroke-dasharray:none"
       d="m 33.643513,827.4107 c 0.71551,1.7698 2.22796,3.0016 3.25602,4.5584 1.36746,1.8743 -1.19214,3.1444 -2.80561,2.6423 -1.79944,-0.254 -2.62358,-2.0168 -3.4759,-3.3884 -0.20288,-0.2693 -0.44337,-0.513 -0.72504,-0.7002"
       id="path4336-7-3-69-1"
       inkscape:connector-curvature="0" />
    <path
       style="fill:#333333;stroke:#000000;stroke-width:0.93000001;stroke-linecap:butt;stroke-linejoin:miter;stroke-miterlimit:4;stroke-opacity:1;stroke-dasharray:none"
       d="m 32.401623,835.4649 c 0.0435,1.3618 0.20998,5.3594 0.0919,7.1187 0.0486,0.8798 -1.74876,1.1096 -2.84841,1.0104 -0.7971,-0.072 -1.82026,0.1565 -1.93103,-1.0149 -0.0845,-1.4056 0.41365,-1.7806 -0.17996,-3.1244"
       id="path4025-7-2-5-8-9-4-7-8-1-26-0"
       inkscape:connector-curvature="0"
       sodipodi:nodetypes="ccscc" />
    <path
       style="fill:#333333;stroke:#000000;stroke-width:0.93000001;stroke-miterlimit:4;stroke-opacity:1;stroke-dasharray:none"
       d="m 28.625005,810.8622 c -5.148181,-1.06598 -10.619193,1.30068 -11.22545,6.00025 -0.560662,4.34613 -0.523846,3.65924 0.237056,7.44882 -0.312557,1.42227 -0.30391,2.98271 -0.653133,4.60096 -1.176473,5.4516 1.507471,10.65629 6.008257,11.62757 4.500787,0.97129 9.201112,-1.92793 10.249471,-7.40565 0.351023,-1.83422 0.63211,-3.36784 0.888964,-4.87702 1.991188,-2.70411 2.700042,-5.49007 2.87555,-8.42121 0.395179,-6.60005 -4.223065,-8.11311 -8.380715,-8.97372 z"
       id="path2985-6-6-0-8-7-5-9-7-27-9"
       inkscape:connector-curvature="0"
       sodipodi:nodetypes="sscssccss" />
    <g
       id="g4319-3-9-38-8"
       transform="matrix(0.38574943,0.08324598,-0.08324598,0.38574943,-160.01895,690.61859)"
       style="stroke-width:2.35648537;stroke-miterlimit:4;stroke-dasharray:none">
      <path
         sodipodi:nodetypes="ssssss"
         inkscape:connector-curvature="0"
         id="path4029-4-1-1-0-4-8"
         d="m 526.60758,225.66459 c 1.30376,7.17526 8.90089,4.97545 13.86986,4.54096 5.62963,-0.49226 11.99791,2.60399 13.60797,-3.16891 2.50066,-8.96618 -7.10574,-7.93813 -12.22627,-6.72513 -5.04069,1.19408 -11.83708,-4.38075 -15.28916,1.71943 -0.6144,1.08571 -0.18761,2.3942 0.0376,3.63365 z"
         style="fill:#e9c6af;stroke:#000000;stroke-width:2.35664034;stroke-linecap:butt;stroke-linejoin:miter;stroke-miterlimit:4;stroke-opacity:1;stroke-dasharray:none" />
      <path
         sodipodi:nodetypes="ccccsc"
         inkscape:connector-curvature="0"
         id="path4057-1-3-8-2-5-5"
         d="m 534.79163,223.66006 c -0.59064,0.27049 -1.0959,0.45531 -1.0883,1.20853 -0.005,0.71731 0.3195,1.50206 1.05833,1.72765 0.78323,0.44034 1.56627,-0.23349 1.91594,-0.9075 0.50579,-0.57716 0.47437,-1.12937 -0.19001,-1.87723 -0.32743,-0.36861 -1.16436,-0.42005 -1.69596,-0.15145 z"
         style="fill:#000000;fill-opacity:1;stroke:#000000;stroke-width:2.05121613;stroke-linecap:butt;stroke-linejoin:miter;stroke-miterlimit:4;stroke-opacity:1;stroke-dasharray:none" />
      <path
         sodipodi:nodetypes="csc"
         inkscape:connector-curvature="0"
         id="path4066-9-2-6-8-1-0"
         d="m 547.21449,223.73922 c -1.80654,0.51355 -1.91033,3.01092 0.39052,2.86663 1.67437,-0.10501 1.20599,-3.15557 -0.39052,-2.86663 z"
         style="fill:#000000;fill-opacity:1;stroke:#000000;stroke-width:2.08680105;stroke-linecap:butt;stroke-linejoin:miter;stroke-miterlimit:4;stroke-opacity:1;stroke-dasharray:none" />
    </g>
    <path
       style="fill:#333333;stroke:#000000;stroke-width:0.93000001;stroke-linecap:round;stroke-linejoin:miter;stroke-miterlimit:4;stroke-opacity:1;stroke-dasharray:none"
       d="m 17.304423,826.24566 c -0.87291,0.76608 -1.66795,1.61592 -2.5466,2.37101 -1.21175,1.29094 -1.92468,2.96171 -2.39809,4.64199 -0.46192,1.77671 1.24694,1.76255 2.35442,1.967 1.51099,0.35801 2.35874,-1.5842 3.17624,-2.5808 0.61269,-0.45671 1.02715,-1.45245 1.92098,-1.33381"
       id="path4051-8-1-8-8-3-8-0-3-70-1"
       inkscape:connector-curvature="0"
       sodipodi:nodetypes="cccccc" />
    <path
       style="fill:#333333;stroke:#000000;stroke-width:0.93000001;stroke-linecap:round;stroke-linejoin:miter;stroke-miterlimit:4;stroke-opacity:1;stroke-dasharray:none"
       d="m 18.016963,835.8026 c 0.64114,1.1073 0.40095,4.7899 0.39646,6.0884 -0.006,1.856 1.11493,1.8676 2.48903,1.8385 0.824,-0.017 2.49996,0.1202 2.51699,-1.3949 0.0845,-1.4057 -0.18769,-1.1505 0.40593,-2.4943"
       id="path4025-5-4-4-6-7-0-2-3-3-6"
       inkscape:connector-curvature="0"
       sodipodi:nodetypes="csscc" />
    <path
       style="fill:#333333;stroke:#000000;stroke-width:0.93000001;stroke-linecap:butt;stroke-linejoin:miter;stroke-miterlimit:4;stroke-opacity:1;stroke-dasharray:none"
       d="m 182.40162,985.4649 c 0.0435,1.3618 0.20998,5.3594 0.0919,7.1187 0.0486,0.8798 -1.74876,1.1096 -2.84841,1.0104 -0.7971,-0.072 -1.82026,0.1565 -1.93103,-1.0149 -0.0845,-1.4056 0.41365,-1.7806 -0.17996,-3.1244"
       id="path4025-7-2-5-8-9-4-7-8-1-7-7"
       inkscape:connector-curvature="0"
       sodipodi:nodetypes="ccscc" />
    <path
       style="fill:#d40000;fill-opacity:1;stroke:#000000;stroke-width:1.02346015000000001;stroke-linecap:butt;stroke-linejoin:miter;stroke-miterlimit:4;stroke-opacity:1;stroke-dasharray:none"
       d="m 176.00153,954.6046 c 0.94152,-10e-4 4.11251,5.2196 6.32962,8.1554 1.85396,2.1673 3.42942,4.6366 5.58539,6.5056 1.18852,1.2032 -0.44167,4.3091 -2.07614,3.0435 -1.04097,-1.3824 -2.0908,-2.7539 -3.24131,-4.0613 -2.3503,-2.7149 -4.14445,-5.8095 -6.14073,-8.7663 -1.02296,-1.5779 -2.25075,-2.3752 -3.06563,-4.0667 -0.10943,-1.215 1.05614,-0.8081 2.6088,-0.8102 z"
       id="path4358-8-7-7-5-8-75-8-0-8"
       inkscape:connector-curvature="0"
       sodipodi:nodetypes="sccccccs" />
    <path
       style="fill:#333333;stroke:#000000;stroke-width:0.93000001;stroke-linecap:round;stroke-linejoin:miter;stroke-miterlimit:4;stroke-opacity:1;stroke-dasharray:none"
       d="m 181.40597,972.7207 c 1.90751,-0.073 3.57912,-1.0784 5.39231,-1.5177 2.22688,-0.651 2.55401,2.1876 1.53458,3.5353 -0.84904,1.6067 -2.78685,1.7844 -4.36615,2.1212 -0.32212,0.1 -0.63294,0.2432 -0.90454,0.4447"
       id="path4336-7-3-8-1-7-7-8-0-5-3-1"
       inkscape:connector-curvature="0" />
    <path
       style="fill:#333333;stroke:#000000;stroke-width:0.93000001;stroke-miterlimit:4;stroke-opacity:1;stroke-dasharray:none"
       d="m 174.5152,960.6158 c -5.2572,0.044 -10.10586,3.5115 -9.70712,8.2332 0.36876,4.3666 0.25985,3.6874 1.80303,7.2312 -0.005,1.4562 0.33213,2.9797 0.33213,4.6352 0,5.5771 3.72146,10.0985 8.32585,10.0985 4.6044,0 8.58738,-3.8255 8.45664,-9.4011 -0.0438,-1.867 -0.0925,-3.4254 -0.15984,-4.9548 1.37596,-3.0633 1.48117,-5.9361 1.03442,-8.8383 -1.00598,-6.5349 -5.83948,-7.0397 -10.08511,-7.0039 z"
       id="path2985-6-6-0-8-7-5-9-7-3-9-4-6"
       inkscape:connector-curvature="0"
       sodipodi:nodetypes="sscssccss" />
    <g
       id="g4319-3-9-94-3-5-2"
       transform="matrix(0.39462959,0,0,0.39462959,-35.24884,882.87187)"
       style="stroke-width:2.35648537;stroke-miterlimit:4;stroke-dasharray:none">
      <path
         sodipodi:nodetypes="ssssss"
         inkscape:connector-curvature="0"
         id="path4029-4-1-1-0-6-2-1-3"
         d="m 526.60758,225.66459 c 1.30376,7.17526 8.90089,4.97545 13.86986,4.54096 5.62963,-0.49226 11.99791,2.60399 13.60797,-3.16891 2.50066,-8.96618 -7.10574,-7.93813 -12.22627,-6.72513 -5.04069,1.19408 -11.83708,-4.38075 -15.28916,1.71943 -0.6144,1.08571 -0.18761,2.3942 0.0376,3.63365 z"
         style="fill:#e9c6af;stroke:#000000;stroke-width:2.35664034;stroke-linecap:butt;stroke-linejoin:miter;stroke-miterlimit:4;stroke-opacity:1;stroke-dasharray:none" />
      <path
         sodipodi:nodetypes="ccccsc"
         inkscape:connector-curvature="0"
         id="path4057-1-3-8-2-2-7-0-6"
         d="m 534.79163,223.66006 c -0.59064,0.27049 -1.0959,0.45531 -1.0883,1.20853 -0.005,0.71731 0.3195,1.50206 1.05833,1.72765 0.78323,0.44034 1.56627,-0.23349 1.91594,-0.9075 0.50579,-0.57716 0.47437,-1.12937 -0.19001,-1.87723 -0.32743,-0.36861 -1.16436,-0.42005 -1.69596,-0.15145 z"
         style="fill:#000000;fill-opacity:1;stroke:#000000;stroke-width:2.05121613;stroke-linecap:butt;stroke-linejoin:miter;stroke-miterlimit:4;stroke-opacity:1;stroke-dasharray:none" />
      <path
         sodipodi:nodetypes="csc"
         inkscape:connector-curvature="0"
         id="path4066-9-2-6-8-9-1-9-3"
         d="m 547.21449,223.73922 c -1.80654,0.51355 -1.91033,3.01092 0.39052,2.86663 1.67437,-0.10501 1.20599,-3.15557 -0.39052,-2.86663 z"
         style="fill:#000000;fill-opacity:1;stroke:#000000;stroke-width:2.08680105;stroke-linecap:butt;stroke-linejoin:miter;stroke-miterlimit:4;stroke-opacity:1;stroke-dasharray:none" />
    </g>
    <path
       style="fill:#d40000;fill-opacity:1;stroke:#000000;stroke-width:1.02084744000000005;stroke-linecap:butt;stroke-linejoin:miter;stroke-miterlimit:4;stroke-opacity:1;stroke-dasharray:none"
       d="m 176.58609,954.9998 c 0.42431,0.7967 -5.23046,7.4459 -7.29204,10.5267 -1.47015,2.5046 -3.27316,4.7892 -4.40794,7.5397 -0.77805,1.5593 -3.90824,0.6041 -3.18154,-1.4434 0.97154,-1.4475 1.93121,-2.9017 2.81038,-4.4466 1.8348,-3.167 4.13758,-5.839 6.27042,-8.6909 1.14824,-1.477 1.4404,-2.3351 2.73864,-3.6199 1.04605,-0.4183 2.70636,-0.5335 3.06208,0.1344 z"
       id="path4358-8-7-7-5-8-75-7-9-4-6"
       inkscape:connector-curvature="0"
       sodipodi:nodetypes="sccccccs" />
    <path
       style="fill:#333333;stroke:#000000;stroke-width:0.93000001;stroke-linecap:round;stroke-linejoin:miter;stroke-miterlimit:4;stroke-opacity:1;stroke-dasharray:none"
       d="m 170.63453,973.9285 c -1.02197,-0.5517 -2.09538,-1.0013 -3.10909,-1.5622 -1.63203,-0.6866 -3.44645,-0.7734 -5.18642,-0.6324 -1.82642,0.1853 -1.21839,1.7824 -1.02458,2.8918 0.19034,1.5411 2.30611,1.6599 3.52492,2.0794 0.64142,0.4154 1.71916,0.4574 1.91908,1.3366"
       id="path4051-8-1-8-8-3-8-0-3-0-5-1-5-1-9-9-7-4"
       inkscape:connector-curvature="0"
       sodipodi:nodetypes="cccccc" />
    <path
       style="fill:#333333;stroke:#000000;stroke-width:0.93000001;stroke-linecap:round;stroke-linejoin:miter;stroke-miterlimit:4;stroke-opacity:1;stroke-dasharray:none"
       d="m 168.26696,985.9276 c 0.64114,1.1073 0.40095,4.7899 0.39646,6.0884 -0.006,1.856 1.11493,1.8676 2.48903,1.8385 0.824,-0.017 2.49996,0.1202 2.51699,-1.3949 0.0845,-1.4057 -0.18769,-1.1505 0.40593,-2.4943"
       id="path4025-5-4-4-6-7-0-2-3-1-3"
       inkscape:connector-curvature="0"
       sodipodi:nodetypes="csscc" />
    <path
       style="fill:#333333;stroke:#000000;stroke-width:0.93000001;stroke-linecap:butt;stroke-linejoin:miter;stroke-miterlimit:4;stroke-opacity:1;stroke-dasharray:none"
       d="m 126.65215,837.55916 c -0.81065,1.09511 -3.15997,4.33383 -4.34393,5.64047 -0.50769,0.72017 -2.05992,-0.21453 -2.86088,-0.9745 -0.58053,-0.55094 -1.52477,-1.00643 -0.88499,-1.99392 0.80564,-1.15489 1.42902,-1.13998 1.79704,-2.56219"
       id="path4025-7-2-5-8-9-4-7-8-1-0-8"
       inkscape:connector-curvature="0"
       sodipodi:nodetypes="ccscc" />
    <path
       style="fill:#333333;stroke:#000000;stroke-width:0.93000001;stroke-linecap:butt;stroke-linejoin:miter;stroke-miterlimit:4;stroke-opacity:1;stroke-dasharray:none"
       d="m 80.591744,832.2665 c 0.75801,1.13217 3.016006,4.4352 3.847436,5.99013 0.507051,0.72062 -0.895922,1.86726 -1.881287,2.36539 -0.714308,0.361 -1.461259,1.09661 -2.1755,0.16157 -0.816,-1.14761 -0.591952,-1.72952 -1.807071,-2.55514"
       id="path4025-7-2-5-8-9-4-7-8-1-0"
       inkscape:connector-curvature="0"
       sodipodi:nodetypes="ccscc" />
    <path
       style="fill:#333333;stroke:#000000;stroke-width:0.93000001;stroke-miterlimit:4;stroke-opacity:1;stroke-dasharray:none"
       d="m 78.750005,809.86221 c -5.148181,-1.06599 -10.619193,1.30068 -11.22545,6.00024 -0.560662,4.34613 -0.523846,3.65924 0.237056,7.44882 -0.312557,1.42228 -0.30391,2.98271 -0.653133,4.60096 -1.176473,5.4516 1.507471,10.65629 6.008257,11.62758 4.500787,0.97128 9.201112,-1.92794 10.249471,-7.40565 0.351023,-1.83423 0.63211,-3.36785 0.888964,-4.87703 1.991188,-2.70411 2.700042,-5.49007 2.87555,-8.4212 0.395179,-6.60006 -4.223065,-8.11311 -8.380715,-8.97372 z"
       id="path2985-6-6-0-8-7-5-9-7-2"
       inkscape:connector-curvature="0"
       sodipodi:nodetypes="sscssccss" />
    <g
       id="g4319-3-9-8"
       transform="matrix(0.38574943,0.08324598,-0.08324598,0.38574943,-109.89395,689.61859)"
       style="stroke-width:2.35648537;stroke-miterlimit:4;stroke-dasharray:none">
      <path
         sodipodi:nodetypes="ssssss"
         inkscape:connector-curvature="0"
         id="path4029-4-1-1-0-0"
         d="m 526.60758,225.66459 c 1.30376,7.17526 8.90089,4.97545 13.86986,4.54096 5.62963,-0.49226 11.99791,2.60399 13.60797,-3.16891 2.50066,-8.96618 -7.10574,-7.93813 -12.22627,-6.72513 -5.04069,1.19408 -11.83708,-4.38075 -15.28916,1.71943 -0.6144,1.08571 -0.18761,2.3942 0.0376,3.63365 z"
         style="fill:#e9c6af;stroke:#000000;stroke-width:2.35664034;stroke-linecap:butt;stroke-linejoin:miter;stroke-miterlimit:4;stroke-opacity:1;stroke-dasharray:none" />
      <path
         sodipodi:nodetypes="ccccsc"
         inkscape:connector-curvature="0"
         id="path4057-1-3-8-2-3"
         d="m 534.79163,223.66006 c -0.59064,0.27049 -1.0959,0.45531 -1.0883,1.20853 -0.005,0.71731 0.3195,1.50206 1.05833,1.72765 0.78323,0.44034 1.56627,-0.23349 1.91594,-0.9075 0.50579,-0.57716 0.47437,-1.12937 -0.19001,-1.87723 -0.32743,-0.36861 -1.16436,-0.42005 -1.69596,-0.15145 z"
         style="fill:#000000;fill-opacity:1;stroke:#000000;stroke-width:2.05121613;stroke-linecap:butt;stroke-linejoin:miter;stroke-miterlimit:4;stroke-opacity:1;stroke-dasharray:none" />
      <path
         sodipodi:nodetypes="csc"
         inkscape:connector-curvature="0"
         id="path4066-9-2-6-8-7"
         d="m 547.21449,223.73922 c -1.80654,0.51355 -1.91033,3.01092 0.39052,2.86663 1.67437,-0.10501 1.20599,-3.15557 -0.39052,-2.86663 z"
         style="fill:#000000;fill-opacity:1;stroke:#000000;stroke-width:2.08680105;stroke-linecap:butt;stroke-linejoin:miter;stroke-miterlimit:4;stroke-opacity:1;stroke-dasharray:none" />
    </g>
    <path
       style="fill:#333333;stroke:#000000;stroke-width:0.93000001;stroke-linecap:round;stroke-linejoin:miter;stroke-miterlimit:4;stroke-opacity:1;stroke-dasharray:none"
       d="m 67.3376,832.7489 c 0.288724,1.24652 -1.019482,4.69729 -1.404078,5.93753 -0.549697,1.77275 0.519067,2.11224 1.841433,2.48687 0.79285,0.22507 2.355139,0.84711 2.815154,-0.59658 0.49253,-1.3193 0.157498,-1.15501 1.118652,-2.26603"
       id="path4025-5-4-4-6-7-0-2-3-4"
       inkscape:connector-curvature="0"
       sodipodi:nodetypes="csscc" />
    <path
       style="fill:#333333;stroke:#000000;stroke-width:0.93000001;stroke-linecap:round;stroke-linejoin:miter;stroke-miterlimit:4;stroke-opacity:1;stroke-dasharray:none"
       d="m 67.85367,829.15675 c 0.552172,1.02175 1.203366,1.98625 1.743551,3.01114 0.988276,1.46907 2.45803,2.53657 3.990467,3.3727 1.628996,0.84642 1.996198,-0.82258 2.442422,-1.8566 0.685889,-1.39313 -1.018416,-2.65257 -1.807662,-3.67169 -0.308615,-0.6991 -1.186887,-1.32514 -0.87194,-2.17001"
       id="path4051-8-1-8-8-3-8-0-3-0"
       inkscape:connector-curvature="0"
       sodipodi:nodetypes="cccccc" />
    <path
       style="fill:#333333;stroke:#000000;stroke-width:0.93000001;stroke-linecap:round;stroke-linejoin:miter;stroke-miterlimit:4;stroke-opacity:1;stroke-dasharray:none"
       d="m 133.12464,824.76326 c 1.11655,1.54837 2.87892,2.38437 4.24827,3.65142 1.77463,1.49454 -0.40868,3.33787 -2.09532,3.23463 -1.80813,0.18202 -3.02852,-1.33368 -4.18307,-2.46272 -0.26119,-0.21321 -0.55283,-0.3926 -0.87098,-0.5073"
       id="path4336-7-3-8-1"
       inkscape:connector-curvature="0" />
    <path
       style="fill:#333333;stroke:#000000;stroke-width:0.93000001;stroke-miterlimit:4;stroke-opacity:1;stroke-dasharray:none"
       d="m 128.75,809.8622 c -5.14818,-1.06598 -10.61919,1.30068 -11.22545,6.00025 -0.56066,4.34613 -0.52384,3.65924 0.23706,7.44882 -0.31256,1.42227 -0.30391,2.98271 -0.65313,4.60096 -1.17647,5.4516 1.50747,10.65629 6.00826,11.62757 4.50078,0.97129 9.20111,-1.92793 10.24947,-7.40565 0.35102,-1.83422 0.63211,-3.36784 0.88896,-4.87702 1.99119,-2.70411 2.70004,-5.49007 2.87555,-8.42121 0.39518,-6.60005 -4.22306,-8.11311 -8.38072,-8.97372 z"
       id="path2985-6-6-0-8-7-5-9-7-2-3"
       inkscape:connector-curvature="0"
       sodipodi:nodetypes="sscssccss" />
    <g
       id="g4319-3-9-8-6"
       transform="matrix(0.38574943,0.08324598,-0.08324598,0.38574943,-59.893951,689.61859)"
       style="stroke-width:2.35648537;stroke-miterlimit:4;stroke-dasharray:none">
      <path
         sodipodi:nodetypes="ssssss"
         inkscape:connector-curvature="0"
         id="path4029-4-1-1-0-0-9"
         d="m 526.60758,225.66459 c 1.30376,7.17526 8.90089,4.97545 13.86986,4.54096 5.62963,-0.49226 11.99791,2.60399 13.60797,-3.16891 2.50066,-8.96618 -7.10574,-7.93813 -12.22627,-6.72513 -5.04069,1.19408 -11.83708,-4.38075 -15.28916,1.71943 -0.6144,1.08571 -0.18761,2.3942 0.0376,3.63365 z"
         style="fill:#e9c6af;stroke:#000000;stroke-width:2.35664034;stroke-linecap:butt;stroke-linejoin:miter;stroke-miterlimit:4;stroke-opacity:1;stroke-dasharray:none" />
      <path
         sodipodi:nodetypes="ccccsc"
         inkscape:connector-curvature="0"
         id="path4057-1-3-8-2-3-4"
         d="m 534.79163,223.66006 c -0.59064,0.27049 -1.0959,0.45531 -1.0883,1.20853 -0.005,0.71731 0.3195,1.50206 1.05833,1.72765 0.78323,0.44034 1.56627,-0.23349 1.91594,-0.9075 0.50579,-0.57716 0.47437,-1.12937 -0.19001,-1.87723 -0.32743,-0.36861 -1.16436,-0.42005 -1.69596,-0.15145 z"
         style="fill:#000000;fill-opacity:1;stroke:#000000;stroke-width:2.05121613;stroke-linecap:butt;stroke-linejoin:miter;stroke-miterlimit:4;stroke-opacity:1;stroke-dasharray:none" />
      <path
         sodipodi:nodetypes="csc"
         inkscape:connector-curvature="0"
         id="path4066-9-2-6-8-7-1"
         d="m 547.21449,223.73922 c -1.80654,0.51355 -1.91033,3.01092 0.39052,2.86663 1.67437,-0.10501 1.20599,-3.15557 -0.39052,-2.86663 z"
         style="fill:#000000;fill-opacity:1;stroke:#000000;stroke-width:2.08680105;stroke-linecap:butt;stroke-linejoin:miter;stroke-miterlimit:4;stroke-opacity:1;stroke-dasharray:none" />
    </g>
    <path
       style="fill:#333333;stroke:#000000;stroke-width:0.93000001;stroke-linecap:round;stroke-linejoin:miter;stroke-miterlimit:4;stroke-opacity:1;stroke-dasharray:none"
       d="m 121.14141,837.73274 c 1.11733,0.62348 2.79475,3.91065 3.45513,5.0287 0.94393,1.59805 1.91336,1.0344 3.07919,0.30652 0.69932,-0.43613 2.2096,-1.17556 1.44918,-2.48613 -0.64643,-1.2511 -0.7498,-0.89256 -0.92714,-2.35091"
       id="path4025-5-4-4-6-7-0-2-3-4-9"
       inkscape:connector-curvature="0"
       sodipodi:nodetypes="csscc" />
    <path
       style="fill:#333333;stroke:#000000;stroke-width:0.93000001;stroke-linecap:round;stroke-linejoin:miter;stroke-miterlimit:4;stroke-opacity:1;stroke-dasharray:none"
       d="m 117.90051,825.1464 c -1.03609,0.52475 -2.01761,1.15001 -3.05654,1.66269 -1.49487,0.94877 -2.60117,2.38955 -3.47783,3.89917 -0.88953,1.60586 0.76908,2.0174 1.79084,2.49103 1.37436,0.72277 2.67877,-0.94737 3.71857,-1.70917 0.70707,-0.28988 1.35629,-1.15115 2.19247,-0.8138"
       id="path4051-8-1-8-8-3-8-0-3-0-5"
       inkscape:connector-curvature="0"
       sodipodi:nodetypes="cccccc" />
    <g
       id="g3240"
       transform="matrix(0.93927337,-0.34316984,0.34316984,0.93927337,-307.55433,116.12718)"
       inkscape:transform-center-y="-1.3957719"
       inkscape:transform-center-x="0.40501223">
      <path
         inkscape:connector-curvature="0"
         id="path4336-7-3-7-0"
         d="m 174.63034,920.95599 c 1.56793,-1.08891 2.43506,-2.83618 3.7262,-4.18283 1.52577,-1.74786 3.3301,0.4678 3.19696,2.15235 0.14992,1.81107 -1.38718,3.0044 -2.53652,4.13874 -0.21782,0.25736 -0.40235,0.54577 -0.52268,0.86185"
         style="fill:#333333;stroke:#000000;stroke-width:0.93000001;stroke-linecap:round;stroke-linejoin:miter;stroke-miterlimit:4;stroke-opacity:1;stroke-dasharray:none" />
      <path
         sodipodi:nodetypes="ccscc"
         inkscape:connector-curvature="0"
         id="path4025-7-2-5-8-9-4-7-8-1-3-2"
         d="m 180.23095,926.08091 c 0.98416,-0.94224 3.84727,-3.73708 5.23515,-4.82468 0.62213,-0.62399 1.994,0.55976 2.65491,1.44423 0.47901,0.64117 1.33263,1.24976 0.53508,2.11485 -0.98935,1.00201 -1.6012,0.88192 -2.20442,2.22143"
         style="fill:#333333;stroke:#000000;stroke-width:0.93000001;stroke-linecap:butt;stroke-linejoin:miter;stroke-miterlimit:4;stroke-opacity:1;stroke-dasharray:none" />
      <path
         sodipodi:nodetypes="sscssccss"
         inkscape:connector-curvature="0"
         id="path2985-6-6-0-8-7-5-9-7-9-9"
         d="m 159.30936,921.4021 c -2.15334,4.79616 -1.02492,10.64934 3.43257,12.25688 4.12227,1.48664 3.45957,1.30225 7.32404,1.37828 1.32133,0.61208 2.84655,0.9413 4.35109,1.63199 5.06854,2.3268 10.73025,0.83104 12.65123,-3.35349 1.92099,-4.18453 0.10605,-9.40033 -5.01567,-11.60768 -1.71503,-0.73912 -3.15164,-1.34504 -4.56967,-1.92191 -2.20991,-2.52852 -4.77686,-3.82267 -7.60079,-4.62748 -6.3587,-1.81215 -8.83403,2.36999 -10.5728,6.24341 z"
         style="fill:#333333;stroke:#000000;stroke-width:0.93000001;stroke-miterlimit:4;stroke-opacity:1;stroke-dasharray:none" />
      <path
         sodipodi:nodetypes="csscc"
         inkscape:connector-curvature="0"
         id="path4025-5-4-4-6-7-0-2-3-18-2"
         d="m 183.35701,924.57843 c 1.1073,0.64114 4.7899,0.40094 6.0884,0.39645 1.856,-0.006 1.8676,1.11493 1.8385,2.48903 -0.017,0.824 0.1202,2.49996 -1.3949,2.51699 -1.4057,0.0845 -1.1505,-0.18769 -2.4943,0.40593"
         style="fill:#333333;stroke:#000000;stroke-width:0.93000001;stroke-linecap:round;stroke-linejoin:miter;stroke-miterlimit:4;stroke-opacity:1;stroke-dasharray:none" />
      <g
         style="stroke-width:2.35648537;stroke-miterlimit:4;stroke-dasharray:none"
         transform="matrix(0.16464163,-0.35864418,0.35864418,0.16464163,1.1400493,1079.603)"
         id="g4319-3-9-0-4">
        <path
           style="fill:#e9c6af;stroke:#000000;stroke-width:2.35664034;stroke-linecap:butt;stroke-linejoin:miter;stroke-miterlimit:4;stroke-opacity:1;stroke-dasharray:none"
           d="m 526.60758,225.66459 c 1.30376,7.17526 8.90089,4.97545 13.86986,4.54096 5.62963,-0.49226 11.99791,2.60399 13.60797,-3.16891 2.50066,-8.96618 -7.10574,-7.93813 -12.22627,-6.72513 -5.04069,1.19408 -11.83708,-4.38075 -15.28916,1.71943 -0.6144,1.08571 -0.18761,2.3942 0.0376,3.63365 z"
           id="path4029-4-1-1-0-64-0"
           inkscape:connector-curvature="0"
           sodipodi:nodetypes="ssssss" />
        <path
           style="fill:#000000;fill-opacity:1;stroke:#000000;stroke-width:2.05121613;stroke-linecap:butt;stroke-linejoin:miter;stroke-miterlimit:4;stroke-opacity:1;stroke-dasharray:none"
           d="m 534.79163,223.66006 c -0.59064,0.27049 -1.0959,0.45531 -1.0883,1.20853 -0.005,0.71731 0.3195,1.50206 1.05833,1.72765 0.78323,0.44034 1.56627,-0.23349 1.91594,-0.9075 0.50579,-0.57716 0.47437,-1.12937 -0.19001,-1.87723 -0.32743,-0.36861 -1.16436,-0.42005 -1.69596,-0.15145 z"
           id="path4057-1-3-8-2-4-2"
           inkscape:connector-curvature="0"
           sodipodi:nodetypes="ccccsc" />
        <path
           style="fill:#000000;fill-opacity:1;stroke:#000000;stroke-width:2.08680105;stroke-linecap:butt;stroke-linejoin:miter;stroke-miterlimit:4;stroke-opacity:1;stroke-dasharray:none"
           d="m 547.21449,223.73922 c -1.80654,0.51355 -1.91033,3.01092 0.39052,2.86663 1.67437,-0.10501 1.20599,-3.15557 -0.39052,-2.86663 z"
           id="path4066-9-2-6-8-22-3"
           inkscape:connector-curvature="0"
           sodipodi:nodetypes="csc" />
      </g>
      <path
         sodipodi:nodetypes="cccccc"
         inkscape:connector-curvature="0"
         id="path4051-8-1-8-8-3-8-0-3-73-9"
         d="m 179.55984,927.72786 c 0.66032,-0.95542 1.22473,-1.97316 1.89328,-2.91932 0.86129,-1.54694 1.14634,-3.34096 1.19676,-5.08592 0.0158,-1.83572 -1.63827,-1.40625 -2.76221,-1.33513 -1.55271,0.0203 -1.90248,2.11043 -2.45298,3.27597 -0.48317,0.59205 -0.64293,1.6587 -1.53877,1.76107"
         style="fill:#333333;stroke:#000000;stroke-width:0.93000001;stroke-linecap:round;stroke-linejoin:miter;stroke-miterlimit:4;stroke-opacity:1;stroke-dasharray:none" />
    </g>
  </g>
</svg>
