<?xml version="1.0" encoding="UTF-8" standalone="no"?>
<!-- Created with Inkscape (http://www.inkscape.org/) -->

<svg
   xmlns:dc="http://purl.org/dc/elements/1.1/"
   xmlns:cc="http://creativecommons.org/ns#"
   xmlns:rdf="http://www.w3.org/1999/02/22-rdf-syntax-ns#"
   xmlns:svg="http://www.w3.org/2000/svg"
   xmlns="http://www.w3.org/2000/svg"
   xmlns:sodipodi="http://sodipodi.sourceforge.net/DTD/sodipodi-0.dtd"
   xmlns:inkscape="http://www.inkscape.org/namespaces/inkscape"
   width="150"
   height="150"
   id="svg2"
   version="1.1"
   inkscape:version="0.48.2 r9819"
   sodipodi:docname="runner.svg"
   inkscape:export-filename="/home/micha/Programmieren/git/platformer/images/runner.png"
   inkscape:export-xdpi="90"
   inkscape:export-ydpi="90">
  <sodipodi:namedview
     id="base"
     pagecolor="#000000"
     bordercolor="#666666"
     borderopacity="1.0"
     inkscape:pageopacity="0.0"
     inkscape:pageshadow="2"
     inkscape:zoom="4"
     inkscape:cx="105.77659"
     inkscape:cy="56.452218"
     inkscape:document-units="px"
     inkscape:current-layer="layer1"
     showgrid="false"
     inkscape:showpageshadow="true"
     inkscape:window-width="1280"
     inkscape:window-height="750"
     inkscape:window-x="0"
     inkscape:window-y="25"
     inkscape:window-maximized="1">
    <inkscape:grid
       type="xygrid"
       id="grid2985"
       empspacing="5"
       visible="true"
       enabled="true"
       snapvisiblegridlinesonly="true"
       spacingx="10px"
       spacingy="10px"
       originx="0px"
       originy="0px" />
  </sodipodi:namedview>
  <defs
     id="defs4" />
  <metadata
     id="metadata7">
    <rdf:RDF>
      <cc:Work
         rdf:about="">
        <dc:format>image/svg+xml</dc:format>
        <dc:type
           rdf:resource="http://purl.org/dc/dcmitype/StillImage" />
        <dc:title></dc:title>
      </cc:Work>
    </rdf:RDF>
  </metadata>
  <g
     inkscape:label="Ebene 1"
     inkscape:groupmode="layer"
     id="layer1"
     transform="translate(0,-902.3622)">
    <path
       sodipodi:nodetypes="cccccccccccccccccccccccccccccccc"
       inkscape:connector-curvature="0"
       id="path5043-0"
       d="m 140.07992,941.6619 7.21725,-2.2231 -7.57352,-3.6424 8.97125,-1.9408 -6.88887,-3.247 5.84795,-3.0138 -5.59372,-1.2213 5.4811,-8.7028 -5.70328,3.5538 1.69071,-7.5136 -4.87395,4.489 1.08022,-9.1441 -5.8198,5.4947 -1.82788,-7.9018 -4.2141,8.2475 0.332,-8.4806 -2.55182,7.1077 -6.80051,-7.6691 1.4114,8.9394 -4.34067,-7.3444 -0.62136,7.4007 -8.43826,-1.0378 4.35127,7.1679 -6.87131,-0.5896 6.45121,4.6376 -6.83618,4.7254 6.66307,1.1083 -9.21489,5.9993 9.52879,0.572 -9.03301,1.4944 8.72233,2.206 z"
       style="fill:#333333;fill-opacity:1;stroke:none" />
    <path
       style="fill:#000000;fill-opacity:1;stroke:none"
       d="m 109.71915,941.3952 -7.07107,-2.6516 7.77817,-3.182 -8.83883,-2.4749 7.07107,-2.8284 -5.65686,-3.3588 5.65686,-0.8839 -4.94975,-9.0156 5.48008,3.8891 -1.23744,-7.6014 4.5962,4.773 -0.53033,-9.1924 5.48007,5.8336 2.2981,-7.7781 3.71231,8.4852 0.17678,-8.4852 2.12132,7.2478 7.24784,-7.2478 -1.94454,8.8388 4.77297,-7.0711 0.17678,7.4246 8.48528,-0.5303 -4.77297,6.8943 6.89429,-0.1768 -6.71752,4.2427 6.54074,5.1265 -6.71751,0.7071 8.83883,6.5407 -9.54594,0 8.92722,2.033 -8.83883,1.6793 z"
       id="path4035-5"
       inkscape:connector-curvature="0"
       sodipodi:nodetypes="cccccccccccccccccccccccccccccccc" />
    <path
       style="fill:#800080;stroke:#000000;stroke-width:2;stroke-linecap:butt;stroke-linejoin:miter;stroke-miterlimit:4;stroke-opacity:1;stroke-dasharray:none"
       d="m 108.875,942.3622 33.23402,-0.1768 c 0,0 2.18196,-14.4322 -0.44194,-20.948 -1.38952,-3.4505 -2.64807,-7.1316 -8.04334,-8.5737 -3.95708,-1.0577 -7.56431,-1.2798 -11.31371,-0.7955 -3.45588,0.4464 -7.53637,1.3036 -10.1495,3.6088 -1.71939,1.5168 -2.89689,4.1015 -3.5052,6.3122 -1.8436,6.6997 0.21967,20.573 0.21967,20.573 z"
       id="path3179-8-2"
       inkscape:connector-curvature="0"
       sodipodi:nodetypes="ccsssssc" />
    <path
       sodipodi:nodetypes="cccccccccccccccccccccccccccccccc"
       inkscape:connector-curvature="0"
       id="path5043-3-1-2"
       d="m 90.079914,941.6619 7.217254,-2.2231 -7.573524,-3.6424 8.971256,-1.9408 -6.888876,-3.247 5.847958,-3.0138 -5.593723,-1.2213 5.481094,-8.7028 -5.703276,3.5538 1.690712,-7.5136 -4.873948,4.489 1.080213,-9.1441 -5.819796,5.4947 -1.827881,-7.9018 -4.214098,8.2475 0.331999,-8.4806 -2.551818,7.1077 -6.800511,-7.6691 1.411403,8.9394 -4.340673,-7.3444 -0.621363,7.4007 -8.438256,-1.0378 4.351267,7.1679 -6.871308,-0.5896 6.451208,4.6376 -6.836179,4.7254 6.663072,1.1083 -9.21489,5.9993 9.528789,0.572 -9.033006,1.4944 8.722325,2.206 z"
       style="fill:#333333;fill-opacity:1;stroke:none" />
    <path
       style="fill:#000000;fill-opacity:1;stroke:none"
       d="m 59.719146,941.3952 -7.071069,-2.6516 7.778176,-3.182 -8.838836,-2.4749 7.071068,-2.8284 -5.656854,-3.3588 5.656854,-0.8839 -4.949747,-9.0156 5.480077,3.8891 -1.237437,-7.6014 4.596195,4.773 -0.53033,-9.1924 5.480077,5.8336 2.298097,-7.7781 3.712311,8.4852 0.176777,-8.4852 2.12132,7.2478 7.247845,-7.2478 -1.944544,8.8388 4.772971,-7.0711 0.176777,7.4246 8.485281,-0.5303 -4.772971,6.8943 6.894291,-0.1768 -6.717514,4.2427 6.540738,5.1265 -6.717515,0.7071 8.838835,6.5407 -9.545942,0 8.927224,2.033 -8.838836,1.6793 z"
       id="path4035-37-7-6"
       inkscape:connector-curvature="0"
       sodipodi:nodetypes="cccccccccccccccccccccccccccccccc" />
    <path
       style="fill:#800080;stroke:#000000;stroke-width:2;stroke-linecap:butt;stroke-linejoin:miter;stroke-miterlimit:4;stroke-opacity:1;stroke-dasharray:none"
       d="m 58.874998,942.3622 33.234019,-0.1768 c 0,0 2.181965,-14.4322 -0.441942,-20.948 -1.389522,-3.4505 -2.648066,-7.1316 -8.04334,-8.5737 -3.957074,-1.0577 -7.564307,-1.2798 -11.313708,-0.7955 -3.455882,0.4464 -7.536367,1.3036 -10.149495,3.6088 -1.719396,1.5168 -2.896895,4.1015 -3.505204,6.3122 -1.843598,6.6997 0.21967,20.573 0.21967,20.573 z"
       id="path3179-8-1-8-2"
       inkscape:connector-curvature="0"
       sodipodi:nodetypes="ccsssssc" />
    <path
       sodipodi:nodetypes="cccc"
       inkscape:connector-curvature="0"
       id="path3951-7-3-2-7-9"
       d="m 75.774586,924.06212 c 2.326673,1.8638 4.777262,4.58909 8.097279,3.86241 3.265163,-0.34323 3.908108,-5.28022 4.222052,-8.02959 -3.921089,5.59429 -8.004402,4.67215 -12.319331,4.16718 z"
       style="fill:#ffffff;stroke:#000000;stroke-width:1;stroke-linejoin:miter;stroke-miterlimit:4;stroke-opacity:1;stroke-dasharray:none" />
    <path
       sodipodi:nodetypes="csccc"
       inkscape:connector-curvature="0"
       id="path3949-0-6-7-0-6"
       d="m 62.855455,920.4539 c -0.570453,2.9296 -0.234493,3.98209 0.31331,5.96446 0.724867,2.62309 4.306383,2.62794 6.453319,1.64653 1.853083,-0.81288 3.575802,-2.21221 4.415789,-4.08304 -4.662873,1.56785 -8.253187,1.50326 -11.182418,-3.52795 z"
       style="fill:#ffffff;stroke:#000000;stroke-width:1;stroke-linejoin:miter;stroke-miterlimit:4;stroke-opacity:1;stroke-dasharray:none" />
    <g
       id="g4000"
       transform="translate(0,-50)">
      <path
         style="fill:#333333;fill-opacity:1;stroke:none"
         d="m 40.079914,991.6619 7.217254,-2.2231 -7.573524,-3.6424 8.971256,-1.9408 -6.888876,-3.247 5.847958,-3.0138 -5.593723,-1.2213 5.481094,-8.7028 -5.703276,3.5538 1.690712,-7.5136 -4.873948,4.489 1.080213,-9.1441 -5.819796,5.4947 -1.827881,-7.9018 -4.214098,8.2475 0.331999,-8.4806 -2.551818,7.1077 -6.800511,-7.6691 1.411403,8.9394 -4.340673,-7.3444 -0.621363,7.4007 -8.4382563,-1.0378 4.3512673,7.1679 -6.871308,-0.5896 6.451208,4.6376 -6.8361796,4.7254 6.6630726,1.1083 -9.21489,5.9993 9.528789,0.572 -9.0330062,1.4944 8.7223252,2.206 z"
         id="path5043-3-1-5"
         inkscape:connector-curvature="0"
         sodipodi:nodetypes="cccccccccccccccccccccccccccccccc" />
      <path
         sodipodi:nodetypes="cccccccccccccccccccccccccccccccc"
         inkscape:connector-curvature="0"
         id="path4035-37-7-7"
         d="m 9.7191459,991.3952 -7.0710694,-2.6516 7.7781765,-3.182 -8.8388365,-2.4749 7.071068,-2.8284 -5.656854,-3.3588 5.656854,-0.8839 -4.949747,-9.0156 5.480077,3.8891 -1.237437,-7.6014 4.5961955,4.773 -0.53033,-9.1924 5.480077,5.8336 2.298097,-7.7781 3.712311,8.4852 0.176777,-8.4852 2.12132,7.2478 7.247845,-7.2478 -1.944544,8.8388 4.772971,-7.0711 0.176777,7.4246 8.485281,-0.5303 -4.772971,6.8943 6.894291,-0.1768 -6.717514,4.2427 6.540738,5.1265 -6.717515,0.7071 8.838835,6.5407 -9.545942,0 8.927224,2.033 -8.838836,1.6793 z"
         style="fill:#000000;fill-opacity:1;stroke:none" />
      <path
         sodipodi:nodetypes="ccsssssc"
         inkscape:connector-curvature="0"
         id="path3179-8-1-8-3"
         d="m 8.8749979,992.3622 33.2340191,-0.1768 c 0,0 2.181965,-14.4322 -0.441942,-20.948 -1.389522,-3.4505 -2.648066,-7.1316 -8.04334,-8.5737 -3.957074,-1.0577 -7.564307,-1.2798 -11.313708,-0.7955 -3.455882,0.4464 -7.536367,1.3036 -10.149495,3.6088 -1.719396,1.5168 -2.8968951,4.1015 -3.5052041,6.3122 -1.843598,6.6997 0.21967,20.573 0.21967,20.573 z"
         style="fill:#800080;stroke:#000000;stroke-width:2;stroke-linecap:butt;stroke-linejoin:miter;stroke-miterlimit:4;stroke-opacity:1;stroke-dasharray:none" />
      <path
         sodipodi:nodetypes="csccc"
         inkscape:connector-curvature="0"
         id="path3949-0-6-7-0"
         d="m 13.791344,969.2888 c -1.236856,2.71627 -1.155174,3.81806 -1.083968,5.87349 0.09423,2.71977 3.576194,3.55835 5.892625,3.10377 1.991416,-0.3591 3.992588,-1.31888 5.245065,-2.94273 -3.813592,-2.58466 -6.481118,-4.47524 -10.053722,-6.03453 z"
         style="fill:#ffffff;stroke:#000000;stroke-width:1;stroke-linejoin:miter;stroke-miterlimit:4;stroke-opacity:1;stroke-dasharray:none" />
      <path
         sodipodi:nodetypes="cccc"
         inkscape:connector-curvature="0"
         id="path3951-7-3-2-7"
         d="m 26.123988,975.38835 c 2.686142,1.29297 5.686718,3.39752 8.758358,1.94301 3.104399,-1.06855 2.620898,-6.0237 2.308664,-8.77326 -4.520487,1.97666 -7.139862,4.8549 -11.067022,6.83025 z"
         style="fill:#ffffff;stroke:#000000;stroke-width:1;stroke-linejoin:miter;stroke-miterlimit:4;stroke-opacity:1;stroke-dasharray:none" />
      <path
         transform="matrix(1.5681818,0,0,1.5681818,-91.796861,939.80715)"
         d="m 70.710675,22.246059 c 0,0.488156 -0.435301,0.883884 -0.972272,0.883884 -0.536971,0 -0.972271,-0.395728 -0.972271,-0.883884 0,-0.488155 0.4353,-0.883883 0.972271,-0.883883 0.536971,0 0.972272,0.395728 0.972272,0.883883 z"
         sodipodi:ry="0.88388348"
         sodipodi:rx="0.9722718"
         sodipodi:cy="22.246059"
         sodipodi:cx="69.738403"
         id="path3167-7-5-3-5"
         style="fill:#000000;fill-opacity:1;stroke:none"
         sodipodi:type="arc" />
      <path
         transform="matrix(1.5681818,0,0,1.5681818,-76.497031,939.52811)"
         d="m 70.710675,22.246059 c 0,0.488156 -0.435301,0.883884 -0.972272,0.883884 -0.536971,0 -0.972271,-0.395728 -0.972271,-0.883884 0,-0.488155 0.4353,-0.883883 0.972271,-0.883883 0.536971,0 0.972272,0.395728 0.972272,0.883883 z"
         sodipodi:ry="0.88388348"
         sodipodi:rx="0.9722718"
         sodipodi:cy="22.246059"
         sodipodi:cx="69.738403"
         id="path3167-7-4-3-0"
         style="fill:#000000;fill-opacity:1;stroke:none"
         sodipodi:type="arc" />
    </g>
    <path
       style="fill:#000000;stroke:none"
       d="m 113.62524,921.75127 c -0.0703,2.35561 0.32591,3.13287 1.00596,4.60753 0.89986,1.95136 3.69119,1.49765 5.23874,0.45868 1.34008,-0.87009 2.50369,-2.18048 2.91926,-3.74553 -2.99991,2.48103 -6.85608,4.80797 -9.16396,-1.32068 z"
       id="path3949-0-3"
       inkscape:connector-curvature="0"
       sodipodi:nodetypes="csccc" />
    <path
       style="fill:#000000;stroke:none"
       d="m 126.8545,923.3987 c 1.79615,1.64428 3.64696,3.9973 6.39209,3.58366 2.6798,-0.10393 3.83098,-3.87803 4.23473,-6.10199 -4.07986,6.42259 -6.4956,4.59522 -10.62682,2.51833 z"
       id="path3951-7-0"
       inkscape:connector-curvature="0"
       sodipodi:nodetypes="cccc" />
    <path
       sodipodi:nodetypes="cccccccccccccccccccccccccccccccc"
       inkscape:connector-curvature="0"
       id="path5043-3-1-5-9"
       d="m 90.079914,991.6619 7.217254,-2.2231 -7.573524,-3.6424 8.971256,-1.9408 -6.888876,-3.247 5.847958,-3.0138 -5.593723,-1.2213 5.481094,-8.7028 -5.703276,3.5538 1.690712,-7.5136 -4.873948,4.489 1.080213,-9.1441 -5.819796,5.4947 -1.827881,-7.9018 -4.214098,8.2475 0.331999,-8.4806 -2.551818,7.1077 -6.800511,-7.6691 1.411403,8.9394 -4.340673,-7.3444 -0.621363,7.4007 -8.438256,-1.0378 4.351267,7.1679 -6.871308,-0.5896 6.451208,4.6376 -6.83618,4.7254 6.663073,1.1083 -9.21489,5.9993 9.528789,0.572 -9.033006,1.4944 8.722325,2.206 z"
       style="fill:#333333;fill-opacity:1;stroke:none" />
    <path
       style="fill:#000000;fill-opacity:1;stroke:none"
       d="m 59.719146,991.3952 -7.071069,-2.6516 7.778176,-3.182 -8.838836,-2.4749 7.071067,-2.8284 -5.656854,-3.3588 5.656854,-0.8839 -4.949747,-9.0156 5.480077,3.8891 -1.237437,-7.6014 4.596196,4.773 -0.53033,-9.1924 5.480077,5.8336 2.298097,-7.7781 3.712311,8.4852 0.176777,-8.4852 2.12132,7.2478 7.247845,-7.2478 -1.944544,8.8388 4.772971,-7.0711 0.176777,7.4246 8.485281,-0.5303 -4.772971,6.8943 6.894291,-0.1768 -6.717514,4.2427 6.540738,5.1265 -6.717515,0.7071 8.838835,6.5407 -9.545942,0 8.927224,2.033 -8.838836,1.6793 z"
       id="path4035-37-7-7-3"
       inkscape:connector-curvature="0"
       sodipodi:nodetypes="cccccccccccccccccccccccccccccccc" />
    <path
       style="fill:#800080;stroke:#000000;stroke-width:2;stroke-linecap:butt;stroke-linejoin:miter;stroke-miterlimit:4;stroke-opacity:1;stroke-dasharray:none"
       d="m 58.874998,992.3622 33.234019,-0.1768 c 0,0 2.181965,-14.4322 -0.441942,-20.948 -1.389522,-3.4505 -2.648066,-7.1316 -8.04334,-8.5737 -3.957074,-1.0577 -7.564307,-1.2798 -11.313708,-0.7955 -3.455882,0.4464 -7.536367,1.3036 -10.149495,3.6088 -1.719396,1.5168 -2.896895,4.1015 -3.505204,6.3122 -1.843598,6.6997 0.21967,20.573 0.21967,20.573 z"
       id="path3179-8-1-8-3-6"
       inkscape:connector-curvature="0"
       sodipodi:nodetypes="ccsssssc" />
    <path
       style="fill:#ffffff;stroke:#000000;stroke-width:1;stroke-linejoin:miter;stroke-miterlimit:4;stroke-opacity:1;stroke-dasharray:none"
       d="m 63.791344,969.2888 c -1.236856,2.7163 -1.155174,3.8181 -1.083968,5.8735 0.09423,2.7198 3.576194,3.5583 5.892625,3.1038 1.991416,-0.3591 3.992588,-1.3189 5.245065,-2.9428 -3.813592,-2.5846 -6.481118,-4.4752 -10.053722,-6.0345 z"
       id="path3949-0-6-7-0-10"
       inkscape:connector-curvature="0"
       sodipodi:nodetypes="csccc" />
    <path
       style="fill:#ffffff;stroke:#000000;stroke-width:1;stroke-linejoin:miter;stroke-miterlimit:4;stroke-opacity:1;stroke-dasharray:none"
       d="m 76.123988,975.3884 c 2.686142,1.2929 5.686718,3.3975 8.758358,1.943 3.104399,-1.0686 2.620898,-6.0237 2.308664,-8.7733 -4.520487,1.9767 -7.139862,4.8549 -11.067022,6.8302 z"
       id="path3951-7-3-2-7-3"
       inkscape:connector-curvature="0"
       sodipodi:nodetypes="cccc" />
    <path
       sodipodi:type="arc"
       style="fill:#000000;fill-opacity:1;stroke:none"
       id="path3167-7-5-3-5-7"
       sodipodi:cx="69.738403"
       sodipodi:cy="22.246059"
       sodipodi:rx="0.9722718"
       sodipodi:ry="0.88388348"
       d="m 70.710675,22.246059 a 0.9722718,0.88388348 0 1 1 -1.944543,0 0.9722718,0.88388348 0 1 1 1.944543,0 z"
       transform="matrix(1.5681818,0,0,1.5681818,-39.796861,939.80715)" />
    <path
       sodipodi:type="arc"
       style="fill:#000000;fill-opacity:1;stroke:none"
       id="path3167-7-4-3-0-7"
       sodipodi:cx="69.738403"
       sodipodi:cy="22.246059"
       sodipodi:rx="0.9722718"
       sodipodi:ry="0.88388348"
       d="m 70.710675,22.246059 a 0.9722718,0.88388348 0 1 1 -1.944543,0 0.9722718,0.88388348 0 1 1 1.944543,0 z"
       transform="matrix(1.5681818,0,0,1.5681818,-24.497031,939.52811)" />
    <path
       sodipodi:nodetypes="cccccccccccccccccccccccccccccccc"
       inkscape:connector-curvature="0"
       id="path5043-3-1-5-90"
       d="m 140.07991,991.6619 7.21726,-2.2231 -7.57353,-3.6424 8.97126,-1.9408 -6.88888,-3.247 5.84796,-3.0138 -5.59372,-1.2213 5.48109,-8.7028 -5.70327,3.5538 1.69071,-7.5136 -4.87395,4.489 1.08021,-9.1441 -5.81979,5.4947 -1.82788,-7.9018 -4.2141,8.2475 0.332,-8.4806 -2.55182,7.1077 -6.80051,-7.6691 1.4114,8.9394 -4.34067,-7.3444 -0.62136,7.4007 -8.43826,-1.0378 4.35127,7.1679 -6.87131,-0.5896 6.45121,4.6376 -6.83618,4.7254 6.66307,1.1083 -9.21489,5.9993 9.52879,0.572 -9.03301,1.4944 8.72233,2.206 z"
       style="fill:#333333;fill-opacity:1;stroke:none" />
    <path
       style="fill:#000000;fill-opacity:1;stroke:none"
       d="m 109.71915,991.3952 -7.07107,-2.6516 7.77817,-3.182 -8.83883,-2.4749 7.07106,-2.8284 -5.65685,-3.3588 5.65685,-0.8839 -4.94974,-9.0156 5.48007,3.8891 -1.23743,-7.6014 4.59619,4.773 -0.53033,-9.1924 5.48008,5.8336 2.2981,-7.7781 3.71231,8.4852 0.17678,-8.4852 2.12132,7.2478 7.24784,-7.2478 -1.94454,8.8388 4.77297,-7.0711 0.17677,7.4246 8.48528,-0.5303 -4.77297,6.8943 6.8943,-0.1768 -6.71752,4.2427 6.54074,5.1265 -6.71752,0.7071 8.83884,6.5407 -9.54594,0 8.92722,2.033 -8.83884,1.6793 z"
       id="path4035-37-7-7-1"
       inkscape:connector-curvature="0"
       sodipodi:nodetypes="cccccccccccccccccccccccccccccccc" />
    <path
       style="fill:#800080;stroke:#000000;stroke-width:2;stroke-linecap:butt;stroke-linejoin:miter;stroke-miterlimit:4;stroke-opacity:1;stroke-dasharray:none"
       d="m 108.875,992.3622 33.23402,-0.1768 c 0,0 2.18196,-14.4322 -0.44195,-20.948 -1.38952,-3.4505 -2.64806,-7.1316 -8.04334,-8.5737 -3.95707,-1.0577 -7.5643,-1.2798 -11.3137,-0.7955 -3.45588,0.4464 -7.53637,1.3036 -10.1495,3.6088 -1.71939,1.5168 -2.89689,4.1015 -3.5052,6.3122 -1.8436,6.6997 0.21967,20.573 0.21967,20.573 z"
       id="path3179-8-1-8-3-7"
       inkscape:connector-curvature="0"
       sodipodi:nodetypes="ccsssssc" />
    <path
       style="fill:#ffffff;stroke:#000000;stroke-width:1;stroke-linejoin:miter;stroke-miterlimit:4;stroke-opacity:1;stroke-dasharray:none"
       d="m 113.79134,969.2888 c -1.23685,2.7163 -1.15517,3.8181 -1.08396,5.8735 0.0942,2.7198 3.57619,3.5583 5.89262,3.1038 1.99142,-0.3591 3.99259,-1.3189 5.24507,-2.9428 -3.8136,-2.5846 -6.48112,-4.4752 -10.05373,-6.0345 z"
       id="path3949-0-6-7-0-0"
       inkscape:connector-curvature="0"
       sodipodi:nodetypes="csccc" />
    <path
       style="fill:#ffffff;stroke:#000000;stroke-width:1;stroke-linejoin:miter;stroke-miterlimit:4;stroke-opacity:1;stroke-dasharray:none"
       d="m 126.12399,975.3884 c 2.68614,1.2929 5.68672,3.3975 8.75836,1.943 3.10439,-1.0686 2.62089,-6.0237 2.30866,-8.7733 -4.52049,1.9767 -7.13986,4.8549 -11.06702,6.8302 z"
       id="path3951-7-3-2-7-8"
       inkscape:connector-curvature="0"
       sodipodi:nodetypes="cccc" />
    <path
       sodipodi:type="arc"
       style="fill:#000000;fill-opacity:1;stroke:none"
       id="path3167-7-5-3-5-9"
       sodipodi:cx="69.738403"
       sodipodi:cy="22.246059"
       sodipodi:rx="0.9722718"
       sodipodi:ry="0.88388348"
       d="m 70.710675,22.246059 a 0.9722718,0.88388348 0 1 1 -1.944543,0 0.9722718,0.88388348 0 1 1 1.944543,0 z"
       transform="matrix(1.5681818,0,0,1.5681818,6.203139,939.80715)" />
    <path
       sodipodi:type="arc"
       style="fill:#000000;fill-opacity:1;stroke:none"
       id="path3167-7-4-3-0-76"
       sodipodi:cx="69.738403"
       sodipodi:cy="22.246059"
       sodipodi:rx="0.9722718"
       sodipodi:ry="0.88388348"
       d="m 70.710675,22.246059 a 0.9722718,0.88388348 0 1 1 -1.944543,0 0.9722718,0.88388348 0 1 1 1.944543,0 z"
       transform="matrix(1.5681818,0,0,1.5681818,21.502969,939.52811)" />
    <path
       transform="matrix(1.5681818,0,0,1.5681818,-42.174995,890.71524)"
       d="m 70.710675,22.246059 a 0.9722718,0.88388348 0 1 1 -1.944543,0 0.9722718,0.88388348 0 1 1 1.944543,0 z"
       sodipodi:ry="0.88388348"
       sodipodi:rx="0.9722718"
       sodipodi:cy="22.246059"
       sodipodi:cx="69.738403"
       id="path3167-7-5-3-5-77"
       style="fill:#000000;fill-opacity:1;stroke:none"
       sodipodi:type="arc" />
    <path
       transform="matrix(1.5681818,0,0,1.5681818,-26.122027,890.40311)"
       d="m 70.710675,22.246059 a 0.9722718,0.88388348 0 1 1 -1.944543,0 0.9722718,0.88388348 0 1 1 1.944543,0 z"
       sodipodi:ry="0.88388348"
       sodipodi:rx="0.9722718"
       sodipodi:cy="22.246059"
       sodipodi:cx="69.738403"
       id="path3167-7-4-3-0-75"
       style="fill:#000000;fill-opacity:1;stroke:none"
       sodipodi:type="arc" />
    <path
       style="fill:#000000;stroke:#000000;stroke-width:1px;stroke-linecap:butt;stroke-linejoin:miter;stroke-opacity:1"
       d="m 25,1033.9872 c -0.943007,0.3422 -2.180499,0.2645 -2.864637,1.064 -0.622816,1.1176 0.353347,2.3437 1.470386,2.5834 1.11107,0.5146 1.957841,-0.5516 2.584719,-1.3055 0.675552,-0.9943 -0.387439,-1.9112 -1.190468,-2.3419 z"
       id="path4444"
       inkscape:connector-curvature="0" />
    <path
       style="fill:#000000;stroke:#000000;stroke-width:1px;stroke-linecap:butt;stroke-linejoin:miter;stroke-opacity:1"
       d="m 74.875,1032.7372 c -0.685647,-0.018 -1.673305,0.091 -2.076061,0.3606 -0.837888,0.046 -1.54215,0.7122 -2.046341,1.378 -0.544118,0.613 -0.922889,1.4252 -0.762682,2.2546 -0.15443,0.9152 0.665607,1.5725 1.501412,1.6315 0.96085,0 1.922435,-0 2.883652,3e-4 0.696361,-0.2181 1.46317,-0.1266 2.169824,-0.256 0.85839,0.1854 1.585523,-0.2813 2.366345,-0.5155 1.033575,-0.061 1.57265,-1.0553 1.204049,-1.9891 -0.293495,-0.6706 -0.680933,-1.314 -1.110561,-1.9011 -0.630152,-0.4552 -1.392519,-0.8666 -2.187335,-0.8456 -0.648678,0.011 -1.310019,0.065 -1.942302,-0.1177 z"
       id="path4446"
       inkscape:connector-curvature="0" />
    <path
       style="fill:#000000;stroke:#000000;stroke-width:1px;stroke-linecap:butt;stroke-linejoin:miter;stroke-opacity:1"
       d="m 126,1029.6122 c -2.41689,-0.059 -4.98098,-0.1308 -7.10916,1.2137 -2.08754,0.6985 -3.82766,2.0198 -5.15616,3.7536 -1.78417,1.33 -0.74589,3.9602 1.19072,4.4733 3.489,1.2778 7.30319,0.8277 10.94881,0.9336 3.27596,-0.1518 7.06509,0.6124 9.77981,-1.6924 1.76701,-2.1456 -0.18353,-4.8387 -2.09026,-6.0702 -1.7429,-1.8741 -4.41661,-1.4744 -6.61931,-2.2874 l -0.47384,-0.1587 L 126,1029.6122 z"
       id="path4448"
       inkscape:connector-curvature="0" />
  </g>
</svg>
