<?xml version="1.0" encoding="UTF-8" standalone="no"?>
<!-- Created with Inkscape (http://www.inkscape.org/) -->

<svg
   xmlns:dc="http://purl.org/dc/elements/1.1/"
   xmlns:cc="http://creativecommons.org/ns#"
   xmlns:rdf="http://www.w3.org/1999/02/22-rdf-syntax-ns#"
   xmlns:svg="http://www.w3.org/2000/svg"
   xmlns="http://www.w3.org/2000/svg"
   xmlns:sodipodi="http://sodipodi.sourceforge.net/DTD/sodipodi-0.dtd"
   xmlns:inkscape="http://www.inkscape.org/namespaces/inkscape"
   inkscape:export-ydpi="90"
   inkscape:export-xdpi="90"
   inkscape:export-filename="/home/micha/Programmieren/git/platformer/images/bullet.png"
   sodipodi:docname="speechbubble.svg"
   inkscape:version="0.48.3.1 r9886"
   version="1.1"
   id="svg2"
   height="50"
   width="150">
  <sodipodi:namedview
     id="base"
     pagecolor="#000000"
     bordercolor="#666666"
     borderopacity="1.0"
     inkscape:pageopacity="0.0"
     inkscape:pageshadow="2"
     inkscape:zoom="4"
     inkscape:cx="139.17655"
     inkscape:cy="6.8222559"
     inkscape:document-units="px"
     inkscape:current-layer="layer1"
     showgrid="false"
     inkscape:showpageshadow="true"
     inkscape:window-width="1280"
     inkscape:window-height="750"
     inkscape:window-x="0"
     inkscape:window-y="25"
     inkscape:window-maximized="1">
    <inkscape:grid
       originy="0px"
       originx="0px"
       spacingy="10px"
       spacingx="10px"
       snapvisiblegridlinesonly="true"
       enabled="true"
       visible="true"
       empspacing="5"
       id="grid2985"
       type="xygrid" />
  </sodipodi:namedview>
  <defs
     id="defs4" />
  <metadata
     id="metadata7">
    <rdf:RDF>
      <cc:Work
         rdf:about="">
        <dc:format>image/svg+xml</dc:format>
        <dc:type
           rdf:resource="http://purl.org/dc/dcmitype/StillImage" />
        <dc:title />
      </cc:Work>
    </rdf:RDF>
  </metadata>
  <g
     transform="translate(0,-1002.3622)"
     id="layer1"
     inkscape:groupmode="layer"
     inkscape:label="Ebene 1">
    <path
       style="fill:#ffffff;fill-opacity:1;stroke:none"
       d="m 21.269795,1024.3483 c 1.511994,-0.1546 2.248595,-2.8046 -0.118242,-3.0015 -2.358948,-0.1963 -1.822415,3.1999 0.118242,3.0015 z"
       id="path4361"
       inkscape:connector-curvature="0"
       sodipodi:nodetypes="sss" />
    <path
       transform="matrix(0.98105082,-0.19375061,0.19375061,0.98105082,-4.3024813,1003.804)"
       style="fill:#ffffff;fill-opacity:1;stroke:#000000;stroke-width:2;stroke-miterlimit:4;stroke-opacity:1"
       d="M 47.729708,27.372583 C 48.555649,36.022405 37.212406,43.817278 24.837126,43.105709 20.290852,42.844302 16.033765,41.857298 12.453068,40.295338 L 2.691125,44.231047 5.6079176,35.780491 C 3.2550066,33.39774 1.8996758,30.542891 1.9445438,27.372583 2.0671752,18.707637 12.224827,10.7557 24.837126,11.639458 37.43345,12.522096 46.921263,18.905999 47.729708,27.372583 z"
       id="path3068"
       inkscape:connector-curvature="0"
       sodipodi:nodetypes="sscccsss" />
    <path
       style="fill:none;stroke:#000000;stroke-width:2;stroke-linecap:round;stroke-linejoin:miter;stroke-miterlimit:4;stroke-opacity:1;stroke-dasharray:none"
       d="m 10.75,1024.7372 c 0.386459,-2.492 2.131748,-3.0917 3.23943,-0.9735 1.365479,-0.048 2.856786,-4.2067 2.971736,-0.8902 0.35149,2.5162 2.252155,0.2159 3.027554,1.1506 0.812323,-2.0157 1.94035,-3.7395 3.318412,-1.1106 1.512531,-0.9554 2.655735,-3.2885 4.692718,-1.9269 2.057315,-2.2703 4.378014,1.4068 6.273313,-1.5523 1.241084,-1.0226 3.239413,0.1857 3.976837,-1.6971"
       id="path3853"
       inkscape:connector-curvature="0" />
    <path
       style="fill:none;stroke:#000000;stroke-width:2;stroke-linecap:round;stroke-linejoin:miter;stroke-miterlimit:4;stroke-opacity:1;stroke-dasharray:none"
       d="m 10.818484,1034.4739 c 1.102086,-1.9174 2.713934,-5.1514 4.808794,-2.1946 2.140035,0.3507 4.217748,-1.8423 5.93247,0.08 1.656695,-0.9223 2.5591,-5.0619 4.107514,-1.9101 2.17416,0.5209 3.954205,-1.2511 5.567547,-0.8549 0.674274,-1.5489 1.786168,-1.0566 2.202061,-1.0529 2.31701,-1.4844 5.409354,-0.4454 7.994644,-1.7904"
       id="path3855"
       inkscape:connector-curvature="0" />
    <path
       style="fill:#ffffff;fill-opacity:1;fill-rule:nonzero;stroke:none"
       d="m 116.31271,1025.8191 c 7.24518,7.0331 9.0548,11.09 11.11548,24.7753 5.39449,-7.5182 6.61989,-13.6563 8.18351,-24.7665 l 0.42417,-4.2775 -19.91085,0.1472 z"
       id="path3058-7"
       inkscape:connector-curvature="0"
       sodipodi:nodetypes="cccccc" />
    <path
       style="fill:#ffffff;fill-opacity:1;stroke:#000000;stroke-width:2;stroke-miterlimit:4;stroke-opacity:1"
       d="m 97.826242,1021.4103 c 2.486198,8.3258 -7.131838,18.1708 -19.410483,19.8704 -4.510774,0.6244 -8.878425,0.4809 -12.693901,-0.3577 l -8.814417,5.7525 1.224222,-8.8555 c -2.769985,-1.8818 -4.652762,-4.4199 -5.222993,-7.5388 -1.558531,-8.5246 6.865949,-18.2939 19.410484,-19.8705 12.528645,-1.5746 23.073557,2.85 25.507088,10.9996 z"
       id="path3068-9"
       inkscape:connector-curvature="0"
       sodipodi:nodetypes="sscccsss" />
    <path
       style="fill:none;stroke:#000000;stroke-width:2;stroke-linecap:round;stroke-linejoin:miter;stroke-miterlimit:4;stroke-opacity:1;stroke-dasharray:none"
       d="m 60.75,1024.7372 c 0.386459,-2.492 2.131748,-3.0917 3.23943,-0.9735 1.365479,-0.048 2.856786,-4.2067 2.971736,-0.8902 0.35149,2.5162 2.252155,0.2159 3.027554,1.1506 0.812323,-2.0157 1.94035,-3.7395 3.318412,-1.1106 1.512531,-0.9554 2.655735,-3.2885 4.692718,-1.9269 2.057315,-2.2703 4.378014,1.4068 6.273313,-1.5523 1.241084,-1.0226 3.239413,0.1857 3.976837,-1.6971"
       id="path3853-2"
       inkscape:connector-curvature="0" />
    <path
       style="fill:none;stroke:#000000;stroke-width:2;stroke-linecap:round;stroke-linejoin:miter;stroke-miterlimit:4;stroke-opacity:1;stroke-dasharray:none"
       d="m 60.818484,1034.4739 c 1.102086,-1.9174 2.713934,-5.1514 4.808794,-2.1946 2.140035,0.3507 4.217748,-1.8423 5.93247,0.08 1.656695,-0.9223 2.5591,-5.0619 4.107514,-1.9101 2.17416,0.5209 3.954205,-1.2511 5.567547,-0.8549 0.674274,-1.5489 1.786168,-1.0566 2.202061,-1.0529 2.31701,-1.4844 5.409354,-0.4454 7.994644,-1.7904"
       id="path3855-5"
       inkscape:connector-curvature="0" />
    <rect
       style="fill:#00ff00;fill-opacity:1;stroke:none;opacity:0.59677418999999998;stroke-width:1;stroke-miterlimit:4;stroke-dasharray:1, 1;stroke-dashoffset:0"
       id="rect3053"
       width="20.152544"
       height="16.086679"
       x="24.925514"
       y="27.726135"
       transform="translate(0,1002.3622)" />
    <rect
       transform="translate(0,1002.3622)"
       y="27.726135"
       x="24.925514"
       height="16.086679"
       width="20.152544"
       id="rect3823"
       style="fill:none;fill-opacity:1;stroke:#000000;opacity:1;stroke-width:1;stroke-miterlimit:4;stroke-dasharray:1, 1;stroke-dashoffset:0;stroke-opacity:1" />
    <g
       id="g3930"
       transform="matrix(0.79456193,0,0,0.79456193,15.53361,211.86784)">
      <path
         transform="matrix(0.76173576,0,0,0.76173576,19.933494,1014.7693)"
         d="m 97.5,35.75 c 0,5.79899 -4.70101,10.5 -10.5,10.5 -5.79899,0 -10.5,-4.70101 -10.5,-10.5 0,-5.79899 4.70101,-10.5 10.5,-10.5 5.79899,0 10.5,4.70101 10.5,10.5 z"
         sodipodi:ry="10.5"
         sodipodi:rx="10.5"
         sodipodi:cy="35.75"
         sodipodi:cx="87"
         id="path3843"
         style="fill:#e2e5d9;fill-opacity:1;stroke:none"
         sodipodi:type="arc" />
      <path
         id="path3845"
         transform="translate(0,1002.3622)"
         d="m 88.75,27.71875 -4.96875,0.1875 0,2 1.78125,-0.0625 -0.09375,1.09375 c -1.360647,0.114808 -2.636413,0.519828 -3.75,1.1875 C 81.167525,31.420524 80.25,30.375 80.25,30.375 l -1.9375,1.34375 1.625,1.8125 c -1.540295,1.579657 -2.5,3.719269 -2.5,6.09375 0,4.8289 3.95228,8.78125 8.78125,8.78125 4.828971,0 8.75,-3.95235 8.75,-8.78125 0,-2.382818 -0.950144,-4.543872 -2.5,-6.125 L 94,32 l -1.59375,-1.46875 -1.6875,1.625 c -1.098106,-0.665755 -2.345287,-1.091708 -3.6875,-1.21875 l 0,-1.03125 1.5625,0.03125 z m -2.53125,4.6875 c 4.005626,0 7.21875,3.21305 7.21875,7.21875 0,4.0056 -3.213124,7.25 -7.21875,7.25 -4.005625,0 -7.25,-3.2444 -7.25,-7.25 0,-4.0057 3.244375,-7.21875 7.25,-7.21875 z m 3.762878,3.247441 c -0.05977,0.03061 -0.113267,0.07341 -0.15625,0.125 -0.923727,0.8394 -0.993791,0.895659 -1.919128,1.752559 -0.311848,0.181284 -0.570842,0.418404 -0.75,0.625 -0.169787,0.195816 -0.328066,0.357038 -0.46875,0.46875 -0.467346,-0.306839 -1.157106,-0.324749 -1.5,0.1875 -0.273138,0.4098 -0.646103,1.06185 -0.1875,1.46875 0.362404,0.3615 0.828082,0.6835 1.34375,0.75 0.482739,-0.1 0.78294,-0.57695 1.03125,-0.96875 0.0848,-0.21755 0.02724,-0.445925 -0.0625,-0.65625 0.246424,-0.187913 0.438577,-0.414785 0.59375,-0.59375 0.19993,-0.2306 0.354501,-0.38925 0.53125,-0.46875 l 0.09375,-0.03125 0.0625,-0.0625 c 0.913529,-0.8461 0.988049,-0.875309 1.919128,-1.721309 0.23829,-0.212427 0.186656,-0.659922 -0.09375,-0.8125 -0.110476,-0.06851 -0.248277,-0.09148 -0.375,-0.0625 -0.02081,-0.0013 -0.04169,-0.0013 -0.0625,0 z"
         style="fill:#800000;fill-opacity:1;stroke:none"
         inkscape:connector-curvature="0"
         sodipodi:nodetypes="cccccccccsssccccccccssssscccccccccccccccccc" />
    </g>
    <path
       style="font-size:medium;font-style:normal;font-variant:normal;font-weight:normal;font-stretch:normal;text-indent:0;text-align:start;text-decoration:none;line-height:normal;letter-spacing:normal;word-spacing:normal;text-transform:none;direction:ltr;block-progression:tb;writing-mode:lr-tb;text-anchor:start;baseline-shift:baseline;color:#000000;fill:#000000;fill-opacity:1;fill-rule:nonzero;stroke:none;stroke-width:2;marker:none;visibility:visible;display:inline;overflow:visible;enable-background:accumulate;font-family:Sans;-inkscape-font-specification:Sans"
       d="m 116.1875,1024.8125 a 1.0001,1.0001 0 0 0 -0.5625,1.7187 c 7.16699,6.9572 8.76032,10.59 10.8125,24.2188 a 1.0001,1.0001 0 0 0 1.8125,0.4375 c 5.50297,-7.6694 6.77717,-14.0875 8.34375,-25.2187 a 1.0001,1.0001 0 1 0 -1.96875,-0.2813 c -1.40319,9.9702 -2.64218,15.7432 -6.6875,22.1563 -1.9358,-11.5164 -4.15636,-16.1674 -10.9375,-22.75 a 1.0001,1.0001 0 0 0 -0.8125,-0.2813 z"
       id="path3774"
       inkscape:connector-curvature="0" />
  </g>
</svg>
