<?xml version="1.0" encoding="UTF-8" standalone="no"?>
<!-- Created with Inkscape (http://www.inkscape.org/) -->

<svg
   xmlns:dc="http://purl.org/dc/elements/1.1/"
   xmlns:cc="http://creativecommons.org/ns#"
   xmlns:rdf="http://www.w3.org/1999/02/22-rdf-syntax-ns#"
   xmlns:svg="http://www.w3.org/2000/svg"
   xmlns="http://www.w3.org/2000/svg"
   xmlns:sodipodi="http://sodipodi.sourceforge.net/DTD/sodipodi-0.dtd"
   xmlns:inkscape="http://www.inkscape.org/namespaces/inkscape"
   inkscape:export-ydpi="90"
   inkscape:export-xdpi="90"
   inkscape:export-filename="/home/micha/Programmieren/git/platformer/images/bullet.png"
   sodipodi:docname="speechbubble.svg"
   inkscape:version="0.48.3.1 r9886"
   version="1.1"
   id="svg2"
   height="50"
   width="50">
  <sodipodi:namedview
     id="base"
     pagecolor="#000000"
     bordercolor="#666666"
     borderopacity="1.0"
     inkscape:pageopacity="0.0"
     inkscape:pageshadow="2"
     inkscape:zoom="5.6568542"
     inkscape:cx="34.224098"
     inkscape:cy="23.824655"
     inkscape:document-units="px"
     inkscape:current-layer="layer1"
     showgrid="false"
     inkscape:showpageshadow="true"
     inkscape:window-width="1280"
     inkscape:window-height="750"
     inkscape:window-x="0"
     inkscape:window-y="25"
     inkscape:window-maximized="1">
    <inkscape:grid
       originy="0px"
       originx="0px"
       spacingy="10px"
       spacingx="10px"
       snapvisiblegridlinesonly="true"
       enabled="true"
       visible="true"
       empspacing="5"
       id="grid2985"
       type="xygrid" />
  </sodipodi:namedview>
  <defs
     id="defs4" />
  <metadata
     id="metadata7">
    <rdf:RDF>
      <cc:Work
         rdf:about="">
        <dc:format>image/svg+xml</dc:format>
        <dc:type
           rdf:resource="http://purl.org/dc/dcmitype/StillImage" />
        <dc:title></dc:title>
      </cc:Work>
    </rdf:RDF>
  </metadata>
  <g
     transform="translate(0,-1002.3622)"
     id="layer1"
     inkscape:groupmode="layer"
     inkscape:label="Ebene 1">
    <path
       style="fill:#ffffff;fill-opacity:1;stroke:none"
       d="m 21.269795,1024.3483 c 1.511994,-0.1546 2.248595,-2.8046 -0.118242,-3.0015 -2.358948,-0.1963 -1.822415,3.1999 0.118242,3.0015 z"
       id="path4361"
       inkscape:connector-curvature="0"
       sodipodi:nodetypes="sss" />
    <path
       transform="matrix(0.98105082,-0.19375061,0.19375061,0.98105082,-4.3024813,1003.804)"
       style="fill:#ffffff;fill-opacity:1;stroke:#000000;stroke-width:2;stroke-miterlimit:4;stroke-opacity:1"
       d="M 47.729708,27.372583 C 48.555649,36.022405 37.212406,43.817278 24.837126,43.105709 20.290852,42.844302 16.033765,41.857298 12.453068,40.295338 L 2.691125,44.231047 5.6079176,35.780491 C 3.2550066,33.39774 1.8996758,30.542891 1.9445438,27.372583 2.0671752,18.707637 12.224827,10.7557 24.837126,11.639458 37.43345,12.522096 46.921263,18.905999 47.729708,27.372583 z"
       id="path3068"
       inkscape:connector-curvature="0"
       sodipodi:nodetypes="sscccsss" />
    <path
       style="fill:none;stroke:#000000;stroke-width:2;stroke-linecap:round;stroke-linejoin:miter;stroke-miterlimit:4;stroke-opacity:1;stroke-dasharray:none"
       d="m 10.75,1024.7372 c 0.386459,-2.492 2.131748,-3.0917 3.23943,-0.9735 1.365479,-0.048 2.856786,-4.2067 2.971736,-0.8902 0.35149,2.5162 2.252155,0.2159 3.027554,1.1506 0.812323,-2.0157 1.94035,-3.7395 3.318412,-1.1106 1.512531,-0.9554 2.655735,-3.2885 4.692718,-1.9269 2.057315,-2.2703 4.378014,1.4068 6.273313,-1.5523 1.241084,-1.0226 3.239413,0.1857 3.976837,-1.6971"
       id="path3853"
       inkscape:connector-curvature="0" />
    <path
       style="fill:none;stroke:#000000;stroke-width:2;stroke-linecap:round;stroke-linejoin:miter;stroke-miterlimit:4;stroke-opacity:1;stroke-dasharray:none"
       d="m 10.818484,1034.4739 c 1.102086,-1.9174 2.713934,-5.1514 4.808794,-2.1946 2.140035,0.3507 4.217748,-1.8423 5.93247,0.08 1.656695,-0.9223 2.5591,-5.0619 4.107514,-1.9101 2.17416,0.5209 3.954205,-1.2511 5.567547,-0.8549 0.674274,-1.5489 1.786168,-1.0566 2.202061,-1.0529 2.31701,-1.4844 5.409354,-0.4454 7.994644,-1.7904"
       id="path3855"
       inkscape:connector-curvature="0" />
  </g>
</svg>
