<?xml version="1.0" encoding="UTF-8" standalone="no"?>
<!-- Created with Inkscape (http://www.inkscape.org/) -->

<svg
   xmlns:dc="http://purl.org/dc/elements/1.1/"
   xmlns:cc="http://creativecommons.org/ns#"
   xmlns:rdf="http://www.w3.org/1999/02/22-rdf-syntax-ns#"
   xmlns:svg="http://www.w3.org/2000/svg"
   xmlns="http://www.w3.org/2000/svg"
   xmlns:sodipodi="http://sodipodi.sourceforge.net/DTD/sodipodi-0.dtd"
   xmlns:inkscape="http://www.inkscape.org/namespaces/inkscape"
   width="300"
   height="100"
   id="svg2"
   version="1.1"
   inkscape:version="0.48.4 r9939"
   sodipodi:docname="star.svg"
   inkscape:export-filename="/home/micha/Programmieren/git/platformer/images/64appearblock.png"
   inkscape:export-xdpi="144"
   inkscape:export-ydpi="144">
  <sodipodi:namedview
     id="base"
     pagecolor="#000000"
     bordercolor="#666666"
     borderopacity="1.0"
     inkscape:pageopacity="0.0"
     inkscape:pageshadow="2"
     inkscape:zoom="1.4142135"
     inkscape:cx="179.10376"
     inkscape:cy="95.49254"
     inkscape:document-units="px"
     inkscape:current-layer="layer1"
     showgrid="true"
     inkscape:showpageshadow="true"
     inkscape:window-width="1280"
     inkscape:window-height="750"
     inkscape:window-x="0"
     inkscape:window-y="25"
     inkscape:window-maximized="1">
    <inkscape:grid
       type="xygrid"
       id="grid2985"
       empspacing="5"
       visible="true"
       enabled="true"
       snapvisiblegridlinesonly="true"
       spacingx="10px"
       spacingy="10px"
       originx="0px"
       originy="0px" />
  </sodipodi:namedview>
  <defs
     id="defs4">
    <inkscape:path-effect
       effect="skeletal"
       id="path-effect3017"
       is_visible="true"
       pattern="M 0,0 0,10 10,5 z"
       copytype="single_stretched"
       prop_scale="1"
       scale_y_rel="false"
       spacing="0"
       normal_offset="0"
       tang_offset="0"
       prop_units="false"
       vertical_pattern="false"
       fuse_tolerance="0" />
  </defs>
  <metadata
     id="metadata7">
    <rdf:RDF>
      <cc:Work
         rdf:about="">
        <dc:format>image/svg+xml</dc:format>
        <dc:type
           rdf:resource="http://purl.org/dc/dcmitype/StillImage" />
        <dc:title />
      </cc:Work>
    </rdf:RDF>
  </metadata>
  <g
     inkscape:label="Ebene 1"
     inkscape:groupmode="layer"
     id="layer1"
     transform="translate(0,-952.3622)">
    <path
       style="fill:#b400ff;fill-opacity:1;stroke:#800080;stroke-width:2;stroke-linecap:round;stroke-miterlimit:4;stroke-opacity:1;stroke-dashoffset:0;stroke-dasharray:none"
       inkscape:transform-center-x="0.40096755"
       inkscape:transform-center-y="-1.8037834"
       d="m 79.250006,1038.1122 c -9.86226,-2.5726 -20.098506,-4.1728 -27.702444,-12.6171 -6.535136,8.3146 -16.349038,11.9453 -26.098574,15.6678 -0.394944,-9.8015 -1.185708,-19.5312 3.439016,-30.2454 -8.513658,-4.7286 -16.334769,-11.01535 -22.9658732,-19.97964 8.4666262,-2.33596 13.1282712,-5.47296 29.8278732,-6.07566 3.868984,-12.57125 6.975818,-18.97959 11.904884,-28.01588 6.010408,8.48528 11.636864,17.12134 14.995622,26.4905 9.244634,-1.41358 19.681502,0.35213 30.323496,2.66484 -6.084902,9.01948 -12.17417,18.03024 -20.560068,22.44774 5.795302,9.8876 6.614012,19.7752 6.836068,29.6628 z"
       id="path3836"
       inkscape:connector-curvature="0"
       sodipodi:nodetypes="ccccccccccc" />
    <path
       style="fill:#ffffff;fill-opacity:1;stroke:#800080;stroke-width:2;stroke-linecap:butt;stroke-linejoin:miter;stroke-miterlimit:4;stroke-opacity:1;stroke-dasharray:none"
       d="m 150.70368,1000.4726 c 2.98364,-2.606 8.42213,-3.6516 11.4541,-4.7744 1.89482,-0.7016 3.59194,-0.886 2.73749,4.531 -0.37319,2.366 0.74791,6.1348 -0.1262,8.3036 -0.89994,2.2328 -3.77856,3.0528 -6.02239,3.4434 -2.84061,0.4946 -5.92671,0.134 -8.37188,-1.5306 -2.47816,1.1902 -3.7837,2.434 -6.33582,2.4352 -3.49854,0 -6.88489,-1.8926 -8.60584,-4.7442 -1.06688,-1.7678 -0.2529,-5.7526 -0.34058,-7.7422 -0.12392,-2.812 0.78144,-6.0606 6.4382,-2.7408 3.096,1.8172 6.67514,1.6078 9.17301,2.818 z"
       id="path3839-4"
       inkscape:connector-curvature="0"
       sodipodi:nodetypes="csssscsssscc" />
    <g
       id="g3783">
      <path
         inkscape:connector-curvature="0"
         id="path3844-1-4"
         d="m 255.69104,1002.9935 c -2.22115,0.7523 -1.5687,3.9359 0.72573,3.9657 1.85069,0.5781 3.64423,-1.8063 2.67536,-3.387 -0.8415,-0.8269 -2.33225,-1.0682 -3.40109,-0.5787 z"
         style="fill:#000000;fill-opacity:1;stroke:#000000;stroke-width:3.38174701px;stroke-linecap:butt;stroke-linejoin:miter;stroke-opacity:1" />
      <path
         inkscape:connector-curvature="0"
         id="path3846-4-5"
         d="m 243.57398,1003.2794 c -1.97193,-0.069 -3.22882,2.8315 -1.57285,4.0683 1.38293,0.7671 3.54813,0.6305 4.62841,-0.5757 0.89501,-1.3105 0.25576,-3.2135 -1.19549,-3.8021 -0.61205,-0.3328 -1.42468,-0.2865 -1.86007,0.3095 z"
         style="fill:#000000;fill-opacity:1;stroke:#000000;stroke-width:2.8569901px;stroke-linecap:butt;stroke-linejoin:miter;stroke-opacity:1" />
    </g>
  </g>
</svg>
