<?xml version="1.0" encoding="UTF-8" standalone="no"?>
<!-- Created with Inkscape (http://www.inkscape.org/) -->

<svg
   xmlns:dc="http://purl.org/dc/elements/1.1/"
   xmlns:cc="http://creativecommons.org/ns#"
   xmlns:rdf="http://www.w3.org/1999/02/22-rdf-syntax-ns#"
   xmlns:svg="http://www.w3.org/2000/svg"
   xmlns="http://www.w3.org/2000/svg"
   xmlns:sodipodi="http://sodipodi.sourceforge.net/DTD/sodipodi-0.dtd"
   xmlns:inkscape="http://www.inkscape.org/namespaces/inkscape"
   inkscape:export-ydpi="90"
   inkscape:export-xdpi="90"
   inkscape:export-filename="/home/micha/Programmieren/git/platformer/images/bullet.png"
   sodipodi:docname="upwind.svg"
   inkscape:version="0.48.3.1 r9886"
   version="1.1"
   id="svg2"
   height="50"
   width="50">
  <sodipodi:namedview
     id="base"
     pagecolor="#000000"
     bordercolor="#666666"
     borderopacity="1.0"
     inkscape:pageopacity="0.0"
     inkscape:pageshadow="2"
     inkscape:zoom="2"
     inkscape:cx="57.844599"
     inkscape:cy="88.372588"
     inkscape:document-units="px"
     inkscape:current-layer="layer1"
     showgrid="true"
     inkscape:showpageshadow="true"
     inkscape:window-width="1280"
     inkscape:window-height="750"
     inkscape:window-x="0"
     inkscape:window-y="25"
     inkscape:window-maximized="1"
     inkscape:snap-global="false">
    <inkscape:grid
       originy="0px"
       originx="0px"
       spacingy="10px"
       spacingx="10px"
       snapvisiblegridlinesonly="true"
       enabled="true"
       visible="true"
       empspacing="5"
       id="grid2985"
       type="xygrid" />
  </sodipodi:namedview>
  <defs
     id="defs4" />
  <metadata
     id="metadata7">
    <rdf:RDF>
      <cc:Work
         rdf:about="">
        <dc:format>image/svg+xml</dc:format>
        <dc:type
           rdf:resource="http://purl.org/dc/dcmitype/StillImage" />
        <dc:title></dc:title>
      </cc:Work>
    </rdf:RDF>
  </metadata>
  <g
     transform="translate(0,-1002.3622)"
     id="layer1"
     inkscape:groupmode="layer"
     inkscape:label="Ebene 1">
    <path
       style="fill:#ffffff;stroke:#000000;stroke-width:1.2107085;stroke-linecap:butt;stroke-miterlimit:4;stroke-opacity:1;stroke-dashoffset:0"
       d="m 43.343478,1030.4291 c 0,4.3367 -7.92893,7.3663 -17.982342,7.3663 -10.053413,0 -18.4242844,-3.0296 -18.4242844,-7.3663 0,-0.6594 -0.1231845,-4.9486 0.012903,-6.1543 0.3227486,-1.2879 9.4003574,-2.14 17.9252454,-2.14 8.978405,0 17.344867,0.1477 18.368893,2.2739 0.206743,0.4292 0.09958,5.5566 0.09958,6.0204 z"
       id="path3982-1-9-1"
       inkscape:connector-curvature="0"
       sodipodi:nodetypes="ssscsss" />
    <path
       sodipodi:type="arc"
       style="fill:#ffffff;stroke:#000000;stroke-width:2;stroke-linecap:butt;stroke-miterlimit:4;stroke-opacity:1;stroke-dasharray:none;stroke-dashoffset:0"
       id="path3982-1-1"
       sodipodi:cx="24.25"
       sodipodi:cy="24.625"
       sodipodi:rx="19.75"
       sodipodi:ry="19.75"
       d="m 44,24.625 a 19.75,19.75 0 1 1 -39.5,0 19.75,19.75 0 1 1 39.5,0 z"
       transform="matrix(0.92168675,0,0,0.39759036,2.7740963,1014.9465)" />
    <g
       id="g3974-6-7"
       transform="matrix(0.70928786,0,0,0.30596731,7.4095534,710.5248)"
       style="fill:#008080;stroke-width:2.81972956999999980;stroke-miterlimit:4;stroke-dasharray:none">
      <path
         sodipodi:nodetypes="sss"
         inkscape:connector-curvature="0"
         id="path4361-1-7"
         d="m 21.269795,1024.3483 c 1.511994,-0.1546 2.248595,-2.8046 -0.118242,-3.0015 -2.358948,-0.1963 -1.822415,3.1999 0.118242,3.0015 z"
         style="fill:#008080;fill-opacity:1;stroke:none" />
      <path
         inkscape:transform-center-y="10.625"
         inkscape:transform-center-x="4.6875"
         sodipodi:nodetypes="csccssc"
         inkscape:connector-curvature="0"
         id="path3964-4-8"
         d="m 27.400388,1028.6741 c 0.601882,2.8479 0.87514,5.965 0.445303,8.7479 -0.398464,2.5798 -1.943106,4.743 -3.659259,6.6699 -3.408262,2.7354 -8.616948,4.4667 -10.775066,2.3716 -1.156999,-1.1548 -1.859365,-4.0154 0.722951,-7.5464 1.282167,-1.7532 4.891227,-2.3343 6.046449,-4.5411 0.907133,-1.7329 2.139365,-4.3057 3.153758,-5.964"
         style="fill:#008080;stroke:#000000;stroke-width:2.81972956999999980;stroke-linecap:butt;stroke-linejoin:miter;stroke-miterlimit:4;stroke-opacity:1;stroke-dasharray:none" />
      <path
         style="fill:#008080;stroke:#000000;stroke-width:2.81972956999999980;stroke-linecap:butt;stroke-linejoin:miter;stroke-miterlimit:4;stroke-opacity:1;stroke-dasharray:none"
         d="m 22.440749,1028.7442 c -2.767299,-0.9027 -5.603417,-2.2246 -7.79856,-3.9883 -2.034924,-1.635 -3.135988,-4.0543 -3.94664,-6.504 -0.664831,-4.3193 0.440159,-9.6958 3.333597,-10.5172 1.578594,-0.4246 4.407158,0.3974 6.173893,4.3993 0.877223,1.987 -0.423983,5.403 0.909509,7.5069 1.047299,1.652 2.659158,4.0056 3.588126,5.7132"
         id="path3970-9-4"
         inkscape:connector-curvature="0"
         sodipodi:nodetypes="csccssc"
         inkscape:transform-center-x="7.2957949"
         inkscape:transform-center-y="-9.0882023" />
      <path
         inkscape:transform-center-y="-2.3420712"
         inkscape:transform-center-x="-11.202837"
         sodipodi:nodetypes="csccssc"
         inkscape:connector-curvature="0"
         id="path3972-1-5"
         d="m 24.859821,1024.414 c 2.165413,-1.9452 4.728272,-3.7404 7.353252,-4.7596 2.433405,-0.9448 5.079112,-0.6887 7.605933,-0.1659 4.073056,1.5839 8.176749,5.2291 7.441398,8.1456 -0.421586,1.5794 -2.547755,3.618 -6.896849,3.1471 -2.159399,-0.2338 -4.467177,-3.0687 -6.955933,-2.9658 -1.954302,0.081 -4.798528,0.3001 -6.741854,0.2508"
         style="fill:#008080;stroke:#000000;stroke-width:2.81972956999999980;stroke-linecap:butt;stroke-linejoin:miter;stroke-miterlimit:4;stroke-opacity:1;stroke-dasharray:none" />
    </g>
    <path
       sodipodi:type="arc"
       style="fill:#000080;fill-opacity:1;stroke:#000000;stroke-width:2;stroke-linecap:butt;stroke-miterlimit:4;stroke-opacity:1;stroke-dasharray:none;stroke-dashoffset:0"
       id="path3980-1-5"
       sodipodi:cx="24.375"
       sodipodi:cy="24.75"
       sodipodi:rx="2.875"
       sodipodi:ry="2.875"
       d="m 27.25,24.75 a 2.875,2.875 0 1 1 -5.75,0 2.875,2.875 0 1 1 5.75,0 z"
       transform="matrix(1,0,0,0.43137255,0.50000035,1014.0607)" />
  </g>
</svg>
