<?xml version="1.0" encoding="UTF-8" standalone="no"?>
<!-- Created with Inkscape (http://www.inkscape.org/) -->

<svg
   xmlns:dc="http://purl.org/dc/elements/1.1/"
   xmlns:cc="http://creativecommons.org/ns#"
   xmlns:rdf="http://www.w3.org/1999/02/22-rdf-syntax-ns#"
   xmlns:svg="http://www.w3.org/2000/svg"
   xmlns="http://www.w3.org/2000/svg"
   xmlns:sodipodi="http://sodipodi.sourceforge.net/DTD/sodipodi-0.dtd"
   xmlns:inkscape="http://www.inkscape.org/namespaces/inkscape"
   inkscape:export-ydpi="90"
   inkscape:export-xdpi="90"
   inkscape:export-filename="/home/micha/Programmieren/git/platformer/images/bullet.png"
   sodipodi:docname="windmillpreview.svg"
   inkscape:version="0.48.3.1 r9886"
   version="1.1"
   id="svg2"
   height="50"
   width="50">
  <sodipodi:namedview
     id="base"
     pagecolor="#000000"
     bordercolor="#666666"
     borderopacity="1.0"
     inkscape:pageopacity="0.0"
     inkscape:pageshadow="2"
     inkscape:zoom="2.8284271"
     inkscape:cx="28.175521"
     inkscape:cy="51.678313"
     inkscape:document-units="px"
     inkscape:current-layer="layer1"
     showgrid="true"
     inkscape:showpageshadow="true"
     inkscape:window-width="1440"
     inkscape:window-height="850"
     inkscape:window-x="0"
     inkscape:window-y="25"
     inkscape:window-maximized="1">
    <inkscape:grid
       originy="0px"
       originx="0px"
       spacingy="10px"
       spacingx="10px"
       snapvisiblegridlinesonly="true"
       enabled="true"
       visible="true"
       empspacing="5"
       id="grid2985"
       type="xygrid" />
  </sodipodi:namedview>
  <defs
     id="defs4" />
  <metadata
     id="metadata7">
    <rdf:RDF>
      <cc:Work
         rdf:about="">
        <dc:format>image/svg+xml</dc:format>
        <dc:type
           rdf:resource="http://purl.org/dc/dcmitype/StillImage" />
        <dc:title></dc:title>
      </cc:Work>
    </rdf:RDF>
  </metadata>
  <g
     transform="translate(0,-1002.3622)"
     id="layer1"
     inkscape:groupmode="layer"
     inkscape:label="Ebene 1">
    <path
       style="fill:#ffffff;fill-opacity:1;stroke:none"
       d="m 21.269795,1024.3483 c 1.511994,-0.1546 2.248595,-2.8046 -0.118242,-3.0015 -2.358948,-0.1963 -1.822415,3.1999 0.118242,3.0015 z"
       id="path4361"
       inkscape:connector-curvature="0"
       sodipodi:nodetypes="sss" />
    <g
       id="g5446"
       transform="matrix(0,-0.11105005,0.11105005,0,-67.912303,993.42761)"
       style="stroke-width:9.00494862;stroke-miterlimit:4;stroke-dasharray:none">
      <g
         id="g5394"
         style="stroke-width:9.00494862;stroke-miterlimit:4;stroke-dasharray:none">
        <g
           id="g3990"
           transform="translate(-330.34523,-190.48978)"
           inkscape:transform-center-x="-88.000004"
           inkscape:transform-center-y="-43.500002"
           style="stroke-width:9.00494862;stroke-miterlimit:4;stroke-dasharray:none">
          <path
             sodipodi:nodetypes="sssssssccssssssscs"
             transform="translate(0,802.3622)"
             inkscape:connector-curvature="0"
             id="path3904"
             d="m 152.90585,142.31735 c -6.18859,3.97029 -11.24707,8.28699 -17.35066,12.38676 -6.05449,4.0668 -12.97957,8.06245 -19.12531,11.99 -6.1221,3.91243 -12.55027,6.88701 -18.747366,10.67954 -5.857476,3.5847 -11.548364,7.42172 -17.337287,11.1161 -6.121892,3.90687 -11.241694,7.48771 -17.287163,11.51183 -6.312001,4.20154 -13.084397,8.65325 -19.396257,12.85499 -5.84284,3.88953 -18.228208,11.98228 -18.228208,11.98228 l 179.431331,0.74704 c 0,0 -1.1775,-1.81677 -2.02086,-2.98222 -0.84336,-1.16544 -2.12941,-2.84307 -3.58306,-5.09036 -1.45365,-2.24728 -3.44386,-4.43732 -5.27474,-7.68284 -1.83087,-3.24552 -3.3947,-7.61062 -5.36973,-11.77078 -1.97504,-4.16016 -2.9631,-8.1749 -4.84922,-13.1661 -1.88612,-4.99119 -4.93499,-10.73778 -6.49913,-16.4764 -1.56414,-5.73863 -1.64538,-11.34916 -2.65447,-17.75161 -1.00909,-6.40245 -2.13399,-15.03084 -2.06117,-18.86485 0,0 -13.52148,6.58698 -19.6467,10.51662 z"
             style="fill:#c8b7b7;stroke:#000000;stroke-width:9.00494862;stroke-linecap:butt;stroke-linejoin:miter;stroke-miterlimit:4;stroke-opacity:1;stroke-dasharray:none" />
          <path
             style="fill:#502d16;stroke:#000000;stroke-width:9.00494862;stroke-linecap:butt;stroke-linejoin:miter;stroke-miterlimit:4;stroke-opacity:1;stroke-dasharray:none"
             d="m 48.795956,1024.2189 c 6.689019,-0.065 13.35337,-0.6389 20.040017,-0.7839 6.289273,-0.1363 12.583777,-0.084 18.875827,-0.081 6.542635,0 13.08592,0.011 19.62743,0.1 6.0528,0.082 12.09947,0.3796 18.15325,0.4006 6.45363,0.022 12.90322,-0.2875 19.35692,-0.2933 6.81956,-0.01 13.63726,0.1677 20.45531,0.2729 6.01121,0.092 12.01992,0.3097 18.03246,0.316 6.58839,0.01 19.76076,-0.305 19.76076,-0.305 5.04868,0 3.6062,6.5349 0,7.0157 0,0 -13.23639,-0.1051 -19.8539,-0.1898 -6.17685,-0.079 -12.35145,-0.2507 -18.52893,-0.2975 -6.5044,-0.049 -13.01027,-0.056 -19.51425,0.018 -6.12509,0.069 -12.24379,0.3576 -18.36936,0.3979 -6.4363,0.042 -12.87204,-0.1245 -19.30838,-0.164 -6.78084,-0.041 -13.564193,-0.2058 -20.342981,-0.077 -6.167441,0.1171 -12.308767,0.7865 -18.478269,0.7726 -6.391614,-0.014 -12.745596,-0.8089 -19.136342,-0.8871 C 43.041679,1030.3542 30,1030.8611 30,1030.8611 l 0,-7.0157 c 0,0 12.528858,0.4337 18.795956,0.3735 z"
             id="path3862"
             inkscape:connector-curvature="0"
             sodipodi:nodetypes="ssssssssccssssssssccs" />
          <path
             sodipodi:type="arc"
             style="fill:#784421;stroke:#000000;stroke-width:15.53795052;stroke-linecap:square;stroke-linejoin:miter;stroke-miterlimit:4;stroke-opacity:1;stroke-dasharray:none;stroke-dashoffset:0"
             id="path3090"
             sodipodi:cx="20"
             sodipodi:cy="20"
             sodipodi:rx="10"
             sodipodi:ry="10"
             d="m 30,20 c 0,5.522847 -4.477153,10 -10,10 -5.522847,0 -10,-4.477153 -10,-10 0,-5.522847 4.477153,-10 10,-10 5.522847,0 10,4.477153 10,10 z"
             transform="matrix(0.57954545,0,0,0.57954545,13.409091,1015.7713)" />
        </g>
        <g
           inkscape:transform-center-y="43.499984"
           inkscape:transform-center-x="88.000002"
           transform="matrix(-1,0,0,-1,-280.81329,1863.8308)"
           id="g5370"
           style="stroke-width:9.00494862;stroke-miterlimit:4;stroke-dasharray:none">
          <path
             style="fill:#c8b7b7;stroke:#000000;stroke-width:9.00494862;stroke-linecap:butt;stroke-linejoin:miter;stroke-miterlimit:4;stroke-opacity:1;stroke-dasharray:none"
             d="m 152.90585,142.31735 c -6.18859,3.97029 -11.24707,8.28699 -17.35066,12.38676 -6.05449,4.0668 -12.97957,8.06245 -19.12531,11.99 -6.1221,3.91243 -12.55027,6.88701 -18.747366,10.67954 -5.857476,3.5847 -11.548364,7.42172 -17.337287,11.1161 -6.121892,3.90687 -11.241694,7.48771 -17.287163,11.51183 -6.312001,4.20154 -13.084397,8.65325 -19.396257,12.85499 -5.84284,3.88953 -18.228208,11.98228 -18.228208,11.98228 l 179.431331,0.74704 c 0,0 -1.1775,-1.81677 -2.02086,-2.98222 -0.84336,-1.16544 -2.12941,-2.84307 -3.58306,-5.09036 -1.45365,-2.24728 -3.44386,-4.43732 -5.27474,-7.68284 -1.83087,-3.24552 -3.3947,-7.61062 -5.36973,-11.77078 -1.97504,-4.16016 -2.9631,-8.1749 -4.84922,-13.1661 -1.88612,-4.99119 -4.93499,-10.73778 -6.49913,-16.4764 -1.56414,-5.73863 -1.64538,-11.34916 -2.65447,-17.75161 -1.00909,-6.40245 -2.13399,-15.03084 -2.06117,-18.86485 0,0 -13.52148,6.58698 -19.6467,10.51662 z"
             id="path5372"
             inkscape:connector-curvature="0"
             transform="translate(0,802.3622)"
             sodipodi:nodetypes="sssssssccssssssscs" />
          <path
             sodipodi:nodetypes="ssssssssccssssssssccs"
             inkscape:connector-curvature="0"
             id="path5374"
             d="m 48.795956,1024.2189 c 6.689019,-0.065 13.35337,-0.6389 20.040017,-0.7839 6.289273,-0.1363 12.583777,-0.084 18.875827,-0.081 6.542635,0 13.08592,0.011 19.62743,0.1 6.0528,0.082 12.09947,0.3796 18.15325,0.4006 6.45363,0.022 12.90322,-0.2875 19.35692,-0.2933 6.81956,-0.01 13.63726,0.1677 20.45531,0.2729 6.01121,0.092 12.01992,0.3097 18.03246,0.316 6.58839,0.01 19.76076,-0.305 19.76076,-0.305 5.04868,0 3.6062,6.5349 0,7.0157 0,0 -13.23639,-0.1051 -19.8539,-0.1898 -6.17685,-0.079 -12.35145,-0.2507 -18.52893,-0.2975 -6.5044,-0.049 -13.01027,-0.056 -19.51425,0.018 -6.12509,0.069 -12.24379,0.3576 -18.36936,0.3979 -6.4363,0.042 -12.87204,-0.1245 -19.30838,-0.164 -6.78084,-0.041 -13.564193,-0.2058 -20.342981,-0.077 -6.167441,0.1171 -12.308767,0.7865 -18.478269,0.7726 -6.391614,-0.014 -12.745596,-0.8089 -19.136342,-0.8871 C 43.041679,1030.3542 30,1030.8611 30,1030.8611 l 0,-7.0157 c 0,0 12.528858,0.4337 18.795956,0.3735 z"
             style="fill:#502d16;stroke:#000000;stroke-width:9.00494862;stroke-linecap:butt;stroke-linejoin:miter;stroke-miterlimit:4;stroke-opacity:1;stroke-dasharray:none" />
          <path
             transform="matrix(0.57954545,0,0,0.57954545,13.409091,1015.7713)"
             d="m 30,20 c 0,5.522847 -4.477153,10 -10,10 -5.522847,0 -10,-4.477153 -10,-10 0,-5.522847 4.477153,-10 10,-10 5.522847,0 10,4.477153 10,10 z"
             sodipodi:ry="10"
             sodipodi:rx="10"
             sodipodi:cy="20"
             sodipodi:cx="20"
             id="path5376"
             style="fill:#784421;stroke:#000000;stroke-width:15.53795052;stroke-linecap:square;stroke-linejoin:miter;stroke-miterlimit:4;stroke-opacity:1;stroke-dasharray:none;stroke-dashoffset:0"
             sodipodi:type="arc" />
        </g>
        <g
           inkscape:transform-center-y="88.000004"
           inkscape:transform-center-x="-43.500004"
           transform="matrix(0,1,-1,0,721.58104,811.90455)"
           id="g5378"
           style="stroke-width:9.00494862;stroke-miterlimit:4;stroke-dasharray:none">
          <path
             style="fill:#c8b7b7;stroke:#000000;stroke-width:9.00494862;stroke-linecap:butt;stroke-linejoin:miter;stroke-miterlimit:4;stroke-opacity:1;stroke-dasharray:none"
             d="m 152.90585,142.31735 c -6.18859,3.97029 -11.24707,8.28699 -17.35066,12.38676 -6.05449,4.0668 -12.97957,8.06245 -19.12531,11.99 -6.1221,3.91243 -12.55027,6.88701 -18.747366,10.67954 -5.857476,3.5847 -11.548364,7.42172 -17.337287,11.1161 -6.121892,3.90687 -11.241694,7.48771 -17.287163,11.51183 -6.312001,4.20154 -13.084397,8.65325 -19.396257,12.85499 -5.84284,3.88953 -18.228208,11.98228 -18.228208,11.98228 l 179.431331,0.74704 c 0,0 -1.1775,-1.81677 -2.02086,-2.98222 -0.84336,-1.16544 -2.12941,-2.84307 -3.58306,-5.09036 -1.45365,-2.24728 -3.44386,-4.43732 -5.27474,-7.68284 -1.83087,-3.24552 -3.3947,-7.61062 -5.36973,-11.77078 -1.97504,-4.16016 -2.9631,-8.1749 -4.84922,-13.1661 -1.88612,-4.99119 -4.93499,-10.73778 -6.49913,-16.4764 -1.56414,-5.73863 -1.64538,-11.34916 -2.65447,-17.75161 -1.00909,-6.40245 -2.13399,-15.03084 -2.06117,-18.86485 0,0 -13.52148,6.58698 -19.6467,10.51662 z"
             id="path5380"
             inkscape:connector-curvature="0"
             transform="translate(0,802.3622)"
             sodipodi:nodetypes="sssssssccssssssscs" />
          <path
             sodipodi:nodetypes="ssssssssccssssssssccs"
             inkscape:connector-curvature="0"
             id="path5382"
             d="m 48.795956,1024.2189 c 6.689019,-0.065 13.35337,-0.6389 20.040017,-0.7839 6.289273,-0.1363 12.583777,-0.084 18.875827,-0.081 6.542635,0 13.08592,0.011 19.62743,0.1 6.0528,0.082 12.09947,0.3796 18.15325,0.4006 6.45363,0.022 12.90322,-0.2875 19.35692,-0.2933 6.81956,-0.01 13.63726,0.1677 20.45531,0.2729 6.01121,0.092 12.01992,0.3097 18.03246,0.316 6.58839,0.01 19.76076,-0.305 19.76076,-0.305 5.04868,0 3.6062,6.5349 0,7.0157 0,0 -13.23639,-0.1051 -19.8539,-0.1898 -6.17685,-0.079 -12.35145,-0.2507 -18.52893,-0.2975 -6.5044,-0.049 -13.01027,-0.056 -19.51425,0.018 -6.12509,0.069 -12.24379,0.3576 -18.36936,0.3979 -6.4363,0.042 -12.87204,-0.1245 -19.30838,-0.164 -6.78084,-0.041 -13.564193,-0.2058 -20.342981,-0.077 -6.167441,0.1171 -12.308767,0.7865 -18.478269,0.7726 -6.391614,-0.014 -12.745596,-0.8089 -19.136342,-0.8871 C 43.041679,1030.3542 30,1030.8611 30,1030.8611 l 0,-7.0157 c 0,0 12.528858,0.4337 18.795956,0.3735 z"
             style="fill:#502d16;stroke:#000000;stroke-width:9.00494862;stroke-linecap:butt;stroke-linejoin:miter;stroke-miterlimit:4;stroke-opacity:1;stroke-dasharray:none" />
          <path
             transform="matrix(0.57954545,0,0,0.57954545,13.409091,1015.7713)"
             d="m 30,20 c 0,5.522847 -4.477153,10 -10,10 -5.522847,0 -10,-4.477153 -10,-10 0,-5.522847 4.477153,-10 10,-10 5.522847,0 10,4.477153 10,10 z"
             sodipodi:ry="10"
             sodipodi:rx="10"
             sodipodi:cy="20"
             sodipodi:cx="20"
             id="path5384"
             style="fill:#784421;stroke:#000000;stroke-width:15.53795052;stroke-linecap:square;stroke-linejoin:miter;stroke-miterlimit:4;stroke-opacity:1;stroke-dasharray:none;stroke-dashoffset:0"
             sodipodi:type="arc" />
        </g>
        <g
           id="g5386"
           transform="matrix(0,-1,1,0,-1332.7395,861.43649)"
           inkscape:transform-center-x="43.499942"
           inkscape:transform-center-y="-88.000002"
           style="stroke-width:9.00494862;stroke-miterlimit:4;stroke-dasharray:none">
          <path
             sodipodi:nodetypes="sssssssccssssssscs"
             transform="translate(0,802.3622)"
             inkscape:connector-curvature="0"
             id="path5388"
             d="m 152.90585,142.31735 c -6.18859,3.97029 -11.24707,8.28699 -17.35066,12.38676 -6.05449,4.0668 -12.97957,8.06245 -19.12531,11.99 -6.1221,3.91243 -12.55027,6.88701 -18.747366,10.67954 -5.857476,3.5847 -11.548364,7.42172 -17.337287,11.1161 -6.121892,3.90687 -11.241694,7.48771 -17.287163,11.51183 -6.312001,4.20154 -13.084397,8.65325 -19.396257,12.85499 -5.84284,3.88953 -18.228208,11.98228 -18.228208,11.98228 l 179.431331,0.74704 c 0,0 -1.1775,-1.81677 -2.02086,-2.98222 -0.84336,-1.16544 -2.12941,-2.84307 -3.58306,-5.09036 -1.45365,-2.24728 -3.44386,-4.43732 -5.27474,-7.68284 -1.83087,-3.24552 -3.3947,-7.61062 -5.36973,-11.77078 -1.97504,-4.16016 -2.9631,-8.1749 -4.84922,-13.1661 -1.88612,-4.99119 -4.93499,-10.73778 -6.49913,-16.4764 -1.56414,-5.73863 -1.64538,-11.34916 -2.65447,-17.75161 -1.00909,-6.40245 -2.13399,-15.03084 -2.06117,-18.86485 0,0 -13.52148,6.58698 -19.6467,10.51662 z"
             style="fill:#c8b7b7;stroke:#000000;stroke-width:9.00494862;stroke-linecap:butt;stroke-linejoin:miter;stroke-miterlimit:4;stroke-opacity:1;stroke-dasharray:none" />
          <path
             style="fill:#502d16;stroke:#000000;stroke-width:9.00494862;stroke-linecap:butt;stroke-linejoin:miter;stroke-miterlimit:4;stroke-opacity:1;stroke-dasharray:none"
             d="m 48.795956,1024.2189 c 6.689019,-0.065 13.35337,-0.6389 20.040017,-0.7839 6.289273,-0.1363 12.583777,-0.084 18.875827,-0.081 6.542635,0 13.08592,0.011 19.62743,0.1 6.0528,0.082 12.09947,0.3796 18.15325,0.4006 6.45363,0.022 12.90322,-0.2875 19.35692,-0.2933 6.81956,-0.01 13.63726,0.1677 20.45531,0.2729 6.01121,0.092 12.01992,0.3097 18.03246,0.316 6.58839,0.01 19.76076,-0.305 19.76076,-0.305 5.04868,0 3.6062,6.5349 0,7.0157 0,0 -13.23639,-0.1051 -19.8539,-0.1898 -6.17685,-0.079 -12.35145,-0.2507 -18.52893,-0.2975 -6.5044,-0.049 -13.01027,-0.056 -19.51425,0.018 -6.12509,0.069 -12.24379,0.3576 -18.36936,0.3979 -6.4363,0.042 -12.87204,-0.1245 -19.30838,-0.164 -6.78084,-0.041 -13.564193,-0.2058 -20.342981,-0.077 -6.167441,0.1171 -12.308767,0.7865 -18.478269,0.7726 -6.391614,-0.014 -12.745596,-0.8089 -19.136342,-0.8871 C 43.041679,1030.3542 30,1030.8611 30,1030.8611 l 0,-7.0157 c 0,0 12.528858,0.4337 18.795956,0.3735 z"
             id="path5390"
             inkscape:connector-curvature="0"
             sodipodi:nodetypes="ssssssssccssssssssccs" />
          <path
             sodipodi:type="arc"
             style="fill:#784421;stroke:#000000;stroke-width:15.53795052;stroke-linecap:square;stroke-linejoin:miter;stroke-miterlimit:4;stroke-opacity:1;stroke-dasharray:none;stroke-dashoffset:0"
             id="path5392"
             sodipodi:cx="20"
             sodipodi:cy="20"
             sodipodi:rx="10"
             sodipodi:ry="10"
             d="m 30,20 c 0,5.522847 -4.477153,10 -10,10 -5.522847,0 -10,-4.477153 -10,-10 0,-5.522847 4.477153,-10 10,-10 5.522847,0 10,4.477153 10,10 z"
             transform="matrix(0.57954545,0,0,0.57954545,13.409091,1015.7713)" />
        </g>
      </g>
      <g
         transform="matrix(0.70710678,-0.70710678,0.70710678,0.70710678,-681.11749,28.977955)"
         id="g5412"
         style="stroke-width:9.00494862;stroke-miterlimit:4;stroke-dasharray:none">
        <g
           inkscape:transform-center-y="-43.500002"
           inkscape:transform-center-x="-88.000004"
           transform="translate(-330.34523,-190.48978)"
           id="g5414"
           style="stroke-width:9.00494862;stroke-miterlimit:4;stroke-dasharray:none">
          <path
             style="fill:#c8b7b7;stroke:#000000;stroke-width:9.00494862;stroke-linecap:butt;stroke-linejoin:miter;stroke-miterlimit:4;stroke-opacity:1;stroke-dasharray:none"
             d="m 152.90585,142.31735 c -6.18859,3.97029 -11.24707,8.28699 -17.35066,12.38676 -6.05449,4.0668 -12.97957,8.06245 -19.12531,11.99 -6.1221,3.91243 -12.55027,6.88701 -18.747366,10.67954 -5.857476,3.5847 -11.548364,7.42172 -17.337287,11.1161 -6.121892,3.90687 -11.241694,7.48771 -17.287163,11.51183 -6.312001,4.20154 -13.084397,8.65325 -19.396257,12.85499 -5.84284,3.88953 -18.228208,11.98228 -18.228208,11.98228 l 179.431331,0.74704 c 0,0 -1.1775,-1.81677 -2.02086,-2.98222 -0.84336,-1.16544 -2.12941,-2.84307 -3.58306,-5.09036 -1.45365,-2.24728 -3.44386,-4.43732 -5.27474,-7.68284 -1.83087,-3.24552 -3.3947,-7.61062 -5.36973,-11.77078 -1.97504,-4.16016 -2.9631,-8.1749 -4.84922,-13.1661 -1.88612,-4.99119 -4.93499,-10.73778 -6.49913,-16.4764 -1.56414,-5.73863 -1.64538,-11.34916 -2.65447,-17.75161 -1.00909,-6.40245 -2.13399,-15.03084 -2.06117,-18.86485 0,0 -13.52148,6.58698 -19.6467,10.51662 z"
             id="path5416"
             inkscape:connector-curvature="0"
             transform="translate(0,802.3622)"
             sodipodi:nodetypes="sssssssccssssssscs" />
          <path
             sodipodi:nodetypes="ssssssssccssssssssccs"
             inkscape:connector-curvature="0"
             id="path5418"
             d="m 48.795956,1024.2189 c 6.689019,-0.065 13.35337,-0.6389 20.040017,-0.7839 6.289273,-0.1363 12.583777,-0.084 18.875827,-0.081 6.542635,0 13.08592,0.011 19.62743,0.1 6.0528,0.082 12.09947,0.3796 18.15325,0.4006 6.45363,0.022 12.90322,-0.2875 19.35692,-0.2933 6.81956,-0.01 13.63726,0.1677 20.45531,0.2729 6.01121,0.092 12.01992,0.3097 18.03246,0.316 6.58839,0.01 19.76076,-0.305 19.76076,-0.305 5.04868,0 3.6062,6.5349 0,7.0157 0,0 -13.23639,-0.1051 -19.8539,-0.1898 -6.17685,-0.079 -12.35145,-0.2507 -18.52893,-0.2975 -6.5044,-0.049 -13.01027,-0.056 -19.51425,0.018 -6.12509,0.069 -12.24379,0.3576 -18.36936,0.3979 -6.4363,0.042 -12.87204,-0.1245 -19.30838,-0.164 -6.78084,-0.041 -13.564193,-0.2058 -20.342981,-0.077 -6.167441,0.1171 -12.308767,0.7865 -18.478269,0.7726 -6.391614,-0.014 -12.745596,-0.8089 -19.136342,-0.8871 C 43.041679,1030.3542 30,1030.8611 30,1030.8611 l 0,-7.0157 c 0,0 12.528858,0.4337 18.795956,0.3735 z"
             style="fill:#502d16;stroke:#000000;stroke-width:9.00494862;stroke-linecap:butt;stroke-linejoin:miter;stroke-miterlimit:4;stroke-opacity:1;stroke-dasharray:none" />
          <path
             transform="matrix(0.57954545,0,0,0.57954545,13.409091,1015.7713)"
             d="m 30,20 c 0,5.522847 -4.477153,10 -10,10 -5.522847,0 -10,-4.477153 -10,-10 0,-5.522847 4.477153,-10 10,-10 5.522847,0 10,4.477153 10,10 z"
             sodipodi:ry="10"
             sodipodi:rx="10"
             sodipodi:cy="20"
             sodipodi:cx="20"
             id="path5420"
             style="fill:#784421;stroke:#000000;stroke-width:15.53795052;stroke-linecap:square;stroke-linejoin:miter;stroke-miterlimit:4;stroke-opacity:1;stroke-dasharray:none;stroke-dashoffset:0"
             sodipodi:type="arc" />
        </g>
        <g
           id="g5422"
           transform="matrix(-1,0,0,-1,-280.81329,1863.8308)"
           inkscape:transform-center-x="88.000002"
           inkscape:transform-center-y="43.499984"
           style="stroke-width:9.00494862;stroke-miterlimit:4;stroke-dasharray:none">
          <path
             sodipodi:nodetypes="sssssssccssssssscs"
             transform="translate(0,802.3622)"
             inkscape:connector-curvature="0"
             id="path5424"
             d="m 152.90585,142.31735 c -6.18859,3.97029 -11.24707,8.28699 -17.35066,12.38676 -6.05449,4.0668 -12.97957,8.06245 -19.12531,11.99 -6.1221,3.91243 -12.55027,6.88701 -18.747366,10.67954 -5.857476,3.5847 -11.548364,7.42172 -17.337287,11.1161 -6.121892,3.90687 -11.241694,7.48771 -17.287163,11.51183 -6.312001,4.20154 -13.084397,8.65325 -19.396257,12.85499 -5.84284,3.88953 -18.228208,11.98228 -18.228208,11.98228 l 179.431331,0.74704 c 0,0 -1.1775,-1.81677 -2.02086,-2.98222 -0.84336,-1.16544 -2.12941,-2.84307 -3.58306,-5.09036 -1.45365,-2.24728 -3.44386,-4.43732 -5.27474,-7.68284 -1.83087,-3.24552 -3.3947,-7.61062 -5.36973,-11.77078 -1.97504,-4.16016 -2.9631,-8.1749 -4.84922,-13.1661 -1.88612,-4.99119 -4.93499,-10.73778 -6.49913,-16.4764 -1.56414,-5.73863 -1.64538,-11.34916 -2.65447,-17.75161 -1.00909,-6.40245 -2.13399,-15.03084 -2.06117,-18.86485 0,0 -13.52148,6.58698 -19.6467,10.51662 z"
             style="fill:#c8b7b7;stroke:#000000;stroke-width:9.00494862;stroke-linecap:butt;stroke-linejoin:miter;stroke-miterlimit:4;stroke-opacity:1;stroke-dasharray:none" />
          <path
             style="fill:#502d16;stroke:#000000;stroke-width:9.00494862;stroke-linecap:butt;stroke-linejoin:miter;stroke-miterlimit:4;stroke-opacity:1;stroke-dasharray:none"
             d="m 48.795956,1024.2189 c 6.689019,-0.065 13.35337,-0.6389 20.040017,-0.7839 6.289273,-0.1363 12.583777,-0.084 18.875827,-0.081 6.542635,0 13.08592,0.011 19.62743,0.1 6.0528,0.082 12.09947,0.3796 18.15325,0.4006 6.45363,0.022 12.90322,-0.2875 19.35692,-0.2933 6.81956,-0.01 13.63726,0.1677 20.45531,0.2729 6.01121,0.092 12.01992,0.3097 18.03246,0.316 6.58839,0.01 19.76076,-0.305 19.76076,-0.305 5.04868,0 3.6062,6.5349 0,7.0157 0,0 -13.23639,-0.1051 -19.8539,-0.1898 -6.17685,-0.079 -12.35145,-0.2507 -18.52893,-0.2975 -6.5044,-0.049 -13.01027,-0.056 -19.51425,0.018 -6.12509,0.069 -12.24379,0.3576 -18.36936,0.3979 -6.4363,0.042 -12.87204,-0.1245 -19.30838,-0.164 -6.78084,-0.041 -13.564193,-0.2058 -20.342981,-0.077 -6.167441,0.1171 -12.308767,0.7865 -18.478269,0.7726 -6.391614,-0.014 -12.745596,-0.8089 -19.136342,-0.8871 C 43.041679,1030.3542 30,1030.8611 30,1030.8611 l 0,-7.0157 c 0,0 12.528858,0.4337 18.795956,0.3735 z"
             id="path5426"
             inkscape:connector-curvature="0"
             sodipodi:nodetypes="ssssssssccssssssssccs" />
          <path
             sodipodi:type="arc"
             style="fill:#784421;stroke:#000000;stroke-width:15.53795052;stroke-linecap:square;stroke-linejoin:miter;stroke-miterlimit:4;stroke-opacity:1;stroke-dasharray:none;stroke-dashoffset:0"
             id="path5428"
             sodipodi:cx="20"
             sodipodi:cy="20"
             sodipodi:rx="10"
             sodipodi:ry="10"
             d="m 30,20 c 0,5.522847 -4.477153,10 -10,10 -5.522847,0 -10,-4.477153 -10,-10 0,-5.522847 4.477153,-10 10,-10 5.522847,0 10,4.477153 10,10 z"
             transform="matrix(0.57954545,0,0,0.57954545,13.409091,1015.7713)" />
        </g>
        <g
           id="g5430"
           transform="matrix(0,1,-1,0,721.58104,811.90455)"
           inkscape:transform-center-x="-43.500004"
           inkscape:transform-center-y="88.000004"
           style="stroke-width:9.00494862;stroke-miterlimit:4;stroke-dasharray:none">
          <path
             sodipodi:nodetypes="sssssssccssssssscs"
             transform="translate(0,802.3622)"
             inkscape:connector-curvature="0"
             id="path5432"
             d="m 152.90585,142.31735 c -6.18859,3.97029 -11.24707,8.28699 -17.35066,12.38676 -6.05449,4.0668 -12.97957,8.06245 -19.12531,11.99 -6.1221,3.91243 -12.55027,6.88701 -18.747366,10.67954 -5.857476,3.5847 -11.548364,7.42172 -17.337287,11.1161 -6.121892,3.90687 -11.241694,7.48771 -17.287163,11.51183 -6.312001,4.20154 -13.084397,8.65325 -19.396257,12.85499 -5.84284,3.88953 -18.228208,11.98228 -18.228208,11.98228 l 179.431331,0.74704 c 0,0 -1.1775,-1.81677 -2.02086,-2.98222 -0.84336,-1.16544 -2.12941,-2.84307 -3.58306,-5.09036 -1.45365,-2.24728 -3.44386,-4.43732 -5.27474,-7.68284 -1.83087,-3.24552 -3.3947,-7.61062 -5.36973,-11.77078 -1.97504,-4.16016 -2.9631,-8.1749 -4.84922,-13.1661 -1.88612,-4.99119 -4.93499,-10.73778 -6.49913,-16.4764 -1.56414,-5.73863 -1.64538,-11.34916 -2.65447,-17.75161 -1.00909,-6.40245 -2.13399,-15.03084 -2.06117,-18.86485 0,0 -13.52148,6.58698 -19.6467,10.51662 z"
             style="fill:#c8b7b7;stroke:#000000;stroke-width:9.00494862;stroke-linecap:butt;stroke-linejoin:miter;stroke-miterlimit:4;stroke-opacity:1;stroke-dasharray:none" />
          <path
             style="fill:#502d16;stroke:#000000;stroke-width:9.00494862;stroke-linecap:butt;stroke-linejoin:miter;stroke-miterlimit:4;stroke-opacity:1;stroke-dasharray:none"
             d="m 48.795956,1024.2189 c 6.689019,-0.065 13.35337,-0.6389 20.040017,-0.7839 6.289273,-0.1363 12.583777,-0.084 18.875827,-0.081 6.542635,0 13.08592,0.011 19.62743,0.1 6.0528,0.082 12.09947,0.3796 18.15325,0.4006 6.45363,0.022 12.90322,-0.2875 19.35692,-0.2933 6.81956,-0.01 13.63726,0.1677 20.45531,0.2729 6.01121,0.092 12.01992,0.3097 18.03246,0.316 6.58839,0.01 19.76076,-0.305 19.76076,-0.305 5.04868,0 3.6062,6.5349 0,7.0157 0,0 -13.23639,-0.1051 -19.8539,-0.1898 -6.17685,-0.079 -12.35145,-0.2507 -18.52893,-0.2975 -6.5044,-0.049 -13.01027,-0.056 -19.51425,0.018 -6.12509,0.069 -12.24379,0.3576 -18.36936,0.3979 -6.4363,0.042 -12.87204,-0.1245 -19.30838,-0.164 -6.78084,-0.041 -13.564193,-0.2058 -20.342981,-0.077 -6.167441,0.1171 -12.308767,0.7865 -18.478269,0.7726 -6.391614,-0.014 -12.745596,-0.8089 -19.136342,-0.8871 C 43.041679,1030.3542 30,1030.8611 30,1030.8611 l 0,-7.0157 c 0,0 12.528858,0.4337 18.795956,0.3735 z"
             id="path5434"
             inkscape:connector-curvature="0"
             sodipodi:nodetypes="ssssssssccssssssssccs" />
          <path
             sodipodi:type="arc"
             style="fill:#784421;stroke:#000000;stroke-width:15.53795052;stroke-linecap:square;stroke-linejoin:miter;stroke-miterlimit:4;stroke-opacity:1;stroke-dasharray:none;stroke-dashoffset:0"
             id="path5436"
             sodipodi:cx="20"
             sodipodi:cy="20"
             sodipodi:rx="10"
             sodipodi:ry="10"
             d="m 30,20 c 0,5.522847 -4.477153,10 -10,10 -5.522847,0 -10,-4.477153 -10,-10 0,-5.522847 4.477153,-10 10,-10 5.522847,0 10,4.477153 10,10 z"
             transform="matrix(0.57954545,0,0,0.57954545,13.409091,1015.7713)" />
        </g>
        <g
           inkscape:transform-center-y="-88.000002"
           inkscape:transform-center-x="43.499942"
           transform="matrix(0,-1,1,0,-1332.7395,861.43649)"
           id="g5438"
           style="stroke-width:9.00494862;stroke-miterlimit:4;stroke-dasharray:none">
          <path
             style="fill:#c8b7b7;stroke:#000000;stroke-width:9.00494862;stroke-linecap:butt;stroke-linejoin:miter;stroke-miterlimit:4;stroke-opacity:1;stroke-dasharray:none"
             d="m 152.90585,142.31735 c -6.18859,3.97029 -11.24707,8.28699 -17.35066,12.38676 -6.05449,4.0668 -12.97957,8.06245 -19.12531,11.99 -6.1221,3.91243 -12.55027,6.88701 -18.747366,10.67954 -5.857476,3.5847 -11.548364,7.42172 -17.337287,11.1161 -6.121892,3.90687 -11.241694,7.48771 -17.287163,11.51183 -6.312001,4.20154 -13.084397,8.65325 -19.396257,12.85499 -5.84284,3.88953 -18.228208,11.98228 -18.228208,11.98228 l 179.431331,0.74704 c 0,0 -1.1775,-1.81677 -2.02086,-2.98222 -0.84336,-1.16544 -2.12941,-2.84307 -3.58306,-5.09036 -1.45365,-2.24728 -3.44386,-4.43732 -5.27474,-7.68284 -1.83087,-3.24552 -3.3947,-7.61062 -5.36973,-11.77078 -1.97504,-4.16016 -2.9631,-8.1749 -4.84922,-13.1661 -1.88612,-4.99119 -4.93499,-10.73778 -6.49913,-16.4764 -1.56414,-5.73863 -1.64538,-11.34916 -2.65447,-17.75161 -1.00909,-6.40245 -2.13399,-15.03084 -2.06117,-18.86485 0,0 -13.52148,6.58698 -19.6467,10.51662 z"
             id="path5440"
             inkscape:connector-curvature="0"
             transform="translate(0,802.3622)"
             sodipodi:nodetypes="sssssssccssssssscs" />
          <path
             sodipodi:nodetypes="ssssssssccssssssssccs"
             inkscape:connector-curvature="0"
             id="path5442"
             d="m 48.795956,1024.2189 c 6.689019,-0.065 13.35337,-0.6389 20.040017,-0.7839 6.289273,-0.1363 12.583777,-0.084 18.875827,-0.081 6.542635,0 13.08592,0.011 19.62743,0.1 6.0528,0.082 12.09947,0.3796 18.15325,0.4006 6.45363,0.022 12.90322,-0.2875 19.35692,-0.2933 6.81956,-0.01 13.63726,0.1677 20.45531,0.2729 6.01121,0.092 12.01992,0.3097 18.03246,0.316 6.58839,0.01 19.76076,-0.305 19.76076,-0.305 5.04868,0 3.6062,6.5349 0,7.0157 0,0 -13.23639,-0.1051 -19.8539,-0.1898 -6.17685,-0.079 -12.35145,-0.2507 -18.52893,-0.2975 -6.5044,-0.049 -13.01027,-0.056 -19.51425,0.018 -6.12509,0.069 -12.24379,0.3576 -18.36936,0.3979 -6.4363,0.042 -12.87204,-0.1245 -19.30838,-0.164 -6.78084,-0.041 -13.564193,-0.2058 -20.342981,-0.077 -6.167441,0.1171 -12.308767,0.7865 -18.478269,0.7726 -6.391614,-0.014 -12.745596,-0.8089 -19.136342,-0.8871 C 43.041679,1030.3542 30,1030.8611 30,1030.8611 l 0,-7.0157 c 0,0 12.528858,0.4337 18.795956,0.3735 z"
             style="fill:#502d16;stroke:#000000;stroke-width:9.00494862;stroke-linecap:butt;stroke-linejoin:miter;stroke-miterlimit:4;stroke-opacity:1;stroke-dasharray:none" />
          <path
             transform="matrix(0.57954545,0,0,0.57954545,13.409091,1015.7713)"
             d="m 30,20 c 0,5.522847 -4.477153,10 -10,10 -5.522847,0 -10,-4.477153 -10,-10 0,-5.522847 4.477153,-10 10,-10 5.522847,0 10,4.477153 10,10 z"
             sodipodi:ry="10"
             sodipodi:rx="10"
             sodipodi:cy="20"
             sodipodi:cx="20"
             id="path5444"
             style="fill:#784421;stroke:#000000;stroke-width:15.53795052;stroke-linecap:square;stroke-linejoin:miter;stroke-miterlimit:4;stroke-opacity:1;stroke-dasharray:none;stroke-dashoffset:0"
             sodipodi:type="arc" />
        </g>
      </g>
    </g>
    <path
       sodipodi:type="arc"
       style="fill:#502d16;stroke:#000000;stroke-width:2;stroke-linecap:square;stroke-linejoin:miter;stroke-miterlimit:4;stroke-opacity:1;stroke-dasharray:none;stroke-dashoffset:0;fill-opacity:1"
       id="path4185-2-6-9-0"
       sodipodi:cx="275"
       sodipodi:cy="275"
       sodipodi:rx="5"
       sodipodi:ry="5"
       d="m 280,275 a 5,5 0 1 1 -10,0 5,5 0 1 1 10,0 z"
       transform="translate(-250,752.3622)" />
  </g>
</svg>
