<?xml version="1.0" encoding="UTF-8" standalone="no"?>
<!-- Created with Inkscape (http://www.inkscape.org/) -->

<svg
   xmlns:dc="http://purl.org/dc/elements/1.1/"
   xmlns:cc="http://creativecommons.org/ns#"
   xmlns:rdf="http://www.w3.org/1999/02/22-rdf-syntax-ns#"
   xmlns:svg="http://www.w3.org/2000/svg"
   xmlns="http://www.w3.org/2000/svg"
   xmlns:sodipodi="http://sodipodi.sourceforge.net/DTD/sodipodi-0.dtd"
   xmlns:inkscape="http://www.inkscape.org/namespaces/inkscape"
   width="200"
   height="100"
   id="svg2"
   version="1.1"
   inkscape:version="0.48.2 r9819"
   sodipodi:docname="bandana.svg"
   inkscape:export-filename="/home/micha/Programmieren/git/platformer/images/bandana.png"
   inkscape:export-xdpi="90"
   inkscape:export-ydpi="90">
  <sodipodi:namedview
     id="base"
     pagecolor="#ffffff"
     bordercolor="#666666"
     borderopacity="1.0"
     inkscape:pageopacity="0.0"
     inkscape:pageshadow="2"
     inkscape:zoom="4"
     inkscape:cx="129.1448"
     inkscape:cy="49.851205"
     inkscape:document-units="px"
     inkscape:current-layer="layer1"
     showgrid="true"
     inkscape:showpageshadow="true"
     inkscape:window-width="1280"
     inkscape:window-height="750"
     inkscape:window-x="0"
     inkscape:window-y="25"
     inkscape:window-maximized="1">
    <inkscape:grid
       type="xygrid"
       id="grid2985"
       empspacing="5"
       visible="true"
       enabled="true"
       snapvisiblegridlinesonly="true"
       spacingx="10px"
       spacingy="10px"
       originx="0px"
       originy="0px" />
  </sodipodi:namedview>
  <defs
     id="defs4" />
  <metadata
     id="metadata7">
    <rdf:RDF>
      <cc:Work
         rdf:about="">
        <dc:format>image/svg+xml</dc:format>
        <dc:type
           rdf:resource="http://purl.org/dc/dcmitype/StillImage" />
        <dc:title></dc:title>
      </cc:Work>
    </rdf:RDF>
  </metadata>
  <g
     inkscape:label="Ebene 1"
     inkscape:groupmode="layer"
     id="layer1"
     transform="translate(0,-952.3622)">
    <path
       sodipodi:type="star"
       style="opacity:0.75161288;fill:#ffff00;fill-opacity:1;stroke:none"
       id="path4569-1-9"
       sodipodi:sides="9"
       sodipodi:cx="20"
       sodipodi:cy="140"
       sodipodi:r1="14.142136"
       sodipodi:r2="9.6166525"
       sodipodi:arg1="0.78539816"
       sodipodi:arg2="1.134464"
       inkscape:flatsided="false"
       inkscape:rounded="0"
       inkscape:randomized="0"
       d="m 30,150 -5.935827,-1.28435 -2.831605,5.37267 -3.721541,-4.79935 -5.622623,2.29559 0.234096,-6.06867 -5.782754,-1.85564 4.080196,-4.4984 L 7.1828723,134.02328 13.2,133.2 l 0.823275,-6.01713 5.138578,3.23707 4.498401,-4.08019 1.855631,5.78275 6.068674,-0.2341 -2.295586,5.62263 4.799348,3.72154 -5.372674,2.8316 z"
       transform="matrix(1.4012304,0.02887499,-0.02887499,1.4012304,50.803856,780.39841)"
       inkscape:transform-center-x="-0.2292685"
       inkscape:transform-center-y="0.37054579" />
    <path
       sodipodi:type="star"
       style="opacity:0.75161288;fill:#ffff00;fill-opacity:1;stroke:none"
       id="path4569-1-4"
       sodipodi:sides="9"
       sodipodi:cx="20"
       sodipodi:cy="140"
       sodipodi:r1="14.142136"
       sodipodi:r2="9.6166525"
       sodipodi:arg1="0.78539816"
       sodipodi:arg2="1.134464"
       inkscape:flatsided="false"
       inkscape:rounded="0"
       inkscape:randomized="0"
       d="m 30,150 -5.935827,-1.28435 -2.831605,5.37267 -3.721541,-4.79935 -5.622623,2.29559 0.234096,-6.06867 -5.782754,-1.85564 4.080196,-4.4984 L 7.1828723,134.02328 13.2,133.2 l 0.823275,-6.01713 5.138578,3.23707 4.498401,-4.08019 1.855631,5.78275 6.068674,-0.2341 -2.295586,5.62263 4.799348,3.72154 -5.372674,2.8316 z"
       transform="matrix(1.3984149,-0.09336017,0.09336017,1.3984149,83.747246,783.23728)"
       inkscape:transform-center-x="-0.52770275"
       inkscape:transform-center-y="0.070902517" />
    <path
       sodipodi:type="star"
       style="opacity:0.75161288;fill:#ffff00;fill-opacity:1;stroke:none"
       id="path4569-1-6"
       sodipodi:sides="9"
       sodipodi:cx="20"
       sodipodi:cy="140"
       sodipodi:r1="14.142136"
       sodipodi:r2="9.6166525"
       sodipodi:arg1="0.78539816"
       sodipodi:arg2="1.134464"
       inkscape:flatsided="false"
       inkscape:rounded="0"
       inkscape:randomized="0"
       d="m 30,150 -5.935827,-1.28435 -2.831605,5.37267 -3.721541,-4.79935 -5.622623,2.29559 0.234096,-6.06867 -5.782754,-1.85564 4.080196,-4.4984 L 7.1828723,134.02328 13.2,133.2 l 0.823275,-6.01713 5.138578,3.23707 4.498401,-4.08019 1.855631,5.78275 6.068674,-0.2341 -2.295586,5.62263 4.799348,3.72154 -5.372674,2.8316 z"
       transform="matrix(1.3849567,-0.2148848,0.2148848,1.3849567,117.00296,787.55193)"
       inkscape:transform-center-x="-0.37054628"
       inkscape:transform-center-y="-0.2292678" />
    <path
       sodipodi:type="star"
       style="opacity:0.75161288;fill:#ffff00;fill-opacity:1;stroke:none"
       id="path4569-1-47"
       sodipodi:sides="9"
       sodipodi:cx="20"
       sodipodi:cy="140"
       sodipodi:r1="14.142136"
       sodipodi:r2="9.6166525"
       sodipodi:arg1="0.78539816"
       sodipodi:arg2="1.134464"
       inkscape:flatsided="false"
       inkscape:rounded="0"
       inkscape:randomized="0"
       d="m 30,150 -5.935827,-1.28435 -2.831605,5.37267 -3.721541,-4.79935 -5.622623,2.29559 0.234096,-6.06867 -5.782754,-1.85564 4.080196,-4.4984 L 7.1828723,134.02328 13.2,133.2 l 0.823275,-6.01713 5.138578,3.23707 4.498401,-4.08019 1.855631,5.78275 6.068674,-0.2341 -2.295586,5.62263 4.799348,3.72154 -5.372674,2.8316 z"
       transform="matrix(1.3609581,-0.33477402,0.33477402,1.3609581,-49.301559,843.30952)"
       inkscape:transform-center-x="-0.070909049"
       inkscape:transform-center-y="-0.52770103" />
    <path
       sodipodi:type="star"
       style="opacity:0.75161288;fill:#ffff00;fill-opacity:1;stroke:none"
       id="path4569-1-0"
       sodipodi:sides="9"
       sodipodi:cx="20"
       sodipodi:cy="140"
       sodipodi:r1="14.142136"
       sodipodi:r2="9.6166525"
       sodipodi:arg1="0.78539816"
       sodipodi:arg2="1.134464"
       inkscape:flatsided="false"
       inkscape:rounded="0"
       inkscape:randomized="0"
       d="m 30,150 -5.935827,-1.28435 -2.831605,5.37267 -3.721541,-4.79935 -5.622623,2.29559 0.234096,-6.06867 -5.782754,-1.85564 4.080196,-4.4984 L 7.1828723,134.02328 13.2,133.2 l 0.823275,-6.01713 5.138578,3.23707 4.498401,-4.08019 1.855631,5.78275 6.068674,-0.2341 -2.295586,5.62263 4.799348,3.72154 -5.372674,2.8316 z"
       transform="matrix(1.3266017,-0.45211542,0.45211542,1.3266017,-15.042228,850.46623)"
       inkscape:transform-center-x="0.22927174"
       inkscape:transform-center-y="-0.37056034" />
    <path
       sodipodi:type="star"
       style="opacity:0.75161288;fill:#ffff00;fill-opacity:1;stroke:none"
       id="path4569-1-8"
       sodipodi:sides="9"
       sodipodi:cx="20"
       sodipodi:cy="140"
       sodipodi:r1="14.142136"
       sodipodi:r2="9.6166525"
       sodipodi:arg1="0.78539816"
       sodipodi:arg2="1.134464"
       inkscape:flatsided="false"
       inkscape:rounded="0"
       inkscape:randomized="0"
       d="m 30,150 -5.935827,-1.28435 -2.831605,5.37267 -3.721541,-4.79935 -5.622623,2.29559 0.234096,-6.06867 -5.782754,-1.85564 4.080196,-4.4984 L 7.1828723,134.02328 13.2,133.2 l 0.823275,-6.01713 5.138578,3.23707 4.498401,-4.08019 1.855631,5.78275 6.068674,-0.2341 -2.295586,5.62263 4.799348,3.72154 -5.372674,2.8316 z"
       transform="matrix(1.2821491,-0.56601594,0.56601594,1.2821491,19.900753,858.96761)"
       inkscape:transform-center-x="0.52770779"
       inkscape:transform-center-y="-0.070914658" />
    <path
       sodipodi:type="star"
       style="opacity:0.75161288;fill:#ffff00;fill-opacity:1;stroke:none"
       id="path4569-1-85"
       sodipodi:sides="9"
       sodipodi:cx="20"
       sodipodi:cy="140"
       sodipodi:r1="14.142136"
       sodipodi:r2="9.6166525"
       sodipodi:arg1="0.78539816"
       sodipodi:arg2="1.134464"
       inkscape:flatsided="false"
       inkscape:rounded="0"
       inkscape:randomized="0"
       d="m 30,150 -5.935827,-1.28435 -2.831605,5.37267 -3.721541,-4.79935 -5.622623,2.29559 0.234096,-6.06867 -5.782754,-1.85564 4.080196,-4.4984 L 7.1828723,134.02328 13.2,133.2 l 0.823275,-6.01713 5.138578,3.23707 4.498401,-4.08019 1.855631,5.78275 6.068674,-0.2341 -2.295586,5.62263 4.799348,3.72154 -5.372674,2.8316 z"
       transform="matrix(1.2279386,-0.67560874,0.67560874,1.2279386,55.641971,868.74893)"
       inkscape:transform-center-x="0.37055303"
       inkscape:transform-center-y="0.22925907" />
    <g
       id="g4324-3-10-1"
       transform="matrix(0.3347786,-0.0574067,0.0574067,0.3347786,-120.67262,973.87387)"
       style="stroke-width:2.94407821;stroke-miterlimit:4;stroke-dasharray:none" />
    <path
       sodipodi:type="star"
       style="opacity:0.7516129;fill:#ffff00;fill-opacity:1;stroke:none"
       id="path4569-1"
       sodipodi:sides="9"
       sodipodi:cx="20"
       sodipodi:cy="140"
       sodipodi:r1="14.142136"
       sodipodi:r2="9.6166525"
       sodipodi:arg1="0.78539816"
       sodipodi:arg2="1.134464"
       inkscape:flatsided="false"
       inkscape:rounded="0"
       inkscape:randomized="0"
       d="m 30,150 -5.935827,-1.28435 -2.831605,5.37267 -3.721541,-4.79935 -5.622623,2.29559 0.234096,-6.06867 -5.782754,-1.85564 4.080196,-4.4984 L 7.1828723,134.02328 13.2,133.2 l 0.823275,-6.01713 5.138578,3.23707 4.498401,-4.08019 1.855631,5.78275 6.068674,-0.2341 -2.295586,5.62263 4.799348,3.72154 -5.372674,2.8316 z"
       transform="matrix(1.3933817,0.15089039,-0.15089039,1.3933817,18.042987,779.05692)"
       inkscape:transform-center-x="0.070910225"
       inkscape:transform-center-y="0.52770047" />
    <path
       style="opacity:1;fill:#2c5aa0;stroke:#000000;stroke-width:1;stroke-linecap:butt;stroke-linejoin:miter;stroke-miterlimit:4;stroke-opacity:1;stroke-dasharray:none"
       d="m 17.703611,970.6232 c 0,0 -0.909895,2.8825 -0.202223,4.2179 0.792272,1.4951 2.350085,2.5229 2.83385,4.2043 0.343054,1.1923 -0.157551,2.3947 -0.356042,3.5669 -0.216357,1.2777 -1.471917,4.1997 -1.471917,4.1997 0,0 6.576582,-2.7396 9.900572,-2.5502 2.862384,-0.031 3.790349,0.5939 3.790349,0.5939 0,0 -0.355432,-3.5094 -0.425991,-4.5443 -0.303072,-2.5629 -2.11103,-3.1897 -3.114349,-4.9158 -0.839868,-2.4937 0.205251,-6.7583 0.205251,-6.7583 0,0 -2.060189,-0.355 -2.845372,0.2895 -0.903931,0.742 -1.709463,1.9113 -2.976306,1.8799 -2.014339,-0.05 -5.337822,-0.1835 -5.337822,-0.1835 z"
       id="path4605-2"
       inkscape:connector-curvature="0"
       sodipodi:nodetypes="csssccccccssc" />
    <path
       style="fill:#2c5aa0;stroke:#000000;stroke-width:1;stroke-linecap:butt;stroke-linejoin:miter;stroke-miterlimit:4;stroke-opacity:1;stroke-dasharray:none"
       d="m 68.581892,971.50665 c 0,0 -0.795918,2.52142 -0.176892,3.68955 0.693029,1.30781 2.055705,2.20687 2.478871,3.67765 0.300082,1.04295 -0.137815,2.09473 -0.311443,3.12009 -0.189255,1.11765 -1.287538,3.67363 -1.287538,3.67363 0,0 5.752773,-2.39642 8.660387,-2.23075 2.503831,-0.0271 3.315555,0.51951 3.315555,0.51951 0,0 -0.310909,-3.0698 -0.37263,-3.97507 -0.265108,-2.24186 -1.846594,-2.79014 -2.724233,-4.30002 -0.734663,-2.18133 0.17954,-5.91173 0.17954,-5.91173 0,0 -1.802121,-0.31053 -2.488949,0.25323 -0.790701,0.64906 -1.495329,1.67189 -2.603482,1.64442 -1.762015,-0.0437 -4.669186,-0.16051 -4.669186,-0.16051 z"
       id="path4605-0"
       inkscape:connector-curvature="0"
       sodipodi:nodetypes="csssccccccssc" />
    <path
       style="fill:#2c5aa0;stroke:#000000;stroke-width:1;stroke-linecap:butt;stroke-linejoin:miter;stroke-miterlimit:4;stroke-opacity:1;stroke-dasharray:none"
       d="m 118.80146,971.72751 c 0,0 -0.76742,2.43116 -0.17055,3.55746 0.66821,1.261 1.9821,2.12786 2.39012,3.54599 0.28934,1.00561 -0.13288,2.01974 -0.30029,3.0084 -0.18248,1.07763 -1.24145,3.54211 -1.24145,3.54211 0,0 5.54682,-2.31064 8.35034,-2.15089 2.4142,-0.0262 3.19686,0.5009 3.19686,0.5009 0,0 -0.29978,-2.95989 -0.35929,-3.83275 -0.25561,-2.1616 -1.78048,-2.69026 -2.6267,-4.14608 -0.70837,-2.10324 0.17311,-5.70009 0.17311,-5.70009 0,0 -1.73761,-0.29941 -2.39984,0.24417 -0.7624,0.62582 -1.4418,1.61203 -2.51028,1.58555 -1.69894,-0.0422 -4.50203,-0.15477 -4.50203,-0.15477 z"
       id="path4605-9"
       inkscape:connector-curvature="0"
       sodipodi:nodetypes="csssccccccssc" />
    <path
       style="fill:#2c5aa0;stroke:#000000;stroke-width:1;stroke-linecap:butt;stroke-linejoin:miter;stroke-miterlimit:4;stroke-opacity:1;stroke-dasharray:none"
       d="m 17.703611,1020.6232 c 0,0 -0.909895,2.8825 -0.202223,4.2179 0.792272,1.4951 2.350085,2.5229 2.83385,4.2043 0.343054,1.1923 -0.157551,2.3947 -0.356042,3.5669 -0.216357,1.2777 -1.471917,4.1997 -1.471917,4.1997 0,0 6.576582,-2.7396 9.900572,-2.5502 2.862384,-0.031 3.790349,0.5939 3.790349,0.5939 0,0 -0.355432,-3.5094 -0.425991,-4.5443 -0.303072,-2.5629 -2.11103,-3.1897 -3.114349,-4.9158 -0.839868,-2.4937 0.205251,-6.7583 0.205251,-6.7583 0,0 -2.060189,-0.355 -2.845372,0.2895 -0.903931,0.742 -1.709463,1.9113 -2.976306,1.8799 -2.014339,-0.05 -5.337822,-0.1835 -5.337822,-0.1835 z"
       id="path4605-2-5"
       inkscape:connector-curvature="0"
       sodipodi:nodetypes="csssccccccssc" />
    <path
       style="fill:#2c5aa0;stroke:#000000;stroke-width:1;stroke-linecap:butt;stroke-linejoin:miter;stroke-miterlimit:4;stroke-opacity:1;stroke-dasharray:none"
       d="m 66.605759,1019.5189 c 0,0 -1.052366,3.3338 -0.233887,4.8783 0.916326,1.7292 2.718062,2.918 3.277574,4.8626 0.39677,1.379 -0.18222,2.7697 -0.411791,4.1254 -0.250234,1.4778 -1.702389,4.8573 -1.702389,4.8573 0,0 7.606342,-3.1685 11.450803,-2.9495 3.310575,-0.036 4.383841,0.6869 4.383841,0.6869 0,0 -0.411085,-4.0589 -0.492693,-5.2558 -0.350527,-2.9642 -2.441574,-3.6892 -3.601993,-5.6855 -0.971375,-2.8842 0.237389,-7.8166 0.237389,-7.8166 0,0 -2.382773,-0.4105 -3.2909,0.3349 -1.045468,0.8582 -1.977131,2.2105 -3.442336,2.1742 -2.329744,-0.058 -6.173618,-0.2122 -6.173618,-0.2122 z"
       id="path4605-0-3"
       inkscape:connector-curvature="0"
       sodipodi:nodetypes="csssccccccssc" />
    <path
       style="fill:#2c5aa0;stroke:#000000;stroke-width:1;stroke-linecap:butt;stroke-linejoin:miter;stroke-miterlimit:4;stroke-opacity:1;stroke-dasharray:none"
       d="m 115.94705,1018.8563 c 0,0 -1.13785,3.6047 -0.25288,5.2746 0.99075,1.8697 2.93884,3.155 3.5438,5.2576 0.429,1.491 -0.19702,2.9946 -0.44523,4.4605 -0.27057,1.5978 -1.84068,5.2519 -1.84068,5.2519 0,0 8.2242,-3.426 12.38094,-3.1891 3.5795,-0.039 4.73994,0.7426 4.73994,0.7426 0,0 -0.44448,-4.3886 -0.53272,-5.6827 -0.37899,-3.205 -2.6399,-3.9888 -3.89458,-6.1474 -1.05028,-3.1184 0.25667,-8.4514 0.25667,-8.4514 0,0 -2.57632,-0.444 -3.55821,0.362 -1.13039,0.9279 -2.13773,2.3901 -3.72196,2.3509 -2.51899,-0.062 -6.67509,-0.2295 -6.67509,-0.2295 z"
       id="path4605-9-1"
       inkscape:connector-curvature="0"
       sodipodi:nodetypes="csssccccccssc" />
    <path
       style="fill:#2c5aa0;stroke:#000000;stroke-width:1;stroke-linecap:butt;stroke-linejoin:miter;stroke-miterlimit:4;stroke-opacity:1;stroke-dasharray:none"
       d="m 168.58189,971.50665 c 0,0 -0.79592,2.52142 -0.17689,3.68955 0.69303,1.30781 2.0557,2.20687 2.47887,3.67765 0.30008,1.04295 -0.13781,2.09473 -0.31144,3.12009 -0.18926,1.11765 -1.28754,3.67363 -1.28754,3.67363 0,0 5.75277,-2.39642 8.66039,-2.23075 2.50383,-0.0271 3.31555,0.51951 3.31555,0.51951 0,0 -0.31091,-3.0698 -0.37263,-3.97507 -0.26511,-2.24186 -1.84659,-2.79014 -2.72423,-4.30002 -0.73466,-2.18133 0.17954,-5.91173 0.17954,-5.91173 0,0 -1.80212,-0.31053 -2.48895,0.25323 -0.7907,0.64906 -1.49533,1.67189 -2.60348,1.64442 -1.76202,-0.0437 -4.66919,-0.16051 -4.66919,-0.16051 z"
       id="path4605-0-8"
       inkscape:connector-curvature="0"
       sodipodi:nodetypes="csssccccccssc" />
    <path
       style="fill:#2c5aa0;stroke:#000000;stroke-width:1;stroke-linecap:butt;stroke-linejoin:miter;stroke-miterlimit:4;stroke-opacity:1;stroke-dasharray:none"
       d="m 166.60576,1019.5189 c 0,0 -1.05237,3.3338 -0.23389,4.8783 0.91633,1.7292 2.71806,2.918 3.27758,4.8626 0.39677,1.379 -0.18222,2.7697 -0.4118,4.1254 -0.25023,1.4778 -1.70238,4.8573 -1.70238,4.8573 0,0 7.60634,-3.1685 11.4508,-2.9495 3.31057,-0.036 4.38384,0.6869 4.38384,0.6869 0,0 -0.41108,-4.0589 -0.49269,-5.2558 -0.35053,-2.9642 -2.44158,-3.6892 -3.602,-5.6855 -0.97137,-2.8842 0.23739,-7.8166 0.23739,-7.8166 0,0 -2.38277,-0.4105 -3.2909,0.3349 -1.04547,0.8582 -1.97713,2.2105 -3.44233,2.1742 -2.32975,-0.058 -6.17362,-0.2122 -6.17362,-0.2122 z"
       id="path4605-0-3-5"
       inkscape:connector-curvature="0"
       sodipodi:nodetypes="csssccccccssc" />
  </g>
</svg>
