<?xml version="1.0" encoding="UTF-8" standalone="no"?>
<!-- Created with Inkscape (http://www.inkscape.org/) -->

<svg
   xmlns:dc="http://purl.org/dc/elements/1.1/"
   xmlns:cc="http://creativecommons.org/ns#"
   xmlns:rdf="http://www.w3.org/1999/02/22-rdf-syntax-ns#"
   xmlns:svg="http://www.w3.org/2000/svg"
   xmlns="http://www.w3.org/2000/svg"
   xmlns:sodipodi="http://sodipodi.sourceforge.net/DTD/sodipodi-0.dtd"
   xmlns:inkscape="http://www.inkscape.org/namespaces/inkscape"
   width="80"
   height="20"
   id="svg2"
   version="1.1"
   inkscape:version="0.48.2 r9819"
   sodipodi:docname="crumble.svg"
   inkscape:export-filename="/home/micha/Programmieren/git/platformer/images/crumble.png"
   inkscape:export-xdpi="90"
   inkscape:export-ydpi="90">
  <sodipodi:namedview
     id="base"
     pagecolor="#ffffff"
     bordercolor="#666666"
     borderopacity="1.0"
     inkscape:pageopacity="0.0"
     inkscape:pageshadow="2"
     inkscape:zoom="4"
     inkscape:cx="58.449059"
     inkscape:cy="-15.818545"
     inkscape:document-units="px"
     inkscape:current-layer="layer1"
     showgrid="true"
     inkscape:showpageshadow="true"
     inkscape:window-width="1280"
     inkscape:window-height="750"
     inkscape:window-x="0"
     inkscape:window-y="25"
     inkscape:window-maximized="1">
    <inkscape:grid
       type="xygrid"
       id="grid2985"
       empspacing="5"
       visible="true"
       enabled="true"
       snapvisiblegridlinesonly="true"
       spacingx="10px"
       spacingy="10px"
       originx="0px"
       originy="0px" />
  </sodipodi:namedview>
  <defs
     id="defs4" />
  <metadata
     id="metadata7">
    <rdf:RDF>
      <cc:Work
         rdf:about="">
        <dc:format>image/svg+xml</dc:format>
        <dc:type
           rdf:resource="http://purl.org/dc/dcmitype/StillImage" />
        <dc:title></dc:title>
      </cc:Work>
    </rdf:RDF>
  </metadata>
  <g
     inkscape:label="Ebene 1"
     inkscape:groupmode="layer"
     id="layer1"
     transform="translate(0,-1032.3622)">
    <path
       style="fill:#002255;fill-opacity:1;stroke:#000000;stroke-width:2;stroke-linecap:butt;stroke-linejoin:miter;stroke-miterlimit:4;stroke-opacity:1;stroke-dasharray:none"
       d="m 4.0103034,1036.324 c 0,0 0.3512619,5.531 0.6631874,8.273 0.056828,1.3015 -0.5208873,5.4219 1.558859,3.1146 1.8657273,-2.1544 3.8671402,-4.2313 6.6840432,-5.0337 1.113282,-0.8768 4.864246,-1.7514 2.044446,-2.9147 -2.15409,-0.9688 -3.707848,-1.5046 -5.9245241,-2.2435 -0.7983894,-0.6723 -5.0260115,-1.1957 -5.0260115,-1.1957 z"
       id="path3016"
       inkscape:connector-curvature="0"
       sodipodi:nodetypes="ccccccc" />
    <path
       style="fill:#002255;fill-opacity:1;stroke:#000000;stroke-width:2;stroke-linecap:butt;stroke-linejoin:miter;stroke-miterlimit:4;stroke-opacity:1;stroke-dasharray:none"
       d="m 25.986889,1049.0889 c 4.640544,-1.6927 6.811913,-4.2164 10.185727,-3.7182 0.77468,-3.1953 -0.76203,-2.11 -0.262679,-5.2598 -4.172544,-1.5513 -12.305077,-4.4754 -12.305077,-4.4754 0,0 0.539133,10.2144 2.382029,13.4534 z"
       id="path3024"
       inkscape:connector-curvature="0"
       sodipodi:nodetypes="ccccc" />
    <path
       style="fill:#002255;fill-opacity:1;stroke:#000000;stroke-width:2;stroke-linecap:butt;stroke-linejoin:miter;stroke-miterlimit:4;stroke-opacity:1;stroke-dasharray:none"
       d="m 44.87104,1036.1216 c 0.739587,2.7601 -0.470616,9.2177 -0.208362,11.8971 1.456309,1.1563 2.216046,0.2422 3.231619,0.2239 2.975034,0.502 5.271636,-0.01 7.480952,-1.4165 -1.577117,-1.8402 -0.600511,-5.39 -0.569161,-7.7957 -0.554756,-0.9748 -2.774496,-0.9836 -4.929454,-0.9043 -1.068731,-0.2036 -4.128824,-1.3056 -5.005594,-2.0045 z"
       id="path3026"
       inkscape:connector-curvature="0"
       sodipodi:nodetypes="ccccccc" />
    <path
       style="fill:#002255;fill-opacity:1;stroke:#000000;stroke-width:2;stroke-linecap:butt;stroke-linejoin:miter;stroke-miterlimit:4;stroke-opacity:1;stroke-dasharray:none"
       d="m 64.276233,1036.3951 c 0.695122,3.8461 -1.486366,10.1288 1.284279,12.3561 3.226088,-0.7139 8.168232,0.6852 10.329366,-1.1891 -1.709333,-2.6673 1.769489,-8.3576 -3.557193,-6.3458 -4.0282,0.6489 1.312373,-6.2219 -3.909822,-5.1241 -1.389328,0 -2.758132,0.2903 -4.14663,0.3029 z"
       id="path3028"
       inkscape:connector-curvature="0"
       sodipodi:nodetypes="cccccc" />
  </g>
</svg>
