<?xml version="1.0" encoding="UTF-8" standalone="no"?>
<!-- Created with Inkscape (http://www.inkscape.org/) -->

<svg
   xmlns:dc="http://purl.org/dc/elements/1.1/"
   xmlns:cc="http://creativecommons.org/ns#"
   xmlns:rdf="http://www.w3.org/1999/02/22-rdf-syntax-ns#"
   xmlns:svg="http://www.w3.org/2000/svg"
   xmlns="http://www.w3.org/2000/svg"
   xmlns:sodipodi="http://sodipodi.sourceforge.net/DTD/sodipodi-0.dtd"
   xmlns:inkscape="http://www.inkscape.org/namespaces/inkscape"
   width="50"
   height="50"
   id="svg2"
   version="1.1"
   inkscape:version="0.48.2 r9819"
   sodipodi:docname="fixedcannon.svg"
   inkscape:export-filename="/home/micha/Programmieren/git/platformer/images/fixedcannon.png"
   inkscape:export-xdpi="90"
   inkscape:export-ydpi="90">
  <sodipodi:namedview
     id="base"
     pagecolor="#ffffff"
     bordercolor="#666666"
     borderopacity="1.0"
     inkscape:pageopacity="0.0"
     inkscape:pageshadow="2"
     inkscape:zoom="11.313708"
     inkscape:cx="37.272219"
     inkscape:cy="24.233728"
     inkscape:document-units="px"
     inkscape:current-layer="layer1"
     showgrid="true"
     inkscape:showpageshadow="true"
     inkscape:window-width="1280"
     inkscape:window-height="750"
     inkscape:window-x="0"
     inkscape:window-y="25"
     inkscape:window-maximized="1">
    <inkscape:grid
       originy="0px"
       originx="0px"
       spacingy="5px"
       spacingx="5px"
       snapvisiblegridlinesonly="true"
       enabled="true"
       visible="true"
       empspacing="5"
       id="grid2985"
       type="xygrid" />
  </sodipodi:namedview>
  <defs
     id="defs4">
    <inkscape:path-effect
       fuse_tolerance="0"
       vertical_pattern="false"
       prop_units="false"
       tang_offset="0"
       normal_offset="0"
       spacing="0"
       scale_y_rel="false"
       prop_scale="1"
       copytype="single_stretched"
       pattern="M 0,0 0,10 10,5 z"
       is_visible="true"
       id="path-effect3017"
       effect="skeletal" />
  </defs>
  <metadata
     id="metadata7">
    <rdf:RDF>
      <cc:Work
         rdf:about="">
        <dc:format>image/svg+xml</dc:format>
        <dc:type
           rdf:resource="http://purl.org/dc/dcmitype/StillImage" />
        <dc:title />
      </cc:Work>
    </rdf:RDF>
  </metadata>
  <g
     transform="translate(0,-1002.3622)"
     id="layer1"
     inkscape:groupmode="layer"
     inkscape:label="Ebene 1">
    <g
       id="g3554"
       transform="translate(0.560972,-0.6034)">
      <path
         inkscape:connector-curvature="0"
         id="path3166-2"
         d="m 13.564033,1018.2156 c 2.079071,1.731 3.993505,3.7435 5.465507,6.0144 1.03087,1.9597 1.847382,4.0257 2.791895,6.0195 1.009978,1.3522 3.12332,1.1617 4.572482,0.7501 1.809116,-0.9129 2.764789,-3.8333 0.937938,-5.2152 -1.641673,-1.4258 -3.444029,-2.6664 -5.19058,-3.9495 -2.04648,-1.4553 -4.05282,-3.2967 -4.950092,-5.6945 0.05283,-1.1729 -0.390145,-2.8316 -1.601104,-1.2205 -0.679513,1.1086 -2.238381,1.8139 -2.026046,3.2957 z"
         style="fill:#483737;stroke:#000000;stroke-width:2;stroke-linecap:butt;stroke-linejoin:miter;stroke-miterlimit:4;stroke-opacity:1;stroke-dasharray:none" />
      <path
         inkscape:connector-curvature="0"
         id="path3940-9"
         d="m 39.981481,1037.3765 c 0.184026,-7.0109 0.08241,-14.0248 0,-21.0364 -5.691495,-2.1423 -11.96468,-2.0089 -17.919745,-1.5338 -3.771157,1.1965 -8.165917,2.9238 -9.87902,6.7725 -1.433659,4.5056 -1.401076,9.304 -1.535364,13.9792 0.536821,4.1383 5.741935,4.6735 9.007807,5.6415 4.732363,0.1097 9.480445,0.3608 14.2181,0.2003 2.356687,-0.8009 4.396964,-2.2416 6.108222,-4.0233 z"
         style="opacity:0.5;fill:#aaccff;stroke:none" />
      <path
         style="fill:none;stroke:#000000;stroke-width:2;stroke-linecap:butt;stroke-linejoin:miter;stroke-miterlimit:4;stroke-opacity:1;stroke-dasharray:none"
         d="m 39.981481,1037.3765 c 0.184026,-7.0109 0.08241,-14.0248 0,-21.0364 -5.691495,-2.1423 -11.96468,-2.0089 -17.919745,-1.5338 -3.771157,1.1965 -8.165917,2.9238 -9.87902,6.7725 -1.433659,4.5056 -1.401076,9.304 -1.535364,13.9792 0.536821,4.1383 5.741935,4.6735 9.007807,5.6415 4.732363,0.1097 9.480445,0.3608 14.2181,0.2003 2.356687,-0.8009 4.396964,-2.2416 6.108222,-4.0233 z"
         id="path3946-7"
         inkscape:connector-curvature="0" />
      <path
         style="fill:#ac9393;fill-opacity:1;stroke:#000000;stroke-width:2;stroke-miterlimit:4;stroke-opacity:1"
         d="m 35.138468,1047.9925 c -3.71132,-0.092 -7.40976,-0.5452 -11.12201,-0.585 -2.97992,-0.032 -5.95707,0.1926 -8.93593,0.2781 -3.54695,0.1019 -10.64154,0.28 -10.64154,0.28 0,0 0.57964,-6.589 0.69174,-9.8928 0.11205,-3.3021 0.0316,-6.6083 -0.0195,-9.9119 -0.0557,-3.5997 -0.19187,-7.1979 -0.31279,-10.796 -0.1053,-3.1336 -0.35941,-9.3993 -0.35941,-9.3993 0,0 7.05767,0.3663 10.58983,0.377 2.90807,0.01 5.81603,-0.1114 8.72043,-0.2576 3.64688,-0.1836 7.27534,-0.7712 10.92682,-0.778 3.261703,-0.01 9.762927,0.6586 9.762927,0.6586 0,0 0.646195,6.3754 0.551551,9.569 -0.104994,3.5428 -17.445556,1.5 -20.989442,1.5606 -9.6717,0.1653 -10.630109,3.5599 -10.557519,9.152 0.08317,6.4072 2.707439,9.7971 10.768697,9.2178 4.555529,-0.3273 19.62962,-0.8218 19.692454,0.9529 0.112782,3.1855 0.534259,9.5477 0.534259,9.5477 0,0 -6.201287,0.1039 -9.300517,0.027 z"
         id="rect5672-05-6"
         inkscape:connector-curvature="0"
         sodipodi:nodetypes="csscssscssscssssscsc" />
    </g>
  </g>
</svg>
