<?xml version="1.0" encoding="UTF-8" standalone="no"?>
<!-- Created with Inkscape (http://www.inkscape.org/) -->

<svg
   xmlns:dc="http://purl.org/dc/elements/1.1/"
   xmlns:cc="http://creativecommons.org/ns#"
   xmlns:rdf="http://www.w3.org/1999/02/22-rdf-syntax-ns#"
   xmlns:svg="http://www.w3.org/2000/svg"
   xmlns="http://www.w3.org/2000/svg"
   xmlns:sodipodi="http://sodipodi.sourceforge.net/DTD/sodipodi-0.dtd"
   xmlns:inkscape="http://www.inkscape.org/namespaces/inkscape"
   width="50"
   height="50"
   id="svg2"
   version="1.1"
   inkscape:version="0.48.2 r9819"
   sodipodi:docname="goalie.svg"
   inkscape:export-filename="/home/micha/Programmieren/git/platformer/images/goalie.png"
   inkscape:export-xdpi="90"
   inkscape:export-ydpi="90">
  <sodipodi:namedview
     id="base"
     pagecolor="#ffffff"
     bordercolor="#666666"
     borderopacity="1.0"
     inkscape:pageopacity="0.0"
     inkscape:pageshadow="2"
     inkscape:zoom="0.99999999"
     inkscape:cx="90.583623"
     inkscape:cy="135.43583"
     inkscape:document-units="px"
     inkscape:current-layer="layer1"
     showgrid="false"
     inkscape:showpageshadow="true"
     inkscape:window-width="1280"
     inkscape:window-height="750"
     inkscape:window-x="0"
     inkscape:window-y="25"
     inkscape:window-maximized="1">
    <inkscape:grid
       type="xygrid"
       id="grid2985"
       empspacing="5"
       visible="true"
       enabled="true"
       snapvisiblegridlinesonly="true"
       spacingx="10px"
       spacingy="10px"
       originx="0px"
       originy="0px" />
  </sodipodi:namedview>
  <defs
     id="defs4" />
  <metadata
     id="metadata7">
    <rdf:RDF>
      <cc:Work
         rdf:about="">
        <dc:format>image/svg+xml</dc:format>
        <dc:type
           rdf:resource="http://purl.org/dc/dcmitype/StillImage" />
        <dc:title />
      </cc:Work>
    </rdf:RDF>
  </metadata>
  <g
     inkscape:label="Ebene 1"
     inkscape:groupmode="layer"
     id="layer1"
     transform="translate(0,-1002.3622)">
    <g
       id="g5221">
      <path
         inkscape:connector-curvature="0"
         id="path11608"
         d="m 35.449419,1041.9592 -3.96893,7.3034 0.4334,-6.5963 -4.94975,-0.1768 -3.79215,6.7731 0.61017,-7.3034 -5.7367,6.7731 -1.15759,-6.7731 1.94454,-7.0711 z"
         style="fill:#000000;fill-opacity:1;stroke:none"
         sodipodi:nodetypes="cccccccccc" />
      <path
         sodipodi:nodetypes="cccccccccc"
         inkscape:connector-curvature="0"
         id="path11616"
         d="m 15.711059,1011.3515 1.41421,-9.5459 1.59099,9.1924 2.65165,-6.0104 3.53554,5.3033 5.12652,-0.1768 2.12132,-8.1317 1.93198,10.7353 -16.25089,3.4068 z"
         style="fill:#000000;fill-opacity:1;stroke:none" />
      <path
         inkscape:connector-curvature="0"
         id="path11600"
         d="m 34.064791,1041.763 6.419643,-0.7474 -5.895818,-1.6099 -1.30957,-3.012 8.253045,-2.057 -7.860173,-1.7408 -0.13096,-4.8454 7.467301,2.6575 -6.943468,-5.4076 5.633899,-2.057 -5.110074,-0.038 -0.785745,-2.2263 7.074436,-2.7117 -6.943476,-0.5622 6.943476,-2.1879 -6.681564,-1.7408 -3.273931,3.143 0.654785,25.4057 z"
         style="fill:#000000;fill-opacity:1;stroke:none"
         sodipodi:nodetypes="ccccccccccccccccccc" />
      <path
         inkscape:connector-curvature="0"
         id="path11602"
         d="m 16.121699,1013.0457 -6.254178,1.8355 6.254178,0.8837 0.135956,2.5833 -7.6137767,-1.5636 2.7871857,3.3311 -2.243342,1.0197 3.195059,-0.136 4.010836,3.1951 -8.0216569,0.8837 7.8856949,2.6512 0.40788,3.263 -6.798014,-0.2039 5.574372,2.6513 -4.75861,0.067 5.846297,3.0591 -6.933977,4.0108 7.477813,1.6995 4.622654,-4.3507 -1.767487,-23.6572 z"
         style="fill:#000000;fill-opacity:1;stroke:none"
         sodipodi:nodetypes="ccccccccccccccccccccc" />
    </g>
    <path
       style="fill:#4e004f;stroke:#000000;stroke-width:2;stroke-linecap:butt;stroke-linejoin:miter;stroke-miterlimit:4;stroke-opacity:1;stroke-dasharray:none"
       d="m -33.648156,1043.435 3.889088,-2.2097 2.032932,2.1213 2.032932,-4.0659 3.093592,3.3588 2.298097,-1.6794 5.833631,2.4749 -3.270369,-5.922 2.298097,-2.5633 -3.270369,-3.9775 2.032932,-4.0658 -0.972272,-3.182 3.447146,-3.8007 -2.474874,-2.3865 1.767767,-3.2704 -2.474874,0 3.623923,-4.331 c 0,0 -5.833631,2.2097 -6.275573,2.2097 -0.441942,0 -4.419417,-1.8562 -4.419417,-1.8562 l -4.331029,3.2704 -6.45235,-3.7123 2.12132,4.8614 -3.005203,1.9445 3.889087,4.0659 -3.623922,6.0988 3.800699,2.8284 -3.977476,5.922 4.242641,3.0052 z"
       id="path3910"
       inkscape:connector-curvature="0" />
    <g
       id="g4420"
       transform="matrix(0.77038961,0,0,0.77038961,-44.381607,234.68641)">
      <path
         sodipodi:nodetypes="csccc"
         inkscape:connector-curvature="0"
         id="path3949"
         d="m 17.919344,1019.2183 c -0.844859,1.8554 -0.789065,2.608 -0.740426,4.012 0.06436,1.8578 2.442791,2.4306 4.025076,2.1201 1.360276,-0.2453 2.727217,-0.9009 3.582747,-2.0101 -2.604951,-1.7655 -4.427058,-3.0569 -6.867397,-4.122 z"
         style="fill:#ff0000;stroke:none" />
      <path
         sodipodi:nodetypes="cccc"
         inkscape:connector-curvature="0"
         id="path3951"
         d="m 25.031464,1023.56 c 1.815732,0.874 3.844009,2.2966 5.920323,1.3134 2.098458,-0.7223 2.10961,-3.9873 1.898552,-5.8459 -2.759947,1.3784 -5.3755,3.0705 -7.818875,4.5325 z"
         style="fill:#ff0000;stroke:none" />
    </g>
    <path
       style="fill:#4e004f;fill-opacity:1;stroke:#000000;stroke-width:2;stroke-linecap:butt;stroke-linejoin:miter;stroke-miterlimit:4;stroke-opacity:1;stroke-dasharray:none"
       d="m 18.236601,1042.8014 c 2.681711,1.6597 11.470351,1.5019 14.082553,-0.2652 3.77465,-2.5535 1.947481,-6.1906 1.456029,-10.0762 -0.339361,-2.6831 -0.429668,-7.952 0.283816,-11.3479 0.713484,-3.3959 1.630371,-7.3047 -1.34968,-9.0333 -4.512255,-2.6174 -14.54489,-1.5137 -16.325194,1.0999 -1.028333,1.5097 -0.445767,5.9669 -0.132841,7.953 0.567955,3.6047 0.723303,7.1731 0.742676,10.9078 0.01688,3.2544 -2.119987,8.6808 1.242641,10.7619 z"
       id="path3179-0"
       inkscape:connector-curvature="0"
       sodipodi:nodetypes="ssszsssss" />
    <path
       style="fill:#ff0000;stroke:none"
       d="m 17.919344,1019.2183 c -0.844859,1.8554 -0.789065,2.608 -0.740426,4.012 0.06436,1.8578 2.442791,2.4306 4.025076,2.1201 1.360276,-0.2453 2.727217,-0.9009 3.582747,-2.0101 -2.604951,-1.7655 -4.427058,-3.0569 -6.867397,-4.122 z"
       id="path3949-1"
       inkscape:connector-curvature="0"
       sodipodi:nodetypes="csccc" />
    <path
       style="fill:#ff0000;stroke:none"
       d="m 25.031464,1023.56 c 1.815732,0.874 3.844009,2.2966 5.920323,1.3134 2.098458,-0.7223 2.10961,-3.9873 1.898552,-5.8459 -2.759947,1.3784 -5.3755,3.0705 -7.818875,4.5325 z"
       id="path3951-2"
       inkscape:connector-curvature="0"
       sodipodi:nodetypes="cccc" />
    <path
       sodipodi:nodetypes="ccscccccccccccc"
       style="fill:#000000;fill-opacity:1;stroke:none"
       d="m 199.97462,1033.8107 10.49004,1.0152 c 0,0 -16.86504,5.2348 -16.36504,5.1098 0.5,-0.125 16.11504,0.3902 16.11504,0.3902 l -14.49004,5.3598 12.11504,3.6402 -17.24004,2.3598 19.11504,9.8902 -20.74004,-4.1402 9.875,8 11.11504,-1.7348 -11.86504,7.7348 -16.875,-8.375 8.5,-25.25 z"
       id="path3299"
       inkscape:connector-curvature="0" />
    <path
       sodipodi:nodetypes="cccccccccccccccccccccccccccccccccccccccccccccccccccccccccc"
       style="fill:#000000;fill-opacity:1;stroke:none"
       d="m 249.59962,965.81073 c 1.5,0 10.125,-0.625 10.125,-0.625 l -11.125,-2.625 1.75,-2.5 9.375,0.375 -10.375,-2.625 0.375,-5.625 10.625,0.375 -9.75,-2.75 -0.25,-1.625 3.875,-2.75 -4.125,-0.125 -0.125,-3 10,-4.875 -10,0.75 2.125,-10.5 -4.375,9.125 -3.375,0 -0.5,-7.375 -3.625,7.625 -1.875,0.125 1.625,-9 -3,6.25 -4.125,-6.75 0.5,8.5 -3.375,0.875 -1.25,-7.75 -2.5,8.75 -4.625,-7.625 -1,7.25 -10.25,-5.125 9.375,7.25 -10,5.75 10.625,-0.375 -10.125,5.75 10,-1.625 0.625,5.875 -3.625,-2.75 3.375,6.625 -9.75,0.375 9.375,3.25 -10.25,2.625 9.75,0.875 -7.375,8.125 9,-7 3.125,-1.875 0.875,12.125 3,-16.875 1.5,16 2.625,-13.125 0.125,12 5.25,-11.625 2.375,9.75 1.375,-9.125 4.875,11.875 -1,-11.25 5.625,8.125 z"
       id="path11620"
       inkscape:connector-curvature="0" />
    <path
       style="fill:#000000;fill-opacity:1;stroke:none"
       d="m 155.3523,931.56803 -5.48705,9.1568 -5.5,-12 -2.64063,10.7109 0,-11.75 -6.125,12.25 -5.375,-12.125 1,13.375 -7.625,-12 0,13.25 c 0,0 -3.875,1 -3.75,0.125 0.0198,-0.1388 0.13112,-1.1297 0.1875,-1.625 l 0.4375,-0.125 -0.40625,-0.1875 c 0.31534,-2.798 1.03125,-11.3125 1.03125,-11.3125 l -3.34375,10.25 -0.84375,-0.375 -1.55871,-7.6064 -0.004,10.9814 1.5,-0.625 1.25,35.5 2.25,-13.5 5.125,11.625 0,-13.875 4.75,2.375 -0.125,12.375 2.625,-13.875 6.625,0.875 2.375,10.875 2.25,-10.875 4.625,1.625 1.125,12.5 2.125,-8.375 2,4.5 -0.125,-11.25 1.625,-19.875 z"
       id="path11624"
       inkscape:connector-curvature="0"
       sodipodi:nodetypes="ccccccccccscccccccccccccccccccccccccc" />
    <path
       sodipodi:nodetypes="cccccccccccccccccccccccccccccccccccccccccccc"
       style="fill:#000000;fill-opacity:1;stroke:none"
       d="m 250.03101,1083.4877 6.78828,1.3997 -7.49538,2.6662 10.85413,2.2835 -10.50058,1.9591 7.3186,2.9907 -6.43472,1.4288 8.55604,4.5816 -9.26314,0.7217 0.7071,5.3033 6.96505,-2.6663 -7.67215,5.6715 8.73281,3.8745 -8.37926,0.1913 7.14183,3.1674 -6.78828,0.5449 2.03612,8.0106 -5.74843,-7.3035 -1.49941,9.248 -2.92,-9.9551 -4.32784,9.248 -0.26836,-8.8944 -3.35875,-0.3536 -2.20653,8.8945 -1.68256,-8.8945 -3.53554,-0.3535 -0.0852,10.4854 -3.98066,-10.3086 -7.41646,9.6589 4.23448,-10.5428 -6.09382,-1.7104 7.50803,-2.1787 -0.53033,-4.4194 -9.09902,-2.5943 8.92225,-0.5877 -0.17678,-4.5962 -6.44737,1.2948 5.38671,-6.0678 -8.74547,-0.6497 9.2758,-3.5929 0.17678,-3.182 -8.03837,-3.3014 8.5687,-0.7645 z"
       id="path11604"
       inkscape:connector-curvature="0" />
    <path
       sodipodi:nodetypes="ccccccccccccccccccccccccccccc"
       style="fill:#000000;fill-opacity:1;stroke:none"
       d="m 199.82643,1085.7858 10.16467,-0.088 -10.695,5.5685 0,4.773 8.75045,-0.7955 -8.57367,3.9774 9.104,7.3363 -9.28078,0.088 -0.53033,4.0658 9.28078,-0.088 -8.04334,3.9775 8.3969,6.4524 -8.75045,-3.0936 -3.66741,8.1873 -1.98945,-8.0105 -3.31386,8.5408 -2.16622,-9.6015 -2.65165,-0.1768 -0.30865,8.7177 -3.75721,-7.8338 -4.02096,8.0106 -0.92879,-8.5409 -2.29809,0 -4.19775,10.3086 -0.0449,-9.7783 -3.18198,0 0.22168,7.657 -1.45911,-8.0106 z"
       id="path11606"
       inkscape:connector-curvature="0" />
    <path
       style="fill:#000000;fill-opacity:1;stroke:none"
       d="m 104.5438,1117.4289 -2.82843,10.3414 -3.18198,-9.8111 -2.82843,7.513 -3.71231,-7.6898 -4.59619,0.1768 -1.59099,8.2201 -3.71231,-8.5737 -3.712313,9.4576 -1.944544,-10.1647 -9.369165,10.2531 4.065864,-10.2531 -0.176776,-3.8891 -7.954952,0.2652 7.601398,-5.0381 -6.894291,-2.9169 6.894291,-4.1542 -10.253048,-4.8614 9.722718,-0.4419 -8.662058,-6.4524 16.817388,4.0544 -15.403174,-7.7667 7.071068,-1.8561 z"
       id="path11610"
       inkscape:connector-curvature="0"
       sodipodi:nodetypes="cccccccccccccccccccccccc" />
    <path
       style="fill:#000000;fill-opacity:1;stroke:none"
       d="m 70.602672,1071.9972 c -0.883883,-0.1767 -8.997844,-0.5088 -8.997844,-0.5088 l 8.113961,-3.3802 -8.644291,-4.5748 c 0,0 16.381728,4.7249 15.321068,4.0178 -1.060661,-0.7071 -14.260408,-8.9675 -14.260408,-8.9675 l 12.355078,0.5554 -4.948224,-8.1783 -8.821068,2.3196 9.351398,-5.8551 -8.821068,-4.0444 8.997845,-2.4964 -8.997845,-3.5141 9.351398,-1.082 6.540738,7.2478 -2.298097,26.1629 z"
       id="path11612"
       inkscape:connector-curvature="0"
       sodipodi:nodetypes="ccccscccccccccccc" />
    <path
       style="fill:#000000;fill-opacity:1;stroke:none"
       d="m 70.425896,1021.2623 -8.308505,-1.7677 8.131728,-2.6517 -6.010408,-3.5355 6.540738,-0.1768 -8.485281,-4.5962 7.601398,-1.2374 -0.53033,-4.0659 -6.894292,-4.41937 7.778175,1.23737 0.707107,-5.30327 -5.833631,1.9446 5.126524,-4.773 -9.369165,-3.5355 9.369165,-0.7071 -1.193243,-6.4966 5.435884,6.6733 3.402951,-10.2088 0.361136,13.5838 4.942163,-10.0483 1.02535,10.7895 5.04052,-13.6556 2.802,14.8841 3.68328,-13.2554 c 0,0 1.32712,10.8375 2.03423,10.484 0.70711,-0.3536 3.09229,-11.0143 3.09229,-11.0143 l 2.60746,7.9107 z"
       id="path11614"
       inkscape:connector-curvature="0"
       sodipodi:nodetypes="cccccccccccccccccccccccccccc" />
    <path
       style="fill:#000000;fill-opacity:1;stroke:none"
       d="m 166.41564,987.49803 2.62027,-7.2856 c 0,0 0.56171,7.2856 1.26881,7.2856 0.70711,0 5.48008,0.1768 5.48008,0.1768 l -0.38493,-6.7553 6.57212,10.0053 0.8525,-13.3641 3.21336,9.5837 2.65165,0 1.20606,-8.8766 2.50625,9.9373 4.21127,-8.6998 1.97592,8.523 9.54594,-2.6516 -7.42462,6.1871 6.89429,4.5962 -7.24785,-0.5303 0.70711,6.89427 c 0,0 9.01561,-1.4142 8.30851,-1.2374 -0.70711,0.1767 -12.51562,9.0104 -12.51562,9.0104 l 11.63173,2.3033 -7.95495,3.182 9.36916,3.889 -9.19238,1.7678 z"
       id="path11618"
       inkscape:connector-curvature="0"
       sodipodi:nodetypes="ccscccccccccccccccccccccc" />
    <path
       sodipodi:nodetypes="cccccccccccccccccccccccccccccccccccc"
       style="fill:#000000;fill-opacity:1;stroke:none"
       d="m 246.67226,986.61413 -2.12132,4.5962 -3.11464,-12.7657 -1.30478,11.8818 -2.82843,-2.1213 -0.81654,-6.9321 -1.83511,6.9321 -0.10943,-8.5231 -3.24933,9.9373 -2.05397,-9.4069 -1.30478,9.5837 -2.58431,-12.2354 -2.01189,12.0586 -2.29809,-0.8839 0.42089,-10.114 -1.65833,6.7553 -10.15969,-0.3931 10.15969,2.8679 -9.98291,3.496 10.86679,-0.1372 0.53033,3.8891 -11.39712,3.496 10.86679,1.1002 0.53033,2.82837 -10.86679,-1.277 10.86679,6.2267 -10.69002,-0.04 11.57391,3.5751 -11.75068,1.5514 7.86159,0.9235 -7.86159,3.1424 10.86679,0.5699 -11.22035,3.496 16.1701,0.7466 21.74353,-27.93067 z"
       id="path11598"
       inkscape:connector-curvature="0" />
    <path
       style="fill:#000000;fill-opacity:1;stroke:none"
       d="m 250.28938,1021.6465 -1.05386,-2.9508 10.69256,-0.4793 -10.48179,-4.5793 -0.42154,-2.3185 11.11409,-1.7438 -10.06024,-2.8932 -0.21076,-3.1615 8.37405,1.6284 -8.37405,-5.42227 10.48178,-2.1655 -10.27102,-1.6284 9.6387,-3.8516 -9.00638,-0.9962 0.21078,-1.4973 10.06024,-2.9866 -10.43524,1.3396 -0.19708,-10.3795 -5.22914,11.051 c -3.62102,32.48587 -2.39534,32.96777 5.1689,33.03477 z"
       id="path11596"
       inkscape:connector-curvature="0"
       sodipodi:nodetypes="cccccccccccccccccccc" />
  </g>
</svg>
