<?xml version="1.0" encoding="UTF-8" standalone="no"?>
<!-- Created with Inkscape (http://www.inkscape.org/) -->

<svg
   xmlns:dc="http://purl.org/dc/elements/1.1/"
   xmlns:cc="http://creativecommons.org/ns#"
   xmlns:rdf="http://www.w3.org/1999/02/22-rdf-syntax-ns#"
   xmlns:svg="http://www.w3.org/2000/svg"
   xmlns="http://www.w3.org/2000/svg"
   xmlns:sodipodi="http://sodipodi.sourceforge.net/DTD/sodipodi-0.dtd"
   xmlns:inkscape="http://www.inkscape.org/namespaces/inkscape"
   width="50"
   height="50"
   id="svg2"
   version="1.1"
   inkscape:version="0.48.2 r9819"
   sodipodi:docname="goalie.svg"
   inkscape:export-filename="/home/micha/Programmieren/git/platformer/images/goalie.png"
   inkscape:export-xdpi="90"
   inkscape:export-ydpi="90">
  <sodipodi:namedview
     id="base"
     pagecolor="#ffffff"
     bordercolor="#666666"
     borderopacity="1.0"
     inkscape:pageopacity="0.0"
     inkscape:pageshadow="2"
     inkscape:zoom="0.70710678"
     inkscape:cx="120.54397"
     inkscape:cy="185.58503"
     inkscape:document-units="px"
     inkscape:current-layer="layer1"
     showgrid="false"
     inkscape:showpageshadow="true"
     inkscape:window-width="1280"
     inkscape:window-height="750"
     inkscape:window-x="0"
     inkscape:window-y="25"
     inkscape:window-maximized="1">
    <inkscape:grid
       type="xygrid"
       id="grid2985"
       empspacing="5"
       visible="true"
       enabled="true"
       snapvisiblegridlinesonly="true"
       spacingx="10px"
       spacingy="10px"
       originx="0px"
       originy="0px" />
  </sodipodi:namedview>
  <defs
     id="defs4" />
  <metadata
     id="metadata7">
    <rdf:RDF>
      <cc:Work
         rdf:about="">
        <dc:format>image/svg+xml</dc:format>
        <dc:type
           rdf:resource="http://purl.org/dc/dcmitype/StillImage" />
        <dc:title />
      </cc:Work>
    </rdf:RDF>
  </metadata>
  <g
     inkscape:label="Ebene 1"
     inkscape:groupmode="layer"
     id="layer1"
     transform="translate(0,-1002.3622)">
    <path
       style="fill:#4e004f;fill-opacity:1;stroke:#000000;stroke-width:2;stroke-linecap:butt;stroke-linejoin:miter;stroke-miterlimit:4;stroke-opacity:1;stroke-dasharray:none"
       d="m 18.236601,1042.8014 c 2.681711,1.6597 11.470351,1.5019 14.082553,-0.2652 3.77465,-2.5535 1.947481,-6.1906 1.456029,-10.0762 -0.339361,-2.6831 -0.429668,-7.952 0.283816,-11.3479 0.713484,-3.3959 1.630371,-7.3047 -1.34968,-9.0333 -4.512255,-2.6174 -14.54489,-1.5137 -16.325194,1.0999 -1.028333,1.5097 -0.445767,5.9669 -0.132841,7.953 0.567955,3.6047 0.723303,7.1731 0.742676,10.9078 0.01688,3.2544 -2.119987,8.6808 1.242641,10.7619 z"
       id="path3179"
       inkscape:connector-curvature="0"
       sodipodi:nodetypes="ssszsssss" />
    <path
       style="fill:#ff0000;stroke:none"
       d="m 17.919344,1019.2183 c -0.844859,1.8554 -0.789065,2.608 -0.740426,4.012 0.06436,1.8578 2.442791,2.4306 4.025076,2.1201 1.360276,-0.2453 2.727217,-0.9009 3.582747,-2.0101 -2.604951,-1.7655 -4.427058,-3.0569 -6.867397,-4.122 z"
       id="path3949"
       inkscape:connector-curvature="0"
       sodipodi:nodetypes="csccc" />
    <path
       style="fill:#ff0000;stroke:none"
       d="m 25.031464,1023.56 c 1.815732,0.874 3.844009,2.2966 5.920323,1.3134 2.098458,-0.7223 2.10961,-3.9873 1.898552,-5.8459 -2.759947,1.3784 -5.3755,3.0705 -7.818875,4.5325 z"
       id="path3951"
       inkscape:connector-curvature="0"
       sodipodi:nodetypes="cccc" />
  </g>
</svg>
