<?xml version="1.0" encoding="UTF-8" standalone="no"?>
<!-- Created with Inkscape (http://www.inkscape.org/) -->

<svg
   xmlns:dc="http://purl.org/dc/elements/1.1/"
   xmlns:cc="http://creativecommons.org/ns#"
   xmlns:rdf="http://www.w3.org/1999/02/22-rdf-syntax-ns#"
   xmlns:svg="http://www.w3.org/2000/svg"
   xmlns="http://www.w3.org/2000/svg"
   xmlns:sodipodi="http://sodipodi.sourceforge.net/DTD/sodipodi-0.dtd"
   xmlns:inkscape="http://www.inkscape.org/namespaces/inkscape"
   width="40"
   height="60"
   id="svg2"
   version="1.1"
   inkscape:version="0.48.2 r9819"
   sodipodi:docname="meat.svg"
   inkscape:export-filename="/home/micha/Programmieren/git/platformer/images/meat.png"
   inkscape:export-xdpi="90"
   inkscape:export-ydpi="90">
  <sodipodi:namedview
     id="base"
     pagecolor="#ffffff"
     bordercolor="#666666"
     borderopacity="1.0"
     inkscape:pageopacity="0.0"
     inkscape:pageshadow="2"
     inkscape:zoom="16"
     inkscape:cx="11.107575"
     inkscape:cy="12.182356"
     inkscape:document-units="px"
     inkscape:current-layer="layer1"
     showgrid="true"
     inkscape:showpageshadow="true"
     inkscape:window-width="1280"
     inkscape:window-height="750"
     inkscape:window-x="0"
     inkscape:window-y="25"
     inkscape:window-maximized="1">
    <inkscape:grid
       type="xygrid"
       id="grid2985"
       empspacing="5"
       visible="true"
       enabled="true"
       snapvisiblegridlinesonly="true"
       spacingx="10px"
       spacingy="10px"
       originx="0px"
       originy="0px" />
  </sodipodi:namedview>
  <defs
     id="defs4" />
  <metadata
     id="metadata7">
    <rdf:RDF>
      <cc:Work
         rdf:about="">
        <dc:format>image/svg+xml</dc:format>
        <dc:type
           rdf:resource="http://purl.org/dc/dcmitype/StillImage" />
        <dc:title></dc:title>
      </cc:Work>
    </rdf:RDF>
  </metadata>
  <g
     inkscape:label="Ebene 1"
     inkscape:groupmode="layer"
     id="layer1"
     transform="translate(0,-992.3622)">
    <path
       style="fill:#d40000;stroke:#2b1100;stroke-width:2;stroke-linecap:butt;stroke-linejoin:miter;stroke-miterlimit:4;stroke-opacity:1;stroke-dasharray:none"
       d="m 9.5147171,1024.5607 c 1.7618719,-2.0133 9.1092049,-3.7708 3.2259719,-5.1525 -2.227035,-0.6532 -4.8870066,-1.4339 -7.4768033,-0.3061 -0.9859419,2.7036 1.0779514,10.4338 4.2508314,5.4586 z"
       id="path3069"
       inkscape:connector-curvature="0"
       sodipodi:nodetypes="cccc" />
    <path
       style="fill:#d40000;stroke:#2b1100;stroke-width:2;stroke-linecap:butt;stroke-linejoin:miter;stroke-miterlimit:4;stroke-opacity:1;stroke-dasharray:none"
       d="m 28.945735,1023.7409 c 2.282667,-1.2223 9.037021,4.4822 7.9582,-0.2375 -2.326667,-2.8948 -5.989067,-6.5551 -9.998936,-5.3722 -1.338829,0.3452 -5.454353,4.1494 -3.323725,4.8928 -2.458812,4.6151 5.448233,5.2242 5.364461,0.7169 z"
       id="path3071"
       inkscape:connector-curvature="0"
       sodipodi:nodetypes="ccccc" />
    <path
       style="fill:#d40000;stroke:#2b1100;stroke-width:2;stroke-linecap:butt;stroke-linejoin:miter;stroke-miterlimit:4;stroke-opacity:1;stroke-dasharray:none"
       d="m 31.289475,1000.7701 c -2.246511,-4.1602 -10.368858,-3.7262 -7.970257,2.1272 1.627589,4.9699 8.166794,4.5679 11.449344,1.7037 0.60333,-2.1304 -2.942476,-2.1481 -3.479087,-3.8309 z"
       id="path3073"
       inkscape:connector-curvature="0"
       sodipodi:nodetypes="cccc" />
    <path
       style="fill:#d40000;stroke:#2b1100;stroke-width:2;stroke-linecap:butt;stroke-linejoin:miter;stroke-miterlimit:4;stroke-opacity:1;stroke-dasharray:none"
       d="m 14.936565,997.3361 c -3.578496,-2.0462 -10.4841021,-0.6465 -10.1206858,4.3312 2.9875382,1.1753 4.1493618,2.9355 2.7197047,5.7986 4.6362911,2.6373 8.5195571,-1.4286 7.4976181,-6.289 0.02707,-1.281 -0.02288,-2.5621 -0.09664,-3.8408 z"
       id="path3075"
       inkscape:connector-curvature="0"
       sodipodi:nodetypes="ccccc" />
    <path
       style="fill:#d40000;fill-opacity:1;stroke:#2b1100;stroke-width:2;stroke-linecap:butt;stroke-linejoin:miter;stroke-miterlimit:4;stroke-opacity:1;stroke-dasharray:none"
       d="m 6.3719805,1045.1179 c 2.7418348,-0.055 6.1490395,0.279 8.8906265,0.177 2.592263,-0.1027 1.592252,0.044 3.072935,-0.1233 -0.940993,-0.9603 -1.755627,-2.1229 -2.58154,-2.7871 -1.255319,-0.8141 -2.827761,-0.5515 -4.155682,-1.1316 -0.209748,-1.7362 -5.0364266,-0.2094 -6.8794286,0.087 -1.5403996,2.5737 -2.4363341,2.1069 -3.0544337,4.149 2.9127832,-0.052 3.0115729,-0.2982 4.7075228,-0.3707 z"
       id="path3910"
       inkscape:connector-curvature="0"
       sodipodi:nodetypes="cccccccc" />
    <path
       style="fill:#d40000;stroke:#2b1100;stroke-width:2;stroke-linecap:butt;stroke-linejoin:miter;stroke-opacity:1;stroke-miterlimit:4;stroke-dasharray:none;fill-opacity:1"
       d="m 24.338301,1041.2732 c -0.05812,1.0669 -0.273639,1.9038 -0.451342,3.2866 2.110214,-0.6112 3.96845,-0.28 6.081612,-0.5221 1.58451,-0.071 4.043414,2.0211 5.018804,0.097 0.153977,-1.815 -2.185523,-1.9764 -3.336016,-2.7763 -2.091536,-0.3152 -1.742411,-2.4059 -2.121094,-3.9284 -1.095809,-1.5947 -2.036602,-1.4519 -3.723319,-2.0978 -1.00181,0.2832 -0.711687,-0.5108 -1.676916,-0.3824 -0.150129,2.5419 0.683986,4.2109 0.208271,6.3234 z"
       id="path3912"
       inkscape:connector-curvature="0"
       sodipodi:nodetypes="ccccccccc" />
  </g>
</svg>
