<?xml version="1.0" encoding="UTF-8" standalone="no"?>
<!-- Created with Inkscape (http://www.inkscape.org/) -->

<svg
   xmlns:dc="http://purl.org/dc/elements/1.1/"
   xmlns:cc="http://creativecommons.org/ns#"
   xmlns:rdf="http://www.w3.org/1999/02/22-rdf-syntax-ns#"
   xmlns:svg="http://www.w3.org/2000/svg"
   xmlns="http://www.w3.org/2000/svg"
   xmlns:sodipodi="http://sodipodi.sourceforge.net/DTD/sodipodi-0.dtd"
   xmlns:inkscape="http://www.inkscape.org/namespaces/inkscape"
   width="210mm"
   height="297mm"
   id="svg2"
   version="1.1"
   inkscape:version="0.48.2 r9819"
   sodipodi:docname="ninja.svg">
  <defs
     id="defs4" />
  <sodipodi:namedview
     id="base"
     pagecolor="#ffffff"
     bordercolor="#666666"
     borderopacity="1.0"
     inkscape:pageopacity="0.0"
     inkscape:pageshadow="2"
     inkscape:zoom="2.8"
     inkscape:cx="235.25153"
     inkscape:cy="739.22953"
     inkscape:document-units="px"
     inkscape:current-layer="layer1"
     showgrid="false"
     inkscape:window-width="1280"
     inkscape:window-height="750"
     inkscape:window-x="0"
     inkscape:window-y="25"
     inkscape:window-maximized="1" />
  <metadata
     id="metadata7">
    <rdf:RDF>
      <cc:Work
         rdf:about="">
        <dc:format>image/svg+xml</dc:format>
        <dc:type
           rdf:resource="http://purl.org/dc/dcmitype/StillImage" />
        <dc:title></dc:title>
      </cc:Work>
    </rdf:RDF>
  </metadata>
  <g
     inkscape:label="Ebene 1"
     inkscape:groupmode="layer"
     id="layer1">
    <path
       sodipodi:type="arc"
       style="fill:#333333;fill-opacity:1;stroke:#000000;stroke-width:6.95259298;stroke-miterlimit:4;stroke-opacity:1;stroke-dasharray:none"
       id="path3823-8"
       sodipodi:cx="117.32143"
       sodipodi:cy="364.32648"
       sodipodi:rx="19.285715"
       sodipodi:ry="20.714285"
       d="m 136.60714,364.32648 a 19.285715,20.714285 0 1 1 -38.571429,0 19.285715,20.714285 0 1 1 38.571429,0 z"
       transform="matrix(0.28880756,0,0,0.2865219,166.91216,253.95681)" />
    <path
       sodipodi:type="arc"
       style="fill:#333333;fill-opacity:1;stroke:#000000;stroke-width:5.83173063;stroke-miterlimit:4;stroke-opacity:1;stroke-dasharray:none"
       id="path3823-9"
       sodipodi:cx="117.32143"
       sodipodi:cy="364.32648"
       sodipodi:rx="19.285715"
       sodipodi:ry="20.714285"
       d="m 136.60714,364.32648 a 19.285715,20.714285 0 1 1 -38.571429,0 19.285715,20.714285 0 1 1 38.571429,0 z"
       transform="matrix(0.34431656,0,0,0.34159159,151.56857,254.23961)" />
    <path
       style="fill:#333333;fill-opacity:1;stroke:#000000;stroke-opacity:1;stroke-width:2;stroke-miterlimit:4;stroke-dasharray:none"
       d="M 182.34375 282.625 C 161.4228 282.625 144.4375 298.69484 144.4375 318.5 C 144.4375 331.87324 152.19261 343.52231 163.65625 349.6875 C 163.64434 352.81924 163.65625 356.09599 163.65625 359.65625 C 163.65625 371.65092 171.65992 381.375 181.5625 381.375 C 191.46508 381.375 200.03118 373.14763 199.75 361.15625 C 199.65584 357.14096 199.55095 353.78926 199.40625 350.5 C 211.74316 344.58733 220.21875 332.48546 220.21875 318.5 C 220.21875 298.69484 203.2647 282.625 182.34375 282.625 z "
       id="path2985" />
    <path
       style="fill:#ffffff;stroke:none;stroke-width:1px;stroke-linecap:butt;stroke-linejoin:miter;stroke-opacity:1;fill-opacity:0.13148789000000000"
       d="M 182.34375 282.625 C 161.4228 282.625 144.4375 298.69484 144.4375 318.5 C 144.4375 331.87324 152.19261 343.52231 163.65625 349.6875 C 163.64435 352.81924 163.65625 356.09599 163.65625 359.65625 C 163.65625 369.60342 169.16045 377.98949 176.6875 380.5625 C 182.33889 372.59869 181.08182 356.92264 176.1875 347.65625 C 165.07073 337.28878 161.78451 320.09823 166.8125 305.96875 C 170.09604 293.024 185.22425 292.22845 194.65625 285.9375 C 195.02104 285.62063 195.24867 285.23167 195.375 284.8125 C 191.31413 283.40368 186.92021 282.625 182.34375 282.625 z "
       id="path3857" />
    <path
       style="fill:#e9c6af;fill-opacity:1;stroke:#000000;stroke-opacity:1;stroke-width:2;stroke-miterlimit:4;stroke-dasharray:none"
       d="m 181.07881,310.98422 c 0,0 7.96185,1.45689 11.9866,1.45209 3.94711,-0.005 11.75199,-1.45209 11.75199,-1.45209 3.67953,-0.45465 6.69226,2.98475 6.69226,6.69226 0,3.70751 -2.98475,6.69226 -6.69226,6.69226 0,0 -7.93161,-1.45503 -11.9414,-1.45209 -3.96207,0.003 -11.79719,1.45209 -11.79719,1.45209 -3.67974,0.45293 -6.69226,-2.98475 -6.69226,-6.69226 0,-3.70751 2.98475,-6.69226 6.69226,-6.69226 z"
       id="rect2990"
       inkscape:connector-curvature="0"
       sodipodi:nodetypes="sssssssss" />
    <path
       sodipodi:type="arc"
       style="fill:#000000;fill-opacity:1;stroke:none"
       id="path3783"
       sodipodi:cx="117.93531"
       sodipodi:cy="329.7243"
       sodipodi:rx="5.8083773"
       sodipodi:ry="5.9346461"
       d="m 123.74369,329.7243 a 5.8083773,5.9346461 0 1 1 -11.61676,0 5.8083773,5.9346461 0 1 1 11.61676,0 z"
       transform="matrix(0.64561922,0,0,0.63188267,106.59325,109.20156)" />
    <path
       sodipodi:type="arc"
       style="fill:#000000;fill-opacity:1;stroke:none"
       id="path3783-6"
       sodipodi:cx="117.93531"
       sodipodi:cy="329.7243"
       sodipodi:rx="5.8083773"
       sodipodi:ry="5.9346461"
       d="m 123.74369,329.7243 a 5.8083773,5.9346461 0 1 1 -11.61676,0 5.8083773,5.9346461 0 1 1 11.61676,0 z"
       transform="matrix(0.58040183,0,0,0.56805288,136.17768,130.16595)" />
    <path
       sodipodi:type="arc"
       style="fill:#333333;fill-opacity:1;stroke:#000000;stroke-width:7.05024161;stroke-miterlimit:4;stroke-opacity:1;stroke-dasharray:none"
       id="path3823"
       sodipodi:cx="117.32143"
       sodipodi:cy="364.32648"
       sodipodi:rx="19.285715"
       sodipodi:ry="20.714285"
       d="m 136.60714,364.32648 a 19.285715,20.714285 0 1 1 -38.571429,0 19.285715,20.714285 0 1 1 38.571429,0 z"
       transform="matrix(0.28480746,0,0,0.28255346,138.54723,255.31335)" />
    <path
       sodipodi:type="arc"
       style="fill:#333333;fill-opacity:1;stroke:#000000;stroke-width:7.17886019;stroke-miterlimit:4;stroke-opacity:1;stroke-dasharray:none"
       id="path3823-6"
       sodipodi:cx="117.32143"
       sodipodi:cy="364.32648"
       sodipodi:rx="19.285715"
       sodipodi:ry="20.714285"
       d="m 136.60714,364.32648 a 19.285715,20.714285 0 1 1 -38.571429,0 19.285715,20.714285 0 1 1 38.571429,0 z"
       transform="matrix(0.26228518,0,0,0.29592063,140.11856,271.27752)" />
    <path
       style="fill:#ffffff;fill-opacity:0.8200692;stroke:none"
       d="m 164.44788,291.02027 c -3.76541,1.14817 -7.49493,6.2365 -8.82359,8.37839 -1.32867,2.14189 -1.41058,3.53899 -0.14334,4.5023 1.81327,1.35246 2.58226,0.976 4.40137,-0.21714 3.81596,-2.73273 3.9787,-4.32554 6.09777,-6.62487 1.35659,-1.47523 2.79762,-3.26684 2.65411,-5.3942 -0.0595,-0.77362 -0.42092,-1.79265 -4.18632,-0.64448 z"
       id="path3894"
       inkscape:connector-curvature="0"
       sodipodi:nodetypes="zzccccz" />
  </g>
</svg>
