<?xml version="1.0" encoding="UTF-8" standalone="no"?>
<!-- Created with Inkscape (http://www.inkscape.org/) -->

<svg
   xmlns:dc="http://purl.org/dc/elements/1.1/"
   xmlns:cc="http://creativecommons.org/ns#"
   xmlns:rdf="http://www.w3.org/1999/02/22-rdf-syntax-ns#"
   xmlns:svg="http://www.w3.org/2000/svg"
   xmlns="http://www.w3.org/2000/svg"
   xmlns:sodipodi="http://sodipodi.sourceforge.net/DTD/sodipodi-0.dtd"
   xmlns:inkscape="http://www.inkscape.org/namespaces/inkscape"
   width="200"
   height="150"
   id="svg2"
   version="1.1"
   inkscape:version="0.48.2 r9819"
   sodipodi:docname="player_white.svg"
   inkscape:export-filename="/home/micha/Programmieren/git/platformer/images/player_white.png"
   inkscape:export-xdpi="90"
   inkscape:export-ydpi="90">
  <sodipodi:namedview
     id="base"
     pagecolor="#ffffff"
     bordercolor="#666666"
     borderopacity="1.0"
     inkscape:pageopacity="0.0"
     inkscape:pageshadow="2"
     inkscape:zoom="2"
     inkscape:cx="113.7662"
     inkscape:cy="81.525144"
     inkscape:document-units="px"
     inkscape:current-layer="layer1"
     showgrid="true"
     inkscape:showpageshadow="true"
     inkscape:window-width="1280"
     inkscape:window-height="750"
     inkscape:window-x="0"
     inkscape:window-y="25"
     inkscape:window-maximized="1">
    <inkscape:grid
       type="xygrid"
       id="grid2985"
       empspacing="5"
       visible="true"
       enabled="true"
       snapvisiblegridlinesonly="true"
       spacingx="10px"
       spacingy="10px"
       originx="0px"
       originy="0px" />
  </sodipodi:namedview>
  <defs
     id="defs4" />
  <metadata
     id="metadata7">
    <rdf:RDF>
      <cc:Work
         rdf:about="">
        <dc:format>image/svg+xml</dc:format>
        <dc:type
           rdf:resource="http://purl.org/dc/dcmitype/StillImage" />
        <dc:title></dc:title>
      </cc:Work>
    </rdf:RDF>
  </metadata>
  <g
     inkscape:label="Ebene 1"
     inkscape:groupmode="layer"
     id="layer1"
     transform="translate(0,-902.3622)">
    <g
       id="g4324-3-10-1"
       transform="matrix(0.3347786,-0.0574067,0.0574067,0.3347786,-120.67262,1023.8739)"
       style="stroke-width:2.73781276;stroke-miterlimit:4;stroke-dasharray:none" />
    <path
       style="fill:#333333;stroke:#000000;stroke-width:0.93000001;stroke-linecap:round;stroke-linejoin:miter;stroke-miterlimit:4;stroke-opacity:1;stroke-dasharray:none"
       d="m 81.605655,974.3182 c 1.812022,0.6004 3.730006,0.2452 5.582113,0.4696 2.313769,0.1713 1.624679,2.9444 0.197389,3.8489 -1.358566,1.207 -3.235632,0.6939 -4.832757,0.4555 -0.336579,-0.02 -0.678028,0.01 -1.003048,0.099"
       id="path4336-7-3-8-1-7-8"
       inkscape:connector-curvature="0" />
    <path
       style="fill:#333333;stroke:#000000;stroke-width:0.93000001;stroke-linecap:round;stroke-linejoin:miter;stroke-miterlimit:4;stroke-opacity:1;stroke-dasharray:none"
       d="m 33.124649,974.7633 c 1.11655,1.5483 2.87892,2.3843 4.24827,3.6514 1.77463,1.4945 -0.40868,3.3379 -2.09532,3.2346 -1.80813,0.182 -3.02852,-1.3337 -4.18307,-2.4627 -0.26119,-0.2132 -0.55283,-0.3926 -0.87098,-0.5073"
       id="path4336-7-3-8-1-7"
       inkscape:connector-curvature="0" />
    <path
       style="fill:#333333;stroke:#000000;stroke-width:0.93000001;stroke-linecap:round;stroke-linejoin:miter;stroke-miterlimit:4;stroke-opacity:1;stroke-dasharray:none"
       d="m 33.643515,927.4107 c 0.715508,1.7698 2.227956,3.0016 3.256013,4.5584 1.367466,1.8743 -1.192135,3.1444 -2.805612,2.6423 -1.799431,-0.254 -2.62358,-2.0168 -3.475897,-3.3884 -0.202875,-0.2693 -0.443372,-0.513 -0.725041,-0.7002"
       id="path4336-7-3"
       inkscape:connector-curvature="0" />
    <g
       id="g4324-3-2"
       transform="matrix(0.33966489,0,0,0.33966489,-157.69051,840.48407)"
       style="fill:#ffffff;stroke-width:2.73781276;stroke-miterlimit:4;stroke-dasharray:none">
      <path
         sodipodi:nodetypes="ssssssssss"
         inkscape:connector-curvature="0"
         id="path3141-9-5-8-7-3-0"
         d="m 510.04744,224.89 c -3.74735,-1.19241 -4.83986,1.1286 -6.37613,2.73478 -3.90906,4.08693 -0.37491,8.29805 -0.99601,12.61639 -0.26317,1.82978 -3.88995,4.76589 -1.30332,5.81044 1.80561,0.72915 2.92765,-1.06789 3.46373,-2.91686 0.59811,-2.06291 1.86147,-2.56061 1.56432,-4.84136 -0.27186,-2.08659 0.41497,-4.90834 2.76563,-5.20127 2.8299,-0.35266 3.38861,-2.7561 2.73828,-5.23465 -0.55193,-2.10352 0.73316,-4.65773 -1.9353,-4.85512 -0.45896,-0.034 0.51566,2.02666 0.0788,1.88765 z"
         style="fill:#ffffff;fill-opacity:1;stroke:#000000;stroke-width:2.73781276;stroke-linecap:butt;stroke-linejoin:miter;stroke-miterlimit:4;stroke-opacity:1;stroke-dasharray:none" />
      <path
         sodipodi:nodetypes="ccccccccsc"
         inkscape:connector-curvature="0"
         id="path3141-9-4-5-3-8"
         d="m 509.36388,223.96832 c -3.41399,-1.95171 -4.79587,0.39712 -6.80627,1.34486 -4.47108,3.46312 -1.94766,8.09565 -3.60534,12.13124 -0.48595,1.78359 -4.79355,3.84269 -2.48647,5.41085 1.61863,1.08255 4.59404,1.25109 4.74252,-0.66825 1.63071,-1.39789 1.60836,-3.57813 1.79299,-5.87074 0.16971,-2.09737 1.42132,-4.45751 3.78958,-4.5101 2.80771,0.49946 4.24858,-2.03114 3.76978,-4.54846 0.2612,-2.15898 1.68844,-4.4024 -0.88017,-5.15198 -0.44179,-0.12892 0.0839,2.08564 -0.31662,1.86258 z"
         style="fill:#ffffff;fill-opacity:1;stroke:#000000;stroke-width:2.73781276;stroke-linecap:butt;stroke-linejoin:miter;stroke-miterlimit:4;stroke-opacity:1;stroke-dasharray:none" />
    </g>
    <path
       style="fill:#333333;stroke:#000000;stroke-width:0.93000001;stroke-linecap:butt;stroke-linejoin:miter;stroke-miterlimit:4;stroke-opacity:1;stroke-dasharray:none"
       d="m 32.401618,935.4649 c 0.04352,1.3618 0.209983,5.3594 0.09193,7.1187 0.04855,0.8798 -1.748754,1.1096 -2.848408,1.0104 -0.797102,-0.072 -1.820259,0.1565 -1.931031,-1.0149 -0.08454,-1.4056 0.413651,-1.7806 -0.179957,-3.1244"
       id="path4025-7-2-5-8-9-4-7-8-1"
       inkscape:connector-curvature="0"
       sodipodi:nodetypes="ccscc" />
    <path
       style="fill:#333333;stroke:#000000;stroke-width:0.93000001;stroke-miterlimit:4;stroke-opacity:1;stroke-dasharray:none"
       d="m 24.515193,910.6158 c -5.2572,0.044 -10.105859,3.5115 -9.707115,8.2332 0.368758,4.3666 0.259848,3.6874 1.80303,7.2312 -0.0055,1.4562 0.332123,2.9797 0.332123,4.6352 0,5.5771 3.721462,10.0985 8.325859,10.0985 4.604397,0 8.587371,-3.8255 8.456631,-9.4011 -0.0438,-1.867 -0.09255,-3.4254 -0.159833,-4.9548 1.375956,-3.0633 1.481169,-5.9361 1.034413,-8.8383 -1.005976,-6.5349 -5.839472,-7.0397 -10.085108,-7.0039 z"
       id="path2985-6-6-0-8-7-5-9-7"
       inkscape:connector-curvature="0"
       sodipodi:nodetypes="sscssccss" />
    <path
       style="fill:#333333;stroke:#000000;stroke-width:0.93000001;stroke-linecap:round;stroke-linejoin:miter;stroke-miterlimit:4;stroke-opacity:1;stroke-dasharray:none"
       d="m 18.266962,935.9276 c 0.641139,1.1073 0.400948,4.7899 0.396455,6.0884 -0.0064,1.856 1.114932,1.8676 2.489029,1.8385 0.824002,-0.017 2.499964,0.1202 2.51699,-1.3949 0.08454,-1.4057 -0.187687,-1.1505 0.40593,-2.4943"
       id="path4025-5-4-4-6-7-0-2-3"
       inkscape:connector-curvature="0"
       sodipodi:nodetypes="csscc" />
    <path
       style="fill:#ffffff;fill-opacity:1;stroke:#000000;stroke-width:0.92993885;stroke-linecap:butt;stroke-linejoin:miter;stroke-miterlimit:4;stroke-opacity:1;stroke-dasharray:none"
       d="m 14.818823,916.3572 c 3.358451,0.037 6.686474,-0.6388 10.019487,-1.0015 2.559052,-0.4364 5.231231,-0.5168 7.690631,-1.3258 1.492826,-0.366 3.216803,2.3376 1.472335,3.021 -1.568133,0.1684 -3.131532,0.3488 -4.689798,0.637 -3.218202,0.5684 -6.485477,0.5291 -9.735037,0.7106 -1.714881,0.064 -3.41354,0.611 -5.124237,0.4608 -1.01301,-0.4774 0.103749,-1.8751 0.366619,-2.5021 z"
       id="path4358-8-7-7-5-8"
       inkscape:connector-curvature="0" />
    <g
       id="g4319-3-9"
       transform="matrix(0.39462959,0,0,0.39462959,-185.24884,832.87187)"
       style="stroke-width:2.35648537;stroke-miterlimit:4;stroke-dasharray:none">
      <path
         sodipodi:nodetypes="ssssss"
         inkscape:connector-curvature="0"
         id="path4029-4-1-1-0"
         d="m 526.60758,225.66459 c 1.30376,7.17526 8.90089,4.97545 13.86986,4.54096 5.62963,-0.49226 11.99791,2.60399 13.60797,-3.16891 2.50066,-8.96618 -7.10574,-7.93813 -12.22627,-6.72513 -5.04069,1.19408 -11.83708,-4.38075 -15.28916,1.71943 -0.6144,1.08571 -0.18761,2.3942 0.0376,3.63365 z"
         style="fill:#e9c6af;stroke:#000000;stroke-width:2.35664034;stroke-linecap:butt;stroke-linejoin:miter;stroke-miterlimit:4;stroke-opacity:1;stroke-dasharray:none" />
      <path
         sodipodi:nodetypes="ccccsc"
         inkscape:connector-curvature="0"
         id="path4057-1-3-8-2"
         d="m 534.79163,223.66006 c -0.59064,0.27049 -1.0959,0.45531 -1.0883,1.20853 -0.005,0.71731 0.3195,1.50206 1.05833,1.72765 0.78323,0.44034 1.56627,-0.23349 1.91594,-0.9075 0.50579,-0.57716 0.47437,-1.12937 -0.19001,-1.87723 -0.32743,-0.36861 -1.16436,-0.42005 -1.69596,-0.15145 z"
         style="fill:#000000;fill-opacity:1;stroke:#000000;stroke-width:2.05121613;stroke-linecap:butt;stroke-linejoin:miter;stroke-miterlimit:4;stroke-opacity:1;stroke-dasharray:none" />
      <path
         sodipodi:nodetypes="csc"
         inkscape:connector-curvature="0"
         id="path4066-9-2-6-8"
         d="m 547.21449,223.73922 c -1.80654,0.51355 -1.91033,3.01092 0.39052,2.86663 1.67437,-0.10501 1.20599,-3.15557 -0.39052,-2.86663 z"
         style="fill:#000000;fill-opacity:1;stroke:#000000;stroke-width:2.08680105;stroke-linecap:butt;stroke-linejoin:miter;stroke-miterlimit:4;stroke-opacity:1;stroke-dasharray:none" />
    </g>
    <path
       style="fill:#333333;stroke:#000000;stroke-width:0.93000001;stroke-linecap:round;stroke-linejoin:miter;stroke-miterlimit:4;stroke-opacity:1;stroke-dasharray:none"
       d="m 16.867355,926.9019 c -0.772542,0.8672 -1.45753,1.808 -2.237112,2.665 -1.044553,1.4296 -1.547539,3.1751 -1.811637,4.9007 -0.240882,1.8199 1.453378,1.5966 2.577558,1.6639 1.543457,0.1703 2.14701,-1.8611 2.836323,-2.9503 0.552161,-0.5283 0.841571,-1.5673 1.743198,-1.559"
       id="path4051-8-1-8-8-3-8-0-3"
       inkscape:connector-curvature="0"
       sodipodi:nodetypes="cccccc" />
    <g
       id="g4324-3-2-6"
       transform="matrix(0.33966489,0,0,0.33966489,-107.69051,839.06986)"
       style="fill:#ffffff;stroke-width:2.73781276;stroke-miterlimit:4;stroke-dasharray:none">
      <path
         sodipodi:nodetypes="ssssssssss"
         inkscape:connector-curvature="0"
         id="path3141-9-5-8-7-3-0-2"
         d="m 510.04744,224.89 c -3.74735,-1.19241 -4.83986,1.1286 -6.37613,2.73478 -3.90906,4.08693 -0.37491,8.29805 -0.99601,12.61639 -0.26317,1.82978 -3.88995,4.76589 -1.30332,5.81044 1.80561,0.72915 2.92765,-1.06789 3.46373,-2.91686 0.59811,-2.06291 1.86147,-2.56061 1.56432,-4.84136 -0.27186,-2.08659 0.41497,-4.90834 2.76563,-5.20127 2.8299,-0.35266 3.38861,-2.7561 2.73828,-5.23465 -0.55193,-2.10352 0.73316,-4.65773 -1.9353,-4.85512 -0.45896,-0.034 0.51566,2.02666 0.0788,1.88765 z"
         style="fill:#ffffff;fill-opacity:1;stroke:#000000;stroke-width:2.73781276;stroke-linecap:butt;stroke-linejoin:miter;stroke-miterlimit:4;stroke-opacity:1;stroke-dasharray:none" />
      <path
         sodipodi:nodetypes="ccccccccsc"
         inkscape:connector-curvature="0"
         id="path3141-9-4-5-3-8-8"
         d="m 509.36388,223.96832 c -3.41399,-1.95171 -4.79587,0.39712 -6.80627,1.34486 -4.47108,3.46312 -1.94766,8.09565 -3.60534,12.13124 -0.48595,1.78359 -4.79355,3.84269 -2.48647,5.41085 1.61863,1.08255 4.59404,1.25109 4.74252,-0.66825 1.63071,-1.39789 1.60836,-3.57813 1.79299,-5.87074 0.16971,-2.09737 1.42132,-4.45751 3.78958,-4.5101 2.80771,0.49946 4.24858,-2.03114 3.76978,-4.54846 0.2612,-2.15898 1.68844,-4.4024 -0.88017,-5.15198 -0.44179,-0.12892 0.0839,2.08564 -0.31662,1.86258 z"
         style="fill:#ffffff;fill-opacity:1;stroke:#000000;stroke-width:2.73781276;stroke-linecap:butt;stroke-linejoin:miter;stroke-miterlimit:4;stroke-opacity:1;stroke-dasharray:none" />
    </g>
    <path
       style="fill:#333333;stroke:#000000;stroke-width:0.93000001;stroke-linecap:butt;stroke-linejoin:miter;stroke-miterlimit:4;stroke-opacity:1;stroke-dasharray:none"
       d="m 80.591744,932.2665 c 0.75801,1.13217 3.016006,4.4352 3.847436,5.99013 0.507051,0.72062 -0.895922,1.86726 -1.881287,2.36539 -0.714308,0.361 -1.461259,1.09661 -2.1755,0.16157 -0.816,-1.14761 -0.591952,-1.72952 -1.807071,-2.55514"
       id="path4025-7-2-5-8-9-4-7-8-1-0"
       inkscape:connector-curvature="0"
       sodipodi:nodetypes="ccscc" />
    <path
       style="fill:#333333;stroke:#000000;stroke-width:0.93000001;stroke-miterlimit:4;stroke-opacity:1;stroke-dasharray:none"
       d="m 74.515193,909.20159 c -5.2572,0.044 -10.105859,3.5115 -9.707115,8.2332 0.368758,4.3666 0.259848,3.6874 1.80303,7.2312 -0.0055,1.4562 0.332123,2.9797 0.332123,4.6352 0,5.5771 3.721462,10.0985 8.325859,10.0985 4.604397,0 8.587371,-3.8255 8.456631,-9.4011 -0.0438,-1.867 -0.09255,-3.4254 -0.159833,-4.9548 1.375956,-3.0633 1.481169,-5.9361 1.034413,-8.8383 -1.005976,-6.5349 -5.839472,-7.0397 -10.085108,-7.0039 z"
       id="path2985-6-6-0-8-7-5-9-7-2"
       inkscape:connector-curvature="0"
       sodipodi:nodetypes="sscssccss" />
    <path
       style="fill:#333333;stroke:#000000;stroke-width:0.93000001;stroke-linecap:round;stroke-linejoin:miter;stroke-miterlimit:4;stroke-opacity:1;stroke-dasharray:none"
       d="m 68.074172,932.73952 c 0.259443,1.25294 -1.129243,4.67212 -1.542788,5.90301 -0.591076,1.75938 0.469442,2.12382 1.782669,2.52932 0.787359,0.24358 2.334647,0.90205 2.828357,-0.53046 0.523301,-1.3074 0.184512,-1.15101 1.17143,-2.23921"
       id="path4025-5-4-4-6-7-0-2-3-4"
       inkscape:connector-curvature="0"
       sodipodi:nodetypes="csscc" />
    <path
       style="fill:#ffffff;fill-opacity:1;stroke:#000000;stroke-width:0.92993885;stroke-linecap:butt;stroke-linejoin:miter;stroke-miterlimit:4;stroke-opacity:1;stroke-dasharray:none"
       d="m 64.818823,914.94299 c 3.358451,0.037 6.686474,-0.6388 10.019487,-1.0015 2.559052,-0.4364 5.231231,-0.5168 7.690631,-1.3258 1.492826,-0.366 3.216803,2.3376 1.472335,3.021 -1.568133,0.1684 -3.131532,0.3488 -4.689798,0.637 -3.218202,0.5684 -6.485477,0.5291 -9.735037,0.7106 -1.714881,0.064 -3.41354,0.611 -5.124237,0.4608 -1.01301,-0.4774 0.103749,-1.8751 0.366619,-2.5021 z"
       id="path4358-8-7-7-5-8-7"
       inkscape:connector-curvature="0" />
    <g
       id="g4319-3-9-9"
       transform="matrix(0.39462959,0,0,0.39462959,-135.24884,831.45766)"
       style="stroke-width:2.35648537;stroke-miterlimit:4;stroke-dasharray:none">
      <path
         sodipodi:nodetypes="ssssss"
         inkscape:connector-curvature="0"
         id="path4029-4-1-1-0-0"
         d="m 526.60758,225.66459 c 1.30376,7.17526 8.90089,4.97545 13.86986,4.54096 5.62963,-0.49226 11.99791,2.60399 13.60797,-3.16891 2.50066,-8.96618 -7.10574,-7.93813 -12.22627,-6.72513 -5.04069,1.19408 -11.83708,-4.38075 -15.28916,1.71943 -0.6144,1.08571 -0.18761,2.3942 0.0376,3.63365 z"
         style="fill:#e9c6af;stroke:#000000;stroke-width:2.35664034;stroke-linecap:butt;stroke-linejoin:miter;stroke-miterlimit:4;stroke-opacity:1;stroke-dasharray:none" />
      <path
         sodipodi:nodetypes="ccccsc"
         inkscape:connector-curvature="0"
         id="path4057-1-3-8-2-8"
         d="m 534.79163,223.66006 c -0.59064,0.27049 -1.0959,0.45531 -1.0883,1.20853 -0.005,0.71731 0.3195,1.50206 1.05833,1.72765 0.78323,0.44034 1.56627,-0.23349 1.91594,-0.9075 0.50579,-0.57716 0.47437,-1.12937 -0.19001,-1.87723 -0.32743,-0.36861 -1.16436,-0.42005 -1.69596,-0.15145 z"
         style="fill:#000000;fill-opacity:1;stroke:#000000;stroke-width:2.05121613;stroke-linecap:butt;stroke-linejoin:miter;stroke-miterlimit:4;stroke-opacity:1;stroke-dasharray:none" />
      <path
         sodipodi:nodetypes="csc"
         inkscape:connector-curvature="0"
         id="path4066-9-2-6-8-2"
         d="m 547.21449,223.73922 c -1.80654,0.51355 -1.91033,3.01092 0.39052,2.86663 1.67437,-0.10501 1.20599,-3.15557 -0.39052,-2.86663 z"
         style="fill:#000000;fill-opacity:1;stroke:#000000;stroke-width:2.08680105;stroke-linecap:butt;stroke-linejoin:miter;stroke-miterlimit:4;stroke-opacity:1;stroke-dasharray:none" />
    </g>
    <path
       style="fill:#333333;stroke:#000000;stroke-width:0.93000001;stroke-linecap:round;stroke-linejoin:miter;stroke-miterlimit:4;stroke-opacity:1;stroke-dasharray:none"
       d="m 67.85367,929.15675 c 0.552172,1.02175 1.203366,1.98625 1.743551,3.01114 0.988276,1.46907 2.45803,2.53657 3.990467,3.3727 1.628996,0.84642 1.996198,-0.82258 2.442422,-1.8566 0.685889,-1.39313 -1.018416,-2.65257 -1.807662,-3.67169 -0.308615,-0.6991 -1.186887,-1.32514 -0.87194,-2.17001"
       id="path4051-8-1-8-8-3-8-0-3-0"
       inkscape:connector-curvature="0"
       sodipodi:nodetypes="cccccc" />
    <path
       style="fill:#333333;stroke:#000000;stroke-width:0.93000001;stroke-linecap:round;stroke-linejoin:miter;stroke-miterlimit:4;stroke-opacity:1;stroke-dasharray:none"
       d="m 133.12464,924.76326 c 1.11655,1.54837 2.87892,2.38437 4.24827,3.65142 1.77463,1.49454 -0.40868,3.33787 -2.09532,3.23463 -1.80813,0.18202 -3.02852,-1.33368 -4.18307,-2.46272 -0.26119,-0.21321 -0.55283,-0.3926 -0.87098,-0.5073"
       id="path4336-7-3-8-1"
       inkscape:connector-curvature="0" />
    <g
       id="g4324-3-2-6-4"
       transform="matrix(0.33966489,0,0,0.33966489,-57.69051,839.06986)"
       style="fill:#ffffff;stroke-width:2.73781276;stroke-miterlimit:4;stroke-dasharray:none">
      <path
         sodipodi:nodetypes="ssssssssss"
         inkscape:connector-curvature="0"
         id="path3141-9-5-8-7-3-0-2-2"
         d="m 510.04744,224.89 c -3.74735,-1.19241 -4.83986,1.1286 -6.37613,2.73478 -3.90906,4.08693 -0.37491,8.29805 -0.99601,12.61639 -0.26317,1.82978 -3.88995,4.76589 -1.30332,5.81044 1.80561,0.72915 2.92765,-1.06789 3.46373,-2.91686 0.59811,-2.06291 1.86147,-2.56061 1.56432,-4.84136 -0.27186,-2.08659 0.41497,-4.90834 2.76563,-5.20127 2.8299,-0.35266 3.38861,-2.7561 2.73828,-5.23465 -0.55193,-2.10352 0.73316,-4.65773 -1.9353,-4.85512 -0.45896,-0.034 0.51566,2.02666 0.0788,1.88765 z"
         style="fill:#ffffff;fill-opacity:1;stroke:#000000;stroke-width:2.73781276;stroke-linecap:butt;stroke-linejoin:miter;stroke-miterlimit:4;stroke-opacity:1;stroke-dasharray:none" />
      <path
         sodipodi:nodetypes="ccccccccsc"
         inkscape:connector-curvature="0"
         id="path3141-9-4-5-3-8-8-3"
         d="m 509.36388,223.96832 c -3.41399,-1.95171 -4.79587,0.39712 -6.80627,1.34486 -4.47108,3.46312 -1.94766,8.09565 -3.60534,12.13124 -0.48595,1.78359 -4.79355,3.84269 -2.48647,5.41085 1.61863,1.08255 4.59404,1.25109 4.74252,-0.66825 1.63071,-1.39789 1.60836,-3.57813 1.79299,-5.87074 0.16971,-2.09737 1.42132,-4.45751 3.78958,-4.5101 2.80771,0.49946 4.24858,-2.03114 3.76978,-4.54846 0.2612,-2.15898 1.68844,-4.4024 -0.88017,-5.15198 -0.44179,-0.12892 0.0839,2.08564 -0.31662,1.86258 z"
         style="fill:#ffffff;fill-opacity:1;stroke:#000000;stroke-width:2.73781276;stroke-linecap:butt;stroke-linejoin:miter;stroke-miterlimit:4;stroke-opacity:1;stroke-dasharray:none" />
    </g>
    <path
       style="fill:#333333;stroke:#000000;stroke-width:0.93000001;stroke-linecap:butt;stroke-linejoin:miter;stroke-miterlimit:4;stroke-opacity:1;stroke-dasharray:none"
       d="m 126.65215,937.55916 c -0.81065,1.09511 -3.15997,4.33383 -4.34393,5.64047 -0.50769,0.72017 -2.05992,-0.21453 -2.86088,-0.9745 -0.58053,-0.55094 -1.52477,-1.00643 -0.88499,-1.99392 0.80564,-1.15489 1.42902,-1.13998 1.79704,-2.56219"
       id="path4025-7-2-5-8-9-4-7-8-1-0-8"
       inkscape:connector-curvature="0"
       sodipodi:nodetypes="ccscc" />
    <path
       style="fill:#333333;stroke:#000000;stroke-width:0.93000001;stroke-miterlimit:4;stroke-opacity:1;stroke-dasharray:none"
       d="m 124.51519,909.20159 c -5.2572,0.044 -10.10586,3.5115 -9.70711,8.2332 0.36876,4.3666 0.25985,3.6874 1.80303,7.2312 -0.005,1.4562 0.33212,2.9797 0.33212,4.6352 0,5.5771 3.72146,10.0985 8.32586,10.0985 4.6044,0 8.58737,-3.8255 8.45663,-9.4011 -0.0438,-1.867 -0.0925,-3.4254 -0.15983,-4.9548 1.37595,-3.0633 1.48117,-5.9361 1.03441,-8.8383 -1.00598,-6.5349 -5.83947,-7.0397 -10.08511,-7.0039 z"
       id="path2985-6-6-0-8-7-5-9-7-2-5"
       inkscape:connector-curvature="0"
       sodipodi:nodetypes="sscssccss" />
    <path
       style="fill:#333333;stroke:#000000;stroke-width:0.93000001;stroke-linecap:round;stroke-linejoin:miter;stroke-miterlimit:4;stroke-opacity:1;stroke-dasharray:none"
       d="m 121.14141,937.73274 c 1.11733,0.62348 2.79475,3.91065 3.45513,5.0287 0.94393,1.59805 1.91336,1.0344 3.07919,0.30652 0.69932,-0.43613 2.2096,-1.17556 1.44918,-2.48613 -0.64643,-1.2511 -0.7498,-0.89256 -0.92714,-2.35091"
       id="path4025-5-4-4-6-7-0-2-3-4-9"
       inkscape:connector-curvature="0"
       sodipodi:nodetypes="csscc" />
    <path
       style="fill:#ffffff;fill-opacity:1;stroke:#000000;stroke-width:0.92993885;stroke-linecap:butt;stroke-linejoin:miter;stroke-miterlimit:4;stroke-opacity:1;stroke-dasharray:none"
       d="m 114.81882,914.94299 c 3.35845,0.037 6.68648,-0.6388 10.01949,-1.0015 2.55905,-0.4364 5.23123,-0.5168 7.69063,-1.3258 1.49283,-0.366 3.2168,2.3376 1.47234,3.021 -1.56814,0.1684 -3.13154,0.3488 -4.6898,0.637 -3.2182,0.5684 -6.48548,0.5291 -9.73504,0.7106 -1.71488,0.064 -3.41354,0.611 -5.12424,0.4608 -1.01301,-0.4774 0.10375,-1.8751 0.36662,-2.5021 z"
       id="path4358-8-7-7-5-8-7-9"
       inkscape:connector-curvature="0" />
    <g
       id="g4319-3-9-9-4"
       transform="matrix(0.39462959,0,0,0.39462959,-85.24883,831.45766)"
       style="stroke-width:2.35648537;stroke-miterlimit:4;stroke-dasharray:none">
      <path
         sodipodi:nodetypes="ssssss"
         inkscape:connector-curvature="0"
         id="path4029-4-1-1-0-0-5"
         d="m 526.60758,225.66459 c 1.30376,7.17526 8.90089,4.97545 13.86986,4.54096 5.62963,-0.49226 11.99791,2.60399 13.60797,-3.16891 2.50066,-8.96618 -7.10574,-7.93813 -12.22627,-6.72513 -5.04069,1.19408 -11.83708,-4.38075 -15.28916,1.71943 -0.6144,1.08571 -0.18761,2.3942 0.0376,3.63365 z"
         style="fill:#e9c6af;stroke:#000000;stroke-width:2.35664034;stroke-linecap:butt;stroke-linejoin:miter;stroke-miterlimit:4;stroke-opacity:1;stroke-dasharray:none" />
      <path
         sodipodi:nodetypes="ccccsc"
         inkscape:connector-curvature="0"
         id="path4057-1-3-8-2-8-4"
         d="m 534.79163,223.66006 c -0.59064,0.27049 -1.0959,0.45531 -1.0883,1.20853 -0.005,0.71731 0.3195,1.50206 1.05833,1.72765 0.78323,0.44034 1.56627,-0.23349 1.91594,-0.9075 0.50579,-0.57716 0.47437,-1.12937 -0.19001,-1.87723 -0.32743,-0.36861 -1.16436,-0.42005 -1.69596,-0.15145 z"
         style="fill:#000000;fill-opacity:1;stroke:#000000;stroke-width:2.05121613;stroke-linecap:butt;stroke-linejoin:miter;stroke-miterlimit:4;stroke-opacity:1;stroke-dasharray:none" />
      <path
         sodipodi:nodetypes="csc"
         inkscape:connector-curvature="0"
         id="path4066-9-2-6-8-2-7"
         d="m 547.21449,223.73922 c -1.80654,0.51355 -1.91033,3.01092 0.39052,2.86663 1.67437,-0.10501 1.20599,-3.15557 -0.39052,-2.86663 z"
         style="fill:#000000;fill-opacity:1;stroke:#000000;stroke-width:2.08680105;stroke-linecap:butt;stroke-linejoin:miter;stroke-miterlimit:4;stroke-opacity:1;stroke-dasharray:none" />
    </g>
    <path
       style="fill:#333333;stroke:#000000;stroke-width:0.93000001;stroke-linecap:round;stroke-linejoin:miter;stroke-miterlimit:4;stroke-opacity:1;stroke-dasharray:none"
       d="m 117.51007,924.91827 c -0.98261,0.61914 -1.9015,1.33326 -2.88805,1.94065 -1.39982,1.08413 -2.36684,2.62186 -3.09881,4.20669 -0.7358,1.68186 0.95398,1.93684 2.01548,2.31305 1.43581,0.59137 2.57868,-1.1932 3.54285,-2.04871 0.67694,-0.35459 1.24296,-1.27269 2.10697,-1.01484"
       id="path4051-8-1-8-8-3-8-0-3-0-5"
       inkscape:connector-curvature="0"
       sodipodi:nodetypes="cccccc" />
    <path
       style="fill:#333333;stroke:#000000;stroke-width:0.93000001;stroke-linecap:butt;stroke-linejoin:miter;stroke-miterlimit:4;stroke-opacity:1;stroke-dasharray:none"
       d="m 30.061419,981.5594 c 0.75801,1.1322 3.016006,4.4352 3.847436,5.9901 0.507051,0.7206 -0.895922,1.8673 -1.881287,2.3654 -0.714308,0.361 -1.461259,1.0966 -2.1755,0.1616 -0.816,-1.1476 -0.591952,-1.7295 -1.807071,-2.5552"
       id="path4025-7-2-5-8-9-4-7-8-1-0-1"
       inkscape:connector-curvature="0"
       sodipodi:nodetypes="ccscc" />
    <path
       style="fill:#333333;stroke:#000000;stroke-width:0.93000001;stroke-miterlimit:4;stroke-opacity:1;stroke-dasharray:none"
       d="m 24.515198,959.2016 c -5.2572,0.044 -10.105859,3.5115 -9.707115,8.2332 0.368758,4.3666 0.259848,3.6874 1.80303,7.2312 -0.0055,1.4562 0.332123,2.9797 0.332123,4.6352 0,5.5771 3.721462,10.0985 8.325859,10.0985 4.604397,0 8.587371,-3.8255 8.456631,-9.4011 -0.0438,-1.867 -0.09255,-3.4254 -0.159833,-4.9548 1.375956,-3.0633 1.481169,-5.9361 1.034413,-8.8383 -1.005976,-6.5349 -5.839472,-7.0397 -10.085108,-7.0039 z"
       id="path2985-6-6-0-8-7-5-9-7-2-7"
       inkscape:connector-curvature="0"
       sodipodi:nodetypes="sscssccss" />
    <path
       style="fill:#333333;stroke:#000000;stroke-width:0.93000001;stroke-linecap:round;stroke-linejoin:miter;stroke-miterlimit:4;stroke-opacity:1;stroke-dasharray:none"
       d="m 17.8974,982.3859 c 0.259443,1.253 -1.129243,4.6721 -1.542788,5.903 -0.591076,1.7594 0.469442,2.1238 1.782669,2.5293 0.787359,0.2436 2.334647,0.9021 2.828357,-0.5304 0.523301,-1.3074 0.184512,-1.151 1.17143,-2.2392"
       id="path4025-5-4-4-6-7-0-2-3-4-7"
       inkscape:connector-curvature="0"
       sodipodi:nodetypes="csscc" />
    <g
       id="g4335"
       transform="matrix(0.97974606,-0.20024401,0.20024401,0.97974606,-203.3164,-24.838513)"
       style="fill:#ffffff">
      <g
         style="fill:#ffffff;stroke-width:2.73781276;stroke-miterlimit:4;stroke-dasharray:none"
         transform="matrix(0.33966489,0,0,0.33966489,-157.69051,939.06986)"
         id="g4324-3-2-6-3">
        <path
           style="fill:#ffffff;fill-opacity:1;stroke:#000000;stroke-width:2.73781276;stroke-linecap:butt;stroke-linejoin:miter;stroke-miterlimit:4;stroke-opacity:1;stroke-dasharray:none"
           d="m 510.04744,224.89 c -3.74735,-1.19241 -4.83986,1.1286 -6.37613,2.73478 -3.90906,4.08693 -0.37491,8.29805 -0.99601,12.61639 -0.26317,1.82978 -3.88995,4.76589 -1.30332,5.81044 1.80561,0.72915 2.92765,-1.06789 3.46373,-2.91686 0.59811,-2.06291 1.86147,-2.56061 1.56432,-4.84136 -0.27186,-2.08659 0.41497,-4.90834 2.76563,-5.20127 2.8299,-0.35266 3.38861,-2.7561 2.73828,-5.23465 -0.55193,-2.10352 0.73316,-4.65773 -1.9353,-4.85512 -0.45896,-0.034 0.51566,2.02666 0.0788,1.88765 z"
           id="path3141-9-5-8-7-3-0-2-4"
           inkscape:connector-curvature="0"
           sodipodi:nodetypes="ssssssssss" />
        <path
           style="fill:#ffffff;fill-opacity:1;stroke:#000000;stroke-width:2.73781276;stroke-linecap:butt;stroke-linejoin:miter;stroke-miterlimit:4;stroke-opacity:1;stroke-dasharray:none"
           d="m 509.36388,223.96832 c -3.41399,-1.95171 -4.79587,0.39712 -6.80627,1.34486 -4.47108,3.46312 -1.94766,8.09565 -3.60534,12.13124 -0.48595,1.78359 -4.79355,3.84269 -2.48647,5.41085 1.61863,1.08255 4.59404,1.25109 4.74252,-0.66825 1.63071,-1.39789 1.60836,-3.57813 1.79299,-5.87074 0.16971,-2.09737 1.42132,-4.45751 3.78958,-4.5101 2.80771,0.49946 4.24858,-2.03114 3.76978,-4.54846 0.2612,-2.15898 1.68844,-4.4024 -0.88017,-5.15198 -0.44179,-0.12892 0.0839,2.08564 -0.31662,1.86258 z"
           id="path3141-9-4-5-3-8-8-5"
           inkscape:connector-curvature="0"
           sodipodi:nodetypes="ccccccccsc" />
      </g>
      <path
         inkscape:connector-curvature="0"
         id="path4358-8-7-7-5-8-7-0"
         d="m 14.818823,1014.943 c 3.358451,0.037 6.686474,-0.6388 10.019487,-1.0015 2.559052,-0.4364 5.231231,-0.5168 7.690631,-1.3258 1.492826,-0.366 3.216803,2.3376 1.472335,3.021 -1.568133,0.1684 -3.131532,0.3488 -4.689798,0.637 -3.218202,0.5684 -6.485477,0.5291 -9.735037,0.7106 -1.714881,0.064 -3.41354,0.611 -5.124237,0.4608 -1.01301,-0.4774 0.103749,-1.8751 0.366619,-2.5021 z"
         style="fill:#ffffff;fill-opacity:1;stroke:#000000;stroke-width:0.92993885;stroke-linecap:butt;stroke-linejoin:miter;stroke-miterlimit:4;stroke-opacity:1;stroke-dasharray:none" />
    </g>
    <g
       id="g4319-3-9-9-41"
       transform="matrix(0.38429338,-0.089728,0.089728,0.38429338,-199.85006,931.15382)"
       style="stroke-width:2.35648537;stroke-miterlimit:4;stroke-dasharray:none">
      <path
         sodipodi:nodetypes="ssssss"
         inkscape:connector-curvature="0"
         id="path4029-4-1-1-0-0-8"
         d="m 526.60758,225.66459 c 1.30376,7.17526 8.90089,4.97545 13.86986,4.54096 5.62963,-0.49226 11.99791,2.60399 13.60797,-3.16891 2.50066,-8.96618 -7.10574,-7.93813 -12.22627,-6.72513 -5.04069,1.19408 -11.83708,-4.38075 -15.28916,1.71943 -0.6144,1.08571 -0.18761,2.3942 0.0376,3.63365 z"
         style="fill:#e9c6af;stroke:#000000;stroke-width:2.35664034;stroke-linecap:butt;stroke-linejoin:miter;stroke-miterlimit:4;stroke-opacity:1;stroke-dasharray:none" />
      <path
         sodipodi:nodetypes="ccccsc"
         inkscape:connector-curvature="0"
         id="path4057-1-3-8-2-8-5"
         d="m 534.79163,223.66006 c -0.59064,0.27049 -1.0959,0.45531 -1.0883,1.20853 -0.005,0.71731 0.3195,1.50206 1.05833,1.72765 0.78323,0.44034 1.56627,-0.23349 1.91594,-0.9075 0.50579,-0.57716 0.47437,-1.12937 -0.19001,-1.87723 -0.32743,-0.36861 -1.16436,-0.42005 -1.69596,-0.15145 z"
         style="fill:#000000;fill-opacity:1;stroke:#000000;stroke-width:2.05121613;stroke-linecap:butt;stroke-linejoin:miter;stroke-miterlimit:4;stroke-opacity:1;stroke-dasharray:none" />
      <path
         sodipodi:nodetypes="csc"
         inkscape:connector-curvature="0"
         id="path4066-9-2-6-8-2-5"
         d="m 547.21449,223.73922 c -1.80654,0.51355 -1.91033,3.01092 0.39052,2.86663 1.67437,-0.10501 1.20599,-3.15557 -0.39052,-2.86663 z"
         style="fill:#000000;fill-opacity:1;stroke:#000000;stroke-width:2.08680105;stroke-linecap:butt;stroke-linejoin:miter;stroke-miterlimit:4;stroke-opacity:1;stroke-dasharray:none" />
    </g>
    <path
       style="fill:#333333;stroke:#000000;stroke-width:0.93000001;stroke-linecap:round;stroke-linejoin:miter;stroke-miterlimit:4;stroke-opacity:1;stroke-dasharray:none"
       d="m 17.510079,974.9183 c -0.98261,0.6191 -1.9015,1.3332 -2.88805,1.9406 -1.39982,1.0842 -2.36684,2.6219 -3.09881,4.2067 -0.7358,1.6819 0.95398,1.9369 2.01548,2.3131 1.43581,0.5913 2.57868,-1.1932 3.54285,-2.0487 0.67694,-0.3546 1.24296,-1.2727 2.10697,-1.0149"
       id="path4051-8-1-8-8-3-8-0-3-0-5-1"
       inkscape:connector-curvature="0"
       sodipodi:nodetypes="cccccc" />
    <path
       style="fill:#333333;stroke:#000000;stroke-width:0.93000001;stroke-linecap:butt;stroke-linejoin:miter;stroke-miterlimit:4;stroke-opacity:1;stroke-dasharray:none"
       d="m 80.848512,980.8287 c 0.73445,1.1477 2.923737,4.4966 3.722883,6.0683 0.492073,0.7309 -0.934318,1.8484 -1.92969,2.3261 -0.721664,0.3462 -1.483607,1.0661 -2.178375,0.1166 -0.792118,-1.1642 -0.55615,-1.7413 -1.753919,-2.592"
       id="path4025-7-2-5-8-9-4-7-8-1-0-1-6"
       inkscape:connector-curvature="0"
       sodipodi:nodetypes="ccscc" />
    <path
       style="fill:#333333;stroke:#000000;stroke-width:0.93000001;stroke-miterlimit:4;stroke-opacity:1;stroke-dasharray:none"
       d="m 74.515198,959.2016 c -5.2572,0.044 -10.105859,3.5115 -9.707115,8.2332 0.368758,4.3666 0.259848,3.6874 1.80303,7.2312 -0.0055,1.4562 0.332123,2.9797 0.332123,4.6352 0,5.5771 3.721462,10.0985 8.325859,10.0985 4.604397,0 8.587371,-3.8255 8.456631,-9.4011 -0.0438,-1.867 -0.09255,-3.4254 -0.159833,-4.9548 1.375956,-3.0633 1.481169,-5.9361 1.034413,-8.8383 -1.005976,-6.5349 -5.839472,-7.0397 -10.085108,-7.0039 z"
       id="path2985-6-6-0-8-7-5-9-7-2-7-9"
       inkscape:connector-curvature="0"
       sodipodi:nodetypes="sscssccss" />
    <path
       style="fill:#333333;stroke:#000000;stroke-width:0.93000001;stroke-linecap:round;stroke-linejoin:miter;stroke-miterlimit:4;stroke-opacity:1;stroke-dasharray:none"
       d="m 67.476169,981.661 c 0.175604,1.2675 -1.437458,4.5867 -1.931926,5.7874 -0.706796,1.7161 0.32711,2.1503 1.610483,2.6422 0.76941,0.2955 2.269423,1.0554 2.857355,-0.3409 0.609134,-1.2697 0.260709,-1.1362 1.317771,-2.1563"
       id="path4025-5-4-4-6-7-0-2-3-4-7-9"
       inkscape:connector-curvature="0"
       sodipodi:nodetypes="csscc" />
    <path
       style="fill:#333333;stroke:#000000;stroke-width:0.93000001;stroke-linecap:round;stroke-linejoin:miter;stroke-miterlimit:4;stroke-opacity:1;stroke-dasharray:none"
       d="m 131.40597,972.7207 c 1.90751,-0.073 3.57912,-1.0784 5.39231,-1.5177 2.22688,-0.651 2.55401,2.1876 1.53458,3.5353 -0.84904,1.6067 -2.78685,1.7844 -4.36615,2.1212 -0.32212,0.1 -0.63294,0.2432 -0.90454,0.4447"
       id="path4336-7-3-8-1-7-7-8"
       inkscape:connector-curvature="0" />
    <path
       style="fill:#333333;stroke:#000000;stroke-width:0.93000001;stroke-linecap:butt;stroke-linejoin:miter;stroke-miterlimit:4;stroke-opacity:1;stroke-dasharray:none"
       d="m 131.536,980.5787 c 0.73445,1.1477 2.92374,4.4966 3.72289,6.0683 0.49207,0.7309 -0.93432,1.8484 -1.92969,2.3261 -0.72167,0.3462 -1.48361,1.0661 -2.17838,0.1166 -0.79212,-1.1642 -0.55615,-1.7413 -1.75392,-2.592"
       id="path4025-7-2-5-8-9-4-7-8-1-0-1-6-9"
       inkscape:connector-curvature="0"
       sodipodi:nodetypes="ccscc" />
    <path
       style="fill:#333333;stroke:#000000;stroke-width:0.93000001;stroke-miterlimit:4;stroke-opacity:1;stroke-dasharray:none"
       d="m 124.51519,959.2016 c -5.2572,0.044 -10.10586,3.5115 -9.70712,8.2332 0.36876,4.3666 0.25985,3.6874 1.80303,7.2312 -0.005,1.4562 0.33213,2.9797 0.33213,4.6352 0,5.5771 3.72146,10.0985 8.32586,10.0985 4.60439,0 8.58737,-3.8255 8.45663,-9.4011 -0.0438,-1.867 -0.0925,-3.4254 -0.15984,-4.9548 1.37596,-3.0633 1.48117,-5.9361 1.03442,-8.8383 -1.00598,-6.5349 -5.83948,-7.0397 -10.08511,-7.0039 z"
       id="path2985-6-6-0-8-7-5-9-7-2-7-9-8"
       inkscape:connector-curvature="0"
       sodipodi:nodetypes="sscssccss" />
    <path
       style="fill:#333333;stroke:#000000;stroke-width:0.93000001;stroke-linecap:round;stroke-linejoin:miter;stroke-miterlimit:4;stroke-opacity:1;stroke-dasharray:none"
       d="m 117.69912,980.7475 c 0.006,1.2796 -2.0329,4.3556 -2.68219,5.4801 -0.9281,1.6073 0.0391,2.1747 1.24594,2.8324 0.72344,0.3949 2.10945,1.347 2.87732,0.041 0.7721,-1.1777 0.40905,-1.0916 1.59204,-1.9626"
       id="path4025-5-4-4-6-7-0-2-3-4-7-9-5"
       inkscape:connector-curvature="0"
       sodipodi:nodetypes="csscc" />
    <g
       id="g4335-9-5"
       transform="matrix(0.95284689,0.30345149,-0.30345149,0.95284689,409.86914,-8.9450832)"
       style="fill:#ffffff">
      <g
         style="fill:#ffffff;stroke-width:2.73781276;stroke-miterlimit:4;stroke-dasharray:none"
         transform="matrix(0.33966489,0,0,0.33966489,-157.69051,939.06986)"
         id="g4324-3-2-6-3-2-9">
        <path
           style="fill:#ffffff;fill-opacity:1;stroke:#000000;stroke-width:2.73781276;stroke-linecap:butt;stroke-linejoin:miter;stroke-miterlimit:4;stroke-opacity:1;stroke-dasharray:none"
           d="m 510.04744,224.89 c -3.74735,-1.19241 -4.83986,1.1286 -6.37613,2.73478 -3.90906,4.08693 -0.37491,8.29805 -0.99601,12.61639 -0.26317,1.82978 -3.88995,4.76589 -1.30332,5.81044 1.80561,0.72915 2.92765,-1.06789 3.46373,-2.91686 0.59811,-2.06291 1.86147,-2.56061 1.56432,-4.84136 -0.27186,-2.08659 0.41497,-4.90834 2.76563,-5.20127 2.8299,-0.35266 3.38861,-2.7561 2.73828,-5.23465 -0.55193,-2.10352 0.73316,-4.65773 -1.9353,-4.85512 -0.45896,-0.034 0.51566,2.02666 0.0788,1.88765 z"
           id="path3141-9-5-8-7-3-0-2-4-5-2"
           inkscape:connector-curvature="0"
           sodipodi:nodetypes="ssssssssss" />
        <path
           style="fill:#ffffff;fill-opacity:1;stroke:#000000;stroke-width:2.73781276;stroke-linecap:butt;stroke-linejoin:miter;stroke-miterlimit:4;stroke-opacity:1;stroke-dasharray:none"
           d="m 509.36388,223.96832 c -3.41399,-1.95171 -4.79587,0.39712 -6.80627,1.34486 -4.47108,3.46312 -1.94766,8.09565 -3.60534,12.13124 -0.48595,1.78359 -4.79355,3.84269 -2.48647,5.41085 1.61863,1.08255 4.59404,1.25109 4.74252,-0.66825 1.63071,-1.39789 1.60836,-3.57813 1.79299,-5.87074 0.16971,-2.09737 1.42132,-4.45751 3.78958,-4.5101 2.80771,0.49946 4.24858,-2.03114 3.76978,-4.54846 0.2612,-2.15898 1.68844,-4.4024 -0.88017,-5.15198 -0.44179,-0.12892 0.0839,2.08564 -0.31662,1.86258 z"
           id="path3141-9-4-5-3-8-8-5-4-8"
           inkscape:connector-curvature="0"
           sodipodi:nodetypes="ccccccccsc" />
      </g>
      <path
         inkscape:connector-curvature="0"
         id="path4358-8-7-7-5-8-7-0-5-0"
         d="m 14.818823,1014.943 c 3.358451,0.037 6.686474,-0.6388 10.019487,-1.0015 2.559052,-0.4364 5.231231,-0.5168 7.690631,-1.3258 1.492826,-0.366 3.216803,2.3376 1.472335,3.021 -1.568133,0.1684 -3.131532,0.3488 -4.689798,0.637 -3.218202,0.5684 -6.485477,0.5291 -9.735037,0.7106 -1.714881,0.064 -3.41354,0.611 -5.124237,0.4608 -1.01301,-0.4774 0.103749,-1.8751 0.366619,-2.5021 z"
         style="fill:#ffffff;fill-opacity:1;stroke:#000000;stroke-width:0.92993885;stroke-linecap:butt;stroke-linejoin:miter;stroke-miterlimit:4;stroke-opacity:1;stroke-dasharray:none" />
    </g>
    <g
       id="g4319-3-9-9-41-2-6"
       transform="matrix(0.38384969,0.09160749,-0.09160749,0.38384969,-59.555525,835.36997)"
       style="stroke-width:2.35648537;stroke-miterlimit:4;stroke-dasharray:none">
      <path
         sodipodi:nodetypes="ssssss"
         inkscape:connector-curvature="0"
         id="path4029-4-1-1-0-0-8-4-4"
         d="m 526.60758,225.66459 c 1.30376,7.17526 8.90089,4.97545 13.86986,4.54096 5.62963,-0.49226 11.99791,2.60399 13.60797,-3.16891 2.50066,-8.96618 -7.10574,-7.93813 -12.22627,-6.72513 -5.04069,1.19408 -11.83708,-4.38075 -15.28916,1.71943 -0.6144,1.08571 -0.18761,2.3942 0.0376,3.63365 z"
         style="fill:#e9c6af;stroke:#000000;stroke-width:2.35664034;stroke-linecap:butt;stroke-linejoin:miter;stroke-miterlimit:4;stroke-opacity:1;stroke-dasharray:none" />
      <path
         sodipodi:nodetypes="ccccsc"
         inkscape:connector-curvature="0"
         id="path4057-1-3-8-2-8-5-8-4"
         d="m 534.79163,223.66006 c -0.59064,0.27049 -1.0959,0.45531 -1.0883,1.20853 -0.005,0.71731 0.3195,1.50206 1.05833,1.72765 0.78323,0.44034 1.56627,-0.23349 1.91594,-0.9075 0.50579,-0.57716 0.47437,-1.12937 -0.19001,-1.87723 -0.32743,-0.36861 -1.16436,-0.42005 -1.69596,-0.15145 z"
         style="fill:#000000;fill-opacity:1;stroke:#000000;stroke-width:2.05121613;stroke-linecap:butt;stroke-linejoin:miter;stroke-miterlimit:4;stroke-opacity:1;stroke-dasharray:none" />
      <path
         sodipodi:nodetypes="csc"
         inkscape:connector-curvature="0"
         id="path4066-9-2-6-8-2-5-7-8"
         d="m 547.21449,223.73922 c -1.80654,0.51355 -1.91033,3.01092 0.39052,2.86663 1.67437,-0.10501 1.20599,-3.15557 -0.39052,-2.86663 z"
         style="fill:#000000;fill-opacity:1;stroke:#000000;stroke-width:2.08680105;stroke-linecap:butt;stroke-linejoin:miter;stroke-miterlimit:4;stroke-opacity:1;stroke-dasharray:none" />
    </g>
    <path
       style="fill:#333333;stroke:#000000;stroke-width:0.93000001;stroke-linecap:round;stroke-linejoin:miter;stroke-miterlimit:4;stroke-opacity:1;stroke-dasharray:none"
       d="m 120.63453,973.9285 c -1.02197,-0.5517 -2.09538,-1.0013 -3.10909,-1.5622 -1.63203,-0.6866 -3.44645,-0.7734 -5.18642,-0.6324 -1.82642,0.1853 -1.21839,1.7824 -1.02458,2.8918 0.19034,1.5411 2.30611,1.6599 3.52492,2.0794 0.64142,0.4154 1.71916,0.4574 1.91908,1.3366"
       id="path4051-8-1-8-8-3-8-0-3-0-5-1-5-1"
       inkscape:connector-curvature="0"
       sodipodi:nodetypes="cccccc" />
    <path
       style="fill:#333333;stroke:#000000;stroke-width:0.93000001;stroke-linecap:round;stroke-linejoin:miter;stroke-miterlimit:4;stroke-opacity:1;stroke-dasharray:none"
       d="m 69.575566,974.0524 c -1.153424,0.1357 -2.290238,0.3846 -3.442181,0.5081 -1.730231,0.3759 -3.265083,1.3474 -4.608064,2.4627 -1.388244,1.2012 0.02711,2.1589 0.823216,2.9555 1.041336,1.1518 2.841163,0.033 4.079724,-0.3238 0.763657,-0.029 1.669812,-0.6135 2.338646,-0.01"
       id="path4051-8-1-8-8-3-8-0-3-0-5-1-8"
       inkscape:connector-curvature="0"
       sodipodi:nodetypes="cccccc" />
    <g
       id="g4324-3-2-6-8"
       transform="matrix(0.33966489,0,0,0.33966489,-107.69051,889.06986)"
       style="fill:#ffffff;stroke-width:2.73781276;stroke-miterlimit:4;stroke-dasharray:none">
      <path
         sodipodi:nodetypes="ssssssssss"
         inkscape:connector-curvature="0"
         id="path3141-9-5-8-7-3-0-2-0"
         d="m 510.04744,224.89 c -3.74735,-1.19241 -4.83986,1.1286 -6.37613,2.73478 -3.90906,4.08693 -0.37491,8.29805 -0.99601,12.61639 -0.26317,1.82978 -3.88995,4.76589 -1.30332,5.81044 1.80561,0.72915 2.92765,-1.06789 3.46373,-2.91686 0.59811,-2.06291 1.86147,-2.56061 1.56432,-4.84136 -0.27186,-2.08659 0.41497,-4.90834 2.76563,-5.20127 2.8299,-0.35266 3.38861,-2.7561 2.73828,-5.23465 -0.55193,-2.10352 0.73316,-4.65773 -1.9353,-4.85512 -0.45896,-0.034 0.51566,2.02666 0.0788,1.88765 z"
         style="fill:#ffffff;fill-opacity:1;stroke:#000000;stroke-width:2.73781276;stroke-linecap:butt;stroke-linejoin:miter;stroke-miterlimit:4;stroke-opacity:1;stroke-dasharray:none" />
      <path
         sodipodi:nodetypes="ccccccccsc"
         inkscape:connector-curvature="0"
         id="path3141-9-4-5-3-8-8-1"
         d="m 509.36388,223.96832 c -3.41399,-1.95171 -4.79587,0.39712 -6.80627,1.34486 -4.47108,3.46312 -1.94766,8.09565 -3.60534,12.13124 -0.48595,1.78359 -4.79355,3.84269 -2.48647,5.41085 1.61863,1.08255 4.59404,1.25109 4.74252,-0.66825 1.63071,-1.39789 1.60836,-3.57813 1.79299,-5.87074 0.16971,-2.09737 1.42132,-4.45751 3.78958,-4.5101 2.80771,0.49946 4.24858,-2.03114 3.76978,-4.54846 0.2612,-2.15898 1.68844,-4.4024 -0.88017,-5.15198 -0.44179,-0.12892 0.0839,2.08564 -0.31662,1.86258 z"
         style="fill:#ffffff;fill-opacity:1;stroke:#000000;stroke-width:2.73781276;stroke-linecap:butt;stroke-linejoin:miter;stroke-miterlimit:4;stroke-opacity:1;stroke-dasharray:none" />
    </g>
    <path
       style="fill:#ffffff;fill-opacity:1;stroke:#000000;stroke-width:0.92993885;stroke-linecap:butt;stroke-linejoin:miter;stroke-miterlimit:4;stroke-opacity:1;stroke-dasharray:none"
       d="m 64.818828,964.943 c 3.358451,0.037 6.686474,-0.6388 10.019487,-1.0015 2.559052,-0.4364 5.231231,-0.5168 7.690631,-1.3258 1.492826,-0.366 3.216803,2.3376 1.472335,3.021 -1.568133,0.1684 -3.131532,0.3488 -4.689798,0.637 -3.218202,0.5684 -6.485477,0.5291 -9.735037,0.7106 -1.714881,0.064 -3.41354,0.611 -5.124237,0.4608 -1.01301,-0.4774 0.103749,-1.8751 0.366619,-2.5021 z"
       id="path4358-8-7-7-5-8-7-1"
       inkscape:connector-curvature="0" />
    <g
       id="g4319-3-9-9-1"
       transform="matrix(0.39462959,0,0,0.39462959,-135.24884,881.45766)"
       style="stroke-width:2.35648537;stroke-miterlimit:4;stroke-dasharray:none">
      <path
         sodipodi:nodetypes="ssssss"
         inkscape:connector-curvature="0"
         id="path4029-4-1-1-0-0-88"
         d="m 526.60758,225.66459 c 1.30376,7.17526 8.90089,4.97545 13.86986,4.54096 5.62963,-0.49226 11.99791,2.60399 13.60797,-3.16891 2.50066,-8.96618 -7.10574,-7.93813 -12.22627,-6.72513 -5.04069,1.19408 -11.83708,-4.38075 -15.28916,1.71943 -0.6144,1.08571 -0.18761,2.3942 0.0376,3.63365 z"
         style="fill:#e9c6af;stroke:#000000;stroke-width:2.35664034;stroke-linecap:butt;stroke-linejoin:miter;stroke-miterlimit:4;stroke-opacity:1;stroke-dasharray:none" />
      <path
         sodipodi:nodetypes="ccccsc"
         inkscape:connector-curvature="0"
         id="path4057-1-3-8-2-8-47"
         d="m 534.79163,223.66006 c -0.59064,0.27049 -1.0959,0.45531 -1.0883,1.20853 -0.005,0.71731 0.3195,1.50206 1.05833,1.72765 0.78323,0.44034 1.56627,-0.23349 1.91594,-0.9075 0.50579,-0.57716 0.47437,-1.12937 -0.19001,-1.87723 -0.32743,-0.36861 -1.16436,-0.42005 -1.69596,-0.15145 z"
         style="fill:#000000;fill-opacity:1;stroke:#000000;stroke-width:2.05121613;stroke-linecap:butt;stroke-linejoin:miter;stroke-miterlimit:4;stroke-opacity:1;stroke-dasharray:none" />
      <path
         sodipodi:nodetypes="csc"
         inkscape:connector-curvature="0"
         id="path4066-9-2-6-8-2-70"
         d="m 547.21449,223.73922 c -1.80654,0.51355 -1.91033,3.01092 0.39052,2.86663 1.67437,-0.10501 1.20599,-3.15557 -0.39052,-2.86663 z"
         style="fill:#000000;fill-opacity:1;stroke:#000000;stroke-width:2.08680105;stroke-linecap:butt;stroke-linejoin:miter;stroke-miterlimit:4;stroke-opacity:1;stroke-dasharray:none" />
    </g>
    <g
       id="g4324-3-10"
       transform="matrix(0.3347786,-0.0574067,0.0574067,0.3347786,-170.67262,973.87387)"
       style="fill:#ffffff;stroke-width:2.73781276;stroke-miterlimit:4;stroke-dasharray:none">
      <path
         sodipodi:nodetypes="ssssssssss"
         inkscape:connector-curvature="0"
         id="path3141-9-5-8-7-3-2"
         d="m 510.04744,224.89 c -3.74735,-1.19241 -4.83986,1.1286 -6.37613,2.73478 -3.90906,4.08693 -0.37491,8.29805 -0.99601,12.61639 -0.26317,1.82978 -3.88995,4.76589 -1.30332,5.81044 1.80561,0.72915 2.92765,-1.06789 3.46373,-2.91686 0.59811,-2.06291 1.86147,-2.56061 1.56432,-4.84136 -0.27186,-2.08659 0.41497,-4.90834 2.76563,-5.20127 2.8299,-0.35266 3.38861,-2.7561 2.73828,-5.23465 -0.55193,-2.10352 0.73316,-4.65773 -1.9353,-4.85512 -0.45896,-0.034 0.51566,2.02666 0.0788,1.88765 z"
         style="fill:#ffffff;fill-opacity:1;stroke:#000000;stroke-width:2.73781276;stroke-linecap:butt;stroke-linejoin:miter;stroke-miterlimit:4;stroke-opacity:1;stroke-dasharray:none" />
      <path
         sodipodi:nodetypes="ccccccccsc"
         inkscape:connector-curvature="0"
         id="path3141-9-4-5-3-9"
         d="m 509.36388,223.96832 c -3.41399,-1.95171 -4.79587,0.39712 -6.80627,1.34486 -4.47108,3.46312 -1.94766,8.09565 -3.60534,12.13124 -0.48595,1.78359 -4.79355,3.84269 -2.48647,5.41085 1.61863,1.08255 4.59404,1.25109 4.74252,-0.66825 1.63071,-1.39789 1.60836,-3.57813 1.79299,-5.87074 0.16971,-2.09737 1.42132,-4.45751 3.78958,-4.5101 2.80771,0.49946 4.24858,-2.03114 3.76978,-4.54846 0.2612,-2.15898 1.68844,-4.4024 -0.88017,-5.15198 -0.44179,-0.12892 0.0839,2.08564 -0.31662,1.86258 z"
         style="fill:#ffffff;fill-opacity:1;stroke:#000000;stroke-width:2.73781276;stroke-linecap:butt;stroke-linejoin:miter;stroke-miterlimit:4;stroke-opacity:1;stroke-dasharray:none" />
    </g>
    <path
       style="fill:#333333;stroke:#000000;stroke-width:0.93000001;stroke-miterlimit:4;stroke-opacity:1;stroke-dasharray:none"
       d="m 21.629645,1012.0918 c -5.22898,0.5457 -9.72442,4.4602 -8.87669,9.1224 0.78398,4.3114 0.61072,3.6456 2.4852,7.026 0.13356,1.45 0.6151,2.9343 0.77316,4.5823 0.53248,5.5516 4.66863,9.697 9.25198,9.2574 4.58337,-0.4396 8.18291,-4.628 7.52043,-10.1656 -0.22186,-1.8542 -0.41917,-3.4009 -0.63217,-4.9169 1.07719,-3.1806 0.90764,-6.0503 0.18584,-8.8967 -1.62531,-6.409 -6.48492,-6.45 -10.70775,-6.0089 z"
       id="path2985-6-6-0-8-7-5-9-4"
       inkscape:connector-curvature="0"
       sodipodi:nodetypes="sscssccss" />
    <path
       style="fill:#333333;stroke:#000000;stroke-width:0.93000001;stroke-linecap:round;stroke-linejoin:miter;stroke-miterlimit:4;stroke-opacity:1;stroke-dasharray:none"
       d="m 27.120775,1041.4022 c 1.19204,-0.4649 4.79513,0.3338 6.07775,0.5361 1.83333,0.2893 2.01568,-0.8172 2.19642,-2.1797 0.10872,-0.8169 0.49977,-2.4524 -0.99526,-2.7001 -1.37638,-0.2978 -1.16561,0.01 -2.40323,-0.7814"
       id="path4025-5-4-4-6-7-0-2-39"
       inkscape:connector-curvature="0"
       sodipodi:nodetypes="csscc" />
    <path
       style="fill:#ffffff;fill-opacity:1;stroke:#000000;stroke-width:0.92993885;stroke-linecap:butt;stroke-linejoin:miter;stroke-miterlimit:4;stroke-opacity:1;stroke-dasharray:none"
       d="m 12.355135,1018.9695 c 3.31639,-0.5311 6.48232,-1.7597 9.70608,-2.6805 2.44849,-0.8626 5.06864,-1.3935 7.35593,-2.6065 1.40949,-0.613 3.5656,1.7603 1.96173,2.7287 -1.51711,0.431 -3.02753,0.873 -4.51467,1.4205 -3.07584,1.1041 -6.30276,1.6176 -9.4749,2.3457 -1.67939,0.3529 -3.26117,1.1791 -4.97264,1.3202 -1.07912,-0.2994 -0.21465,-1.8657 -0.0615,-2.5281 z"
       id="path4358-8-7-7-5-16"
       inkscape:connector-curvature="0" />
    <g
       id="g4319-3-7"
       transform="matrix(0.38612773,-0.08147321,0.08147321,0.38612773,-200.65884,979.73994)"
       style="stroke-width:2.35648537;stroke-miterlimit:4;stroke-dasharray:none">
      <path
         sodipodi:nodetypes="ssssss"
         inkscape:connector-curvature="0"
         id="path4029-4-1-1-4"
         d="m 526.60758,225.66459 c 1.30376,7.17526 8.90089,4.97545 13.86986,4.54096 5.62963,-0.49226 11.99791,2.60399 13.60797,-3.16891 2.50066,-8.96618 -7.10574,-7.93813 -12.22627,-6.72513 -5.04069,1.19408 -11.83708,-4.38075 -15.28916,1.71943 -0.6144,1.08571 -0.18761,2.3942 0.0376,3.63365 z"
         style="fill:#e9c6af;stroke:#000000;stroke-width:2.35664034;stroke-linecap:butt;stroke-linejoin:miter;stroke-miterlimit:4;stroke-opacity:1;stroke-dasharray:none" />
      <path
         sodipodi:nodetypes="ccccsc"
         inkscape:connector-curvature="0"
         id="path4057-1-3-8-1"
         d="m 534.79163,223.66006 c -0.59064,0.27049 -1.0959,0.45531 -1.0883,1.20853 -0.005,0.71731 0.3195,1.50206 1.05833,1.72765 0.78323,0.44034 1.56627,-0.23349 1.91594,-0.9075 0.50579,-0.57716 0.47437,-1.12937 -0.19001,-1.87723 -0.32743,-0.36861 -1.16436,-0.42005 -1.69596,-0.15145 z"
         style="fill:#000000;fill-opacity:1;stroke:#000000;stroke-width:2.05121613;stroke-linecap:butt;stroke-linejoin:miter;stroke-miterlimit:4;stroke-opacity:1;stroke-dasharray:none" />
      <path
         sodipodi:nodetypes="csc"
         inkscape:connector-curvature="0"
         id="path4066-9-2-6-7"
         d="m 547.21449,223.73922 c -1.80654,0.51355 -1.91033,3.01092 0.39052,2.86663 1.67437,-0.10501 1.20599,-3.15557 -0.39052,-2.86663 z"
         style="fill:#000000;fill-opacity:1;stroke:#000000;stroke-width:2.08680105;stroke-linecap:butt;stroke-linejoin:miter;stroke-miterlimit:4;stroke-opacity:1;stroke-dasharray:none" />
    </g>
    <path
       style="fill:#333333;stroke:#000000;stroke-width:0.93000001;stroke-linecap:round;stroke-linejoin:miter;stroke-miterlimit:4;stroke-opacity:1;stroke-dasharray:none"
       d="m 29.019945,1033.8643 c 1.13655,-0.239 2.24636,-0.5892 3.38249,-0.8158 1.68937,-0.53 3.13057,-1.6357 4.36775,-2.8673 1.27452,-1.3213 -0.22129,-2.1477 -1.08586,-2.8694 -1.14074,-1.0536 -2.83262,0.2225 -4.03402,0.6895 -0.75799,0.097 -1.60784,0.7614 -2.32836,0.2193"
       id="path4051-8-1-8-8-3-8-0-1"
       inkscape:connector-curvature="0"
       sodipodi:nodetypes="cccccc" />
    <path
       style="fill:#333333;stroke:#000000;stroke-width:0.93000001;stroke-miterlimit:4;stroke-opacity:1;stroke-dasharray:none"
       d="m 121.62964,1012.0918 c -5.22898,0.5457 -9.72442,4.4602 -8.87669,9.1224 0.78398,4.3114 0.61072,3.6456 2.4852,7.026 0.13356,1.45 0.6151,2.9343 0.77316,4.5823 0.53248,5.5516 4.66863,9.697 9.25198,9.2574 4.58337,-0.4396 8.18291,-4.628 7.52043,-10.1656 -0.22186,-1.8542 -0.41917,-3.4009 -0.63217,-4.9169 1.07719,-3.1806 0.90764,-6.0503 0.18584,-8.8967 -1.62531,-6.409 -6.48492,-6.45 -10.70775,-6.0089 z"
       id="path2985-6-6-0-8-7-5-9-4-5"
       inkscape:connector-curvature="0"
       sodipodi:nodetypes="sscssccss" />
    <path
       style="fill:#333333;stroke:#000000;stroke-width:0.93000001;stroke-linecap:round;stroke-linejoin:miter;stroke-miterlimit:4;stroke-opacity:1;stroke-dasharray:none"
       d="m 127.12077,1041.4022 c 1.19204,-0.4649 4.79513,0.3338 6.07775,0.5361 1.83333,0.2892 2.01568,-0.8172 2.19642,-2.1797 0.10872,-0.817 0.49977,-2.4524 -0.99526,-2.7001 -1.37638,-0.2978 -1.16561,0.01 -2.40323,-0.7814"
       id="path4025-5-4-4-6-7-0-2-39-5"
       inkscape:connector-curvature="0"
       sodipodi:nodetypes="csscc" />
    <g
       id="g4324-3-10-6"
       transform="matrix(-0.31587606,0.12487816,0.12487816,0.31587606,263.79378,880.07271)"
       style="stroke-width:2.73781276;stroke-miterlimit:4;stroke-dasharray:none">
      <path
         sodipodi:nodetypes="ssssssssss"
         inkscape:connector-curvature="0"
         id="path3141-9-5-8-7-3-2-9"
         d="m 510.04744,224.89 c -3.74735,-1.19241 -4.83986,1.1286 -6.37613,2.73478 -3.90906,4.08693 -0.37491,8.29805 -0.99601,12.61639 -0.26317,1.82978 -3.88995,4.76589 -1.30332,5.81044 1.80561,0.72915 2.92765,-1.06789 3.46373,-2.91686 0.59811,-2.06291 1.86147,-2.56061 1.56432,-4.84136 -0.27186,-2.08659 0.41497,-4.90834 2.76563,-5.20127 2.8299,-0.35266 3.38861,-2.7561 2.73828,-5.23465 -0.55193,-2.10352 0.73316,-4.65773 -1.9353,-4.85512 -0.45896,-0.034 0.51566,2.02666 0.0788,1.88765 z"
         style="fill:#2c5aa0;fill-opacity:1;stroke:#000000;stroke-width:2.73781276;stroke-linecap:butt;stroke-linejoin:miter;stroke-miterlimit:4;stroke-opacity:1;stroke-dasharray:none" />
      <path
         sodipodi:nodetypes="ccccccccsc"
         inkscape:connector-curvature="0"
         id="path3141-9-4-5-3-9-0"
         d="m 509.36388,223.96832 c -3.41399,-1.95171 -4.79587,0.39712 -6.80627,1.34486 -4.47108,3.46312 -1.94766,8.09565 -3.60534,12.13124 -0.48595,1.78359 -4.79355,3.84269 -2.48647,5.41085 1.61863,1.08255 4.59404,1.25109 4.74252,-0.66825 1.63071,-1.39789 1.60836,-3.57813 1.79299,-5.87074 0.16971,-2.09737 1.42132,-4.45751 3.78958,-4.5101 2.80771,0.49946 4.24858,-2.03114 3.76978,-4.54846 0.2612,-2.15898 1.68844,-4.4024 -0.88017,-5.15198 -0.44179,-0.12892 0.0839,2.08564 -0.31662,1.86258 z"
         style="fill:#ffffff;fill-opacity:1;stroke:#000000;stroke-width:2.73781276;stroke-linecap:butt;stroke-linejoin:miter;stroke-miterlimit:4;stroke-opacity:1;stroke-dasharray:none" />
    </g>
    <path
       style="fill:#ffffff;fill-opacity:1;stroke:#000000;stroke-width:0.92993885;stroke-linecap:butt;stroke-linejoin:miter;stroke-miterlimit:4;stroke-opacity:1;stroke-dasharray:none"
       d="m 130.83464,1013.694 c -3.10961,1.2692 -6.45303,1.8642 -9.68596,2.7523 -2.54026,0.535 -5.05487,1.4427 -7.63944,1.5945 -1.52281,0.2085 -2.13208,3.3566 -0.25854,3.3508 1.52021,-0.42 3.04043,-0.827 4.59556,-1.1318 3.20176,-0.6546 6.22578,-1.8924 9.31449,-2.9183 1.6183,-0.571 3.39909,-0.6868 4.93476,-1.4554 0.7665,-0.8165 -0.78589,-1.7057 -1.26089,-2.1921 z"
       id="path4358-8-7-7-5-16-0"
       inkscape:connector-curvature="0" />
    <g
       id="g4319-3-7-1"
       transform="matrix(-0.37225468,0.13099224,0.13099224,0.37225468,293.43537,868.88736)"
       style="stroke-width:2.35648537;stroke-miterlimit:4;stroke-dasharray:none">
      <path
         sodipodi:nodetypes="ssssss"
         inkscape:connector-curvature="0"
         id="path4029-4-1-1-4-2"
         d="m 526.60758,225.66459 c 1.30376,7.17526 8.90089,4.97545 13.86986,4.54096 5.62963,-0.49226 11.99791,2.60399 13.60797,-3.16891 2.50066,-8.96618 -7.10574,-7.93813 -12.22627,-6.72513 -5.04069,1.19408 -11.83708,-4.38075 -15.28916,1.71943 -0.6144,1.08571 -0.18761,2.3942 0.0376,3.63365 z"
         style="fill:#e9c6af;stroke:#000000;stroke-width:2.35664034;stroke-linecap:butt;stroke-linejoin:miter;stroke-miterlimit:4;stroke-opacity:1;stroke-dasharray:none" />
      <path
         sodipodi:nodetypes="ccccsc"
         inkscape:connector-curvature="0"
         id="path4057-1-3-8-1-6"
         d="m 534.79163,223.66006 c -0.59064,0.27049 -1.0959,0.45531 -1.0883,1.20853 -0.005,0.71731 0.3195,1.50206 1.05833,1.72765 0.78323,0.44034 1.56627,-0.23349 1.91594,-0.9075 0.50579,-0.57716 0.47437,-1.12937 -0.19001,-1.87723 -0.32743,-0.36861 -1.16436,-0.42005 -1.69596,-0.15145 z"
         style="fill:#000000;fill-opacity:1;stroke:#000000;stroke-width:2.05121613;stroke-linecap:butt;stroke-linejoin:miter;stroke-miterlimit:4;stroke-opacity:1;stroke-dasharray:none" />
      <path
         sodipodi:nodetypes="csc"
         inkscape:connector-curvature="0"
         id="path4066-9-2-6-7-6"
         d="m 547.21449,223.73922 c -1.80654,0.51355 -1.91033,3.01092 0.39052,2.86663 1.67437,-0.10501 1.20599,-3.15557 -0.39052,-2.86663 z"
         style="fill:#000000;fill-opacity:1;stroke:#000000;stroke-width:2.08680105;stroke-linecap:butt;stroke-linejoin:miter;stroke-miterlimit:4;stroke-opacity:1;stroke-dasharray:none" />
    </g>
    <path
       style="fill:#333333;stroke:#000000;stroke-width:0.93000001;stroke-linecap:round;stroke-linejoin:miter;stroke-miterlimit:4;stroke-opacity:1;stroke-dasharray:none"
       d="m 129.01994,1033.8643 c 1.13655,-0.239 2.24636,-0.5892 3.38249,-0.8158 1.68937,-0.53 3.13057,-1.6357 4.36775,-2.8673 1.27452,-1.3213 -0.22129,-2.1477 -1.08586,-2.8694 -1.14074,-1.0536 -2.83262,0.2225 -4.03402,0.6895 -0.75799,0.097 -1.60784,0.7614 -2.32836,0.2193"
       id="path4051-8-1-8-8-3-8-0-1-8"
       inkscape:connector-curvature="0"
       sodipodi:nodetypes="cccccc" />
    <path
       style="fill:#333333;stroke:#000000;stroke-width:0.93000001;stroke-miterlimit:4;stroke-opacity:1;stroke-dasharray:none"
       d="m 71.629645,1012.0918 c -5.22898,0.5457 -9.72442,4.4602 -8.87669,9.1224 0.78398,4.3114 0.61072,3.6456 2.4852,7.026 0.13356,1.45 0.6151,2.9343 0.77316,4.5823 0.53248,5.5516 4.66863,9.697 9.25198,9.2574 4.58337,-0.4396 8.18291,-4.628 7.52043,-10.1656 -0.22186,-1.8542 -0.41917,-3.4009 -0.63217,-4.9169 1.07719,-3.1806 0.90764,-6.0503 0.18584,-8.8967 -1.62531,-6.409 -6.48492,-6.45 -10.70775,-6.0089 z"
       id="path2985-6-6-0-8-7-5-9-4-55"
       inkscape:connector-curvature="0"
       sodipodi:nodetypes="sscssccss" />
    <path
       style="fill:#333333;stroke:#000000;stroke-width:0.93000001;stroke-linecap:round;stroke-linejoin:miter;stroke-miterlimit:4;stroke-opacity:1;stroke-dasharray:none"
       d="m 77.120775,1041.4022 c 1.19204,-0.4649 4.79513,0.3338 6.07775,0.5361 1.83333,0.2893 2.01568,-0.8172 2.19642,-2.1797 0.10872,-0.8169 0.49977,-2.4524 -0.99526,-2.7001 -1.37638,-0.2978 -1.16561,0.01 -2.40323,-0.7814"
       id="path4025-5-4-4-6-7-0-2-39-2"
       inkscape:connector-curvature="0"
       sodipodi:nodetypes="csscc" />
    <path
       style="fill:#ffffff;fill-opacity:1;stroke:#000000;stroke-width:0.92993885;stroke-linecap:butt;stroke-linejoin:miter;stroke-miterlimit:4;stroke-opacity:1;stroke-dasharray:none"
       d="m 62.355135,1018.9695 c 3.31639,-0.5311 6.48232,-1.7597 9.70608,-2.6805 2.44849,-0.8626 5.06864,-1.3935 7.35593,-2.6065 1.40949,-0.613 3.5656,1.7603 1.96173,2.7287 -1.51711,0.431 -3.02753,0.873 -4.51467,1.4205 -3.07584,1.1041 -6.30276,1.6176 -9.4749,2.3457 -1.67939,0.3529 -3.26117,1.1791 -4.97264,1.3202 -1.07912,-0.2994 -0.21465,-1.8657 -0.0615,-2.5281 z"
       id="path4358-8-7-7-5-16-2"
       inkscape:connector-curvature="0" />
    <g
       id="g4319-3-7-6"
       transform="matrix(0.38612773,-0.08147321,0.08147321,0.38612773,-153.66404,980.27027)"
       style="stroke-width:2.35648537;stroke-miterlimit:4;stroke-dasharray:none">
      <path
         sodipodi:nodetypes="ssssss"
         inkscape:connector-curvature="0"
         id="path4029-4-1-1-4-4"
         d="m 526.60758,225.66459 c 1.30376,7.17526 8.90089,4.97545 13.86986,4.54096 5.62963,-0.49226 11.99791,2.60399 13.60797,-3.16891 2.50066,-8.96618 -7.10574,-7.93813 -12.22627,-6.72513 -5.04069,1.19408 -11.83708,-4.38075 -15.28916,1.71943 -0.6144,1.08571 -0.18761,2.3942 0.0376,3.63365 z"
         style="fill:#e9c6af;stroke:#000000;stroke-width:2.35664034;stroke-linecap:butt;stroke-linejoin:miter;stroke-miterlimit:4;stroke-opacity:1;stroke-dasharray:none" />
      <path
         sodipodi:nodetypes="ccccsc"
         inkscape:connector-curvature="0"
         id="path4057-1-3-8-1-0"
         d="m 534.79163,223.66006 c -0.59064,0.27049 -1.0959,0.45531 -1.0883,1.20853 -0.005,0.71731 0.3195,1.50206 1.05833,1.72765 0.78323,0.44034 1.56627,-0.23349 1.91594,-0.9075 0.50579,-0.57716 0.47437,-1.12937 -0.19001,-1.87723 -0.32743,-0.36861 -1.16436,-0.42005 -1.69596,-0.15145 z"
         style="fill:#000000;fill-opacity:1;stroke:#000000;stroke-width:2.05121613;stroke-linecap:butt;stroke-linejoin:miter;stroke-miterlimit:4;stroke-opacity:1;stroke-dasharray:none" />
      <path
         sodipodi:nodetypes="csc"
         inkscape:connector-curvature="0"
         id="path4066-9-2-6-7-0"
         d="m 547.21449,223.73922 c -1.80654,0.51355 -1.91033,3.01092 0.39052,2.86663 1.67437,-0.10501 1.20599,-3.15557 -0.39052,-2.86663 z"
         style="fill:#000000;fill-opacity:1;stroke:#000000;stroke-width:2.08680105;stroke-linecap:butt;stroke-linejoin:miter;stroke-miterlimit:4;stroke-opacity:1;stroke-dasharray:none" />
    </g>
    <path
       style="fill:#333333;stroke:#000000;stroke-width:0.93000001;stroke-linecap:round;stroke-linejoin:miter;stroke-miterlimit:4;stroke-opacity:1;stroke-dasharray:none"
       d="m 79.019945,1033.8643 c 1.13655,-0.239 2.24636,-0.5892 3.38249,-0.8158 1.68937,-0.53 3.13057,-1.6357 4.36775,-2.8673 1.27452,-1.3213 -0.22129,-2.1477 -1.08586,-2.8694 -1.14074,-1.0536 -2.83262,0.2225 -4.03402,0.6895 -0.75799,0.097 -1.60784,0.7614 -2.32836,0.2193"
       id="path4051-8-1-8-8-3-8-0-1-1"
       inkscape:connector-curvature="0"
       sodipodi:nodetypes="cccccc" />
    <path
       style="fill:#333333;stroke:#000000;stroke-width:0.93000001;stroke-linecap:round;stroke-linejoin:miter;stroke-miterlimit:4;stroke-opacity:1;stroke-dasharray:none"
       d="m 168.48922,926.47886 c -1.456,1.23459 -3.36765,1.62246 -5.00141,2.52321 -2.08184,1.02415 -0.40563,3.33824 1.25638,3.64345 1.71136,0.6113 3.26031,-0.56661 4.6524,-1.38504 0.30478,-0.14418 0.63098,-0.2482 0.96738,-0.28307"
       id="path4336-7-3-6"
       inkscape:connector-curvature="0" />
    <path
       style="fill:#333333;stroke:#000000;stroke-width:0.93000001;stroke-linecap:butt;stroke-linejoin:miter;stroke-miterlimit:4;stroke-opacity:1;stroke-dasharray:none"
       d="m 167.09536,933.24237 c -0.77893,1.11788 -3.098,4.37831 -3.95818,5.91753 -0.52042,0.71104 0.86102,1.8836 1.83696,2.39998 0.70746,0.37422 1.44059,1.1236 2.17211,0.20201 0.83718,-1.13225 0.62403,-1.71821 1.85429,-2.52109"
       id="path4025-7-2-5-8-9-4-7-8-1-2"
       inkscape:connector-curvature="0"
       sodipodi:nodetypes="ccscc" />
    <g
       id="g5697"
       transform="matrix(0.96703136,0.25465733,-0.25465733,0.96703136,254.19695,-61.908403)">
      <g
         style="stroke-width:2.73781276;stroke-miterlimit:4;stroke-dasharray:none"
         transform="matrix(0.33966489,0,0,0.33966489,-7.6905101,890.48407)"
         id="g4324-3-2-1">
        <path
           style="fill:#ffffff;fill-opacity:1;stroke:#000000;stroke-width:2.73781276;stroke-linecap:butt;stroke-linejoin:miter;stroke-miterlimit:4;stroke-opacity:1;stroke-dasharray:none"
           d="m 510.04744,224.89 c -3.74735,-1.19241 -4.83986,1.1286 -6.37613,2.73478 -3.90906,4.08693 -0.37491,8.29805 -0.99601,12.61639 -0.26317,1.82978 -3.88995,4.76589 -1.30332,5.81044 1.80561,0.72915 2.92765,-1.06789 3.46373,-2.91686 0.59811,-2.06291 1.86147,-2.56061 1.56432,-4.84136 -0.27186,-2.08659 0.41497,-4.90834 2.76563,-5.20127 2.8299,-0.35266 3.38861,-2.7561 2.73828,-5.23465 -0.55193,-2.10352 0.73316,-4.65773 -1.9353,-4.85512 -0.45896,-0.034 0.51566,2.02666 0.0788,1.88765 z"
           id="path3141-9-5-8-7-3-0-8"
           inkscape:connector-curvature="0"
           sodipodi:nodetypes="ssssssssss" />
        <path
           style="fill:#ffffff;fill-opacity:1;stroke:#000000;stroke-width:2.73781276;stroke-linecap:butt;stroke-linejoin:miter;stroke-miterlimit:4;stroke-opacity:1;stroke-dasharray:none"
           d="m 509.36388,223.96832 c -3.41399,-1.95171 -4.79587,0.39712 -6.80627,1.34486 -4.47108,3.46312 -1.94766,8.09565 -3.60534,12.13124 -0.48595,1.78359 -4.79355,3.84269 -2.48647,5.41085 1.61863,1.08255 4.59404,1.25109 4.74252,-0.66825 1.63071,-1.39789 1.60836,-3.57813 1.79299,-5.87074 0.16971,-2.09737 1.42132,-4.45751 3.78958,-4.5101 2.80771,0.49946 4.24858,-2.03114 3.76978,-4.54846 0.2612,-2.15898 1.68844,-4.4024 -0.88017,-5.15198 -0.44179,-0.12892 0.0839,2.08564 -0.31662,1.86258 z"
           id="path3141-9-4-5-3-8-9"
           inkscape:connector-curvature="0"
           sodipodi:nodetypes="ccccccccsc" />
      </g>
      <path
         sodipodi:nodetypes="sscssccss"
         inkscape:connector-curvature="0"
         id="path2985-6-6-0-8-7-5-9-7-8"
         d="m 174.5152,960.6158 c -5.2572,0.044 -10.10586,3.5115 -9.70712,8.2332 0.36876,4.3666 0.25985,3.6874 1.80303,7.2312 -0.005,1.4562 0.33213,2.9797 0.33213,4.6352 0,5.5771 3.72146,10.0985 8.32585,10.0985 4.6044,0 8.58738,-3.8255 8.45664,-9.4011 -0.0438,-1.867 -0.0925,-3.4254 -0.15984,-4.9548 1.37596,-3.0633 1.48117,-5.9361 1.03442,-8.8383 -1.00598,-6.5349 -5.83948,-7.0397 -10.08511,-7.0039 z"
         style="fill:#333333;stroke:#000000;stroke-width:0.93000001;stroke-miterlimit:4;stroke-opacity:1;stroke-dasharray:none" />
      <path
         inkscape:connector-curvature="0"
         id="path4358-8-7-7-5-8-5"
         d="m 164.81883,966.3572 c 3.35845,0.037 6.68647,-0.6388 10.01948,-1.0015 2.55906,-0.4364 5.23124,-0.5168 7.69064,-1.3258 1.49282,-0.366 3.2168,2.3376 1.47233,3.021 -1.56813,0.1684 -3.13153,0.3488 -4.6898,0.637 -3.2182,0.5684 -6.48547,0.5291 -9.73503,0.7106 -1.71489,0.064 -3.41354,0.611 -5.12424,0.4608 -1.01301,-0.4774 0.10375,-1.8751 0.36662,-2.5021 z"
         style="fill:#ffffff;fill-opacity:1;stroke:#000000;stroke-width:0.92993885;stroke-linecap:butt;stroke-linejoin:miter;stroke-miterlimit:4;stroke-opacity:1;stroke-dasharray:none" />
      <g
         style="stroke-width:2.35648537;stroke-miterlimit:4;stroke-dasharray:none"
         transform="matrix(0.39462959,0,0,0.39462959,-35.24884,882.87187)"
         id="g4319-3-9-3">
        <path
           style="fill:#e9c6af;stroke:#000000;stroke-width:2.35664034;stroke-linecap:butt;stroke-linejoin:miter;stroke-miterlimit:4;stroke-opacity:1;stroke-dasharray:none"
           d="m 526.60758,225.66459 c 1.30376,7.17526 8.90089,4.97545 13.86986,4.54096 5.62963,-0.49226 11.99791,2.60399 13.60797,-3.16891 2.50066,-8.96618 -7.10574,-7.93813 -12.22627,-6.72513 -5.04069,1.19408 -11.83708,-4.38075 -15.28916,1.71943 -0.6144,1.08571 -0.18761,2.3942 0.0376,3.63365 z"
           id="path4029-4-1-1-0-2"
           inkscape:connector-curvature="0"
           sodipodi:nodetypes="ssssss" />
        <path
           style="fill:#000000;fill-opacity:1;stroke:#000000;stroke-width:2.05121613;stroke-linecap:butt;stroke-linejoin:miter;stroke-miterlimit:4;stroke-opacity:1;stroke-dasharray:none"
           d="m 534.79163,223.66006 c -0.59064,0.27049 -1.0959,0.45531 -1.0883,1.20853 -0.005,0.71731 0.3195,1.50206 1.05833,1.72765 0.78323,0.44034 1.56627,-0.23349 1.91594,-0.9075 0.50579,-0.57716 0.47437,-1.12937 -0.19001,-1.87723 -0.32743,-0.36861 -1.16436,-0.42005 -1.69596,-0.15145 z"
           id="path4057-1-3-8-2-20"
           inkscape:connector-curvature="0"
           sodipodi:nodetypes="ccccsc" />
        <path
           style="fill:#000000;fill-opacity:1;stroke:#000000;stroke-width:2.08680105;stroke-linecap:butt;stroke-linejoin:miter;stroke-miterlimit:4;stroke-opacity:1;stroke-dasharray:none"
           d="m 547.21449,223.73922 c -1.80654,0.51355 -1.91033,3.01092 0.39052,2.86663 1.67437,-0.10501 1.20599,-3.15557 -0.39052,-2.86663 z"
           id="path4066-9-2-6-8-39"
           inkscape:connector-curvature="0"
           sodipodi:nodetypes="csc" />
      </g>
    </g>
    <path
       style="fill:#333333;stroke:#000000;stroke-width:0.93000001;stroke-linecap:round;stroke-linejoin:miter;stroke-miterlimit:4;stroke-opacity:1;stroke-dasharray:none"
       d="m 179.48062,936.8112 c -1.01619,0.77751 -2.20407,4.27153 -2.69701,5.47283 -0.70497,1.71692 -1.74495,1.29852 -3.00324,0.7456 -0.75472,-0.33115 -2.35553,-0.84599 -1.79125,-2.2522 0.46006,-1.33096 0.61382,-0.991 0.57986,-2.45968"
       id="path4025-5-4-4-6-7-0-2-3-28"
       inkscape:connector-curvature="0"
       sodipodi:nodetypes="csscc" />
    <path
       style="fill:#333333;stroke:#000000;stroke-width:0.93000001;stroke-linecap:round;stroke-linejoin:miter;stroke-miterlimit:4;stroke-opacity:1;stroke-dasharray:none"
       d="m 178.81029,928.40293 c -1.0792,0.42914 -2.11312,0.96331 -3.19405,1.38019 -1.57438,0.81005 -2.80612,2.14518 -3.81539,3.56955 -1.03076,1.51908 0.58397,2.07856 1.55884,2.64242 1.30357,0.8438 2.75332,-0.70186 3.85758,-1.36677 0.73035,-0.22491 1.45461,-1.02411 2.25695,-0.61271"
       id="path4051-8-1-8-8-3-8-0-3-72"
       inkscape:connector-curvature="0"
       sodipodi:nodetypes="cccccc" />
  </g>
</svg>
