<?xml version="1.0" encoding="UTF-8" standalone="no"?>
<!-- Created with Inkscape (http://www.inkscape.org/) -->

<svg
   xmlns:dc="http://purl.org/dc/elements/1.1/"
   xmlns:cc="http://creativecommons.org/ns#"
   xmlns:rdf="http://www.w3.org/1999/02/22-rdf-syntax-ns#"
   xmlns:svg="http://www.w3.org/2000/svg"
   xmlns="http://www.w3.org/2000/svg"
   xmlns:sodipodi="http://sodipodi.sourceforge.net/DTD/sodipodi-0.dtd"
   xmlns:inkscape="http://www.inkscape.org/namespaces/inkscape"
   width="80"
   height="20"
   id="svg2"
   version="1.1"
   inkscape:version="0.48.2 r9819"
   sodipodi:docname="poff.svg"
   inkscape:export-filename="/home/micha/Programmieren/git/platformer/images/poff.png"
   inkscape:export-xdpi="90"
   inkscape:export-ydpi="90">
  <sodipodi:namedview
     id="base"
     pagecolor="#ffffff"
     bordercolor="#666666"
     borderopacity="1.0"
     inkscape:pageopacity="0.0"
     inkscape:pageshadow="2"
     inkscape:zoom="4"
     inkscape:cx="84.562175"
     inkscape:cy="11.915907"
     inkscape:document-units="px"
     inkscape:current-layer="layer1"
     showgrid="true"
     inkscape:showpageshadow="true"
     inkscape:window-width="1280"
     inkscape:window-height="750"
     inkscape:window-x="0"
     inkscape:window-y="25"
     inkscape:window-maximized="1">
    <inkscape:grid
       type="xygrid"
       id="grid2985"
       empspacing="5"
       visible="true"
       enabled="true"
       snapvisiblegridlinesonly="true"
       spacingx="10px"
       spacingy="10px"
       originx="0px"
       originy="0px" />
  </sodipodi:namedview>
  <defs
     id="defs4" />
  <metadata
     id="metadata7">
    <rdf:RDF>
      <cc:Work
         rdf:about="">
        <dc:format>image/svg+xml</dc:format>
        <dc:type
           rdf:resource="http://purl.org/dc/dcmitype/StillImage" />
        <dc:title></dc:title>
      </cc:Work>
    </rdf:RDF>
  </metadata>
  <g
     inkscape:label="Ebene 1"
     inkscape:groupmode="layer"
     id="layer1"
     transform="translate(0,-1032.3622)">
    <path
       style="fill:#e3dbdb;stroke:#000000;stroke-width:2;stroke-linecap:butt;stroke-linejoin:miter;stroke-miterlimit:4;stroke-opacity:1;stroke-dasharray:none"
       d="m 9.6678325,1041.1667 c -3.3858555,0.5726 2.0440655,4.604 1.7693955,0.8111 -0.05363,-0.7406 -1.147284,-0.9163 -1.7693955,-0.8111 z"
       id="path3016"
       inkscape:connector-curvature="0"
       sodipodi:nodetypes="sss" />
    <g
       id="g3907"
       transform="translate(-1.7895247,29.8661)">
      <path
         sodipodi:nodetypes="cccc"
         inkscape:connector-curvature="0"
         id="path3828"
         d="m 69.851029,1015.5926 c 0.673929,2.2846 3.945713,2.7006 5.278974,0.7821 1.366921,-1.9877 -1.224347,-2.6354 -2.62912,-1.7365 -0.622933,0.2984 -3.012398,-0.185 -2.649854,0.9544 z"
         style="fill:#e3dbdb;stroke:#000000;stroke-width:2;stroke-linecap:butt;stroke-linejoin:miter;stroke-miterlimit:4;stroke-opacity:1;stroke-dasharray:none" />
      <path
         sodipodi:nodetypes="ccccc"
         inkscape:connector-curvature="0"
         id="path3830"
         d="m 75.773048,1012.5874 c 1.588549,1.1653 3.079403,-0.9713 2.359218,-2.4581 0.04272,-1.7303 -1.600304,-3.4372 -3.334507,-2.4265 -1.87007,0.411 -1.027429,1.8269 0.07447,2.5279 0.504457,0.689 0.741708,1.5292 0.900819,2.3567 z"
         style="fill:#e3dbdb;stroke:#000000;stroke-width:2;stroke-linecap:butt;stroke-linejoin:miter;stroke-miterlimit:4;stroke-opacity:1;stroke-dasharray:none" />
      <path
         sodipodi:nodetypes="ccsc"
         inkscape:connector-curvature="0"
         id="path3832"
         d="m 70.363434,1008.0635 c -1.0302,0.8915 -2.432994,4.1241 -2.716083,5.8777 -1.852004,-0.5998 -2.692862,-3.0762 -2.286599,-4.8621 0.490086,-2.1543 3.457437,-1.5987 5.002682,-1.0156 z"
         style="fill:#e3dbdb;stroke:#000000;stroke-width:2;stroke-linecap:butt;stroke-linejoin:miter;stroke-miterlimit:4;stroke-opacity:1;stroke-dasharray:none" />
    </g>
    <path
       style="fill:#e3dbdb;stroke:#000000;stroke-width:2;stroke-linecap:butt;stroke-linejoin:miter;stroke-miterlimit:4;stroke-opacity:1;stroke-dasharray:none"
       d="m 47.955613,1044.0674 c -0.754125,2.1092 2.274356,3.7713 4.013772,3.381 1.327851,-1.2977 3.133793,-2.5905 1.342746,-4.2364 2.576666,0.8908 3.529401,-2.1179 2.806741,-4.1303 -1.541101,-2.0986 -3.924817,0.2266 -5.810389,-0.097 -1.907268,-0.8113 -4.878337,-3.0433 -6.393623,-0.7805 -0.797712,2.3018 0.20358,5.4016 2.757916,6.0103 0.434158,0.085 0.87399,2e-4 1.282837,-0.147 z"
       id="path3020-6"
       inkscape:connector-curvature="0"
       sodipodi:nodetypes="ccccccccc" />
    <path
       style="fill:#e3dbdb;stroke:#000000;stroke-width:2;stroke-linecap:butt;stroke-linejoin:miter;stroke-miterlimit:4;stroke-opacity:1;stroke-dasharray:none"
       d="m 27.51767,1043.0752 c -1.021492,2.3577 3.192713,4.4849 3.973072,1.3812 1.258895,0.2929 4.069967,-0.3302 3.077259,-3.0292 -0.840628,-1.6141 -2.504311,-1.9234 -4.213324,-1.1056 -1.43068,-1.2609 -4.206925,-2.6843 -5.068518,-0.3769 -0.302763,1.4938 0.505156,3.211 2.231511,3.1303 z"
       id="path3018"
       inkscape:connector-curvature="0"
       sodipodi:nodetypes="ccccccc" />
  </g>
</svg>
