<?xml version="1.0" encoding="UTF-8" standalone="no"?>
<!-- Created with Inkscape (http://www.inkscape.org/) -->

<svg
   xmlns:dc="http://purl.org/dc/elements/1.1/"
   xmlns:cc="http://creativecommons.org/ns#"
   xmlns:rdf="http://www.w3.org/1999/02/22-rdf-syntax-ns#"
   xmlns:svg="http://www.w3.org/2000/svg"
   xmlns="http://www.w3.org/2000/svg"
   xmlns:sodipodi="http://sodipodi.sourceforge.net/DTD/sodipodi-0.dtd"
   xmlns:inkscape="http://www.inkscape.org/namespaces/inkscape"
   width="50"
   height="50"
   id="svg2"
   version="1.1"
   inkscape:version="0.48.2 r9819"
   sodipodi:docname="spikey.svg"
   inkscape:export-filename="/home/micha/Programmieren/git/platformer/images/bouncer.png"
   inkscape:export-xdpi="90"
   inkscape:export-ydpi="90">
  <sodipodi:namedview
     id="base"
     pagecolor="#ffffff"
     bordercolor="#666666"
     borderopacity="1.0"
     inkscape:pageopacity="0.0"
     inkscape:pageshadow="2"
     inkscape:zoom="0.99999999"
     inkscape:cx="120.02201"
     inkscape:cy="270.90925"
     inkscape:document-units="px"
     inkscape:current-layer="layer1"
     showgrid="false"
     inkscape:showpageshadow="true"
     inkscape:window-width="1280"
     inkscape:window-height="750"
     inkscape:window-x="0"
     inkscape:window-y="25"
     inkscape:window-maximized="1">
    <inkscape:grid
       originy="0px"
       originx="0px"
       spacingy="10px"
       spacingx="10px"
       snapvisiblegridlinesonly="true"
       enabled="true"
       visible="true"
       empspacing="5"
       id="grid2985"
       type="xygrid" />
  </sodipodi:namedview>
  <defs
     id="defs4" />
  <metadata
     id="metadata7">
    <rdf:RDF>
      <cc:Work
         rdf:about="">
        <dc:format>image/svg+xml</dc:format>
        <dc:type
           rdf:resource="http://purl.org/dc/dcmitype/StillImage" />
        <dc:title />
      </cc:Work>
    </rdf:RDF>
  </metadata>
  <g
     transform="translate(0,-1002.3622)"
     id="layer1"
     inkscape:groupmode="layer"
     inkscape:label="Ebene 1">
    <path
       sodipodi:nodetypes="ssscssscssscssscs"
       inkscape:connector-curvature="0"
       id="rect3868"
       d="m 15.00912,1007.0717 c 3.448007,-0.1186 6.905317,-0.1881 10.350139,0 3.083836,0.1699 6.124828,0.8648 9.209617,1.0164 3.31245,0.1628 9.948664,-0.1164 9.948664,-0.1164 0,0 0.445874,6.9766 0.561843,10.4695 0.110696,3.3341 0.04559,6.672 0.12774,10.0069 0.07138,2.8979 0.288046,5.7919 0.317276,8.6905 0.03339,3.3116 -0.162178,9.9339 -0.162178,9.9339 0,0 -6.771095,-0.1284 -10.15421,-0.023 -3.581342,0.1112 -7.145114,0.5972 -10.726941,0.6915 -2.868732,0.075 -5.74018,-0.014 -8.608587,-0.101 -3.656646,-0.1109 -10.9618548,-0.5367 -10.9618548,-0.5367 0,0 -0.2133491,-6.658 -0.042491,-9.9805 0.1621282,-3.1527 0.4870845,-6.2158 0.4370605,-9.3723 -0.053367,-3.3674 -0.7068618,-6.6848 -0.8224445,-10.0507 -0.1141156,-3.3231 0.6540766,-9.8728 0.6540766,-9.8728 0,0 6.5904002,-0.6424 9.8722902,-0.7553 z"
       style="fill:#ff0000;fill-opacity:1;stroke:#000000;stroke-width:2;stroke-miterlimit:4" />
  </g>
</svg>
