<?xml version="1.0" encoding="UTF-8" standalone="no"?>
<!-- Created with Inkscape (http://www.inkscape.org/) -->

<svg
   xmlns:dc="http://purl.org/dc/elements/1.1/"
   xmlns:cc="http://creativecommons.org/ns#"
   xmlns:rdf="http://www.w3.org/1999/02/22-rdf-syntax-ns#"
   xmlns:svg="http://www.w3.org/2000/svg"
   xmlns="http://www.w3.org/2000/svg"
   xmlns:sodipodi="http://sodipodi.sourceforge.net/DTD/sodipodi-0.dtd"
   xmlns:inkscape="http://www.inkscape.org/namespaces/inkscape"
   sodipodi:docname="tiles3.svg"
   inkscape:version="0.48.2 r9819"
   version="1.1"
   id="svg2"
   height="297mm"
   width="210mm">
  <sodipodi:namedview
     id="base"
     pagecolor="#ffffff"
     bordercolor="#666666"
     borderopacity="1.0"
     inkscape:pageopacity="0.0"
     inkscape:pageshadow="2"
     inkscape:zoom="2.8"
     inkscape:cx="382.88987"
     inkscape:cy="747.46064"
     inkscape:document-units="px"
     inkscape:current-layer="layer1"
     showgrid="true"
     inkscape:window-width="1280"
     inkscape:window-height="750"
     inkscape:window-x="0"
     inkscape:window-y="25"
     inkscape:window-maximized="1">
    <inkscape:grid
       spacingy="20px"
       spacingx="20px"
       snapvisiblegridlinesonly="true"
       enabled="true"
       visible="true"
       empspacing="5"
       id="grid3044"
       type="xygrid" />
  </sodipodi:namedview>
  <defs
     id="defs4" />
  <metadata
     id="metadata7">
    <rdf:RDF>
      <cc:Work
         rdf:about="">
        <dc:format>image/svg+xml</dc:format>
        <dc:type
           rdf:resource="http://purl.org/dc/dcmitype/StillImage" />
      </cc:Work>
    </rdf:RDF>
  </metadata>
  <g
     id="layer1"
     inkscape:groupmode="layer"
     inkscape:label="Ebene 1">
    <rect
       style="fill:#ffffff;fill-opacity:1;stroke:none;stroke-width:1;stroke-linecap:square;stroke-linejoin:miter;stroke-miterlimit:4;stroke-opacity:1;stroke-dasharray:none;stroke-dashoffset:0"
       id="rect3788"
       width="100"
       height="100"
       x="280"
       y="232.36218" />
    <path
       style="fill:#ac9d93;fill-opacity:1;stroke:#000000;stroke-width:1;stroke-miterlimit:4;stroke-opacity:1"
       d="m 300,252.36218 c 0,0 2.55945,0.0625 6.94217,0.11843 1.62917,0.0507 3.61116,0.40147 6.22773,0.13306 2.15654,-0.29177 4.89484,-0.0409 7.12225,-0.32069 2.26924,0.28006 4.24483,-0.0467 6.62928,0.22878 2.51167,-0.0396 4.66295,-0.30468 6.59277,-0.4 1.96613,-0.023 4.53003,0.18349 6.66427,0.48226 2.32726,0.29988 4.22729,-0.70087 6.2406,-0.40998 2.53247,-0.29572 4.96097,0.26687 6.61567,0.13567 4.02337,-0.2929 6.77696,0.26601 6.77696,0.26601 0,0 0.0203,1.88766 -0.06,6.26469 -0.0731,1.6339 0.25473,4.37914 0.54286,6.77814 0.19946,1.86267 -0.24608,4.42801 -0.45975,6.97427 0.15002,2.42148 0.21208,4.33643 0.46436,6.43965 0.29979,2.20313 -0.21978,4.75378 -0.0171,6.74683 -0.008,1.96535 -0.46072,4.29488 -0.51641,6.75103 -0.0179,2.63507 -0.17652,3.95642 0.0392,6.25159 0.2761,2.36462 0.12179,4.80308 0.41996,6.69451 -0.28449,3.99307 -0.13837,6.57845 -0.13837,6.57845 0,0 -2.66653,0.27617 -7.05049,0.3252 -1.66926,-0.15707 -3.31398,-0.10064 -6.09203,-0.1524 -2.12701,-0.29729 -5.12132,0.0489 -7.21983,0.23268 -2.25917,0.28372 -3.70634,0.17514 -6.09197,-0.0998 -2.47942,0.14038 -4.35352,-0.46641 -6.77036,-0.24514 -2.39665,0.2697 -4.70199,0.19323 -7.16245,0.21647 -2.03737,-0.0325 -4.23021,0.40636 -6.56403,0.23629 -2.56874,-0.28717 -4.49236,-0.144 -6.69349,-0.0279 -4.07983,-0.29988 -6.70237,-0.0496 -6.70237,-0.0496 0,0 0.37157,-2.60044 0.53272,-6.94148 -0.27808,-2.03741 -0.52915,-4.58781 -0.45217,-6.78041 0.22182,-2.28875 -0.25477,-4.25649 -0.10464,-6.33243 -0.16256,-1.90955 0.31385,-4.50256 0.23364,-7.05721 -0.26343,-2.35784 0.10625,-4.21071 0.28534,-6.1843 0.12565,-2.53767 -0.52485,-4.71214 -0.36165,-7.12523 -0.1843,-2.57233 -0.0508,-4.40087 -0.092,-6.1904 -0.19166,-2.25117 0.69619,-4.76494 0.51384,-6.92765 C 300.18138,255.16121 300,252.36218 300,252.36218"
       id="rect2993"
       inkscape:connector-curvature="0"
       sodipodi:nodetypes="ccccccccccccccccccccccccccccccccccccc" />
  </g>
</svg>
