<?xml version="1.0" encoding="UTF-8" standalone="no"?>
<!-- Created with Inkscape (http://www.inkscape.org/) -->

<svg
   xmlns:dc="http://purl.org/dc/elements/1.1/"
   xmlns:cc="http://creativecommons.org/ns#"
   xmlns:rdf="http://www.w3.org/1999/02/22-rdf-syntax-ns#"
   xmlns:svg="http://www.w3.org/2000/svg"
   xmlns="http://www.w3.org/2000/svg"
   xmlns:sodipodi="http://sodipodi.sourceforge.net/DTD/sodipodi-0.dtd"
   xmlns:inkscape="http://www.inkscape.org/namespaces/inkscape"
   inkscape:export-ydpi="90"
   inkscape:export-xdpi="90"
   inkscape:export-filename="/home/micha/Programmieren/git/platformer/images/shuriken.png"
   sodipodi:docname="launcherSon.svg"
   inkscape:version="0.48.4 r9939"
   version="1.1"
   id="svg2"
   height="50"
   width="50">
  <sodipodi:namedview
     id="base"
     pagecolor="#ffffff"
     bordercolor="#666666"
     borderopacity="1.0"
     inkscape:pageopacity="0.0"
     inkscape:pageshadow="2"
     inkscape:zoom="8"
     inkscape:cx="2.8806971"
     inkscape:cy="31.330987"
     inkscape:document-units="px"
     inkscape:current-layer="layer1"
     showgrid="true"
     inkscape:showpageshadow="true"
     inkscape:window-width="1920"
     inkscape:window-height="1021"
     inkscape:window-x="0"
     inkscape:window-y="27"
     inkscape:window-maximized="1"
     inkscape:snap-global="false">
    <inkscape:grid
       originy="0px"
       originx="0px"
       spacingy="10px"
       spacingx="10px"
       snapvisiblegridlinesonly="true"
       enabled="true"
       visible="true"
       empspacing="5"
       id="grid2985"
       type="xygrid" />
  </sodipodi:namedview>
  <defs
     id="defs4" />
  <metadata
     id="metadata7">
    <rdf:RDF>
      <cc:Work
         rdf:about="">
        <dc:format>image/svg+xml</dc:format>
        <dc:type
           rdf:resource="http://purl.org/dc/dcmitype/StillImage" />
        <dc:title></dc:title>
      </cc:Work>
    </rdf:RDF>
  </metadata>
  <g
     transform="translate(0,-1002.3622)"
     id="layer1"
     inkscape:groupmode="layer"
     inkscape:label="Ebene 1">
    <path
       style="fill:#ff0000;stroke:#000000;stroke-width:2;stroke-linecap:butt;stroke-linejoin:miter;stroke-miterlimit:4;stroke-opacity:1;stroke-dasharray:none;fill-opacity:1"
       d="M 12,7.75 40,40 l 0,0 c 0.507379,1.989992 -4.497225,2.290339 -6.125,3 L 8.25,14.25 c 0,0 0.6363776,-7.10983 3.75,-6.5 z"
       id="path5803"
       inkscape:connector-curvature="0"
       transform="translate(0,1002.3622)"
       sodipodi:nodetypes="cccccc" />
    <path
       style="fill:#ff0000;stroke:#000000;stroke-width:2;stroke-linecap:butt;stroke-linejoin:miter;stroke-miterlimit:4;stroke-opacity:1;stroke-dasharray:none;fill-opacity:1"
       d="m 38.375,1013.0497 -22.25,31.875 c -1.791667,1.125 -5.208333,-4.125 -4.75,-5.875 l 24.125,-28.625 c 0,0 1.875,-0.625 2.875,2.625 z"
       id="path5803-8"
       inkscape:connector-curvature="0"
       sodipodi:nodetypes="ccccc" />
    <path
       style="fill:#800000;fill-opacity:1;stroke:#000000;stroke-width:0.25;stroke-linejoin:round;stroke-miterlimit:4;stroke-opacity:1;stroke-dasharray:none"
       d="m 14.587015,19.762952 c -2.67785,-3.000834 -4.9511087,-5.586603 -5.0516864,-5.746154 -0.163244,-0.258961 -0.1532436,-0.42061 0.093187,-1.506307 0.1518308,-0.668917 0.4028724,-1.549334 0.5578694,-1.956481 0.314424,-0.8259307 1.090363,-1.8044457 1.318887,-1.6632103 0.104499,0.064584 8.900491,10.1474263 10.974235,12.5797623 0.13702,0.160713 -0.06351,0.4558 -1.337898,1.96875 -0.824491,0.978835 -1.541083,1.779701 -1.592426,1.779701 -0.05134,0 -2.284319,-2.455227 -4.962168,-5.456061 z"
       id="path6914"
       inkscape:connector-curvature="0"
       transform="translate(0,1002.3622)" />
    <path
       style="fill:#800000;fill-opacity:1;stroke:#000000;stroke-width:0.25;stroke-linejoin:round;stroke-miterlimit:4;stroke-opacity:1;stroke-dasharray:none"
       d="M 14.383905,40.722725 C 13.5786,39.88485 12.66263,38.328903 12.463682,37.460866 c -0.06476,-0.282574 1.057709,-1.662959 9.452982,-11.625 C 37.439268,7.4163541 36.007321,9.0727065 36.281755,9.2195791 36.611157,9.39587 37.197696,10.422266 37.082903,10.621525 36.61073,11.44114 15.460585,41.594013 15.357856,41.594013 c -0.07509,0 -0.51337,-0.39208 -0.973951,-0.871288 z"
       id="path6916"
       inkscape:connector-curvature="0"
       transform="translate(0,1002.3622)" />
    <path
       style="fill:#800000;fill-opacity:1;stroke:#000000;stroke-width:0.25;stroke-linejoin:round;stroke-miterlimit:4;stroke-opacity:1;stroke-dasharray:none"
       d="m 29.691204,36.704274 c -2.460154,-2.758106 -4.48946,-5.057465 -4.509569,-5.109686 -0.02011,-0.05222 0.572166,-0.964518 1.316167,-2.027327 l 1.352729,-1.93238 5.433833,6.256711 c 2.988608,3.441192 5.451017,6.323663 5.472019,6.40549 0.021,0.08183 -0.273971,0.265573 -0.655497,0.408319 -0.661989,0.247682 -3.539952,1.013612 -3.80862,1.013612 -0.07043,0 -2.140909,-2.256632 -4.601062,-5.014739 z"
       id="path6918"
       inkscape:connector-curvature="0"
       transform="translate(0,1002.3622)" />
  </g>
</svg>
