<?xml version="1.0" encoding="UTF-8" standalone="no"?>
<!-- Created with Inkscape (http://www.inkscape.org/) -->

<svg
   xmlns:dc="http://purl.org/dc/elements/1.1/"
   xmlns:cc="http://creativecommons.org/ns#"
   xmlns:rdf="http://www.w3.org/1999/02/22-rdf-syntax-ns#"
   xmlns:svg="http://www.w3.org/2000/svg"
   xmlns="http://www.w3.org/2000/svg"
   xmlns:sodipodi="http://sodipodi.sourceforge.net/DTD/sodipodi-0.dtd"
   xmlns:inkscape="http://www.inkscape.org/namespaces/inkscape"
   width="150"
   height="150"
   id="svg3919"
   version="1.1"
   inkscape:version="0.48.2 r9819"
   sodipodi:docname="silhouette.svg"
   inkscape:export-filename="/home/micha/Programmieren/git/platformer/images/transition/silhouette.png"
   inkscape:export-xdpi="144"
   inkscape:export-ydpi="144">
  <defs
     id="defs3921" />
  <sodipodi:namedview
     id="base"
     pagecolor="#000000"
     bordercolor="#666666"
     borderopacity="1.0"
     inkscape:pageopacity="0"
     inkscape:pageshadow="2"
     inkscape:zoom="2.8"
     inkscape:cx="39.081618"
     inkscape:cy="64.579437"
     inkscape:document-units="px"
     inkscape:current-layer="layer1"
     showgrid="false"
     inkscape:window-width="1280"
     inkscape:window-height="750"
     inkscape:window-x="0"
     inkscape:window-y="25"
     inkscape:window-maximized="1" />
  <metadata
     id="metadata3924">
    <rdf:RDF>
      <cc:Work
         rdf:about="">
        <dc:format>image/svg+xml</dc:format>
        <dc:type
           rdf:resource="http://purl.org/dc/dcmitype/StillImage" />
        <dc:title></dc:title>
      </cc:Work>
    </rdf:RDF>
  </metadata>
  <g
     inkscape:label="Ebene 1"
     inkscape:groupmode="layer"
     id="layer1"
     transform="translate(0,-902.36218)">
    <path
       style="fill:#000000;stroke:#000000;stroke-width:3.86501265000000016;stroke-linecap:round;stroke-linejoin:miter;stroke-miterlimit:4;stroke-opacity:1;stroke-dasharray:none"
       d="M 78.5625 4.84375 C 56.713958 5.02661 36.561599 19.43946 38.21875 39.0625 C 39.751282 57.20977 39.305398 54.39723 45.71875 69.125 C 45.713266 70.576907 45.817898 72.043432 45.9375 73.53125 C 43.071793 76.854502 40.44659 80.385792 37.5 83.625 C 33.158913 89.56631 31.066323 96.79729 29.96875 103.96875 C 28.967662 111.53215 35.984239 110.62655 40.65625 110.90625 C 44.948011 111.37975 47.491286 107.74279 49.5625 103.9375 C 50.603786 107.10255 51.949284 110.08211 53.5625 112.8125 C 54.973264 119.0664 54.265846 130.76387 54.25 135.34375 C 54.2234 143.05715 58.883102 143.1209 64.59375 143 C 68.018243 142.929 74.991742 143.4841 75.0625 137.1875 C 75.335154 132.65389 74.732286 132.23884 75.59375 129.6875 C 77.578831 130.11615 79.599739 130.34375 81.6875 130.34375 C 85.34298 130.34375 88.91544 129.75648 92.28125 128.65625 C 92.609309 131.50525 91.623003 133.49767 91.875 137.6875 C 92.33536 142.5558 96.562301 141.60695 99.875 141.90625 C 104.44508 142.31845 111.92053 141.37515 111.71875 137.71875 C 112.11047 131.88116 111.78519 120.32509 111.53125 112.9375 C 113.15963 110.14126 114.46704 107.07601 115.375 103.75 C 116.29899 104.14061 117.2943 104.40995 118.375 104.5625 C 125.08049 106.6492 135.71434 101.38322 130.03125 93.59375 C 125.75872 87.1238 119.4736 82.01142 116.5 74.65625 L 116.34375 74.78125 C 116.29146 73.429949 116.24602 72.017598 116.1875 70.6875 C 121.90588 57.95665 122.32543 46.03008 120.46875 33.96875 C 116.28798 6.81018 96.207056 4.69496 78.5625 4.84375 z "
       transform="translate(0,902.36218)"
       id="path4336-7-3-0" />
    <g
       id="g4324-3-2-18"
       transform="matrix(1.4116227,0,0,1.4116227,-678.66405,615.75096)"
       style="fill:#e3dbdb;stroke-width:2.73781276;stroke-miterlimit:4;stroke-dasharray:none">
      <path
         sodipodi:nodetypes="ssssssssss"
         inkscape:connector-curvature="0"
         id="path3141-9-5-8-7-3-0-6"
         d="m 510.04744,224.89 c -3.74735,-1.19241 -4.83986,1.1286 -6.37613,2.73478 -3.90906,4.08693 -0.37491,8.29805 -0.99601,12.61639 -0.26317,1.82978 -3.88995,4.76589 -1.30332,5.81044 1.80561,0.72915 2.92765,-1.06789 3.46373,-2.91686 0.59811,-2.06291 1.86147,-2.56061 1.56432,-4.84136 -0.27186,-2.08659 0.41497,-4.90834 2.76563,-5.20127 2.8299,-0.35266 3.38861,-2.7561 2.73828,-5.23465 -0.55193,-2.10352 0.73316,-4.65773 -1.9353,-4.85512 -0.45896,-0.034 0.51566,2.02666 0.0788,1.88765 z"
         style="fill:#e3dbdb;fill-opacity:1;stroke:#000000;stroke-width:2.73781276;stroke-linecap:butt;stroke-linejoin:miter;stroke-miterlimit:4;stroke-opacity:1;stroke-dasharray:none" />
      <path
         sodipodi:nodetypes="ccccccccsc"
         inkscape:connector-curvature="0"
         id="path3141-9-4-5-3-8-86"
         d="m 509.36388,223.96832 c -3.41399,-1.95171 -4.79587,0.39712 -6.80627,1.34486 -4.47108,3.46312 -1.94766,8.09565 -3.60534,12.13124 -0.48595,1.78359 -4.79355,3.84269 -2.48647,5.41085 1.61863,1.08255 4.59404,1.25109 4.74252,-0.66825 1.63071,-1.39789 1.60836,-3.57813 1.79299,-5.87074 0.16971,-2.09737 1.42132,-4.45751 3.78958,-4.5101 2.80771,0.49946 4.24858,-2.03114 3.76978,-4.54846 0.2612,-2.15898 1.68844,-4.4024 -0.88017,-5.15198 -0.44179,-0.12892 0.0839,2.08564 -0.31662,1.86258 z"
         style="fill:#e3dbdb;fill-opacity:1;stroke:#000000;stroke-width:2.73781276;stroke-linecap:butt;stroke-linejoin:miter;stroke-miterlimit:4;stroke-opacity:1;stroke-dasharray:none" />
    </g>
    <path
       style="fill:#e3dbdb;fill-opacity:1;stroke:#000000;stroke-width:3.86475849;stroke-linecap:butt;stroke-linejoin:miter;stroke-miterlimit:4;stroke-opacity:1;stroke-dasharray:none"
       d="m 38.272248,931.0742 c 13.957479,0.15377 27.788501,-2.65481 41.640262,-4.16216 10.635235,-1.81365 21.74062,-2.14779 31.96171,-5.50993 6.20407,-1.52107 13.3688,9.71489 6.11891,12.55506 -6.51704,0.69985 -13.01442,1.44958 -19.490458,2.64732 -13.374614,2.36223 -26.953172,2.1989 -40.458109,2.9532 -7.126921,0.26598 -14.186425,2.53928 -21.295958,1.91506 -4.209996,-1.98404 0.431174,-7.79278 1.523643,-10.39855 z"
       id="path4358-8-7-7-5-8-51"
       inkscape:connector-curvature="0" />
  </g>
</svg>
