<?xml version="1.0" encoding="UTF-8" standalone="no"?>
<!-- Created with Inkscape (http://www.inkscape.org/) -->

<svg
   xmlns:dc="http://purl.org/dc/elements/1.1/"
   xmlns:cc="http://creativecommons.org/ns#"
   xmlns:rdf="http://www.w3.org/1999/02/22-rdf-syntax-ns#"
   xmlns:svg="http://www.w3.org/2000/svg"
   xmlns="http://www.w3.org/2000/svg"
   xmlns:sodipodi="http://sodipodi.sourceforge.net/DTD/sodipodi-0.dtd"
   xmlns:inkscape="http://www.inkscape.org/namespaces/inkscape"
   width="640"
   height="640"
   id="svg2"
   version="1.1"
   inkscape:version="0.48.4 r9939"
   sodipodi:docname="desert.svg">
  <defs
     id="defs4" />
  <sodipodi:namedview
     id="base"
     pagecolor="#ffffff"
     bordercolor="#666666"
     borderopacity="1.0"
     inkscape:pageopacity="0.0"
     inkscape:pageshadow="2"
     inkscape:zoom="0.7"
     inkscape:cx="588.22418"
     inkscape:cy="242.95163"
     inkscape:document-units="px"
     inkscape:current-layer="layer1"
     showgrid="false"
     inkscape:window-width="1280"
     inkscape:window-height="750"
     inkscape:window-x="0"
     inkscape:window-y="25"
     inkscape:window-maximized="1">
    <inkscape:grid
       type="xygrid"
       id="grid9266"
       empspacing="4"
       visible="true"
       enabled="true"
       snapvisiblegridlinesonly="true"
       spacingx="40px"
       spacingy="40px" />
  </sodipodi:namedview>
  <metadata
     id="metadata7">
    <rdf:RDF>
      <cc:Work
         rdf:about="">
        <dc:format>image/svg+xml</dc:format>
        <dc:type
           rdf:resource="http://purl.org/dc/dcmitype/StillImage" />
        <dc:title />
      </cc:Work>
    </rdf:RDF>
  </metadata>
  <g
     inkscape:label="Ebene 1"
     inkscape:groupmode="layer"
     id="layer1"
     transform="translate(0,-412.36218)">
    <path
       inkscape:connector-curvature="0"
       style="fill:#ffffff;stroke:none"
       d="m 119.84375,568.14343 c -13.24404,-0.0503 -26.479262,0.5376 -39.71875,0.71875 -13.193443,0.18051 -26.451589,-0.23413 -39.59375,0.375 -11.838968,0.54873 -32.9405553,2.65814 -37.5625,3.125 l 314.40625,0 c -4.04358,-0.49031 -26.46518,-3.18885 -38.9375,-3.78125 -12.74447,-0.60524 -25.60474,0.032 -38.40625,0.0625 -13.28889,0.0317 -26.55588,0.0366 -39.84375,0.125 -13.29962,0.0885 -26.60702,0.50811 -39.90625,0.40625 -13.49662,-0.10338 -26.9397,-0.97995 -40.4375,-1.03125 z"
       id="path3128" />
    <path
       inkscape:connector-curvature="0"
       style="fill:#ffffff;stroke:none"
       d="m 439.84375,568.14343 c -13.24404,-0.0503 -26.47926,0.5376 -39.71875,0.71875 -13.19344,0.18051 -26.45159,-0.23413 -39.59375,0.375 -11.83897,0.54873 -32.94056,2.65814 -37.5625,3.125 l 314.40625,0 c -4.04358,-0.49031 -26.46518,-3.18885 -38.9375,-3.78125 -12.74447,-0.60524 -25.60474,0.032 -38.40625,0.0625 -13.28889,0.0317 -26.55588,0.0366 -39.84375,0.125 -13.29962,0.0885 -26.60702,0.50811 -39.90625,0.40625 -13.49662,-0.10338 -26.9397,-0.97995 -40.4375,-1.03125 z"
       id="path3128-3" />
    <path
       inkscape:connector-curvature="0"
       style="fill:#ffffff;stroke:none"
       d="m 439.84375,728.14343 c -13.24404,-0.0503 -26.47926,0.5376 -39.71875,0.71875 -13.19344,0.18051 -26.45159,-0.23413 -39.59375,0.375 -11.83897,0.54873 -32.94056,2.65814 -37.5625,3.125 l 314.40625,0 c -4.04358,-0.49031 -26.46518,-3.18885 -38.9375,-3.78125 -12.74447,-0.60524 -25.60474,0.032 -38.40625,0.0625 -13.28889,0.0317 -26.55588,0.0366 -39.84375,0.125 -13.29962,0.0885 -26.60702,0.50811 -39.90625,0.40625 -13.49662,-0.10338 -26.9397,-0.97995 -40.4375,-1.03125 z"
       id="path3128-39" />
    <path
       inkscape:connector-curvature="0"
       style="fill:#ffffff;stroke:none"
       d="m 119.84375,728.14343 c -13.24404,-0.0503 -26.479262,0.5376 -39.71875,0.71875 -13.193443,0.18051 -26.451589,-0.23413 -39.59375,0.375 -11.838968,0.54873 -32.9405553,2.65814 -37.5625,3.125 l 314.40625,0 c -4.04358,-0.49031 -26.46518,-3.18885 -38.9375,-3.78125 -12.74447,-0.60524 -25.60474,0.032 -38.40625,0.0625 -13.28889,0.0317 -26.55588,0.0366 -39.84375,0.125 -13.29962,0.0885 -26.60702,0.50811 -39.90625,0.40625 -13.49662,-0.10338 -26.9397,-0.97995 -40.4375,-1.03125 z"
       id="path3128-4" />
    <path
       inkscape:connector-curvature="0"
       style="fill:#ffffff;stroke:none"
       d="m 119.84375,888.14343 c -13.24404,-0.0503 -26.479262,0.5376 -39.71875,0.71875 -13.193443,0.18051 -26.451589,-0.23413 -39.59375,0.375 -11.838968,0.54873 -32.9405553,2.65814 -37.5625,3.125 l 314.40625,0 c -4.04358,-0.49031 -26.46518,-3.18885 -38.9375,-3.78125 -12.74447,-0.60524 -25.60474,0.032 -38.40625,0.0625 -13.28889,0.0317 -26.55588,0.0366 -39.84375,0.125 -13.29962,0.0885 -26.60702,0.50811 -39.90625,0.40625 -13.49662,-0.10338 -26.9397,-0.97995 -40.4375,-1.03125 z"
       id="path3128-0" />
    <path
       inkscape:connector-curvature="0"
       style="fill:#ffffff;stroke:none"
       d="m 119.84375,1048.1434 c -13.24404,-0.05 -26.479262,0.5376 -39.71875,0.7188 -13.193443,0.1805 -26.451589,-0.2341 -39.59375,0.375 -11.838968,0.5487 -32.9405553,2.6581 -37.5625,3.125 l 314.40625,0 c -4.04358,-0.4903 -26.46518,-3.1889 -38.9375,-3.7813 -12.74447,-0.6052 -25.60474,0.032 -38.40625,0.062 -13.28889,0.032 -26.55588,0.037 -39.84375,0.125 -13.29962,0.089 -26.60702,0.5081 -39.90625,0.4063 -13.49662,-0.1034 -26.9397,-0.98 -40.4375,-1.0313 z"
       id="path3128-9" />
    <path
       inkscape:connector-curvature="0"
       style="fill:#ffffff;stroke:none"
       d="m 439.84375,1048.1434 c -13.24404,-0.05 -26.47926,0.5376 -39.71875,0.7188 -13.19344,0.1805 -26.45159,-0.2341 -39.59375,0.375 -11.83897,0.5487 -32.94056,2.6581 -37.5625,3.125 l 314.40625,0 c -4.04358,-0.4903 -26.46518,-3.1889 -38.9375,-3.7813 -12.74447,-0.6052 -25.60474,0.032 -38.40625,0.062 -13.28889,0.032 -26.55588,0.037 -39.84375,0.125 -13.29962,0.089 -26.60702,0.5081 -39.90625,0.4063 -13.49662,-0.1034 -26.9397,-0.98 -40.4375,-1.0313 z"
       id="path3128-6" />
    <path
       inkscape:connector-curvature="0"
       style="fill:#ffffff;stroke:none"
       d="m 439.84375,888.14343 c -13.24404,-0.0503 -26.47926,0.5376 -39.71875,0.71875 -13.19344,0.18051 -26.45159,-0.23413 -39.59375,0.375 -11.83897,0.54873 -32.94056,2.65814 -37.5625,3.125 l 314.40625,0 c -4.04358,-0.49031 -26.46518,-3.18885 -38.9375,-3.78125 -12.74447,-0.60524 -25.60474,0.032 -38.40625,0.0625 -13.28889,0.0317 -26.55588,0.0366 -39.84375,0.125 -13.29962,0.0885 -26.60702,0.50811 -39.90625,0.40625 -13.49662,-0.10338 -26.9397,-0.97995 -40.4375,-1.03125 z"
       id="path3128-2" />
    <path
       style="fill:#ffffff;stroke:none"
       d="m 196.42281,520.96421 c -1.04314,-0.0104 -2.05622,0.19052 -2.92646,0.67894 -2.50638,1.40672 -3.1657,4.94175 -3.78099,7.74928 -0.93078,4.24707 0.29265,13.04031 0.29265,13.04031 0,0 -4.07525,-0.44239 -5.22081,-1.39299 -2.42205,-0.85242 -1.37223,-3.03713 -2.36458,-7.1991 -0.62348,-1.03869 -0.95429,-1.02276 -2.16559,-1.04182 -2.30407,-0.0363 -3.11754,0.94948 -3.88634,2.18899 -0.66074,3.08563 1.01207,7.77862 2.17729,9.82121 1.14225,1.95045 2.31691,2.53353 4.35458,3.51176 2.27251,1.09097 7.29274,2.0017 7.29274,2.0017 l 0.46823,20.69594 12.66573,-0.18729 c 0,0 0.36689,-7.69456 0.83112,-16.63402 0.70699,0.003 1.47234,0.008 2.01341,-0.0117 1.76919,-0.0631 3.72947,0.44769 5.29104,-0.3863 1.26853,-0.67748 2.00975,-2.1223 2.65723,-3.4064 0.73715,-1.46193 1.68802,-3.13316 1.32276,-4.72916 -0.31897,-1.39375 -1.41852,-3.10344 -2.84452,-3.20741 -1.07112,-0.0781 -1.9467,1.12763 -2.45823,2.07194 -0.48435,0.89413 0.10691,2.13614 -0.37459,3.03181 -0.55061,1.02425 -1.54411,1.8979 -2.64552,2.27094 -0.71918,0.24358 -1.95815,0.0787 -2.72746,-0.0585 0.30708,-5.75158 0.63017,-11.55552 0.92476,-16.02531 0.0999,-1.51581 0.89693,-3.93509 0,-6.8128 -0.68294,-2.19119 -1.8698,-3.42458 -3.87464,-4.54187 -1.45285,-0.80967 -3.28324,-1.41071 -5.02181,-1.42812 z"
       id="path3703"
       inkscape:connector-curvature="0" />
    <path
       style="fill:#ffffff;stroke:none"
       d="m 172.16363,570.09359 c 2.34505,-0.0119 3.45936,-2.60389 4.08107,-4.86506 0.69407,-2.52432 0.67862,-5.55597 -0.60252,-7.83909 -1.47985,-2.63722 -4.52394,-5.33256 -7.43726,-6.14337 -3.97622,-1.10663 -8.51755,-0.6938 -12.35438,0.8273 -3.8001,1.50655 -7.218,4.03286 -8.52555,7.90594 -0.78464,2.32418 -0.46176,4.90629 0.74115,7.04416 0.74019,1.3155 1.71818,3.18388 3.22761,3.17621 z"
       id="path3711"
       inkscape:connector-curvature="0"
       sodipodi:nodetypes="sssssssss" />
    <path
       style="fill:#ffffff;stroke:none"
       d="m 151.10714,582.6345 -0.8125,0.5625 c 0,0 0.0616,0.0921 0.0625,0.0937 0.0453,0.0861 1.07994,2.11537 2.15625,4.875 1.09874,2.81714 2.14634,6.29953 1.96875,8.75 -0.0956,1.31895 -0.84544,2.78845 -1.71875,4.125 -0.82607,1.26426 -1.71195,2.35491 -2.3125,3.1875 -0.19414,-0.22655 -0.47444,-0.71222 -0.71875,-1.21875 -0.46201,-0.9579 -0.83344,-1.91563 -0.875,-2.03125 -0.002,-0.007 -0.0312,-0.125 -0.0312,-0.125 l -0.9688,0.2188 c 0,0 0.18015,2.15267 0.21875,4.8125 0.0386,2.65983 -0.0941,5.82375 -0.59375,7.6875 -0.4304,1.60555 -1.52622,3.99821 -2.53125,5.9375 -1.00503,1.93929 -1.90625,3.4375 -1.90625,3.4375 l -0.15625,0.28125 0.1875,0.28125 c 0,0 0.9619,1.31963 2,3.03125 1.0381,1.71162 2.134,3.81991 2.40625,5.25 0.1086,0.57047 -0.10476,1.27154 -0.25,2.0625 -0.47853,2.60595 -1.09153,5.20442 -1.96875,7.6875 -0.6307,1.78528 -2.01841,3.45712 -2.53125,5.5625 -0.80299,3.29654 -0.20116,6.66369 -0.5,9.8125 -0.28013,2.95176 -1.23699,8.82526 -1.25,8.90625 -9e-5,5.6e-4 0,0.0625 0,0.0625 -0.0134,0.0504 -0.30402,1.15267 -0.8125,2.46875 -0.52013,1.34621 -1.30959,2.85018 -2.03125,3.46875 -0.74846,0.64153 -1.27913,0.57326 -1.75,0.375 -0.47087,-0.19826 -0.78125,-0.5625 -0.78125,-0.5625 l -4.28125,-4.75 2.5625,-4.65625 c 0,0 0.0309,-0.0308 0.0312,-0.0312 0.0204,-0.0314 0.66597,-1.04944 1.40625,-2.375 0.75178,-1.34614 1.57033,-2.95939 1.875,-4.25 0.19724,-0.83553 0.0207,-1.62817 -0.0937,-2.34375 -0.11457,-0.71558 -0.16499,-1.33566 0.0625,-1.8125 0.39203,-0.82175 1.64841,-1.8975 2.8125,-2.6875 1.16409,-0.79 2.21875,-1.3125 2.21875,-1.3125 l 0.1875,-0.0937 0.0625,-0.21875 2,-6 0.3125,-0.90625 -0.9375,0.28125 c 0,0 -4.09266,1.22736 -6.09375,2.28125 -1.74703,0.92009 -4.09514,1.69838 -5.1875,3.71875 -0.73405,1.35766 -0.51068,2.87517 -0.28125,4.28125 0.22943,1.40608 0.45081,2.708 0,3.75 -0.25446,0.58817 -1.10345,1.45792 -1.875,2.125 -0.50212,0.43413 -0.67159,0.5541 -0.9375,0.75 l -2.75,-6.625 -0.125,-0.25 -0.28125,-0.0625 -5.75,-0.75 -0.0312,0 -0.0312,0 -5.78125,-0.25 c -0.18088,-0.22454 -1.73951,-2.15349 -2.90625,-3.125 -1.43907,-1.19828 -3.01179,-2.51603 -4.9375,-3.09375 -4.17826,-1.2535 -8.743198,-1.10352 -12.968747,-0.25 -1.334437,0.26954 -2.809888,1.07757 -3.96875,1.8125 -1.158862,0.73493 -2,1.40625 -2,1.40625 l -1.25,0.96875 1.59375,-0.0937 c 0,0 1.837099,-0.10944 3.8125,-0.21875 1.975401,-0.10931 4.135417,-0.21875 4.5625,-0.21875 0.329233,0 0.802998,-0.06 1.46875,-0.125 0.665752,-0.065 1.477382,-0.13249 2.343747,-0.15625 1.73274,-0.0475 3.66863,0.10795 4.90625,0.78125 0.6367,0.34639 1.75798,1.29769 2.65625,2.125 0.43584,0.40141 0.49232,0.46717 0.78125,0.75 -1.19362,0.0344 -4.88371,0.12453 -7.375,0.4375 -2.612232,0.32817 -5.615228,0.70868 -7.531247,2.84375 -0.790007,0.88033 -1.473045,2.4655 -2.03125,3.90625 -0.558305,1.4406 -0.9375,2.71875 -0.9375,2.71875 l -0.46875,1.40625 1.21875,-0.875 c 0,0 1.052089,-0.74196 2.21875,-1.5625 1.166661,-0.82054 2.496575,-1.73496 2.96875,-2 1.914911,-1.07486 3.304087,-1.78756 5.406247,-1.9375 3.26933,-0.23318 9.73294,0.42485 10.15625,0.46875 l 3.875,6.78125 0.0312,0.0937 0.0937,0.0625 6.28125,4.84375 -0.21875,2.21875 -0.0312,0.28125 0.25,0.1875 4.0625,2.625 0.96875,8.75 0.0312,0.21875 0.1875,0.15625 6.0625,4.125 1.1875,7.15625 c -1.69334,-1.81283 -10.08554,-10.72607 -15.9375,-14.875 -4.24766,-3.01152 -13.59375,-7.03125 -13.59375,-7.03125 l -0.0937,-0.0625 -0.0937,0 c 0,0 -2.60678,0.007 -5.843747,-0.1875 -3.236969,-0.19478 -7.124692,-0.58908 -9.53125,-1.28125 -0.432063,-0.12427 -0.858791,-0.43283 -1.34375,-0.75 -0.484959,-0.31717 -1.01233,-0.63347 -1.6875,-0.75 -2.169139,-0.37436 -5.265724,0.002 -7.84375,0.46875 -2.578026,0.46648 -4.625,1.03125 -4.625,1.03125 l -0.3125,0.0625 -0.0625,0.3125 -0.5,2.5 -0.125,0.71875 0.6875,-0.125 c 0,0 4.366147,-0.73965 6.4375,-0.75 1.084738,-0.005 2.413035,0.23144 3.40625,0.375 l -9.71885,7.21865 0.5,0.875 c 0,0 7.013771,-2.88438 10.9375,-3.90625 1.931866,-0.50313 2.19837,-0.16149 3.25,-0.0312 2.157543,0.26698 5.173427,0.0734 7.6875,-0.1875 1.884989,-0.19562 2.695689,-0.33367 3.374997,-0.4375 -0.799531,1.14124 -2.623349,3.68682 -4.031247,5 -0.641825,0.59865 -2.150076,1.68331 -3.46875,2.59375 -1.318674,0.91044 -2.46875,1.65625 -2.46875,1.65625 l 0.40625,0.90625 c 0,0 0.151009,-0.0612 0.15625,-0.0625 0.216294,-0.0524 4.639999,-1.11078 6.625,-2 1.713721,-0.76769 3.716957,-2.4989 5.343747,-4.03125 1.44997,-1.36579 2.33355,-2.31263 2.5625,-2.5625 0.54553,0.28429 11.68822,6.06652 16.96875,10.9375 2.19803,2.02755 5.41464,6.05247 8.0625,9.53125 2.57336,3.38091 4.51217,6.09005 4.625,6.25 l -2.9375,17.6875 -3.71875,5.9375 -0.375,0.59375 0.71875,0.15625 18.01786,2.69643 2.53571,-0.95094 3.33929,1.1875 8.45089,-0.93304 0.0625,0 c 0.0611,-8.1e-4 4.71719,-0.0631 9.5625,-0.15625 2.43849,-0.0469 4.91831,-0.0975 6.84375,-0.15625 0.96272,-0.0294 1.78511,-0.0627 2.40625,-0.0937 0.31057,-0.0155 0.5787,-0.015 0.78125,-0.0312 0.20255,-0.0162 0.32065,-0.0255 0.46875,-0.0625 l 1.46875,-0.375 -1.40625,-0.59375 c 0,0 -2.02488,-0.81008 -4.25,-1.65625 -1.11256,-0.42309 -2.27593,-0.84451 -3.28125,-1.1875 -1.00532,-0.34299 -1.8089,-0.61109 -2.34375,-0.6875 -0.52,-0.0743 -1.40245,-0.0743 -2.5,-0.0625 -1.09755,0.0118 -2.38796,0.0469 -3.625,0.0937 -2.31058,0.0877 -4.13639,0.20393 -4.40625,0.21875 l -0.84375,-1.71875 -0.15625,-0.3125 -0.34375,0.0312 -4.53125,0.46875 -5.46875,-5.21875 -3.4375,-11.5 0,-0.0312 c -10e-4,-0.0523 -0.25,-11.76073 -0.25,-13.96875 0,-2.21296 0.25,-13.71875 0.25,-13.71875 l 1.9375,-9.28125 c 0,0 4.19005,-8.063 6.9375,-11.4375 2.12984,-2.61594 4.65042,-4.9599 7.40625,-6.90625 3.93729,-2.78079 8.40792,-4.82011 12.90625,-6.6875 3.47495,-1.44256 10.9375,-3.46875 10.9375,-3.46875 l 0.40625,-0.125 -0.0312,-0.40625 -0.75,-11.875 0,-0.125 -1,-0.0312 0,0.0937 -1.21875,8.4375 c -0.16074,0.10343 -0.95884,0.59788 -2.03125,1.21875 -0.58717,0.33994 -1.20004,0.68942 -1.71875,0.9375 -0.51871,0.24808 -1.01042,0.375 -1.03125,0.375 -0.28068,0 -0.50371,0.10606 -0.8125,0.21875 -0.30879,0.11269 -0.66744,0.24573 -1.09375,0.4375 -0.85261,0.38354 -1.93238,0.92178 -3.09375,1.5 -2.32274,1.15645 -5.01692,2.53449 -6.96875,3.40625 -1.94434,0.86842 -4.42773,1.9689 -6.65625,2.9375 -2.22852,0.9686 -4.24239,1.80586 -5.03125,2.03125 -0.35784,0.10224 -0.6382,0.33531 -0.96875,0.625 -0.33055,0.28969 -0.69573,0.64162 -1.0625,1.0625 -0.73354,0.84177 -1.51021,1.89864 -2.25,2.9375 -0.97253,1.36568 -1.32639,1.93196 -1.8125,2.6875 -0.0142,-1.07226 -0.0557,-2.76756 0.0625,-6.1875 0.14983,-4.33531 0.5321,-9.52357 1.40625,-12.78125 0.81553,-3.03925 2.50579,-5.82126 4.1875,-8.59375 0.85023,-1.4017 1.85176,-3.34129 2.84375,-4.90625 0.496,-0.78248 0.98764,-1.46846 1.4375,-1.9375 0.44986,-0.46904 0.86308,-0.6875 1.0625,-0.6875 0.58036,0 1.31807,-0.18719 2.25,-0.46875 0.93193,-0.28156 2.01556,-0.67185 3.0625,-1.03125 1.04694,-0.3594 2.06714,-0.69629 2.875,-0.9375 0.40393,-0.1206 0.76692,-0.22838 1.03125,-0.28125 0.26433,-0.0529 0.46196,-0.0173 0.40625,-0.0312 0.0491,0.0123 0.0723,0.0334 0.1875,0.0312 0.0288,-5.1e-4 0.0719,-0.0183 0.125,-0.0312 0.0265,-0.006 0.0574,-0.0145 0.0937,-0.0312 0.0365,-0.0168 0.12442,-0.062 0.125,-0.0625 5.8e-4,-5.1e-4 0.12468,-0.15562 0.125,-0.15625 3.2e-4,-6.3e-4 0.0312,-0.18676 0.0312,-0.1875 6e-5,-7.4e-4 0.01,-0.11403 0,-0.15625 -0.01,-0.0422 -0.0188,-0.0984 -0.0312,-0.125 -0.10016,-0.21284 -0.14722,-0.18808 -0.1875,-0.21875 -0.0403,-0.0307 -0.0832,-0.0364 -0.125,-0.0625 -0.16721,-0.10451 -0.41741,-0.23402 -0.75,-0.40625 -0.66518,-0.34447 -1.62322,-0.82726 -2.625,-1.3125 -1.77682,-0.86065 -3.25496,-1.56085 -3.65625,-1.75 l 7.21875,-13.25 0.0312,-0.0312 -0.4375,-0.25 -0.40625,-0.28125 -0.0312,0.0625 -9.90625,14.46875 -3.84375,-3.375 -1.34375,-1.1875 0.5625,1.71875 1.90625,5.9375 -6.84375,7.09375 -2.46875,-4.125 c 0.19589,-0.21897 1.03707,-1.16803 2.1875,-2.6875 1.27527,-1.68435 2.65812,-3.73463 3.15625,-5.46875 0.44585,-1.55212 0.14746,-3.13772 -0.125,-4.625 -0.27246,-1.48728 -0.51541,-2.88566 -0.125,-4.125 0.49787,-1.58048 1.77171,-2.85777 3,-4.21875 1.22829,-1.36098 2.43249,-2.83989 2.53125,-4.84375 0.15398,-3.12417 -1.59826,-6.6766 -3.34375,-9.5 -1.71297,-2.7708 -3.40421,-4.7367 -3.46875,-4.8125 -10e-4,-10e-4 -0.0625,-0.0937 -0.0625,-0.0937 z m -28.1875,72.5625 2.5625,5.3125 -1.375,1.6875 -3.65625,-2.21875 -2.96875,-4.5625 c 1.80608,-0.0467 5.00855,-0.19873 5.4375,-0.21875 z"
       id="path4469"
       inkscape:connector-curvature="0"
       sodipodi:nodetypes="cccscscscccscscccssssssccsssccccsscssccccccsssssccccccccsssscccssscsscssccccsssccccccccccccccsccccssscccccccccccscscsscccsscssccccccccccscsscccsscscccccccccsccsssccccccccsssssssssssscsssssssscccccccsccccccscccccccccccccsssssssccccccccc" />
    <path
       style="fill:#ffffff;stroke:none;stroke-width:1px;stroke-linecap:butt;stroke-linejoin:miter;stroke-opacity:1"
       d="m 443.21875,105.71875 c -2.06972,0.20067 -3.65176,3.30991 -3.21875,5.34375 1.04015,4.88556 4.65625,12.85268 4.65625,14.28125 0,0.36035 0.11133,1.20164 0.28125,2.21875 0,0 -1.42839,0.94894 -2.25,1.0625 -1.27203,0.17582 -2.89971,0.27815 -3.79911,-0.63839 -1.16225,-1.18441 -0.77136,-4.99187 -1.08928,-6.62054 -0.4826,-2.47223 -0.4269,-3.33422 -1.42411,-5.64732 -0.67372,-1.56274 -1.08261,-4.178 -2.78125,-4.28125 -1.42445,-0.0866 -2.54646,2.54282 -2.125,3.90625 0.90918,2.9412 1.99533,5.14471 2.65625,8.21875 0.51355,2.38861 -0.24396,5.08436 1.21429,7.04464 1.28872,1.7324 3.18921,2.07578 5.34821,2.10268 1.74256,0.0217 4.9375,-1.27232 4.9375,-1.27232 0.3877,1.98303 0.94528,2.76002 1.4375,3.99554 1.50428,3.77587 4.74819,6.44689 6.31696,10.19642 1.56022,3.72909 2.33929,11.87054 2.33929,11.87054 l 5,0.34375 L 459,146.53125 c 0,0 3.33694,-0.20234 4.97768,-0.71429 0.9792,-0.30553 1.51918,-2.09155 1.99553,-3 1.36899,-2.61076 1.26768,-4.58654 0.17858,-7.32589 -0.85755,-2.15692 -3.1915,-2.54805 -4.24554,-4.61607 -1.04928,-2.05866 0.65441,-5.55063 -1.28125,-6.8125 -1.22766,-0.80032 -2.299,-0.14808 -3.20982,1 -1.41782,1.78715 -1.01223,4.68736 -0.26786,6.84375 0.79894,2.31446 3.83555,2.95847 4.70982,5.24554 0.45475,1.1896 0.65878,3.15213 -0.10714,4.16964 -0.70531,0.937 -4.0625,0.92857 -4.0625,0.92857 0,0 -4.79796,-5.93311 -6.25,-9.40625 -1.35853,-3.24948 -1.4604,-6.89114 -2.15625,-10.34375 -0.86173,-4.27563 -1.97725,-8.67514 -2.5,-12.84375 -0.22023,-1.75622 -1.80079,-4.1083 -3.5625,-3.9375 z"
       transform="translate(0,412.36218)"
       id="path4874"
       inkscape:connector-curvature="0"
       sodipodi:nodetypes="ssscssssssssscsscccssssssssscssss" />
    <path
       style="fill:#ffffff;stroke:none"
       d="m 489.46875,214.09375 c 0,0 -42.69643,2.5 -44.125,2.5 -1.42858,0 -8.5625,3.59375 -8.5625,3.59375 l -1.96875,15.71875 5,5.6875 14.65625,4.125 0.125,0 -4.0625,1.4375 -0.71875,8.03125 5.66799,3.4751 -8.16799,-0.44385 -8.375,3.375 -3.75,11.09375 4.09375,2.5 -2.125,1.40625 0.53125,7.34375 7.65625,2.84375 13.3125,0.28125 -20.8125,-0.28125 -9.4375,2.6875 -3.75,5.71875 -3.40625,8.21875 5.34375,11.9375 13.40625,1.25 63.21875,1.96875 5.71875,-3.5625 2.5,-4.09375 -0.1875,-13.0625 -9.46875,-10.15625 -15.03125,-0.21875 9.15625,-3.90625 7.3125,-4.46875 -1.4375,-11.59375 -10.875,-9.09375 -8.53125,-0.0312 7.8125,-3.71875 -2.34375,-10 -0.34375,-0.0312 15,-2.125 9.65625,-7.15625 -5,-11.78125 z"
       transform="translate(0,412.36218)"
       id="path4883"
       inkscape:connector-curvature="0"
       sodipodi:nodetypes="cscccccccccccccccccccccccccccccccccccccccc" />
    <path
       id="path5138"
       style="font-size:medium;font-style:normal;font-variant:normal;font-weight:normal;font-stretch:normal;text-indent:0;text-align:start;text-decoration:none;line-height:normal;letter-spacing:normal;word-spacing:normal;text-transform:none;direction:ltr;block-progression:tb;writing-mode:lr-tb;text-anchor:start;baseline-shift:baseline;color:#000000;fill:#ffffff;fill-opacity:1;fill-rule:nonzero;stroke:none;stroke-width:1;marker:none;visibility:visible;display:inline;overflow:visible;enable-background:accumulate;font-family:Sans;-inkscape-font-specification:Sans"
       d="m 128.71875,866.23718 c -0.9065,0.98782 -0.89131,2.88048 -2.42671,3.16922 -0.41602,0.49966 0.18798,0.86897 -0.41099,1.34934 -0.20089,0.61946 0.50115,1.92864 0.0622,2.81818 -0.37448,0.53449 -1.73741,-0.73567 -1.22452,0.50701 0.35578,0.24951 0.24838,0.52951 0.0568,1.21707 -0.30373,-0.43222 -0.38092,-0.20525 -0.83422,-0.27936 -0.61191,-0.87946 0.10726,-1.88676 0.77996,-2.32258 -0.18602,-0.83621 -0.8287,-0.12925 -1.06537,-0.72017 -0.59765,-0.0335 -0.32997,0.6184 -0.86074,0.82568 -0.37138,0.97423 0.79369,0.0933 0.35017,0.81514 -0.11867,1.56098 -0.54313,-1.23693 -1.07274,0.1121 0.2982,1.21048 -1.05077,2.49001 -0.19768,3.69587 -1.05867,0.23206 0.94801,0.74403 0.13423,1.53823 0.0459,0.83411 -0.24963,1.18 0.63629,1.54952 0.3483,0.70099 1.34246,2.23847 1.19885,2.60129 -1.22213,-0.63335 0.099,0.74765 0.40878,0.94591 -1.05769,0.12228 -1.70992,0.24227 -2.53949,-0.52432 -0.88308,-0.94658 -0.69469,-1.34744 -0.54139,-2.55986 0.27574,-1.30891 -0.81865,0.24323 -0.82585,0.84553 -0.0773,0.53542 0.79626,2.02077 -0.0276,0.91002 -0.64906,-0.85497 -0.89247,-1.69911 -0.81886,-2.83068 0.20885,-1.7702 1.16534,-3.3652 2.26123,-4.72652 0.24658,-0.93704 -0.37678,-1.03131 -0.57513,-0.0871 -0.84652,1.46456 -2.05415,2.81985 -2.16886,4.58228 -0.52845,1.44469 0.36425,2.70381 0.72102,4.04343 0.41571,0.76571 0.22806,1.20968 1.07433,1.89975 0.10123,1.22219 -2.1643,-1.11502 -1.21817,0.34998 0.73583,0.44232 0.96302,0.0792 1.15564,0.41028 0.79929,0.25549 1.54901,1.02318 2.03402,1.49928 -1.2636,-0.0288 0.48768,1.65314 1.20661,1.6383 2.9401,0.86326 6.06292,0.59742 9.07842,0.3987 2.97015,-0.27337 5.93866,-0.67428 8.83723,-1.39029 0.3482,-0.17818 1.7612,-0.2787 1.28156,-0.87096 1.11128,-0.71893 1.80759,-2.00493 1.69187,-3.34663 -0.0223,-0.91353 -0.74319,-0.76773 -0.63551,0.10801 0.10653,0.59543 -0.88594,0.78054 -0.21921,0.17374 0.39681,-1.17219 -0.21099,-1.27475 -0.41386,-0.17885 -0.11659,0.69313 -1.81084,1.189 -0.91296,0.24401 0.83489,-0.5355 0.66172,-1.00903 1.05181,-1.91067 0.76979,1.09441 0.56025,-0.48871 0.55703,-1.01612 0.27394,-0.72498 -0.14941,-1.49083 -0.51695,-1.75263 0.25955,-0.64666 0.16905,-0.15726 0.65962,-0.23974 -0.14717,0.87614 0.5712,-1.04833 -0.38725,-0.46031 -0.52579,-0.28761 -0.36077,0.76935 -1.125,0.2812 0.94613,-0.26138 -0.10595,-0.38285 -0.1686,-0.91793 -0.12574,-1.20409 -0.78356,-2.04243 -1.29918,-2.98388 0.12139,-0.77399 0.21865,-0.80829 -0.59629,-1.0239 -0.54943,1.6803 -0.7724,1.69847 -1.05203,0.97709 -0.1054,-0.2719 -0.3274,0.11756 -0.3525,0.48002 -0.19413,0.61825 0.23749,1.47097 -0.62162,1.48213 -0.8225,-0.10047 -1.10757,-0.32388 -0.41795,-1.2099 0.73414,-0.39166 0.85733,-2.24968 0.2301,-1.41283 -0.041,0.0907 -0.12542,0.2055 -0.37091,0.54385 -0.27375,-0.54949 -1.02502,0.8639 -1.25307,-0.32897 0.0272,-0.41178 -8.9e-4,-2.47283 -0.41799,-1.22145 0.12615,-0.25197 0.0147,0.72755 -0.24226,0.42837 -1.0147,-0.84246 -0.73683,1.24973 -1.10174,1.42638 -0.37614,-1.00916 -0.0641,-3.06501 -0.40413,-3.91509 0.52832,-0.25745 -0.46861,-1.36557 0.0684,-1.01134 0.28168,-0.77679 -0.5747,-2.53343 -0.40625,-1.1874 -0.14324,0.54158 0.37191,1.97239 -0.36872,2.74364 -1.12457,0.61195 0.14629,2.34891 -1.00615,2.69926 -0.13574,-0.89101 0.29229,-1.78337 -0.41523,-2.27569 -0.30755,-1.12144 -1.14309,-0.95985 -0.52567,0.0844 0.082,0.90608 -1.0648,0.93417 -1.02798,0.24835 -0.57815,-0.60082 0.35226,-1.53339 0.46875,-1.24995 -0.20054,-0.80718 0.35714,-0.41593 0.5848,-0.30512 0.0651,-0.32287 0.0419,-1.23936 0.39181,-2.30466 -0.0124,-0.92582 -0.48658,-1.44644 -0.68353,-0.39045 -0.43072,1.02729 -0.58409,2.27935 -1.51188,3.00038 -0.11721,-0.64024 -0.58864,-0.0335 -1.10988,-0.0185 -0.3526,-0.73563 0.59191,-1.02086 0.58846,-1.0564 -0.3791,-0.3536 0.47867,-1.10896 0.51965,-1.37164 -0.27795,-0.22974 -0.10183,-0.0648 -0.24818,-0.2411 1.04971,-0.43065 2.29534,-1.34017 2.62495,-1.40625 0.0112,-0.16342 0.53681,-0.79691 -0.33818,-0.69225 -0.90876,0.46328 -1.18682,0.72628 -1.83816,1.05639 -0.6869,0.19394 -1.37635,1.11007 -1.51106,1.47951 -0.26558,0.49237 -1.00738,1.10508 -0.88221,0.0581 -0.2806,-0.98508 0.74821,-2.39207 0.79749,-2.81898 -0.72691,0.11676 0.352,-0.57265 -0.32173,-0.6766 z m 2.125,1.8125 c 0.18031,-0.0147 -0.0425,-0.0798 0,0 z m -0.84375,3.5625 0.125,-0.0312 z m 2.125,-3.125 c 0.26138,-0.24024 -0.13876,-0.0789 0,0 z m 2.375,1.28125 c 0.0527,-0.13856 -0.0617,-0.0198 0,0 z m 3.59375,7.375 0.0312,0.0625 z M 120,884.54968 c 0.0768,-0.16001 -0.17933,0.0427 0,0 z m 2.90625,-11.1875 c -0.39404,-0.31342 -0.17306,0.28224 0,0 z m 2.9375,-2.3125 c 0.0768,-0.14835 -0.14618,0.0145 0,0 z m 1.78125,-2.15635 c 0.15022,0.43211 0.0349,0.60813 0.0312,0.75 0.37158,-0.1315 -0.48621,0.97076 0.1389,0.97723 -0.6691,0.28402 0.59016,2.16664 -0.86191,1.9193 -0.66806,-1.12617 -0.25862,-2.50342 0.58841,-3.48545 l 0.1035,-0.16108 z m 0,0.40625 c -0.0627,0.0206 0.0535,0.13785 0,0 z m 9.5625,1.90615 c -0.89469,0.74679 1.59265,0.85398 0.1875,0.1875 -0.0625,-0.0625 -0.125,-0.125 -0.1875,-0.1875 z m -13.5625,0.0625 c -0.51886,0.38638 0.49058,0.78575 0.28125,0.125 -0.56345,0.26131 0.28789,-0.14148 -0.28125,-0.125 z m 13.5,0.7189 c -1.01962,0.29885 0.27149,1.86021 0.25,0.46875 0.0216,-0.1828 -0.0411,-0.42361 -0.25,-0.46875 z m -7.0625,0.2498 c 0.98095,0.60516 -0.96692,2.34377 -0.78125,1.4375 0.30948,-0.66425 0.33648,-1.30054 -0.0333,-1.18349 0.24343,-0.1696 0.57972,-0.0583 0.81455,-0.25401 z m -0.5,0.46875 c 0.10484,0.003 -0.0693,-0.14616 0,0 z m -1.25,-0.031 c 0.69772,0.78652 0.0291,2.2537 -0.38536,2.17837 -0.3763,1.22037 0.003,-1.09196 0.17597,-1.56043 0.0582,-0.20963 0.12294,-0.41798 0.20939,-0.61794 z m -6.1875,0.0625 c -0.62675,0.5035 0.31614,0.59149 0,0.0937 0.24487,0.4354 0.6096,-0.0986 0,-0.0937 z m 3.34375,0.2186 c -1.14835,0.96462 1.00574,0.26328 0,0 z m 14.15625,0.2187 c -0.74328,0.79191 1.3838,1.08671 0.3125,0.37505 0.23601,0.0281 -0.20623,-0.40431 -0.3125,-0.37505 z m -9,0.0937 c 1.30944,0.29857 0.65806,1.92998 -0.0635,1.72204 0.10596,0.84368 -0.59107,0.79549 -0.39762,-0.009 0.0451,-0.59498 0.26998,-1.15388 0.46115,-1.71257 z m -8.34375,0.094 -0.13563,0.0771 z m 3.875,0.37485 c 0.70547,0.70102 -0.29073,1.09248 -0.51552,0.87693 0.0558,0.74106 -0.0569,0.93206 -0.30271,0.12938 0.0304,-0.49665 0.80349,-0.49311 0.81823,-1.00631 z m 13.34375,0.281 c -0.9948,0.57058 0.84653,0.67839 0,0 z m -14.96875,0.25 c -1.08417,0.47682 0.78534,0.80726 0,0 z m 7.96875,0.71915 c 0.152,0.76976 -0.70544,1.15657 -0.21497,0.17261 l 0.0921,-0.10406 0.12285,-0.0686 z m -9,0.28115 c 0.24896,0.32277 1.13343,0.92859 0.17216,0.45169 -0.16927,-0.0747 -0.265,-0.27992 -0.17216,-0.45169 z m -1.46875,0.7188 c 0.33615,0.49972 0.57956,1.1253 0.43143,1.59534 -0.30869,-0.46583 -0.44383,-1.04056 -0.43143,-1.59534 z m 2.1875,0.0625 c 0.70703,0.48623 0.8592,1.28418 0.003,0.95214 -0.22681,-0.41831 -0.236,-0.78851 -0.003,-0.95214 z m 0.53125,0.875 c -0.14077,0.18271 0.45004,-0.33431 0,0 z m 7.21875,-0.4375 c 0.71631,0.38381 -0.44295,0.62634 0,0 z m 8.90625,0 c 0.5573,1.13957 -1.15322,1.02139 0,0 z m 0.625,0.31245 c 0.93135,0.38342 -0.66259,1.58171 -0.15325,0.33173 0.0143,-0.12595 0.0969,-0.22271 0.15325,-0.33173 z m -1.28125,0.5936 c 0.77098,0.95797 -0.9446,1.11758 0,0 z m 3.625,0.3126 c -1.11251,0.53857 0.84575,0.85827 0,0 z m -2.03125,0.62485 c 0.43688,0.88604 -0.78005,0.86364 -0.15625,0.0937 0.0521,-0.0313 0.10425,-0.0625 0.15625,-0.0937 z m 2.25,0.2187 c -1.08693,0.73798 0.85132,0.709 0,0 z m -23.21875,0.0937 c -0.16807,0.22935 0.11938,1.39555 0.61066,1.6486 0.0369,-0.42188 -0.22455,-0.7063 0.232,-0.91092 -0.4696,0.19409 -0.004,-0.0378 -0.53016,-0.20643 -0.19333,0.75745 0.0725,-0.55411 -0.3125,-0.53125 z m 12.1875,4.65665 c 0.29656,0.14688 -0.064,0.5806 0,0 z m 1.28125,0.0312 c 0.1328,0.24685 -0.27489,0.0266 0,0 z m -14.125,0.0625 c 0.59601,1.28344 2.74958,1.49457 2.54587,3.13019 1.04389,-0.41435 2.00277,0.90821 2.25783,1.64212 -0.97592,0.0763 -1.46295,-1.59469 -2.07448,-0.94342 -0.93668,-0.28547 -1.05554,-1.41253 -1.82934,-2.01487 -0.47593,-0.51662 -0.58768,-1.20876 -0.89988,-1.81402 z m 13.09375,0.0625 c 0.15152,-0.0613 -0.0132,0.17085 0,0 z m 0.84375,0.0625 c 0.34989,0.41995 -0.44497,0.16222 0,0 z m -1,0.2812 c 0.26162,0.11853 -0.19978,0.31756 0,0 z m -10.75,0.71875 c 0.55202,-0.0537 2.25503,0.446 0.79268,0.23977 -0.27249,-0.0428 -0.58081,-0.0261 -0.79268,-0.23977 z m 21.40625,0.875 c 0.86749,0.20938 -0.75087,0.53132 -0.0122,0.96019 -0.009,0.72849 -1.70103,1.37174 -0.89406,0.22731 0.46444,-0.48683 0.24088,-0.6931 0.90625,-1.1875 z m -1.5,1.7813 c 0.25643,0.89907 -1.5087,0.75217 -0.31183,0.21843 0.12338,-0.0449 0.21226,-0.13739 0.31183,-0.21843 z m -18.65625,1.00005 c 0.0734,0.24897 -0.3205,-0.0351 0,0 z m -0.96875,0.1875 c 0.14839,-0.0615 -0.005,0.17171 0,0 z m 19.1875,0.3125 c -0.36117,0.23737 0.3185,0.15939 0,0 z"
       inkscape:connector-curvature="0"
       sodipodi:nodetypes="ccccccccccccccccccccccccccccccccccccccccccccccccscccccccccccccccccccccccccccccccccccccccccccccccccccccccccccccccccccccccccccccccccccccccccccccccccccccccccccccccccccccccccccccccccccccccccccccccccccccccccccccccccccccccccccccc" />
    <path
       style="fill:#ffffff;stroke:none"
       d="m 439.65625,448.21875 -15,5.34375 0.6875,7.5 7.5,3.21875 -1.54911,0.38839 -2.01339,-0.0134 -15,5.34375 -12.125,8.9375 112.125,-0.71875 -6.78125,-7.875 -8.21875,-3.40625 1.0625,-4.09375 -8.5625,-5 -4.625,0.71875 -7.5,3.9375 0.34375,2.5 4.75,0.8125 -21.09375,-0.4375 12.0625,-3.21875 1.4375,-3.9375 L 465,451.0625 z"
       transform="translate(0,412.36218)"
       id="path5660"
       inkscape:connector-curvature="0"
       sodipodi:nodetypes="cccccccccccccccccccccc" />
  </g>
</svg>
