<?xml version="1.0" encoding="UTF-8" standalone="no"?>
<!-- Created with Inkscape (http://www.inkscape.org/) -->

<svg
   xmlns:dc="http://purl.org/dc/elements/1.1/"
   xmlns:cc="http://creativecommons.org/ns#"
   xmlns:rdf="http://www.w3.org/1999/02/22-rdf-syntax-ns#"
   xmlns:svg="http://www.w3.org/2000/svg"
   xmlns="http://www.w3.org/2000/svg"
   xmlns:sodipodi="http://sodipodi.sourceforge.net/DTD/sodipodi-0.dtd"
   xmlns:inkscape="http://www.inkscape.org/namespaces/inkscape"
   width="640"
   height="640"
   id="svg2"
   version="1.1"
   inkscape:version="0.48.4 r9939"
   sodipodi:docname="mountain.svg">
  <defs
     id="defs4">
    <clipPath
       clipPathUnits="userSpaceOnUse"
       id="clipPath61328-3-9">
      <path
         inkscape:connector-curvature="0"
         id="path61330-3-8"
         d="m 200,12.36217 40,0 0,40 -40,0 z"
         style="fill:#578dcb;fill-opacity:0.59722218;stroke:none" />
    </clipPath>
    <clipPath
       clipPathUnits="userSpaceOnUse"
       id="clipPath61177-8-5">
      <path
         style="fill:#578dcb;fill-opacity:0.59722218;stroke:none"
         d="m 0,-347.63783 40,0 0,40 -40,0 z"
         id="path61179-0-2"
         inkscape:connector-curvature="0" />
    </clipPath>
    <clipPath
       clipPathUnits="userSpaceOnUse"
       id="clipPath61173-7-9">
      <path
         style="fill:#578dcb;fill-opacity:0.59722218;stroke:none"
         d="m 40,-347.63783 -40,0 0,40 40,0 z"
         id="path61175-3-7"
         inkscape:connector-curvature="0" />
    </clipPath>
  </defs>
  <sodipodi:namedview
     id="base"
     pagecolor="#ffffff"
     bordercolor="#666666"
     borderopacity="1.0"
     inkscape:pageopacity="0.0"
     inkscape:pageshadow="2"
     inkscape:zoom="0.49497475"
     inkscape:cx="466.4912"
     inkscape:cy="229.95952"
     inkscape:document-units="px"
     inkscape:current-layer="layer1"
     showgrid="true"
     inkscape:window-width="1280"
     inkscape:window-height="750"
     inkscape:window-x="0"
     inkscape:window-y="25"
     inkscape:window-maximized="1">
    <inkscape:grid
       type="xygrid"
       id="grid9266"
       empspacing="4"
       visible="true"
       enabled="true"
       snapvisiblegridlinesonly="true"
       spacingx="40px"
       spacingy="40px" />
  </sodipodi:namedview>
  <metadata
     id="metadata7">
    <rdf:RDF>
      <cc:Work
         rdf:about="">
        <dc:format>image/svg+xml</dc:format>
        <dc:type
           rdf:resource="http://purl.org/dc/dcmitype/StillImage" />
        <dc:title />
      </cc:Work>
    </rdf:RDF>
  </metadata>
  <g
     inkscape:label="Ebene 1"
     inkscape:groupmode="layer"
     id="layer1"
     transform="translate(0,-412.36218)">
    <g
       transform="translate(589.71875,839.98717)"
       style="fill:#ffffff;stroke:#000000;display:inline"
       id="g21097" />
    <g
       id="g12322"
       transform="translate(104.71875,794.98716)"
       style="fill:#ffffff;fill-opacity:1;stroke:#000000;display:inline" />
    <g
       transform="translate(209.71875,1399.9872)"
       id="g22951"
       clip-path="none"
       style="fill:#ffffff;stroke:#000000;display:inline" />
    <path
       style="fill:#ffffff;stroke:none;display:inline"
       d="m 165.45104,926.36218 c -13.12353,-9.62022 -18.89935,-25.52003 -45.34156,11.76826 -26.39739,38.28867 -61.77743,74.43346 -105.099641,104.89676 -4.119199,2.754 -8.21653,6.1453 -12.400464,9.335 l 285.781225,0 c -4.46805,-2.5474 -8.83184,-5.3276 -12.93299,-8.5829 -15.48096,-13.6902 -26.42195,-32.8398 -40.39661,-48.40026 -20.6857,-25.23269 -48.04846,-43.48327 -69.60996,-69.01686 z"
       id="path13116"
       inkscape:connector-curvature="0"
       sodipodi:nodetypes="cccccccc" />
    <path
       inkscape:connector-curvature="0"
       style="fill:#ffffff;stroke:none;display:inline"
       d="m 375.5,957.86218 c -0.19924,4.58223 -7.14207,23.26577 -18.09375,40.4375 -5.79715,9.08962 -9.97355,15.68432 -16.1875,25.12502 -5.38514,8.1814 -7.95182,21.497 -9.03125,28.9375 l 268.8125,0 c -7.95312,-4.7837 -10,-10 -13.5,-15.5 -2.92147,-4.5909 -7.54265,-8.2559 -12.5,-10.5 -20.12077,-9.1083 -45.61613,-0.3856 -65.5,-10 -8.81196,-4.2609 -13.1022,-14.9718 -21.5,-20.00002 -34.00559,-20.36082 -112.5,-38.5 -112.5,-38.5 z"
       id="path5775"
       sodipodi:nodetypes="cssccssssc" />
    <path
       style="fill:#ffffff;stroke:none;display:inline"
       d="m 176.89506,587.99885 c -6.02295,18.39828 -13.80264,45.47768 -25.41008,60.72597 -9.01497,11.84265 -12.29792,34.78469 -26.79608,35.55216 -14.82837,0.78495 -19.0569,6.06732 -34.05612,4.7762 -13.57037,-1.16812 -14.39186,-7.99583 -24.12308,-11.13249 -2.74312,-5.79488 -7.22834,-3.44234 -11.55003,-17.84791 -9.5455,12.20204 -21.57669,31.98512 -30.789101,44.49407 -7.913003,8.67952 -12.967933,20.05608 -21.483069,27.79533 l 311.125,0 c -7.77657,-5.48 -15.41229,-11.71507 -22.14308,-16.8783 -11.34625,-8.70377 -24.54866,-15.6648 -32.9341,-28.01079 -8.4708,-12.47167 -15.49931,-26.1587 -22.34108,-39.86152 -6.51412,-13.04661 -14.31718,-25.20896 -21.81306,-37.5632 -6.32264,10.69282 -16.48096,14.10124 -24.09008,2.72926 -4.61806,-6.90178 -8.09155,-11.07563 -13.59604,-24.77878 z"
       id="path13162-6"
       inkscape:connector-curvature="0" />
    <path
       style="fill:#ffffff;stroke:none;display:inline"
       d="m 143.1204,764.98139 c -11.05273,13.6364 -21.13484,27.11325 -34.59958,38.84724 -20.31356,17.70247 -25.42842,38.86645 -54.37542,53.7618 -18.08255,9.30479 -34.072774,18.38353 -48.73915,34.77175 l 306.28125,0 c -1.68465,-2.77391 -4.10211,-5.57455 -7.42816,-8.36776 -26.83693,-20.74701 -58.33508,-27.36457 -81.74235,-53.71845 -20.43833,-15.69204 -34.60458,-43.35128 -52.22516,-68.2428 -5.94552,-3.11874 -19.60149,-3.49936 -27.17143,2.94822 z"
       id="path13188-9"
       inkscape:connector-curvature="0"
       sodipodi:nodetypes="csscccccc" />
    <path
       inkscape:connector-curvature="0"
       style="fill:#ffffff;stroke:none;display:inline"
       d="m 365.79622,687.58127 c -9.21541,14.64777 -27.05047,33.53581 -38.20247,44.78091 l 307.30574,0 c -9.92016,-21.96391 -26.07917,-56.46615 -32.26811,-62.34205 l -14.02669,7.90251 c -5.34065,-21.10991 -16.18462,-34.24422 -16.18462,-34.24422 -87.19268,48.07896 -153.46177,-42.33501 -206.62383,43.90285 z"
       id="path4983-3"
       sodipodi:nodetypes="ccccccc" />
    <path
       style="fill:#ffffff;stroke:none;display:inline"
       d="m 325,892.36218 305.5,0 c -16.82339,-12.78705 -29.55251,-25.7273 -54.45813,-39.87169 -14.51387,-8.24271 -16.92462,-12.22648 -29.28715,-15.88567 -14.06106,-5.161 -33.25532,-21.44924 -42.94893,-28.83983 -7.74199,-5.90266 -16.56863,-10.18914 -26.05579,-10.40281 -25.60204,-0.57661 -42.3721,23.85777 -62.23148,40 -11.55315,9.39073 -27.04325,9.17852 -38.74491,14.84924 -33.34995,16.16164 -34.93693,23.90164 -51.7736,40.15076 z"
       id="path34149-1"
       inkscape:connector-curvature="0"
       sodipodi:nodetypes="ccscssssc" />
    <path
       style="fill:#ffffff;stroke:none;display:inline"
       d="m 8,572.36218 293,0 c -19.5,-26.5 -41.85715,-80 -41.85715,-80 0,0 -16.37922,31.50736 -41.85715,40 -27.84105,9.28035 -53.57951,5.32871 -83.71428,0 -52.07173,-9.20781 -83.71428,-40 -83.71428,-40 0,0 -14.35714,43 -41.85714,80"
       id="path8209"
       inkscape:connector-curvature="0"
       sodipodi:nodetypes="cccsscc" />
    <path
       style="fill:#ffffff;stroke:none;display:inline"
       d="m 330,572.36218 304.74873,0 c 0,0 -24.84883,-56.07278 -43.53552,-80 -12.13,-15.53174 -21.70709,-19.4939 -41.41422,-19.49391 -19.70714,0 -27.29441,12.33904 -45.65686,19.49391 -40.56492,15.80601 -95.30257,2.5072 -132.72792,24.74873 C 345.31557,532.62109 330,572.36218 330,572.36218 z"
       id="path8211"
       inkscape:connector-curvature="0"
       sodipodi:nodetypes="ccssssc" />
    <path
       inkscape:connector-curvature="0"
       style="fill:#ffffff;stroke:none"
       d="m 119.84375,568.14343 c -13.24404,-0.0503 -26.479262,0.5376 -39.71875,0.71875 -13.193443,0.18051 -26.451589,-0.23413 -39.59375,0.375 -11.838968,0.54873 -32.9405553,2.65814 -37.5625,3.125 l 314.40625,0 c -4.04358,-0.49031 -26.46518,-3.18885 -38.9375,-3.78125 -12.74447,-0.60524 -25.60474,0.032 -38.40625,0.0625 -13.28889,0.0317 -26.55588,0.0366 -39.84375,0.125 -13.29962,0.0885 -26.60702,0.50811 -39.90625,0.40625 -13.49662,-0.10338 -26.9397,-0.97995 -40.4375,-1.03125 z"
       id="path3128-4" />
    <path
       inkscape:connector-curvature="0"
       style="fill:#ffffff;stroke:none"
       d="m 439.84375,568.14343 c -13.24404,-0.0503 -26.47926,0.5376 -39.71875,0.71875 -13.19344,0.18051 -26.45159,-0.23413 -39.59375,0.375 -11.83897,0.54873 -32.94056,2.65814 -37.5625,3.125 l 314.40625,0 c -4.04358,-0.49031 -26.46518,-3.18885 -38.9375,-3.78125 -12.74447,-0.60524 -25.60474,0.032 -38.40625,0.0625 -13.28889,0.0317 -26.55588,0.0366 -39.84375,0.125 -13.29962,0.0885 -26.60702,0.50811 -39.90625,0.40625 -13.49662,-0.10338 -26.9397,-0.97995 -40.4375,-1.03125 z"
       id="path3128-4-1" />
    <path
       inkscape:connector-curvature="0"
       style="fill:#ffffff;stroke:none"
       d="m 119.84375,728.14343 c -13.24404,-0.0503 -26.479262,0.5376 -39.71875,0.71875 -13.193443,0.18051 -26.451589,-0.23413 -39.59375,0.375 -11.838968,0.54873 -32.9405553,2.65814 -37.5625,3.125 l 314.40625,0 c -4.04358,-0.49031 -26.46518,-3.18885 -38.9375,-3.78125 -12.74447,-0.60524 -25.60474,0.032 -38.40625,0.0625 -13.28889,0.0317 -26.55588,0.0366 -39.84375,0.125 -13.29962,0.0885 -26.60702,0.50811 -39.90625,0.40625 -13.49662,-0.10338 -26.9397,-0.97995 -40.4375,-1.03125 z"
       id="path3128-4-9" />
    <path
       inkscape:connector-curvature="0"
       style="fill:#ffffff;stroke:none"
       d="m 119.84375,888.14343 c -13.24404,-0.0503 -26.479262,0.5376 -39.71875,0.71875 -13.193443,0.18051 -26.451589,-0.23413 -39.59375,0.375 -11.838968,0.54873 -32.9405553,2.65814 -37.5625,3.125 l 314.40625,0 c -4.04358,-0.49031 -26.46518,-3.18885 -38.9375,-3.78125 -12.74447,-0.60524 -25.60474,0.032 -38.40625,0.0625 -13.28889,0.0317 -26.55588,0.0366 -39.84375,0.125 -13.29962,0.0885 -26.60702,0.50811 -39.90625,0.40625 -13.49662,-0.10338 -26.9397,-0.97995 -40.4375,-1.03125 z"
       id="path3128-4-8" />
    <path
       inkscape:connector-curvature="0"
       style="fill:#ffffff;stroke:none"
       d="m 119.84375,1048.1434 c -13.24404,-0.05 -26.479262,0.5376 -39.71875,0.7188 -13.193443,0.1805 -26.451589,-0.2341 -39.59375,0.375 -11.838968,0.5487 -32.9405553,2.6581 -37.5625,3.125 l 314.40625,0 c -4.04358,-0.4903 -26.46518,-3.1889 -38.9375,-3.7813 -12.74447,-0.6052 -25.60474,0.032 -38.40625,0.062 -13.28889,0.032 -26.55588,0.037 -39.84375,0.125 -13.29962,0.089 -26.60702,0.5081 -39.90625,0.4063 -13.49662,-0.1034 -26.9397,-0.98 -40.4375,-1.0313 z"
       id="path3128-4-0" />
    <path
       inkscape:connector-curvature="0"
       style="fill:#ffffff;stroke:none"
       d="m 439.84375,1048.1434 c -13.24404,-0.05 -26.47926,0.5376 -39.71875,0.7188 -13.19344,0.1805 -26.45159,-0.2341 -39.59375,0.375 -11.83897,0.5487 -32.94056,2.6581 -37.5625,3.125 l 314.40625,0 c -4.04358,-0.4903 -26.46518,-3.1889 -38.9375,-3.7813 -12.74447,-0.6052 -25.60474,0.032 -38.40625,0.062 -13.28889,0.032 -26.55588,0.037 -39.84375,0.125 -13.29962,0.089 -26.60702,0.5081 -39.90625,0.4063 -13.49662,-0.1034 -26.9397,-0.98 -40.4375,-1.0313 z"
       id="path3128-4-7" />
    <path
       inkscape:connector-curvature="0"
       style="fill:#ffffff;stroke:none"
       d="m 439.84375,888.14343 c -13.24404,-0.0503 -26.47926,0.5376 -39.71875,0.71875 -13.19344,0.18051 -26.45159,-0.23413 -39.59375,0.375 -11.83897,0.54873 -32.94056,2.65814 -37.5625,3.125 l 314.40625,0 c -4.04358,-0.49031 -26.46518,-3.18885 -38.9375,-3.78125 -12.74447,-0.60524 -25.60474,0.032 -38.40625,0.0625 -13.28889,0.0317 -26.55588,0.0366 -39.84375,0.125 -13.29962,0.0885 -26.60702,0.50811 -39.90625,0.40625 -13.49662,-0.10338 -26.9397,-0.97995 -40.4375,-1.03125 z"
       id="path3128-4-93" />
    <path
       inkscape:connector-curvature="0"
       style="fill:#ffffff;stroke:none"
       d="m 439.84375,728.14343 c -13.24404,-0.0503 -26.47926,0.5376 -39.71875,0.71875 -13.19344,0.18051 -26.45159,-0.23413 -39.59375,0.375 -11.83897,0.54873 -32.94056,2.65814 -37.5625,3.125 l 314.40625,0 c -4.04358,-0.49031 -26.46518,-3.18885 -38.9375,-3.78125 -12.74447,-0.60524 -25.60474,0.032 -38.40625,0.0625 -13.28889,0.0317 -26.55588,0.0366 -39.84375,0.125 -13.29962,0.0885 -26.60702,0.50811 -39.90625,0.40625 -13.49662,-0.10338 -26.9397,-0.97995 -40.4375,-1.03125 z"
       id="path3128-4-82" />
  </g>
</svg>
