<?xml version="1.0" encoding="UTF-8" standalone="no"?>
<!-- Created with Inkscape (http://www.inkscape.org/) -->

<svg
   xmlns:dc="http://purl.org/dc/elements/1.1/"
   xmlns:cc="http://creativecommons.org/ns#"
   xmlns:rdf="http://www.w3.org/1999/02/22-rdf-syntax-ns#"
   xmlns:svg="http://www.w3.org/2000/svg"
   xmlns="http://www.w3.org/2000/svg"
   xmlns:sodipodi="http://sodipodi.sourceforge.net/DTD/sodipodi-0.dtd"
   xmlns:inkscape="http://www.inkscape.org/namespaces/inkscape"
   width="640"
   height="640"
   id="svg2"
   version="1.1"
   inkscape:version="0.48.4 r9939"
   sodipodi:docname="sky.svg">
  <defs
     id="defs4" />
  <sodipodi:namedview
     id="base"
     pagecolor="#ffffff"
     bordercolor="#666666"
     borderopacity="1.0"
     inkscape:pageopacity="0.0"
     inkscape:pageshadow="2"
     inkscape:zoom="0.49497475"
     inkscape:cx="512.05597"
     inkscape:cy="283.60511"
     inkscape:document-units="px"
     inkscape:current-layer="layer1"
     showgrid="false"
     inkscape:window-width="1280"
     inkscape:window-height="750"
     inkscape:window-x="0"
     inkscape:window-y="25"
     inkscape:window-maximized="1">
    <inkscape:grid
       type="xygrid"
       id="grid9266"
       empspacing="4"
       visible="true"
       enabled="true"
       snapvisiblegridlinesonly="true"
       spacingx="40px"
       spacingy="40px" />
  </sodipodi:namedview>
  <metadata
     id="metadata7">
    <rdf:RDF>
      <cc:Work
         rdf:about="">
        <dc:format>image/svg+xml</dc:format>
        <dc:type
           rdf:resource="http://purl.org/dc/dcmitype/StillImage" />
        <dc:title />
      </cc:Work>
    </rdf:RDF>
  </metadata>
  <g
     inkscape:label="Ebene 1"
     inkscape:groupmode="layer"
     id="layer1"
     transform="translate(0,-412.36218)">
    <path
       style="fill:#ffffff;fill-opacity:1;stroke:none"
       d="m 169.9375,431.11223 c -4.43134,0 -8.48762,1.44337 -11.5625,3.8125 -1.85078,-1.28431 -4.14001,-2.03125 -6.625,-2.03125 -4.79976,0 -8.88358,2.8409 -10.4375,6.8125 -1.94121,-0.64931 -4.04576,-1 -6.25,-1 -3.78773,0 -7.26637,1.02772 -10.125,2.8125 -1.93401,-3.04752 -5.48768,-5.09375 -9.5625,-5.09375 -6.13681,0 -11.125,4.62536 -11.125,10.34375 0,0.0314 -3e-4,0.0624 0,0.0937 -0.49579,-0.0369 -0.99323,-0.0937 -1.5,-0.0937 -8.482234,0 -15.536794,5.26988 -17.093754,12.25 -5.23064,0.50452 -9.74515,3.00506 -12.53125,6.625 -2.07725,-0.76028 -4.35483,-1.1875 -6.75,-1.1875 -9.62363,0 -17.40625,6.78787 -17.40625,15.15625 0,2.35361 0.61755,4.57524 1.71875,6.5625 -1.44444,-0.64011 -3.04408,-1 -4.75,-1 -6.13681,0 -11.125,4.62536 -11.125,10.34375 0,1.88169 0.5585,3.63563 1.5,5.15625 -6.755,2.08613 -11.69527,7.69264 -11.59375,14.28125 0.0276,1.7907 0.088,2.56822 0.25,4.8125 0.16895,2.33986 2.1758,4.43557 5.90625,6.75 2.17324,1.34831 4.53577,2.59813 7.25,3.15625 22.39253,8.01432 71.039684,13.5625 127.500004,13.5625 56.18859,0 104.6825,-5.48539 127.21875,-13.4375 0.009,-0.003 0.0218,0.003 0.0312,0 3.24122,-0.57674 6.15559,-1.93888 8.46875,-3.84375 3.21279,-1.97043 4.9375,-4.04711 4.9375,-6.1875 0,-0.28869 -0.0319,-0.58884 -0.0937,-0.875 0.389,-1.25785 0.625,-2.57283 0.625,-3.9375 0,-6.71876 -5.03674,-12.42113 -12,-14.40625 0.075,-0.5707 0.125,-1.16184 0.125,-1.75 0,-7.46257 -6.20728,-13.65093 -14.375,-14.90625 -2.12913,-6.27711 -8.77901,-10.84375 -16.6875,-10.84375 -0.46447,0 -0.91969,0.0315 -1.375,0.0625 -0.57554,-0.42543 -1.17617,-0.82912 -1.8125,-1.1875 1.05236,-1.58227 1.65625,-3.43915 1.65625,-5.4375 0,-5.71839 -4.95694,-10.375 -11.09375,-10.375 -0.22795,0 -0.46295,0.0186 -0.6875,0.0312 0.27268,-1.0648 0.4375,-2.17627 0.4375,-3.3125 0,-8.36838 -7.81387,-15.15625 -17.4375,-15.15625 -6.8445,0 -12.74375,3.44501 -15.59375,8.4375 -2.09467,-6.32451 -8.7715,-10.96875 -16.71875,-10.96875 -6.10358,0 -11.48149,2.74386 -14.59375,6.875 -2.11375,-6.29836 -8.79288,-10.90625 -16.71875,-10.90625 z"
       id="path59124"
       inkscape:connector-curvature="0"
       sodipodi:nodetypes="scscscsscsccsscsscssscscccscscscsccsscsscscs" />
    <path
       style="fill:#ffffff;stroke:none"
       d="m 91,189.21875 c -0.35451,9e-5 -0.711606,0.0259 -1.0625,0.0937 -3.070321,0.59396 -5.302971,3.73324 -6.375,8.1875 -2.992849,-2.02625 -6.760339,-3.21875 -10.84375,-3.21875 -8.90438,0 -16.241738,5.72372 -17.46875,13.1875 -0.882423,0.45402 -7.105791,0.59795 -7.982143,1.14286 -4.647026,2.88948 -2.892636,6.86419 -4.924107,10.35714 -8.522335,1.10188 -15.0625,7.45439 -15.0625,15.1875 0,2.46048 0.66657,4.78059 1.84375,6.84375 -7.822681,1.37122 -13.46875,5.27091 -13.46875,9.84375 0,1.0722 0.299464,2.08985 0.875,3.0625 -1.432984,2.32973 -2.11852,5.35423 -1.375,9.3125 4.098395,21.8186 29.782027,21.67559 55.875,22.6875 29.91741,1.16022 59.26504,-3.63334 88.65625,-6.78125 0.45727,-0.18643 0.86064,-0.37374 1.28125,-0.5625 19.17698,7.63346 42.86483,4.67456 62.875,3.0625 21.2692,-1.71349 59.64996,-11.14953 56,-37 -1.53636,-10.88114 -13.99184,-12.2185 -23.78125,-12.0625 -7.88876,-8.05407 -11.55843,-2.07211 -16.01655,1.34492 -8.65869,-6.14469 -13.22075,-1.24071 -17.17095,2.93633 -11.36789,-3.27154 -19.45481,0.53212 -25.31772,8.98857 -10.08364,0.73363 -18.12384,4.18239 -22.40103,11.88643 0.0603,-0.51787 0.0937,-1.03076 0.0937,-1.5625 0,-7.07111 -5.45454,-13.033 -12.90625,-14.84375 -1.50805,-4.79082 -9.25747,-8.45166 -18.71875,-8.625 0.84839,-1.80198 1.34375,-3.7754 1.34375,-5.84375 0,-8.50785 -7.92439,-15.40625 -17.6875,-15.40625 -0.78454,0 -1.55499,0.0699 -2.3125,0.15625 -1.43862,-7.24811 -8.64638,-12.78125 -17.375,-12.78125 -2.0422,0 -4.01883,0.31983 -5.84375,0.875 C 99.109408,193.39321 94.977404,189.21779 91,189.21875 z"
       transform="translate(0,412.36218)"
       id="path59364"
       inkscape:connector-curvature="0"
       sodipodi:nodetypes="cscscscscscssccsscccccsccsscscc" />
    <path
       style="fill:#ffffff;stroke:none;stroke-width:1px;stroke-linecap:butt;stroke-linejoin:miter;stroke-opacity:1"
       d="m 358.28172,651.612 c -11.0501,29.75662 -10.90337,40.05334 21.05718,46.86283 30.09324,6.41165 61.40506,9.23836 90.5379,2.27621 28.79695,-6.88188 21.17647,-61.25728 -7.67529,-66.81022 -26.70564,-5.13989 -44.94645,-13.54143 -70.65556,-3.60957 -5.28419,2.04137 -27.98381,7.0612 -33.26423,21.28075 z"
       id="path59460"
       inkscape:connector-curvature="0"
       sodipodi:nodetypes="ssssss" />
    <path
       style="fill:#ffffff;stroke:none;stroke-width:1px;stroke-linecap:butt;stroke-linejoin:miter;stroke-opacity:1"
       d="m 520.85703,683.08353 c 4.57791,25.85249 47.96579,21.06921 67.32019,11.17924 19.45808,-9.94295 30.82325,-29.47707 11.1911,-44.33266 -13.02233,-9.85397 -15.31951,-9.8839 -24.36831,-9.71078 -19.88274,0.3804 -58.86855,16.17782 -54.14298,42.8642 z"
       id="path59462"
       inkscape:connector-curvature="0"
       sodipodi:nodetypes="sssss" />
    <path
       style="fill:#ffffff;stroke:none;stroke-width:1px;stroke-linecap:butt;stroke-linejoin:miter;stroke-opacity:1"
       d="M 138.5625 335.1875 C 131.90227 335.1875 126.41052 340.04103 125.625 346.3125 C 121.48836 347.84375 118.5625 351.48029 118.5625 355.71875 C 118.5625 356.97268 118.84685 358.172 119.3125 359.28125 C 118.60771 359.16018 117.90073 359.09375 117.15625 359.09375 C 110.84442 359.09375 105.71875 363.65978 105.71875 369.28125 C 105.71875 371.41962 106.45383 373.39315 107.71875 375.03125 C 105.50459 375.96615 103.9375 378.48742 103.9375 381.4375 C 103.9375 382.31424 104.05757 383.13699 104.3125 383.90625 C 102.01997 384.78903 100.34375 387.3272 100.34375 390.34375 C 100.34375 392.57856 101.28378 394.54486 102.6875 395.78125 C 101.6815 396.84872 100.88559 398.09479 100.4375 399.46875 C 98.735929 398.67689 96.824706 398.21875 94.8125 398.21875 C 91.19643 398.21875 87.923992 399.65598 85.5625 401.96875 C 84.589884 401.72899 83.558296 401.59375 82.5 401.59375 C 78.306472 401.59375 74.644598 403.62616 72.65625 406.625 C 71.956099 406.26159 71.156725 406.0625 70.34375 406.0625 C 68.568549 406.0625 66.985584 407.02314 65.9375 408.53125 C 63.853283 406.05007 60.528156 404.46875 56.78125 404.46875 C 51.184715 404.46875 46.546133 408.05051 45.5625 412.78125 C 44.609113 411.93457 43.43834 411.4375 42.15625 411.4375 C 41.093638 411.4375 40.071026 411.77503 39.21875 412.375 C 38.176681 410.72032 36.530073 409.65625 34.65625 409.65625 C 32.211503 409.65625 30.128567 411.46744 29.3125 414.03125 C 28.078137 413.62492 26.736664 413.40625 25.34375 413.40625 C 19.031924 413.40625 13.9375 417.94103 13.9375 423.5625 C 13.9375 429.18397 19.031924 433.75 25.34375 433.75 C 26.234028 433.75 27.105778 433.64027 27.9375 433.46875 C 28.1262 433.93298 28.31689 434.35781 28.5625 434.65625 C 45.367354 455.07618 76.325351 454.78569 102.5 458.5625 C 141.72075 464.22177 215.48855 451.25864 221.0625 450 C 232.13393 447.5 273.89473 445.64707 285 425.71875 C 285.82607 424.23637 286.18151 422.52012 286.21875 420.71875 C 287.36394 418.83213 288.03125 416.63076 288.03125 414.28125 C 288.03125 411.65543 287.21807 409.21101 285.8125 407.1875 C 286.20018 406.16473 286.4375 405.07678 286.4375 403.9375 C 286.4375 398.31603 281.31183 393.75 275 393.75 C 273.22265 393.75 271.56276 394.13654 270.0625 394.78125 C 267.67156 391.96347 264.04968 390.1875 260 390.1875 C 256.81876 390.1875 253.91925 391.2837 251.65625 393.125 C 250.06489 393.65719 248.76517 394.97736 248.0625 396.71875 C 245.97654 394.25678 242.66738 392.6875 238.9375 392.6875 C 234.59812 392.6875 230.81031 394.82708 228.875 398 C 227.54084 393.69685 223.09969 390.53125 217.84375 390.53125 C 214.4947 390.53125 211.49656 391.83078 209.40625 393.875 C 208.53844 393.24371 207.52976 392.84375 206.4375 392.84375 C 204.4519 392.84375 202.68041 394.04968 201.65625 395.875 C 200.98328 395.39168 200.26322 394.97688 199.5 394.625 C 199.17257 392.8568 198.27059 391.32984 197.03125 390.375 C 197.33227 389.46305 197.5 388.49873 197.5 387.5 C 197.5 383.55864 194.99143 380.15987 191.3125 378.46875 C 193.77999 376.60172 195.34375 373.8283 195.34375 370.71875 C 195.34375 365.68241 191.23763 361.50353 185.84375 360.6875 C 185.87267 360.34283 185.90625 360.00817 185.90625 359.65625 C 185.90625 352.65407 180.04318 346.96875 172.84375 346.96875 C 172.46861 346.96875 172.1171 347.00104 171.75 347.03125 C 170.45195 342.67968 166.01331 339.46875 160.71875 339.46875 C 157.11728 339.46875 153.90727 340.9315 151.8125 343.25 C 151.22018 342.24722 150.42115 341.441 149.46875 340.9375 C 147.14061 337.48002 143.12919 335.1875 138.5625 335.1875 z "
       transform="translate(0,412.36218)"
       id="path59481" />
    <path
       sodipodi:type="arc"
       style="fill:#ffffff;fill-opacity:1;stroke:none"
       id="path59944"
       sodipodi:cx="353.04831"
       sodipodi:cy="244.52528"
       sodipodi:rx="10.101525"
       sodipodi:ry="13.637059"
       d="m 363.14983,244.52528 a 10.101525,13.637059 0 1 1 -20.20305,0 10.101525,13.637059 0 1 1 20.20305,0 z"
       transform="translate(0,412.36218)" />
    <path
       sodipodi:type="arc"
       style="fill:#ffffff;fill-opacity:1;stroke:none"
       id="path59946"
       sodipodi:cx="359.36176"
       sodipodi:cy="240.23213"
       sodipodi:rx="3.7880721"
       sodipodi:ry="0.25253814"
       d="m 363.14983,240.23213 a 3.7880721,0.25253814 0 1 1 -7.57615,0 3.7880721,0.25253814 0 1 1 7.57615,0 z"
       transform="translate(0,412.36218)" />
    <path
       sodipodi:type="arc"
       style="fill:#ffffff;fill-opacity:1;stroke:none"
       id="path59948"
       sodipodi:cx="374.51407"
       sodipodi:cy="232.90852"
       sodipodi:rx="13.384521"
       sodipodi:ry="12.626906"
       d="m 387.89859,232.90852 a 13.384521,12.626906 0 1 1 -26.76904,0 13.384521,12.626906 0 1 1 26.76904,0 z"
       transform="translate(0,412.36218)" />
    <path
       sodipodi:type="arc"
       style="fill:#ffffff;fill-opacity:1;stroke:none"
       id="path59950"
       sodipodi:cx="394.21204"
       sodipodi:cy="220.53415"
       sodipodi:rx="19.445436"
       sodipodi:ry="12.374369"
       d="m 413.65747,220.53415 a 19.445436,12.374369 0 1 1 -38.89087,0 19.445436,12.374369 0 1 1 38.89087,0 z"
       transform="translate(0,412.36218)" />
    <path
       sodipodi:type="arc"
       style="fill:#ffffff;fill-opacity:1;stroke:none"
       id="path59952"
       sodipodi:cx="423.25391"
       sodipodi:cy="216.99863"
       sodipodi:rx="21.213203"
       sodipodi:ry="11.364216"
       d="m 444.46711,216.99863 a 21.213203,11.364216 0 1 1 -42.42641,0 21.213203,11.364216 0 1 1 42.42641,0 z"
       transform="translate(0,412.36218)" />
    <path
       sodipodi:type="arc"
       style="fill:#ffffff;fill-opacity:1;stroke:none"
       id="path59954"
       sodipodi:cx="461.89224"
       sodipodi:cy="226.84761"
       sodipodi:rx="16.414978"
       sodipodi:ry="11.111678"
       d="m 478.30722,226.84761 a 16.414978,11.111678 0 1 1 -32.82996,0 16.414978,11.111678 0 1 1 32.82996,0 z"
       transform="translate(0,412.36218)" />
    <path
       sodipodi:type="arc"
       style="fill:#ffffff;fill-opacity:1;stroke:none"
       id="path59956"
       sodipodi:cx="480.07501"
       sodipodi:cy="245.2829"
       sodipodi:rx="21.465742"
       sodipodi:ry="18.435284"
       d="m 501.54075,245.2829 a 21.465742,18.435284 0 1 1 -42.93148,0 21.465742,18.435284 0 1 1 42.93148,0 z"
       transform="translate(0,412.36218)" />
    <path
       sodipodi:type="arc"
       style="fill:#ffffff;fill-opacity:1;stroke:none"
       id="path59958"
       sodipodi:cx="450.27548"
       sodipodi:cy="226.59508"
       sodipodi:rx="18.940361"
       sodipodi:ry="15.404826"
       d="m 469.21584,226.59508 a 18.940361,15.404826 0 1 1 -37.88072,0 18.940361,15.404826 0 1 1 37.88072,0 z"
       transform="translate(0,412.36218)" />
    <path
       sodipodi:type="arc"
       style="fill:#ffffff;fill-opacity:1;stroke:none"
       id="path59960"
       sodipodi:cx="481.33768"
       sodipodi:cy="264.98087"
       sodipodi:rx="18.182745"
       sodipodi:ry="19.950512"
       d="m 499.52042,264.98087 a 18.182745,19.950512 0 1 1 -36.36549,0 18.182745,19.950512 0 1 1 36.36549,0 z"
       transform="translate(0,412.36218)" />
    <path
       sodipodi:type="arc"
       style="fill:#ffffff;fill-opacity:1;stroke:none"
       id="path59962"
       sodipodi:cx="363.65491"
       sodipodi:cy="234.17122"
       sodipodi:rx="8.0812206"
       sodipodi:ry="7.323606"
       d="m 371.73613,234.17122 a 8.0812206,7.323606 0 1 1 -16.16244,0 8.0812206,7.323606 0 1 1 16.16244,0 z"
       transform="translate(0,412.36218)" />
    <path
       sodipodi:type="arc"
       style="fill:#ffffff;fill-opacity:1;stroke:none"
       id="path59964"
       sodipodi:cx="353.30084"
       sodipodi:cy="259.67758"
       sodipodi:rx="14.394673"
       sodipodi:ry="15.152288"
       d="m 367.69552,259.67758 a 14.394673,15.152288 0 1 1 -28.78935,0 14.394673,15.152288 0 1 1 28.78935,0 z"
       transform="translate(0,412.36218)" />
    <path
       sodipodi:type="arc"
       style="fill:#ffffff;fill-opacity:1;stroke:none"
       id="path59966"
       sodipodi:cx="545.48236"
       sodipodi:cy="239.72705"
       sodipodi:rx="16.667517"
       sodipodi:ry="11.364216"
       d="m 562.14988,239.72705 a 16.667517,11.364216 0 1 1 -33.33504,0 16.667517,11.364216 0 1 1 33.33504,0 z"
       transform="translate(0,412.36218)" />
    <path
       sodipodi:type="arc"
       style="fill:#ffffff;fill-opacity:1;stroke:none"
       id="path59968"
       sodipodi:cx="596.49506"
       sodipodi:cy="251.34381"
       sodipodi:rx="17.67767"
       sodipodi:ry="13.384521"
       d="m 614.17273,251.34381 a 17.67767,13.384521 0 1 1 -35.35534,0 17.67767,13.384521 0 1 1 35.35534,0 z"
       transform="translate(0,412.36218)" />
    <path
       sodipodi:type="arc"
       style="fill:#ffffff;fill-opacity:1;stroke:none"
       id="path59970"
       sodipodi:cx="588.41388"
       sodipodi:cy="236.44406"
       sodipodi:rx="15.152288"
       sodipodi:ry="12.626906"
       d="m 603.56617,236.44406 a 15.152288,12.626906 0 1 1 -30.30458,0 15.152288,12.626906 0 1 1 30.30458,0 z"
       transform="translate(0,412.36218)" />
    <path
       sodipodi:type="arc"
       style="fill:#ffffff;fill-opacity:1;stroke:none"
       id="path59972"
       sodipodi:cx="564.42273"
       sodipodi:cy="229.87807"
       sodipodi:rx="16.414978"
       sodipodi:ry="13.637059"
       d="m 580.83771,229.87807 a 16.414978,13.637059 0 1 1 -32.82996,0 16.414978,13.637059 0 1 1 32.82996,0 z"
       transform="translate(0,412.36218)" />
    <path
       sodipodi:type="arc"
       style="fill:#ffffff;fill-opacity:1;stroke:none"
       id="path59974"
       sodipodi:cx="527.55219"
       sodipodi:cy="248.81842"
       sodipodi:rx="9.8489876"
       sodipodi:ry="11.869292"
       d="m 537.40117,248.81842 a 9.8489876,11.869292 0 1 1 -19.69797,0 9.8489876,11.869292 0 1 1 19.69797,0 z"
       transform="translate(0,412.36218)" />
    <path
       sodipodi:type="arc"
       style="fill:#ffffff;fill-opacity:1;stroke:none"
       id="path59976"
       sodipodi:cx="77.024132"
       sodipodi:cy="579.89594"
       sodipodi:rx="20.960665"
       sodipodi:ry="17.67767"
       d="m 97.984797,579.89594 a 20.960665,17.67767 0 1 1 -41.92133,0 20.960665,17.67767 0 1 1 41.92133,0 z"
       transform="translate(0,412.36218)" />
    <path
       sodipodi:type="arc"
       style="fill:#ffffff;fill-opacity:1;stroke:none"
       id="path59978"
       sodipodi:cx="99.500023"
       sodipodi:cy="574.84515"
       sodipodi:rx="13.131983"
       sodipodi:ry="9.0913725"
       d="m 112.63201,574.84515 a 13.131983,9.0913725 0 1 1 -26.26397,0 13.131983,9.0913725 0 1 1 26.26397,0 z"
       transform="translate(0,412.36218)" />
    <path
       sodipodi:type="arc"
       style="fill:#ffffff;fill-opacity:1;stroke:none"
       id="path59980"
       sodipodi:cx="51.265244"
       sodipodi:cy="568.53168"
       sodipodi:rx="11.869292"
       sodipodi:ry="8.3337584"
       d="m 63.134536,568.53168 a 11.869292,8.3337584 0 1 1 -23.738585,0 11.869292,8.3337584 0 1 1 23.738585,0 z"
       transform="translate(0,412.36218)" />
    <path
       sodipodi:type="arc"
       style="fill:#ffffff;fill-opacity:1;stroke:none"
       id="path59982"
       sodipodi:cx="63.892147"
       sodipodi:cy="566.00635"
       sodipodi:rx="9.3439112"
       sodipodi:ry="10.354064"
       d="m 73.236058,566.00635 a 9.3439112,10.354064 0 1 1 -18.687822,0 9.3439112,10.354064 0 1 1 18.687822,0 z"
       transform="translate(0,412.36218)" />
    <path
       sodipodi:type="arc"
       style="fill:#ffffff;fill-opacity:1;stroke:none"
       id="path59984"
       sodipodi:cx="90.408653"
       sodipodi:cy="565.75378"
       sodipodi:rx="8.586297"
       sodipodi:ry="5.5558391"
       d="m 98.99495,565.75378 a 8.586297,5.5558391 0 1 1 -17.172594,0 8.586297,5.5558391 0 1 1 17.172594,0 z"
       transform="translate(0,412.36218)" />
  </g>
</svg>
