<?xml version="1.0" encoding="UTF-8" standalone="no"?>
<!-- Created with Inkscape (http://www.inkscape.org/) -->

<svg
   xmlns:dc="http://purl.org/dc/elements/1.1/"
   xmlns:cc="http://creativecommons.org/ns#"
   xmlns:rdf="http://www.w3.org/1999/02/22-rdf-syntax-ns#"
   xmlns:svg="http://www.w3.org/2000/svg"
   xmlns="http://www.w3.org/2000/svg"
   xmlns:xlink="http://www.w3.org/1999/xlink"
   xmlns:sodipodi="http://sodipodi.sourceforge.net/DTD/sodipodi-0.dtd"
   xmlns:inkscape="http://www.inkscape.org/namespaces/inkscape"
   inkscape:export-ydpi="90"
   inkscape:export-xdpi="90"
   inkscape:export-filename="/home/micha/Programmieren/git/platformer/images/menu/exitOff.png"
   sodipodi:docname="cancelOff.svg"
   inkscape:version="0.48.4 r9939"
   version="1.1"
   id="svg2"
   height="50"
   width="50">
  <sodipodi:namedview
     id="base"
     pagecolor="#000000"
     bordercolor="#666666"
     borderopacity="1.0"
     inkscape:pageopacity="0.0"
     inkscape:pageshadow="2"
     inkscape:zoom="8.9199999"
     inkscape:cx="36.394285"
     inkscape:cy="28.448857"
     inkscape:document-units="px"
     inkscape:current-layer="g14272"
     showgrid="true"
     inkscape:showpageshadow="true"
     inkscape:window-width="1920"
     inkscape:window-height="1025"
     inkscape:window-x="0"
     inkscape:window-y="27"
     inkscape:window-maximized="1"
     inkscape:snap-global="false">
    <inkscape:grid
       originy="0px"
       originx="0px"
       spacingy="10px"
       spacingx="10px"
       snapvisiblegridlinesonly="true"
       enabled="true"
       visible="true"
       empspacing="5"
       id="grid2985"
       type="xygrid" />
  </sodipodi:namedview>
  <defs
     id="defs4">
    <radialGradient
       inkscape:collect="always"
       xlink:href="#linearGradient4966"
       id="radialGradient4996"
       cx="48.959854"
       cy="113.76012"
       fx="48.959854"
       fy="113.76012"
       r="33.720188"
       gradientTransform="matrix(1.0212046,-0.00818988,0.00989763,1.234145,-1.91603,824.10995)"
       gradientUnits="userSpaceOnUse" />
    <linearGradient
       inkscape:collect="always"
       id="linearGradient4966">
      <stop
         style="stop-color:#976811;stop-opacity:1"
         offset="0"
         id="stop4968" />
      <stop
         style="stop-color:#e69f1a;stop-opacity:1"
         offset="1"
         id="stop4970" />
    </linearGradient>
    <radialGradient
       inkscape:collect="always"
       xlink:href="#linearGradient14093"
       id="radialGradient14091"
       gradientUnits="userSpaceOnUse"
       gradientTransform="matrix(1.5293504,-0.00840526,0.01103297,2.0074679,-29.70022,-154.49248)"
       cx="50.879539"
       cy="145.5582"
       fx="50.879539"
       fy="145.5582"
       r="36.474957" />
    <linearGradient
       id="linearGradient14093"
       inkscape:collect="always">
      <stop
         id="stop14095"
         offset="0"
         style="stop-color:#4e83b6;stop-opacity:0.90980393" />
      <stop
         id="stop14097"
         offset="1"
         style="stop-color:#85afd6;stop-opacity:0.58447486" />
    </linearGradient>
  </defs>
  <metadata
     id="metadata7">
    <rdf:RDF>
      <cc:Work
         rdf:about="">
        <dc:format>image/svg+xml</dc:format>
        <dc:type
           rdf:resource="http://purl.org/dc/dcmitype/StillImage" />
        <dc:title />
      </cc:Work>
    </rdf:RDF>
  </metadata>
  <g
     transform="translate(0,-1002.3622)"
     id="layer1"
     inkscape:groupmode="layer"
     inkscape:label="Ebene 1">
    <g
       transform="matrix(0.15152543,0,0,0.15152543,15.731172,880.48725)"
       id="g14272">
      <path
         sodipodi:nodetypes="cccccccccccccccccccc"
         inkscape:connector-curvature="0"
         id="path4225"
         d="m -40.900472,854.1944 c -17.733868,5.70671 -6.359797,24.12403 2.274477,32.74427 20.919901,26.27696 26.905067,35.01729 47.7228332,61.34701 2.8457968,9.83338 20.5567048,20.03364 9.2790958,28.70825 -18.0243091,20.16858 -19.6825103,23.18087 -38.613776,42.45567 -13.146078,11.8004 -24.173987,25.896 -34.123345,40.4139 -11.041003,13.6208 6.839445,27.8309 19.320375,17.8551 14.425209,-8.2844 28.9565937,-16.6189 40.9743253,-28.3016 23.7690017,-18.8494 27.8421497,-24.1512 53.6694997,-40.1504 16.808306,12.471 33.335397,25.3017 47.675257,40.6278 17.78252,17.3243 19.6816,18.344 40.73557,31.7287 16.45533,13.08 33.60659,-10.207 19.32664,-23.7735 -20.57465,-32.3014 -32.52918,-42.2179 -53.51196,-74.228 -16.738197,-13.05207 3.72963,-27.58814 11.60813,-39.38353 20.46593,-21.01883 28.60244,-28.58055 45.35989,-52.91035 12.07618,-19.55801 -15.9179,-28.41107 -26.75042,-13.42743 -22.06562,16.57216 -28.74862,22.37764 -50.751186,39.03535 -13.39932,11.5789 -31.049658,16.90712 -43.925136,2.09457 -29.807579,-24.77587 -45.5367586,-39.57769 -78.714315,-62.79061 -3.662065,-1.25842 -7.619498,-2.71512 -11.555955,-2.0452 z"
         style="fill:#800000;fill-opacity:1;stroke:#000000;stroke-width:13.1991046;stroke-linecap:round;stroke-linejoin:round;stroke-miterlimit:4;stroke-opacity:1;stroke-dasharray:none" />
    </g>
  </g>
</svg>
