<?xml version="1.0" encoding="UTF-8" standalone="no"?>
<!-- Created with Inkscape (http://www.inkscape.org/) -->

<svg
   xmlns:dc="http://purl.org/dc/elements/1.1/"
   xmlns:cc="http://creativecommons.org/ns#"
   xmlns:rdf="http://www.w3.org/1999/02/22-rdf-syntax-ns#"
   xmlns:svg="http://www.w3.org/2000/svg"
   xmlns="http://www.w3.org/2000/svg"
   xmlns:sodipodi="http://sodipodi.sourceforge.net/DTD/sodipodi-0.dtd"
   xmlns:inkscape="http://www.inkscape.org/namespaces/inkscape"
   inkscape:export-ydpi="90"
   inkscape:export-xdpi="90"
   inkscape:export-filename="/home/micha/Programmieren/git/platformer/images/menu/exitOff.png"
   sodipodi:docname="creditsOff.svg"
   inkscape:version="0.48.2 r9819"
   version="1.1"
   id="svg2"
   height="50"
   width="50">
  <sodipodi:namedview
     id="base"
     pagecolor="#000000"
     bordercolor="#666666"
     borderopacity="1.0"
     inkscape:pageopacity="0.0"
     inkscape:pageshadow="2"
     inkscape:zoom="11.313708"
     inkscape:cx="22.407275"
     inkscape:cy="21.232513"
     inkscape:document-units="px"
     inkscape:current-layer="g3799-7-3-2"
     showgrid="false"
     inkscape:showpageshadow="true"
     inkscape:window-width="1280"
     inkscape:window-height="750"
     inkscape:window-x="0"
     inkscape:window-y="25"
     inkscape:window-maximized="1"
     inkscape:snap-global="false">
    <inkscape:grid
       originy="0px"
       originx="0px"
       spacingy="10px"
       spacingx="10px"
       snapvisiblegridlinesonly="true"
       enabled="true"
       visible="true"
       empspacing="5"
       id="grid2985"
       type="xygrid" />
  </sodipodi:namedview>
  <defs
     id="defs4" />
  <metadata
     id="metadata7">
    <rdf:RDF>
      <cc:Work
         rdf:about="">
        <dc:format>image/svg+xml</dc:format>
        <dc:type
           rdf:resource="http://purl.org/dc/dcmitype/StillImage" />
        <dc:title></dc:title>
      </cc:Work>
    </rdf:RDF>
  </metadata>
  <g
     transform="translate(0,-1002.3622)"
     id="layer1"
     inkscape:groupmode="layer"
     inkscape:label="Ebene 1">
    <g
       id="g18258"
       transform="matrix(1.0453433,0,0,1.1024711,-137.211,128.21256)">
      <g
         id="g18265"
         transform="translate(0.81543036,3.5192597)">
        <g
           transform="matrix(1.4294754,0.43217028,-0.47734818,1.439504,324.14482,-417.59845)"
           id="g3799-7-3-2"
           inkscape:transform-center-x="-20.129872"
           inkscape:transform-center-y="-1.6360188">
          <g
             id="g4900"
             transform="translate(54.910476,-17.430487)"
             style="fill:#1a1a1a">
            <path
               inkscape:connector-curvature="0"
               id="path4336-7-3-0"
               d="m 94.130976,816.43122 c -2.591224,0.80046 -4.582731,2.85885 -4.621565,5.01065 -0.03795,0.0113 -0.07569,0.023 -0.114044,0.0342 -0.01918,0.006 -0.03782,0.0116 -0.05702,0.0171 -0.533509,0.0294 -0.679043,0.44658 -0.976923,0.70681 -0.698749,0.95098 0.127913,1.69708 0.04759,2.58493 0.01546,0.37709 -0.739093,1.04804 -0.160594,1.20999 0.404724,0.11019 1.034574,-0.0574 0.940572,-0.43991 0.144724,-0.21939 0.140564,-0.44909 0.100921,-0.69979 0.02802,0.0795 0.06315,0.14868 0.07769,0.23266 0.06449,0.37226 -0.510841,1.17034 0.0914,1.21309 0.420397,0.0299 0.546367,-0.37872 0.537013,-0.77164 -0.01044,-0.43839 0.215918,-0.62031 0.0064,-1.04555 -0.159973,-0.32462 -0.211897,-0.79202 0.04439,-1.05695 0.776525,1.77845 0.78481,1.71418 2.252626,3.30131 0.06682,0.20279 0.134998,0.40054 0.222203,0.60279 0.0026,0.006 0.0034,0.012 0.006,0.0179 -0.26217,0.57718 -0.496545,1.18014 -0.775299,1.74897 -0.361933,1.00948 -0.339491,2.08641 -0.170116,3.12289 0.201531,1.08624 1.203696,0.65954 1.900332,0.4928 0.654157,-0.12413 0.835946,-0.75292 0.963801,-1.37237 0.293115,0.38588 0.621225,0.74241 0.976612,1.0458 0.501866,0.78823 0.948895,2.45808 1.159904,3.09771 0.351054,1.0641 1.042983,0.86698 1.873193,0.5994 0.497936,-0.1602 1.531049,-0.39107 1.251652,-1.26187 -0.169524,-0.63977 -0.261429,-0.67173 -0.251591,-1.06655 0.308029,-0.0284 0.619847,-0.0876 0.923227,-0.17872 0.5313,-0.15951 1.02824,-0.38041 1.46788,-0.67698 0.16799,0.36947 0.12973,0.69573 0.35534,1.252 0.2914,0.65064 0.8711,0.32322 1.3697,0.2189 0.68782,-0.14399 1.73621,-0.59698 1.53843,-1.09198 -0.21974,-0.85445 -0.80637,-2.41183 -1.1795,-3.40689 0.11104,-0.46279 0.16816,-0.93677 0.1459,-1.44187 0.15587,0.0142 0.31072,0.021 0.47901,-0.006 1.07739,-0.007 2.39286,-1.2111 1.20267,-2.03481 -0.92303,-0.70385 -2.06968,-1.11867 -2.84334,-2.00158 l -0.0261,0.0472 c -0.0693,-0.18236 -0.14703,-0.40566 -0.21623,-0.58489 0.25107,-2.00561 -0.2373,-3.67262 -1.06406,-5.25313 -0.0848,-0.16219 -0.16681,-0.30938 -0.2564,-0.45468 0.3011,-0.55673 -0.43797,-1.26167 -1.13523,-1.33292 -1.792592,-1.48444 -4.082856,-0.99719 -6.086443,-0.37812 z"
               style="fill:#1a1a1a;stroke:#000000;stroke-width:0.57574301999999999;stroke-linecap:round;stroke-linejoin:miter;stroke-miterlimit:4;stroke-opacity:1;stroke-dasharray:none" />
            <g
               style="stroke:#e6e6e6;fill:#1a1a1a"
               transform="translate(-28.622407,7.8133387)"
               id="g4895">
              <path
                 style="fill:#1a1a1a;stroke:#999999;stroke-width:1.23815703000000021;stroke-linecap:round;stroke-linejoin:miter;stroke-miterlimit:4;stroke-opacity:1;stroke-dasharray:none"
                 d="m 122.48869,814.92764 c -0.5388,-1.32865 0.85722,-2.37528 1.63264,-2.77822 1.18638,-0.61649 2.59624,-0.003 3.42829,1.20555 0.59799,0.86881 -0.22142,1.64229 -0.69457,2.30401 -0.50295,0.7034 -1.35049,1.44177 -0.99025,2.40986 0.0915,0.24581 0.19448,0.48655 0.33484,0.7069"
                 id="path3098"
                 inkscape:connector-curvature="0"
                 sodipodi:nodetypes="cssssc" />
              <path
                 style="fill:#1a1a1a;stroke:#999999;stroke-width:1.23815703000000021;stroke-linecap:round;stroke-linejoin:miter;stroke-miterlimit:4;stroke-opacity:1;stroke-dasharray:none"
                 d="m 127.01237,821.20969 c -0.20581,0.3117 0.11175,0.59246 0.59303,0.30441"
                 id="path3100"
                 inkscape:connector-curvature="0"
                 sodipodi:nodetypes="cc" />
            </g>
          </g>
        </g>
      </g>
    </g>
  </g>
</svg>
