<?xml version="1.0" encoding="UTF-8" standalone="no"?>
<!-- Created with Inkscape (http://www.inkscape.org/) -->

<svg
   xmlns:dc="http://purl.org/dc/elements/1.1/"
   xmlns:cc="http://creativecommons.org/ns#"
   xmlns:rdf="http://www.w3.org/1999/02/22-rdf-syntax-ns#"
   xmlns:svg="http://www.w3.org/2000/svg"
   xmlns="http://www.w3.org/2000/svg"
   xmlns:sodipodi="http://sodipodi.sourceforge.net/DTD/sodipodi-0.dtd"
   xmlns:inkscape="http://www.inkscape.org/namespaces/inkscape"
   inkscape:export-ydpi="90"
   inkscape:export-xdpi="90"
   inkscape:export-filename="/home/micha/Programmieren/git/platformer/images/menu/exitOff.png"
   sodipodi:docname="downloadOn.svg"
   inkscape:version="0.48.4 r9939"
   version="1.1"
   id="svg2"
   height="50"
   width="50">
  <sodipodi:namedview
     id="base"
     pagecolor="#000000"
     bordercolor="#666666"
     borderopacity="1.0"
     inkscape:pageopacity="0.0"
     inkscape:pageshadow="2"
     inkscape:zoom="5.656854"
     inkscape:cx="8.1403008"
     inkscape:cy="38.915268"
     inkscape:document-units="px"
     inkscape:current-layer="layer1"
     showgrid="false"
     inkscape:showpageshadow="true"
     inkscape:window-width="1920"
     inkscape:window-height="1025"
     inkscape:window-x="0"
     inkscape:window-y="27"
     inkscape:window-maximized="1"
     inkscape:snap-global="false">
    <inkscape:grid
       originy="0px"
       originx="0px"
       spacingy="10px"
       spacingx="10px"
       snapvisiblegridlinesonly="true"
       enabled="true"
       visible="true"
       empspacing="5"
       id="grid2985"
       type="xygrid" />
  </sodipodi:namedview>
  <defs
     id="defs4" />
  <metadata
     id="metadata7">
    <rdf:RDF>
      <cc:Work
         rdf:about="">
        <dc:format>image/svg+xml</dc:format>
        <dc:type
           rdf:resource="http://purl.org/dc/dcmitype/StillImage" />
        <dc:title />
      </cc:Work>
    </rdf:RDF>
  </metadata>
  <g
     transform="translate(0,-1002.3622)"
     id="layer1"
     inkscape:groupmode="layer"
     inkscape:label="Ebene 1">
    <g
       id="g11319">
      <g
         id="g5689"
         transform="matrix(1.1892506,0,0,1.0649023,-423.64921,92.933621)">
        <g
           id="g5691"
           style="stroke-width:2;stroke-miterlimit:4;stroke-dasharray:none"
           transform="translate(0.75,-48.25)">
          <path
             sodipodi:nodetypes="aaaaa"
             inkscape:connector-curvature="0"
             id="path5693"
             d="m 372.40879,910.50653 c -5.43433,4.33504 -7.93562,15.24121 -3.46532,20.56481 4.62229,5.50459 16.75203,5.48849 21.56319,0.14821 4.44584,-4.93478 2.61367,-15.23511 -2.20777,-19.80363 -3.85111,-3.64908 -11.74268,-4.21783 -15.8901,-0.90939 z"
             style="fill:#6da7ff;fill-opacity:1;stroke:none" />
          <path
             inkscape:connector-curvature="0"
             id="path5695"
             d="m 384.93125,921.45906 c -2.39928,-0.99367 -4.44656,1.61707 -3.41948,3.8135 1.11543,2.4407 4.63309,-0.21166 5.27166,2.75985 -0.0722,2.37486 2.46883,4.27626 3.99993,1.72342 0.076,-2.21691 0.59393,-4.73613 -0.2936,-6.86207 -1.27111,-1.74163 -3.7021,-1.88569 -5.55851,-1.4347 z"
             style="fill:#327d00;fill-opacity:1;stroke:none" />
          <path
             sodipodi:nodetypes="ccscsscccc"
             inkscape:connector-curvature="0"
             id="path5697"
             d="m 381.30733,917.65836 c -2.69629,1.68156 0.48664,5.1193 2.36573,2.66246 0.15982,-1.02863 0.93087,-2.84685 1.74514,-2.78325 0.86576,0.0676 1.20873,2.88702 2.16705,2.6963 0.36183,0.0387 -1.46473,-3.67504 -0.0452,-3.51656 1.66648,0.18604 3.80711,0.57237 3.8322,-0.0946 0.0389,-1.0337 -1.53135,-4.62236 -3.07801,-4.77145 -0.86303,-2.26085 -5.81036,-0.62679 -4.65899,1.81844 1.12317,1.45101 -0.28405,1.52665 -1.114,2.00592 0.36515,1.06013 0.17316,2.1678 -1.21396,1.98276 z"
             style="fill:#327d00;fill-opacity:1;stroke:none" />
          <path
             sodipodi:nodetypes="csccc"
             inkscape:connector-curvature="0"
             id="path5699"
             d="m 373.79432,910.58729 c 2.13805,0.40551 0.17875,5.34436 2.7008,5.09033 2.5326,-0.25509 2.10108,-5.33194 3.96362,-6.64766 0.52443,-2.95495 -4.19931,0.0823 -5.65251,0.74719 -0.36785,0.22872 -0.70697,0.50272 -1.01191,0.81014 z"
             style="fill:#327d00;fill-opacity:1;stroke:none" />
          <path
             sodipodi:nodetypes="ccscsccsccccc"
             inkscape:connector-curvature="0"
             id="path5701"
             d="m 370.25879,913.15055 c 0.90005,2.24227 3.59287,2.69316 5.07097,3.81997 -0.56378,1.56861 -2.64514,2.59679 -3.5945,3.6925 -0.47262,0.54548 0.11648,1.65619 -0.23919,1.76877 -0.82969,0.1632 -0.64016,-1.21807 -1.07772,-1.57533 -1.38023,-1.12691 -3.5465,-1.31914 -3.04081,0.82795 -0.53412,2.2268 1.32897,2.48594 3.00678,2.74454 0.51498,0.63061 -0.83628,1.3316 -0.9954,2.41737 -0.18298,1.24854 0.81158,2.91328 1.39605,4.02416 1.00354,3.30455 -2.60234,-0.0776 -2.60148,-1.70493 -0.6272,-2.33622 -2.01248,-4.60446 -1.34928,-7.15664 -0.17999,-2.61729 0.44032,-5.52753 2.56026,-7.28348 0.41015,-0.4369 0.84921,-0.93891 0.86432,-1.57488 z"
             style="fill:#327d00;fill-opacity:1;stroke:none" />
          <path
             style="fill:none;stroke:#000000;stroke-width:1.77720869;stroke-linecap:butt;stroke-linejoin:miter;stroke-miterlimit:4;stroke-opacity:1;stroke-dasharray:none"
             d="m 372.40879,910.50653 c -5.43433,4.33504 -7.93562,15.24121 -3.46532,20.56481 4.62229,5.50459 16.75203,5.48849 21.56319,0.14821 4.44584,-4.93478 2.61367,-15.23511 -2.20777,-19.80363 -3.85111,-3.64908 -11.74268,-4.21783 -15.8901,-0.90939 z"
             id="path5703"
             inkscape:connector-curvature="0"
             sodipodi:nodetypes="aaaaa" />
        </g>
      </g>
      <path
         style="fill:#ff6600;fill-opacity:1;stroke:#000000;stroke-width:2;stroke-linecap:butt;stroke-linejoin:round;stroke-miterlimit:4;stroke-opacity:1;stroke-dasharray:none"
         d="m 21.803346,1029.9596 3.0052,1.9446 -2.40533,10.7282 6.71751,4.0659 -18.9151,3.1819 -4.7729798,-16.7937 6.7175198,4.5961 z"
         id="path5705"
         inkscape:connector-curvature="0"
         sodipodi:nodetypes="cccccccc" />
    </g>
  </g>
</svg>
