<?xml version="1.0" encoding="UTF-8" standalone="no"?>
<!-- Created with Inkscape (http://www.inkscape.org/) -->

<svg
   xmlns:dc="http://purl.org/dc/elements/1.1/"
   xmlns:cc="http://creativecommons.org/ns#"
   xmlns:rdf="http://www.w3.org/1999/02/22-rdf-syntax-ns#"
   xmlns:svg="http://www.w3.org/2000/svg"
   xmlns="http://www.w3.org/2000/svg"
   xmlns:sodipodi="http://sodipodi.sourceforge.net/DTD/sodipodi-0.dtd"
   xmlns:inkscape="http://www.inkscape.org/namespaces/inkscape"
   inkscape:export-ydpi="90"
   inkscape:export-xdpi="90"
   inkscape:export-filename="/home/micha/Programmieren/git/platformer/images/menu/exitOff.png"
   sodipodi:docname="editorOn.svg"
   inkscape:version="0.48.4 r9939"
   version="1.1"
   id="svg2"
   height="50"
   width="50">
  <sodipodi:namedview
     id="base"
     pagecolor="#000000"
     bordercolor="#666666"
     borderopacity="1.0"
     inkscape:pageopacity="0.0"
     inkscape:pageshadow="2"
     inkscape:zoom="5.6568543"
     inkscape:cx="28.259542"
     inkscape:cy="29.940038"
     inkscape:document-units="px"
     inkscape:current-layer="layer1"
     showgrid="false"
     inkscape:showpageshadow="true"
     inkscape:window-width="1920"
     inkscape:window-height="1025"
     inkscape:window-x="0"
     inkscape:window-y="27"
     inkscape:window-maximized="1"
     inkscape:snap-global="false">
    <inkscape:grid
       originy="0px"
       originx="0px"
       spacingy="10px"
       spacingx="10px"
       snapvisiblegridlinesonly="true"
       enabled="true"
       visible="true"
       empspacing="5"
       id="grid2985"
       type="xygrid" />
  </sodipodi:namedview>
  <defs
     id="defs4" />
  <metadata
     id="metadata7">
    <rdf:RDF>
      <cc:Work
         rdf:about="">
        <dc:format>image/svg+xml</dc:format>
        <dc:type
           rdf:resource="http://purl.org/dc/dcmitype/StillImage" />
        <dc:title />
      </cc:Work>
    </rdf:RDF>
  </metadata>
  <g
     transform="translate(0,-1002.3622)"
     id="layer1"
     inkscape:groupmode="layer"
     inkscape:label="Ebene 1">
    <path
       style="fill:#aa4400;stroke:#000000;stroke-width:2;stroke-linecap:round;stroke-linejoin:round;stroke-opacity:1;stroke-miterlimit:4;stroke-dasharray:none;fill-opacity:1"
       d="M 22.98097,24.897709 C 23.688077,23.837049 34.648232,3.1541762 34.648232,3.1541762 L 39.067649,5.0987198 26.339727,26.665476 z"
       id="path3224"
       inkscape:connector-curvature="0"
       transform="translate(0,1002.3622)" />
    <path
       style="fill:#888888;stroke:#000000;stroke-width:2;stroke-linecap:round;stroke-linejoin:round;stroke-miterlimit:4;stroke-opacity:1;stroke-dasharray:none;fill-opacity:1"
       d="m 19.442914,1025.1591 10.748541,4.9229 c 0.364125,0.3641 -3.893674,13.9652 -12.306303,10.4275 -7.238191,-3.0438 1.557762,-15.3504 1.557762,-15.3504 z"
       id="path3226"
       inkscape:connector-curvature="0"
       sodipodi:nodetypes="ccsc" />
    <path
       style="fill:none;stroke:#000000;stroke-width:2;stroke-linecap:round;stroke-linejoin:round;stroke-miterlimit:4;stroke-opacity:1;stroke-dasharray:none"
       d="m 24.966237,1027.5098 -2.421619,3.9778"
       id="path3996"
       inkscape:connector-curvature="0"
       sodipodi:nodetypes="cc" />
    <path
       style="fill:#552200;stroke:#000000;stroke-width:2;stroke-linecap:butt;stroke-linejoin:miter;stroke-opacity:1;stroke-miterlimit:4;stroke-dasharray:none;fill-opacity:1"
       d="m 5.6568542,44.343146 c 0,0 0.7071068,0.353553 1.5909902,0.883883 0.8838835,0.53033 3.3587576,1.06066 4.5961936,1.06066 1.237437,0 0.883884,0 3.181981,0 2.298097,0 11.313708,-1.06066 11.313708,-1.06066 0,0 2.474874,0.353554 3.535534,0.53033 1.06066,0.176777 2.651651,0.176777 3.358757,0.176777 0.707107,0 7.954952,-0.353553 7.954952,-0.353553 l 3.535534,-0.53033 c 0,0 -1.237437,-3.005204 -1.590991,-4.596194 -0.353553,-1.590991 -5.303301,-3.535534 -5.303301,-3.535534 0,0 -3.18198,0.707106 -7.601397,0.707106 -4.419418,0 -7.601398,-1.59099 -9.192388,-1.767766 -1.590991,-0.176777 -2.651651,-0.530331 -4.772971,-0.530331 -2.121321,0 -2.121321,-1.414213 -5.303301,1.237437 -3.1819805,2.651651 -5.6568542,5.303301 -5.6568542,5.303301 z"
       id="path4000"
       inkscape:connector-curvature="0"
       transform="translate(0,1002.3622)"
       sodipodi:nodetypes="cssscssccscsssscc" />
  </g>
</svg>
