<?xml version="1.0" encoding="UTF-8" standalone="no"?>
<!-- Created with Inkscape (http://www.inkscape.org/) -->

<svg
   xmlns:dc="http://purl.org/dc/elements/1.1/"
   xmlns:cc="http://creativecommons.org/ns#"
   xmlns:rdf="http://www.w3.org/1999/02/22-rdf-syntax-ns#"
   xmlns:svg="http://www.w3.org/2000/svg"
   xmlns="http://www.w3.org/2000/svg"
   xmlns:sodipodi="http://sodipodi.sourceforge.net/DTD/sodipodi-0.dtd"
   xmlns:inkscape="http://www.inkscape.org/namespaces/inkscape"
   width="400"
   height="400"
   id="svg2"
   version="1.1"
   inkscape:version="0.48.4 r9939"
   sodipodi:docname="fabric.svg"
   inkscape:export-filename="/home/micha/Programmieren/git/platformer/images/32player_blank.png"
   inkscape:export-xdpi="72"
   inkscape:export-ydpi="72">
  <sodipodi:namedview
     id="base"
     pagecolor="#000000"
     bordercolor="#666666"
     borderopacity="1.0"
     inkscape:pageopacity="0"
     inkscape:pageshadow="2"
     inkscape:zoom="1.4142136"
     inkscape:cx="319.17623"
     inkscape:cy="276.92327"
     inkscape:document-units="px"
     inkscape:current-layer="layer1"
     showgrid="true"
     inkscape:showpageshadow="true"
     inkscape:window-width="1920"
     inkscape:window-height="1025"
     inkscape:window-x="0"
     inkscape:window-y="27"
     inkscape:window-maximized="1"
     inkscape:snap-global="true">
    <inkscape:grid
       type="xygrid"
       id="grid2985"
       empspacing="5"
       visible="true"
       enabled="true"
       snapvisiblegridlinesonly="true"
       spacingx="10px"
       spacingy="10px"
       originx="0px"
       originy="0px" />
  </sodipodi:namedview>
  <defs
     id="defs4" />
  <metadata
     id="metadata7">
    <rdf:RDF>
      <cc:Work
         rdf:about="">
        <dc:format>image/svg+xml</dc:format>
        <dc:type
           rdf:resource="http://purl.org/dc/dcmitype/StillImage" />
        <dc:title></dc:title>
      </cc:Work>
    </rdf:RDF>
  </metadata>
  <g
     inkscape:label="Ebene 1"
     inkscape:groupmode="layer"
     id="layer1"
     transform="translate(0,-652.3622)">
    <path
       style="fill:#b79f7b;fill-opacity:1;fill-rule:nonzero;stroke:none"
       d="m 0,652.3622 400,0 0,400 -400,0 z"
       id="path8192"
       inkscape:connector-curvature="0"
       sodipodi:nodetypes="ccccc" />
    <path
       style="fill:#ae946b;fill-opacity:1;fill-rule:nonzero;stroke:none"
       d="m 307.6971,842.20578 c -10.49888,-9.63213 -17.26226,-22.87447 -23.61758,-35.62652 -6.43784,-12.91759 -14.41072,-40.83039 -14.41072,-40.83039 0,0 18.13959,35.6136 29.42189,52.03873 6.95011,10.11818 23.41743,28.42116 23.41743,28.42116 0,0 -7.08255,-0.47708 -10.40774,-1.60119 -1.58385,-0.53544 -3.17131,-1.27151 -4.40328,-2.40179 z"
       id="path9058"
       inkscape:connector-curvature="0"
       sodipodi:nodetypes="aacacaa" />
    <path
       style="fill:#c0ab8b;fill-opacity:1;fill-rule:nonzero;stroke:none"
       d="m 679.30509,910.04997 c 0,0 15.48389,43.64703 17.67767,66.46804 1.32249,13.75736 -4.31011,27.62459 -2.82843,41.36569 0.7237,6.7117 -0.09,15.9039 5.65685,19.4455 2.75495,1.6978 7.7756,-4.4767 9.54594,-1.7678 2.18161,3.3382 -8.60972,6.3892 -6.71751,9.8995 7.88548,14.6287 33.2445,-1.3424 49.85103,-0.7071 16.90984,0.6469 34.28013,9.2209 50.55813,4.5962 12.97754,-3.687 21.61672,-32.4703 32.35965,-24.3094 7.01184,5.3266 -14.23698,17.1034 -9.62132,24.6023 11.89444,19.3245 45.09404,7.2335 67.77134,6.4246 28.54002,-1.018 56.0531,-16.669 84.49926,-14.1421 6.98044,0.6201 13.22338,4.6478 19.79899,7.0711 11.82961,4.3595 35.35531,13.435 35.35531,13.435 l -91.5703,10.253 -272.23611,-4.5962 z"
       id="path8990"
       inkscape:connector-curvature="0"
       sodipodi:nodetypes="caaaaaaaaaaaacccc" />
    <path
       style="fill:#ae946b;fill-opacity:1;fill-rule:nonzero;stroke:none"
       d="m 689.2363,866.6075 c 2,0 402,5 404.5,5 2.5,0 15,57.5 14,80 -1,22.5 -3.5,101.5 -7.5,100.5 -4,-1 -21,-4 -24.5,-5 -3.5,-1 10,-12 10,-12 l 2.5,-56.5 c 0,0 2.5,-30.5 -6,-36 -8.5,-5.5 5.5,-8 6.5,-12 1,-4 2,-40.5 -1,-40.5 -3,0 -37.5,-7 -43.5,-7 -6,0 -44,3.5 -52,4 -8,0.5 -21,1.5 -25,3.5 -4,2 -13.5,5.5 -22,1 -8.5,-4.5 -51.5,-10 -55,-10 -3.5,0 -43,7 -45.5,7 -2.5,0 -43.00001,-4 -46.00001,-4 -19.66874,0 -64,4 -64,4 0,0 -35,-2.5 -39.5,-2 -4.5,0.5 -14,-4 -17.5,-7 -3.5,-3 11.5,-13 11.5,-13 z"
       id="path8970"
       inkscape:connector-curvature="0"
       sodipodi:nodetypes="cssssccsssssssssscssc" />
    <g
       id="g4324-3-10-1"
       transform="matrix(0.3347786,-0.0574067,0.0574067,0.3347786,-120.67262,973.8739)"
       style="stroke-width:7.36019564;stroke-miterlimit:4;stroke-dasharray:none" />
    <g
       id="g4324-3-10-1-1"
       transform="matrix(0.3347786,-0.0574067,0.0574067,0.3347786,79.32738,1003.8738)"
       style="stroke-width:7.36019564;stroke-miterlimit:4;stroke-dasharray:none" />
    <path
       style="fill:#3a460b;fill-opacity:1;fill-rule:nonzero;stroke:#7e5e36;stroke-width:2.5;stroke-linecap:round;stroke-linejoin:round;stroke-miterlimit:4;stroke-opacity:1;stroke-dasharray:none"
       d="m 1175.1799,585.16035 c 2.462,2.08601 4.1886,22.33202 -1.4143,27.04683 l -12.5511,-9.72272 z"
       id="path5669"
       inkscape:connector-curvature="0"
       sodipodi:nodetypes="cccc"
       inkscape:export-filename="/home/micha/Projects/Bandana/raw/ideas/BambooColor.png"
       inkscape:export-xdpi="90"
       inkscape:export-ydpi="90" />
    <path
       inkscape:connector-curvature="0"
       style="fill:#668000;fill-opacity:1;fill-rule:nonzero;stroke:none"
       d="m 1113.1288,584.06177 -0.3124,30.84375 c 20.0373,-2.10881 40.0564,-2.97884 60.0937,-2.84375 -0.3604,-8.82816 0.1835,-17.75415 2.125,-26.8125 -20.3478,0.13391 -41.0059,-0.2482 -61.9063,-1.1875 z"
       id="path5643"
       inkscape:export-filename="/home/micha/Projects/Bandana/raw/ideas/BambooColor.png"
       inkscape:export-xdpi="90"
       inkscape:export-ydpi="90" />
    <path
       inkscape:connector-curvature="0"
       style="fill:#455600;fill-opacity:1;fill-rule:nonzero;stroke:none"
       d="m 1115.1288,603.78052 -1.7812,11.0625 18.5312,-1.5 41.0313,-1.1875 c -0.089,-2.13345 -0.1161,-4.29296 -0.094,-6.4375 -0.9803,-0.0652 -1.9808,-0.12538 -2.9688,-0.15625 -9.5678,-0.29899 -35.5625,1.21875 -35.5625,1.21875 0,0 -10.7736,1.49072 -14.0625,0.59375 -3.2889,-0.89698 -5.0937,-3.59375 -5.0938,-3.59375 z"
       id="path5645"
       inkscape:export-filename="/home/micha/Projects/Bandana/raw/ideas/BambooColor.png"
       inkscape:export-xdpi="90"
       inkscape:export-ydpi="90" />
    <path
       inkscape:connector-curvature="0"
       style="fill:#a1b64f;fill-opacity:1;fill-rule:nonzero;stroke:none"
       d="m 1113.6601,583.43677 -2.7187,5.09375 c 4.4764,1.20189 7.1085,3.73732 13.4687,3.59375 0.4545,-1.07226 8.1082,-2.01452 8.5313,-2.6875 0.1518,-0.24159 5.5228,-0.27 6.7187,-0.3125 1.1952,-0.0425 22.7305,2.40625 29.9063,2.40625 1.2463,0 2.7583,-0.0654 4.375,-0.125 0.3165,-2.14723 0.6851,-4.30606 1.1562,-6.46875 l -16.5938,0 -44.8437,-1.5 z"
       id="path5647"
       inkscape:export-filename="/home/micha/Projects/Bandana/raw/ideas/BambooColor.png"
       inkscape:export-xdpi="90"
       inkscape:export-ydpi="90" />
    <path
       style="fill:none;stroke:#7e5e36;stroke-width:2.5;stroke-linecap:round;stroke-linejoin:round;stroke-miterlimit:4;stroke-opacity:1;stroke-dasharray:none"
       d="m 1113.1288,584.06177 -0.3124,30.84375 c 20.0373,-2.10881 40.0564,-2.97884 60.0937,-2.84375 -2.8118,-1.52957 -1.0059,-21.19736 2.125,-26.8125 -20.3478,0.13391 -41.0059,-0.2482 -61.9063,-1.1875 z"
       id="path5649"
       inkscape:connector-curvature="0"
       sodipodi:nodetypes="ccccc"
       inkscape:export-filename="/home/micha/Projects/Bandana/raw/ideas/BambooColor.png"
       inkscape:export-xdpi="90"
       inkscape:export-ydpi="90" />
    <path
       sodipodi:nodetypes="ccccc"
       inkscape:connector-curvature="0"
       id="path5579"
       d="m 993.13714,584.05788 -0.3328,30.83769 c 40.03306,-4.21324 80.06606,-3.44925 120.09906,0.299 l 0,-31.73466 c -38.6391,2.13816 -78.7379,2.44186 -119.76626,0.59797 z"
       style="fill:#668000;fill-opacity:1;fill-rule:nonzero;stroke:#7e5e36;stroke-width:2.5;stroke-linecap:round;stroke-linejoin:round;stroke-miterlimit:4;stroke-opacity:1;stroke-dasharray:none"
       inkscape:export-filename="/home/micha/Projects/Bandana/raw/ideas/BambooColor.png"
       inkscape:export-xdpi="90"
       inkscape:export-ydpi="90" />
    <path
       sodipodi:nodetypes="cssscscccccccsscc"
       inkscape:connector-curvature="0"
       id="path5581"
       d="m 1105.4706,605.27269 c 0,0 -13.4546,0.29899 -14.6506,0.89697 -1.196,0.59799 -6.5778,2.39193 -14.3516,2.09294 -7.7738,-0.29899 -17.0425,-2.39193 -26.6102,-2.69092 -9.5678,-0.29899 -35.58,1.19597 -35.58,1.19597 0,0 -10.7638,1.49495 -14.0527,0.59798 -3.28886,-0.89698 -5.08286,-3.5879 -5.08286,-3.5879 l -1.7939,11.06268 18.53746,-1.49495 41.2609,-1.19597 36.7759,2.09294 22.1254,1.79395 0.598,-8.07277 c 0,0 -0.897,-4.18588 -1.495,-6.27882 -0.598,-2.09294 -4.7838,-3.28891 -6.2788,-3.28891 -1.495,0 -0.299,3.88689 -0.299,3.88689 z"
       style="fill:#455600;fill-opacity:1;fill-rule:nonzero;stroke:none"
       inkscape:export-filename="/home/micha/Projects/Bandana/raw/ideas/BambooColor.png"
       inkscape:export-xdpi="90"
       inkscape:export-ydpi="90" />
    <path
       sodipodi:nodetypes="ccccccsssssccc"
       inkscape:connector-curvature="0"
       id="path5583"
       d="m 993.64774,583.44631 44.84876,1.49496 32.5901,0 35.5799,-1.49496 7.1758,-0.29899 -3.4525,12.83265 c 0,0 -9.7031,-4.46089 -12.693,-5.65685 -2.9899,-1.19597 -18.2385,0 -22.1254,0 -3.8869,0 -18.8364,1.19596 -26.0122,1.19596 -7.1758,0 -28.704,-2.43445 -29.8992,-2.39193 -1.1959,0.0425 -6.5677,0.0574 -6.7196,0.29899 -0.423,0.67298 -8.0745,1.61866 -8.529,2.69092 -6.36016,0.14357 -8.97806,-2.386 -13.45456,-3.58789 z"
       style="fill:#a1b64f;fill-opacity:1;fill-rule:nonzero;stroke:none"
       inkscape:export-filename="/home/micha/Projects/Bandana/raw/ideas/BambooColor.png"
       inkscape:export-xdpi="90"
       inkscape:export-ydpi="90" />
    <path
       style="fill:none;stroke:#7e5e36;stroke-width:2.5;stroke-linecap:round;stroke-linejoin:round;stroke-miterlimit:4;stroke-opacity:1;stroke-dasharray:none"
       d="m 993.13714,584.05788 -0.3328,30.83769 c 40.03306,-4.21324 80.06606,-3.44925 120.09906,0.299 l 0,-31.73466 c -38.6391,2.13816 -78.7379,2.44186 -119.76626,0.59797 z"
       id="path5585"
       inkscape:connector-curvature="0"
       sodipodi:nodetypes="ccccc"
       inkscape:export-filename="/home/micha/Projects/Bandana/raw/ideas/BambooColor.png"
       inkscape:export-xdpi="90"
       inkscape:export-ydpi="90" />
    <path
       sodipodi:nodetypes="ccssscssscc"
       inkscape:connector-curvature="0"
       id="path5587"
       d="m 1112.3474,583.14732 -1.794,5.08285 c 0,0 0,10.4647 0,12.25865 0,1.79395 0.598,6.27883 1.196,7.47479 0.598,1.19597 0.299,4.48487 0.299,5.97983 0,1.49496 5.3818,1.19597 5.3818,1.19597 0,0 -0.299,-0.59799 -1.1959,-3.88689 -0.897,-3.28891 0,-7.77378 -0.299,-9.56773 -0.299,-1.79394 -1.196,-8.67075 -0.897,-10.76369 0.299,-2.09294 1.794,-7.1758 1.794,-7.1758 z"
       style="fill:#d9d076;fill-opacity:1;fill-rule:nonzero;stroke:#7e5e36;stroke-width:2.5;stroke-linecap:round;stroke-linejoin:round;stroke-miterlimit:4;stroke-opacity:1;stroke-dasharray:none"
       inkscape:export-filename="/home/micha/Projects/Bandana/raw/ideas/BambooColor.png"
       inkscape:export-xdpi="90"
       inkscape:export-ydpi="90" />
    <path
       style="fill:#668000;fill-opacity:1;fill-rule:nonzero;stroke:#7e5e36;stroke-width:2.5;stroke-linecap:round;stroke-linejoin:round;stroke-miterlimit:4;stroke-opacity:1;stroke-dasharray:none"
       d="m 871.84954,584.05788 -0.3328,30.83769 c 40.033,-4.21324 80.066,-3.44925 120.099,0.299 l 0,-31.73466 c -38.6391,2.13816 -78.7379,2.44186 -119.7662,0.59797 z"
       id="path5567"
       inkscape:connector-curvature="0"
       sodipodi:nodetypes="ccccc"
       inkscape:export-filename="/home/micha/Projects/Bandana/raw/ideas/BambooColor.png"
       inkscape:export-xdpi="90"
       inkscape:export-ydpi="90" />
    <path
       sodipodi:nodetypes="cssscscssscccccccsscc"
       style="fill:#455600;fill-opacity:1;fill-rule:nonzero;stroke:none"
       d="m 984.18294,605.27269 c 0,0 -13.4547,0.29899 -14.6506,0.89697 -1.196,0.59799 -1.6281,0.80094 -9.4019,0.50195 -7.7737,-0.29899 -7.4965,0.25972 -17.0643,-0.0393 -9.5677,-0.29899 -33.4586,1.37275 -33.4586,1.37275 -9.0192,-1.879 -24.4055,0.38384 -26.6038,-0.28591 -3.261,-0.99356 -5.2596,-0.75947 -5.2596,-0.75947 0,0 4.1837,-5.8729 5.6786,-6.17189 1.495,-0.299 -4.1858,-2.09294 -6.8768,-2.09294 -2.6909,0 -1.1959,-4.78387 -1.1959,-5.97983 0,-1.19597 -3.2889,-4.48487 -3.2889,-4.48487 l 0,26.61023 18.5374,-1.49495 41.2608,-1.19597 36.776,2.09294 22.1254,1.79395 0.5979,-8.07277 c 0,0 -1.0737,-11.43372 -1.6717,-13.52666 -0.598,-2.09294 -4.2535,3.4286 -5.7485,3.4286 -1.4949,0 -0.6525,4.41722 -0.6525,4.41722 z"
       id="path5569"
       inkscape:connector-curvature="0"
       inkscape:export-filename="/home/micha/Projects/Bandana/raw/ideas/BambooColor.png"
       inkscape:export-xdpi="90"
       inkscape:export-ydpi="90" />
    <path
       style="fill:#a1b64f;fill-opacity:1;fill-rule:nonzero;stroke:none"
       d="m 872.36014,583.44631 44.8487,1.49496 32.59,0 35.58,-1.49496 7.1758,-0.29899 -2.3919,7.1758 c 0,0.39267 1.086,3.07123 -1.4015,2.83781 -1.711,-0.16056 -13.141,-1.38434 -14.3595,-2.39847 -15.9848,-0.76394 -30.0946,0.69212 -46.1302,0.75662 -7.1758,0 -28.704,-1.37379 -29.8992,-1.33127 -1.196,0.0425 -19.0532,-1.57504 -19.3314,-1.51167 -2.9545,0.67298 -4.2443,2.89899 -2.2811,3.97125 -6.3602,0.14357 -2.6141,-2.91633 -7.0907,-4.11822 z"
       id="path5571"
       inkscape:connector-curvature="0"
       sodipodi:nodetypes="ccccccsccssccc"
       inkscape:export-filename="/home/micha/Projects/Bandana/raw/ideas/BambooColor.png"
       inkscape:export-xdpi="90"
       inkscape:export-ydpi="90" />
    <path
       sodipodi:nodetypes="ccccc"
       inkscape:connector-curvature="0"
       id="path5573"
       d="m 871.84954,584.05788 -0.3328,30.83769 c 40.033,-4.21324 80.066,-3.44925 120.099,0.299 l 0,-31.73466 c -38.6391,2.13816 -78.7379,2.44186 -119.7662,0.59797 z"
       style="fill:none;stroke:#7e5e36;stroke-width:2.5;stroke-linecap:round;stroke-linejoin:round;stroke-miterlimit:4;stroke-opacity:1;stroke-dasharray:none"
       inkscape:export-filename="/home/micha/Projects/Bandana/raw/ideas/BambooColor.png"
       inkscape:export-xdpi="90"
       inkscape:export-ydpi="90" />
    <path
       style="fill:#d9d076;fill-opacity:1;fill-rule:nonzero;stroke:#7e5e36;stroke-width:2.5;stroke-linecap:round;stroke-linejoin:round;stroke-miterlimit:4;stroke-opacity:1;stroke-dasharray:none"
       d="m 991.05974,583.14732 -1.794,5.08285 c 0,0 -1.2375,1.97942 -1.2375,3.77337 0,1.79395 1.3052,14.94089 1.9032,16.13685 0.598,1.19597 0.8293,4.30809 0.8293,5.80305 0,1.49496 5.3818,1.19597 5.3818,1.19597 0,0 0.7617,-0.95154 -0.1352,-4.24044 -0.897,-3.28891 -2.2981,-5.82924 -2.5971,-7.62319 -0.299,-1.79394 0.041,-10.26174 0.3404,-12.35468 0.299,-2.09294 1.7939,-7.1758 1.7939,-7.1758 z"
       id="path5575"
       inkscape:connector-curvature="0"
       sodipodi:nodetypes="ccssscssscc"
       inkscape:export-filename="/home/micha/Projects/Bandana/raw/ideas/BambooColor.png"
       inkscape:export-xdpi="90"
       inkscape:export-ydpi="90" />
    <path
       sodipodi:nodetypes="ccccc"
       inkscape:connector-curvature="0"
       id="path5471"
       d="m 749.19781,584.05788 -0.33281,30.83769 c 40.033,-4.21324 80.06604,-3.44925 120.09904,0.299 l 0,-31.73466 c -38.6391,2.13816 -78.73793,2.44186 -119.76623,0.59797 z"
       style="fill:#668000;fill-opacity:1;fill-rule:nonzero;stroke:#7e5e36;stroke-width:2.5;stroke-linecap:round;stroke-linejoin:round;stroke-miterlimit:4;stroke-opacity:1;stroke-dasharray:none"
       inkscape:export-filename="/home/micha/Projects/Bandana/raw/ideas/BambooColor.png"
       inkscape:export-xdpi="90"
       inkscape:export-ydpi="90" />
    <path
       inkscape:connector-curvature="0"
       id="path5473"
       d="m 861.53124,605.27269 c 0,0 -13.4547,0.29899 -14.6506,0.89697 -1.196,0.59799 -6.5778,2.39193 -14.3516,2.09294 -7.7738,-0.29899 -17.0425,-2.39193 -26.61024,-2.69092 -9.56773,-0.29899 -35.57998,1.19597 -35.57998,1.19597 0,0 -10.7637,1.49495 -14.0526,0.59798 -3.28891,-0.89698 -5.08286,-3.5879 -5.08286,-3.5879 0,0 8.07277,-2.69092 9.56773,-2.98991 1.49496,-0.299 -4.18588,-2.09294 -6.8768,-2.09294 -2.69093,0 -1.19597,-4.78387 -1.19597,-5.97983 0,-1.19597 -3.28891,-4.48487 -3.28891,-4.48487 l 0,26.61023 18.53747,-1.49495 41.26082,-1.19597 36.77594,2.09294 22.1254,1.79395 0.598,-8.07277 c 0,0 -0.897,-4.18588 -1.495,-6.27882 -0.598,-2.09294 -4.7839,-3.28891 -6.2788,-3.28891 -1.495,0 -0.299,3.88689 -0.299,3.88689 z"
       style="fill:#455600;fill-opacity:1;fill-rule:nonzero;stroke:none"
       inkscape:export-filename="/home/micha/Projects/Bandana/raw/ideas/BambooColor.png"
       inkscape:export-xdpi="90"
       inkscape:export-ydpi="90" />
    <path
       sodipodi:nodetypes="ccccccsssssccc"
       inkscape:connector-curvature="0"
       id="path5475"
       d="m 749.70841,583.44631 44.84871,1.49496 32.59002,0 35.58,-1.49496 7.1758,-0.29899 -2.3919,7.1758 c 0,0 -10.7637,1.19596 -13.7536,0 -2.9899,-1.19597 -18.2385,0 -22.1254,0 -3.8869,0 -18.8365,1.19596 -26.01223,1.19596 -7.1758,0 -28.70394,-2.43445 -29.89915,-2.39193 -1.19596,0.0425 -20.17957,0.0574 -20.33142,0.29899 -0.42302,0.67298 5.53741,1.61866 5.08286,2.69092 -6.36022,0.14357 -8.97804,-2.386 -13.45462,-3.58789 z"
       style="fill:#a1b64f;fill-opacity:1;fill-rule:nonzero;stroke:none"
       inkscape:export-filename="/home/micha/Projects/Bandana/raw/ideas/BambooColor.png"
       inkscape:export-xdpi="90"
       inkscape:export-ydpi="90" />
    <path
       style="fill:none;stroke:#7e5e36;stroke-width:2.5;stroke-linecap:round;stroke-linejoin:round;stroke-miterlimit:4;stroke-opacity:1;stroke-dasharray:none"
       d="m 749.19781,584.05788 -0.33281,30.83769 c 40.033,-4.21324 80.06604,-3.44925 120.09904,0.299 l 0,-31.73466 c -38.6391,2.13816 -78.73793,2.44186 -119.76623,0.59797 z"
       id="path5477"
       inkscape:connector-curvature="0"
       sodipodi:nodetypes="ccccc"
       inkscape:export-filename="/home/micha/Projects/Bandana/raw/ideas/BambooColor.png"
       inkscape:export-xdpi="90"
       inkscape:export-ydpi="90" />
    <path
       sodipodi:nodetypes="ccssscssscc"
       inkscape:connector-curvature="0"
       id="path5479"
       d="m 866.99384,583.14732 0.6809,5.61318 c 0,0 -0.5304,6.22206 -0.5304,8.01601 0,1.79395 -0.4626,9.46081 0.1354,10.65677 0.598,1.19597 0.8293,5.0152 0.8293,6.51016 0,1.49496 5.3818,1.19597 5.3818,1.19597 0,0 0.5849,-2.54253 -0.312,-5.83143 -0.897,-3.28891 -0.8839,-5.82924 -1.1829,-7.62319 -0.299,-1.79394 0.2182,-8.31719 0.5172,-10.41013 0.299,-2.09294 0.3797,-7.52936 0.3797,-7.52936 z"
       style="fill:#d9d076;fill-opacity:1;fill-rule:nonzero;stroke:#7e5e36;stroke-width:2.5;stroke-linecap:round;stroke-linejoin:round;stroke-miterlimit:4;stroke-opacity:1;stroke-dasharray:none"
       inkscape:export-filename="/home/micha/Projects/Bandana/raw/ideas/BambooColor.png"
       inkscape:export-xdpi="90"
       inkscape:export-ydpi="90" />
    <path
       inkscape:connector-curvature="0"
       id="path4682"
       d="m 746.84755,583.44842 c -26.27065,1.45373 -53.23396,2.02818 -80.6875,1.6875 -4.06393,8.71535 -7.25281,17.81634 -9.21875,27.49999 29.9727,-1.37577 59.93355,-0.24381 89.90625,2.5625 l 0,-31.74999 z"
       style="fill:#668000;fill-opacity:1;fill-rule:nonzero;stroke:#7e5e36;stroke-width:2.5;stroke-linecap:round;stroke-linejoin:round;stroke-miterlimit:4;stroke-opacity:1;stroke-dasharray:none"
       inkscape:export-filename="/home/micha/Projects/Bandana/raw/ideas/BambooColor.png"
       inkscape:export-xdpi="90"
       inkscape:export-ydpi="90" />
    <path
       inkscape:connector-curvature="0"
       id="path4686"
       d="m 738.8163,598.38592 c -1.49495,0 -0.28125,3.90625 -0.28125,3.90625 l 0.875,2.96874 c 0,0 -13.46029,0.30827 -14.65625,0.90625 -1.19597,0.59799 -6.56998,2.39274 -14.34375,2.09375 -7.77378,-0.29899 -17.02603,-2.38851 -26.59375,-2.6875 -5.74795,-0.17962 -16.99382,0.25406 -25.40625,0.65625 -0.59582,2.23963 -1.10417,4.50942 -1.5625,6.8125 l 30.25,-0.90625 36.78125,2.09375 22.125,1.8125 0.59375,-8.09375 c 0,0 -0.90201,-4.15706 -1.5,-6.24999 -0.59798,-2.09294 -4.78629,-3.3125 -6.28125,-3.3125 z"
       style="fill:#455600;fill-opacity:1;fill-rule:nonzero;stroke:none"
       inkscape:export-filename="/home/micha/Projects/Bandana/raw/ideas/BambooColor.png"
       inkscape:export-xdpi="90"
       inkscape:export-ydpi="90" />
    <path
       inkscape:connector-curvature="0"
       id="path5458"
       d="m 747.78505,583.13592 -7.1875,0.3125 -35.5625,1.5 -32.59375,0 -6.09375,-0.21875 c -0.82921,1.76473 -1.61736,3.54599 -2.375,5.34375 6.98473,0.67132 15.4506,1.4375 19.53125,1.4375 7.17579,0 22.11311,-1.1875 26,-1.1875 3.88689,0 19.13508,-1.19597 22.125,0 2.98991,1.19596 13.78125,0 13.78125,0 l 2.375,-7.1875 z"
       style="fill:#a1b64f;fill-opacity:1;fill-rule:nonzero;stroke:none"
       inkscape:export-filename="/home/micha/Projects/Bandana/raw/ideas/BambooColor.png"
       inkscape:export-xdpi="90"
       inkscape:export-ydpi="90" />
    <path
       inkscape:connector-curvature="0"
       id="path5460"
       d="m 746.84755,583.44842 c -26.27065,1.45373 -53.23396,2.02818 -80.6875,1.6875 -4.06393,8.71535 -7.25281,17.81634 -9.21875,27.49999 29.9727,-1.37577 59.93355,-0.24381 89.90625,2.5625 l 0,-31.74999 z"
       style="fill:none;stroke:#7e5e36;stroke-width:2.5;stroke-linecap:round;stroke-linejoin:round;stroke-miterlimit:4;stroke-opacity:1;stroke-dasharray:none"
       inkscape:export-filename="/home/micha/Projects/Bandana/raw/ideas/BambooColor.png"
       inkscape:export-xdpi="90"
       inkscape:export-ydpi="90" />
    <path
       style="fill:#d9d076;fill-opacity:1;fill-rule:nonzero;stroke:#7e5e36;stroke-width:2.5;stroke-linecap:round;stroke-linejoin:round;stroke-miterlimit:4;stroke-opacity:1;stroke-dasharray:none"
       d="m 746.29381,583.14733 -1.79395,5.08285 c 0,0 0,10.4647 0,12.25865 0,1.79395 0.59799,6.27882 1.19597,7.47478 0.59798,1.19597 0.29899,4.48487 0.29899,5.97983 0,1.49496 5.38185,1.19597 5.38185,1.19597 0,0 -0.299,-0.59799 -1.19597,-3.88689 -0.89698,-3.28891 0,-7.77378 -0.29899,-9.56772 -0.29899,-1.79394 -1.19597,-8.67075 -0.89698,-10.76369 0.299,-2.09294 1.79395,-7.1758 1.79395,-7.1758 z"
       id="path4684"
       inkscape:connector-curvature="0"
       sodipodi:nodetypes="ccssscssscc"
       inkscape:export-filename="/home/micha/Projects/Bandana/raw/ideas/BambooColor.png"
       inkscape:export-xdpi="90"
       inkscape:export-ydpi="90" />
    <path
       sodipodi:nodetypes="ccccc"
       inkscape:connector-curvature="0"
       id="path9060"
       d="m 76.69718,708.98202 c 9.799384,12.29694 18.876124,20.12926 28.11945,28.9908 -9.690235,-6.96252 -14.059255,-7.34994 -29.2346,-21.09003 -16.257301,-22.78599 -14.62575,-26.82303 -21.875674,-40.16857 7.663608,10.75593 2.878478,6.40448 22.990824,32.2678 z"
       style="fill:#ae946b;fill-opacity:1;fill-rule:nonzero;stroke:none" />
    <path
       style="fill:#ae946b;fill-opacity:1;fill-rule:nonzero;stroke:none"
       d="m 333.50991,686.02625 c 1.54172,5.05502 8.2077,16.34993 6.20485,16.34993 0,0 -6.84355,-7.17864 -8.71744,-11.89414 -2.40695,-6.05682 -3.04376,-20.5584 -3.04376,-20.5584 6.56313,11.3421 5.10161,10.28824 5.55635,16.10261 z"
       id="path9098"
       inkscape:connector-curvature="0"
       sodipodi:nodetypes="ccacc" />
    <path
       style="fill:#bba482;fill-opacity:1;fill-rule:nonzero;stroke:none"
       d="m 347.12645,865.02276 -23.21728,-18.4137 -28.82145,-30.42265 -24.81848,-48.83635 46.43456,60.0447 40.83039,36.82741 z"
       id="path4732"
       inkscape:connector-curvature="0"
       sodipodi:nodetypes="ccccccc" />
    <path
       inkscape:connector-curvature="0"
       id="path4734"
       d="M 116.18131,734.60098 98.007403,721.87945 75.446697,700.86126 56.019421,667.12155 92.367229,708.6048 124.32823,734.04787 c 1.98658,3.41227 0.47295,4.42177 -8.14692,0.55311 z"
       style="fill:#bba482;fill-opacity:1;fill-rule:nonzero;stroke:none"
       sodipodi:nodetypes="ccccccc" />
    <path
       style="fill:#bba482;fill-opacity:1;fill-rule:nonzero;stroke:none"
       d="m 185.73748,874.98112 c -0.1302,-0.18663 -8.73249,-18.53102 25.95173,22.22904 9.16879,10.77494 17.67727,19.90661 17.67727,19.90661 0,0 -5.26558,2.98599 -6.77002,0.99532 -1.50444,-1.99065 -19.55783,-17.25239 -23.31894,-19.9066 -3.76112,-2.65421 -2.63279,-2.65421 -6.39391,-2.65421 -3.76113,0 -12.78781,-4.3131 -14.29226,-5.97198 -1.50445,-1.65889 -4.13723,-3.98133 -4.13723,-3.98133 0,0 1.88056,-0.99533 9.02669,1.32711 7.14613,2.32244 10.15502,1.99066 9.77891,0.33178 -0.37611,-1.65889 -7.52224,-12.27574 -7.52224,-12.27574 z"
       id="path4736"
       inkscape:connector-curvature="0"
       sodipodi:nodetypes="cscsssscssc" />
    <path
       style="fill:#ae946b;fill-opacity:1;fill-rule:nonzero;stroke:none"
       d="m 213.02664,917.46179 c -1.60119,-1.20089 -15.49229,-13.32916 -15.49229,-13.32916 -10.01183,-5.81192 -17.42091,-4.11589 -19.15188,-5.23023 l 14.62927,8.55194 z"
       id="path4738"
       inkscape:connector-curvature="0"
       sodipodi:nodetypes="ccccc" />
    <path
       style="fill:#ae946b;fill-opacity:1;fill-rule:nonzero;stroke:none"
       d="M 109.46864,839.94154 C 95.025016,825.49928 80.691155,809.35195 66.025107,780.41456 c -7.66527,-5.30216 -13.807359,-7.42688 6.321266,45.25073 l 33.178017,46.98065 c -9.389773,-29.68419 -38.101953,-54.59915 3.94425,-32.7044 z"
       id="path4740"
       inkscape:connector-curvature="0"
       sodipodi:nodetypes="ccccc" />
    <g
       id="g4982"
       transform="matrix(0,1,-1,0,736.8166,680.75946)">
      <path
         inkscape:export-ydpi="90"
         inkscape:export-xdpi="90"
         inkscape:export-filename="/home/micha/Projects/Bandana/raw/ideas/BambooColor.png"
         id="path4886"
         d="m 502.3273,1048.5192 -0.3039,28.0972 c 13.772,-1.3597 27.5398,-2.1473 41.3117,-2.4506 -0.7866,-6.1563 -3.2355,-17.1664 -4.9817,-24.6777 -11.9173,-0.1576 -23.9281,-0.4588 -36.0261,-0.9689 z"
         style="fill:#c99043;fill-opacity:1;fill-rule:nonzero;stroke:#7e5e36;stroke-width:2.5;stroke-linecap:round;stroke-linejoin:round;stroke-miterlimit:4;stroke-opacity:1;stroke-dasharray:none"
         inkscape:connector-curvature="0" />
      <path
         inkscape:export-ydpi="90"
         inkscape:export-xdpi="90"
         inkscape:export-filename="/home/micha/Projects/Bandana/raw/ideas/BambooColor.png"
         sodipodi:nodetypes="ccccccscsssc"
         inkscape:connector-curvature="0"
         id="path4888"
         d="m 502.5398,1052.3092 0,24.2788 18.0132,-1.3678 22.8125,-0.627 c -0.2048,-1.7067 -0.5661,-3.876 -1.0025,-6.2407 -9.6585,0.3331 -19.4711,0.8549 -19.4711,0.8549 0,0 -10.4723,1.3594 -13.6693,0.5415 -3.1969,-0.818 -4.9513,-3.2486 -4.9513,-3.2486 0,0 0.8251,1.7545 2.2782,1.4818 1.4532,-0.2726 2.9499,-6.1267 0.3341,-6.1267 -2.6157,0 -1.1542,-4.3522 -1.1542,-5.4427 0,-1.0906 -3.1896,-4.1035 -3.1896,-4.1035 z"
         style="fill:#9d6e2d;fill-opacity:1;fill-rule:nonzero;stroke:none" />
      <path
         inkscape:export-ydpi="90"
         inkscape:export-xdpi="90"
         inkscape:export-filename="/home/micha/Projects/Bandana/raw/ideas/BambooColor.png"
         sodipodi:nodetypes="cccccccc"
         inkscape:connector-curvature="0"
         id="path4890"
         d="m 502.8436,1047.9493 1.0024,10.1162 c 4.3514,1.096 3.2646,-2.0918 9.447,-2.2227 0.4418,-0.9778 -5.3625,-1.837 -4.9513,-2.4507 0.1476,-0.2203 18.6125,-0.2178 19.7749,-0.2565 0.5439,-0.018 5.5529,0.4566 11.3,0.9689 -0.414,-1.8382 -0.7878,-3.4714 -1.1543,-5.0438 z"
         style="fill:#e0b779;fill-opacity:1;fill-rule:nonzero;stroke:none" />
      <path
         inkscape:export-ydpi="90"
         inkscape:export-xdpi="90"
         inkscape:export-filename="/home/micha/Projects/Bandana/raw/ideas/BambooColor.png"
         id="path4892"
         d="m 502.3273,1048.5192 -0.3039,28.0972 c 13.772,-1.3597 27.5398,-2.1473 41.3117,-2.4506 -0.7866,-6.1563 -3.2355,-17.1664 -4.9817,-24.6777 -11.9173,-0.1576 -23.9281,-0.4588 -36.0261,-0.9689 z"
         style="fill:none;stroke:#5c411b;stroke-width:2.5;stroke-linecap:round;stroke-linejoin:round;stroke-miterlimit:4;stroke-opacity:1;stroke-dasharray:none"
         inkscape:connector-curvature="0" />
      <path
         inkscape:export-ydpi="90"
         inkscape:export-xdpi="90"
         inkscape:export-filename="/home/micha/Projects/Bandana/raw/ideas/BambooColor.png"
         style="fill:#c99043;fill-opacity:1;fill-rule:nonzero;stroke:#7e5e36;stroke-width:2.5;stroke-linecap:round;stroke-linejoin:round;stroke-miterlimit:4;stroke-opacity:1;stroke-dasharray:none"
         d="m 269.04394,1048.5051 -0.3235,28.1202 c 38.91369,-3.842 77.82737,-3.1454 116.74105,0.2726 l 0,-28.9381 c -37.55876,1.9497 -76.5364,2.2267 -116.41755,0.5453 z"
         id="path4894"
         inkscape:connector-curvature="0"
         sodipodi:nodetypes="ccccc" />
      <path
         inkscape:export-ydpi="90"
         inkscape:export-xdpi="90"
         inkscape:export-filename="/home/micha/Projects/Bandana/raw/ideas/BambooColor.png"
         style="fill:#9d6e2d;fill-opacity:1;fill-rule:nonzero;stroke:none"
         d="m 378.23651,1067.8504 c 0,0 -13.07851,0.2726 -14.24097,0.8179 -1.16256,0.5453 -6.39389,2.1811 -13.95033,1.9085 -7.55645,-0.2727 -16.566,-2.1811 -25.86619,-2.4538 -9.30028,-0.2726 -34.58518,1.0906 -34.58518,1.0906 0,0 -10.46275,1.3632 -13.65969,0.5453 -3.19694,-0.8179 -4.94078,-3.2717 -4.94078,-3.2717 0,0 7.84708,-2.4539 9.30018,-2.7265 1.4532,-0.2727 -4.06876,-1.9085 -6.68452,-1.9085 -2.61566,0 -1.16246,-4.3623 -1.16246,-5.4528 0,-1.0906 -3.19695,-4.0897 -3.19695,-4.0897 l 0,24.2652 18.0191,-1.3631 40.10725,-1.0906 35.74765,1.9085 21.50677,1.6358 0.58128,-7.3614 c 0,0 -0.87192,-3.8169 -1.4532,-5.7255 -0.58128,-1.9084 -4.65014,-2.999 -6.10324,-2.999 -1.4532,0 -0.29064,3.5443 -0.29064,3.5443 z"
         id="path4896"
         inkscape:connector-curvature="0" />
      <path
         inkscape:export-ydpi="90"
         inkscape:export-xdpi="90"
         inkscape:export-filename="/home/micha/Projects/Bandana/raw/ideas/BambooColor.png"
         style="fill:#e0b779;fill-opacity:1;fill-rule:nonzero;stroke:none"
         d="m 269.54026,1047.9474 43.59474,1.3632 31.67878,0 34.58519,-1.3632 6.97516,-0.2727 -3.05405,9.3931 c 0,0 -9.73372,-1.759 -12.64002,-2.8496 -2.9063,-1.0905 -17.72855,0 -21.50677,0 -3.77823,0 -18.30974,1.0906 -25.28491,1.0906 -6.97516,0 -27.90143,-2.2199 -29.06322,-2.1811 -1.16246,0.039 -19.61538,0.052 -19.76293,0.2726 -0.41117,0.6136 5.38257,1.476 4.94078,2.4538 -6.18247,0.1309 -8.72707,-2.1758 -13.07851,-3.2718 z"
         id="path4898"
         inkscape:connector-curvature="0"
         sodipodi:nodetypes="ccccccsssssccc" />
      <path
         inkscape:export-ydpi="90"
         inkscape:export-xdpi="90"
         inkscape:export-filename="/home/micha/Projects/Bandana/raw/ideas/BambooColor.png"
         sodipodi:nodetypes="ccccc"
         inkscape:connector-curvature="0"
         id="path4900"
         d="m 269.04394,1048.5051 -0.3235,28.1202 c 38.91369,-3.842 77.82737,-3.1454 116.74105,0.2726 l 0,-28.9381 c -37.55876,1.9497 -76.5364,2.2267 -116.41755,0.5453 z"
         style="fill:none;stroke:#5c411b;stroke-width:2.5;stroke-linecap:round;stroke-linejoin:round;stroke-miterlimit:4;stroke-opacity:1;stroke-dasharray:none" />
      <path
         inkscape:export-ydpi="90"
         inkscape:export-xdpi="90"
         inkscape:export-filename="/home/micha/Projects/Bandana/raw/ideas/BambooColor.png"
         sodipodi:nodetypes="ccccc"
         inkscape:connector-curvature="0"
         id="path4902"
         d="m 152.3991,1048.5051 -0.3235,28.1202 c 38.91368,-3.842 77.8274,-3.1454 116.74108,0.2726 l 0,-28.9381 c -37.55876,1.9497 -76.53643,2.2267 -116.41758,0.5453 z"
         style="fill:#c99043;fill-opacity:1;fill-rule:nonzero;stroke:#7e5e36;stroke-width:2.5;stroke-linecap:round;stroke-linejoin:round;stroke-miterlimit:4;stroke-opacity:1;stroke-dasharray:none" />
      <path
         inkscape:export-ydpi="90"
         inkscape:export-xdpi="90"
         inkscape:export-filename="/home/micha/Projects/Bandana/raw/ideas/BambooColor.png"
         inkscape:connector-curvature="0"
         id="path4904"
         d="m 261.5917,1067.8504 c 0,0 -13.07851,0.2726 -14.24097,0.8179 -1.16256,0.5453 -6.39389,2.1811 -13.95033,1.9085 -7.55645,-0.2727 -16.566,-2.1811 -25.86622,-2.4538 -9.30022,-0.2726 -34.58517,1.0906 -34.58517,1.0906 0,0 -10.46275,1.3632 -13.65969,0.5453 -3.19695,-0.8179 -4.94074,-3.2717 -4.94074,-3.2717 0,0 7.84705,-2.4539 9.30021,-2.7265 1.45316,-0.2727 -4.06884,-1.9085 -6.68452,-1.9085 -2.61569,0 -1.16253,-4.3623 -1.16253,-5.4528 0,-1.0906 -3.19696,-4.0897 -3.19696,-4.0897 l 0,24.2652 18.01917,-1.3631 40.10717,-1.0906 35.74769,1.9085 21.50677,1.6358 0.58128,-7.3614 c 0,0 -0.87192,-3.8169 -1.4532,-5.7255 -0.58128,-1.9084 -4.65014,-2.999 -6.10324,-2.999 -1.4532,0 -0.29064,3.5443 -0.29064,3.5443 z"
         style="fill:#9d6e2d;fill-opacity:1;fill-rule:nonzero;stroke:none" />
      <path
         inkscape:export-ydpi="90"
         inkscape:export-xdpi="90"
         inkscape:export-filename="/home/micha/Projects/Bandana/raw/ideas/BambooColor.png"
         sodipodi:nodetypes="ccccccsssssccc"
         inkscape:connector-curvature="0"
         id="path4906"
         d="m 152.89542,1047.9474 43.59475,1.3632 31.6788,0 34.58519,-1.3632 6.97517,-0.2727 -2.32503,6.5435 c 0,0 -10.46275,1.0906 -13.36905,0 -2.9063,-1.0905 -17.72855,0 -21.50677,0 -3.77823,0 -18.30984,1.0906 -25.28493,1.0906 -6.97517,0 -27.90138,-2.2199 -29.06318,-2.1811 -1.16252,0.039 -19.61535,0.052 -19.76295,0.2726 -0.41119,0.6136 5.38258,1.476 4.94074,2.4538 -6.18239,0.1309 -8.72701,-2.1758 -13.07842,-3.2718 z"
         style="fill:#e0b779;fill-opacity:1;fill-rule:nonzero;stroke:none" />
      <path
         inkscape:export-ydpi="90"
         inkscape:export-xdpi="90"
         inkscape:export-filename="/home/micha/Projects/Bandana/raw/ideas/BambooColor.png"
         style="fill:none;stroke:#5c411b;stroke-width:2.5;stroke-linecap:round;stroke-linejoin:round;stroke-miterlimit:4;stroke-opacity:1;stroke-dasharray:none"
         d="m 152.3991,1048.5051 -0.3235,28.1202 c 38.91368,-3.842 77.8274,-3.1454 116.74108,0.2726 l 0,-28.9381 c -37.55876,1.9497 -76.53643,2.2267 -116.41758,0.5453 z"
         id="path4908"
         inkscape:connector-curvature="0"
         sodipodi:nodetypes="ccccc" />
      <path
         inkscape:export-ydpi="90"
         inkscape:export-xdpi="90"
         inkscape:export-filename="/home/micha/Projects/Bandana/raw/ideas/BambooColor.png"
         sodipodi:nodetypes="ccssscssscc"
         inkscape:connector-curvature="0"
         id="path4910"
         d="m 268.27622,1047.6747 -1.74384,4.635 c 0,0 0,9.5425 0,11.1783 0,1.6359 0.58128,5.7256 1.16256,6.8161 0.58128,1.0906 0.29064,4.0897 0.29064,5.453 0,1.3631 5.23133,1.0905 5.23133,1.0905 0,0 -0.29064,-0.5453 -1.16246,-3.5444 -0.87192,-2.9991 0,-7.0887 -0.29064,-8.7246 -0.29064,-1.6358 -1.16256,-7.9066 -0.87192,-9.8151 0.29064,-1.9085 1.74374,-6.5435 1.74374,-6.5435 z"
         style="fill:#9d6e2d;fill-opacity:1;fill-rule:nonzero;stroke:#5c411b;stroke-width:2.5;stroke-linecap:round;stroke-linejoin:round;stroke-miterlimit:4;stroke-opacity:1;stroke-dasharray:none" />
      <path
         inkscape:export-ydpi="90"
         inkscape:export-xdpi="90"
         inkscape:export-filename="/home/micha/Projects/Bandana/raw/ideas/BambooColor.png"
         id="path4912"
         d="m 150.11456,1047.9493 c -25.53613,1.3256 -51.74554,1.8495 -78.43149,1.5388 -3.9503,7.9474 -7.05002,16.2463 -8.96099,25.0766 29.13467,-1.2545 58.25781,-0.2223 87.39248,2.3367 l 0,-28.9521 z"
         style="fill:#c99043;fill-opacity:1;fill-rule:nonzero;stroke:#7e5e36;stroke-width:2.5;stroke-linecap:round;stroke-linejoin:round;stroke-miterlimit:4;stroke-opacity:1;stroke-dasharray:none"
         inkscape:connector-curvature="0" />
      <path
         inkscape:export-ydpi="90"
         inkscape:export-xdpi="90"
         inkscape:export-filename="/home/micha/Projects/Bandana/raw/ideas/BambooColor.png"
         sodipodi:nodetypes="sccsssccccccss"
         id="path4914"
         d="m 140.8498,1063.8501 c -1.45315,0 1.18467,1.2824 1.18467,1.2824 l -7.04729,3.163 c 0,0 -5.18611,-0.1748 -6.34863,0.3705 -1.16253,0.5453 -6.38629,2.1819 -13.9427,1.9092 -7.55643,-0.2726 -16.54999,-2.178 -25.85019,-2.4506 -5.58724,-0.1638 -16.51868,0.2317 -24.6959,0.5984 -0.57916,2.0423 -1.07329,4.112 -1.51881,6.2122 l 29.40421,-0.8264 35.75285,1.9092 21.50639,1.6528 0.57715,-7.3805 c 0,0 -0.87679,-5.7284 -1.45806,-7.637 -0.58126,-1.9085 -6.11053,1.1968 -7.56369,1.1968 z"
         style="fill:#9d6e2d;fill-opacity:1;fill-rule:nonzero;stroke:none"
         inkscape:connector-curvature="0" />
      <path
         inkscape:export-ydpi="90"
         inkscape:export-xdpi="90"
         inkscape:export-filename="/home/micha/Projects/Bandana/raw/ideas/BambooColor.png"
         id="path4916"
         d="m 151.02584,1047.6643 -6.98653,0.285 -34.56818,1.3678 -31.68243,0 -5.92337,-0.1994 c -0.80602,1.6092 -1.57214,3.2335 -2.30859,4.8728 6.78943,0.6122 15.0186,1.3108 18.98515,1.3108 6.97516,0 21.49483,-1.0829 25.27305,-1.0829 3.77821,0 18.60006,-1.0905 21.50638,0 2.90631,1.0906 13.39593,0 13.39593,0 l 2.30859,-6.5541 z"
         style="fill:#e0b779;fill-opacity:1;fill-rule:nonzero;stroke:none"
         inkscape:connector-curvature="0" />
      <path
         inkscape:export-ydpi="90"
         inkscape:export-xdpi="90"
         inkscape:export-filename="/home/micha/Projects/Bandana/raw/ideas/BambooColor.png"
         id="path4918"
         d="m 150.11456,1047.9493 c -25.53613,1.3256 -51.74554,1.8495 -78.43149,1.5388 -3.9503,7.9474 -7.05002,16.2463 -8.96099,25.0766 29.13467,-1.2545 58.25781,-0.2223 87.39248,2.3367 l 0,-28.9521 z"
         style="fill:none;stroke:#5c411b;stroke-width:2.5;stroke-linecap:round;stroke-linejoin:round;stroke-miterlimit:4;stroke-opacity:1;stroke-dasharray:none"
         inkscape:connector-curvature="0" />
      <path
         inkscape:export-ydpi="90"
         inkscape:export-xdpi="90"
         inkscape:export-filename="/home/micha/Projects/Bandana/raw/ideas/BambooColor.png"
         style="fill:#9d6e2d;fill-opacity:1;fill-rule:nonzero;stroke:#5c411b;stroke-width:2.5;stroke-linecap:round;stroke-linejoin:round;stroke-miterlimit:4;stroke-opacity:1;stroke-dasharray:none"
         d="m 149.5763,1047.6747 -1.74379,4.635 c 0,0 0,9.5425 0,11.1783 0,1.6359 0.58127,5.7256 1.16253,6.8161 0.58126,1.0906 0.29063,4.0897 0.29063,5.453 0,1.3631 5.23137,1.0905 5.23137,1.0905 0,0 -0.29064,-0.5453 -1.16253,-3.5444 -0.8719,-2.9991 0,-7.0887 -0.29063,-8.7246 -0.29063,-1.6358 -1.16253,-7.9066 -0.8719,-9.8151 0.29064,-1.9085 1.74379,-6.5435 1.74379,-6.5435 z"
         id="path4920"
         inkscape:connector-curvature="0"
         sodipodi:nodetypes="ccssscssscc" />
      <path
         inkscape:export-ydpi="90"
         inkscape:export-xdpi="90"
         inkscape:export-filename="/home/micha/Projects/Bandana/raw/ideas/BambooColor.png"
         sodipodi:nodetypes="ccccc"
         inkscape:connector-curvature="0"
         id="path4922"
         d="m 385.68875,1048.5051 -0.3235,28.1202 c 38.91365,-3.842 77.82735,-3.1454 116.74105,0.2726 l 0,-28.9381 c -37.5587,1.9497 -76.5364,2.2267 -116.41755,0.5453 z"
         style="fill:#c99043;fill-opacity:1;fill-rule:nonzero;stroke:#7e5e36;stroke-width:2.5;stroke-linecap:round;stroke-linejoin:round;stroke-miterlimit:4;stroke-opacity:1;stroke-dasharray:none" />
      <path
         inkscape:export-ydpi="90"
         inkscape:export-xdpi="90"
         inkscape:export-filename="/home/micha/Projects/Bandana/raw/ideas/BambooColor.png"
         sodipodi:nodetypes="ccsscscssscccccccsscc"
         inkscape:connector-curvature="0"
         id="path4924"
         d="m 494.8813,1067.8504 c 0,0 -13.0785,0.2726 -14.2409,0.8179 -1.1626,0.5453 -6.3939,2.1811 -13.9504,1.9085 -7.5564,-0.2727 -16.566,-2.1811 -25.8662,-2.4538 -9.3002,-0.2726 -34.5851,1.0906 -34.5851,1.0906 0,0 -10.4628,1.3632 -13.65974,0.5453 -3.19695,-0.8179 0.16243,-1.7899 0.16243,-1.7899 0,0 4.80946,-1.9979 6.26261,-2.2706 1.4532,-0.2726 -6.1344,-3.8462 -8.75016,-3.8462 -2.61567,0 -1.16247,-4.3623 -1.16247,-5.4528 0,-1.0906 -3.19694,-4.0897 -3.19694,-4.0897 l 0,24.2652 18.01907,-1.3631 40.1073,-1.0906 35.7476,1.9085 21.5068,1.6358 0.5813,-7.3614 c 0,0 -0.8719,-3.8169 -1.4532,-5.7255 -0.5813,-1.9084 -0.276,2.9282 -1.7291,2.9282 -1.4532,0 -5.7583,-1.9269 -5.7583,-1.9269 z"
         style="fill:#9d6e2d;fill-opacity:1;fill-rule:nonzero;stroke:none" />
      <path
         inkscape:export-ydpi="90"
         inkscape:export-xdpi="90"
         inkscape:export-filename="/home/micha/Projects/Bandana/raw/ideas/BambooColor.png"
         sodipodi:nodetypes="ccccccsssssccc"
         inkscape:connector-curvature="0"
         id="path4926"
         d="m 386.18507,1047.9474 43.59473,1.3632 31.6788,0 34.5852,-1.3632 6.9752,-0.2727 -1.839,10.8749 c 0,0 -10.9488,-3.2408 -13.8551,-4.3314 -2.9063,-1.0905 -17.7286,0 -21.5068,0 -3.7782,0 -18.3097,1.0906 -25.2849,1.0906 -6.9752,0 -27.9014,-2.2199 -29.0632,-2.1811 -1.1625,0.039 -19.61541,0.052 -19.76296,0.2726 -0.41118,0.6136 2.34495,2.0459 1.90315,3.0237 -9.96059,3.1299 -5.7534,-2.6949 -10.04088,-3.8417 z"
         style="fill:#e0b779;fill-opacity:1;fill-rule:nonzero;stroke:none" />
      <path
         inkscape:export-ydpi="90"
         inkscape:export-xdpi="90"
         inkscape:export-filename="/home/micha/Projects/Bandana/raw/ideas/BambooColor.png"
         style="fill:none;stroke:#5c411b;stroke-width:2.5;stroke-linecap:round;stroke-linejoin:round;stroke-miterlimit:4;stroke-opacity:1;stroke-dasharray:none"
         d="m 385.68875,1048.5051 -0.3235,28.1202 c 38.91365,-3.842 77.82735,-3.1454 116.74105,0.2726 l 0,-28.9381 c -37.5587,1.9497 -76.5364,2.2267 -116.41755,0.5453 z"
         id="path4928"
         inkscape:connector-curvature="0"
         sodipodi:nodetypes="ccccc" />
      <path
         inkscape:export-ydpi="90"
         inkscape:export-xdpi="90"
         inkscape:export-filename="/home/micha/Projects/Bandana/raw/ideas/BambooColor.png"
         style="fill:#9d6e2d;fill-opacity:1;fill-rule:nonzero;stroke:#5c411b;stroke-width:2.5;stroke-linecap:round;stroke-linejoin:round;stroke-miterlimit:4;stroke-opacity:1;stroke-dasharray:none"
         d="m 384.92103,1047.6747 -1.74384,4.635 c 0,0 0,9.5425 0,11.1783 0,1.6359 0.58128,5.7256 1.16256,6.8161 0.58128,1.0906 0.29064,4.0897 0.29064,5.453 0,1.3631 5.23133,1.0905 5.23133,1.0905 0,0 -0.29064,-0.5453 -1.16247,-3.5444 -0.87192,-2.9991 0,-7.0887 -0.29064,-8.7246 -0.29064,-1.6358 -1.16256,-7.9066 -0.87192,-9.8151 0.29064,-1.9085 1.74375,-6.5435 1.74375,-6.5435 z"
         id="path4930"
         inkscape:connector-curvature="0"
         sodipodi:nodetypes="ccssscssscc" />
      <path
         inkscape:export-ydpi="90"
         inkscape:export-xdpi="90"
         inkscape:export-filename="/home/micha/Projects/Bandana/raw/ideas/BambooColor.png"
         sodipodi:nodetypes="ccssscssscc"
         inkscape:connector-curvature="0"
         id="path4932"
         d="m 501.5659,1047.6747 -1.7439,4.635 c 0,0 0,9.5425 0,11.1783 0,1.6359 0.5813,5.7256 1.1626,6.8161 0.5813,1.0906 0.2906,4.0897 0.2906,5.453 0,1.3631 5.2313,1.0905 5.2313,1.0905 0,0 -0.2906,-0.5453 -1.1624,-3.5444 -0.8719,-2.9991 0,-7.0887 -0.2907,-8.7246 -0.2906,-1.6358 -1.1625,-7.9066 -0.8719,-9.8151 0.2907,-1.9085 1.7438,-6.5435 1.7438,-6.5435 z"
         style="fill:#9d6e2d;fill-opacity:1;fill-rule:nonzero;stroke:#5c411b;stroke-width:2.5;stroke-linecap:round;stroke-linejoin:round;stroke-miterlimit:4;stroke-opacity:1;stroke-dasharray:none" />
      <path
         inkscape:connector-curvature="0"
         style="fill:#c99043;fill-opacity:1;fill-rule:nonzero;stroke:#7e5e36;stroke-width:2.5;stroke-linecap:round;stroke-linejoin:round;stroke-miterlimit:4;stroke-opacity:1;stroke-dasharray:none"
         d="m 216.3273,1049.5192 -0.3039,28.0972 c 13.772,-1.3597 27.5398,-2.1473 41.3117,-2.4506 -0.7866,-6.1563 -3.2355,-17.1664 -4.9817,-24.6777 -11.9173,-0.1576 -23.9281,-0.4588 -36.0261,-0.9689 z"
         id="path4934"
         inkscape:export-filename="/home/micha/Projects/Bandana/raw/ideas/BambooColor.png"
         inkscape:export-xdpi="90"
         inkscape:export-ydpi="90" />
      <path
         style="fill:#9d6e2d;fill-opacity:1;fill-rule:nonzero;stroke:none"
         d="m 216.5398,1053.3092 0,24.2788 18.0132,-1.3678 22.8125,-0.627 c -0.2048,-1.7067 -0.5661,-3.876 -1.0025,-6.2407 -9.6585,0.3331 -19.4711,0.8549 -19.4711,0.8549 0,0 -10.4723,1.3594 -13.6693,0.5415 -3.1969,-0.818 -4.9513,-3.2486 -4.9513,-3.2486 0,0 0.8251,1.7545 2.2782,1.4818 1.4532,-0.2726 2.9499,-6.1267 0.3341,-6.1267 -2.6157,0 -1.1542,-4.3522 -1.1542,-5.4427 0,-1.0906 -3.1896,-4.1035 -3.1896,-4.1035 z"
         id="path4936"
         inkscape:connector-curvature="0"
         sodipodi:nodetypes="ccccccscsssc"
         inkscape:export-filename="/home/micha/Projects/Bandana/raw/ideas/BambooColor.png"
         inkscape:export-xdpi="90"
         inkscape:export-ydpi="90" />
      <path
         style="fill:#e0b779;fill-opacity:1;fill-rule:nonzero;stroke:none"
         d="m 216.8436,1048.9493 1.0024,10.1162 c 4.3514,1.096 3.2646,-2.0918 9.447,-2.2227 0.4418,-0.9778 -5.3625,-1.837 -4.9513,-2.4507 0.1476,-0.2203 18.6125,-0.2178 19.7749,-0.2565 0.5439,-0.018 5.5529,0.4566 11.3,0.9689 -0.414,-1.8382 -0.7878,-3.4714 -1.1543,-5.0438 z"
         id="path4938"
         inkscape:connector-curvature="0"
         sodipodi:nodetypes="cccccccc"
         inkscape:export-filename="/home/micha/Projects/Bandana/raw/ideas/BambooColor.png"
         inkscape:export-xdpi="90"
         inkscape:export-ydpi="90" />
      <path
         inkscape:connector-curvature="0"
         style="fill:none;stroke:#5c411b;stroke-width:2.5;stroke-linecap:round;stroke-linejoin:round;stroke-miterlimit:4;stroke-opacity:1;stroke-dasharray:none"
         d="m 216.3273,1049.5192 -0.3039,28.0972 c 13.772,-1.3597 27.5398,-2.1473 41.3117,-2.4506 -0.7866,-6.1563 -3.2355,-17.1664 -4.9817,-24.6777 -11.9173,-0.1576 -23.9281,-0.4588 -36.0261,-0.9689 z"
         id="path4940"
         inkscape:export-filename="/home/micha/Projects/Bandana/raw/ideas/BambooColor.png"
         inkscape:export-xdpi="90"
         inkscape:export-ydpi="90" />
      <path
         sodipodi:nodetypes="ccccc"
         inkscape:connector-curvature="0"
         id="path4942"
         d="m -16.95606,1049.5051 -0.3235,28.1202 c 38.91369,-3.842 77.82737,-3.1454 116.74105,0.2726 l 0,-28.9381 c -37.55876,1.9497 -76.5364,2.2267 -116.41755,0.5453 z"
         style="fill:#c99043;fill-opacity:1;fill-rule:nonzero;stroke:#7e5e36;stroke-width:2.5;stroke-linecap:round;stroke-linejoin:round;stroke-miterlimit:4;stroke-opacity:1;stroke-dasharray:none"
         inkscape:export-filename="/home/micha/Projects/Bandana/raw/ideas/BambooColor.png"
         inkscape:export-xdpi="90"
         inkscape:export-ydpi="90" />
      <path
         inkscape:connector-curvature="0"
         id="path4944"
         d="m 92.23651,1068.8504 c 0,0 -13.07851,0.2726 -14.24097,0.8179 -1.16256,0.5453 -6.39389,2.1811 -13.95033,1.9085 -7.55645,-0.2727 -16.566,-2.1811 -25.86619,-2.4538 -9.30028,-0.2726 -34.58518,1.0906 -34.58518,1.0906 0,0 -10.46275,1.3632 -13.65969,0.5453 -3.19694,-0.8179 -4.94078,-3.2717 -4.94078,-3.2717 0,0 7.84708,-2.4539 9.30018,-2.7265 1.4532,-0.2727 -4.06876,-1.9085 -6.68452,-1.9085 -2.61566,0 -1.16246,-4.3623 -1.16246,-5.4528 0,-1.0906 -3.19695,-4.0897 -3.19695,-4.0897 l 0,24.2652 18.0191,-1.3631 40.10725,-1.0906 35.74765,1.9085 21.50677,1.6358 0.58128,-7.3614 c 0,0 -0.87192,-3.8169 -1.4532,-5.7255 -0.58128,-1.9084 -4.65014,-2.999 -6.10324,-2.999 -1.4532,0 -0.29064,3.5443 -0.29064,3.5443 z"
         style="fill:#9d6e2d;fill-opacity:1;fill-rule:nonzero;stroke:none"
         inkscape:export-filename="/home/micha/Projects/Bandana/raw/ideas/BambooColor.png"
         inkscape:export-xdpi="90"
         inkscape:export-ydpi="90" />
      <path
         sodipodi:nodetypes="ccccccsssssccc"
         inkscape:connector-curvature="0"
         id="path4946"
         d="m -16.45974,1048.9474 43.59474,1.3632 31.67878,0 34.58519,-1.3632 6.97516,-0.2727 -3.05405,9.3931 c 0,0 -9.73372,-1.759 -12.64002,-2.8496 -2.9063,-1.0905 -17.72855,0 -21.50677,0 -3.77823,0 -18.30974,1.0906 -25.28491,1.0906 -6.97516,0 -27.90143,-2.2199 -29.06322,-2.1811 -1.16246,0.039 -19.61538,0.052 -19.76293,0.2726 -0.41117,0.6136 5.38257,1.476 4.94078,2.4538 -6.18247,0.1309 -8.72707,-2.1758 -13.07851,-3.2718 z"
         style="fill:#e0b779;fill-opacity:1;fill-rule:nonzero;stroke:none"
         inkscape:export-filename="/home/micha/Projects/Bandana/raw/ideas/BambooColor.png"
         inkscape:export-xdpi="90"
         inkscape:export-ydpi="90" />
      <path
         style="fill:none;stroke:#5c411b;stroke-width:2.5;stroke-linecap:round;stroke-linejoin:round;stroke-miterlimit:4;stroke-opacity:1;stroke-dasharray:none"
         d="m -16.95606,1049.5051 -0.3235,28.1202 c 38.91369,-3.842 77.82737,-3.1454 116.74105,0.2726 l 0,-28.9381 c -37.55876,1.9497 -76.5364,2.2267 -116.41755,0.5453 z"
         id="path4948"
         inkscape:connector-curvature="0"
         sodipodi:nodetypes="ccccc"
         inkscape:export-filename="/home/micha/Projects/Bandana/raw/ideas/BambooColor.png"
         inkscape:export-xdpi="90"
         inkscape:export-ydpi="90" />
      <path
         style="fill:#c99043;fill-opacity:1;fill-rule:nonzero;stroke:#7e5e36;stroke-width:2.5;stroke-linecap:round;stroke-linejoin:round;stroke-miterlimit:4;stroke-opacity:1;stroke-dasharray:none"
         d="m -133.6009,1049.5051 -0.3235,28.1202 c 38.91368,-3.842 77.8274,-3.1454 116.74108,0.2726 l 0,-28.9381 c -37.55876,1.9497 -76.53643,2.2267 -116.41758,0.5453 z"
         id="path4950"
         inkscape:connector-curvature="0"
         sodipodi:nodetypes="ccccc"
         inkscape:export-filename="/home/micha/Projects/Bandana/raw/ideas/BambooColor.png"
         inkscape:export-xdpi="90"
         inkscape:export-ydpi="90" />
      <path
         style="fill:#9d6e2d;fill-opacity:1;fill-rule:nonzero;stroke:none"
         d="m -24.4083,1068.8504 c 0,0 -13.07851,0.2726 -14.24097,0.8179 -1.16256,0.5453 -6.39389,2.1811 -13.95033,1.9085 -7.55645,-0.2727 -16.566,-2.1811 -25.86622,-2.4538 -9.30022,-0.2726 -34.58517,1.0906 -34.58517,1.0906 0,0 -10.46275,1.3632 -13.65969,0.5453 -3.19695,-0.8179 -4.94074,-3.2717 -4.94074,-3.2717 0,0 7.84705,-2.4539 9.30021,-2.7265 1.45316,-0.2727 -4.06884,-1.9085 -6.68452,-1.9085 -2.61569,0 -1.16253,-4.3623 -1.16253,-5.4528 0,-1.0906 -3.19696,-4.0897 -3.19696,-4.0897 l 0,24.2652 18.01917,-1.3631 40.10717,-1.0906 35.74769,1.9085 21.50677,1.6358 0.58128,-7.3614 c 0,0 -0.87192,-3.8169 -1.4532,-5.7255 -0.58128,-1.9084 -4.65014,-2.999 -6.10324,-2.999 -1.4532,0 -0.29064,3.5443 -0.29064,3.5443 z"
         id="path4952"
         inkscape:connector-curvature="0"
         inkscape:export-filename="/home/micha/Projects/Bandana/raw/ideas/BambooColor.png"
         inkscape:export-xdpi="90"
         inkscape:export-ydpi="90" />
      <path
         style="fill:#e0b779;fill-opacity:1;fill-rule:nonzero;stroke:none"
         d="m -133.10458,1048.9474 43.59475,1.3632 31.6788,0 34.58519,-1.3632 6.97517,-0.2727 -2.32503,6.5435 c 0,0 -10.46275,1.0906 -13.36905,0 -2.9063,-1.0905 -17.72855,0 -21.50677,0 -3.77823,0 -18.30984,1.0906 -25.28493,1.0906 -6.97517,0 -27.90138,-2.2199 -29.06318,-2.1811 -1.16252,0.039 -19.61535,0.052 -19.76295,0.2726 -0.41119,0.6136 5.38258,1.476 4.94074,2.4538 -6.18239,0.1309 -8.72701,-2.1758 -13.07842,-3.2718 z"
         id="path4954"
         inkscape:connector-curvature="0"
         sodipodi:nodetypes="ccccccsssssccc"
         inkscape:export-filename="/home/micha/Projects/Bandana/raw/ideas/BambooColor.png"
         inkscape:export-xdpi="90"
         inkscape:export-ydpi="90" />
      <path
         sodipodi:nodetypes="ccccc"
         inkscape:connector-curvature="0"
         id="path4956"
         d="m -133.6009,1049.5051 -0.3235,28.1202 c 38.91368,-3.842 77.8274,-3.1454 116.74108,0.2726 l 0,-28.9381 c -37.55876,1.9497 -76.53643,2.2267 -116.41758,0.5453 z"
         style="fill:none;stroke:#5c411b;stroke-width:2.5;stroke-linecap:round;stroke-linejoin:round;stroke-miterlimit:4;stroke-opacity:1;stroke-dasharray:none"
         inkscape:export-filename="/home/micha/Projects/Bandana/raw/ideas/BambooColor.png"
         inkscape:export-xdpi="90"
         inkscape:export-ydpi="90" />
      <path
         style="fill:#9d6e2d;fill-opacity:1;fill-rule:nonzero;stroke:#5c411b;stroke-width:2.5;stroke-linecap:round;stroke-linejoin:round;stroke-miterlimit:4;stroke-opacity:1;stroke-dasharray:none"
         d="m -17.72378,1048.6747 -1.74384,4.635 c 0,0 0,9.5425 0,11.1783 0,1.6359 0.58128,5.7256 1.16256,6.8161 0.58128,1.0906 0.29064,4.0897 0.29064,5.453 0,1.3631 5.23133,1.0905 5.23133,1.0905 0,0 -0.29064,-0.5453 -1.16246,-3.5444 -0.87192,-2.9991 0,-7.0887 -0.29064,-8.7246 -0.29064,-1.6358 -1.16256,-7.9066 -0.87192,-9.8151 0.29064,-1.9085 1.74374,-6.5435 1.74374,-6.5435 z"
         id="path4958"
         inkscape:connector-curvature="0"
         sodipodi:nodetypes="ccssscssscc"
         inkscape:export-filename="/home/micha/Projects/Bandana/raw/ideas/BambooColor.png"
         inkscape:export-xdpi="90"
         inkscape:export-ydpi="90" />
      <path
         inkscape:connector-curvature="0"
         style="fill:#c99043;fill-opacity:1;fill-rule:nonzero;stroke:#7e5e36;stroke-width:2.5;stroke-linecap:round;stroke-linejoin:round;stroke-miterlimit:4;stroke-opacity:1;stroke-dasharray:none"
         d="m -135.88544,1048.9493 c -25.53613,1.3256 -51.74554,1.8495 -78.43149,1.5388 -3.9503,7.9474 -7.05002,16.2463 -8.96099,25.0766 29.13467,-1.2545 58.25781,-0.2223 87.39248,2.3367 l 0,-28.9521 z"
         id="path4960"
         inkscape:export-filename="/home/micha/Projects/Bandana/raw/ideas/BambooColor.png"
         inkscape:export-xdpi="90"
         inkscape:export-ydpi="90" />
      <path
         inkscape:connector-curvature="0"
         style="fill:#9d6e2d;fill-opacity:1;fill-rule:nonzero;stroke:none"
         d="m -145.1502,1064.8501 c -1.45315,0 1.18467,1.2824 1.18467,1.2824 l -7.04729,3.163 c 0,0 -5.18611,-0.1748 -6.34863,0.3705 -1.16253,0.5453 -6.38629,2.1819 -13.9427,1.9092 -7.55643,-0.2726 -16.54999,-2.178 -25.85019,-2.4506 -5.58724,-0.1638 -16.51868,0.2317 -24.6959,0.5984 -0.57916,2.0423 -1.07329,4.112 -1.51881,6.2122 l 29.40421,-0.8264 35.75285,1.9092 21.50639,1.6528 0.57715,-7.3805 c 0,0 -0.87679,-5.7284 -1.45806,-7.637 -0.58126,-1.9085 -6.11053,1.1968 -7.56369,1.1968 z"
         id="path4962"
         sodipodi:nodetypes="sccsssccccccss"
         inkscape:export-filename="/home/micha/Projects/Bandana/raw/ideas/BambooColor.png"
         inkscape:export-xdpi="90"
         inkscape:export-ydpi="90" />
      <path
         inkscape:connector-curvature="0"
         style="fill:#e0b779;fill-opacity:1;fill-rule:nonzero;stroke:none"
         d="m -134.97416,1048.6643 -6.98653,0.285 -34.56818,1.3678 -31.68243,0 -5.92337,-0.1994 c -0.80602,1.6092 -1.57214,3.2335 -2.30859,4.8728 6.78943,0.6122 15.0186,1.3108 18.98515,1.3108 6.97516,0 21.49483,-1.0829 25.27305,-1.0829 3.77821,0 18.60006,-1.0905 21.50638,0 2.90631,1.0906 13.39593,0 13.39593,0 l 2.30859,-6.5541 z"
         id="path4964"
         inkscape:export-filename="/home/micha/Projects/Bandana/raw/ideas/BambooColor.png"
         inkscape:export-xdpi="90"
         inkscape:export-ydpi="90" />
      <path
         inkscape:connector-curvature="0"
         style="fill:none;stroke:#5c411b;stroke-width:2.5;stroke-linecap:round;stroke-linejoin:round;stroke-miterlimit:4;stroke-opacity:1;stroke-dasharray:none"
         d="m -135.88544,1048.9493 c -25.53613,1.3256 -51.74554,1.8495 -78.43149,1.5388 -3.9503,7.9474 -7.05002,16.2463 -8.96099,25.0766 29.13467,-1.2545 58.25781,-0.2223 87.39248,2.3367 l 0,-28.9521 z"
         id="path4966"
         inkscape:export-filename="/home/micha/Projects/Bandana/raw/ideas/BambooColor.png"
         inkscape:export-xdpi="90"
         inkscape:export-ydpi="90" />
      <path
         sodipodi:nodetypes="ccssscssscc"
         inkscape:connector-curvature="0"
         id="path4968"
         d="m -136.4237,1048.6747 -1.74379,4.635 c 0,0 0,9.5425 0,11.1783 0,1.6359 0.58127,5.7256 1.16253,6.8161 0.58126,1.0906 0.29063,4.0897 0.29063,5.453 0,1.3631 5.23137,1.0905 5.23137,1.0905 0,0 -0.29064,-0.5453 -1.16253,-3.5444 -0.8719,-2.9991 0,-7.0887 -0.29063,-8.7246 -0.29063,-1.6358 -1.16253,-7.9066 -0.8719,-9.8151 0.29064,-1.9085 1.74379,-6.5435 1.74379,-6.5435 z"
         style="fill:#9d6e2d;fill-opacity:1;fill-rule:nonzero;stroke:#5c411b;stroke-width:2.5;stroke-linecap:round;stroke-linejoin:round;stroke-miterlimit:4;stroke-opacity:1;stroke-dasharray:none"
         inkscape:export-filename="/home/micha/Projects/Bandana/raw/ideas/BambooColor.png"
         inkscape:export-xdpi="90"
         inkscape:export-ydpi="90" />
      <path
         style="fill:#c99043;fill-opacity:1;fill-rule:nonzero;stroke:#7e5e36;stroke-width:2.5;stroke-linecap:round;stroke-linejoin:round;stroke-miterlimit:4;stroke-opacity:1;stroke-dasharray:none"
         d="m 99.68875,1049.5051 -0.3235,28.1202 c 38.91365,-3.842 77.82735,-3.1454 116.74105,0.2726 l 0,-28.9381 c -37.5587,1.9497 -76.5364,2.2267 -116.41755,0.5453 z"
         id="path4970"
         inkscape:connector-curvature="0"
         sodipodi:nodetypes="ccccc"
         inkscape:export-filename="/home/micha/Projects/Bandana/raw/ideas/BambooColor.png"
         inkscape:export-xdpi="90"
         inkscape:export-ydpi="90" />
      <path
         style="fill:#9d6e2d;fill-opacity:1;fill-rule:nonzero;stroke:none"
         d="m 208.8813,1068.8504 c 0,0 -13.0785,0.2726 -14.2409,0.8179 -1.1626,0.5453 -6.3939,2.1811 -13.9504,1.9085 -7.5564,-0.2727 -16.566,-2.1811 -25.8662,-2.4538 -9.3002,-0.2726 -34.5851,1.0906 -34.5851,1.0906 0,0 -10.4628,1.3632 -13.65974,0.5453 -3.19695,-0.8179 0.16243,-1.7899 0.16243,-1.7899 0,0 4.80946,-1.9979 6.26261,-2.2706 1.4532,-0.2726 -6.1344,-3.8462 -8.75016,-3.8462 -2.61567,0 -1.16247,-4.3623 -1.16247,-5.4528 0,-1.0906 -3.19694,-4.0897 -3.19694,-4.0897 l 0,24.2652 18.01907,-1.3631 40.1073,-1.0906 35.7476,1.9085 21.5068,1.6358 0.5813,-7.3614 c 0,0 -0.8719,-3.8169 -1.4532,-5.7255 -0.5813,-1.9084 -0.276,2.9282 -1.7291,2.9282 -1.4532,0 -5.7583,-1.9269 -5.7583,-1.9269 z"
         id="path4972"
         inkscape:connector-curvature="0"
         sodipodi:nodetypes="ccsscscssscccccccsscc"
         inkscape:export-filename="/home/micha/Projects/Bandana/raw/ideas/BambooColor.png"
         inkscape:export-xdpi="90"
         inkscape:export-ydpi="90" />
      <path
         style="fill:#e0b779;fill-opacity:1;fill-rule:nonzero;stroke:none"
         d="m 100.18507,1048.9474 43.59473,1.3632 31.6788,0 34.5852,-1.3632 6.9752,-0.2727 -1.839,10.8749 c 0,0 -10.9488,-3.2408 -13.8551,-4.3314 -2.9063,-1.0905 -17.7286,0 -21.5068,0 -3.7782,0 -18.3097,1.0906 -25.2849,1.0906 -6.9752,0 -27.9014,-2.2199 -29.0632,-2.1811 -1.1625,0.039 -19.61541,0.052 -19.76296,0.2726 -0.41118,0.6136 2.34495,2.0459 1.90315,3.0237 -9.96059,3.1299 -5.7534,-2.6949 -10.04088,-3.8417 z"
         id="path4974"
         inkscape:connector-curvature="0"
         sodipodi:nodetypes="ccccccsssssccc"
         inkscape:export-filename="/home/micha/Projects/Bandana/raw/ideas/BambooColor.png"
         inkscape:export-xdpi="90"
         inkscape:export-ydpi="90" />
      <path
         sodipodi:nodetypes="ccccc"
         inkscape:connector-curvature="0"
         id="path4976"
         d="m 99.68875,1049.5051 -0.3235,28.1202 c 38.91365,-3.842 77.82735,-3.1454 116.74105,0.2726 l 0,-28.9381 c -37.5587,1.9497 -76.5364,2.2267 -116.41755,0.5453 z"
         style="fill:none;stroke:#5c411b;stroke-width:2.5;stroke-linecap:round;stroke-linejoin:round;stroke-miterlimit:4;stroke-opacity:1;stroke-dasharray:none"
         inkscape:export-filename="/home/micha/Projects/Bandana/raw/ideas/BambooColor.png"
         inkscape:export-xdpi="90"
         inkscape:export-ydpi="90" />
      <path
         sodipodi:nodetypes="ccssscssscc"
         inkscape:connector-curvature="0"
         id="path4978"
         d="m 98.92103,1048.6747 -1.74384,4.635 c 0,0 0,9.5425 0,11.1783 0,1.6359 0.58128,5.7256 1.16256,6.8161 0.58128,1.0906 0.29064,4.0897 0.29064,5.453 0,1.3631 5.23133,1.0905 5.23133,1.0905 0,0 -0.29064,-0.5453 -1.16247,-3.5444 -0.87192,-2.9991 0,-7.0887 -0.29064,-8.7246 -0.29064,-1.6358 -1.16256,-7.9066 -0.87192,-9.8151 0.29064,-1.9085 1.74375,-6.5435 1.74375,-6.5435 z"
         style="fill:#9d6e2d;fill-opacity:1;fill-rule:nonzero;stroke:#5c411b;stroke-width:2.5;stroke-linecap:round;stroke-linejoin:round;stroke-miterlimit:4;stroke-opacity:1;stroke-dasharray:none"
         inkscape:export-filename="/home/micha/Projects/Bandana/raw/ideas/BambooColor.png"
         inkscape:export-xdpi="90"
         inkscape:export-ydpi="90" />
      <path
         style="fill:#9d6e2d;fill-opacity:1;fill-rule:nonzero;stroke:#5c411b;stroke-width:2.5;stroke-linecap:round;stroke-linejoin:round;stroke-miterlimit:4;stroke-opacity:1;stroke-dasharray:none"
         d="m 215.5659,1048.6747 -1.7439,4.635 c 0,0 0,9.5425 0,11.1783 0,1.6359 0.5813,5.7256 1.1626,6.8161 0.5813,1.0906 0.2906,4.0897 0.2906,5.453 0,1.3631 5.2313,1.0905 5.2313,1.0905 0,0 -0.2906,-0.5453 -1.1624,-3.5444 -0.8719,-2.9991 0,-7.0887 -0.2907,-8.7246 -0.2906,-1.6358 -1.1625,-7.9066 -0.8719,-9.8151 0.2907,-1.9085 1.7438,-6.5435 1.7438,-6.5435 z"
         id="path4980"
         inkscape:connector-curvature="0"
         sodipodi:nodetypes="ccssscssscc"
         inkscape:export-filename="/home/micha/Projects/Bandana/raw/ideas/BambooColor.png"
         inkscape:export-xdpi="90"
         inkscape:export-ydpi="90" />
    </g>
    <path
       style="fill:#ae946b;fill-opacity:1;fill-rule:nonzero;stroke:none"
       d="m 288.89002,928.65536 c 4.38313,7.78305 8.70378,15.60568 13.22304,23.30901 1.34001,1.8251 2.66297,3.66465 4.12153,5.3994 3.02995,3.72501 6.0542,7.48051 8.50558,11.6219 2.37278,3.9226 4.32759,8.0755 6.46484,12.12692 1.26706,2.47573 2.91973,4.72549 4.34747,7.10749 1.87316,2.91115 3.57206,5.93749 5.6516,8.71133 2.58318,3.55739 5.35458,6.97699 7.89065,10.56859 1.53044,2.1641 3.02329,4.3817 4.03566,6.8441 0.5064,0.7613 1.84398,0.1913 1.62256,-0.7172 0.0851,-1.4048 0.13774,-2.8179 0.10017,-4.2242 -0.21872,-3.7069 -1.41795,-7.278 -2.98563,-10.61948 -1.55076,-3.32892 -3.54764,-6.42651 -5.71729,-9.38264 -2.9196,-4.18176 -5.28064,-8.76642 -6.8468,-13.62537 -0.80214,-2.35044 -1.58943,-4.71547 -2.60645,-6.98239 -0.61043,-1.29935 -1.33919,-2.53565 -2.22435,-3.66791 -2.35143,-3.22513 -5.25812,-5.9877 -8.17162,-8.69588 -4.19359,-3.75039 -8.62817,-7.25539 -12.43832,-11.41286 -5.00993,-5.44587 -9.95418,-10.95206 -14.9226,-16.43586 l -0.05,0 0,0.075 z"
       id="path5292"
       inkscape:connector-curvature="0"
       sodipodi:nodetypes="cccccccccccccccccccccc" />
    <path
       inkscape:connector-curvature="0"
       id="path5294"
       d="m 291.16672,925.60309 c -0.91808,0.70781 -0.73393,2.0216 -0.37528,2.97722 1.09395,3.00594 3.53799,5.18364 5.49811,7.61769 3.23523,3.82294 6.30492,7.79346 9.72561,11.45456 3.27818,3.27614 6.76147,6.34138 9.97686,9.68097 3.21421,3.18278 6.14501,6.73031 8.11146,10.83106 1.67385,3.28111 3.1642,6.65032 4.74128,9.97761 1.75453,3.31523 3.86329,6.42643 6.03114,9.48161 1.55711,2.49637 3.04101,5.04241 4.28155,7.71271 1.09359,2.31402 2.12969,4.65868 3.05266,7.04648 0.93195,2.4158 1.61848,4.9297 2.04612,7.4828 0.16629,1.1353 0.13819,2.2993 0.30023,3.4276 0.32288,0.7127 1.57273,0.4979 1.65122,-0.2752 0.98507,-2.5474 2.01321,-5.2401 1.6427,-8.0216 -0.32504,-3.521 -1.55921,-6.88582 -3.023,-10.07928 -1.16008,-2.47124 -2.523,-4.85318 -4.20444,-7.00886 -1.3206,-1.79018 -2.56249,-3.63823 -3.6854,-5.55835 -2.74436,-4.73137 -4.55392,-9.91421 -6.76541,-14.89783 -0.90294,-1.80451 -1.88747,-3.56902 -3.04168,-5.22691 -2.80352,-4.11168 -6.2098,-7.76417 -9.75563,-11.23979 -4.206,-4.1847 -8.32568,-8.45852 -12.24462,-12.91449 -3.27868,-3.61441 -6.60383,-7.20817 -10.31076,-10.39145 -1.08062,-0.86649 -2.22785,-1.71449 -3.57767,-2.10157 l -0.075,0.025 z"
       style="fill:#bba482;fill-opacity:1;fill-rule:nonzero;stroke:none"
       sodipodi:nodetypes="csccscccccccccccccccccccc" />
    <path
       sodipodi:nodetypes="aacacaa"
       inkscape:connector-curvature="0"
       id="path5296"
       d="m 215.62857,1030.3458 c -10.49887,-9.6321 -17.26225,-22.8745 -23.61758,-35.6265 -6.43783,-12.91759 -14.41072,-40.83039 -14.41072,-40.83039 0,0 20.85811,27.26547 30.22249,41.63098 8.17957,12.54791 22.61684,38.82891 22.61684,38.82891 0,0 -7.08255,-0.4771 -10.40775,-1.6012 -1.58385,-0.5354 -3.1713,-1.2715 -4.40328,-2.4018 z"
       style="fill:#ae946b;fill-opacity:1;fill-rule:nonzero;stroke:none" />
    <path
       style="fill:#ae946b;fill-opacity:1;fill-rule:nonzero;stroke:none"
       d="m 46.64219,813.49984 c -8.271844,-7.42776 -13.600566,-17.63952 -18.607789,-27.47319 -5.072237,-9.96132 -11.353906,-31.48612 -11.353906,-31.48612 0,0 16.433662,21.02561 23.811663,32.10349 6.444508,9.67631 17.819324,29.94269 17.819324,29.94269 0,0 -5.580192,-0.36789 -8.200043,-1.23475 -1.247882,-0.4129 -2.498604,-0.98051 -3.469249,-1.85212 z"
       id="path5298"
       inkscape:connector-curvature="0"
       sodipodi:nodetypes="aacacaa" />
    <path
       style="fill:#ae946b;fill-opacity:1;fill-rule:nonzero;stroke:none"
       d="m 195.00233,802.70464 c -0.66441,0.0676 -1.34605,-0.0211 -1.99664,0.0474 -0.56685,0.26459 -0.20074,0.93519 -0.18568,1.36805 0.32566,1.75615 0.70883,3.51038 1.34438,5.21153 0.71332,2.03259 1.74137,3.97677 2.70176,5.93671 0.26356,0.538 0.55529,1.06222 0.95751,1.54095 0.36188,0.46232 0.60432,0.97153 0.87956,1.46859 1.4843,2.54225 3.04426,5.05617 4.44841,7.6288 1.10615,2.15734 1.90663,4.40615 2.86121,6.60889 0.67825,1.55544 1.467,3.11481 2.7342,4.41746 1.11911,1.07901 2.4566,1.98677 3.73593,2.93399 4.07538,2.74924 8.18687,5.46346 12.3476,8.12612 2.61805,1.67476 5.31303,3.26742 8.02585,4.83761 3.33865,1.88084 6.66089,3.78554 10.13196,5.50211 1.18389,0.61292 2.42226,1.14876 3.63184,1.7259 0.48218,0.18268 1.25218,0.22863 1.50773,-0.23317 0.28092,-0.45847 -0.0843,-0.96134 -0.45319,-1.30818 -1.36197,-1.43534 -3.12959,-2.55874 -4.80058,-3.73974 -4.32857,-2.9834 -8.66445,-5.96037 -12.91463,-9.01839 -1.68435,-1.20479 -3.22692,-2.53337 -4.76081,-3.86329 -1.18035,-1.08192 -2.34897,-2.17199 -3.45474,-3.30569 -1.53821,-1.54947 -3.03312,-3.12893 -4.47465,-4.7391 -0.80607,-0.95911 -1.67218,-1.88714 -2.34785,-2.91439 -1.29789,-1.84966 -2.31086,-3.82085 -3.53593,-5.70176 -1.34954,-1.95726 -3.08463,-3.70921 -4.59727,-5.58027 -1.70257,-2.05277 -3.49179,-4.05956 -5.09372,-6.1666 -0.61039,-0.86687 -1.21945,-1.73413 -1.74919,-2.6363 -0.70084,-1.09141 -1.20701,-2.26113 -1.58819,-3.45191 -0.38743,-1.14507 -0.5155,-2.33073 -0.68758,-3.5056 -0.10267,-0.51189 -0.48679,-1.10594 -1.20108,-1.12791 -0.48399,-0.0705 -0.97583,-0.0921 -1.46621,-0.0619 z"
       id="path5300"
       inkscape:connector-curvature="0"
       sodipodi:nodetypes="cacacaaccccccccccccccccccccccccc" />
    <path
       sodipodi:nodetypes="cacacaacccccccccccccccccc"
       inkscape:connector-curvature="0"
       id="path5302"
       d="m 216.43609,680.74584 c 0.269,0.77583 0.69868,1.48866 1.00961,2.25003 1.19878,2.56647 2.21374,5.21303 3.3349,7.81347 0.51485,1.28658 1.03503,2.57072 1.69483,3.79149 1.01818,1.94328 2.00287,3.91594 3.22851,5.7385 1.47928,2.08965 2.87015,4.25133 4.56745,6.17569 1.17856,1.60526 2.50722,3.09249 3.76102,4.63854 2.14403,2.55607 4.31423,5.09884 6.7413,7.39404 1.77932,1.66366 3.67901,3.19479 5.56599,4.73387 3.48762,2.6956 7.02915,5.33994 10.80522,7.62148 2.49081,1.39986 5.20502,2.4195 8.02607,2.89711 1.39836,0.23659 2.82277,0.40008 4.24298,0.36931 1.20891,-0.007 2.40329,-0.21856 3.58923,-0.43409 0.77084,-0.32198 0.97952,-1.52738 0.26981,-2.0279 -2.62575,-2.55668 -5.35226,-5.00756 -8.0638,-7.47177 -3.06205,-2.48672 -6.05987,-5.08004 -9.41001,-7.1793 -4.82091,-3.16353 -9.86714,-5.99577 -14.45969,-9.49731 -0.69284,-0.5083 -1.29757,-1.12444 -2.00913,-1.6119 -1.68662,-1.36699 -3.17256,-2.9621 -4.65181,-4.54611 -1.65076,-1.86762 -3.21379,-3.81339 -4.6319,-5.864 -1.65287,-2.19817 -3.26063,-4.4397 -5.07962,-6.50475 -2.06162,-2.20507 -3.93523,-4.6047 -6.25718,-6.55158 -0.66605,-0.57599 -1.31213,-1.20164 -2.02359,-1.7098 -0.0863,0.0101 -0.16704,-0.0985 -0.25019,-0.025 z"
       style="fill:#ae946b;fill-opacity:1;fill-rule:nonzero;stroke:none" />
    <path
       sodipodi:nodetypes="ccccc"
       inkscape:connector-curvature="0"
       id="path5308"
       d="m 21.465677,914.91431 c 1.527217,1.77076 14.77627,19.6539 14.77627,19.6539 9.5491,8.56973 16.615743,6.06891 18.266708,7.71206 L 40.555526,929.67036 z"
       style="fill:#ae946b;fill-opacity:1;fill-rule:nonzero;stroke:none" />
    <path
       style="fill:#ae946b;fill-opacity:1;fill-rule:nonzero;stroke:none"
       d="m 205.02068,1011.9321 c -1.52719,-1.7707 -14.77626,-19.65392 -14.77626,-19.65392 -9.5491,-8.56973 -16.61576,-6.06891 -18.26671,-7.71202 l 13.95313,12.6099 z"
       id="path5310"
       inkscape:connector-curvature="0"
       sodipodi:nodetypes="ccccc" />
    <path
       style="fill:#ae946b;fill-opacity:1;fill-rule:nonzero;stroke:none"
       d="m 45.90917,998.58241 c 0.269001,0.77583 0.698672,1.48869 1.009608,2.24999 1.19878,2.5665 2.213736,5.2131 3.334898,7.8135 0.514847,1.2866 1.035034,2.5707 1.69483,3.7915 1.018181,1.9433 2.002874,3.9159 3.228507,5.7385 1.479285,2.0897 2.870152,4.2513 4.567455,6.1757 1.178557,1.6053 2.507218,3.0925 3.761015,4.6386 2.144036,2.556 4.314236,5.0988 6.741306,7.3939 1.779316,1.6638 3.67901,3.1948 5.565983,4.734 3.48762,2.6956 7.029152,5.3399 10.805226,7.6214 2.490806,1.3998 5.205018,2.4195 8.02607,2.8971 1.398361,0.2366 2.822765,0.4001 4.242974,0.3693 1.208918,-0.01 2.403288,-0.2185 3.589228,-0.434 0.77084,-0.322 0.97952,-1.5274 0.26981,-2.028 -2.62574,-2.5567 -5.352253,-5.0075 -8.063791,-7.4718 -3.062056,-2.4866 -6.059871,-5.08 -9.410012,-7.1792 -4.820909,-3.1636 -9.867145,-5.9958 -14.459691,-9.4973 -0.692844,-0.5083 -1.297566,-1.1245 -2.009127,-1.612 -1.686624,-1.3669 -3.172562,-2.962 -4.651815,-4.5461 -1.650756,-1.8676 -3.213784,-3.8134 -4.631895,-5.8639 -1.65287,-2.1982 -3.260635,-4.4397 -5.079621,-6.5048 -2.061622,-2.2051 -3.935233,-4.6047 -6.257177,-6.5516 -0.666056,-0.57596 -1.312137,-1.20161 -2.023594,-1.70977 -0.08632,0.0101 -0.167037,-0.0985 -0.250187,-0.025 z"
       id="path5314"
       inkscape:connector-curvature="0"
       sodipodi:nodetypes="cacacaacccccccccccccccccc" />
  </g>
</svg>
