<?xml version="1.0" encoding="UTF-8" standalone="no"?>
<!-- Created with Inkscape (http://www.inkscape.org/) -->

<svg
   xmlns:dc="http://purl.org/dc/elements/1.1/"
   xmlns:cc="http://creativecommons.org/ns#"
   xmlns:rdf="http://www.w3.org/1999/02/22-rdf-syntax-ns#"
   xmlns:svg="http://www.w3.org/2000/svg"
   xmlns="http://www.w3.org/2000/svg"
   xmlns:sodipodi="http://sodipodi.sourceforge.net/DTD/sodipodi-0.dtd"
   xmlns:inkscape="http://www.inkscape.org/namespaces/inkscape"
   inkscape:export-ydpi="90"
   inkscape:export-xdpi="90"
   inkscape:export-filename="/home/micha/Programmieren/git/platformer/images/menu/startOn.png"
   sodipodi:docname="gamepadOff.svg"
   inkscape:version="0.48.3.1 r9886"
   version="1.1"
   id="svg2"
   height="40.299999"
   width="92.550003">
  <sodipodi:namedview
     id="base"
     pagecolor="#000000"
     bordercolor="#666666"
     borderopacity="1.0"
     inkscape:pageopacity="0.0"
     inkscape:pageshadow="2"
     inkscape:zoom="5.6568542"
     inkscape:cx="11.389109"
     inkscape:cy="35.181075"
     inkscape:document-units="px"
     inkscape:current-layer="layer1"
     showgrid="false"
     inkscape:showpageshadow="true"
     inkscape:window-width="1920"
     inkscape:window-height="1025"
     inkscape:window-x="0"
     inkscape:window-y="27"
     inkscape:window-maximized="1">
    <inkscape:grid
       originy="0px"
       originx="0px"
       spacingy="10px"
       spacingx="10px"
       snapvisiblegridlinesonly="true"
       enabled="true"
       visible="true"
       empspacing="5"
       id="grid2985"
       type="xygrid" />
  </sodipodi:namedview>
  <defs
     id="defs4" />
  <metadata
     id="metadata7">
    <rdf:RDF>
      <cc:Work
         rdf:about="">
        <dc:format>image/svg+xml</dc:format>
        <dc:type
           rdf:resource="http://purl.org/dc/dcmitype/StillImage" />
        <dc:title />
      </cc:Work>
    </rdf:RDF>
  </metadata>
  <g
     transform="translate(0,-1012.0622)"
     id="layer1"
     inkscape:groupmode="layer"
     inkscape:label="Ebene 1">
    <path
       style="fill:#323232;fill-opacity:1;stroke:#000000;stroke-width:1.68455601px;stroke-linecap:butt;stroke-linejoin:round;stroke-opacity:1"
       d="m 56.07041,1038.3822 c 7.152798,4.0034 9.967214,16.4264 16.312574,8.4816 1.730476,-4.3938 -2.937698,-24.7808 -7.848502,-30.3068 -1.57051,-0.9526 -2.732286,-1.2668 -3.796008,-1.2424 -3.191168,0.072 -5.412816,3.4664 -14.748002,3.7274 -9.335186,-0.261 -11.556834,-3.6546 -14.748002,-3.7274 -1.063722,-0.024 -2.225498,0.2898 -3.796008,1.2424 -4.910804,5.526 -9.578976,25.913 -7.848502,30.3068 6.34536,7.9448 9.159776,-4.4782 16.312574,-8.4816 2.665226,-1.3888 6.36843,-2.077 10.079938,-2.0528 3.711508,-0.024 7.414712,0.664 10.079938,2.0528 z"
       id="path4279"
       inkscape:connector-curvature="0"
       sodipodi:nodetypes="cccscsccccc" />
    <path
       sodipodi:type="arc"
       style="fill:#8b8b8b;fill-opacity:1;stroke:#000000;stroke-width:0.5;stroke-linejoin:round;stroke-miterlimit:4;stroke-opacity:1;stroke-dasharray:none"
       id="path4300"
       sodipodi:cx="17.4375"
       sodipodi:cy="22.34375"
       sodipodi:rx="2.25"
       sodipodi:ry="2.34375"
       d="m 19.6875,22.34375 a 2.25,2.34375 0 1 1 -4.5,0 2.25,2.34375 0 1 1 4.5,0 z"
       transform="matrix(1.6415167,0,0,1.7287236,2.9263057,983.87348)" />
    <path
       sodipodi:type="arc"
       style="fill:#8b8b8b;fill-opacity:1;stroke:#000000;stroke-width:0.5;stroke-linejoin:round;stroke-miterlimit:4;stroke-opacity:1;stroke-dasharray:none"
       id="path4300-9"
       sodipodi:cx="17.4375"
       sodipodi:cy="22.34375"
       sodipodi:rx="2.25"
       sodipodi:ry="2.34375"
       d="m 19.6875,22.34375 a 2.25,2.34375 0 1 1 -4.5,0 2.25,2.34375 0 1 1 4.5,0 z"
       transform="matrix(1.6415167,0,0,1.7287236,11.441675,992.13888)" />
    <path
       sodipodi:type="arc"
       style="fill:#8b8b8b;fill-opacity:1;stroke:#000000;stroke-width:0.5;stroke-linejoin:round;stroke-miterlimit:4;stroke-opacity:1;stroke-dasharray:none"
       id="path4300-1"
       sodipodi:cx="17.4375"
       sodipodi:cy="22.34375"
       sodipodi:rx="2.25"
       sodipodi:ry="2.34375"
       d="m 19.6875,22.34375 a 2.25,2.34375 0 1 1 -4.5,0 2.25,2.34375 0 1 1 4.5,0 z"
       transform="matrix(1.6415167,0,0,1.7287236,22.829696,992.03068)" />
    <path
       sodipodi:type="arc"
       style="fill:#ff1717;fill-opacity:1;stroke:#000000;stroke-width:0.5;stroke-linejoin:round;stroke-miterlimit:4;stroke-opacity:1;stroke-dasharray:none"
       id="path4327"
       sodipodi:cx="16.5625"
       sodipodi:cy="8.249999"
       sodipodi:rx="0.8125"
       sodipodi:ry="0.75"
       d="m 17.375,8.249999 a 0.8125,0.75 0 1 1 -1.625,0 0.8125,0.75 0 1 1 1.625,0 z"
       transform="matrix(1.8171774,0,0,2.0731928,34.28359,1007.6106)" />
    <path
       sodipodi:type="arc"
       style="fill:#1737ff;fill-opacity:1;stroke:#000000;stroke-width:0.5;stroke-linejoin:round;stroke-miterlimit:4;stroke-opacity:1;stroke-dasharray:none"
       id="path4327-6"
       sodipodi:cx="16.5625"
       sodipodi:cy="8.249999"
       sodipodi:rx="0.8125"
       sodipodi:ry="0.75"
       d="m 17.375,8.249999 a 0.8125,0.75 0 1 1 -1.625,0 0.8125,0.75 0 1 1 1.625,0 z"
       transform="matrix(1.8171774,0,0,2.0731928,27.307142,1007.2866)" />
    <path
       sodipodi:type="arc"
       style="fill:#ffa317;fill-opacity:1;stroke:#000000;stroke-width:0.5;stroke-linejoin:round;stroke-miterlimit:4;stroke-opacity:1;stroke-dasharray:none"
       id="path4327-6-9"
       sodipodi:cx="16.5625"
       sodipodi:cy="8.249999"
       sodipodi:rx="0.8125"
       sodipodi:ry="0.75"
       d="m 17.375,8.249999 a 0.8125,0.75 0 1 1 -1.625,0 0.8125,0.75 0 1 1 1.625,0 z"
       transform="matrix(1.8171774,0,0,2.0731928,30.795366,1004.4775)" />
    <path
       sodipodi:type="arc"
       style="fill:#17ff1d;fill-opacity:1;stroke:#000000;stroke-width:0.5;stroke-linejoin:round;stroke-miterlimit:4;stroke-opacity:1;stroke-dasharray:none"
       id="path4327-6-9-1"
       sodipodi:cx="16.5625"
       sodipodi:cy="8.249999"
       sodipodi:rx="0.8125"
       sodipodi:ry="0.75"
       d="m 17.375,8.249999 a 0.8125,0.75 0 1 1 -1.625,0 0.8125,0.75 0 1 1 1.625,0 z"
       transform="matrix(1.8171774,0,0,2.0731928,30.89796,1010.852)" />
  </g>
</svg>
