<?xml version="1.0" encoding="UTF-8" standalone="no"?>
<!-- Created with Inkscape (http://www.inkscape.org/) -->

<svg
   xmlns:dc="http://purl.org/dc/elements/1.1/"
   xmlns:cc="http://creativecommons.org/ns#"
   xmlns:rdf="http://www.w3.org/1999/02/22-rdf-syntax-ns#"
   xmlns:svg="http://www.w3.org/2000/svg"
   xmlns="http://www.w3.org/2000/svg"
   xmlns:sodipodi="http://sodipodi.sourceforge.net/DTD/sodipodi-0.dtd"
   xmlns:inkscape="http://www.inkscape.org/namespaces/inkscape"
   width="853.62262"
   height="342.65549"
   id="svg2"
   version="1.1"
   inkscape:version="0.48.4 r9939"
   sodipodi:docname="New document 1">
  <defs
     id="defs4" />
  <sodipodi:namedview
     id="base"
     pagecolor="#ffffff"
     bordercolor="#666666"
     borderopacity="1.0"
     inkscape:pageopacity="0.0"
     inkscape:pageshadow="2"
     inkscape:zoom="0.7"
     inkscape:cx="486.069"
     inkscape:cy="96.578425"
     inkscape:document-units="px"
     inkscape:current-layer="layer2"
     showgrid="false"
     fit-margin-top="0"
     fit-margin-left="0"
     fit-margin-right="0"
     fit-margin-bottom="0"
     inkscape:window-width="1429"
     inkscape:window-height="842"
     inkscape:window-x="408"
     inkscape:window-y="102"
     inkscape:window-maximized="0" />
  <metadata
     id="metadata7">
    <rdf:RDF>
      <cc:Work
         rdf:about="">
        <dc:format>image/svg+xml</dc:format>
        <dc:type
           rdf:resource="http://purl.org/dc/dcmitype/StillImage" />
        <dc:title></dc:title>
      </cc:Work>
    </rdf:RDF>
  </metadata>
  <g
     inkscape:groupmode="layer"
     id="layer2"
     inkscape:label="Layer"
     transform="translate(41.778851,46.325574)">
    <path
       style="fill:none;stroke:#383938;stroke-width:100;stroke-linecap:butt;stroke-linejoin:bevel;stroke-miterlimit:4;stroke-opacity:1;stroke-dasharray:none"
       d="m 5.0507627,103.89062 c 0.6734351,-1.34687 1.3468701,-2.69374 2.0203051,-4.040607 0.673435,-0.673435 1.5303092,-1.203645 2.0203051,-2.020305 2.0372261,-3.395376 -0.02393,-2.325116 2.0203051,-5.050762 1.428571,-1.904762 3.501259,-3.243009 5.050763,-5.050763 3.449192,-4.024058 3.59378,-5.465142 7.071068,-10.101526 1.577908,-2.103878 3.352032,-4.053325 5.050762,-6.060915 17.312604,-20.460349 -4.982416,6.794204 11.111678,-15.152288 1.835819,-2.503389 4.121623,-4.646953 6.060916,-7.071068 C 52.866774,40.08 49.8,42.617018 57.578695,34.190098 c 1.937943,-2.099438 4.122972,-3.961477 6.060915,-6.060915 2.105641,-2.281111 3.55029,-5.245158 6.060916,-7.071068 1.388542,-1.009849 3.622191,-0.05777 5.050762,-1.010153 0.885963,-0.590641 0.419511,-2.144495 1.010153,-3.030457 0.373554,-0.560332 1.544115,0.47619 2.020305,0 0.238095,-0.238096 -0.238095,-0.772058 0,-1.010153 0.238095,-0.238095 0.673435,0 1.010153,0 0.370964,0 3.99996,-0.04065 4.04061,0 1.918412,1.918413 0.66679,7.031197 1.010152,9.091373 2.94534,17.672036 2.020305,-5.494609 2.020305,17.172593 0,4.040611 0,8.081221 0,12.121831 0,4.04061 0.335555,8.095177 0,12.12183 -0.717295,8.60755 -3.047818,15.89806 -5.050762,24.243662 -1.048398,4.368325 -2.020305,8.754655 -3.030458,13.131979 -0.538845,2.335 -5.119197,22.54638 -6.060915,25.25382 -1.33661,3.84275 -3.510268,7.34602 -5.050763,11.11168 -1.492259,3.64774 -2.278062,7.58658 -4.04061,11.11167 -6.616609,13.23322 -18.010154,23.06092 -28.284271,33.33504 -2.357023,2.35702 -4.901764,4.54021 -7.071068,7.07107 -7.489687,8.73796 -2.806692,5.06426 -9.091373,14.14213 -1.496936,2.16224 -3.725659,3.78931 -5.050763,6.06092 -1.073038,1.83949 -1.408372,4.02114 -2.020305,6.06091 -0.336718,1.34687 -0.673435,2.69374 -1.010153,4.04061 -0.3367171,0.33672 -0.8595674,0.5584 -1.0101521,1.01015 -0.1915459,0.57464 0,4.09937 0,5.05077 0,0.24499 -0.032486,2.99797 0,3.03045 0.2380952,0.2381 0.673435,0 1.0101521,0 2.118145,0 2.910318,0.21296 5.050763,-1.01015 1.461764,-0.83529 2.606769,-2.14809 4.04061,-3.03046 11.595782,-7.13586 9.604255,-3.54334 21.213204,-15.15228 4.726055,-4.72606 8.571605,-10.26617 13.131983,-15.15229 4.873702,-5.22183 10.266994,-9.94131 15.152288,-15.15229 11.226611,-11.97505 19.077965,-22.37013 30.304576,-34.34519 4.885291,-5.21098 10.101521,-10.10152 15.152291,-15.15229 4.37733,-4.37732 8.75465,-8.75465 13.13198,-13.13198 4.37733,-4.37733 8.93311,-8.5832 13.13198,-13.13198 3.88932,-4.21343 7.23701,-8.905074 11.11168,-13.131984 7.07902,-7.722568 15.17631,-14.471603 22.22336,-22.223356 3.21918,-3.541098 6.06091,-7.407786 9.09137,-11.111678 3.03046,-3.703893 6.06092,-7.407786 9.09137,-11.111678 3.03046,-3.703893 5.88994,-7.554529 9.09138,-11.111678 2.86699,-3.185547 6.06091,-6.060916 9.09137,-9.091373 10.25883,-10.258829 7.09447,-7.846234 18.18275,-16.162441 2.48302,-1.862271 7.50255,-5.8680261 11.11167,-7.0710678 0.63888,-0.2129589 1.41797,0.3011693 2.02031,0 0.30117,-0.1505847 -0.2381,-0.7720573 0,-1.0101526 0.23809,-0.2380952 0.85957,-0.3011693 1.01015,0 0.30117,0.6023386 0,1.3468701 0,2.0203051 0,1.0101526 0,2.0203051 0,3.0304576 0,10.6283207 0.46252,-1.1198876 -2.0203,12.1218307 -2.59742,13.852883 1.26924,5.283651 -4.04061,21.213203 -1.38424,4.152698 -3.27297,8.121778 -5.05077,12.121831 -2.26368,5.093281 -4.44816,10.234347 -7.07106,15.152288 -2.77184,5.197192 -6.06092,10.101526 -9.09138,15.152288 -3.03046,5.050763 -6.06091,10.101526 -9.09137,15.152288 -3.03046,5.050767 -6.31954,9.955097 -9.09137,15.152287 -6.24911,11.71707 -8.76939,20.04432 -14.14214,32.32488 -2.23403,5.10636 -5.00106,9.97727 -7.07107,15.15229 -1.97727,4.94318 -3.36717,10.10153 -5.05076,15.15229 -1.68359,5.05076 -3.36717,10.10152 -5.05076,15.15229 -9.04392,27.13174 -2.11659,3.96882 -7.07107,26.26396 -2.35451,10.59529 -1.8082,3.35396 -3.03046,13.13199 -0.12529,1.00235 0,2.0203 0,3.03045 0,0.33672 -0.23809,0.77206 0,1.01016 0.2381,0.23809 0.67344,0 1.01015,0 1.59005,0 1.0959,0.15058 3.03046,-1.01016 3.7248,-2.23487 3.28176,-2.04657 6.06092,-6.06091 7.15844,-10.33997 6.23883,-10.27396 15.15229,-21.2132 4.22188,-5.1814 9.07199,-9.84308 13.13198,-15.15229 4.70884,-6.15772 8.16939,-13.23779 13.13198,-19.1929 5.18245,-6.21893 11.4484,-11.4484 17.1726,-17.17259 7.78221,-7.78222 25.0481,-25.76224 34.34518,-32.32489 5.29141,-3.73511 11.61871,-5.75904 17.17259,-9.09137 4.56527,-2.73916 8.70218,-6.13816 13.13199,-9.09137 3.65291,-2.43528 7.34706,-4.8123 11.11168,-7.071069 2.97268,-1.783612 6.27038,-3.035773 9.09137,-5.050763 5.34155,-3.815395 4.68061,-5.690766 9.09137,-10.101525 0.5324,-0.532397 1.39384,-0.592506 2.02031,-1.010153 0.39621,-0.264143 0.67343,-0.673435 1.01015,-1.010152 0.67343,-0.673435 1.53031,-1.203646 2.0203,-2.020305 3.48222,-5.803686 -0.78096,-1.23934 2.02031,-4.040611 0.33672,-0.336717 0.67343,-1.34687 1.01015,-1.010152 0.47619,0.47619 0,1.34687 0,2.020305 0,3.943868 0.14286,5.489487 -1.01015,10.101525 -0.77475,3.099007 -2.15289,6.019898 -3.03046,9.091373 -2.22837,7.799297 -3.90901,17.779857 -7.07107,25.253817 -1.93712,4.57865 -4.71404,8.75465 -7.07106,13.13198 -2.35703,4.37733 -4.77139,8.72426 -7.07107,13.13198 -1.74138,3.33765 -3.29741,6.77015 -5.05076,10.10153 -3.83005,7.27708 -5.80336,8.55617 -7.07107,16.16244 -0.27678,1.66068 0.33018,3.39987 0,5.05076 -0.066,0.33018 -0.77206,-0.23809 -1.01015,0 -0.2381,0.2381 -0.33672,1.01015 0,1.01015 1.31066,0 1.1217,-2.69271 2.0203,-4.04061 2.98101,-4.47151 12.45887,-13.70323 15.15229,-16.16244 4.23454,-3.86632 8.65441,-7.52962 13.13198,-11.11167 12.0059,-9.60473 21.13533,-16.47316 34.34519,-24.24367 5.58265,-3.28391 11.37948,-6.19481 17.17259,-9.09137 10.00697,-5.00348 14.14399,-7.74475 24.24366,-9.09137 2.00259,-0.26701 4.05621,0.25059 6.06092,0 2.32147,-1.16074 1.26738,-1.01015 3.03046,-1.01015 0.33671,0 0.77205,-0.2381 1.01015,0 0.5324,0.53239 0.77206,1.30602 1.01015,2.0203 1.41848,4.25545 1.01015,4.37245 1.01015,9.09137 0,3.03046 0,6.06092 0,9.09138 0,3.36717 0.31924,6.74951 0,10.10152 -0.86175,9.04842 -2.60765,12.66232 -5.05076,21.21321 -1.0547,3.69145 -1.87436,7.45071 -3.03046,11.11167 -1.50611,4.76935 -4.27236,10.09269 -5.05076,15.15229 -0.3072,1.99681 0.49,4.10093 0,6.06092 -0.23099,0.92394 -1.49202,1.22787 -2.0203,2.0203 -0.18678,0.28017 0,1.34687 0,1.01016 0,-0.67344 -0.13208,-1.35995 0,-2.02031 0.87159,-4.35796 3.02379,-5.28747 5.05076,-10.10153 11.11198,-26.39095 -5.35405,3.53594 13.13198,-27.27411 3.03046,-5.05077 5.82411,-10.25139 9.09137,-15.15229 7.69063,-11.53594 13.68238,-19.23174 24.24366,-28.28427 10.31963,-8.8454 18.79315,-13.296197 30.30458,-20.203055 5.05076,-3.030457 10.10153,-6.060915 15.15229,-9.091372 8.66762,-5.20057 16.67917,-10.787456 26.26397,-14.142136 2.93009,-1.025534 6.10643,-1.167466 9.09137,-2.020305 1.74351,-0.498146 3.33053,-1.446896 5.05076,-2.020305 1.31708,-0.439026 2.67925,-0.737881 4.04061,-1.010153 0.33018,-0.06604 0.70898,0.150585 1.01015,0 0.42592,-0.212959 0.53397,-1.010152 1.01016,-1.010152 0.33671,0 0,0.673435 0,1.010152 0,1.34687 0,2.69374 0,4.04061 0,3.367175 0,6.734351 0,10.101526 0,4.04061 0.38921,8.100009 0,12.12183 -0.62388,6.446774 -2.06968,12.787666 -3.03046,19.1929 -2.75109,18.34061 -2.70638,24.51028 -8.08122,42.42641 -2.31634,7.72112 -10.73532,28.57848 -14.14214,36.36549 -0.085,0.19419 -11.1202,23.68835 -12.12183,26.26396 -3.06288,7.87599 -0.53771,5.27351 -4.04061,11.11168 -0.245,0.40833 -0.67343,1.34687 -1.01015,1.01015 -0.47619,-0.47619 0,-1.34687 0,-2.0203 0,-7.07107 0,-14.14214 0,-21.2132 0,-5.05077 0,-10.10153 0,-15.15229 0,-4.71405 -0.32434,-9.43926 0,-14.14214 0.47868,-6.94092 3.2675,-23.61735 5.05076,-30.30457 3.63377,-13.62663 6.128,-17.46066 12.12183,-30.30458 5.5435,-11.878932 7.66644,-17.183081 14.14214,-28.284272 7.10368,-12.177741 6.14962,-9.546361 14.14213,-20.203051 1.73794,-2.317243 3.36718,-4.714046 5.05077,-7.071068 1.68358,-2.357023 3.66374,-4.528196 5.05076,-7.071068 0.6648,-1.218802 0.52268,-2.740684 1.01015,-4.04061 0.0319,-0.08507 1.65165,-4.361356 3.03046,-5.050763 0.30117,-0.150584 0.77206,0.238095 1.01015,0 0.2381,-0.238095 -0.23809,-0.772057 0,-1.010152 0.2381,-0.238096 0.77206,0.238095 1.01015,0 0.2381,-0.238096 -0.23809,-0.772058 0,-1.010153 0.2381,-0.238095 0.67344,0 1.01016,0 2.69374,0 5.38748,0 8.08122,0 3.03046,0 6.06091,0 9.09137,0 3.42505,0 5.69325,-0.264143 9.09137,1.010153 1.13676,0.426282 1.97637,1.417966 3.03046,2.020305 3.14369,1.796393 4.38626,1.803268 7.07107,4.04061 1.09746,0.914549 2.0203,2.020305 3.03046,3.030458 1.34687,1.34687 2.77515,2.616973 4.04061,4.04061 1.43239,1.611447 3.07639,3.122338 4.04061,5.050762 0.76783,1.535669 0.5584,3.394332 1.01015,5.050763 0.56033,2.05455 1.34687,4.04061 2.0203,6.060915 1.6638,4.991389 2.73794,7.921287 4.04061,13.131984 0.75293,3.011693 1.67749,6.005978 2.02031,9.091372 0.33466,3.011923 0,6.060916 0,9.091373 0,3.367172 0,6.734352 0,10.101522 0,3.36718 0.33505,6.75106 0,10.10153 -0.34168,3.41682 -1.34687,6.73435 -2.02031,10.10152 -3.45715,17.28579 -0.26841,2.98661 -5.05076,20.20306 -0.0202,0.0727 -4.03385,16.14351 -4.04061,16.16244 -0.7597,2.12717 -2.09577,4.0046 -3.03046,6.06091 -0.75034,1.65075 -1.20938,3.42892 -2.0203,5.05076 -0.21296,0.42592 -0.74601,0.61394 -1.01015,1.01016 -0.41765,0.62647 -0.59251,1.39383 -1.01016,2.0203 -0.26414,0.39622 -0.79719,0.58424 -1.01015,1.01015 -0.15058,0.30117 0.2381,0.77206 0,1.01016 -0.23809,0.23809 -1.01015,0.33671 -1.01015,0 0,-1.43607 2.29426,-3.30441 3.03046,-4.04061 7.66378,-7.66379 3.27896,-4.09562 15.15228,-11.11168 4.02727,-2.37975 8.0404,-4.78547 12.12184,-7.07107 4.33772,-2.42913 8.8979,-4.46548 13.13198,-7.07107 12.34718,-7.59826 15.82019,-11.89366 28.28427,-20.20305 10.64889,-7.09926 21.00577,-12.19027 32.32488,-18.18274 5.7242,-3.03046 11.31218,-6.33354 17.17259,-9.09138 51.44212,-24.208051 -11.28251,6.7814 30.30458,-12.121827 3.15599,-1.434538 5.78246,-4.016727 9.09137,-5.050763 2.24973,-0.703041 4.72847,0.26029 7.07107,0 0.48645,-0.05405 3.65287,-2.489641 3.03046,0 -0.5165,2.066005 -1.34687,4.040611 -2.02031,6.060916 -1.7752,5.325602 -3.17016,10.159174 -6.06091,15.152284 -2.05934,3.55705 -4.98011,6.56298 -7.07107,10.10153 -18.92143,32.02088 8.86079,-9.43175 -15.15229,25.25381 -6.06091,8.75466 -12.12183,17.50931 -18.18274,26.26397 -3.03046,4.37733 -6.13817,8.70217 -9.09138,13.13198 -4.87055,7.30584 -9.10683,15.03008 -14.14213,22.22336 -2.20162,3.14517 -4.76757,6.02003 -7.07107,9.09137 -2.44079,3.25439 -5.56727,7.10154 -7.07107,11.11168 -0.48747,1.29993 -0.57112,2.72353 -1.01015,4.04061 -0.23809,0.71428 -0.77206,1.30602 -1.01015,2.0203 -0.10648,0.31944 0.23809,0.77206 0,1.01016 -0.2381,0.23809 -0.77206,-0.2381 -1.01015,0 -0.2381,0.23809 0.15058,0.70898 0,1.01015 -0.21296,0.42592 -1.22312,1.43607 -1.01016,1.01015 1.08588,-2.17176 2.83594,-3.95273 4.04061,-6.06091 0.74711,-1.30744 1.1168,-2.83594 2.02031,-4.04061 1.14286,-1.52381 2.85071,-2.55324 4.04061,-4.04061 1.51682,-1.89603 2.61247,-4.09722 4.04061,-6.06092 1.26812,-1.74367 2.91063,-3.21455 4.04061,-5.05076 1.57842,-2.56494 2.49111,-5.49872 4.04061,-8.08122 1.49026,-2.48378 3.5605,-4.5873 5.05076,-7.07107 1.5495,-2.58251 2.69374,-5.38748 4.04061,-8.08122 1.34687,-2.69374 2.9221,-5.28493 4.04061,-8.08122 3.75164,-9.37909 0.64086,-4.37013 3.03046,-13.13198 0.4771,-1.74939 1.4469,-3.33054 2.0203,-5.05077 0.10648,-0.31943 -0.15058,-0.70898 0,-1.01015 0.1315,-0.26299 1.79982,-1.23064 1.01016,-2.0203 -0.2381,-0.2381 -0.67344,0 -1.01016,0 -1.01015,0 -2.0203,0 -3.03045,0 -9.76481,0 -19.52962,0 -29.29443,0 -9.42809,0 -18.85618,0 -28.28427,0 -4.04061,0 -8.08122,0 -12.12183,0 -3.70389,0 -7.41958,0.29536 -11.11168,0 -4.74674,-0.37974 -9.40733,-1.51301 -14.14213,-2.02031 -4.69916,-0.50348 -9.52099,-0.0199 -14.14214,-1.01015 -4.89455,-1.04883 -9.40991,-3.41896 -14.14213,-5.05076 -5.03314,-1.73557 -10.13848,-3.26012 -15.15229,-5.05077 -4.41671,-1.57739 -8.75466,-3.36717 -13.13198,-5.05076 -4.37733,-1.68359 -8.90391,-3.02128 -13.13199,-5.05076 -4.21717,-2.02424 -8.04039,-4.78547 -12.12183,-7.07107 -14.95709,-8.37597 -12.10979,-5.54681 -26.26396,-16.16244 -3.82853,-2.87139 -7.40779,-6.06092 -11.11168,-9.09137 -3.7039,-3.030462 -7.55453,-5.889942 -11.11168,-9.091377 -3.18555,-2.866992 -6.06092,-6.060915 -9.09137,-9.091373 -3.03046,-3.030457 -6.06092,-6.060915 -9.09138,-9.091373 -3.03045,-3.030457 -6.2441,-5.88819 -9.09137,-9.091373 -2.55061,-2.869431 -4.71404,-6.060915 -7.07107,-9.091373 -2.35702,-3.030457 -4.94148,-5.89699 -7.07107,-9.091372 -1.92298,-2.884485 -3.36717,-6.060916 -5.05076,-9.091373 -1.68359,-3.030458 -3.5004,-5.990646 -5.05076,-9.091373 -0.81092,-1.621847 -1.1397,-3.465672 -2.02031,-5.050763 -0.64964,-1.169352 -3.51002,-4.905361 -5.05076,-6.060915 -4.08247,-3.061857 -0.47984,-0.159946 -3.03046,-1.010153 -0.71428,-0.238095 -1.30602,-0.772057 -2.0203,-1.010152 -0.95832,-0.319439 -2.03992,0.198107 -3.03046,0 -1.04412,-0.208824 -1.98634,-0.80133 -3.03046,-1.010153 -0.66035,-0.132071 -1.34687,0 -2.0203,0 -2.02031,0 -4.04061,0 -6.06092,0 -4.39492,0 -8.923,-0.568216 -13.13198,1.010153 -7.10889,2.665833 -1.08908,1.236868 -8.08122,5.050762 -2.25124,1.227952 -4.77743,1.883639 -7.07107,3.030458 -4.85621,2.428105 -9.35148,5.526205 -14.14213,8.08122 -19.70499,10.509325 2.82251,-2.190096 -15.15229,8.081221 -2.35702,1.34687 -4.60623,2.902991 -7.07107,4.04061 -3.86716,1.784843 -8.20703,2.362838 -12.12183,4.04061 -3.67851,1.576505 0.7083,0.301849 -1.01015,2.020305 -0.2381,0.238095 -0.77206,-0.238095 -1.01016,0 -0.23809,0.238095 -0.30116,0.859568 0,1.010153 0.60234,0.301169 1.35604,-0.110712 2.02031,0 1.36943,0.228238 2.69374,0.673435 4.04061,1.010152 3.03046,0 6.07336,-0.274364 9.09137,0 3.25059,0.295509 21.64776,3.463641 25.25382,4.04061 4.21852,0.674963 19.51407,2.858214 24.24366,4.040611 3.099,0.774751 6.06091,2.020305 9.09137,3.030457 2.02031,0.673435 4.15615,1.067924 6.06092,2.020305 0.85183,0.425918 1.34687,1.34687 2.0203,2.020305 1.01015,1.010153 2.46772,1.717394 3.03046,3.030458 0.53056,1.237969 -0.19048,2.707277 0,4.04061 0.15058,1.054093 0.8351,1.980151 1.01015,3.030458 0.80425,4.825509 -1.9298,9.750939 -5.05076,13.131983 -5.24997,5.687468 -11.36002,9.584166 -18.18275,13.131982 -4.94505,2.57143 -10.04593,4.83704 -15.15229,7.07107 -5.67145,2.48126 -11.44839,4.71404 -17.17259,7.07107 -11.44839,4.71404 -22.89679,9.42809 -34.34519,14.14213 -5.72419,2.35702 -11.44839,4.71405 -17.17259,7.07107 -5.7242,2.35702 -11.37627,4.89745 -17.17259,7.07107 -4.98499,1.86937 -10.23786,3.00308 -15.15229,5.05076 -3.20005,1.33335 -5.82662,3.88478 -9.09137,5.05076 -1.58551,0.56626 -3.45357,-0.53239 -5.05077,0 -0.71428,0.2381 -0.47775,1.48791 -1.01015,2.02031 -0.23809,0.23809 -1.01015,0.33672 -1.01015,0 0,-0.33672 0.67343,0 1.01015,0 1.68359,0 3.36718,0 5.05076,0 0.85727,0 5.50404,-0.18563 6.06092,0 0.45175,0.15058 0.85957,0.5584 1.01015,1.01015 0.21296,0.63888 -0.13207,1.35995 0,2.02031 0.20883,1.04411 0.85957,1.97636 1.01015,3.03045 0.19048,1.33334 0,2.69374 0,4.04061 0,3.03046 0,6.06092 0,9.09138 0,1.34687 0,2.69374 0,4.04061 0,0.33671 0,0.67343 0,1.01015 0,0.33672 -0.23809,0.77206 0,1.01015 0.2381,0.2381 0.67344,0 1.01016,0 0.67343,0 1.34687,0 2.0203,0 4.97508,0 2.4621,0.31944 9.09138,-2.0203 3.71649,-1.31171 7.58658,-2.27806 11.11167,-4.04061 6.71958,-3.35979 26.73555,-16.58643 32.32488,-20.20305 24.15472,-15.62953 11.37548,-7.52299 38.3858,-24.24367 14.14214,-8.75465 28.16406,-17.70655 42.42641,-26.26396 6.33898,-3.80339 12.9241,-7.193681 19.1929,-11.111679 9.2827,-5.80169 14.79113,-11.006517 24.24366,-16.162441 3.57178,-1.948245 7.40778,-3.367175 11.11168,-5.050763 3.70389,-1.683587 7.40778,-3.367175 11.11167,-5.050762 3.7039,-1.683588 7.23463,-3.817157 11.11168,-5.050763 3.5874,-1.141446 7.42017,-1.282003 11.11168,-2.020305 3.0441,-0.60882 6.09181,-1.220422 9.09137,-2.020305 2.05769,-0.548716 3.96568,-1.639353 6.06092,-2.020305 1.65643,-0.30117 3.36717,0 5.05076,0 0.33672,0 0.67344,0 1.01015,0 0.67344,0 1.45998,-0.373555 2.02031,0 0.62647,0.417646 0.74578,1.315321 1.01015,2.020305 0.74775,1.993996 1.43526,4.013264 2.02031,6.060915 2.41105,8.438681 2.45307,10.677844 4.04061,20.203051 1.77226,10.633554 3.68194,17.995302 2.0203,29.294422 -0.86811,5.90316 -3.06494,11.5461 -5.05076,17.17259 -3.72341,10.54965 -10.25734,24.89703 -16.16244,34.34519 -3.31955,5.31128 -7.40779,10.10153 -11.11168,15.15229 -3.70389,5.05076 -7.4712,10.05562 -11.11168,15.15229 -3.09449,4.33229 -5.72003,9.01145 -9.09137,13.13198 -23.00038,28.11157 2.25807,-8.05758 -14.14214,18.18275 -1.68358,2.35702 -3.36717,4.71404 -5.05076,7.07106 0,0.33672 0.15059,0.70899 0,1.01016 -0.21296,0.42591 -1.01015,0.53396 -1.01015,1.01015 0,0.33672 0.67343,0 1.01015,0 3.78811,0 0.58465,0.16333 6.06092,-1.01015 3.35763,-0.7195 6.77886,-1.15353 10.10152,-2.02031 4.43155,-1.15605 8.74528,-2.7246 13.13198,-4.04061 5.71502,-1.7145 11.42362,-3.45382 17.1726,-5.05076 20.39627,-5.66563 41.09125,-10.02028 61.6193,-15.15229 6.41793,-1.60448 12.69907,-3.78807 19.1929,-5.05076 5.65771,-1.10011 11.45948,-1.25856 17.17259,-2.02031 4.38998,-0.58533 8.71621,-1.68063 13.13199,-2.0203 4.36443,-0.33573 8.75465,0 13.13198,0 6.06092,0 12.12183,0 18.18275,0 2.0203,0 4.04061,0 6.06091,0 2.35702,0 4.73774,0.33333 7.07107,0 2.4267,-0.34667 4.65927,-1.5818 7.07107,-2.02031 1.32514,-0.24093 2.71989,0.26415 4.04061,0 0.68413,-0.13682 1.38614,-2.27848 2.0203,-1.01015 0.30117,0.60234 0.11071,1.35603 0,2.02031 -0.72846,4.37079 -1.73888,5.82689 -4.04061,10.10152 -3.88116,7.20787 -5.29318,9.44879 -11.11168,16.16244 -1.87123,2.15911 -4.12297,3.96148 -6.06091,6.06092 -2.10564,2.28111 -3.86579,4.87594 -6.06092,7.07106 -1.68358,1.34687 -3.36717,2.69374 -5.05076,4.04061 0,0.67344 0.30117,1.41797 0,2.02031 -0.15058,0.30117 -0.77206,-0.2381 -1.01015,0 -0.2381,0.2381 -0.2381,1.24825 0,1.01015 0.5324,-0.53239 0.62278,-1.37468 1.01015,-2.0203 1.87388,-3.12313 4.13058,-6.00283 6.06092,-9.09138 2.08118,-3.32989 3.70485,-6.96011 6.06091,-10.10152 2.71804,-3.62406 6.14324,-6.66204 9.09137,-10.10153 3.11447,-3.63354 6.06092,-7.40778 9.09138,-11.11167 3.03046,-3.7039 6.21998,-7.28316 9.09137,-11.11168 3.19438,-4.25918 6.06092,-8.75466 9.09137,-13.13199 3.03046,-4.37732 6.06092,-8.75465 9.09138,-13.13198 3.03045,-4.37733 6.30109,-8.59778 9.09137,-13.13198 11.94733,-19.41442 1.9339,-6.80333 14.14213,-24.24366 2.20162,-3.14517 4.94148,-5.89699 7.07107,-9.09138 3.84598,-5.76896 6.42681,-12.3032 10.10153,-18.18274 1.53517,-2.456274 3.75538,-4.480313 5.05076,-7.071069 2.13058,-4.261157 1.99531,-8.646319 3.03046,-13.131983 0.55121,-2.388565 1.2994,-4.728128 2.0203,-7.071068 0.62629,-2.035416 1.39403,-4.025499 2.02031,-6.060915 0.7209,-2.34294 1.2994,-4.728128 2.0203,-7.071068 0.62629,-2.035416 1.67021,-3.960302 2.02031,-6.060916 0.33213,-1.992816 0,-4.04061 0,-6.060915 0,-5.724198 0,-11.448395 0,-17.172593 0,-1.683588 0,-3.367175 0,-5.050763 0,-0.995722 0,-3.016027 0,-2.020305 0,0.673435 0.13207,1.359948 0,2.020305 -1.30298,6.514902 -1.09251,-0.96253 -3.03046,8.081221 -0.63888,2.981423 -0.382,6.10767 -1.01015,9.091372 -0.72422,3.440028 -2.17784,6.691054 -3.03046,10.101526 -2.16679,8.667172 -2.23938,13.217217 -4.04061,22.223356 -0.88103,4.405133 -2.14943,8.72685 -3.03046,13.131983 -0.80336,4.016797 -1.69364,8.038531 -2.0203,12.121832 -2.22626,27.82825 2.42565,-1.08734 -1.01015,25.25381 -0.48692,3.733 -1.34687,7.40779 -2.02031,11.11168 -0.67343,3.70389 -1.06224,7.47101 -2.0203,11.11168 -0.73216,2.78219 -2.46625,5.26017 -3.03046,8.08122 0,13.38911 1.05409,1.88848 -2.02031,11.11168 -0.21296,0.63887 0,1.34687 0,2.0203 0,2.02031 0,4.04061 0,6.06092 0,1.37376 0.54401,3.26353 -1.01015,4.04061 -0.30117,0.15058 -0.70898,-0.15059 -1.01015,0 -0.42592,0.21296 -0.58424,0.79719 -1.01015,1.01015 -0.27271,0.13635 -8.95281,0 -9.09138,0 -6.16405,0 -12.21355,0.42164 -18.18274,-2.02031 -4.06339,-1.66229 -7.24619,-4.98964 -11.11168,-7.07106 -4.90745,-2.64248 -10.03814,-4.85494 -15.15229,-7.07107 -15.67207,-6.79123 -14.10627,-4.5019 -28.28427,-13.13198 -2.03213,-1.23695 -15.68395,-10.96637 -18.18275,-13.13199 -3.24289,-2.81051 -10.23995,-9.84069 -12.12183,-14.14213 -1.24429,-2.84411 -1.34687,-6.06092 -2.0203,-9.09138 -2.53162,-11.39226 -2.02031,-5.98699 -2.02031,-16.162437 0,-2.357022 0,-4.714045 0,-7.071067 0,-0.45493 -0.15371,-2.723034 0,-3.030458 0.21296,-0.425918 0.67344,-0.673435 1.01015,-1.010153 0.67344,-0.673435 1.34687,-1.34687 2.02031,-2.020305 0.67343,-0.673435 1.2584,-1.448876 2.02031,-2.020305 0.60233,-0.451754 1.37467,-0.622776 2.0203,-1.010152 1.04104,-0.624625 1.94458,-1.477365 3.03046,-2.020305 0.95238,-0.476191 2.04182,-0.614698 3.03046,-1.010153 0.69907,-0.279629 1.30601,-0.772057 2.0203,-1.010152 0.31944,-0.10648 0.77206,0.238095 1.01015,0 0.2381,-0.238096 -0.23809,-0.772058 0,-1.010153 0.2381,-0.238095 0.67344,0 1.01016,0 1.68358,0 3.36717,0 5.05076,0 3.03046,0 6.06091,0 9.09137,0 0.33672,0 0.67344,0 1.01015,0 0.33672,0 0.77206,-0.238095 1.01016,0 0.47619,0.47619 -0.30117,1.417966 0,2.020305 1.48634,2.972686 1.01015,-1.568044 1.01015,3.030458"
       id="path3769"
       inkscape:connector-curvature="0" />
  </g>
  <g
     inkscape:label="Layer 1"
     inkscape:groupmode="layer"
     id="layer1"
     transform="translate(41.778851,-616.27289)">
    <flowRoot
       xml:space="preserve"
       id="flowRoot2993"
       style="font-size:144px;font-style:normal;font-variant:normal;font-weight:bold;font-stretch:normal;line-height:125%;letter-spacing:0px;word-spacing:0px;fill:#00aaff;fill-opacity:1;stroke:#000000;stroke-width:3.83314013;stroke-miterlimit:4;stroke-opacity:1;stroke-dasharray:none;font-family:Ubuntu;-inkscape-font-specification:Ubuntu Bold"
       transform="matrix(1,0,0,1.7014948,-54.548237,509.98039)"><flowRegion
         id="flowRegion2995"><rect
           id="rect2997"
           width="943.48242"
           height="492.95447"
           x="72.73098"
           y="64.494675"
           style="font-size:144px;font-style:normal;font-variant:normal;font-weight:bold;font-stretch:normal;fill:#00aaff;fill-opacity:1;stroke:#000000;stroke-width:3.83314013;stroke-miterlimit:4;stroke-opacity:1;stroke-dasharray:none;font-family:Ubuntu;-inkscape-font-specification:Ubuntu Bold" /></flowRegion><flowPara
         id="flowPara2999"
         style="font-size:144px;font-style:normal;font-variant:normal;font-weight:bold;font-stretch:normal;fill:#00aaff;fill-opacity:1;stroke:#000000;stroke-width:3.83314013;stroke-miterlimit:4;stroke-opacity:1;stroke-dasharray:none;font-family:Ubuntu;-inkscape-font-specification:Ubuntu Bold">BANDANA</flowPara></flowRoot>  </g>
</svg>
