<?xml version="1.0" encoding="UTF-8" standalone="no"?>
<!-- Created with Inkscape (http://www.inkscape.org/) -->

<svg
   xmlns:dc="http://purl.org/dc/elements/1.1/"
   xmlns:cc="http://creativecommons.org/ns#"
   xmlns:rdf="http://www.w3.org/1999/02/22-rdf-syntax-ns#"
   xmlns:svg="http://www.w3.org/2000/svg"
   xmlns="http://www.w3.org/2000/svg"
   xmlns:sodipodi="http://sodipodi.sourceforge.net/DTD/sodipodi-0.dtd"
   xmlns:inkscape="http://www.inkscape.org/namespaces/inkscape"
   width="853.62262"
   height="342.65549"
   id="svg2"
   version="1.1"
   inkscape:version="0.48.3.1 r9886"
   sodipodi:docname="logo.svg">
  <defs
     id="defs4" />
  <sodipodi:namedview
     id="base"
     pagecolor="#000000"
     bordercolor="#666666"
     borderopacity="1.0"
     inkscape:pageopacity="0.0"
     inkscape:pageshadow="2"
     inkscape:zoom="0.70710678"
     inkscape:cx="255.85525"
     inkscape:cy="134.1983"
     inkscape:document-units="px"
     inkscape:current-layer="layer2"
     showgrid="false"
     fit-margin-top="0"
     fit-margin-left="0"
     fit-margin-right="0"
     fit-margin-bottom="0"
     inkscape:window-width="1440"
     inkscape:window-height="850"
     inkscape:window-x="0"
     inkscape:window-y="25"
     inkscape:window-maximized="1" />
  <metadata
     id="metadata7">
    <rdf:RDF>
      <cc:Work
         rdf:about="">
        <dc:format>image/svg+xml</dc:format>
        <dc:type
           rdf:resource="http://purl.org/dc/dcmitype/StillImage" />
        <dc:title />
      </cc:Work>
    </rdf:RDF>
  </metadata>
  <g
     inkscape:groupmode="layer"
     id="layer2"
     inkscape:label="Layer"
     transform="translate(41.778851,46.325574)">
    <path
       sodipodi:nodetypes="ssssssssss"
       inkscape:connector-curvature="0"
       id="path3141-9-5-8-7-3-0-2-4"
       d="m 15.32094,-166.64155 c -5.582558,-0.59659 -6.447183,2.96229 -8.136881,5.64816 -4.29947,6.83419 1.847873,11.71421 2.213649,17.93212 0.155014,2.63467 -4.078633,7.77844 -0.161908,8.50005 2.734078,0.50371 3.789802,-2.3307 4.011063,-5.07024 0.246854,-3.05652 1.871722,-4.11386 0.804048,-7.21914 -0.976796,-2.84093 -0.822773,-6.98426 2.381505,-8.06602 3.857548,-1.30231 3.951944,-4.82389 2.333705,-8.10488 -1.373386,-2.78454 -0.306078,-6.72468 -4.095039,-6.2379 -0.651695,0.0836 1.300683,2.6874 0.649875,2.61785 z"
       style="fill:#e3dbdb;fill-opacity:1;stroke:#000000;stroke-width:4;stroke-linecap:butt;stroke-linejoin:miter;stroke-miterlimit:4;stroke-opacity:1;stroke-dasharray:none" />
    <path
       sodipodi:nodetypes="ccccccccsc"
       inkscape:connector-curvature="0"
       id="path3141-9-4-5-3-8-8-5"
       d="m 14.101308,-167.73534 c -5.333341,-1.75399 -6.59477,1.92654 -9.135908,3.82695 -5.26393791,6.1223 -0.409897,11.88072 -1.574888,17.99948 -0.169809,2.63375 -5.6064859,6.74543 -1.931109,8.27936 2.57357,1.05149 6.783654,0.43661 6.442631,-2.29055 1.881348,-2.42151 1.226786,-5.46477 0.829621,-8.72438 -0.362232,-2.98225 0.713759,-6.64135 4.011365,-7.39195 4.070118,-0.10408 5.362096,-4.0557 3.972704,-7.43996 -0.251856,-3.09458 1.103153,-6.64063 -2.704024,-6.95479 -0.654818,-0.054 0.713608,2.89334 0.08961,2.69584 z"
       style="fill:#e3dbdb;fill-opacity:1;stroke:#000000;stroke-width:4;stroke-linecap:butt;stroke-linejoin:miter;stroke-miterlimit:4;stroke-opacity:1;stroke-dasharray:none" />
    <g
       style="stroke:#2c5aa0;stroke-width:4.75617265999999983;stroke-linecap:square;stroke-linejoin:bevel;stroke-miterlimit:4;stroke-dasharray:none"
       transform="matrix(6.3075925,0,0,6.3075925,-421.76962,-6069.142)"
       id="g3602">
      <path
         sodipodi:nodetypes="ccccc"
         style="fill:none;stroke:#2c5aa0;stroke-width:4.75617265999999983;stroke-linecap:square;stroke-linejoin:bevel;stroke-miterlimit:4;stroke-opacity:1;stroke-dasharray:none"
         d="m 16.865176,871.38484 c 0.07844,-3.95446 -0.799508,-8.8727 2.10482,-12.43999 1.407719,-1.73925 4.298688,-3.10525 6.067662,-1.0422 1.593169,1.69322 3.080669,3.64968 3.35417,6.04661 0.454202,2.87316 0.496802,5.04918 0.626293,7.86098"
         id="path3604"
         inkscape:connector-curvature="0" />
      <path
         style="fill:none;stroke:#2c5aa0;stroke-width:4.75617265999999983;stroke-linecap:square;stroke-linejoin:bevel;stroke-miterlimit:4;stroke-opacity:1;stroke-dasharray:none"
         d="m 17.350862,866.15341 c 3.012907,-0.52112 6.095089,-0.63343 9.13933,-0.35432 0.665328,0.0305 1.332401,0.04 1.997602,8.1e-4"
         id="path3606"
         inkscape:connector-curvature="0" />
    </g>
    <g
       style="stroke:#2c5aa0;stroke-width:4.75617265999999983;stroke-linecap:square;stroke-linejoin:bevel;stroke-miterlimit:4;stroke-dasharray:none"
       transform="matrix(6.3075925,0,0,6.3075925,-111.37856,-6069.142)"
       id="g3610">
      <path
         sodipodi:nodetypes="ccccc"
         style="fill:none;stroke:#2c5aa0;stroke-width:4.75617265999999983;stroke-linecap:square;stroke-linejoin:bevel;stroke-miterlimit:4;stroke-opacity:1;stroke-dasharray:none"
         d="m 16.865176,871.38484 c 0.07844,-3.95446 -0.799508,-8.8727 2.10482,-12.43999 1.407719,-1.73925 4.298688,-3.10525 6.067662,-1.0422 1.593169,1.69322 3.080669,3.64968 3.35417,6.04661 0.454202,2.87316 0.496802,5.04918 0.626293,7.86098"
         id="path3612"
         inkscape:connector-curvature="0" />
      <path
         style="fill:none;stroke:#2c5aa0;stroke-width:4.75617265999999983;stroke-linecap:square;stroke-linejoin:bevel;stroke-miterlimit:4;stroke-opacity:1;stroke-dasharray:none"
         d="m 17.350862,866.15341 c 3.012907,-0.52112 6.095089,-0.63343 9.13933,-0.35432 0.665328,0.0305 1.332401,0.04 1.997602,8.1e-4"
         id="path3614"
         inkscape:connector-curvature="0" />
    </g>
    <g
       id="g4501"
       transform="matrix(6.3075925,0,0,6.3075925,101.19135,-6069.142)"
       style="stroke:#2c5aa0;stroke-width:4.75617265999999983;stroke-linecap:square;stroke-linejoin:bevel;stroke-miterlimit:4;stroke-dasharray:none">
      <path
         inkscape:connector-curvature="0"
         id="path4335"
         d="m 16.865176,871.38484 c 0.07844,-3.95446 -0.799508,-8.8727 2.10482,-12.43999 1.407719,-1.73925 4.298688,-3.10525 6.067662,-1.0422 1.593169,1.69322 3.080669,3.64968 3.35417,6.04661 0.454202,2.87316 0.496802,5.04918 0.626293,7.86098"
         style="fill:none;stroke:#2c5aa0;stroke-width:4.75617265999999983;stroke-linecap:square;stroke-linejoin:bevel;stroke-miterlimit:4;stroke-opacity:1;stroke-dasharray:none"
         sodipodi:nodetypes="ccccc" />
      <path
         inkscape:connector-curvature="0"
         id="path4343"
         d="m 17.350862,866.15341 c 3.012907,-0.52112 6.095089,-0.63343 9.13933,-0.35432 0.665328,0.0305 1.332401,0.04 1.997602,8.1e-4"
         style="fill:none;stroke:#2c5aa0;stroke-width:4.75617265999999983;stroke-linecap:square;stroke-linejoin:bevel;stroke-miterlimit:4;stroke-opacity:1;stroke-dasharray:none" />
    </g>
    <g
       id="g5443"
       transform="matrix(6.3010233,0,0,6.3010233,-628.33315,-5421.3886)"
       style="stroke:#2c5aa0;stroke-width:4.76113128999999979;stroke-linecap:square;stroke-linejoin:bevel;stroke-miterlimit:4;stroke-dasharray:none">
      <path
         sodipodi:nodetypes="cscssccc"
         inkscape:connector-curvature="0"
         id="path5331"
         d="m 43.198142,768.56138 c 1.74659,-1.25309 0.885621,-4.35284 -0.507709,-5.48359 -1.312509,-1.06516 -6.422695,-1.15337 -8.228856,-1.34227 0.554316,-0.2162 7.437464,0.27724 8.180299,-1.99297 0.70141,-2.14361 -1.239078,-4.7756 -3.461003,-4.7375 -2.410244,0.0413 -3.416002,0.15405 -5.430798,0.21003 -0.318851,4.37548 0.533421,7.01416 0.116989,14.65204 3.003397,-0.009 7.149434,0.17778 9.331078,-1.30574 z"
         style="fill:none;stroke:#2c5aa0;stroke-width:4.76113128999999979;stroke-linecap:square;stroke-linejoin:bevel;stroke-miterlimit:4;stroke-opacity:1;stroke-dasharray:none" />
    </g>
    <g
       id="g5622"
       transform="matrix(5.8972952,0,0,5.8972952,-513.89557,-5114.9033)"
       style="stroke:#2c5aa0;stroke-width:5.08707809000000033;stroke-linecap:square;stroke-linejoin:bevel;stroke-miterlimit:4;stroke-dasharray:none">
      <path
         sodipodi:nodetypes="ccsssccc"
         inkscape:connector-curvature="0"
         id="path5346"
         d="m 69.671423,770.88807 c 2.702918,-0.0666 4.163197,0.14739 7.202973,-1.19897 1.044449,-0.46267 1.727803,-1.35439 2.382938,-2.23883 1.093471,-1.4762 1.223501,-3.33785 1.154741,-5.16736 -0.06604,-1.75728 -0.697019,-3.31375 -1.612443,-4.6796 -0.781705,-1.16634 -1.982467,-2.05657 -3.247857,-2.62722 -2.236162,-0.82881 -4.641484,-0.4518 -5.905822,-0.45158 -0.09168,5.22477 0.431571,11.55171 0.02547,16.36356 z"
         style="fill:none;stroke:#2c5aa0;stroke-width:5.08707809000000033;stroke-linecap:square;stroke-linejoin:bevel;stroke-miterlimit:4;stroke-opacity:1;stroke-dasharray:none" />
    </g>
    <path
       sodipodi:nodetypes="cscsscssc"
       inkscape:connector-curvature="0"
       id="path3608"
       d="m -202.49875,-569.6245 c -0.0435,-13.47246 -0.37355,-26.4633 1.21966,-39.473 1.94913,-15.91686 -3.6346,-46.87204 -3.26192,-62.96443 5.7472,9.97971 14.16639,29.36741 20.08342,37.58116 6.54141,9.08053 16.33169,22.46088 23.27384,31.63497 8.1378,10.75462 16.4839,27.41459 22.84116,40.40362 1.17099,-15.55708 -1.49397,-27.69784 -1.15197,-37.85115 0.41127,-12.22052 -3.13811,-19.73504 -0.15885,-29.63231 3.40678,-11.31747 1.2338,-24.18863 2.23949,-35.8035"
       style="fill:none;stroke:#2c5aa0;stroke-width:30;stroke-linecap:square;stroke-linejoin:bevel;stroke-miterlimit:4;stroke-opacity:1;stroke-dasharray:none" />
    <path
       sodipodi:nodetypes="cscsscssc"
       inkscape:connector-curvature="0"
       id="path3608-2"
       d="m 107.89231,-569.6245 c -0.0435,-13.47246 -0.37355,-26.4633 1.21966,-39.473 1.94912,-15.91686 -3.6346,-46.87204 -3.26192,-62.96443 5.74719,9.97971 14.16638,29.36741 20.08341,37.58116 6.54141,9.08053 16.33169,22.46088 23.27384,31.63497 8.1378,10.75462 16.4839,27.41459 22.84116,40.40362 1.17099,-15.55708 -1.49397,-27.69784 -1.15197,-37.85115 0.41127,-12.22052 -3.13811,-19.73504 -0.15885,-29.63231 3.40678,-11.31747 1.2338,-24.18863 2.23949,-35.8035"
       style="fill:none;stroke:#2c5aa0;stroke-width:30;stroke-linecap:square;stroke-linejoin:bevel;stroke-miterlimit:4;stroke-opacity:1;stroke-dasharray:none" />
    <g
       id="g5325"
       transform="translate(576,-562)">
      <path
         sodipodi:nodetypes="ccccccsssc"
         inkscape:connector-curvature="0"
         id="path5318"
         d="m -29.009299,67.75127 c 17.755373,77.11159 24.839098,104.82497 65.721337,175.16947 71.624332,-27.36745 142.807422,-40.35108 230.623472,-54.3457 150.37918,-1.54229 183.45988,-29.02867 330.86343,6.56371 66.61207,28.58845 118.19001,31.35399 179.13435,43.70883 6.58057,-33.42096 20.48096,-100.63331 29.31734,-157.9375 C 775.08253,65.72622 729.95801,35.36859 662.2074,16.2411 571.10527,-9.4790198 486.08152,-11.98824 390.5591,-17.88348 262.80112,-25.76818 226.07594,0.59793001 101.15809,23.03967 34.858032,34.95061 -8.107994,55.06282 -29.009299,67.75127 z"
         style="fill:#217844;fill-opacity:1;stroke:#000000;stroke-width:2.5;stroke-miterlimit:4;stroke-opacity:1;stroke-dasharray:none" />
      <g
         style="stroke-width:2.5;stroke-miterlimit:4;stroke-dasharray:none"
         transform="matrix(0.99964548,0.02662547,-0.02662547,0.99964548,3.295078,-10.206558)"
         id="g5307">
        <path
           style="font-size:medium;font-style:normal;font-variant:normal;font-weight:normal;font-stretch:normal;text-indent:0;text-align:start;text-decoration:none;line-height:normal;letter-spacing:normal;word-spacing:normal;text-transform:none;direction:ltr;block-progression:tb;writing-mode:lr-tb;text-anchor:start;baseline-shift:baseline;color:#000000;fill:#2c5aa0;fill-opacity:1;stroke:#000000;stroke-width:2.5;stroke-linejoin:round;stroke-miterlimit:4;stroke-opacity:1;stroke-dasharray:none;marker:none;visibility:visible;display:inline;overflow:visible;enable-background:accumulate;font-family:Sans;-inkscape-font-specification:Sans"
           d="m 181.128,45.725813 c -2.86765,0.483553 -5.5591,1.294577 -7.98842,2.402014 -9.70324,4.423357 -16.73766,11.767637 -21.43797,20.052099 -0.006,0.01195 -0.0176,0.02186 -0.0241,0.03371 -17.29171,30.370399 -4.93424,62.815054 -1.87939,83.694144 l 2.05449,13.93624 27.8773,-4.08003 -2.05448,-13.93626 c -0.92133,-6.29703 -2.06302,-12.43212 -3.12523,-18.39835 13.32308,-3.96774 27.11673,-6.49286 41.01765,-7.51899 l 0.64641,-0.0483 c 0.15471,-0.0182 0.31279,-0.0293 0.4679,-0.0483 1.57988,6.76451 2.998,13.67591 4.71217,21.67382 l 2.94692,13.7578 27.54452,-5.89865 -2.94691,-13.7578 c -3.41179,-15.91856 -5.93351,-29.28042 -11.54194,-46.237229 -0.0139,-0.04899 -0.0389,-0.09097 -0.053,-0.1399 -0.0522,-0.157488 -0.0823,-0.295318 -0.13506,-0.453449 l -0.0289,0.0048 -0.37133,-1.6932 -0.14472,0.02411 c -5.61078,-16.897906 -18.10068,-28.191793 -29.26516,-36.739626 -0.006,-0.0048 -0.0234,0.0096 -0.0289,0.0048 -0.0706,-0.05897 -0.13644,-0.115472 -0.20743,-0.173666 -0.0897,-0.06852 -0.18538,-0.153721 -0.27494,-0.221908 l -0.0241,0.03371 C 199.24347,45.904714 189.543,44.307975 181.12819,45.725565 z m 6.19775,27.01873 c 0.51441,-0.01632 0.9444,0.342739 1.98739,1.215686 l 0.51614,0.419693 c 8.3046,6.322616 15.00677,12.817003 18.58087,19.92806 -3.1127,0.294414 -6.21793,0.615826 -9.31493,1.046457 -9.33129,1.297498 -18.57052,3.200241 -27.66994,5.681561 0.19101,-6.896117 1.51336,-13.258 4.73288,-18.904586 l 0.0241,-0.0337 c 1.83047,-3.231941 5.85901,-7.043558 8.63984,-8.311235 1.39041,-0.633837 1.98923,-1.025549 2.50363,-1.04187 z"
           id="path3604-9"
           inkscape:connector-curvature="0" />
        <path
           style="font-size:medium;font-style:normal;font-variant:normal;font-weight:normal;font-stretch:normal;text-indent:0;text-align:start;text-decoration:none;line-height:normal;letter-spacing:normal;word-spacing:normal;text-transform:none;direction:ltr;block-progression:tb;writing-mode:lr-tb;text-anchor:start;baseline-shift:baseline;color:#000000;fill:#2c5aa0;fill-opacity:1;stroke:#000000;stroke-width:2.5;stroke-linejoin:round;stroke-miterlimit:4;stroke-opacity:1;stroke-dasharray:none;marker:none;visibility:visible;display:inline;overflow:visible;enable-background:accumulate;font-family:Sans;-inkscape-font-specification:Sans"
           d="m 517.98553,22.481486 c -2.88326,-0.379695 -5.72329,-0.398507 -8.37068,-0.05311 -10.5743,1.379565 -19.42589,6.338777 -26.35135,12.878136 -0.0102,0.0095 -0.023,0.01578 -0.0329,0.02515 -25.45993,23.955582 -23.15857,58.59455 -26.36893,79.453888 l -2.15678,13.92135 27.84661,4.28449 2.15679,-13.92136 c 0.96807,-6.29004 1.67795,-12.48994 2.41421,-18.50509 13.90084,0.11874 27.82798,1.7547 41.41754,4.85505 l 0.63206,0.14369 c 0.14375,0.0258 0.28815,0.0616 0.43238,0.0874 -0.4758,6.93023 -1.14937,13.9534 -1.85885,22.10212 l -1.22243,14.01665 28.06244,2.44833 1.22243,-14.01666 c 1.42967,-16.41662 3.00023,-30.02314 2.56532,-48.206723 l -0.0291,-0.0038 0.14232,-1.727587 -0.17451,-0.02333 c -0.40075,-17.799765 -8.99707,-32.259986 -17.15969,-43.708771 -0.004,-0.0062 -0.0253,0.0023 -0.0291,-0.0038 -0.0461,-0.07097 -0.10453,-0.12745 -0.15117,-0.197826 -0.0699,-0.09783 -0.124,-0.224593 -0.1938,-0.321938 l -0.0329,0.02516 C 535.25035,27.969877 526.44686,23.597028 517.98591,22.48148 z m -2.00803,27.647633 c 0.5038,0.136393 0.80214,0.604903 1.54288,1.745601 l 0.37018,0.552737 c 6.0823,8.482177 10.56033,16.655148 11.88209,24.50122 -3.05047,-0.629779 -6.0991,-1.233554 -9.18258,-1.730614 -9.28188,-1.496241 -18.67351,-2.386124 -28.0895,-2.688759 2.20717,-6.533765 5.31144,-12.234561 10.04555,-16.685777 l 0.0329,-0.02515 c 2.69868,-2.552087 7.63968,-5.016841 10.67014,-5.412204 1.51524,-0.197682 2.22447,-0.393406 2.72827,-0.25701 z"
           id="path3612-2"
           inkscape:connector-curvature="0" />
        <path
           style="font-size:medium;font-style:normal;font-variant:normal;font-weight:normal;font-stretch:normal;text-indent:0;text-align:start;text-decoration:none;line-height:normal;letter-spacing:normal;word-spacing:normal;text-transform:none;direction:ltr;block-progression:tb;writing-mode:lr-tb;text-anchor:start;baseline-shift:baseline;color:#000000;fill:#2c5aa0;fill-opacity:1;stroke:#000000;stroke-width:2.5;stroke-linejoin:round;stroke-miterlimit:4;stroke-opacity:1;stroke-dasharray:none;marker:none;visibility:visible;display:inline;overflow:visible;enable-background:accumulate;font-family:Sans;-inkscape-font-specification:Sans"
           d="m 742.5661,70.310282 c -2.79886,-0.789713 -5.60678,-1.216078 -8.27632,-1.254351 -10.66282,-0.152893 -20.13471,3.484105 -27.9273,8.961418 -0.0111,0.008 -0.0251,0.0123 -0.0362,0.02017 -28.62194,20.053614 -31.33218,54.665991 -37.50305,74.844901 l -4.10492,13.47552 26.91476,8.23005 4.13315,-13.46748 c 1.86111,-6.08589 3.45376,-12.11964 5.046,-17.96676 13.73978,2.11326 27.28775,5.73181 40.2914,10.75112 l 0.60489,0.23294 c 0.14762,0.0498 0.29526,0.10735 0.44358,0.15655 -1.46585,6.79012 -3.14074,13.64382 -5.01284,21.60626 l -3.22195,13.69598 27.4202,6.45191 3.22195,-13.69599 c 3.72612,-15.84793 7.16301,-29.00414 9.34782,-46.73024 0.008,-0.0502 0.004,-0.0989 0.0119,-0.14913 0.0202,-0.16469 0.0519,-0.30215 0.0719,-0.46764 l -0.0282,-0.008 0.38871,-1.68929 -0.14111,-0.0401 c 2.1574,-17.67352 -4.30043,-33.22544 -10.73481,-45.72761 -0.003,-0.0067 -0.0253,-0.0013 -0.0282,-0.008 -0.0386,-0.08348 -0.0739,-0.16274 -0.11318,-0.245706 -0.0518,-0.100544 -0.10172,-0.218093 -0.1536,-0.318202 l -0.0362,0.02017 c -4.281,-8.766485 -12.36591,-14.359592 -20.57829,-16.678124 z m -5.95663,27.072906 c 0.47194,0.205309 0.70699,0.713802 1.27628,1.949032 l 0.28698,0.600155 c 4.80148,9.267545 8.08111,18.004845 8.26954,25.961335 -2.93944,-1.0655 -5.88369,-2.10341 -8.8672,-3.03906 -8.9709,-2.81335 -18.13747,-5.04238 -27.41247,-6.69376 3.12238,-6.14918 7.01295,-11.34523 12.33707,-15.07065 l 0.0361,-0.0202 c 3.03713,-2.138193 8.30904,-3.860001 11.36487,-3.816181 1.52792,0.02191 2.23674,-0.07598 2.70868,0.129332 z"
           id="path4335-1"
           inkscape:connector-curvature="0" />
        <path
           style="font-size:medium;font-style:normal;font-variant:normal;font-weight:normal;font-stretch:normal;text-indent:0;text-align:start;text-decoration:none;line-height:normal;letter-spacing:normal;word-spacing:normal;text-transform:none;direction:ltr;block-progression:tb;writing-mode:lr-tb;text-anchor:start;baseline-shift:baseline;color:#000000;fill:#2c5aa0;fill-opacity:1;stroke:#000000;stroke-width:2.5;stroke-linejoin:round;stroke-miterlimit:4;stroke-opacity:1;stroke-dasharray:none;marker:none;visibility:visible;display:inline;overflow:visible;enable-background:accumulate;font-family:Sans;-inkscape-font-specification:Sans"
           d="M 39.158132,69.601465 C 22.924017,77.458809 16.422944,81.367285 3.6988684,87.693808 L -4.7989028,109.36236 C 7.4669789,141.86168 20.88949,155.83035 40.977503,206.24624 l 23.455277,9.34422 c 9.5748,-4.46832 21.964686,-9.8031 33.827023,-16.53953 11.862317,-6.73644 23.706517,-14.5899 31.454547,-27.51598 l 0.22178,-0.38165 c 7.86195,-13.89763 3.63431,-29.46835 -3.10202,-39.49103 -6.29636,-9.36809 -14.67791,-16.38581 -25.66548,-19.79804 0.41434,-2.46988 0.52369,-5.1078 0.18979,-7.9386 C 99.595083,88.975302 89.893079,77.902258 78.559499,71.641927 67.225907,65.381603 52.696139,63.048845 39.158132,69.601465 z M 54.30283,100.84638 c 1.047206,-0.50682 4.226503,-0.63024 7.472535,1.16277 2.19488,1.21239 3.442483,2.75377 4.228095,4.13954 -0.178884,0.20588 -0.04099,0.071 -0.317817,0.34642 -2.383402,2.37237 -7.193104,5.85013 -12.468642,8.96141 -4.578814,2.70039 -9.346279,5.08528 -13.662893,7.24287 -1.97469,-3.75523 -3.989244,-7.69467 -5.757489,-11.40166 5.996172,-3.15528 11.515668,-6.09991 20.506211,-10.45135 z m 2.024117,54.37647 c 5.094789,-1.95283 9.382656,-3.62665 14.839525,-5.47629 5.412844,-1.83472 10.678843,-3.3562 14.606229,-4.17274 2.496943,-0.51909 4.442998,-0.53758 5.065886,-0.59218 1.017437,0.48296 5.223039,3.12794 7.180476,6.04033 2.058497,3.06273 1.57495,3.19458 1.69082,2.96311 -2.3181,3.60632 -9.234184,9.55196 -18.583779,14.86144 -4.647051,2.63901 -9.800743,5.15586 -15.001062,7.62338 -3.547348,-8.18404 -6.674673,-14.8573 -9.798147,-21.24702 z"
           id="path5331-9"
           inkscape:connector-curvature="0" />
        <path
           style="font-size:medium;font-style:normal;font-variant:normal;font-weight:normal;font-stretch:normal;text-indent:0;text-align:start;text-decoration:none;line-height:normal;letter-spacing:normal;word-spacing:normal;text-transform:none;direction:ltr;block-progression:tb;writing-mode:lr-tb;text-anchor:start;baseline-shift:baseline;color:#000000;fill:#2c5aa0;fill-opacity:1;stroke:#000000;stroke-width:2.5;stroke-linejoin:round;stroke-miterlimit:4;stroke-opacity:1;stroke-dasharray:none;marker:none;visibility:visible;display:inline;overflow:visible;enable-background:accumulate;font-family:Sans;-inkscape-font-specification:Sans"
           d="m 387.79163,21.676877 c -6.7777,-0.06761 -11.98224,0.645169 -14.08439,0.645535 l -14.08439,13.820306 c -0.52765,30.070563 2.28185,65.067032 0.2054,89.670612 l 14.37781,15.25809 c 14.09935,-0.3474 26.38152,0.52095 45.2461,-7.83444 9.83067,-4.35479 15.08768,-11.84875 18.80853,-16.87193 9.10817,-12.29614 9.57409,-26.374171 9.15485,-37.529035 -0.48039,-12.783089 -5.16856,-24.057576 -11.3262,-33.24502 -6.19693,-9.246119 -14.91768,-15.498217 -23.88477,-19.542089 l -0.88028,-0.35211 c -8.38678,-3.108471 -16.75496,-3.952332 -23.53266,-4.019919 z m 0.088,28.491544 c 4.75193,0.0154 9.29013,0.418842 13.32148,1.848576 4.80978,2.284798 9.13876,5.745783 11.50225,9.272222 3.98036,5.938852 6.29241,11.92498 6.54337,18.603126 0.34225,9.106308 -0.63685,15.636591 -3.63846,19.688811 -3.53456,4.771694 -5.83414,7.124014 -7.57036,7.893124 -8.6759,3.84269 -13.72997,4.85675 -19.51275,5.16428 0.54785,-20.533436 -0.39338,-42.460627 -0.64553,-62.470139 z"
           id="path5346-1"
           inkscape:connector-curvature="0" />
        <path
           style="font-size:medium;font-style:normal;font-variant:normal;font-weight:normal;font-stretch:normal;text-indent:0;text-align:start;text-decoration:none;line-height:normal;letter-spacing:normal;word-spacing:normal;text-transform:none;direction:ltr;block-progression:tb;writing-mode:lr-tb;text-anchor:start;baseline-shift:baseline;color:#000000;fill:#2c5aa0;fill-opacity:1;stroke:#000000;stroke-width:2.5;stroke-linejoin:round;stroke-miterlimit:4;stroke-opacity:1;stroke-dasharray:none;marker:none;visibility:visible;display:inline;overflow:visible;enable-background:accumulate;font-family:Sans;-inkscape-font-specification:Sans"
           d="m 313.61279,25.921674 0.12694,14.108402 c 0.13702,13.583833 2.67854,24.384842 1.41364,30.757745 -0.94459,4.759092 -0.7506,8.990819 -0.31866,12.854413 -6.06904,-6.717582 -12.60817,-13.987456 -17.55155,-19.615433 -1.75882,-2.002372 -5.8471,-7.993825 -9.74705,-14.209368 -3.89996,-6.215541 -7.82508,-12.764393 -11.52479,-17.958132 l -25.52433,9.191002 c 0.68801,9.369004 3.07869,20.207068 5.14446,30.92739 2.06577,10.720321 3.69317,21.442263 3.57119,26.244972 -0.34725,13.668375 1.24384,26.373605 2.4828,38.761165 l 1.38561,14.01609 28.02936,-2.80044 -1.3856,-14.01609 c -1.27895,-12.78715 -2.65521,-24.29645 -2.37736,-35.233822 0.0326,-1.281173 -0.0736,-2.606183 -0.11299,-3.909851 4.83872,5.418153 9.58999,10.820863 13.71433,15.299483 6.9759,7.57543 16.3211,22.05694 23.37841,33.52608 l 26.08299,-7.68263 c -0.35813,-16.79282 -4.10974,-29.16466 -4.53011,-35.85095 -0.45195,-7.185413 -1.91162,-12.704661 -2.65088,-16.428922 -0.73928,-3.724261 -0.86609,-5.344249 -0.41347,-7.624661 3.05616,-15.397734 -0.80026,-28.249047 -0.88406,-36.55749 l -0.15333,-14.076369 -28.15556,0.277463 z"
           id="path3608-3"
           inkscape:connector-curvature="0" />
        <path
           style="font-size:medium;font-style:normal;font-variant:normal;font-weight:normal;font-stretch:normal;text-indent:0;text-align:start;text-decoration:none;line-height:normal;letter-spacing:normal;word-spacing:normal;text-transform:none;direction:ltr;block-progression:tb;writing-mode:lr-tb;text-anchor:start;baseline-shift:baseline;color:#000000;fill:#2c5aa0;fill-opacity:1;stroke:#000000;stroke-width:2.5;stroke-linejoin:round;stroke-miterlimit:4;stroke-opacity:1;stroke-dasharray:none;marker:none;visibility:visible;display:inline;overflow:visible;enable-background:accumulate;font-family:Sans;-inkscape-font-specification:Sans"
           d="m 653.46207,44.604668 -4.05961,13.509669 c -3.92222,13.005978 -4.71916,24.073317 -7.82792,29.778531 -2.32145,4.260345 -3.4277,8.351418 -4.16822,12.167812 -3.78829,-8.222422 -7.86046,-17.112229 -10.89946,-23.958807 -1.08124,-2.43594 -3.16693,-9.368285 -5.03471,-16.464338 -1.86779,-7.096053 -3.68887,-14.52376 -5.67041,-20.584805 l -27.10403,1.156683 c -2.13875,9.147533 -3.09071,20.205236 -4.31764,31.053615 -1.22693,10.848379 -2.87276,21.567508 -4.42217,26.11506 -4.40964,12.942182 -6.68188,25.543412 -9.1954,37.736412 l -2.83073,13.79711 27.58821,5.69021 2.83073,-13.79712 c 2.59459,-12.58629 4.74375,-23.97596 8.27232,-34.33224 0.41023,-1.20403 0.70351,-2.49043 1.05273,-3.73676 2.99725,6.60497 5.93477,13.16952 8.53077,18.66582 4.39788,9.31176 8.96786,25.91594 12.28167,38.96836 l 27.1872,0.44966 c 4.66855,-16.13479 4.77927,-29.06245 6.37304,-35.5696 1.71254,-6.99297 1.99486,-12.69032 2.40046,-16.46552 0.4056,-3.7752 0.73921,-5.36525 1.85161,-7.40674 7.51116,-13.784515 7.66484,-27.201093 10.06383,-35.156094 l 4.08232,-13.474933 -26.98459,-8.141939 z"
           id="path3608-2-6"
           inkscape:connector-curvature="0" />
      </g>
    </g>
    <path
       style="font-size:medium;font-style:normal;font-variant:normal;font-weight:normal;font-stretch:normal;text-indent:0;text-align:start;text-decoration:none;line-height:normal;letter-spacing:normal;word-spacing:normal;text-transform:none;direction:ltr;block-progression:tb;writing-mode:lr-tb;text-anchor:start;baseline-shift:baseline;color:#000000;fill:#2c5aa0;fill-opacity:1;stroke:#000000;stroke-width:4;stroke-linejoin:round;stroke-miterlimit:4;stroke-opacity:1;stroke-dasharray:none;marker:none;visibility:visible;display:inline;overflow:visible;enable-background:accumulate;font-family:Sans;-inkscape-font-specification:Sans"
       d="m 166.61342,-195.00761 c -3.09719,0.006 -6.0666,0.38686 -8.8125,1.125 -10.96781,2.94829 -19.64326,9.43226 -26.03125,17.3125 -0.009,0.0114 -0.0222,0.0199 -0.0312,0.0312 -23.48168,28.87793 -16.17931,65.12501 -16.625,87.593758 l -0.28125,15 30,0.59375 0.28125,-15 c 0.13442,-6.77648 0.009,-13.421388 -0.0625,-19.874998 14.69078,-1.83601 29.62338,-2.07412 44.40625,-0.71875 l 0.6875,0.0625 c 0.16572,0.008 0.33373,0.024 0.5,0.0312 0.47557,7.38284 0.7555,14.891678 1.15625,23.593748 l 0.6875,14.96875 29.96875,-1.375 -0.6875,-14.96875 c -0.79763,-17.320078 -1.10776,-31.798458 -4.03125,-50.593758 -0.006,-0.0539 -0.025,-0.10238 -0.0312,-0.15625 -0.0273,-0.17459 -0.0348,-0.32465 -0.0625,-0.5 l -0.0312,0 -0.0937,-1.84375 -0.15625,0 c -2.9363,-18.73384 -14.08024,-32.7847 -24.3125,-43.71875 -0.005,-0.006 -0.0263,0.006 -0.0312,0 -0.0638,-0.0743 -0.12312,-0.14519 -0.1875,-0.21875 -0.0823,-0.0877 -0.16785,-0.19394 -0.25,-0.28125 l -0.0312,0.0312 c -6.93832,-7.73447 -16.84939,-11.10995 -25.9375,-11.09375 z m 1.78125,29.46875 c 0.54325,0.0729 0.93211,0.52537 1.875,1.625 l 0.46875,0.53125 c 7.6174,8.09578 13.52136,16.09151 16.03125,24.1875 -3.32151,-0.23559 -6.6399,-0.44151 -9.96875,-0.53125 -10.02987,-0.27039 -20.06899,0.11116 -30.0625,1.125 1.40784,-7.21111 3.91063,-13.66295 8.28125,-19.03125 l 0.0312,-0.0312 c 2.4887,-3.07481 7.38801,-6.37381 10.53125,-7.21875 1.57162,-0.42247 2.26925,-0.72915 2.8125,-0.65625 z"
       id="path3604-9-4"
       inkscape:connector-curvature="0" />
    <path
       style="font-size:medium;font-style:normal;font-variant:normal;font-weight:normal;font-stretch:normal;text-indent:0;text-align:start;text-decoration:none;line-height:normal;letter-spacing:normal;word-spacing:normal;text-transform:none;direction:ltr;block-progression:tb;writing-mode:lr-tb;text-anchor:start;baseline-shift:baseline;color:#000000;fill:#2c5aa0;fill-opacity:1;stroke:#000000;stroke-width:4;stroke-linejoin:round;stroke-miterlimit:4;stroke-opacity:1;stroke-dasharray:none;marker:none;visibility:visible;display:inline;overflow:visible;enable-background:accumulate;font-family:Sans;-inkscape-font-specification:Sans"
       d="m 477.01966,-195.00761 c -3.09719,0.006 -6.09785,0.38686 -8.84375,1.125 -10.96781,2.94829 -19.61201,9.43226 -26,17.3125 -0.009,0.0114 -0.022,0.0199 -0.0312,0.0312 -23.49602,28.88031 -16.17924,65.12123 -16.625,87.593758 l -0.3125,15 30,0.59375 0.3125,-15 c 0.13442,-6.77648 0.009,-13.421388 -0.0625,-19.874998 14.69078,-1.83601 29.62338,-2.07412 44.40625,-0.71875 l 0.6875,0.0625 c 0.15539,0.007 0.31287,0.0244 0.46875,0.0312 0.47557,7.38284 0.7555,14.891678 1.15625,23.593748 l 0.6875,14.96875 29.96876,-1.375 -0.6875,-14.96875 c -0.80736,-17.531448 -1.06903,-32.116398 -4.09375,-51.250008 l -0.0312,0 -0.0937,-1.84375 -0.1875,0 c -2.93452,-18.73327 -14.04926,-32.78488 -24.28126,-43.71875 -0.005,-0.006 -0.0263,0.006 -0.0312,0 -0.0587,-0.0684 -0.12833,-0.11979 -0.1875,-0.1875 -0.0876,-0.0934 -0.16258,-0.21959 -0.25,-0.3125 l -0.0312,0.0312 c -6.93841,-7.73602 -16.84854,-11.10996 -25.9375,-11.09375 z m 1.78125,29.46875 c 0.55106,0.0729 0.93211,0.52537 1.875,1.625 l 0.46875,0.53125 c 7.6174,8.09578 13.49768,16.09151 16,24.1875 -3.30899,-0.2344 -6.61238,-0.44161 -9.9375,-0.53125 -10.00926,-0.26983 -20.04882,0.11591 -30.03125,1.125 1.40806,-7.20861 3.88063,-13.66449 8.25,-19.03125 l 0.0312,-0.0312 c 2.4887,-3.07481 7.35676,-6.37381 10.5,-7.21875 1.57162,-0.42247 2.29269,-0.72915 2.84375,-0.65625 z"
       id="path3612-2-7"
       inkscape:connector-curvature="0" />
    <path
       style="font-size:medium;font-style:normal;font-variant:normal;font-weight:normal;font-stretch:normal;text-indent:0;text-align:start;text-decoration:none;line-height:normal;letter-spacing:normal;word-spacing:normal;text-transform:none;direction:ltr;block-progression:tb;writing-mode:lr-tb;text-anchor:start;baseline-shift:baseline;color:#000000;fill:#2c5aa0;fill-opacity:1;stroke:#000000;stroke-width:4;stroke-linejoin:round;stroke-miterlimit:4;stroke-opacity:1;stroke-dasharray:none;marker:none;visibility:visible;display:inline;overflow:visible;enable-background:accumulate;font-family:Sans;-inkscape-font-specification:Sans"
       d="m 689.58217,-195.00761 c -3.09719,0.006 -6.09785,0.38686 -8.84375,1.125 -10.96781,2.94829 -19.61201,9.43226 -26,17.3125 -0.009,0.0114 -0.0221,0.0199 -0.0312,0.0312 -23.48168,28.87793 -16.17931,65.12501 -16.625,87.593758 l -0.28125,15 29.96875,0.59375 0.3125,-15 c 0.13442,-6.77648 0.009,-13.421388 -0.0625,-19.874998 14.69078,-1.83601 29.62338,-2.07412 44.40625,-0.71875 l 0.6875,0.0625 c 0.16572,0.008 0.33373,0.024 0.5,0.0312 0.47557,7.38284 0.7555,14.891678 1.15625,23.593748 l 0.6875,14.96875 29.96875,-1.375 -0.6875,-14.96875 c -0.79763,-17.320078 -1.10776,-31.798458 -4.03125,-50.593758 -0.006,-0.0539 -0.025,-0.10238 -0.0312,-0.15625 -0.0273,-0.17459 -0.0348,-0.32465 -0.0625,-0.5 l -0.0312,0 -0.0937,-1.84375 -0.15625,0 c -2.93627,-18.73346 -14.08042,-32.78481 -24.3125,-43.71875 -0.005,-0.006 -0.0263,0.006 -0.0312,0 -0.0638,-0.0743 -0.12312,-0.14519 -0.1875,-0.21875 -0.0824,-0.0879 -0.16771,-0.1938 -0.25,-0.28125 l -0.0312,0.0312 c -6.93832,-7.73447 -16.84939,-11.10995 -25.9375,-11.09375 z m 1.78125,29.46875 c 0.54325,0.0729 0.93211,0.52537 1.875,1.625 l 0.46875,0.53125 c 7.6174,8.09578 13.52136,16.09151 16.03125,24.1875 -3.32151,-0.23559 -6.6399,-0.44151 -9.96875,-0.53125 -10.00926,-0.26983 -20.04882,0.11591 -30.03125,1.125 1.40806,-7.20861 3.88063,-13.66449 8.25,-19.03125 l 0.0312,-0.0312 c 2.4887,-3.07481 7.38801,-6.37381 10.53125,-7.21875 1.57162,-0.42247 2.26925,-0.72915 2.8125,-0.65625 z"
       id="path4335-1-4"
       inkscape:connector-curvature="0" />
    <path
       style="font-size:medium;font-style:normal;font-variant:normal;font-weight:normal;font-stretch:normal;text-indent:0;text-align:start;text-decoration:none;line-height:normal;letter-spacing:normal;word-spacing:normal;text-transform:none;direction:ltr;block-progression:tb;writing-mode:lr-tb;text-anchor:start;baseline-shift:baseline;color:#000000;fill:#2c5aa0;fill-opacity:1;stroke:#000000;stroke-width:4;stroke-linejoin:round;stroke-miterlimit:4;stroke-opacity:1;stroke-dasharray:none;marker:none;visibility:visible;display:inline;overflow:visible;enable-background:accumulate;font-family:Sans;-inkscape-font-specification:Sans"
       d="m 63.798515,-194.90079 c -15.58312,0.26702 -22.10015,0.97144 -34.375,1.3125 l -14.53125,13.90625 c -2.18168,29.93841 3.2719,45.7657 0.71875,92.593758 l 15,15.84375 c 9.13061,-0.0274 20.78331,0.28789 32.53125,-0.6875 11.74793,-0.97539 23.88723,-2.8333 34.65626,-10.15625 l 0.3125,-0.21875 c 11.211115,-8.04342 13.549505,-21.788438 11.906245,-32.093748 -1.53593,-9.63226 -5.56038,-18.17855 -12.937495,-24.84376 1.22169,-1.78634 2.26524,-3.8152 3.031245,-6.15625 4.04554,-12.36376 0.45808,-24.56953 -6.156245,-33.59375 -6.61434,-9.02422 -17.16106,-16.12908 -30.15626,-15.90625 z m 0.53125,30 c 1.0052,-0.0172 3.5431,1.04039 5.4375,3.625 1.28094,1.74765 1.69961,3.40933 1.8125,4.78125 -0.21503,0.0965 -0.0579,0.0407 -0.375,0.15625 -2.73036,0.99494 -7.76469,1.97573 -13.03125,2.5 -4.57102,0.45503 -9.17542,0.59416 -13.34375,0.71875 -0.185,-3.6617 -0.33437,-7.48234 -0.375,-11.03125 5.84763,-0.29712 11.24498,-0.60212 19.875,-0.75 z m -18.15625,43.37501 c 4.7042,0.31852 8.67434,0.56284 13.625,1.09375 4.91072,0.52663 9.59256,1.24556 12.96875,2.03125 2.1465,0.49952 3.67923,1.19165 4.1875,1.375 0.62248,0.74814 2.96,4.34924 3.4375,7.34375 0.50215,3.14912 0.0751,3.07693 0.25,2.9375 -3.12718,1.98626 -10.70932,4.13747 -19.96875,4.90625 -4.60224,0.38211 -9.55742,0.48449 -14.53125,0.53125 0.18983,-7.70564 0.16048,-14.07406 0.0312,-20.21875 z"
       id="path5331-9-5"
       inkscape:connector-curvature="0" />
    <path
       style="font-size:medium;font-style:normal;font-variant:normal;font-weight:normal;font-stretch:normal;text-indent:0;text-align:start;text-decoration:none;line-height:normal;letter-spacing:normal;word-spacing:normal;text-transform:none;direction:ltr;block-progression:tb;writing-mode:lr-tb;text-anchor:start;baseline-shift:baseline;color:#000000;fill:#2c5aa0;fill-opacity:1;stroke:#000000;stroke-width:4;stroke-linejoin:round;stroke-miterlimit:4;stroke-opacity:1;stroke-dasharray:none;marker:none;visibility:visible;display:inline;overflow:visible;enable-background:accumulate;font-family:Sans;-inkscape-font-specification:Sans"
       d="m 357.32976,-196.74454 c -7.21831,-0.072 -12.76119,0.68711 -15,0.6875 l -15,14.71875 c -0.56195,32.02542 2.43019,69.29697 0.21875,95.500008 l 15.3125,16.25 c 15.01593,-0.36998 28.09656,0.55482 48.1875,-8.34375 10.46975,-4.63789 16.06852,-12.61902 20.03125,-17.96875 9.70029,-13.095508 10.1965,-28.088728 9.75,-39.968758 -0.51162,-13.61411 -5.50456,-25.62154 -12.0625,-35.40625 -6.59979,-9.8472 -15.88746,-16.50574 -25.4375,-20.8125 l -0.9375,-0.375 c -8.932,-3.31055 -17.84419,-4.20927 -25.0625,-4.28125 z m 0.0937,30.34375 c 5.06085,0.0164 9.89407,0.44607 14.1875,1.96875 5.12246,2.43333 9.73286,6.11931 12.25,9.875 4.23912,6.32493 6.70147,12.70021 6.96875,19.8125 0.3645,9.6983 -0.67825,16.65311 -3.875,20.96876 -3.76433,5.08189 -6.21341,7.58714 -8.0625,8.40625 -9.23991,4.09249 -14.62254,5.17248 -20.78125,5.499998 0.58346,-21.868288 -0.41895,-45.220948 -0.6875,-66.531258 z"
       id="path5346-1-0"
       inkscape:connector-curvature="0" />
    <path
       style="font-size:medium;font-style:normal;font-variant:normal;font-weight:normal;font-stretch:normal;text-indent:0;text-align:start;text-decoration:none;line-height:normal;letter-spacing:normal;word-spacing:normal;text-transform:none;direction:ltr;block-progression:tb;writing-mode:lr-tb;text-anchor:start;baseline-shift:baseline;color:#000000;fill:#2c5aa0;fill-opacity:1;stroke:#000000;stroke-width:4;stroke-linejoin:round;stroke-miterlimit:4;stroke-opacity:1;stroke-dasharray:none;marker:none;visibility:visible;display:inline;overflow:visible;enable-background:accumulate;font-family:Sans;-inkscape-font-specification:Sans"
       d="m 294.45291,-197.80312 -1.3125,14.96875 c -1.24803,14.41371 0.33828,26.12409 -1.65625,32.75 -1.48945,4.94803 -1.71785,9.45381 -1.65625,13.59375 -5.74454,-7.74353 -11.93073,-16.12073 -16.59375,-22.59375 -1.65906,-2.30303 -5.37834,-9.07365 -8.875,-16.0625 -3.49666,-6.98885 -6.98581,-14.33361 -10.375,-20.21875 l -28,7.125 c -0.23164,10.00226 1.19098,21.73645 2.28125,33.3125 1.09027,11.57605 1.71567,23.10886 1.09375,28.1875 -1.77004,14.45366 -1.38656,28.085138 -1.34375,41.343758 l 0.0312,15 30,-0.0937 -0.0312,-15 c -0.0442,-13.6863 -0.32263,-26.027998 1.09375,-37.593748 0.1659,-1.35478 0.18925,-2.77026 0.28125,-4.15626 4.5736,6.23987 9.05607,12.45438 12.96875,17.62501 6.61785,8.74591 15.03896,25.055668 21.34375,37.937498 l 28.4375,-5.46875 c 1.34268,-17.8381 -1.3652,-31.337778 -1.125,-38.468748 0.2579,-7.66331 -0.72333,-13.66375 -1.125,-17.68751 -0.40168,-4.02376 -0.36996,-5.75405 0.34375,-8.125 4.81903,-16.00903 2.04915,-30.02772 2.8125,-38.84375 l 1.28125,-14.9375 -29.875,-2.59375 z"
       id="path3608-3-7"
       inkscape:connector-curvature="0" />
    <path
       style="font-size:medium;font-style:normal;font-variant:normal;font-weight:normal;font-stretch:normal;text-indent:0;text-align:start;text-decoration:none;line-height:normal;letter-spacing:normal;word-spacing:normal;text-transform:none;direction:ltr;block-progression:tb;writing-mode:lr-tb;text-anchor:start;baseline-shift:baseline;color:#000000;fill:#2c5aa0;fill-opacity:1;stroke:#000000;stroke-width:4;stroke-linejoin:round;stroke-miterlimit:4;stroke-opacity:1;stroke-dasharray:none;marker:none;visibility:visible;display:inline;overflow:visible;enable-background:accumulate;font-family:Sans;-inkscape-font-specification:Sans"
       d="m 604.82791,-197.80312 -1.28125,14.96875 c -1.24803,14.41371 0.33828,26.12409 -1.65625,32.75 -1.4894,4.94787 -1.74907,9.45391 -1.6875,13.59375 -5.74454,-7.74353 -11.93073,-16.12073 -16.59375,-22.59375 -1.65906,-2.30303 -5.34709,-9.07365 -8.84375,-16.0625 -3.49666,-6.98885 -7.01706,-14.33361 -10.40625,-20.21875 l -28,7.125 c -0.23164,10.00226 1.19098,21.73645 2.28125,33.3125 1.09027,11.57605 1.71567,23.10886 1.09375,28.1875 -1.77004,14.45366 -1.38656,28.085138 -1.34375,41.343758 l 0.0625,15 30,-0.0937 -0.0625,-15 c -0.0442,-13.6863 -0.29138,-26.027998 1.125,-37.593748 0.16466,-1.34464 0.18943,-2.7496 0.28125,-4.12501 4.56674,6.23029 9.06239,12.43149 12.96875,17.59376 6.61785,8.74591 15.00771,25.055668 21.3125,37.937498 l 28.4375,-5.46875 c 1.34268,-17.8381 -1.3652,-31.337778 -1.125,-38.468748 0.2579,-7.66331 -0.69207,-13.66375 -1.09375,-17.68751 -0.40168,-4.02376 -0.4012,-5.75405 0.3125,-8.125 4.81903,-16.00903 2.04915,-30.02772 2.8125,-38.84375 l 1.3125,-14.9375 -29.90625,-2.59375 z"
       id="path3608-2-6-0"
       inkscape:connector-curvature="0" />
    <path
       style="fill:#e3dbdb;fill-opacity:1;stroke:#000000;stroke-width:4;stroke-linecap:butt;stroke-linejoin:miter;stroke-miterlimit:4;stroke-opacity:1;stroke-dasharray:none"
       d="m 11.857846,-168.13928 c 13.861499,-2.67433 26.997751,-8.25842 40.418082,-12.55734 10.17107,-3.95101 21.107637,-6.53115 30.554725,-11.9327 5.839521,-2.76369 15.214522,6.91895 8.605872,11.20151 -6.31596,2.01334 -12.60232,4.07207 -18.776812,6.57046 -12.774398,5.04935 -26.262362,7.63748 -39.491539,11.11996 -7.008144,1.70692 -13.54296,5.38923 -20.714158,6.21049 -4.573464,-1.11334 -1.150964,-7.80909 -0.59617,-10.61238 z"
       id="path4358-8-7-7-5-8-7-0"
       inkscape:connector-curvature="0" />
    <flowRoot
       transform="matrix(2.0524512,0,0,2.0524512,-138.43569,-82.869882)"
       xml:space="preserve"
       id="flowRoot2985"
       style="font-size:28px;font-style:normal;font-variant:normal;font-weight:normal;font-stretch:normal;text-align:start;line-height:125%;letter-spacing:0px;word-spacing:0px;writing-mode:lr-tb;text-anchor:start;fill:#000000;fill-opacity:1;stroke:none;font-family:Ubuntu;-inkscape-font-specification:Ubuntu"><flowRegion
         id="flowRegion2987"><rect
           id="rect2989"
           width="628.57141"
           height="534.28571"
           x="65.714287"
           y="349.50504" /></flowRegion><flowPara
         id="flowPara2991"
         style="font-size:144px;font-style:normal;font-variant:normal;font-weight:500;font-stretch:normal;font-family:bandana;-inkscape-font-specification:bandana Medium">Bandana</flowPara></flowRoot>    <g
       id="g5443-7-5-7"
       transform="matrix(8.4227095,0,0,8.4227095,-282.68742,-5787.3033)"
       style="stroke:#000000;stroke-width:3.20561934;stroke-linecap:square;stroke-linejoin:bevel;stroke-miterlimit:4;stroke-opacity:1;stroke-dasharray:none">
      <path
         sodipodi:nodetypes="cscssccc"
         inkscape:connector-curvature="0"
         id="path5331-2-7-7"
         d="m 43.198142,768.56138 c 1.74659,-1.25309 0.885621,-4.35284 -0.507709,-5.48359 -1.312509,-1.06516 -6.422695,-1.15337 -8.228856,-1.34227 0.554316,-0.2162 7.437464,0.27724 8.180299,-1.99297 0.70141,-2.14361 -1.239078,-4.7756 -3.461003,-4.7375 -2.410244,0.0413 -3.416002,0.15405 -5.430798,0.21003 -0.318851,4.37548 0.533421,7.01416 0.116989,14.65204 3.003397,-0.009 7.149434,0.17778 9.331078,-1.30574 z"
         style="fill:none;stroke:#000000;stroke-width:3.20561934;stroke-linecap:square;stroke-linejoin:bevel;stroke-miterlimit:4;stroke-opacity:1;stroke-dasharray:none" />
    </g>
    <g
       id="g4501-4-2-2"
       transform="matrix(6.9737805,0,0,6.9737805,2.9466886,-5381.0453)"
       style="stroke:#000000;stroke-width:3.87164474;stroke-linecap:square;stroke-linejoin:bevel;stroke-miterlimit:4;stroke-opacity:1;stroke-dasharray:none">
      <path
         inkscape:connector-curvature="0"
         id="path4335-3-9-3"
         d="m 16.865176,871.38484 c 0.07844,-3.95446 -0.799508,-8.8727 2.10482,-12.43999 1.407719,-1.73925 4.298688,-3.10525 6.067662,-1.0422 1.593169,1.69322 3.080669,3.64968 3.35417,6.04661 0.454202,2.87316 0.496802,5.04918 0.626293,7.86098"
         style="fill:none;stroke:#000000;stroke-width:3.87164474;stroke-linecap:square;stroke-linejoin:bevel;stroke-miterlimit:4;stroke-opacity:1;stroke-dasharray:none"
         sodipodi:nodetypes="ccccc" />
      <path
         inkscape:connector-curvature="0"
         id="path4343-2-5-0"
         d="m 17.350862,866.15341 c 3.012907,-0.52112 6.095089,-0.63343 9.13933,-0.35432 0.665328,0.0305 1.332401,0.04 1.997602,8.1e-4"
         style="fill:none;stroke:#000000;stroke-width:3.87164474;stroke-linecap:square;stroke-linejoin:bevel;stroke-miterlimit:4;stroke-opacity:1;stroke-dasharray:none" />
    </g>
    <g
       id="g4501-4-8-7"
       transform="matrix(6.9737805,0,0,6.9737805,321.51953,-5381.0453)"
       style="stroke:#000000;stroke-width:3.87164474;stroke-linecap:square;stroke-linejoin:bevel;stroke-miterlimit:4;stroke-opacity:1;stroke-dasharray:none">
      <path
         inkscape:connector-curvature="0"
         id="path4335-3-8-5"
         d="m 16.865176,871.38484 c 0.07844,-3.95446 -0.799508,-8.8727 2.10482,-12.43999 1.407719,-1.73925 4.298688,-3.10525 6.067662,-1.0422 1.593169,1.69322 3.080669,3.64968 3.35417,6.04661 0.454202,2.87316 0.496802,5.04918 0.626293,7.86098"
         style="fill:none;stroke:#000000;stroke-width:3.87164474;stroke-linecap:square;stroke-linejoin:bevel;stroke-miterlimit:4;stroke-opacity:1;stroke-dasharray:none"
         sodipodi:nodetypes="ccccc" />
      <path
         inkscape:connector-curvature="0"
         id="path4343-2-6-4"
         d="m 17.350862,866.15341 c 3.012907,-0.52112 6.095089,-0.63343 9.13933,-0.35432 0.665328,0.0305 1.332401,0.04 1.997602,8.1e-4"
         style="fill:none;stroke:#000000;stroke-width:3.87164474;stroke-linecap:square;stroke-linejoin:bevel;stroke-miterlimit:4;stroke-opacity:1;stroke-dasharray:none" />
    </g>
    <g
       id="g4501-4-6-7"
       transform="matrix(6.9737805,0,0,6.9737805,539.01334,-5381.0453)"
       style="stroke:#000000;stroke-width:3.87164474;stroke-linecap:square;stroke-linejoin:bevel;stroke-miterlimit:4;stroke-opacity:1;stroke-dasharray:none">
      <path
         inkscape:connector-curvature="0"
         id="path4335-3-4-5"
         d="m 16.865176,871.38484 c 0.07844,-3.95446 -0.799508,-8.8727 2.10482,-12.43999 1.407719,-1.73925 4.298688,-3.10525 6.067662,-1.0422 1.593169,1.69322 3.080669,3.64968 3.35417,6.04661 0.454202,2.87316 0.496802,5.04918 0.626293,7.86098"
         style="fill:none;stroke:#000000;stroke-width:3.87164474;stroke-linecap:square;stroke-linejoin:bevel;stroke-miterlimit:4;stroke-opacity:1;stroke-dasharray:none"
         sodipodi:nodetypes="ccccc" />
      <path
         inkscape:connector-curvature="0"
         id="path4343-2-4-2"
         d="m 17.350862,866.15341 c 3.012907,-0.52112 6.095089,-0.63343 9.13933,-0.35432 0.665328,0.0305 1.332401,0.04 1.997602,8.1e-4"
         style="fill:none;stroke:#000000;stroke-width:3.87164474;stroke-linecap:square;stroke-linejoin:bevel;stroke-miterlimit:4;stroke-opacity:1;stroke-dasharray:none" />
    </g>
    <g
       id="g5622-1-4-4"
       transform="matrix(6.5201488,0,0,6.5201488,-116.43635,-4327.5371)"
       style="stroke:#000000;stroke-width:4.14100981;stroke-linecap:square;stroke-linejoin:bevel;stroke-miterlimit:4;stroke-opacity:1;stroke-dasharray:none">
      <path
         sodipodi:nodetypes="ccsssccc"
         inkscape:connector-curvature="0"
         id="path5346-4-2-1"
         d="m 69.671423,770.88807 c 2.702918,-0.0666 4.163197,0.14739 7.202973,-1.19897 1.044449,-0.46267 1.727803,-1.35439 2.382938,-2.23883 1.093471,-1.4762 1.223501,-3.33785 1.154741,-5.16736 -0.06604,-1.75728 -0.697019,-3.31375 -1.612443,-4.6796 -0.781705,-1.16634 -1.982467,-2.05657 -3.247857,-2.62722 -2.236162,-0.82881 -4.641484,-0.4518 -5.905822,-0.45158 -0.09168,5.22477 0.431571,11.55171 0.02547,16.36356 z"
         style="fill:none;stroke:#000000;stroke-width:4.14100981;stroke-linecap:square;stroke-linejoin:bevel;stroke-miterlimit:4;stroke-opacity:1;stroke-dasharray:none" />
    </g>
    <path
       style="fill:none;stroke:#000000;stroke-width:27;stroke-linecap:square;stroke-linejoin:bevel;stroke-miterlimit:4;stroke-opacity:1;stroke-dasharray:none"
       d="m 554.90996,698.76781 c -0.0483,-14.89537 -0.41302,-29.25825 1.34846,-43.64202 2.15498,-17.59792 -2.04415,-46.21779 -1.63213,-64.0098 7.5388,8.26969 19.68831,27.86439 26.23026,36.94563 7.2323,10.03962 14.26242,27.49244 19.73197,38.97618 8.99729,18.89049 12.48649,25.43843 23.85869,38.21991 1.29467,-17.20021 -0.25691,-29.1722 0.12124,-40.39785 0.45469,-13.51123 -2.05535,-18.28389 -0.17564,-32.76198 1.68244,-12.95867 -0.0501,-21.79363 1.0618,-34.63522"
       id="path5405-0-4-2"
       inkscape:connector-curvature="0"
       sodipodi:nodetypes="cscsscssc" />
    <path
       style="fill:none;stroke:#000000;stroke-width:27;stroke-linecap:square;stroke-linejoin:bevel;stroke-miterlimit:4;stroke-opacity:1;stroke-dasharray:none"
       d="m 236.33715,698.76781 c -0.0483,-14.89537 -0.41302,-29.25825 1.34846,-43.64202 2.15498,-17.59792 -2.04415,-46.21779 -1.63213,-64.0098 7.5388,8.26969 19.68831,27.86439 26.23026,36.94563 7.2323,10.03962 14.26242,27.49244 19.73197,38.97618 8.99729,18.89049 12.48649,25.43843 23.85869,38.21991 1.29467,-17.20021 -0.25691,-29.1722 0.12124,-40.39785 0.45469,-13.51123 -2.05535,-18.28389 -0.17564,-32.76198 1.68244,-12.95867 -0.0501,-21.79363 1.0618,-34.63522"
       id="path5405-0-4-2-3"
       inkscape:connector-curvature="0"
       sodipodi:nodetypes="cscsscssc" />
    <path
       sodipodi:nodetypes="ssssssssss"
       inkscape:connector-curvature="0"
       id="path3141-9-5-8-7-3-0-2-4-3"
       d="m 1.6719677,75.355986 c -5.582558,-0.59659 -6.447183,2.96229 -8.136882,5.64816 -4.2994697,6.83419 1.847874,11.71421 2.21365,17.932117 0.155014,2.634667 -4.078634,7.778437 -0.161908,8.500047 2.734078,0.50371 3.789802,-2.3307 4.011063,-5.07024 0.246854,-3.056517 1.871722,-4.113857 0.804048,-7.219134 -0.976796,-2.84093 -0.822773,-6.98426 2.3815054,-8.06602 3.857548,-1.30231 3.951944,-4.82389 2.333705,-8.10488 -1.373386,-2.78454 -0.306078,-6.72468 -4.0950394,-6.2379 -0.651695,0.0836 1.3006834,2.6874 0.649875,2.61785 z"
       style="fill:#e3dbdb;fill-opacity:1;stroke:#000000;stroke-width:4;stroke-linecap:butt;stroke-linejoin:miter;stroke-miterlimit:4;stroke-opacity:1;stroke-dasharray:none" />
    <path
       sodipodi:nodetypes="ccccccccsc"
       inkscape:connector-curvature="0"
       id="path3141-9-4-5-3-8-8-5-5"
       d="m 0.4523357,74.262196 c -5.333341,-1.75399 -6.59477,1.92654 -9.135909,3.82695 -5.2639367,6.1223 -0.409897,11.88072 -1.5748877,17.99948 -0.169808,2.633747 -5.606485,6.745424 -1.931109,8.279354 2.5735697,1.05149 6.7836547,0.43661 6.4426307,-2.29055 1.881349,-2.421507 1.226787,-5.464764 0.829622,-8.724374 -0.362232,-2.98225 0.713759,-6.64135 4.011365,-7.39195 4.0701184,-0.10408 5.3620964,-4.0557 3.9727044,-7.43996 -0.251856,-3.09458 1.103153,-6.64063 -2.7040244,-6.95479 -0.654818,-0.054 0.713608,2.89334 0.08961,2.69584 z"
       style="fill:#e3dbdb;fill-opacity:1;stroke:#000000;stroke-width:4;stroke-linecap:butt;stroke-linejoin:miter;stroke-miterlimit:4;stroke-opacity:1;stroke-dasharray:none" />
    <path
       style="font-size:medium;font-style:normal;font-variant:normal;font-weight:normal;font-stretch:normal;text-indent:0;text-align:start;text-decoration:none;line-height:normal;letter-spacing:normal;word-spacing:normal;text-transform:none;direction:ltr;block-progression:tb;writing-mode:lr-tb;text-anchor:start;baseline-shift:baseline;color:#000000;fill:#2c5aa0;fill-opacity:1;stroke:#000000;stroke-width:4;stroke-miterlimit:4;stroke-opacity:1;stroke-dasharray:none;marker:none;visibility:visible;display:inline;overflow:visible;enable-background:accumulate;font-family:Sans;-inkscape-font-specification:Sans"
       d="m 60.651633,47.083158 c -20.657291,0.35397 -29.283343,1.32026 -45.875,1.78125 l -13.0937501,12.5 c -2.840921,38.984972 4.412522,60.493172 0.96875,123.656252 l 13.5312501,14.25 c 12.349909,-0.037 27.759839,0.3565 42.96875,-0.90625 15.20891,-1.26275 30.49367,-3.80569 43.187497,-12.4375 l 0.25,-0.1875 c 12.49313,-8.9632 15.19972,-24.36653 13.25,-36.59375 -1.94972,-12.22722 -7.3769,-23.35436 -16.874997,-31.0625 -1.12245,-0.91092 -2.24545,-1.61205 -3.375,-2.3125 3.12549,-2.84057 5.750917,-6.41685 7.281247,-11.09375 4.60606,-14.076772 0.52962,-28.374542 -7.281247,-39.031252 -7.81087,-10.65671 -20.18468,-18.81547 -34.9375,-18.5625 z m 307.218747,19.46875 c -7.75622,-0.0761 -13.84351,0.71826 -16.625,0.71875 l -13.5,13.25 c -0.61693,35.158352 2.70146,76.394992 0.21875,105.812502 l 13.78125,14.625 c 16.79184,-0.41375 30.32593,0.67253 52.09375,-8.96875 10.68925,-4.73513 16.54539,-13.01905 20.90625,-18.90625 10.05617,-13.57597 10.67273,-29.33953 10.1875,-42.25 -0.54054,-14.38354 -5.76909,-27.03756 -12.78125,-37.500002 -6.8877,-10.27675 -16.71433,-17.36946 -26.84375,-21.9375 l -0.875,-0.34375 c -9.39457,-3.482 -18.80628,-4.42391 -26.5625,-4.5 z m -193.3125,3.375 c -3.15128,0.0178 -6.19685,0.42557 -9.03125,1.1875 -11.32201,3.04351 -20.52527,9.87495 -27.1875,18.09375 -0.009,0.0113 -0.0222,0.02 -0.0312,0.0312 -24.8969,30.616582 -17.15343,69.650872 -17.65625,95.000002 l -0.28125,13.46875 27,0.5625 0.25,-13.5 c 0.16505,-8.32104 -0.074,-16.59285 -0.15625,-24.65625 17.36657,-2.38213 35.06852,-2.72893 52.5625,-1.125 l 0.625,0.0312 c 1.08602,0.0498 2.17605,0.0916 3.28125,0.125 0.6559,9.13998 0.9767,18.25294 1.46875,28.9375 l 0.625,13.46875 26.96875,-1.21875 -0.625,-13.5 c -0.88564,-19.23101 -1.21819,-35.07967 -4.4375,-55.71875 -0.0232,-0.20319 -0.0688,-0.39154 -0.0937,-0.59375 -2.578,-20.8212 -14.9041,-36.495762 -26.46875,-48.843752 -0.13651,-0.14575 -0.26998,-0.32392 -0.40625,-0.46875 l -0.0312,0.0312 c -7.098,-7.95996 -17.10421,-11.36481 -26.375,-11.3125 z m 318.59375,0 c -3.15128,0.0178 -6.2281,0.42557 -9.0625,1.1875 -11.32201,3.04351 -20.49403,9.87495 -27.15625,18.09375 -0.009,0.0113 -0.0222,0.02 -0.0312,0.0312 -24.89698,30.616592 -17.18468,69.650852 -17.6875,95.000002 l -0.28125,13.46875 27,0.5625 0.28125,-13.5 c 0.16505,-8.32104 -0.074,-16.59285 -0.15625,-24.65625 17.36047,-2.38213 35.03728,-2.72893 52.53125,-1.125 l 0.625,0.0312 c 1.08602,0.0498 2.17605,0.0916 3.28125,0.125 0.6559,9.13998 0.97669,18.25294 1.46875,28.9375 l 0.625,13.46875 26.96875,-1.21875 -0.625,-13.5 c -0.88571,-19.23228 -1.2176,-35.07766 -4.4375,-55.71875 -0.0323,-0.20688 -0.0296,-0.38589 -0.0625,-0.59375 l -0.0312,0 c -2.57699,-20.81305 -14.87677,-36.497992 -26.4375,-48.843752 -0.0588,-0.0686 -0.12825,-0.11954 -0.1875,-0.1875 -0.0828,-0.0882 -0.16733,-0.19339 -0.25,-0.28125 l -0.0312,0.0312 c -7.09721,-7.94924 -17.07876,-11.36478 -26.34375,-11.3125 z m 217.5,0 c -3.15128,0.0178 -6.2281,0.42557 -9.0625,1.1875 -11.32197,3.0435 -20.49403,9.87498 -27.15625,18.09375 -0.009,0.0113 -0.0222,0.02 -0.0312,0.0312 -24.91128,30.618782 -17.1846,69.646832 -17.6875,95.000002 l -0.28125,13.46875 27,0.5625 0.28125,-13.5 c 0.16505,-8.32104 -0.0705,-16.59285 -0.15625,-24.65625 17.36047,-2.38213 35.03728,-2.72893 52.53125,-1.125 l 0.625,0.0312 c 1.08602,0.0498 2.17605,0.0916 3.28125,0.125 0.6559,9.13998 0.97669,18.25294 1.46875,28.9375 l 0.625,13.46875 26.96875,-1.21875 -0.625,-13.5 c -0.88571,-19.23228 -1.2176,-35.07766 -4.4375,-55.71875 -0.0323,-0.20688 -0.0296,-0.38589 -0.0625,-0.59375 l -0.0312,0 c -2.578,-20.82121 -14.9041,-36.495762 -26.46875,-48.843752 -0.13651,-0.14575 -0.26998,-0.32392 -0.40625,-0.46875 l -0.0312,0.0312 c -7.098,-7.95996 -17.07296,-11.36481 -26.34375,-11.3125 z m -451.0625,0.78125 -23.46875,8.78125 c -0.46893,20.2494 3.43316,48.942512 1.75,62.687502 -1.92061,15.6832 -1.51643,30.60936 -1.46875,45.3125 l 0.0625,13.5 27,-0.0625 -0.0625,-13.5 c -0.0489,-15.0876 -0.35235,-28.88441 1.25,-41.96875 0.76692,-6.2628 0.83949,-13.12592 0.6875,-20.09375 5.28409,7.67609 12.38726,24.24064 18.0625,36.15625 9.05916,19.02039 13.98608,27.93864 25.96875,41.40625 l 23.53125,-7.96875 c 1.39046,-18.47277 -0.16919,-31.27648 0.15625,-40.9375 0.25723,-7.64358 -0.34598,-13.10121 -0.65625,-17.4375 -0.31027,-4.33629 -0.44169,-7.77212 0.375,-14.0625 1.93566,-14.90907 0.16297,-24.076792 1.125,-35.187502 l 1.15625,-13.46875 -26.875,-2.3125 -1.1875,13.4375 c -1.26177,14.57247 0.42922,23.054232 -1,34.062502 -1.06302,8.18771 -0.86115,14.39013 -0.5,19.4375 0.19321,2.70021 0.37354,5.06785 0.5,7.53125 -4.90213,-10.80404 -10.94582,-25.71544 -19.1875,-37.15625 -5.79213,-8.04037 -17.39219,-27.377012 -27.21875,-38.156252 z m 318.59375,0 -23.46875,8.78125 c -0.46893,20.2494 3.40191,48.942512 1.71875,62.687502 -1.92061,15.6832 -1.48518,30.60936 -1.4375,45.3125 l 0.0312,13.5 27,-0.0625 -0.0312,-13.5 c -0.0489,-15.0876 -0.35235,-28.88441 1.25,-41.96875 0.76462,-6.24402 0.83718,-13.08491 0.6875,-20.03125 5.28075,7.69766 12.36783,24.20297 18.03125,36.09375 9.05916,19.02039 13.98608,27.93864 25.96875,41.40625 l 23.5625,-7.96875 c 1.39046,-18.47277 -0.20044,-31.27648 0.125,-40.9375 0.25723,-7.64358 -0.31473,-13.10121 -0.625,-17.4375 -0.31027,-4.33629 -0.44169,-7.77212 0.375,-14.0625 1.93566,-14.90907 0.13172,-24.076792 1.09375,-35.187502 l 1.1875,-13.46875 -26.90625,-2.3125 -1.15625,13.4375 c -1.26177,14.57247 0.42922,23.054232 -1,34.062502 -1.06302,8.18771 -0.8924,14.39013 -0.53125,19.4375 0.19321,2.70021 0.37354,5.06785 0.5,7.53125 -4.90213,-10.80404 -10.94582,-25.71544 -19.1875,-37.15625 -5.79213,-8.04037 -17.36094,-27.377012 -27.1875,-38.156252 z m -517.062497,3.375 c 3.96181,-0.0679 9.12457,2.67019 12.6875,7.53125 3.45279,4.71079 4.58402,10.28676 3.46875,14.25 -0.1958,0.0431 -1.26687,1.16269 -4.59375,2.375 -4.54433,1.65595 -11.700634,2.957752 -19.03125,3.687502 -7.330616,0.72975 -14.866337,0.99253 -21,1.15625 -1.385544,0.037 -2.421381,0.0903 -3.65625,0.125 -0.540796,-9.541622 -1.022084,-18.730042 -0.875,-27.906252 9.860159,-0.46912 18.804856,-0.97551 33,-1.21875 z m 307.249997,19.78125 c 5.64672,0.0443 11.19929,0.59962 16.28125,2.40625 6.18293,2.88178 11.84006,7.285722 15.0625,12.093752 4.92524,7.34866 7.89811,14.96808 8.21875,23.5 0.41143,10.94689 -0.67199,19.48212 -4.875,25.15625 -4.1823,5.64616 -7.22558,8.98302 -10.15625,10.28125 -12.0589,5.34106 -18.64383,6.2066 -27.21875,6.40625 0.88142,-25.80795 -0.67173,-54.30515 -0.875,-79.750002 1.2066,-0.0239 2.35768,-0.10326 3.5625,-0.0937 z m -192.0625,2.625 c 1.6521,-0.0198 2.78479,0.70801 4.5625,2.78125 l 0.4375,0.4375 c 9.78485,10.399352 17.42513,21.016792 19.46875,32.250002 -5.02984,-0.43101 -10.07772,-0.73895 -15.125,-0.875 -12.31213,-0.33185 -24.656,0.24497 -36.90625,1.6875 1.46173,-10.00677 4.46846,-19.05328 10.53125,-26.5 l 0.0312,-0.0312 c 3.1527,-3.89519 8.93748,-7.880392 13.21875,-9.031252 1.60548,-0.43157 2.78999,-0.70685 3.78125,-0.71875 z m 318.5625,0 c 1.66125,-0.0198 2.81604,0.70801 4.59375,2.78125 l 0.40625,0.4375 c 9.78485,10.399352 17.42513,21.016792 19.46875,32.250002 -5.02527,-0.43062 -10.04749,-0.73898 -15.09375,-0.875 -12.31213,-0.33185 -24.656,0.24497 -36.90625,1.6875 1.46173,-10.00677 4.46846,-19.05328 10.53125,-26.5 l 0,-0.0312 c 3.15269,-3.89518 8.93748,-7.880392 13.21875,-9.031252 1.60548,-0.43157 2.7845,-0.70685 3.78125,-0.71875 z m 217.5,0 c 1.6521,-0.0198 2.78479,0.70801 4.5625,2.78125 l 0.4375,0.4375 c 9.78485,10.399352 17.42513,21.016792 19.46875,32.250002 -5.02984,-0.43101 -10.07772,-0.73895 -15.125,-0.875 -12.31213,-0.33185 -24.656,0.24497 -36.90625,1.6875 1.45595,-10.00677 4.46846,-19.05328 10.53125,-26.5 l 0.0312,-0.0312 c 3.15269,-3.89518 8.93748,-7.880392 13.21875,-9.031252 1.60548,-0.43157 2.78999,-0.70685 3.78125,-0.71875 z M 30.151633,131.48941 c 7.835758,0.54443 16.63672,1.11309 25.78125,2.09375 6.71379,0.71999 13.1513,1.66232 18.09375,2.8125 4.94245,1.15018 8.43123,3.05693 7.9375,2.65625 2.23751,1.81584 6.28648,8.49722 7.21875,14.34375 0.90943,5.70326 -0.08112,8.63204 -2.1875,10.25 -5.72101,3.8228 -17.01706,6.72678 -30.09375,7.8125 -8.60774,0.71467 -17.720524,0.78435 -26.71875,0.78125 0.556641,-16.31154 0.366986,-29.12286 -0.03125,-40.75 z"
       id="path5331-2-7-7-2"
       inkscape:connector-curvature="0" />
    <path
       style="fill:#e3dbdb;fill-opacity:1;stroke:#000000;stroke-width:4;stroke-linecap:butt;stroke-linejoin:miter;stroke-miterlimit:4;stroke-opacity:1;stroke-dasharray:none"
       d="M -1.8868351,73.373527 C 13.74024,70.616401 28.54969,64.859432 43.679404,60.427421 55.14599,56.354091 67.475576,53.694072 78.125964,48.125293 84.70928,45.276042 95.278399,55.258449 87.827989,59.673594 80.707548,61.749265 73.620478,63.871732 66.659525,66.44747 52.258018,71.653145 37.052058,74.321401 22.137845,77.911697 14.237056,79.671461 6.8698832,83.467773 -1.2147294,84.314459 -6.3707275,83.16665 -2.5122946,76.263605 -1.8868351,73.373527 z"
       id="path4358-8-7-7-5-8-7-0-2"
       inkscape:connector-curvature="0" />
  </g>
  <g
     inkscape:label="Layer 1"
     inkscape:groupmode="layer"
     id="layer1"
     transform="translate(41.778851,-616.27289)" />
</svg>
