<?xml version="1.0" encoding="UTF-8" standalone="no"?>
<!-- Created with Inkscape (http://www.inkscape.org/) -->

<svg
   xmlns:dc="http://purl.org/dc/elements/1.1/"
   xmlns:cc="http://creativecommons.org/ns#"
   xmlns:rdf="http://www.w3.org/1999/02/22-rdf-syntax-ns#"
   xmlns:svg="http://www.w3.org/2000/svg"
   xmlns="http://www.w3.org/2000/svg"
   xmlns:sodipodi="http://sodipodi.sourceforge.net/DTD/sodipodi-0.dtd"
   xmlns:inkscape="http://www.inkscape.org/namespaces/inkscape"
   width="853.62262"
   height="342.65549"
   id="svg2"
   version="1.1"
   inkscape:version="0.48.3.1 r9886"
   sodipodi:docname="logo.svg">
  <defs
     id="defs4" />
  <sodipodi:namedview
     id="base"
     pagecolor="#000000"
     bordercolor="#666666"
     borderopacity="1.0"
     inkscape:pageopacity="0.0"
     inkscape:pageshadow="2"
     inkscape:zoom="0.5"
     inkscape:cx="706.70223"
     inkscape:cy="336.28885"
     inkscape:document-units="px"
     inkscape:current-layer="layer2"
     showgrid="false"
     fit-margin-top="0"
     fit-margin-left="0"
     fit-margin-right="0"
     fit-margin-bottom="0"
     inkscape:window-width="1280"
     inkscape:window-height="750"
     inkscape:window-x="0"
     inkscape:window-y="25"
     inkscape:window-maximized="1" />
  <metadata
     id="metadata7">
    <rdf:RDF>
      <cc:Work
         rdf:about="">
        <dc:format>image/svg+xml</dc:format>
        <dc:type
           rdf:resource="http://purl.org/dc/dcmitype/StillImage" />
        <dc:title />
      </cc:Work>
    </rdf:RDF>
  </metadata>
  <g
     inkscape:groupmode="layer"
     id="layer2"
     inkscape:label="Layer"
     transform="translate(41.778851,46.325574)">
    <g
       style="stroke:#2c5aa0;stroke-width:4.75617265999999983;stroke-linecap:square;stroke-linejoin:bevel;stroke-miterlimit:4;stroke-dasharray:none"
       transform="matrix(6.3075925,0,0,6.3075925,-421.76962,-6069.142)"
       id="g3602">
      <path
         sodipodi:nodetypes="ccccc"
         style="fill:none;stroke:#2c5aa0;stroke-width:4.75617265999999983;stroke-linecap:square;stroke-linejoin:bevel;stroke-miterlimit:4;stroke-opacity:1;stroke-dasharray:none"
         d="m 16.865176,871.38484 c 0.07844,-3.95446 -0.799508,-8.8727 2.10482,-12.43999 1.407719,-1.73925 4.298688,-3.10525 6.067662,-1.0422 1.593169,1.69322 3.080669,3.64968 3.35417,6.04661 0.454202,2.87316 0.496802,5.04918 0.626293,7.86098"
         id="path3604"
         inkscape:connector-curvature="0" />
      <path
         style="fill:none;stroke:#2c5aa0;stroke-width:4.75617265999999983;stroke-linecap:square;stroke-linejoin:bevel;stroke-miterlimit:4;stroke-opacity:1;stroke-dasharray:none"
         d="m 17.350862,866.15341 c 3.012907,-0.52112 6.095089,-0.63343 9.13933,-0.35432 0.665328,0.0305 1.332401,0.04 1.997602,8.1e-4"
         id="path3606"
         inkscape:connector-curvature="0" />
    </g>
    <g
       style="stroke:#2c5aa0;stroke-width:4.75617265999999983;stroke-linecap:square;stroke-linejoin:bevel;stroke-miterlimit:4;stroke-dasharray:none"
       transform="matrix(6.3075925,0,0,6.3075925,-111.37856,-6069.142)"
       id="g3610">
      <path
         sodipodi:nodetypes="ccccc"
         style="fill:none;stroke:#2c5aa0;stroke-width:4.75617265999999983;stroke-linecap:square;stroke-linejoin:bevel;stroke-miterlimit:4;stroke-opacity:1;stroke-dasharray:none"
         d="m 16.865176,871.38484 c 0.07844,-3.95446 -0.799508,-8.8727 2.10482,-12.43999 1.407719,-1.73925 4.298688,-3.10525 6.067662,-1.0422 1.593169,1.69322 3.080669,3.64968 3.35417,6.04661 0.454202,2.87316 0.496802,5.04918 0.626293,7.86098"
         id="path3612"
         inkscape:connector-curvature="0" />
      <path
         style="fill:none;stroke:#2c5aa0;stroke-width:4.75617265999999983;stroke-linecap:square;stroke-linejoin:bevel;stroke-miterlimit:4;stroke-opacity:1;stroke-dasharray:none"
         d="m 17.350862,866.15341 c 3.012907,-0.52112 6.095089,-0.63343 9.13933,-0.35432 0.665328,0.0305 1.332401,0.04 1.997602,8.1e-4"
         id="path3614"
         inkscape:connector-curvature="0" />
    </g>
    <g
       id="g4501"
       transform="matrix(6.3075925,0,0,6.3075925,101.19135,-6069.142)"
       style="stroke:#2c5aa0;stroke-width:4.75617265999999983;stroke-linecap:square;stroke-linejoin:bevel;stroke-miterlimit:4;stroke-dasharray:none">
      <path
         inkscape:connector-curvature="0"
         id="path4335"
         d="m 16.865176,871.38484 c 0.07844,-3.95446 -0.799508,-8.8727 2.10482,-12.43999 1.407719,-1.73925 4.298688,-3.10525 6.067662,-1.0422 1.593169,1.69322 3.080669,3.64968 3.35417,6.04661 0.454202,2.87316 0.496802,5.04918 0.626293,7.86098"
         style="fill:none;stroke:#2c5aa0;stroke-width:4.75617265999999983;stroke-linecap:square;stroke-linejoin:bevel;stroke-miterlimit:4;stroke-opacity:1;stroke-dasharray:none"
         sodipodi:nodetypes="ccccc" />
      <path
         inkscape:connector-curvature="0"
         id="path4343"
         d="m 17.350862,866.15341 c 3.012907,-0.52112 6.095089,-0.63343 9.13933,-0.35432 0.665328,0.0305 1.332401,0.04 1.997602,8.1e-4"
         style="fill:none;stroke:#2c5aa0;stroke-width:4.75617265999999983;stroke-linecap:square;stroke-linejoin:bevel;stroke-miterlimit:4;stroke-opacity:1;stroke-dasharray:none" />
    </g>
    <g
       id="g5443"
       transform="matrix(6.3010233,0,0,6.3010233,-628.33315,-5421.3886)"
       style="stroke:#2c5aa0;stroke-width:4.76113128999999979;stroke-linecap:square;stroke-linejoin:bevel;stroke-miterlimit:4;stroke-dasharray:none">
      <path
         sodipodi:nodetypes="cscssccc"
         inkscape:connector-curvature="0"
         id="path5331"
         d="m 43.198142,768.56138 c 1.74659,-1.25309 0.885621,-4.35284 -0.507709,-5.48359 -1.312509,-1.06516 -6.422695,-1.15337 -8.228856,-1.34227 0.554316,-0.2162 7.437464,0.27724 8.180299,-1.99297 0.70141,-2.14361 -1.239078,-4.7756 -3.461003,-4.7375 -2.410244,0.0413 -3.416002,0.15405 -5.430798,0.21003 -0.318851,4.37548 0.533421,7.01416 0.116989,14.65204 3.003397,-0.009 7.149434,0.17778 9.331078,-1.30574 z"
         style="fill:none;stroke:#2c5aa0;stroke-width:4.76113128999999979;stroke-linecap:square;stroke-linejoin:bevel;stroke-miterlimit:4;stroke-opacity:1;stroke-dasharray:none" />
    </g>
    <g
       id="g5622"
       transform="matrix(5.8972952,0,0,5.8972952,-513.89557,-5114.9033)"
       style="stroke:#2c5aa0;stroke-width:5.08707809000000033;stroke-linecap:square;stroke-linejoin:bevel;stroke-miterlimit:4;stroke-dasharray:none">
      <path
         sodipodi:nodetypes="ccsssccc"
         inkscape:connector-curvature="0"
         id="path5346"
         d="m 69.671423,770.88807 c 2.702918,-0.0666 4.163197,0.14739 7.202973,-1.19897 1.044449,-0.46267 1.727803,-1.35439 2.382938,-2.23883 1.093471,-1.4762 1.223501,-3.33785 1.154741,-5.16736 -0.06604,-1.75728 -0.697019,-3.31375 -1.612443,-4.6796 -0.781705,-1.16634 -1.982467,-2.05657 -3.247857,-2.62722 -2.236162,-0.82881 -4.641484,-0.4518 -5.905822,-0.45158 -0.09168,5.22477 0.431571,11.55171 0.02547,16.36356 z"
         style="fill:none;stroke:#2c5aa0;stroke-width:5.08707809000000033;stroke-linecap:square;stroke-linejoin:bevel;stroke-miterlimit:4;stroke-opacity:1;stroke-dasharray:none" />
    </g>
    <path
       sodipodi:nodetypes="cscsscssc"
       inkscape:connector-curvature="0"
       id="path3608"
       d="m -202.49875,-569.6245 c -0.0435,-13.47246 -0.37355,-26.4633 1.21966,-39.473 1.94913,-15.91686 -3.6346,-46.87204 -3.26192,-62.96443 5.7472,9.97971 14.16639,29.36741 20.08342,37.58116 6.54141,9.08053 16.33169,22.46088 23.27384,31.63497 8.1378,10.75462 16.4839,27.41459 22.84116,40.40362 1.17099,-15.55708 -1.49397,-27.69784 -1.15197,-37.85115 0.41127,-12.22052 -3.13811,-19.73504 -0.15885,-29.63231 3.40678,-11.31747 1.2338,-24.18863 2.23949,-35.8035"
       style="fill:none;stroke:#2c5aa0;stroke-width:30;stroke-linecap:square;stroke-linejoin:bevel;stroke-miterlimit:4;stroke-opacity:1;stroke-dasharray:none" />
    <path
       sodipodi:nodetypes="cscsscssc"
       inkscape:connector-curvature="0"
       id="path3608-2"
       d="m 107.89231,-569.6245 c -0.0435,-13.47246 -0.37355,-26.4633 1.21966,-39.473 1.94912,-15.91686 -3.6346,-46.87204 -3.26192,-62.96443 5.74719,9.97971 14.16638,29.36741 20.08341,37.58116 6.54141,9.08053 16.33169,22.46088 23.27384,31.63497 8.1378,10.75462 16.4839,27.41459 22.84116,40.40362 1.17099,-15.55708 -1.49397,-27.69784 -1.15197,-37.85115 0.41127,-12.22052 -3.13811,-19.73504 -0.15885,-29.63231 3.40678,-11.31747 1.2338,-24.18863 2.23949,-35.8035"
       style="fill:none;stroke:#2c5aa0;stroke-width:30;stroke-linecap:square;stroke-linejoin:bevel;stroke-miterlimit:4;stroke-opacity:1;stroke-dasharray:none" />
    <g
       id="g5325"
       transform="translate(576,-562)">
      <path
         sodipodi:nodetypes="ccccccsssc"
         inkscape:connector-curvature="0"
         id="path5318"
         d="m -29.009299,67.75127 c 17.755373,77.11159 24.839098,104.82497 65.721337,175.16947 71.624332,-27.36745 142.807422,-40.35108 230.623472,-54.3457 150.37918,-1.54229 183.45988,-29.02867 330.86343,6.56371 66.61207,28.58845 118.19001,31.35399 179.13435,43.70883 6.58057,-33.42096 20.48096,-100.63331 29.31734,-157.9375 C 775.08253,65.72622 729.95801,35.36859 662.2074,16.2411 571.10527,-9.4790198 486.08152,-11.98824 390.5591,-17.88348 262.80112,-25.76818 226.07594,0.59793001 101.15809,23.03967 34.858032,34.95061 -8.107994,55.06282 -29.009299,67.75127 z"
         style="fill:#217844;fill-opacity:1;stroke:#000000;stroke-width:2.5;stroke-miterlimit:4;stroke-opacity:1;stroke-dasharray:none" />
      <g
         style="stroke-width:2.5;stroke-miterlimit:4;stroke-dasharray:none"
         transform="matrix(0.99964548,0.02662547,-0.02662547,0.99964548,3.295078,-10.206558)"
         id="g5307">
        <path
           style="font-size:medium;font-style:normal;font-variant:normal;font-weight:normal;font-stretch:normal;text-indent:0;text-align:start;text-decoration:none;line-height:normal;letter-spacing:normal;word-spacing:normal;text-transform:none;direction:ltr;block-progression:tb;writing-mode:lr-tb;text-anchor:start;baseline-shift:baseline;color:#000000;fill:#2c5aa0;fill-opacity:1;stroke:#000000;stroke-width:2.5;stroke-linejoin:round;stroke-miterlimit:4;stroke-opacity:1;stroke-dasharray:none;marker:none;visibility:visible;display:inline;overflow:visible;enable-background:accumulate;font-family:Sans;-inkscape-font-specification:Sans"
           d="m 181.128,45.725813 c -2.86765,0.483553 -5.5591,1.294577 -7.98842,2.402014 -9.70324,4.423357 -16.73766,11.767637 -21.43797,20.052099 -0.006,0.01195 -0.0176,0.02186 -0.0241,0.03371 -17.29171,30.370399 -4.93424,62.815054 -1.87939,83.694144 l 2.05449,13.93624 27.8773,-4.08003 -2.05448,-13.93626 c -0.92133,-6.29703 -2.06302,-12.43212 -3.12523,-18.39835 13.32308,-3.96774 27.11673,-6.49286 41.01765,-7.51899 l 0.64641,-0.0483 c 0.15471,-0.0182 0.31279,-0.0293 0.4679,-0.0483 1.57988,6.76451 2.998,13.67591 4.71217,21.67382 l 2.94692,13.7578 27.54452,-5.89865 -2.94691,-13.7578 c -3.41179,-15.91856 -5.93351,-29.28042 -11.54194,-46.237229 -0.0139,-0.04899 -0.0389,-0.09097 -0.053,-0.1399 -0.0522,-0.157488 -0.0823,-0.295318 -0.13506,-0.453449 l -0.0289,0.0048 -0.37133,-1.6932 -0.14472,0.02411 c -5.61078,-16.897906 -18.10068,-28.191793 -29.26516,-36.739626 -0.006,-0.0048 -0.0234,0.0096 -0.0289,0.0048 -0.0706,-0.05897 -0.13644,-0.115472 -0.20743,-0.173666 -0.0897,-0.06852 -0.18538,-0.153721 -0.27494,-0.221908 l -0.0241,0.03371 C 199.24347,45.904714 189.543,44.307975 181.12819,45.725565 z m 6.19775,27.01873 c 0.51441,-0.01632 0.9444,0.342739 1.98739,1.215686 l 0.51614,0.419693 c 8.3046,6.322616 15.00677,12.817003 18.58087,19.92806 -3.1127,0.294414 -6.21793,0.615826 -9.31493,1.046457 -9.33129,1.297498 -18.57052,3.200241 -27.66994,5.681561 0.19101,-6.896117 1.51336,-13.258 4.73288,-18.904586 l 0.0241,-0.0337 c 1.83047,-3.231941 5.85901,-7.043558 8.63984,-8.311235 1.39041,-0.633837 1.98923,-1.025549 2.50363,-1.04187 z"
           id="path3604-9"
           inkscape:connector-curvature="0" />
        <path
           style="font-size:medium;font-style:normal;font-variant:normal;font-weight:normal;font-stretch:normal;text-indent:0;text-align:start;text-decoration:none;line-height:normal;letter-spacing:normal;word-spacing:normal;text-transform:none;direction:ltr;block-progression:tb;writing-mode:lr-tb;text-anchor:start;baseline-shift:baseline;color:#000000;fill:#2c5aa0;fill-opacity:1;stroke:#000000;stroke-width:2.5;stroke-linejoin:round;stroke-miterlimit:4;stroke-opacity:1;stroke-dasharray:none;marker:none;visibility:visible;display:inline;overflow:visible;enable-background:accumulate;font-family:Sans;-inkscape-font-specification:Sans"
           d="m 517.98553,22.481486 c -2.88326,-0.379695 -5.72329,-0.398507 -8.37068,-0.05311 -10.5743,1.379565 -19.42589,6.338777 -26.35135,12.878136 -0.0102,0.0095 -0.023,0.01578 -0.0329,0.02515 -25.45993,23.955582 -23.15857,58.59455 -26.36893,79.453888 l -2.15678,13.92135 27.84661,4.28449 2.15679,-13.92136 c 0.96807,-6.29004 1.67795,-12.48994 2.41421,-18.50509 13.90084,0.11874 27.82798,1.7547 41.41754,4.85505 l 0.63206,0.14369 c 0.14375,0.0258 0.28815,0.0616 0.43238,0.0874 -0.4758,6.93023 -1.14937,13.9534 -1.85885,22.10212 l -1.22243,14.01665 28.06244,2.44833 1.22243,-14.01666 c 1.42967,-16.41662 3.00023,-30.02314 2.56532,-48.206723 l -0.0291,-0.0038 0.14232,-1.727587 -0.17451,-0.02333 c -0.40075,-17.799765 -8.99707,-32.259986 -17.15969,-43.708771 -0.004,-0.0062 -0.0253,0.0023 -0.0291,-0.0038 -0.0461,-0.07097 -0.10453,-0.12745 -0.15117,-0.197826 -0.0699,-0.09783 -0.124,-0.224593 -0.1938,-0.321938 l -0.0329,0.02516 C 535.25035,27.969877 526.44686,23.597028 517.98591,22.48148 z m -2.00803,27.647633 c 0.5038,0.136393 0.80214,0.604903 1.54288,1.745601 l 0.37018,0.552737 c 6.0823,8.482177 10.56033,16.655148 11.88209,24.50122 -3.05047,-0.629779 -6.0991,-1.233554 -9.18258,-1.730614 -9.28188,-1.496241 -18.67351,-2.386124 -28.0895,-2.688759 2.20717,-6.533765 5.31144,-12.234561 10.04555,-16.685777 l 0.0329,-0.02515 c 2.69868,-2.552087 7.63968,-5.016841 10.67014,-5.412204 1.51524,-0.197682 2.22447,-0.393406 2.72827,-0.25701 z"
           id="path3612-2"
           inkscape:connector-curvature="0" />
        <path
           style="font-size:medium;font-style:normal;font-variant:normal;font-weight:normal;font-stretch:normal;text-indent:0;text-align:start;text-decoration:none;line-height:normal;letter-spacing:normal;word-spacing:normal;text-transform:none;direction:ltr;block-progression:tb;writing-mode:lr-tb;text-anchor:start;baseline-shift:baseline;color:#000000;fill:#2c5aa0;fill-opacity:1;stroke:#000000;stroke-width:2.5;stroke-linejoin:round;stroke-miterlimit:4;stroke-opacity:1;stroke-dasharray:none;marker:none;visibility:visible;display:inline;overflow:visible;enable-background:accumulate;font-family:Sans;-inkscape-font-specification:Sans"
           d="m 742.5661,70.310282 c -2.79886,-0.789713 -5.60678,-1.216078 -8.27632,-1.254351 -10.66282,-0.152893 -20.13471,3.484105 -27.9273,8.961418 -0.0111,0.008 -0.0251,0.0123 -0.0362,0.02017 -28.62194,20.053614 -31.33218,54.665991 -37.50305,74.844901 l -4.10492,13.47552 26.91476,8.23005 4.13315,-13.46748 c 1.86111,-6.08589 3.45376,-12.11964 5.046,-17.96676 13.73978,2.11326 27.28775,5.73181 40.2914,10.75112 l 0.60489,0.23294 c 0.14762,0.0498 0.29526,0.10735 0.44358,0.15655 -1.46585,6.79012 -3.14074,13.64382 -5.01284,21.60626 l -3.22195,13.69598 27.4202,6.45191 3.22195,-13.69599 c 3.72612,-15.84793 7.16301,-29.00414 9.34782,-46.73024 0.008,-0.0502 0.004,-0.0989 0.0119,-0.14913 0.0202,-0.16469 0.0519,-0.30215 0.0719,-0.46764 l -0.0282,-0.008 0.38871,-1.68929 -0.14111,-0.0401 c 2.1574,-17.67352 -4.30043,-33.22544 -10.73481,-45.72761 -0.003,-0.0067 -0.0253,-0.0013 -0.0282,-0.008 -0.0386,-0.08348 -0.0739,-0.16274 -0.11318,-0.245706 -0.0518,-0.100544 -0.10172,-0.218093 -0.1536,-0.318202 l -0.0362,0.02017 c -4.281,-8.766485 -12.36591,-14.359592 -20.57829,-16.678124 z m -5.95663,27.072906 c 0.47194,0.205309 0.70699,0.713802 1.27628,1.949032 l 0.28698,0.600155 c 4.80148,9.267545 8.08111,18.004845 8.26954,25.961335 -2.93944,-1.0655 -5.88369,-2.10341 -8.8672,-3.03906 -8.9709,-2.81335 -18.13747,-5.04238 -27.41247,-6.69376 3.12238,-6.14918 7.01295,-11.34523 12.33707,-15.07065 l 0.0361,-0.0202 c 3.03713,-2.138193 8.30904,-3.860001 11.36487,-3.816181 1.52792,0.02191 2.23674,-0.07598 2.70868,0.129332 z"
           id="path4335-1"
           inkscape:connector-curvature="0" />
        <path
           style="font-size:medium;font-style:normal;font-variant:normal;font-weight:normal;font-stretch:normal;text-indent:0;text-align:start;text-decoration:none;line-height:normal;letter-spacing:normal;word-spacing:normal;text-transform:none;direction:ltr;block-progression:tb;writing-mode:lr-tb;text-anchor:start;baseline-shift:baseline;color:#000000;fill:#2c5aa0;fill-opacity:1;stroke:#000000;stroke-width:2.5;stroke-linejoin:round;stroke-miterlimit:4;stroke-opacity:1;stroke-dasharray:none;marker:none;visibility:visible;display:inline;overflow:visible;enable-background:accumulate;font-family:Sans;-inkscape-font-specification:Sans"
           d="M 39.158132,69.601465 C 22.924017,77.458809 16.422944,81.367285 3.6988684,87.693808 L -4.7989028,109.36236 C 7.4669789,141.86168 20.88949,155.83035 40.977503,206.24624 l 23.455277,9.34422 c 9.5748,-4.46832 21.964686,-9.8031 33.827023,-16.53953 11.862317,-6.73644 23.706517,-14.5899 31.454547,-27.51598 l 0.22178,-0.38165 c 7.86195,-13.89763 3.63431,-29.46835 -3.10202,-39.49103 -6.29636,-9.36809 -14.67791,-16.38581 -25.66548,-19.79804 0.41434,-2.46988 0.52369,-5.1078 0.18979,-7.9386 C 99.595083,88.975302 89.893079,77.902258 78.559499,71.641927 67.225907,65.381603 52.696139,63.048845 39.158132,69.601465 z M 54.30283,100.84638 c 1.047206,-0.50682 4.226503,-0.63024 7.472535,1.16277 2.19488,1.21239 3.442483,2.75377 4.228095,4.13954 -0.178884,0.20588 -0.04099,0.071 -0.317817,0.34642 -2.383402,2.37237 -7.193104,5.85013 -12.468642,8.96141 -4.578814,2.70039 -9.346279,5.08528 -13.662893,7.24287 -1.97469,-3.75523 -3.989244,-7.69467 -5.757489,-11.40166 5.996172,-3.15528 11.515668,-6.09991 20.506211,-10.45135 z m 2.024117,54.37647 c 5.094789,-1.95283 9.382656,-3.62665 14.839525,-5.47629 5.412844,-1.83472 10.678843,-3.3562 14.606229,-4.17274 2.496943,-0.51909 4.442998,-0.53758 5.065886,-0.59218 1.017437,0.48296 5.223039,3.12794 7.180476,6.04033 2.058497,3.06273 1.57495,3.19458 1.69082,2.96311 -2.3181,3.60632 -9.234184,9.55196 -18.583779,14.86144 -4.647051,2.63901 -9.800743,5.15586 -15.001062,7.62338 -3.547348,-8.18404 -6.674673,-14.8573 -9.798147,-21.24702 z"
           id="path5331-9"
           inkscape:connector-curvature="0" />
        <path
           style="font-size:medium;font-style:normal;font-variant:normal;font-weight:normal;font-stretch:normal;text-indent:0;text-align:start;text-decoration:none;line-height:normal;letter-spacing:normal;word-spacing:normal;text-transform:none;direction:ltr;block-progression:tb;writing-mode:lr-tb;text-anchor:start;baseline-shift:baseline;color:#000000;fill:#2c5aa0;fill-opacity:1;stroke:#000000;stroke-width:2.5;stroke-linejoin:round;stroke-miterlimit:4;stroke-opacity:1;stroke-dasharray:none;marker:none;visibility:visible;display:inline;overflow:visible;enable-background:accumulate;font-family:Sans;-inkscape-font-specification:Sans"
           d="m 387.79163,21.676877 c -6.7777,-0.06761 -11.98224,0.645169 -14.08439,0.645535 l -14.08439,13.820306 c -0.52765,30.070563 2.28185,65.067032 0.2054,89.670612 l 14.37781,15.25809 c 14.09935,-0.3474 26.38152,0.52095 45.2461,-7.83444 9.83067,-4.35479 15.08768,-11.84875 18.80853,-16.87193 9.10817,-12.29614 9.57409,-26.374171 9.15485,-37.529035 -0.48039,-12.783089 -5.16856,-24.057576 -11.3262,-33.24502 -6.19693,-9.246119 -14.91768,-15.498217 -23.88477,-19.542089 l -0.88028,-0.35211 c -8.38678,-3.108471 -16.75496,-3.952332 -23.53266,-4.019919 z m 0.088,28.491544 c 4.75193,0.0154 9.29013,0.418842 13.32148,1.848576 4.80978,2.284798 9.13876,5.745783 11.50225,9.272222 3.98036,5.938852 6.29241,11.92498 6.54337,18.603126 0.34225,9.106308 -0.63685,15.636591 -3.63846,19.688811 -3.53456,4.771694 -5.83414,7.124014 -7.57036,7.893124 -8.6759,3.84269 -13.72997,4.85675 -19.51275,5.16428 0.54785,-20.533436 -0.39338,-42.460627 -0.64553,-62.470139 z"
           id="path5346-1"
           inkscape:connector-curvature="0" />
        <path
           style="font-size:medium;font-style:normal;font-variant:normal;font-weight:normal;font-stretch:normal;text-indent:0;text-align:start;text-decoration:none;line-height:normal;letter-spacing:normal;word-spacing:normal;text-transform:none;direction:ltr;block-progression:tb;writing-mode:lr-tb;text-anchor:start;baseline-shift:baseline;color:#000000;fill:#2c5aa0;fill-opacity:1;stroke:#000000;stroke-width:2.5;stroke-linejoin:round;stroke-miterlimit:4;stroke-opacity:1;stroke-dasharray:none;marker:none;visibility:visible;display:inline;overflow:visible;enable-background:accumulate;font-family:Sans;-inkscape-font-specification:Sans"
           d="m 313.61279,25.921674 0.12694,14.108402 c 0.13702,13.583833 2.67854,24.384842 1.41364,30.757745 -0.94459,4.759092 -0.7506,8.990819 -0.31866,12.854413 -6.06904,-6.717582 -12.60817,-13.987456 -17.55155,-19.615433 -1.75882,-2.002372 -5.8471,-7.993825 -9.74705,-14.209368 -3.89996,-6.215541 -7.82508,-12.764393 -11.52479,-17.958132 l -25.52433,9.191002 c 0.68801,9.369004 3.07869,20.207068 5.14446,30.92739 2.06577,10.720321 3.69317,21.442263 3.57119,26.244972 -0.34725,13.668375 1.24384,26.373605 2.4828,38.761165 l 1.38561,14.01609 28.02936,-2.80044 -1.3856,-14.01609 c -1.27895,-12.78715 -2.65521,-24.29645 -2.37736,-35.233822 0.0326,-1.281173 -0.0736,-2.606183 -0.11299,-3.909851 4.83872,5.418153 9.58999,10.820863 13.71433,15.299483 6.9759,7.57543 16.3211,22.05694 23.37841,33.52608 l 26.08299,-7.68263 c -0.35813,-16.79282 -4.10974,-29.16466 -4.53011,-35.85095 -0.45195,-7.185413 -1.91162,-12.704661 -2.65088,-16.428922 -0.73928,-3.724261 -0.86609,-5.344249 -0.41347,-7.624661 3.05616,-15.397734 -0.80026,-28.249047 -0.88406,-36.55749 l -0.15333,-14.076369 -28.15556,0.277463 z"
           id="path3608-3"
           inkscape:connector-curvature="0" />
        <path
           style="font-size:medium;font-style:normal;font-variant:normal;font-weight:normal;font-stretch:normal;text-indent:0;text-align:start;text-decoration:none;line-height:normal;letter-spacing:normal;word-spacing:normal;text-transform:none;direction:ltr;block-progression:tb;writing-mode:lr-tb;text-anchor:start;baseline-shift:baseline;color:#000000;fill:#2c5aa0;fill-opacity:1;stroke:#000000;stroke-width:2.5;stroke-linejoin:round;stroke-miterlimit:4;stroke-opacity:1;stroke-dasharray:none;marker:none;visibility:visible;display:inline;overflow:visible;enable-background:accumulate;font-family:Sans;-inkscape-font-specification:Sans"
           d="m 653.46207,44.604668 -4.05961,13.509669 c -3.92222,13.005978 -4.71916,24.073317 -7.82792,29.778531 -2.32145,4.260345 -3.4277,8.351418 -4.16822,12.167812 -3.78829,-8.222422 -7.86046,-17.112229 -10.89946,-23.958807 -1.08124,-2.43594 -3.16693,-9.368285 -5.03471,-16.464338 -1.86779,-7.096053 -3.68887,-14.52376 -5.67041,-20.584805 l -27.10403,1.156683 c -2.13875,9.147533 -3.09071,20.205236 -4.31764,31.053615 -1.22693,10.848379 -2.87276,21.567508 -4.42217,26.11506 -4.40964,12.942182 -6.68188,25.543412 -9.1954,37.736412 l -2.83073,13.79711 27.58821,5.69021 2.83073,-13.79712 c 2.59459,-12.58629 4.74375,-23.97596 8.27232,-34.33224 0.41023,-1.20403 0.70351,-2.49043 1.05273,-3.73676 2.99725,6.60497 5.93477,13.16952 8.53077,18.66582 4.39788,9.31176 8.96786,25.91594 12.28167,38.96836 l 27.1872,0.44966 c 4.66855,-16.13479 4.77927,-29.06245 6.37304,-35.5696 1.71254,-6.99297 1.99486,-12.69032 2.40046,-16.46552 0.4056,-3.7752 0.73921,-5.36525 1.85161,-7.40674 7.51116,-13.784515 7.66484,-27.201093 10.06383,-35.156094 l 4.08232,-13.474933 -26.98459,-8.141939 z"
           id="path3608-2-6"
           inkscape:connector-curvature="0" />
      </g>
    </g>
    <path
       style="font-size:medium;font-style:normal;font-variant:normal;font-weight:normal;font-stretch:normal;text-indent:0;text-align:start;text-decoration:none;line-height:normal;letter-spacing:normal;word-spacing:normal;text-transform:none;direction:ltr;block-progression:tb;writing-mode:lr-tb;text-anchor:start;baseline-shift:baseline;color:#000000;fill:#2c5aa0;fill-opacity:1;stroke:#000000;stroke-width:4;stroke-linejoin:round;stroke-miterlimit:4;stroke-opacity:1;stroke-dasharray:none;marker:none;visibility:visible;display:inline;overflow:visible;enable-background:accumulate;font-family:Sans;-inkscape-font-specification:Sans"
       d="m 176.51292,55.30819 c -3.09719,0.006 -6.0666,0.38686 -8.8125,1.125 -10.96781,2.94829 -19.64326,9.43226 -26.03125,17.3125 -0.009,0.0114 -0.0222,0.0199 -0.0312,0.0312 -23.48168,28.87793 -16.17931,65.12501 -16.625,87.59376 l -0.28125,15 30,0.59375 0.28125,-15 c 0.13442,-6.77648 0.009,-13.42139 -0.0625,-19.875 14.69078,-1.83601 29.62338,-2.07412 44.40625,-0.71875 l 0.6875,0.0625 c 0.16572,0.008 0.33373,0.024 0.5,0.0312 0.47557,7.38284 0.7555,14.89168 1.15625,23.59375 l 0.6875,14.96875 29.96875,-1.375 -0.6875,-14.96875 c -0.79763,-17.32008 -1.10776,-31.79846 -4.03125,-50.59376 -0.006,-0.0539 -0.025,-0.10238 -0.0312,-0.15625 -0.0273,-0.17459 -0.0348,-0.32465 -0.0625,-0.5 l -0.0312,0 -0.0937,-1.84375 -0.15625,0 c -2.9363,-18.73384 -14.08024,-32.7847 -24.3125,-43.71875 -0.005,-0.006 -0.0263,0.006 -0.0312,0 -0.0638,-0.0743 -0.12312,-0.14519 -0.1875,-0.21875 -0.0823,-0.0877 -0.16785,-0.19394 -0.25,-0.28125 l -0.0312,0.0312 C 195.5124,58.66732 185.60133,55.29184 176.51322,55.30804 z m 1.78125,29.46875 c 0.54325,0.0729 0.93211,0.52537 1.875,1.625 l 0.46875,0.53125 c 7.6174,8.09578 13.52136,16.09151 16.03125,24.1875 -3.32151,-0.23559 -6.6399,-0.44151 -9.96875,-0.53125 -10.02987,-0.27039 -20.06899,0.11116 -30.0625,1.125 1.40784,-7.21111 3.91063,-13.66295 8.28125,-19.03125 l 0.0312,-0.0312 c 2.4887,-3.07481 7.38801,-6.37381 10.53125,-7.21875 1.57162,-0.42247 2.26925,-0.72915 2.8125,-0.65625 z"
       id="path3604-9-4"
       inkscape:connector-curvature="0" />
    <path
       style="font-size:medium;font-style:normal;font-variant:normal;font-weight:normal;font-stretch:normal;text-indent:0;text-align:start;text-decoration:none;line-height:normal;letter-spacing:normal;word-spacing:normal;text-transform:none;direction:ltr;block-progression:tb;writing-mode:lr-tb;text-anchor:start;baseline-shift:baseline;color:#000000;fill:#2c5aa0;fill-opacity:1;stroke:#000000;stroke-width:4;stroke-linejoin:round;stroke-miterlimit:4;stroke-opacity:1;stroke-dasharray:none;marker:none;visibility:visible;display:inline;overflow:visible;enable-background:accumulate;font-family:Sans;-inkscape-font-specification:Sans"
       d="m 486.91916,55.30819 c -3.09719,0.006 -6.09785,0.38686 -8.84375,1.125 -10.96781,2.94829 -19.61201,9.43226 -26,17.3125 -0.009,0.0114 -0.022,0.0199 -0.0312,0.0312 -23.49602,28.88031 -16.17924,65.12123 -16.625,87.59376 l -0.3125,15 30,0.59375 0.3125,-15 c 0.13442,-6.77648 0.009,-13.42139 -0.0625,-19.875 14.69078,-1.83601 29.62338,-2.07412 44.40625,-0.71875 l 0.6875,0.0625 c 0.15539,0.007 0.31287,0.0244 0.46875,0.0312 0.47557,7.38284 0.7555,14.89168 1.15625,23.59375 l 0.6875,14.96875 29.96876,-1.375 -0.6875,-14.96875 c -0.80736,-17.53145 -1.06903,-32.1164 -4.09375,-51.25001 l -0.0312,0 -0.0937,-1.84375 -0.1875,0 c -2.93452,-18.73327 -14.04926,-32.78488 -24.28126,-43.71875 -0.005,-0.006 -0.0263,0.006 -0.0312,0 -0.0587,-0.0684 -0.12833,-0.11979 -0.1875,-0.1875 -0.0876,-0.0934 -0.16258,-0.21959 -0.25,-0.3125 l -0.0312,0.0312 C 505.9185,58.66577 496.00837,55.29183 486.91941,55.30804 z m 1.78125,29.46875 c 0.55106,0.0729 0.93211,0.52537 1.875,1.625 l 0.46875,0.53125 c 7.6174,8.09578 13.49768,16.09151 16,24.1875 -3.30899,-0.2344 -6.61238,-0.44161 -9.9375,-0.53125 -10.00926,-0.26983 -20.04882,0.11591 -30.03125,1.125 1.40806,-7.20861 3.88063,-13.66449 8.25,-19.03125 l 0.0312,-0.0312 c 2.4887,-3.07481 7.35676,-6.37381 10.5,-7.21875 1.57162,-0.42247 2.29269,-0.72915 2.84375,-0.65625 z"
       id="path3612-2-7"
       inkscape:connector-curvature="0" />
    <path
       style="font-size:medium;font-style:normal;font-variant:normal;font-weight:normal;font-stretch:normal;text-indent:0;text-align:start;text-decoration:none;line-height:normal;letter-spacing:normal;word-spacing:normal;text-transform:none;direction:ltr;block-progression:tb;writing-mode:lr-tb;text-anchor:start;baseline-shift:baseline;color:#000000;fill:#2c5aa0;fill-opacity:1;stroke:#000000;stroke-width:4;stroke-linejoin:round;stroke-miterlimit:4;stroke-opacity:1;stroke-dasharray:none;marker:none;visibility:visible;display:inline;overflow:visible;enable-background:accumulate;font-family:Sans;-inkscape-font-specification:Sans"
       d="m 699.48167,55.30819 c -3.09719,0.006 -6.09785,0.38686 -8.84375,1.125 -10.96781,2.94829 -19.61201,9.43226 -26,17.3125 -0.009,0.0114 -0.0221,0.0199 -0.0312,0.0312 -23.48168,28.87793 -16.17931,65.12501 -16.625,87.59376 l -0.28125,15 29.96875,0.59375 0.3125,-15 c 0.13442,-6.77648 0.009,-13.42139 -0.0625,-19.875 14.69078,-1.83601 29.62338,-2.07412 44.40625,-0.71875 l 0.6875,0.0625 c 0.16572,0.008 0.33373,0.024 0.5,0.0312 0.47557,7.38284 0.7555,14.89168 1.15625,23.59375 l 0.6875,14.96875 29.96875,-1.375 -0.6875,-14.96875 c -0.79763,-17.32008 -1.10776,-31.79846 -4.03125,-50.59376 -0.006,-0.0539 -0.025,-0.10238 -0.0312,-0.15625 -0.0273,-0.17459 -0.0348,-0.32465 -0.0625,-0.5 l -0.0312,0 -0.0937,-1.84375 -0.15625,0 c -2.93627,-18.73346 -14.08042,-32.78481 -24.3125,-43.71875 -0.005,-0.006 -0.0263,0.006 -0.0312,0 -0.0638,-0.0743 -0.12312,-0.14519 -0.1875,-0.21875 -0.0824,-0.0879 -0.16771,-0.1938 -0.25,-0.28125 l -0.0312,0.0312 c -6.93832,-7.73447 -16.84939,-11.10995 -25.9375,-11.09375 z m 1.78125,29.46875 c 0.54325,0.0729 0.93211,0.52537 1.875,1.625 l 0.46875,0.53125 c 7.6174,8.09578 13.52136,16.09151 16.03125,24.1875 -3.32151,-0.23559 -6.6399,-0.44151 -9.96875,-0.53125 -10.00926,-0.26983 -20.04882,0.11591 -30.03125,1.125 1.40806,-7.20861 3.88063,-13.66449 8.25,-19.03125 l 0.0312,-0.0312 c 2.4887,-3.07481 7.38801,-6.37381 10.53125,-7.21875 1.57162,-0.42247 2.26925,-0.72915 2.8125,-0.65625 z"
       id="path4335-1-4"
       inkscape:connector-curvature="0" />
    <path
       style="font-size:medium;font-style:normal;font-variant:normal;font-weight:normal;font-stretch:normal;text-indent:0;text-align:start;text-decoration:none;line-height:normal;letter-spacing:normal;word-spacing:normal;text-transform:none;direction:ltr;block-progression:tb;writing-mode:lr-tb;text-anchor:start;baseline-shift:baseline;color:#000000;fill:#2c5aa0;fill-opacity:1;stroke:#000000;stroke-width:4;stroke-linejoin:round;stroke-miterlimit:4;stroke-opacity:1;stroke-dasharray:none;marker:none;visibility:visible;display:inline;overflow:visible;enable-background:accumulate;font-family:Sans;-inkscape-font-specification:Sans"
       d="m 73.69801,55.41501 c -15.58312,0.26702 -22.10015,0.97144 -34.375,1.3125 L 24.79176,70.63376 c -2.18168,29.93841 3.2719,45.7657 0.71875,92.59376 l 15,15.84375 c 9.13061,-0.0274 20.78331,0.28789 32.53125,-0.6875 11.74793,-0.97539 23.88723,-2.8333 34.65626,-10.15625 l 0.3125,-0.21875 c 11.21112,-8.04342 13.54951,-21.78844 11.90625,-32.09375 -1.53593,-9.63226 -5.56038,-18.17855 -12.9375,-24.84376 1.22169,-1.78634 2.26524,-3.8152 3.03125,-6.15625 4.04554,-12.36376 0.45808,-24.56953 -6.15625,-33.59375 C 97.23993,62.29704 86.69321,55.19218 73.69801,55.41501 z m 0.53125,30 c 1.0052,-0.0172 3.5431,1.04039 5.4375,3.625 1.28094,1.74765 1.69961,3.40933 1.8125,4.78125 -0.21503,0.0965 -0.0579,0.0407 -0.375,0.15625 -2.73036,0.99494 -7.76469,1.97573 -13.03125,2.5 -4.57102,0.45503 -9.17542,0.59416 -13.34375,0.71875 -0.185,-3.6617 -0.33437,-7.48234 -0.375,-11.03125 5.84763,-0.29712 11.24498,-0.60212 19.875,-0.75 z m -18.15625,43.37501 c 4.7042,0.31852 8.67434,0.56284 13.625,1.09375 4.91072,0.52663 9.59256,1.24556 12.96875,2.03125 2.1465,0.49952 3.67923,1.19165 4.1875,1.375 0.62248,0.74814 2.96,4.34924 3.4375,7.34375 0.50215,3.14912 0.0751,3.07693 0.25,2.9375 -3.12718,1.98626 -10.70932,4.13747 -19.96875,4.90625 -4.60224,0.38211 -9.55742,0.48449 -14.53125,0.53125 0.18983,-7.70564 0.16048,-14.07406 0.0312,-20.21875 z"
       id="path5331-9-5"
       inkscape:connector-curvature="0" />
    <path
       style="font-size:medium;font-style:normal;font-variant:normal;font-weight:normal;font-stretch:normal;text-indent:0;text-align:start;text-decoration:none;line-height:normal;letter-spacing:normal;word-spacing:normal;text-transform:none;direction:ltr;block-progression:tb;writing-mode:lr-tb;text-anchor:start;baseline-shift:baseline;color:#000000;fill:#2c5aa0;fill-opacity:1;stroke:#000000;stroke-width:4;stroke-linejoin:round;stroke-miterlimit:4;stroke-opacity:1;stroke-dasharray:none;marker:none;visibility:visible;display:inline;overflow:visible;enable-background:accumulate;font-family:Sans;-inkscape-font-specification:Sans"
       d="m 367.22926,53.57126 c -7.21831,-0.072 -12.76119,0.68711 -15,0.6875 l -15,14.71875 c -0.56195,32.02542 2.43019,69.29697 0.21875,95.50001 l 15.3125,16.25 c 15.01593,-0.36998 28.09656,0.55482 48.1875,-8.34375 10.46975,-4.63789 16.06852,-12.61902 20.03125,-17.96875 9.70029,-13.09551 10.1965,-28.08873 9.75,-39.96876 -0.51162,-13.61411 -5.50456,-25.62154 -12.0625,-35.40625 -6.59979,-9.8472 -15.88746,-16.50574 -25.4375,-20.8125 l -0.9375,-0.375 c -8.932,-3.31055 -17.84419,-4.20927 -25.0625,-4.28125 z m 0.0937,30.34375 c 5.06085,0.0164 9.89407,0.44607 14.1875,1.96875 5.12246,2.43333 9.73286,6.11931 12.25,9.875 4.23912,6.32493 6.70147,12.70021 6.96875,19.8125 0.3645,9.6983 -0.67825,16.65311 -3.875,20.96876 -3.76433,5.08189 -6.21341,7.58714 -8.0625,8.40625 -9.23991,4.09249 -14.62254,5.17248 -20.78125,5.5 0.58346,-21.86829 -0.41895,-45.22095 -0.6875,-66.53126 z"
       id="path5346-1-0"
       inkscape:connector-curvature="0" />
    <path
       style="font-size:medium;font-style:normal;font-variant:normal;font-weight:normal;font-stretch:normal;text-indent:0;text-align:start;text-decoration:none;line-height:normal;letter-spacing:normal;word-spacing:normal;text-transform:none;direction:ltr;block-progression:tb;writing-mode:lr-tb;text-anchor:start;baseline-shift:baseline;color:#000000;fill:#2c5aa0;fill-opacity:1;stroke:#000000;stroke-width:4;stroke-linejoin:round;stroke-miterlimit:4;stroke-opacity:1;stroke-dasharray:none;marker:none;visibility:visible;display:inline;overflow:visible;enable-background:accumulate;font-family:Sans;-inkscape-font-specification:Sans"
       d="m 304.35241,52.51268 -1.3125,14.96875 c -1.24803,14.41371 0.33828,26.12409 -1.65625,32.75 -1.48945,4.94803 -1.71785,9.45381 -1.65625,13.59375 -5.74454,-7.74353 -11.93073,-16.12073 -16.59375,-22.59375 -1.65906,-2.30303 -5.37834,-9.07365 -8.875,-16.0625 -3.49666,-6.98885 -6.98581,-14.33361 -10.375,-20.21875 l -28,7.125 c -0.23164,10.00226 1.19098,21.73645 2.28125,33.3125 1.09027,11.57605 1.71567,23.10886 1.09375,28.1875 -1.77004,14.45366 -1.38656,28.08514 -1.34375,41.34376 l 0.0312,15 30,-0.0937 -0.0312,-15 c -0.0442,-13.6863 -0.32263,-26.028 1.09375,-37.59375 0.1659,-1.35478 0.18925,-2.77026 0.28125,-4.15626 4.5736,6.23987 9.05607,12.45438 12.96875,17.62501 6.61785,8.74591 15.03896,25.05567 21.34375,37.9375 l 28.4375,-5.46875 c 1.34268,-17.8381 -1.3652,-31.33778 -1.125,-38.46875 0.2579,-7.66331 -0.72333,-13.66375 -1.125,-17.68751 -0.40168,-4.02376 -0.36996,-5.75405 0.34375,-8.125 4.81903,-16.00903 2.04915,-30.02772 2.8125,-38.84375 l 1.28125,-14.9375 -29.875,-2.59375 z"
       id="path3608-3-7"
       inkscape:connector-curvature="0" />
    <path
       style="font-size:medium;font-style:normal;font-variant:normal;font-weight:normal;font-stretch:normal;text-indent:0;text-align:start;text-decoration:none;line-height:normal;letter-spacing:normal;word-spacing:normal;text-transform:none;direction:ltr;block-progression:tb;writing-mode:lr-tb;text-anchor:start;baseline-shift:baseline;color:#000000;fill:#2c5aa0;fill-opacity:1;stroke:#000000;stroke-width:4;stroke-linejoin:round;stroke-miterlimit:4;stroke-opacity:1;stroke-dasharray:none;marker:none;visibility:visible;display:inline;overflow:visible;enable-background:accumulate;font-family:Sans;-inkscape-font-specification:Sans"
       d="m 614.72741,52.51268 -1.28125,14.96875 c -1.24803,14.41371 0.33828,26.12409 -1.65625,32.75 -1.4894,4.94787 -1.74907,9.45391 -1.6875,13.59375 -5.74454,-7.74353 -11.93073,-16.12073 -16.59375,-22.59375 -1.65906,-2.30303 -5.34709,-9.07365 -8.84375,-16.0625 -3.49666,-6.98885 -7.01706,-14.33361 -10.40625,-20.21875 l -28,7.125 c -0.23164,10.00226 1.19098,21.73645 2.28125,33.3125 1.09027,11.57605 1.71567,23.10886 1.09375,28.1875 -1.77004,14.45366 -1.38656,28.08514 -1.34375,41.34376 l 0.0625,15 30,-0.0937 -0.0625,-15 c -0.0442,-13.6863 -0.29138,-26.028 1.125,-37.59375 0.16466,-1.34464 0.18943,-2.7496 0.28125,-4.12501 4.56674,6.23029 9.06239,12.43149 12.96875,17.59376 6.61785,8.74591 15.00771,25.05567 21.3125,37.9375 l 28.4375,-5.46875 c 1.34268,-17.8381 -1.3652,-31.33778 -1.125,-38.46875 0.2579,-7.66331 -0.69207,-13.66375 -1.09375,-17.68751 -0.40168,-4.02376 -0.4012,-5.75405 0.3125,-8.125 4.81903,-16.00903 2.04915,-30.02772 2.8125,-38.84375 l 1.3125,-14.9375 -29.90625,-2.59375 z"
       id="path3608-2-6-0"
       inkscape:connector-curvature="0" />
  </g>
  <g
     inkscape:label="Layer 1"
     inkscape:groupmode="layer"
     id="layer1"
     transform="translate(41.778851,-616.27289)" />
</svg>
