<?xml version="1.0" encoding="UTF-8" standalone="no"?>
<!-- Created with Inkscape (http://www.inkscape.org/) -->

<svg
   xmlns:dc="http://purl.org/dc/elements/1.1/"
   xmlns:cc="http://creativecommons.org/ns#"
   xmlns:rdf="http://www.w3.org/1999/02/22-rdf-syntax-ns#"
   xmlns:svg="http://www.w3.org/2000/svg"
   xmlns="http://www.w3.org/2000/svg"
   xmlns:sodipodi="http://sodipodi.sourceforge.net/DTD/sodipodi-0.dtd"
   xmlns:inkscape="http://www.inkscape.org/namespaces/inkscape"
   width="342.66"
   height="342.66"
   id="svg2"
   version="1.1"
   inkscape:version="0.48.3.1 r9886"
   sodipodi:docname="paused.svg">
  <defs
     id="defs4" />
  <sodipodi:namedview
     id="base"
     pagecolor="#000000"
     bordercolor="#666666"
     borderopacity="1.0"
     inkscape:pageopacity="0.0"
     inkscape:pageshadow="2"
     inkscape:zoom="2"
     inkscape:cx="187.57435"
     inkscape:cy="156.87732"
     inkscape:document-units="px"
     inkscape:current-layer="layer2"
     showgrid="false"
     fit-margin-top="0"
     fit-margin-left="0"
     fit-margin-right="0"
     fit-margin-bottom="0"
     inkscape:window-width="1920"
     inkscape:window-height="1025"
     inkscape:window-x="0"
     inkscape:window-y="27"
     inkscape:window-maximized="1"
     showguides="true"
     inkscape:guide-bbox="true"
     inkscape:snap-global="false" />
  <metadata
     id="metadata7">
    <rdf:RDF>
      <cc:Work
         rdf:about="">
        <dc:format>image/svg+xml</dc:format>
        <dc:type
           rdf:resource="http://purl.org/dc/dcmitype/StillImage" />
        <dc:title></dc:title>
      </cc:Work>
    </rdf:RDF>
  </metadata>
  <g
     inkscape:groupmode="layer"
     id="layer2"
     inkscape:label="Layer"
     transform="translate(41.778851,46.330083)">
    <g
       style="stroke:#2c5aa0;stroke-width:4.75617266;stroke-linecap:square;stroke-linejoin:bevel;stroke-miterlimit:4;stroke-dasharray:none"
       transform="matrix(6.3075925,0,0,6.3075925,-421.76962,-6069.142)"
       id="g3602">
      <path
         sodipodi:nodetypes="ccccc"
         style="fill:none;stroke:#2c5aa0;stroke-width:4.75617266;stroke-linecap:square;stroke-linejoin:bevel;stroke-miterlimit:4;stroke-opacity:1;stroke-dasharray:none"
         d="m 16.865176,871.38484 c 0.07844,-3.95446 -0.799508,-8.8727 2.10482,-12.43999 1.407719,-1.73925 4.298688,-3.10525 6.067662,-1.0422 1.593169,1.69322 3.080669,3.64968 3.35417,6.04661 0.454202,2.87316 0.496802,5.04918 0.626293,7.86098"
         id="path3604"
         inkscape:connector-curvature="0" />
      <path
         style="fill:none;stroke:#2c5aa0;stroke-width:4.75617266;stroke-linecap:square;stroke-linejoin:bevel;stroke-miterlimit:4;stroke-opacity:1;stroke-dasharray:none"
         d="m 17.350862,866.15341 c 3.012907,-0.52112 6.095089,-0.63343 9.13933,-0.35432 0.665328,0.0305 1.332401,0.04 1.997602,8.1e-4"
         id="path3606"
         inkscape:connector-curvature="0" />
    </g>
    <g
       style="stroke:#2c5aa0;stroke-width:4.75617266;stroke-linecap:square;stroke-linejoin:bevel;stroke-miterlimit:4;stroke-dasharray:none"
       transform="matrix(6.3075925,0,0,6.3075925,-111.37856,-6069.142)"
       id="g3610">
      <path
         sodipodi:nodetypes="ccccc"
         style="fill:none;stroke:#2c5aa0;stroke-width:4.75617266;stroke-linecap:square;stroke-linejoin:bevel;stroke-miterlimit:4;stroke-opacity:1;stroke-dasharray:none"
         d="m 16.865176,871.38484 c 0.07844,-3.95446 -0.799508,-8.8727 2.10482,-12.43999 1.407719,-1.73925 4.298688,-3.10525 6.067662,-1.0422 1.593169,1.69322 3.080669,3.64968 3.35417,6.04661 0.454202,2.87316 0.496802,5.04918 0.626293,7.86098"
         id="path3612"
         inkscape:connector-curvature="0" />
      <path
         style="fill:none;stroke:#2c5aa0;stroke-width:4.75617266;stroke-linecap:square;stroke-linejoin:bevel;stroke-miterlimit:4;stroke-opacity:1;stroke-dasharray:none"
         d="m 17.350862,866.15341 c 3.012907,-0.52112 6.095089,-0.63343 9.13933,-0.35432 0.665328,0.0305 1.332401,0.04 1.997602,8.1e-4"
         id="path3614"
         inkscape:connector-curvature="0" />
    </g>
    <g
       id="g4501"
       transform="matrix(6.3075925,0,0,6.3075925,101.19135,-6069.142)"
       style="stroke:#2c5aa0;stroke-width:4.75617266;stroke-linecap:square;stroke-linejoin:bevel;stroke-miterlimit:4;stroke-dasharray:none">
      <path
         inkscape:connector-curvature="0"
         id="path4335"
         d="m 16.865176,871.38484 c 0.07844,-3.95446 -0.799508,-8.8727 2.10482,-12.43999 1.407719,-1.73925 4.298688,-3.10525 6.067662,-1.0422 1.593169,1.69322 3.080669,3.64968 3.35417,6.04661 0.454202,2.87316 0.496802,5.04918 0.626293,7.86098"
         style="fill:none;stroke:#2c5aa0;stroke-width:4.75617266;stroke-linecap:square;stroke-linejoin:bevel;stroke-miterlimit:4;stroke-opacity:1;stroke-dasharray:none"
         sodipodi:nodetypes="ccccc" />
      <path
         inkscape:connector-curvature="0"
         id="path4343"
         d="m 17.350862,866.15341 c 3.012907,-0.52112 6.095089,-0.63343 9.13933,-0.35432 0.665328,0.0305 1.332401,0.04 1.997602,8.1e-4"
         style="fill:none;stroke:#2c5aa0;stroke-width:4.75617266;stroke-linecap:square;stroke-linejoin:bevel;stroke-miterlimit:4;stroke-opacity:1;stroke-dasharray:none" />
    </g>
    <g
       id="g5443"
       transform="matrix(6.3010233,0,0,6.3010233,-628.33315,-5421.3886)"
       style="stroke:#2c5aa0;stroke-width:4.76113129;stroke-linecap:square;stroke-linejoin:bevel;stroke-miterlimit:4;stroke-dasharray:none">
      <path
         sodipodi:nodetypes="cscssccc"
         inkscape:connector-curvature="0"
         id="path5331"
         d="m 43.198142,768.56138 c 1.74659,-1.25309 0.885621,-4.35284 -0.507709,-5.48359 -1.312509,-1.06516 -6.422695,-1.15337 -8.228856,-1.34227 0.554316,-0.2162 7.437464,0.27724 8.180299,-1.99297 0.70141,-2.14361 -1.239078,-4.7756 -3.461003,-4.7375 -2.410244,0.0413 -3.416002,0.15405 -5.430798,0.21003 -0.318851,4.37548 0.533421,7.01416 0.116989,14.65204 3.003397,-0.009 7.149434,0.17778 9.331078,-1.30574 z"
         style="fill:none;stroke:#2c5aa0;stroke-width:4.76113129;stroke-linecap:square;stroke-linejoin:bevel;stroke-miterlimit:4;stroke-opacity:1;stroke-dasharray:none" />
    </g>
    <g
       id="g5622"
       transform="matrix(5.8972952,0,0,5.8972952,-513.89557,-5114.9033)"
       style="stroke:#2c5aa0;stroke-width:5.08707809;stroke-linecap:square;stroke-linejoin:bevel;stroke-miterlimit:4;stroke-dasharray:none">
      <path
         sodipodi:nodetypes="ccsssccc"
         inkscape:connector-curvature="0"
         id="path5346"
         d="m 69.671423,770.88807 c 2.702918,-0.0666 4.163197,0.14739 7.202973,-1.19897 1.044449,-0.46267 1.727803,-1.35439 2.382938,-2.23883 1.093471,-1.4762 1.223501,-3.33785 1.154741,-5.16736 -0.06604,-1.75728 -0.697019,-3.31375 -1.612443,-4.6796 -0.781705,-1.16634 -1.982467,-2.05657 -3.247857,-2.62722 -2.236162,-0.82881 -4.641484,-0.4518 -5.905822,-0.45158 -0.09168,5.22477 0.431571,11.55171 0.02547,16.36356 z"
         style="fill:none;stroke:#2c5aa0;stroke-width:5.08707809;stroke-linecap:square;stroke-linejoin:bevel;stroke-miterlimit:4;stroke-opacity:1;stroke-dasharray:none" />
    </g>
    <path
       sodipodi:nodetypes="cscsscssc"
       inkscape:connector-curvature="0"
       id="path3608"
       d="m -202.49875,-569.6245 c -0.0435,-13.47246 -0.37355,-26.4633 1.21966,-39.473 1.94913,-15.91686 -3.6346,-46.87204 -3.26192,-62.96443 5.7472,9.97971 14.16639,29.36741 20.08342,37.58116 6.54141,9.08053 16.33169,22.46088 23.27384,31.63497 8.1378,10.75462 16.4839,27.41459 22.84116,40.40362 1.17099,-15.55708 -1.49397,-27.69784 -1.15197,-37.85115 0.41127,-12.22052 -3.13811,-19.73504 -0.15885,-29.63231 3.40678,-11.31747 1.2338,-24.18863 2.23949,-35.8035"
       style="fill:none;stroke:#2c5aa0;stroke-width:30;stroke-linecap:square;stroke-linejoin:bevel;stroke-miterlimit:4;stroke-opacity:1;stroke-dasharray:none" />
    <path
       sodipodi:nodetypes="cscsscssc"
       inkscape:connector-curvature="0"
       id="path3608-2"
       d="m 107.89231,-569.6245 c -0.0435,-13.47246 -0.37355,-26.4633 1.21966,-39.473 1.94912,-15.91686 -3.6346,-46.87204 -3.26192,-62.96443 5.74719,9.97971 14.16638,29.36741 20.08341,37.58116 6.54141,9.08053 16.33169,22.46088 23.27384,31.63497 8.1378,10.75462 16.4839,27.41459 22.84116,40.40362 1.17099,-15.55708 -1.49397,-27.69784 -1.15197,-37.85115 0.41127,-12.22052 -3.13811,-19.73504 -0.15885,-29.63231 3.40678,-11.31747 1.2338,-24.18863 2.23949,-35.8035"
       style="fill:none;stroke:#2c5aa0;stroke-width:30;stroke-linecap:square;stroke-linejoin:bevel;stroke-miterlimit:4;stroke-opacity:1;stroke-dasharray:none" />
    <g
       id="g5325"
       transform="translate(576,-562)">
      <path
         sodipodi:nodetypes="ccccccsssc"
         inkscape:connector-curvature="0"
         id="path5318"
         d="m -29.009299,67.75127 c 17.755373,77.11159 24.839098,104.82497 65.721337,175.16947 71.624332,-27.36745 142.807422,-40.35108 230.623472,-54.3457 150.37918,-1.54229 183.45988,-29.02867 330.86343,6.56371 66.61207,28.58845 118.19001,31.35399 179.13435,43.70883 6.58057,-33.42096 20.48096,-100.63331 29.31734,-157.9375 C 775.08253,65.72622 729.95801,35.36859 662.2074,16.2411 571.10527,-9.4790198 486.08152,-11.98824 390.5591,-17.88348 262.80112,-25.76818 226.07594,0.59793001 101.15809,23.03967 34.858032,34.95061 -8.107994,55.06282 -29.009299,67.75127 z"
         style="fill:#217844;fill-opacity:1;stroke:#000000;stroke-width:2.5;stroke-miterlimit:4;stroke-opacity:1;stroke-dasharray:none" />
      <g
         style="stroke-width:2.5;stroke-miterlimit:4;stroke-dasharray:none"
         transform="matrix(0.99964548,0.02662547,-0.02662547,0.99964548,3.295078,-10.206558)"
         id="g5307">
        <path
           style="font-size:medium;font-style:normal;font-variant:normal;font-weight:normal;font-stretch:normal;text-indent:0;text-align:start;text-decoration:none;line-height:normal;letter-spacing:normal;word-spacing:normal;text-transform:none;direction:ltr;block-progression:tb;writing-mode:lr-tb;text-anchor:start;baseline-shift:baseline;color:#000000;fill:#2c5aa0;fill-opacity:1;stroke:#000000;stroke-width:2.5;stroke-linejoin:round;stroke-miterlimit:4;stroke-opacity:1;stroke-dasharray:none;marker:none;visibility:visible;display:inline;overflow:visible;enable-background:accumulate;font-family:Sans;-inkscape-font-specification:Sans"
           d="m 181.128,45.725813 c -2.86765,0.483553 -5.5591,1.294577 -7.98842,2.402014 -9.70324,4.423357 -16.73766,11.767637 -21.43797,20.052099 -0.006,0.01195 -0.0176,0.02186 -0.0241,0.03371 -17.29171,30.370399 -4.93424,62.815054 -1.87939,83.694144 l 2.05449,13.93624 27.8773,-4.08003 -2.05448,-13.93626 c -0.92133,-6.29703 -2.06302,-12.43212 -3.12523,-18.39835 13.32308,-3.96774 27.11673,-6.49286 41.01765,-7.51899 l 0.64641,-0.0483 c 0.15471,-0.0182 0.31279,-0.0293 0.4679,-0.0483 1.57988,6.76451 2.998,13.67591 4.71217,21.67382 l 2.94692,13.7578 27.54452,-5.89865 -2.94691,-13.7578 c -3.41179,-15.91856 -5.93351,-29.28042 -11.54194,-46.237229 -0.0139,-0.04899 -0.0389,-0.09097 -0.053,-0.1399 -0.0522,-0.157488 -0.0823,-0.295318 -0.13506,-0.453449 l -0.0289,0.0048 -0.37133,-1.6932 -0.14472,0.02411 c -5.61078,-16.897906 -18.10068,-28.191793 -29.26516,-36.739626 -0.006,-0.0048 -0.0234,0.0096 -0.0289,0.0048 -0.0706,-0.05897 -0.13644,-0.115472 -0.20743,-0.173666 -0.0897,-0.06852 -0.18538,-0.153721 -0.27494,-0.221908 l -0.0241,0.03371 C 199.24347,45.904714 189.543,44.307975 181.12819,45.725565 z m 6.19775,27.01873 c 0.51441,-0.01632 0.9444,0.342739 1.98739,1.215686 l 0.51614,0.419693 c 8.3046,6.322616 15.00677,12.817003 18.58087,19.92806 -3.1127,0.294414 -6.21793,0.615826 -9.31493,1.046457 -9.33129,1.297498 -18.57052,3.200241 -27.66994,5.681561 0.19101,-6.896117 1.51336,-13.258 4.73288,-18.904586 l 0.0241,-0.0337 c 1.83047,-3.231941 5.85901,-7.043558 8.63984,-8.311235 1.39041,-0.633837 1.98923,-1.025549 2.50363,-1.04187 z"
           id="path3604-9"
           inkscape:connector-curvature="0" />
        <path
           style="font-size:medium;font-style:normal;font-variant:normal;font-weight:normal;font-stretch:normal;text-indent:0;text-align:start;text-decoration:none;line-height:normal;letter-spacing:normal;word-spacing:normal;text-transform:none;direction:ltr;block-progression:tb;writing-mode:lr-tb;text-anchor:start;baseline-shift:baseline;color:#000000;fill:#2c5aa0;fill-opacity:1;stroke:#000000;stroke-width:2.5;stroke-linejoin:round;stroke-miterlimit:4;stroke-opacity:1;stroke-dasharray:none;marker:none;visibility:visible;display:inline;overflow:visible;enable-background:accumulate;font-family:Sans;-inkscape-font-specification:Sans"
           d="m 517.98553,22.481486 c -2.88326,-0.379695 -5.72329,-0.398507 -8.37068,-0.05311 -10.5743,1.379565 -19.42589,6.338777 -26.35135,12.878136 -0.0102,0.0095 -0.023,0.01578 -0.0329,0.02515 -25.45993,23.955582 -23.15857,58.59455 -26.36893,79.453888 l -2.15678,13.92135 27.84661,4.28449 2.15679,-13.92136 c 0.96807,-6.29004 1.67795,-12.48994 2.41421,-18.50509 13.90084,0.11874 27.82798,1.7547 41.41754,4.85505 l 0.63206,0.14369 c 0.14375,0.0258 0.28815,0.0616 0.43238,0.0874 -0.4758,6.93023 -1.14937,13.9534 -1.85885,22.10212 l -1.22243,14.01665 28.06244,2.44833 1.22243,-14.01666 c 1.42967,-16.41662 3.00023,-30.02314 2.56532,-48.206723 l -0.0291,-0.0038 0.14232,-1.727587 -0.17451,-0.02333 c -0.40075,-17.799765 -8.99707,-32.259986 -17.15969,-43.708771 -0.004,-0.0062 -0.0253,0.0023 -0.0291,-0.0038 -0.0461,-0.07097 -0.10453,-0.12745 -0.15117,-0.197826 -0.0699,-0.09783 -0.124,-0.224593 -0.1938,-0.321938 l -0.0329,0.02516 C 535.25035,27.969877 526.44686,23.597028 517.98591,22.48148 z m -2.00803,27.647633 c 0.5038,0.136393 0.80214,0.604903 1.54288,1.745601 l 0.37018,0.552737 c 6.0823,8.482177 10.56033,16.655148 11.88209,24.50122 -3.05047,-0.629779 -6.0991,-1.233554 -9.18258,-1.730614 -9.28188,-1.496241 -18.67351,-2.386124 -28.0895,-2.688759 2.20717,-6.533765 5.31144,-12.234561 10.04555,-16.685777 l 0.0329,-0.02515 c 2.69868,-2.552087 7.63968,-5.016841 10.67014,-5.412204 1.51524,-0.197682 2.22447,-0.393406 2.72827,-0.25701 z"
           id="path3612-2"
           inkscape:connector-curvature="0" />
        <path
           style="font-size:medium;font-style:normal;font-variant:normal;font-weight:normal;font-stretch:normal;text-indent:0;text-align:start;text-decoration:none;line-height:normal;letter-spacing:normal;word-spacing:normal;text-transform:none;direction:ltr;block-progression:tb;writing-mode:lr-tb;text-anchor:start;baseline-shift:baseline;color:#000000;fill:#2c5aa0;fill-opacity:1;stroke:#000000;stroke-width:2.5;stroke-linejoin:round;stroke-miterlimit:4;stroke-opacity:1;stroke-dasharray:none;marker:none;visibility:visible;display:inline;overflow:visible;enable-background:accumulate;font-family:Sans;-inkscape-font-specification:Sans"
           d="m 742.5661,70.310282 c -2.79886,-0.789713 -5.60678,-1.216078 -8.27632,-1.254351 -10.66282,-0.152893 -20.13471,3.484105 -27.9273,8.961418 -0.0111,0.008 -0.0251,0.0123 -0.0362,0.02017 -28.62194,20.053614 -31.33218,54.665991 -37.50305,74.844901 l -4.10492,13.47552 26.91476,8.23005 4.13315,-13.46748 c 1.86111,-6.08589 3.45376,-12.11964 5.046,-17.96676 13.73978,2.11326 27.28775,5.73181 40.2914,10.75112 l 0.60489,0.23294 c 0.14762,0.0498 0.29526,0.10735 0.44358,0.15655 -1.46585,6.79012 -3.14074,13.64382 -5.01284,21.60626 l -3.22195,13.69598 27.4202,6.45191 3.22195,-13.69599 c 3.72612,-15.84793 7.16301,-29.00414 9.34782,-46.73024 0.008,-0.0502 0.004,-0.0989 0.0119,-0.14913 0.0202,-0.16469 0.0519,-0.30215 0.0719,-0.46764 l -0.0282,-0.008 0.38871,-1.68929 -0.14111,-0.0401 c 2.1574,-17.67352 -4.30043,-33.22544 -10.73481,-45.72761 -0.003,-0.0067 -0.0253,-0.0013 -0.0282,-0.008 -0.0386,-0.08348 -0.0739,-0.16274 -0.11318,-0.245706 -0.0518,-0.100544 -0.10172,-0.218093 -0.1536,-0.318202 l -0.0362,0.02017 c -4.281,-8.766485 -12.36591,-14.359592 -20.57829,-16.678124 z m -5.95663,27.072906 c 0.47194,0.205309 0.70699,0.713802 1.27628,1.949032 l 0.28698,0.600155 c 4.80148,9.267545 8.08111,18.004845 8.26954,25.961335 -2.93944,-1.0655 -5.88369,-2.10341 -8.8672,-3.03906 -8.9709,-2.81335 -18.13747,-5.04238 -27.41247,-6.69376 3.12238,-6.14918 7.01295,-11.34523 12.33707,-15.07065 l 0.0361,-0.0202 c 3.03713,-2.138193 8.30904,-3.860001 11.36487,-3.816181 1.52792,0.02191 2.23674,-0.07598 2.70868,0.129332 z"
           id="path4335-1"
           inkscape:connector-curvature="0" />
        <path
           style="font-size:medium;font-style:normal;font-variant:normal;font-weight:normal;font-stretch:normal;text-indent:0;text-align:start;text-decoration:none;line-height:normal;letter-spacing:normal;word-spacing:normal;text-transform:none;direction:ltr;block-progression:tb;writing-mode:lr-tb;text-anchor:start;baseline-shift:baseline;color:#000000;fill:#2c5aa0;fill-opacity:1;stroke:#000000;stroke-width:2.5;stroke-linejoin:round;stroke-miterlimit:4;stroke-opacity:1;stroke-dasharray:none;marker:none;visibility:visible;display:inline;overflow:visible;enable-background:accumulate;font-family:Sans;-inkscape-font-specification:Sans"
           d="M 39.158132,69.601465 C 22.924017,77.458809 16.422944,81.367285 3.6988684,87.693808 L -4.7989028,109.36236 C 7.4669789,141.86168 20.88949,155.83035 40.977503,206.24624 l 23.455277,9.34422 c 9.5748,-4.46832 21.964686,-9.8031 33.827023,-16.53953 11.862317,-6.73644 23.706517,-14.5899 31.454547,-27.51598 l 0.22178,-0.38165 c 7.86195,-13.89763 3.63431,-29.46835 -3.10202,-39.49103 -6.29636,-9.36809 -14.67791,-16.38581 -25.66548,-19.79804 0.41434,-2.46988 0.52369,-5.1078 0.18979,-7.9386 C 99.595083,88.975302 89.893079,77.902258 78.559499,71.641927 67.225907,65.381603 52.696139,63.048845 39.158132,69.601465 z M 54.30283,100.84638 c 1.047206,-0.50682 4.226503,-0.63024 7.472535,1.16277 2.19488,1.21239 3.442483,2.75377 4.228095,4.13954 -0.178884,0.20588 -0.04099,0.071 -0.317817,0.34642 -2.383402,2.37237 -7.193104,5.85013 -12.468642,8.96141 -4.578814,2.70039 -9.346279,5.08528 -13.662893,7.24287 -1.97469,-3.75523 -3.989244,-7.69467 -5.757489,-11.40166 5.996172,-3.15528 11.515668,-6.09991 20.506211,-10.45135 z m 2.024117,54.37647 c 5.094789,-1.95283 9.382656,-3.62665 14.839525,-5.47629 5.412844,-1.83472 10.678843,-3.3562 14.606229,-4.17274 2.496943,-0.51909 4.442998,-0.53758 5.065886,-0.59218 1.017437,0.48296 5.223039,3.12794 7.180476,6.04033 2.058497,3.06273 1.57495,3.19458 1.69082,2.96311 -2.3181,3.60632 -9.234184,9.55196 -18.583779,14.86144 -4.647051,2.63901 -9.800743,5.15586 -15.001062,7.62338 -3.547348,-8.18404 -6.674673,-14.8573 -9.798147,-21.24702 z"
           id="path5331-9"
           inkscape:connector-curvature="0" />
        <path
           style="font-size:medium;font-style:normal;font-variant:normal;font-weight:normal;font-stretch:normal;text-indent:0;text-align:start;text-decoration:none;line-height:normal;letter-spacing:normal;word-spacing:normal;text-transform:none;direction:ltr;block-progression:tb;writing-mode:lr-tb;text-anchor:start;baseline-shift:baseline;color:#000000;fill:#2c5aa0;fill-opacity:1;stroke:#000000;stroke-width:2.5;stroke-linejoin:round;stroke-miterlimit:4;stroke-opacity:1;stroke-dasharray:none;marker:none;visibility:visible;display:inline;overflow:visible;enable-background:accumulate;font-family:Sans;-inkscape-font-specification:Sans"
           d="m 387.79163,21.676877 c -6.7777,-0.06761 -11.98224,0.645169 -14.08439,0.645535 l -14.08439,13.820306 c -0.52765,30.070563 2.28185,65.067032 0.2054,89.670612 l 14.37781,15.25809 c 14.09935,-0.3474 26.38152,0.52095 45.2461,-7.83444 9.83067,-4.35479 15.08768,-11.84875 18.80853,-16.87193 9.10817,-12.29614 9.57409,-26.374171 9.15485,-37.529035 -0.48039,-12.783089 -5.16856,-24.057576 -11.3262,-33.24502 -6.19693,-9.246119 -14.91768,-15.498217 -23.88477,-19.542089 l -0.88028,-0.35211 c -8.38678,-3.108471 -16.75496,-3.952332 -23.53266,-4.019919 z m 0.088,28.491544 c 4.75193,0.0154 9.29013,0.418842 13.32148,1.848576 4.80978,2.284798 9.13876,5.745783 11.50225,9.272222 3.98036,5.938852 6.29241,11.92498 6.54337,18.603126 0.34225,9.106308 -0.63685,15.636591 -3.63846,19.688811 -3.53456,4.771694 -5.83414,7.124014 -7.57036,7.893124 -8.6759,3.84269 -13.72997,4.85675 -19.51275,5.16428 0.54785,-20.533436 -0.39338,-42.460627 -0.64553,-62.470139 z"
           id="path5346-1"
           inkscape:connector-curvature="0" />
        <path
           style="font-size:medium;font-style:normal;font-variant:normal;font-weight:normal;font-stretch:normal;text-indent:0;text-align:start;text-decoration:none;line-height:normal;letter-spacing:normal;word-spacing:normal;text-transform:none;direction:ltr;block-progression:tb;writing-mode:lr-tb;text-anchor:start;baseline-shift:baseline;color:#000000;fill:#2c5aa0;fill-opacity:1;stroke:#000000;stroke-width:2.5;stroke-linejoin:round;stroke-miterlimit:4;stroke-opacity:1;stroke-dasharray:none;marker:none;visibility:visible;display:inline;overflow:visible;enable-background:accumulate;font-family:Sans;-inkscape-font-specification:Sans"
           d="m 313.61279,25.921674 0.12694,14.108402 c 0.13702,13.583833 2.67854,24.384842 1.41364,30.757745 -0.94459,4.759092 -0.7506,8.990819 -0.31866,12.854413 -6.06904,-6.717582 -12.60817,-13.987456 -17.55155,-19.615433 -1.75882,-2.002372 -5.8471,-7.993825 -9.74705,-14.209368 -3.89996,-6.215541 -7.82508,-12.764393 -11.52479,-17.958132 l -25.52433,9.191002 c 0.68801,9.369004 3.07869,20.207068 5.14446,30.92739 2.06577,10.720321 3.69317,21.442263 3.57119,26.244972 -0.34725,13.668375 1.24384,26.373605 2.4828,38.761165 l 1.38561,14.01609 28.02936,-2.80044 -1.3856,-14.01609 c -1.27895,-12.78715 -2.65521,-24.29645 -2.37736,-35.233822 0.0326,-1.281173 -0.0736,-2.606183 -0.11299,-3.909851 4.83872,5.418153 9.58999,10.820863 13.71433,15.299483 6.9759,7.57543 16.3211,22.05694 23.37841,33.52608 l 26.08299,-7.68263 c -0.35813,-16.79282 -4.10974,-29.16466 -4.53011,-35.85095 -0.45195,-7.185413 -1.91162,-12.704661 -2.65088,-16.428922 -0.73928,-3.724261 -0.86609,-5.344249 -0.41347,-7.624661 3.05616,-15.397734 -0.80026,-28.249047 -0.88406,-36.55749 l -0.15333,-14.076369 -28.15556,0.277463 z"
           id="path3608-3"
           inkscape:connector-curvature="0" />
        <path
           style="font-size:medium;font-style:normal;font-variant:normal;font-weight:normal;font-stretch:normal;text-indent:0;text-align:start;text-decoration:none;line-height:normal;letter-spacing:normal;word-spacing:normal;text-transform:none;direction:ltr;block-progression:tb;writing-mode:lr-tb;text-anchor:start;baseline-shift:baseline;color:#000000;fill:#2c5aa0;fill-opacity:1;stroke:#000000;stroke-width:2.5;stroke-linejoin:round;stroke-miterlimit:4;stroke-opacity:1;stroke-dasharray:none;marker:none;visibility:visible;display:inline;overflow:visible;enable-background:accumulate;font-family:Sans;-inkscape-font-specification:Sans"
           d="m 653.46207,44.604668 -4.05961,13.509669 c -3.92222,13.005978 -4.71916,24.073317 -7.82792,29.778531 -2.32145,4.260345 -3.4277,8.351418 -4.16822,12.167812 -3.78829,-8.222422 -7.86046,-17.112229 -10.89946,-23.958807 -1.08124,-2.43594 -3.16693,-9.368285 -5.03471,-16.464338 -1.86779,-7.096053 -3.68887,-14.52376 -5.67041,-20.584805 l -27.10403,1.156683 c -2.13875,9.147533 -3.09071,20.205236 -4.31764,31.053615 -1.22693,10.848379 -2.87276,21.567508 -4.42217,26.11506 -4.40964,12.942182 -6.68188,25.543412 -9.1954,37.736412 l -2.83073,13.79711 27.58821,5.69021 2.83073,-13.79712 c 2.59459,-12.58629 4.74375,-23.97596 8.27232,-34.33224 0.41023,-1.20403 0.70351,-2.49043 1.05273,-3.73676 2.99725,6.60497 5.93477,13.16952 8.53077,18.66582 4.39788,9.31176 8.96786,25.91594 12.28167,38.96836 l 27.1872,0.44966 c 4.66855,-16.13479 4.77927,-29.06245 6.37304,-35.5696 1.71254,-6.99297 1.99486,-12.69032 2.40046,-16.46552 0.4056,-3.7752 0.73921,-5.36525 1.85161,-7.40674 7.51116,-13.784515 7.66484,-27.201093 10.06383,-35.156094 l 4.08232,-13.474933 -26.98459,-8.141939 z"
           id="path3608-2-6"
           inkscape:connector-curvature="0" />
      </g>
    </g>
    <path
       style="font-size:medium;font-style:normal;font-variant:normal;font-weight:normal;font-stretch:normal;text-indent:0;text-align:start;text-decoration:none;line-height:normal;letter-spacing:normal;word-spacing:normal;text-transform:none;direction:ltr;block-progression:tb;writing-mode:lr-tb;text-anchor:start;baseline-shift:baseline;color:#000000;fill:#2c5aa0;fill-opacity:1;stroke:#000000;stroke-width:4;stroke-linejoin:round;stroke-miterlimit:4;stroke-opacity:1;stroke-dasharray:none;marker:none;visibility:visible;display:inline;overflow:visible;enable-background:accumulate;font-family:Sans;-inkscape-font-specification:Sans"
       d="m 82.157216,47.172005 -28,7.125 c -0.23164,10.00226 1.19098,21.73645 2.28125,33.3125 1.09027,11.57605 1.71567,23.108865 1.09375,28.187505 -1.77004,14.45366 -1.38656,28.08514 -1.34375,41.34376 l 0.0312,15 30,-0.0937 -0.0312,-15 c -0.0442,-13.6863 0.38448,-14.36074 1.80086,-25.92649 0.1659,-1.35478 -0.51786,-14.43752 -0.42586,-15.82352 -2.183183,-15.308545 0.718983,-56.68844 -5.40625,-68.125055 z m 39.718744,125.101775 28.4375,-0.16545 c 1.34268,-17.8381 -1.3652,-38.05529 -1.125,-45.18626 0.2579,-7.66331 -0.72333,-13.66375 -1.125,-17.68751 -0.40168,-4.02376 -0.36996,-5.75405 0.34375,-8.125 4.81903,-16.009035 2.04915,-30.027725 2.8125,-38.843755 l 1.28125,-14.9375 -29.875,-2.59375 0,-5e-5 -1.3125,14.96875 c -1.24803,14.41371 0.33828,26.12409 -1.65625,32.75 -1.48945,4.94803 -1.71785,9.453815 -1.65625,13.593755 0,0 -2.42979,53.34494 3.875,66.22677 z"
       id="path3608-3-7"
       inkscape:connector-curvature="0"
       sodipodi:nodetypes="ccssccccscccccsscccccscc" />
    <path
       style="fill:none;stroke:#000000;stroke-width:3;stroke-linecap:round;stroke-linejoin:round;stroke-miterlimit:4;stroke-opacity:1;stroke-dasharray:none"
       d="m 6.6025079,179.30463 c 0,0 0.517396,-4.77386 2.982358,-4.98423 2.5464061,-0.21732 5.5325231,-0.65915 7.1493701,-1.5574 3.181976,-1.76777 14.849242,-0.7071 14.849242,-0.7071 0,0 10.960155,0.7071 12.374369,0.7071 1.414214,0 4.242641,-1.41421 5.656854,-1.41421 1.414214,0 5.303301,1.06066 6.717515,1.06066 1.414213,0 28.448483,0.51777 28.448483,0.51777 l 4.43198,-1.57843 25.455851,0.70711 6.0104,0.35355 c 0,0 14.14214,1.41421 16.97057,1.06066 2.82842,-0.35355 26.5165,-1.06066 26.5165,-1.06066 l 15.2028,1.41421 9.19239,-2.47487 12.72792,1.06066 c 0,0 18.73833,-1.76777 21.2132,-1.76777 2.47488,0 17.32412,0.35356 17.32412,0.35356 l 12.37437,2.82842 9.89949,-0.7071 c 0,0 1.06066,3.88908 -0.35355,5.3033"
       id="path8010"
       inkscape:connector-curvature="0"
       sodipodi:nodetypes="csscsssccccsccccscccc" />
    <g
       id="g10556"
       transform="matrix(2.0175083,0,0,1.8152343,-147.0768,-140.66267)">
      <path
         sodipodi:nodetypes="csscc"
         inkscape:connector-curvature="0"
         id="path10541"
         d="m 164.99289,171.33517 c 1.19204,-0.4649 4.79513,0.3338 6.07775,0.5361 1.83333,0.2893 2.01568,-0.8172 2.19642,-2.1797 0.10872,-0.8169 0.49977,-2.4524 -0.99526,-2.7001 -1.37638,-0.2978 -1.16561,0.01 -2.40323,-0.7814"
         style="fill:#333333;stroke:#000000;stroke-width:0.93000001;stroke-linecap:round;stroke-linejoin:miter;stroke-miterlimit:4;stroke-opacity:1;stroke-dasharray:none" />
      <path
         sodipodi:nodetypes="cccccc"
         inkscape:connector-curvature="0"
         id="path10528"
         d="m 161.82853,162.18086 c 1.04336,0.51016 2.13399,0.91617 3.16941,1.43585 1.65828,0.62046 3.47471,0.63429 5.20763,0.4234 1.81749,-0.25868 1.1457,-1.83002 0.90742,-2.93072 -0.25208,-1.53225 -2.37099,-1.56578 -3.60565,-1.93598 -0.65748,-0.38944 -1.73623,-0.38783 -1.97129,-1.25832"
         style="fill:#333333;stroke:#000000;stroke-width:0.93000001;stroke-linecap:round;stroke-linejoin:miter;stroke-miterlimit:4;stroke-opacity:1;stroke-dasharray:none" />
      <g
         transform="matrix(0.94012638,-0.34082605,0.34082605,0.94012638,-46.335769,66.124074)"
         id="g10530">
        <path
           sodipodi:nodetypes="sscssccss"
           inkscape:connector-curvature="0"
           id="path2985-6-6-0-8-7-5-9-4-7"
           d="m 159.12676,142.64977 c -5.22898,0.5457 -9.72442,4.4602 -8.87669,9.1224 0.78398,4.3114 0.61072,3.6456 2.4852,7.026 0.13356,1.45 0.6151,2.9343 0.77316,4.5823 0.53248,5.5516 4.66863,9.697 9.25198,9.2574 4.58337,-0.4396 8.18291,-4.628 7.52043,-10.1656 -0.22186,-1.8542 -0.41917,-3.4009 -0.63217,-4.9169 1.07719,-3.1806 0.90764,-6.0503 0.18584,-8.8967 -1.62531,-6.409 -6.48492,-6.45 -10.70775,-6.0089 z"
           style="fill:#333333;stroke:#000000;stroke-width:0.93000001;stroke-miterlimit:4;stroke-opacity:1;stroke-dasharray:none" />
        <path
           inkscape:connector-curvature="0"
           id="path4358-8-7-7-5-16-9"
           d="m 149.85225,149.52747 c 3.31639,-0.5311 6.48232,-1.7597 9.70608,-2.6805 2.44849,-0.8626 5.06864,-1.3935 7.35593,-2.6065 1.40949,-0.613 3.5656,1.7603 1.96173,2.7287 -1.51711,0.431 -3.02753,0.873 -4.51467,1.4205 -3.07584,1.1041 -6.30276,1.6176 -9.4749,2.3457 -1.67939,0.3529 -3.26117,1.1791 -4.97264,1.3202 -1.07912,-0.2994 -0.21465,-1.8657 -0.0615,-2.5281 z"
           style="fill:#e3dbdb;fill-opacity:1;stroke:#000000;stroke-width:0.92993885;stroke-linecap:butt;stroke-linejoin:miter;stroke-miterlimit:4;stroke-opacity:1;stroke-dasharray:none" />
        <g
           style="stroke-width:2.35648537;stroke-miterlimit:4;stroke-dasharray:none"
           transform="matrix(0.39346601,0.03028217,-0.03028217,0.39346601,-41.090369,49.820303)"
           id="g4319-3-7-61">
          <path
             style="fill:#e9c6af;stroke:#000000;stroke-width:2.35664034;stroke-linecap:butt;stroke-linejoin:miter;stroke-miterlimit:4;stroke-opacity:1;stroke-dasharray:none"
             d="m 526.60758,225.66459 c 1.30376,7.17526 8.90089,4.97545 13.86986,4.54096 5.62963,-0.49226 11.99791,2.60399 13.60797,-3.16891 2.50066,-8.96618 -7.10574,-7.93813 -12.22627,-6.72513 -5.04069,1.19408 -11.83708,-4.38075 -15.28916,1.71943 -0.6144,1.08571 -0.18761,2.3942 0.0376,3.63365 z"
             id="path4029-4-1-1-4-3"
             inkscape:connector-curvature="0"
             sodipodi:nodetypes="ssssss" />
          <path
             style="fill:#000000;fill-opacity:1;stroke:#000000;stroke-width:0.86041123;stroke-linecap:butt;stroke-linejoin:miter;stroke-miterlimit:4;stroke-opacity:1;stroke-dasharray:none"
             d="m 535.5293,227.02546 c -0.61347,0.0643 -1.15374,0.11268 -0.89467,0.21385 0.23212,0.0969 0.87886,0.18766 1.83343,0.18372 1.07867,0.023 1.78743,-0.1043 1.98013,-0.21142 0.41066,-0.10141 0.19005,-0.17429 -0.84918,-0.24424 -0.51218,-0.0345 -1.52576,-0.003 -2.0696,0.0584 z"
             id="path4057-1-3-8-1-8"
             inkscape:connector-curvature="0"
             sodipodi:nodetypes="ccccsc" />
          <path
             sodipodi:nodetypes="ccccsc"
             inkscape:connector-curvature="0"
             id="path10554"
             d="m 546.75377,226.85633 c -0.61347,0.0643 -1.15374,0.11268 -0.89467,0.21385 0.23212,0.0969 0.87886,0.18766 1.83343,0.18372 1.07867,0.023 1.78743,-0.1043 1.98013,-0.21142 0.41066,-0.10141 0.19005,-0.17429 -0.84918,-0.24424 -0.51218,-0.0345 -1.52576,-0.003 -2.0696,0.0584 z"
             style="fill:#000000;fill-opacity:1;stroke:#000000;stroke-width:0.86041123;stroke-linecap:butt;stroke-linejoin:miter;stroke-miterlimit:4;stroke-opacity:1;stroke-dasharray:none" />
        </g>
      </g>
      <path
         style="fill:#333333;stroke:#000000;stroke-width:0.93000001;stroke-linecap:round;stroke-linejoin:miter;stroke-miterlimit:4;stroke-opacity:1;stroke-dasharray:none"
         d="m 160.75789,166.46283 c 1.16052,0.0454 2.32222,-0.0236 3.47932,0.0337 1.76761,-0.10203 3.43494,-0.8229 4.93511,-1.71563 1.55824,-0.9706 0.30912,-2.13682 -0.35335,-3.04757 -0.84938,-1.29996 -2.80137,-0.47497 -4.08038,-0.31505 -0.75876,-0.0908 -1.74499,0.34634 -2.31155,-0.3551"
         id="path4051-8-1-8-8-3-8-0-1-4"
         inkscape:connector-curvature="0"
         sodipodi:nodetypes="cccccc" />
      <path
         style="fill:#333333;stroke:#000000;stroke-width:0.93000001;stroke-linecap:round;stroke-linejoin:miter;stroke-miterlimit:4;stroke-opacity:1;stroke-dasharray:none"
         d="m 163.36789,173.33517 c 1.19204,-0.4649 4.79513,0.3338 6.07775,0.5361 1.83333,0.2893 2.01568,-0.8172 2.19642,-2.1797 0.10872,-0.8169 0.49977,-2.4524 -0.99526,-2.7001 -1.37638,-0.2978 -1.16561,0.01 -2.40323,-0.7814"
         id="path4025-5-4-4-6-7-0-2-39-9"
         inkscape:connector-curvature="0"
         sodipodi:nodetypes="csscc" />
      <g
         style="stroke-width:0.82171625;stroke-miterlimit:4;stroke-dasharray:none"
         transform="matrix(0.98329744,0.13459647,-0.22156306,1.4758327,-2.1883747,-89.073796)"
         id="g10549">
        <path
           style="fill:#bf9300;fill-opacity:1;stroke:#000000;stroke-width:0.82171625;stroke-linecap:round;stroke-linejoin:round;stroke-miterlimit:4;stroke-opacity:1;stroke-dasharray:none"
           d="m 218.57391,186.18432 c 0.34846,3.36263 3.22016,5.14249 6.7626,6.24359 5.0869,1.36103 15.01236,2.37603 22.82142,0.83061 1.80142,-0.65987 3.66668,-1.62284 4.71707,-2.85303 0.75063,-0.87912 1.7933,-3.06932 0.91487,-2.98054 -11.62779,1.17524 -24.73481,-0.58614 -35.21596,-1.24063 z"
           id="path10547"
           inkscape:connector-curvature="0"
           transform="translate(-41.778851,-46.325574)"
           sodipodi:nodetypes="cccasc" />
        <path
           style="fill:#d4a300;fill-opacity:1;stroke:#000000;stroke-width:0.82171625;stroke-linecap:round;stroke-linejoin:round;stroke-miterlimit:4;stroke-opacity:1;stroke-dasharray:none"
           d="m 180.63665,137.84893 c 6.60722,1.45851 22.63195,3.37429 26.9595,1.98099 5.24455,-1.96644 6.64314,0.41884 3.25,3.5 -3.06992,2.90283 -11.37222,3.40246 -18.75,2.75 -5.87431,-0.58907 -10.95212,-1.85923 -13.375,-3.625 -4.48754,-3.27048 -0.71507,-5.09898 1.9155,-4.60599 z"
           id="path10543"
           inkscape:connector-curvature="0"
           sodipodi:nodetypes="ccccsc" />
        <path
           style="fill:#d4a300;fill-opacity:1;stroke:#000000;stroke-width:0.82171625;stroke-linecap:round;stroke-linejoin:round;stroke-miterlimit:4;stroke-opacity:1;stroke-dasharray:none"
           d="m 186.22115,141.57992 c 3.28377,0.72866 4.82994,-5.07255 8,-5.375 2.82919,-0.13726 2.73452,2.30304 4.25,4 1.51548,1.69696 2.54152,1.94866 4.625,2.75"
           id="path10545"
           inkscape:connector-curvature="0"
           sodipodi:nodetypes="cczc" />
      </g>
    </g>
  </g>
  <g
     inkscape:label="Layer 1"
     inkscape:groupmode="layer"
     id="layer1"
     transform="translate(41.778851,-616.26838)" />
</svg>
