<?xml version="1.0" encoding="UTF-8" standalone="no"?>
<!-- Created with Inkscape (http://www.inkscape.org/) -->

<svg
   xmlns:dc="http://purl.org/dc/elements/1.1/"
   xmlns:cc="http://creativecommons.org/ns#"
   xmlns:rdf="http://www.w3.org/1999/02/22-rdf-syntax-ns#"
   xmlns:svg="http://www.w3.org/2000/svg"
   xmlns="http://www.w3.org/2000/svg"
   xmlns:sodipodi="http://sodipodi.sourceforge.net/DTD/sodipodi-0.dtd"
   xmlns:inkscape="http://www.inkscape.org/namespaces/inkscape"
   width="100"
   height="100"
   id="svg2"
   version="1.1"
   inkscape:version="0.48.5 r10040"
   sodipodi:docname="shadersButton.svg"
   inkscape:export-filename="/home/micha/Programmieren/git/platformer/images/menu/startOn.png"
   inkscape:export-xdpi="90"
   inkscape:export-ydpi="90">
  <sodipodi:namedview
     id="base"
     pagecolor="#000000"
     bordercolor="#666666"
     borderopacity="1.0"
     inkscape:pageopacity="0.0"
     inkscape:pageshadow="2"
     inkscape:zoom="5.6568542"
     inkscape:cx="63.652006"
     inkscape:cy="64.456886"
     inkscape:document-units="px"
     inkscape:current-layer="layer1"
     showgrid="true"
     inkscape:showpageshadow="true"
     inkscape:window-width="1916"
     inkscape:window-height="1057"
     inkscape:window-x="0"
     inkscape:window-y="19"
     inkscape:window-maximized="1"
     fit-margin-top="5"
     fit-margin-left="5"
     fit-margin-right="5"
     fit-margin-bottom="5"
     inkscape:snap-global="false">
    <inkscape:grid
       type="xygrid"
       id="grid2985"
       empspacing="5"
       visible="true"
       enabled="true"
       snapvisiblegridlinesonly="true"
       spacingx="10px"
       spacingy="10px"
       originx="0px"
       originy="0px" />
  </sodipodi:namedview>
  <defs
     id="defs4">
    <marker
       inkscape:stockid="Arrow2Mstart"
       orient="auto"
       refY="0"
       refX="0"
       id="Arrow2Mstart"
       style="overflow:visible">
      <path
         id="path4647"
         style="fill-rule:evenodd;stroke-width:0.625;stroke-linejoin:round"
         d="M 8.7185878,4.0337352 -2.2072895,0.01601326 8.7185884,-4.0017078 c -1.7454984,2.3720609 -1.7354408,5.6174519 -6e-7,8.035443 z"
         transform="scale(0.6,0.6)"
         inkscape:connector-curvature="0" />
    </marker>
    <marker
       inkscape:stockid="Arrow2Sstart"
       orient="auto"
       refY="0"
       refX="0"
       id="Arrow2Sstart"
       style="overflow:visible">
      <path
         id="path4653"
         style="fill-rule:evenodd;stroke-width:0.625;stroke-linejoin:round"
         d="M 8.7185878,4.0337352 -2.2072895,0.01601326 8.7185884,-4.0017078 c -1.7454984,2.3720609 -1.7354408,5.6174519 -6e-7,8.035443 z"
         transform="matrix(0.3,0,0,0.3,-0.69,0)"
         inkscape:connector-curvature="0" />
    </marker>
    <marker
       inkscape:stockid="Arrow2Send"
       orient="auto"
       refY="0"
       refX="0"
       id="Arrow2Send"
       style="overflow:visible">
      <path
         id="path4656"
         style="fill-rule:evenodd;stroke-width:0.625;stroke-linejoin:round"
         d="M 8.7185878,4.0337352 -2.2072895,0.01601326 8.7185884,-4.0017078 c -1.7454984,2.3720609 -1.7354408,5.6174519 -6e-7,8.035443 z"
         transform="matrix(-0.3,0,0,-0.3,0.69,0)"
         inkscape:connector-curvature="0" />
    </marker>
    <marker
       inkscape:stockid="Arrow1Sstart"
       orient="auto"
       refY="0"
       refX="0"
       id="Arrow1Sstart"
       style="overflow:visible">
      <path
         id="path4635"
         d="M 0,0 5,-5 -12.5,0 5,5 0,0 z"
         style="fill-rule:evenodd;stroke:#000000;stroke-width:1pt"
         transform="matrix(0.2,0,0,0.2,1.2,0)"
         inkscape:connector-curvature="0" />
    </marker>
    <marker
       inkscape:stockid="Arrow1Lstart"
       orient="auto"
       refY="0"
       refX="0"
       id="Arrow1Lstart"
       style="overflow:visible">
      <path
         id="path4623"
         d="M 0,0 5,-5 -12.5,0 5,5 0,0 z"
         style="fill-rule:evenodd;stroke:#000000;stroke-width:1pt"
         transform="matrix(0.8,0,0,0.8,10,0)"
         inkscape:connector-curvature="0" />
    </marker>
    <clipPath
       id="clipPath10511"
       clipPathUnits="userSpaceOnUse">
      <rect
         y="-354.22156"
         x="239.03702"
         height="46.797756"
         width="46.797756"
         id="rect10513"
         style="fill:#335f3a;fill-opacity:0.45882353;stroke:none" />
    </clipPath>
    <linearGradient
       id="linearGradient5623-7-8">
      <stop
         id="stop5625-4-8"
         offset="0"
         style="stop-color:#ff4957;stop-opacity:1;" />
      <stop
         id="stop5627-0-2"
         offset="1"
         style="stop-color:#c88f47;stop-opacity:1;" />
    </linearGradient>
    <linearGradient
       id="linearGradient36087">
      <stop
         id="stop36089"
         offset="0"
         style="stop-color:#ff4957;stop-opacity:1;" />
      <stop
         id="stop36091"
         offset="1"
         style="stop-color:#c88f47;stop-opacity:1;" />
    </linearGradient>
    <clipPath
       clipPathUnits="userSpaceOnUse"
       id="clipPath37295">
      <path
         style="fill:#089500;fill-opacity:1;fill-rule:nonzero;stroke:#000000;stroke-width:0.5;stroke-linecap:round;stroke-linejoin:round;stroke-miterlimit:4;stroke-opacity:1;stroke-dasharray:none;stroke-dashoffset:0"
         d="m 29.650716,1051.7267 0.25,42.5 9.25,0.25 c 1.363924,-7.9135 2.217717,-21.4384 2.25,-44 z"
         id="path37297"
         inkscape:connector-curvature="0"
         sodipodi:nodetypes="ccccc" />
    </clipPath>
    <clipPath
       clipPathUnits="userSpaceOnUse"
       id="clipPath37719">
      <path
         style="fill:#089500;fill-opacity:1;fill-rule:nonzero;stroke:#000000;stroke-width:0.5;stroke-linecap:round;stroke-linejoin:round;stroke-miterlimit:4;stroke-opacity:1;stroke-dasharray:none;stroke-dashoffset:0"
         d="m 29.650716,1051.7267 0.25,42.5 14.742194,0.1616 c 1.363924,-7.9135 4.073873,-20.6429 4.106156,-43.2045 z"
         id="path37721"
         inkscape:connector-curvature="0"
         sodipodi:nodetypes="ccccc" />
    </clipPath>
    <clipPath
       clipPathUnits="userSpaceOnUse"
       id="clipPath37723">
      <path
         sodipodi:nodetypes="ccccc"
         inkscape:connector-curvature="0"
         id="path37725"
         d="m 29.65072,1051.7267 0.25,42.5 24.74219,0.1616 c 1.36392,-7.9135 4.07387,-20.6429 4.10616,-43.2045 z"
         style="fill:#089500;fill-opacity:1;fill-rule:nonzero;stroke:#000000;stroke-width:0.5;stroke-linecap:round;stroke-linejoin:round;stroke-miterlimit:4;stroke-opacity:1;stroke-dasharray:none;stroke-dashoffset:0" />
    </clipPath>
    <clipPath
       clipPathUnits="userSpaceOnUse"
       id="clipPath37727">
      <path
         style="fill:#089500;fill-opacity:1;fill-rule:nonzero;stroke:#000000;stroke-width:0.5;stroke-linecap:round;stroke-linejoin:round;stroke-miterlimit:4;stroke-opacity:1;stroke-dasharray:none;stroke-dashoffset:0"
         d="m 29.65072,1051.7267 0.25,42.5 34.74219,0.1616 c 1.36392,-7.9135 4.07387,-20.6429 4.10616,-43.2045 z"
         id="path37729"
         inkscape:connector-curvature="0"
         sodipodi:nodetypes="ccccc" />
    </clipPath>
    <clipPath
       clipPathUnits="userSpaceOnUse"
       id="clipPath37734">
      <path
         sodipodi:nodetypes="ccccc"
         inkscape:connector-curvature="0"
         id="path37736"
         d="m 29.650716,1051.7267 0.25,42.5 4.742194,0.1616 c 1.363924,-7.9135 4.073873,-20.6429 4.106156,-43.2045 z"
         style="fill:#089500;fill-opacity:1;fill-rule:nonzero;stroke:#000000;stroke-width:0.5;stroke-linecap:round;stroke-linejoin:round;stroke-miterlimit:4;stroke-opacity:1;stroke-dasharray:none;stroke-dashoffset:0" />
    </clipPath>
    <filter
       id="filter4613"
       inkscape:label="Desaturate"
       x="0"
       y="0"
       width="1"
       height="1"
       inkscape:menu="Color"
       inkscape:menu-tooltip="Render in shades of gray by reducing saturation to zero"
       color-interpolation-filters="sRGB">
      <feColorMatrix
         id="feColorMatrix4615"
         type="saturate"
         values="0" />
    </filter>
    <filter
       inkscape:label="Desaturate"
       x="0"
       y="0"
       width="1"
       height="1"
       inkscape:menu="Color"
       inkscape:menu-tooltip="Render in shades of gray by reducing saturation to zero"
       color-interpolation-filters="sRGB"
       id="filter4654">
      <feColorMatrix
         type="saturate"
         values="0"
         id="feColorMatrix4656" />
    </filter>
    <clipPath
       clipPathUnits="userSpaceOnUse"
       id="clipPath5230">
      <rect
         style="fill:none;stroke:#5599ff;stroke-width:0.5;stroke-linecap:round;stroke-linejoin:round;stroke-miterlimit:4;stroke-opacity:1;stroke-dasharray:none;stroke-dashoffset:0"
         id="rect5232"
         width="14.1875"
         height="11.1875"
         x="7.8694649"
         y="1027.3204"
         ry="0" />
    </clipPath>
  </defs>
  <metadata
     id="metadata7">
    <rdf:RDF>
      <cc:Work
         rdf:about="">
        <dc:format>image/svg+xml</dc:format>
        <dc:type
           rdf:resource="http://purl.org/dc/dcmitype/StillImage" />
        <dc:title></dc:title>
      </cc:Work>
    </rdf:RDF>
  </metadata>
  <g
     inkscape:label="Ebene 1"
     inkscape:groupmode="layer"
     id="layer1"
     transform="translate(21.349284,-946.9767)">
    <g
       style="fill:#cccccc;fill-opacity:1"
       id="g3215"
       transform="translate(50,200)">
      <path
         style="fill:#cccccc;fill-opacity:1;stroke:#000000;stroke-width:2;stroke-linejoin:round;stroke-miterlimit:4;stroke-opacity:1"
         d="m -14.631769,955.1085 7.6897858,0 c 15.2131497,0.6307 25.7412182,-0.031 29.0797642,0 1.762743,0.016 3.208116,1.4194 3.18198,3.182 -0.143304,9.6643 0.19193,21.2575 0,28.9914 -0.04373,1.7623 -1.41918,3.1741 -3.18198,3.182 -12.1641967,0.054 -23.5889115,0.6634 -36.592773,0.088 -1.761089,-0.078 -3.195782,-1.0657 -3.18198,-2.8285 0.252217,-32.2133 -0.117851,-19.6222 -0.176777,-29.4333 -0.01059,-1.7628 1.419163,-3.182 3.18198,-3.182 z"
         id="path3217"
         inkscape:connector-curvature="0"
         sodipodi:nodetypes="ccssssssssc" />
    </g>
    <g
       id="g3253"
       transform="translate(69.622213,180.93592)">
      <path
         sodipodi:nodetypes="ccssssssssc"
         inkscape:connector-curvature="0"
         id="path3255"
         d="m -32.031295,979.11883 3.722385,0 c 7.364206,0.3053 12.460508,-0.015 14.076595,0 0.853287,0.008 1.552949,0.68708 1.540296,1.54032 -0.06937,4.67819 0.09291,10.29009 0,14.03382 -0.02115,0.85307 -0.68698,1.53648 -1.540296,1.54031 -5.888306,0.0261 -11.418648,0.32113 -17.713407,0.0426 -0.852488,-0.0378 -1.546976,-0.51588 -1.540296,-1.36919 0.122092,-15.59346 -0.05705,-9.49849 -0.08557,-14.24773 -0.0051,-0.85334 0.686971,-1.54033 1.540297,-1.54033 z"
         style="fill:#959595;stroke:none" />
      <path
         style="fill:#afafaf;stroke:none"
         d="m -33.316504,985.16641 -0.181525,10.16543 0.847119,0.78662 4.265854,0.36305 14.703582,-0.36305 1.119408,-0.87738 -0.06051,-8.07789 -3.721276,-2.63212 -2.480851,-0.03 -3.993565,2.32958 -5.899586,-2.14805 z"
         id="path3257"
         inkscape:connector-curvature="0" />
      <path
         style="fill:none;stroke:#000000;stroke-width:0.48406848;stroke-linecap:round;stroke-linejoin:round;stroke-miterlimit:4;stroke-opacity:1;stroke-dasharray:none;stroke-dashoffset:0"
         d="m -33.229303,985.02327 c 3.077116,-0.7429 6.523609,0.0266 10.522227,1.89106 6.241065,-5.1819 7.356078,-1.0163 10.015057,0.33382"
         id="path3259"
         inkscape:connector-curvature="0"
         sodipodi:nodetypes="ccc" />
      <path
         style="fill:none;stroke:#000000;stroke-width:0.96813697;stroke-linejoin:round;stroke-miterlimit:4;stroke-opacity:1"
         d="m -32.031295,979.11883 3.722385,0 c 7.364206,0.3053 12.460508,-0.015 14.076595,0 0.853287,0.008 1.552949,0.68708 1.540296,1.54032 -0.06937,4.67819 0.09291,10.29009 0,14.03382 -0.02115,0.85307 -0.68698,1.53648 -1.540296,1.54031 -5.888306,0.0261 -11.418648,0.32113 -17.713407,0.0426 -0.852488,-0.0378 -1.546976,-0.51588 -1.540296,-1.36919 0.122092,-15.59346 -0.05705,-9.49849 -0.08557,-14.24773 -0.0051,-0.85334 0.686971,-1.54033 1.540297,-1.54033 z"
         id="path3261"
         inkscape:connector-curvature="0"
         sodipodi:nodetypes="ccssssssssc" />
      <path
         style="fill:#5a5a5a;fill-opacity:1;fill-rule:nonzero;stroke:#000000;stroke-width:0.48406848;stroke-linecap:round;stroke-linejoin:round;stroke-miterlimit:4;stroke-opacity:1;stroke-dasharray:none;stroke-dashoffset:0"
         d="m -30.54557,994.26336 c -0.355518,0.0397 -1.77759,-0.79005 -1.77759,-0.79005 -0.17912,-0.0597 -0.76765,-2.0598 -0.632032,-2.37014 0.142371,-0.32573 0.711035,-1.42205 0.711035,-1.42205 l 2.054105,4.46369 z"
         id="path3263"
         inkscape:connector-curvature="0"
         sodipodi:nodetypes="ccsccc" />
      <path
         style="fill:#5a5a5a;fill-opacity:1;fill-rule:nonzero;stroke:#000000;stroke-width:0.48406848;stroke-linecap:round;stroke-linejoin:round;stroke-miterlimit:4;stroke-opacity:1;stroke-dasharray:none;stroke-dashoffset:0"
         d="m -29.75553,992.40672 -1.343068,3.87124 0.908546,0 1.145557,-3.83169 z"
         id="path3265"
         inkscape:connector-curvature="0" />
      <path
         style="fill:#929292;fill-opacity:1;fill-rule:nonzero;stroke:#000000;stroke-width:0.48406848;stroke-linecap:round;stroke-linejoin:round;stroke-miterlimit:4;stroke-opacity:1;stroke-dasharray:none;stroke-dashoffset:0"
         d="m -28.641498,987.62867 c -0.433048,0.0266 -0.808825,0.44443 -1.061421,1.08935 -0.700922,-0.14817 -1.26699,-0.0522 -1.515318,0.32123 -0.130743,0.19658 -0.157068,0.44873 -0.09776,0.73322 -0.428324,0.23855 -0.684337,0.53557 -0.684337,0.85888 0,0.38697 0.358937,0.73574 0.949692,0.99162 -0.200293,0.56253 -0.184897,1.04006 0.09776,1.31279 0.277965,0.26817 0.760317,0.29189 1.326777,0.10475 0.309018,0.74687 0.758185,1.20973 1.24298,1.18011 0.433942,-0.0266 0.808814,-0.44215 1.061421,-1.08935 0.700922,0.14817 1.26699,0.0522 1.515318,-0.32122 0.221166,-0.33251 0.148225,-0.82481 -0.146644,-1.36169 0.387336,-0.23167 0.614507,-0.51108 0.614507,-0.81701 0,-0.38048 -0.348311,-0.72988 -0.92176,-0.98459 0.133658,-0.48141 0.0902,-0.88929 -0.16061,-1.13127 -0.25465,-0.24567 -0.681602,-0.27921 -1.187116,-0.13966 -0.287299,-0.48736 -0.6511,-0.77054 -1.033489,-0.74716 z"
         id="path3267"
         inkscape:connector-curvature="0" />
      <path
         sodipodi:type="arc"
         style="fill:#d0d0d0;fill-opacity:1;fill-rule:nonzero;stroke:#000000;stroke-width:1.08313537;stroke-linecap:round;stroke-linejoin:round;stroke-miterlimit:4;stroke-opacity:1;stroke-dasharray:none;stroke-dashoffset:0"
         id="path3269"
         sodipodi:cx="105.62408"
         sodipodi:cy="86.327614"
         sodipodi:rx="3.9774756"
         sodipodi:ry="2.9168155"
         d="m 109.60155,86.327614 a 3.9774756,2.9168155 0 1 1 -7.95495,0 3.9774756,2.9168155 0 1 1 7.95495,0 z"
         transform="matrix(0.22345707,0,0,0.22345707,-52.034659,971.47688)" />
      <path
         sodipodi:nodetypes="ccccc"
         inkscape:connector-curvature="0"
         id="path3271"
         d="m -24.073834,993.25384 1.101033,3.08463 -1.02956,0.0605 -0.782507,-3.10559 z"
         style="fill:#5a5a5a;fill-opacity:1;fill-rule:nonzero;stroke:#000000;stroke-width:0.48406848;stroke-linecap:round;stroke-linejoin:round;stroke-miterlimit:4;stroke-opacity:1;stroke-dasharray:none;stroke-dashoffset:0" />
      <path
         inkscape:connector-curvature="0"
         id="path3273"
         d="m -24.03491,989.41285 c 0.382003,0.0228 0.713478,0.38334 0.9363,0.93963 0.618296,-0.12779 1.117636,-0.045 1.336692,0.27708 0.115329,0.16957 0.13855,0.38706 0.08624,0.63244 0.377835,0.20577 0.603667,0.46199 0.603667,0.74086 0,0.33377 -0.316624,0.63462 -0.837743,0.8553 0.176685,0.48523 0.163102,0.89717 -0.08624,1.13238 -0.245195,0.23134 -0.670692,0.25181 -1.170376,0.0904 -0.272589,0.6442 -0.668809,1.04346 -1.096454,1.0179 -0.382792,-0.0227 -0.713472,-0.38135 -0.936302,-0.93962 -0.618297,0.12779 -1.117637,0.045 -1.336691,-0.27708 -0.195095,-0.28681 -0.130753,-0.71143 0.129357,-1.17454 -0.341677,-0.19982 -0.542068,-0.44084 -0.542068,-0.70471 0,-0.3282 0.307252,-0.62958 0.813102,-0.8493 -0.117903,-0.41523 -0.07956,-0.76705 0.141677,-0.97578 0.224632,-0.21193 0.601254,-0.24083 1.047178,-0.12049 0.253434,-0.42036 0.574348,-0.66462 0.911661,-0.64444 z"
         style="fill:#929292;fill-opacity:1;fill-rule:nonzero;stroke:#000000;stroke-width:0.48406848;stroke-linecap:round;stroke-linejoin:round;stroke-miterlimit:4;stroke-opacity:1;stroke-dasharray:none;stroke-dashoffset:0" />
      <path
         transform="matrix(-0.13409011,-0.0767756,-0.11527862,0.15322812,-0.05698124,987.11624)"
         d="m 109.60155,86.327614 a 3.9774756,2.9168155 0 1 1 -7.95495,0 3.9774756,2.9168155 0 1 1 7.95495,0 z"
         sodipodi:ry="2.9168155"
         sodipodi:rx="3.9774756"
         sodipodi:cy="86.327614"
         sodipodi:cx="105.62408"
         id="path3275"
         style="fill:#d0d0d0;fill-opacity:1;fill-rule:nonzero;stroke:#000000;stroke-width:1.41164529;stroke-linecap:round;stroke-linejoin:round;stroke-miterlimit:4;stroke-opacity:1;stroke-dasharray:none;stroke-dashoffset:0"
         sodipodi:type="arc" />
      <path
         style="fill:#00ccff;stroke:none"
         d="m -32.031295,979.11883 3.722383,0 c 7.364208,0.3053 12.46051,-0.015 14.076597,0 0.853287,0.008 1.552949,0.68708 1.540296,1.54032 -0.06937,4.67819 0.09291,10.29009 0,14.03382 -0.02115,0.85307 -0.68698,1.53648 -1.540296,1.54031 -5.888306,0.0261 -11.418648,0.32113 -17.713407,0.0426 -0.852488,-0.0378 -1.546977,-0.51588 -1.540296,-1.36919 0.12209,-15.59346 -0.05705,-9.49849 -0.08557,-14.24773 -0.0051,-0.85334 0.686972,-1.54033 1.540296,-1.54033 z"
         id="path3277"
         inkscape:connector-curvature="0"
         sodipodi:nodetypes="ccssssssssc" />
      <g
         id="g3279"
         transform="matrix(0.48406848,0,0,0.48406848,-24.948519,468.37408)">
        <path
           style="fill:#abc837;stroke:none"
           d="m 4.0625,70.625 -0.375,21 1.75,1.625 L 14.25,94 44.625,93.25 46.9375,91.4375 46.8125,74.75 39.125,69.3125 34,69.25 25.75,74.0625 13.5625,69.625 z"
           id="path3281"
           inkscape:connector-curvature="0"
           transform="translate(-21.349284,996.9767)" />
        <path
           style="fill:none;stroke:#000000;stroke-width:1;stroke-linecap:round;stroke-linejoin:round;stroke-miterlimit:4;stroke-opacity:1;stroke-dasharray:none;stroke-dashoffset:0"
           d="M 4.2426407,70.32932 C 10.599419,68.794565 17.719266,70.384089 25.9797,74.235869 38.872648,63.53096 41.176064,72.136373 46.669048,74.925514"
           id="path3283"
           inkscape:connector-curvature="0"
           transform="translate(-21.349284,996.9767)"
           sodipodi:nodetypes="ccc" />
      </g>
      <path
         sodipodi:nodetypes="ccssssssssc"
         inkscape:connector-curvature="0"
         id="path3285"
         d="m -32.031295,979.11883 3.722383,0 c 7.364208,0.3053 12.46051,-0.015 14.076597,0 0.853287,0.008 1.552949,0.68708 1.540296,1.54032 -0.06937,4.67819 0.09291,10.29009 0,14.03382 -0.02115,0.85307 -0.68698,1.53648 -1.540296,1.54031 -5.888306,0.0261 -11.418648,0.32113 -17.713407,0.0426 -0.852488,-0.0378 -1.546977,-0.51588 -1.540296,-1.36919 0.12209,-15.59346 -0.05705,-9.49849 -0.08557,-14.24773 -0.0051,-0.85334 0.686972,-1.54033 1.540296,-1.54033 z"
         style="fill:none;stroke:#000000;stroke-width:0.96813697;stroke-linejoin:round;stroke-miterlimit:4;stroke-opacity:1" />
    </g>
    <g
       style="fill:#cccccc;fill-opacity:1"
       transform="translate(100,200)"
       id="g3299">
      <path
         sodipodi:nodetypes="ccssssssssc"
         inkscape:connector-curvature="0"
         id="path3301"
         d="m -14.631769,955.1085 7.6897858,0 c 15.2131497,0.6307 25.7412182,-0.031 29.0797642,0 1.762743,0.016 3.208116,1.4194 3.18198,3.182 -0.143304,9.6643 0.19193,21.2575 0,28.9914 -0.04373,1.7623 -1.41918,3.1741 -3.18198,3.182 -12.1641967,0.054 -23.5889115,0.6634 -36.592773,0.088 -1.761089,-0.078 -3.195782,-1.0657 -3.18198,-2.8285 0.252217,-32.2133 -0.117851,-19.6222 -0.176777,-29.4333 -0.01059,-1.7628 1.419163,-3.182 3.18198,-3.182 z"
         style="fill:#cccccc;fill-opacity:1;stroke:#000000;stroke-width:2;stroke-linejoin:round;stroke-miterlimit:4;stroke-opacity:1" />
    </g>
    <g
       transform="matrix(1.297112,0,0,1.297112,128.49056,-112.03834)"
       id="g3303">
      <path
         style="fill:#959595;stroke:none"
         d="m -32.031295,979.11883 3.722385,0 c 7.364206,0.3053 12.460508,-0.015 14.076595,0 0.853287,0.008 1.552949,0.68708 1.540296,1.54032 -0.06937,4.67819 0.09291,10.29009 0,14.03382 -0.02115,0.85307 -0.68698,1.53648 -1.540296,1.54031 -5.888306,0.0261 -11.418648,0.32113 -17.713407,0.0426 -0.852488,-0.0378 -1.546976,-0.51588 -1.540296,-1.36919 0.122092,-15.59346 -0.05705,-9.49849 -0.08557,-14.24773 -0.0051,-0.85334 0.686971,-1.54033 1.540297,-1.54033 z"
         id="path3305"
         inkscape:connector-curvature="0"
         sodipodi:nodetypes="ccssssssssc" />
      <path
         inkscape:connector-curvature="0"
         id="path3307"
         d="m -33.316504,985.16641 -0.181525,10.16543 0.847119,0.78662 4.265854,0.36305 14.703582,-0.36305 1.119408,-0.87738 -0.06051,-8.07789 -3.721276,-2.63212 -2.480851,-0.03 -3.993565,2.32958 -5.899586,-2.14805 z"
         style="fill:#afafaf;stroke:none" />
      <path
         sodipodi:nodetypes="ccc"
         inkscape:connector-curvature="0"
         id="path3309"
         d="m -33.229303,985.02327 c 3.077116,-0.7429 6.523609,0.0266 10.522227,1.89106 6.241065,-5.1819 7.356078,-1.0163 10.015057,0.33382"
         style="fill:none;stroke:#000000;stroke-width:0.48406848;stroke-linecap:round;stroke-linejoin:round;stroke-miterlimit:4;stroke-opacity:1;stroke-dasharray:none;stroke-dashoffset:0" />
      <path
         sodipodi:nodetypes="ccssssssssc"
         inkscape:connector-curvature="0"
         id="path3311"
         d="m -32.031295,979.11883 3.722385,0 c 7.364206,0.3053 12.460508,-0.015 14.076595,0 0.853287,0.008 1.552949,0.68708 1.540296,1.54032 -0.06937,4.67819 0.09291,10.29009 0,14.03382 -0.02115,0.85307 -0.68698,1.53648 -1.540296,1.54031 -5.888306,0.0261 -11.418648,0.32113 -17.713407,0.0426 -0.852488,-0.0378 -1.546976,-0.51588 -1.540296,-1.36919 0.122092,-15.59346 -0.05705,-9.49849 -0.08557,-14.24773 -0.0051,-0.85334 0.686971,-1.54033 1.540297,-1.54033 z"
         style="fill:none;stroke:#000000;stroke-width:0.96813697;stroke-linejoin:round;stroke-miterlimit:4;stroke-opacity:1" />
      <path
         sodipodi:nodetypes="ccsccc"
         inkscape:connector-curvature="0"
         id="path3313"
         d="m -30.54557,994.26336 c -0.355518,0.0397 -1.77759,-0.79005 -1.77759,-0.79005 -0.17912,-0.0597 -0.76765,-2.0598 -0.632032,-2.37014 0.142371,-0.32573 0.711035,-1.42205 0.711035,-1.42205 l 2.054105,4.46369 z"
         style="fill:#5a5a5a;fill-opacity:1;fill-rule:nonzero;stroke:#000000;stroke-width:0.48406848;stroke-linecap:round;stroke-linejoin:round;stroke-miterlimit:4;stroke-opacity:1;stroke-dasharray:none;stroke-dashoffset:0" />
      <path
         inkscape:connector-curvature="0"
         id="path3315"
         d="m -29.75553,992.40672 -1.343068,3.87124 0.908546,0 1.145557,-3.83169 z"
         style="fill:#5a5a5a;fill-opacity:1;fill-rule:nonzero;stroke:#000000;stroke-width:0.48406848;stroke-linecap:round;stroke-linejoin:round;stroke-miterlimit:4;stroke-opacity:1;stroke-dasharray:none;stroke-dashoffset:0" />
      <path
         inkscape:connector-curvature="0"
         id="path3317"
         d="m -28.641498,987.62867 c -0.433048,0.0266 -0.808825,0.44443 -1.061421,1.08935 -0.700922,-0.14817 -1.26699,-0.0522 -1.515318,0.32123 -0.130743,0.19658 -0.157068,0.44873 -0.09776,0.73322 -0.428324,0.23855 -0.684337,0.53557 -0.684337,0.85888 0,0.38697 0.358937,0.73574 0.949692,0.99162 -0.200293,0.56253 -0.184897,1.04006 0.09776,1.31279 0.277965,0.26817 0.760317,0.29189 1.326777,0.10475 0.309018,0.74687 0.758185,1.20973 1.24298,1.18011 0.433942,-0.0266 0.808814,-0.44215 1.061421,-1.08935 0.700922,0.14817 1.26699,0.0522 1.515318,-0.32122 0.221166,-0.33251 0.148225,-0.82481 -0.146644,-1.36169 0.387336,-0.23167 0.614507,-0.51108 0.614507,-0.81701 0,-0.38048 -0.348311,-0.72988 -0.92176,-0.98459 0.133658,-0.48141 0.0902,-0.88929 -0.16061,-1.13127 -0.25465,-0.24567 -0.681602,-0.27921 -1.187116,-0.13966 -0.287299,-0.48736 -0.6511,-0.77054 -1.033489,-0.74716 z"
         style="fill:#929292;fill-opacity:1;fill-rule:nonzero;stroke:#000000;stroke-width:0.48406848;stroke-linecap:round;stroke-linejoin:round;stroke-miterlimit:4;stroke-opacity:1;stroke-dasharray:none;stroke-dashoffset:0" />
      <path
         transform="matrix(0.22345707,0,0,0.22345707,-52.034659,971.47688)"
         d="m 109.60155,86.327614 a 3.9774756,2.9168155 0 1 1 -7.95495,0 3.9774756,2.9168155 0 1 1 7.95495,0 z"
         sodipodi:ry="2.9168155"
         sodipodi:rx="3.9774756"
         sodipodi:cy="86.327614"
         sodipodi:cx="105.62408"
         id="path3319"
         style="fill:#d0d0d0;fill-opacity:1;fill-rule:nonzero;stroke:#000000;stroke-width:1.08313537;stroke-linecap:round;stroke-linejoin:round;stroke-miterlimit:4;stroke-opacity:1;stroke-dasharray:none;stroke-dashoffset:0"
         sodipodi:type="arc" />
      <path
         style="fill:#5a5a5a;fill-opacity:1;fill-rule:nonzero;stroke:#000000;stroke-width:0.48406848;stroke-linecap:round;stroke-linejoin:round;stroke-miterlimit:4;stroke-opacity:1;stroke-dasharray:none;stroke-dashoffset:0"
         d="m -24.073834,993.25384 1.101033,3.08463 -1.02956,0.0605 -0.782507,-3.10559 z"
         id="path3321"
         inkscape:connector-curvature="0"
         sodipodi:nodetypes="ccccc" />
      <path
         style="fill:#929292;fill-opacity:1;fill-rule:nonzero;stroke:#000000;stroke-width:0.48406848;stroke-linecap:round;stroke-linejoin:round;stroke-miterlimit:4;stroke-opacity:1;stroke-dasharray:none;stroke-dashoffset:0"
         d="m -24.03491,989.41285 c 0.382003,0.0228 0.713478,0.38334 0.9363,0.93963 0.618296,-0.12779 1.117636,-0.045 1.336692,0.27708 0.115329,0.16957 0.13855,0.38706 0.08624,0.63244 0.377835,0.20577 0.603667,0.46199 0.603667,0.74086 0,0.33377 -0.316624,0.63462 -0.837743,0.8553 0.176685,0.48523 0.163102,0.89717 -0.08624,1.13238 -0.245195,0.23134 -0.670692,0.25181 -1.170376,0.0904 -0.272589,0.6442 -0.668809,1.04346 -1.096454,1.0179 -0.382792,-0.0227 -0.713472,-0.38135 -0.936302,-0.93962 -0.618297,0.12779 -1.117637,0.045 -1.336691,-0.27708 -0.195095,-0.28681 -0.130753,-0.71143 0.129357,-1.17454 -0.341677,-0.19982 -0.542068,-0.44084 -0.542068,-0.70471 0,-0.3282 0.307252,-0.62958 0.813102,-0.8493 -0.117903,-0.41523 -0.07956,-0.76705 0.141677,-0.97578 0.224632,-0.21193 0.601254,-0.24083 1.047178,-0.12049 0.253434,-0.42036 0.574348,-0.66462 0.911661,-0.64444 z"
         id="path3323"
         inkscape:connector-curvature="0" />
      <path
         sodipodi:type="arc"
         style="fill:#d0d0d0;fill-opacity:1;fill-rule:nonzero;stroke:#000000;stroke-width:1.41164529;stroke-linecap:round;stroke-linejoin:round;stroke-miterlimit:4;stroke-opacity:1;stroke-dasharray:none;stroke-dashoffset:0"
         id="path3325"
         sodipodi:cx="105.62408"
         sodipodi:cy="86.327614"
         sodipodi:rx="3.9774756"
         sodipodi:ry="2.9168155"
         d="m 109.60155,86.327614 a 3.9774756,2.9168155 0 1 1 -7.95495,0 3.9774756,2.9168155 0 1 1 7.95495,0 z"
         transform="matrix(-0.13409011,-0.0767756,-0.11527862,0.15322812,-0.05698124,987.11624)" />
      <path
         sodipodi:nodetypes="ccssssssssc"
         inkscape:connector-curvature="0"
         id="path3328"
         d="m -32.031295,979.11883 3.722383,0 c 7.364208,0.3053 12.46051,-0.015 14.076597,0 0.853287,0.008 1.552949,0.68708 1.540296,1.54032 -0.06937,4.67819 0.09291,10.29009 0,14.03382 -0.02115,0.85307 -0.68698,1.53648 -1.540296,1.54031 -5.888306,0.0261 -11.418648,0.32113 -17.713407,0.0426 -0.852488,-0.0378 -1.546977,-0.51588 -1.540296,-1.36919 0.12209,-15.59346 -0.05705,-9.49849 -0.08557,-14.24773 -0.0051,-0.85334 0.686972,-1.54033 1.540296,-1.54033 z"
         style="fill:#00ccff;stroke:none" />
      <g
         transform="matrix(0.48406848,0,0,0.48406848,-24.948519,468.37408)"
         id="g3330">
        <path
           transform="translate(-21.349284,996.9767)"
           inkscape:connector-curvature="0"
           id="path3332"
           d="m 4.0625,70.625 -0.375,21 1.75,1.625 L 14.25,94 44.625,93.25 46.9375,91.4375 46.8125,74.75 39.125,69.3125 34,69.25 25.75,74.0625 13.5625,69.625 z"
           style="fill:#abc837;stroke:none" />
        <path
           sodipodi:nodetypes="ccc"
           transform="translate(-21.349284,996.9767)"
           inkscape:connector-curvature="0"
           id="path3334"
           d="M 4.2426407,70.32932 C 10.599419,68.794565 17.719266,70.384089 25.9797,74.235869 38.872648,63.53096 41.176064,72.136373 46.669048,74.925514"
           style="fill:none;stroke:#000000;stroke-width:1;stroke-linecap:round;stroke-linejoin:round;stroke-miterlimit:4;stroke-opacity:1;stroke-dasharray:none;stroke-dashoffset:0" />
      </g>
      <path
         style="fill:none;stroke:#000000;stroke-width:0.96813697;stroke-linejoin:round;stroke-miterlimit:4;stroke-opacity:1"
         d="m -32.031295,979.11883 3.722383,0 c 7.364208,0.3053 12.46051,-0.015 14.076597,0 0.853287,0.008 1.552949,0.68708 1.540296,1.54032 -0.06937,4.67819 0.09291,10.29009 0,14.03382 -0.02115,0.85307 -0.68698,1.53648 -1.540296,1.54031 -5.888306,0.0261 -11.418648,0.32113 -17.713407,0.0426 -0.852488,-0.0378 -1.546977,-0.51588 -1.540296,-1.36919 0.12209,-15.59346 -0.05705,-9.49849 -0.08557,-14.24773 -0.0051,-0.85334 0.686972,-1.54033 1.540296,-1.54033 z"
         id="path3336"
         inkscape:connector-curvature="0"
         sodipodi:nodetypes="ccssssssssc" />
    </g>
    <g
       style="fill:#cccccc;fill-opacity:1"
       id="g3338"
       transform="translate(150,200)">
      <path
         style="fill:#cccccc;fill-opacity:1;stroke:#000000;stroke-width:2;stroke-linejoin:round;stroke-miterlimit:4;stroke-opacity:1"
         d="m -14.631769,955.1085 7.6897858,0 c 15.2131497,0.6307 25.7412182,-0.031 29.0797642,0 1.762743,0.016 3.208116,1.4194 3.18198,3.182 -0.143304,9.6643 0.19193,21.2575 0,28.9914 -0.04373,1.7623 -1.41918,3.1741 -3.18198,3.182 -12.1641967,0.054 -23.5889115,0.6634 -36.592773,0.088 -1.761089,-0.078 -3.195782,-1.0657 -3.18198,-2.8285 0.252217,-32.2133 -0.117851,-19.6222 -0.176777,-29.4333 -0.01059,-1.7628 1.419163,-3.182 3.18198,-3.182 z"
         id="path3340"
         inkscape:connector-curvature="0"
         sodipodi:nodetypes="ccssssssssc" />
    </g>
    <g
       id="g3342"
       transform="matrix(1.5713692,0,0,1.5713692,187.33058,-380.93766)">
      <path
         sodipodi:nodetypes="ccssssssssc"
         inkscape:connector-curvature="0"
         id="path3344"
         d="m -32.031295,979.11883 3.722385,0 c 7.364206,0.3053 12.460508,-0.015 14.076595,0 0.853287,0.008 1.552949,0.68708 1.540296,1.54032 -0.06937,4.67819 0.09291,10.29009 0,14.03382 -0.02115,0.85307 -0.68698,1.53648 -1.540296,1.54031 -5.888306,0.0261 -11.418648,0.32113 -17.713407,0.0426 -0.852488,-0.0378 -1.546976,-0.51588 -1.540296,-1.36919 0.122092,-15.59346 -0.05705,-9.49849 -0.08557,-14.24773 -0.0051,-0.85334 0.686971,-1.54033 1.540297,-1.54033 z"
         style="fill:#959595;stroke:none" />
      <path
         style="fill:#afafaf;stroke:none"
         d="m -33.316504,985.16641 -0.181525,10.16543 0.847119,0.78662 4.265854,0.36305 14.703582,-0.36305 1.119408,-0.87738 -0.06051,-8.07789 -3.721276,-2.63212 -2.480851,-0.03 -3.993565,2.32958 -5.899586,-2.14805 z"
         id="path3346"
         inkscape:connector-curvature="0" />
      <path
         style="fill:none;stroke:#000000;stroke-width:0.48406848;stroke-linecap:round;stroke-linejoin:round;stroke-miterlimit:4;stroke-opacity:1;stroke-dasharray:none;stroke-dashoffset:0"
         d="m -33.229303,985.02327 c 3.077116,-0.7429 6.523609,0.0266 10.522227,1.89106 6.241065,-5.1819 7.356078,-1.0163 10.015057,0.33382"
         id="path3348"
         inkscape:connector-curvature="0"
         sodipodi:nodetypes="ccc" />
      <path
         style="fill:none;stroke:#000000;stroke-width:0.96813697;stroke-linejoin:round;stroke-miterlimit:4;stroke-opacity:1"
         d="m -32.031295,979.11883 3.722385,0 c 7.364206,0.3053 12.460508,-0.015 14.076595,0 0.853287,0.008 1.552949,0.68708 1.540296,1.54032 -0.06937,4.67819 0.09291,10.29009 0,14.03382 -0.02115,0.85307 -0.68698,1.53648 -1.540296,1.54031 -5.888306,0.0261 -11.418648,0.32113 -17.713407,0.0426 -0.852488,-0.0378 -1.546976,-0.51588 -1.540296,-1.36919 0.122092,-15.59346 -0.05705,-9.49849 -0.08557,-14.24773 -0.0051,-0.85334 0.686971,-1.54033 1.540297,-1.54033 z"
         id="path3350"
         inkscape:connector-curvature="0"
         sodipodi:nodetypes="ccssssssssc" />
      <path
         style="fill:#5a5a5a;fill-opacity:1;fill-rule:nonzero;stroke:#000000;stroke-width:0.48406848;stroke-linecap:round;stroke-linejoin:round;stroke-miterlimit:4;stroke-opacity:1;stroke-dasharray:none;stroke-dashoffset:0"
         d="m -30.54557,994.26336 c -0.355518,0.0397 -1.77759,-0.79005 -1.77759,-0.79005 -0.17912,-0.0597 -0.76765,-2.0598 -0.632032,-2.37014 0.142371,-0.32573 0.711035,-1.42205 0.711035,-1.42205 l 2.054105,4.46369 z"
         id="path3352"
         inkscape:connector-curvature="0"
         sodipodi:nodetypes="ccsccc" />
      <path
         style="fill:#5a5a5a;fill-opacity:1;fill-rule:nonzero;stroke:#000000;stroke-width:0.48406848;stroke-linecap:round;stroke-linejoin:round;stroke-miterlimit:4;stroke-opacity:1;stroke-dasharray:none;stroke-dashoffset:0"
         d="m -29.75553,992.40672 -1.343068,3.87124 0.908546,0 1.145557,-3.83169 z"
         id="path3354"
         inkscape:connector-curvature="0" />
      <path
         style="fill:#929292;fill-opacity:1;fill-rule:nonzero;stroke:#000000;stroke-width:0.48406848;stroke-linecap:round;stroke-linejoin:round;stroke-miterlimit:4;stroke-opacity:1;stroke-dasharray:none;stroke-dashoffset:0"
         d="m -28.641498,987.62867 c -0.433048,0.0266 -0.808825,0.44443 -1.061421,1.08935 -0.700922,-0.14817 -1.26699,-0.0522 -1.515318,0.32123 -0.130743,0.19658 -0.157068,0.44873 -0.09776,0.73322 -0.428324,0.23855 -0.684337,0.53557 -0.684337,0.85888 0,0.38697 0.358937,0.73574 0.949692,0.99162 -0.200293,0.56253 -0.184897,1.04006 0.09776,1.31279 0.277965,0.26817 0.760317,0.29189 1.326777,0.10475 0.309018,0.74687 0.758185,1.20973 1.24298,1.18011 0.433942,-0.0266 0.808814,-0.44215 1.061421,-1.08935 0.700922,0.14817 1.26699,0.0522 1.515318,-0.32122 0.221166,-0.33251 0.148225,-0.82481 -0.146644,-1.36169 0.387336,-0.23167 0.614507,-0.51108 0.614507,-0.81701 0,-0.38048 -0.348311,-0.72988 -0.92176,-0.98459 0.133658,-0.48141 0.0902,-0.88929 -0.16061,-1.13127 -0.25465,-0.24567 -0.681602,-0.27921 -1.187116,-0.13966 -0.287299,-0.48736 -0.6511,-0.77054 -1.033489,-0.74716 z"
         id="path3356"
         inkscape:connector-curvature="0" />
      <path
         sodipodi:type="arc"
         style="fill:#d0d0d0;fill-opacity:1;fill-rule:nonzero;stroke:#000000;stroke-width:1.08313537;stroke-linecap:round;stroke-linejoin:round;stroke-miterlimit:4;stroke-opacity:1;stroke-dasharray:none;stroke-dashoffset:0"
         id="path3358"
         sodipodi:cx="105.62408"
         sodipodi:cy="86.327614"
         sodipodi:rx="3.9774756"
         sodipodi:ry="2.9168155"
         d="m 109.60155,86.327614 a 3.9774756,2.9168155 0 1 1 -7.95495,0 3.9774756,2.9168155 0 1 1 7.95495,0 z"
         transform="matrix(0.22345707,0,0,0.22345707,-52.034659,971.47688)" />
      <path
         sodipodi:nodetypes="ccccc"
         inkscape:connector-curvature="0"
         id="path3360"
         d="m -24.073834,993.25384 1.101033,3.08463 -1.02956,0.0605 -0.782507,-3.10559 z"
         style="fill:#5a5a5a;fill-opacity:1;fill-rule:nonzero;stroke:#000000;stroke-width:0.48406848;stroke-linecap:round;stroke-linejoin:round;stroke-miterlimit:4;stroke-opacity:1;stroke-dasharray:none;stroke-dashoffset:0" />
      <path
         inkscape:connector-curvature="0"
         id="path3362"
         d="m -24.03491,989.41285 c 0.382003,0.0228 0.713478,0.38334 0.9363,0.93963 0.618296,-0.12779 1.117636,-0.045 1.336692,0.27708 0.115329,0.16957 0.13855,0.38706 0.08624,0.63244 0.377835,0.20577 0.603667,0.46199 0.603667,0.74086 0,0.33377 -0.316624,0.63462 -0.837743,0.8553 0.176685,0.48523 0.163102,0.89717 -0.08624,1.13238 -0.245195,0.23134 -0.670692,0.25181 -1.170376,0.0904 -0.272589,0.6442 -0.668809,1.04346 -1.096454,1.0179 -0.382792,-0.0227 -0.713472,-0.38135 -0.936302,-0.93962 -0.618297,0.12779 -1.117637,0.045 -1.336691,-0.27708 -0.195095,-0.28681 -0.130753,-0.71143 0.129357,-1.17454 -0.341677,-0.19982 -0.542068,-0.44084 -0.542068,-0.70471 0,-0.3282 0.307252,-0.62958 0.813102,-0.8493 -0.117903,-0.41523 -0.07956,-0.76705 0.141677,-0.97578 0.224632,-0.21193 0.601254,-0.24083 1.047178,-0.12049 0.253434,-0.42036 0.574348,-0.66462 0.911661,-0.64444 z"
         style="fill:#929292;fill-opacity:1;fill-rule:nonzero;stroke:#000000;stroke-width:0.48406848;stroke-linecap:round;stroke-linejoin:round;stroke-miterlimit:4;stroke-opacity:1;stroke-dasharray:none;stroke-dashoffset:0" />
      <path
         transform="matrix(-0.13409011,-0.0767756,-0.11527862,0.15322812,-0.05698124,987.11624)"
         d="m 109.60155,86.327614 a 3.9774756,2.9168155 0 1 1 -7.95495,0 3.9774756,2.9168155 0 1 1 7.95495,0 z"
         sodipodi:ry="2.9168155"
         sodipodi:rx="3.9774756"
         sodipodi:cy="86.327614"
         sodipodi:cx="105.62408"
         id="path3364"
         style="fill:#d0d0d0;fill-opacity:1;fill-rule:nonzero;stroke:#000000;stroke-width:1.41164529;stroke-linecap:round;stroke-linejoin:round;stroke-miterlimit:4;stroke-opacity:1;stroke-dasharray:none;stroke-dashoffset:0"
         sodipodi:type="arc" />
      <path
         style="fill:#00ccff;stroke:none"
         d="m -32.031295,979.11883 3.722383,0 c 7.364208,0.3053 12.46051,-0.015 14.076597,0 0.853287,0.008 1.552949,0.68708 1.540296,1.54032 -0.06937,4.67819 0.09291,10.29009 0,14.03382 -0.02115,0.85307 -0.68698,1.53648 -1.540296,1.54031 -5.888306,0.0261 -11.418648,0.32113 -17.713407,0.0426 -0.852488,-0.0378 -1.546977,-0.51588 -1.540296,-1.36919 0.12209,-15.59346 -0.05705,-9.49849 -0.08557,-14.24773 -0.0051,-0.85334 0.686972,-1.54033 1.540296,-1.54033 z"
         id="path3366"
         inkscape:connector-curvature="0"
         sodipodi:nodetypes="ccssssssssc" />
      <g
         id="g3368"
         transform="matrix(0.48406848,0,0,0.48406848,-24.948519,468.37408)">
        <path
           style="fill:#abc837;stroke:none"
           d="m 4.0625,70.625 -0.375,21 1.75,1.625 L 14.25,94 44.625,93.25 46.9375,91.4375 46.8125,74.75 39.125,69.3125 34,69.25 25.75,74.0625 13.5625,69.625 z"
           id="path3370"
           inkscape:connector-curvature="0"
           transform="translate(-21.349284,996.9767)" />
        <path
           style="fill:none;stroke:#000000;stroke-width:1;stroke-linecap:round;stroke-linejoin:round;stroke-miterlimit:4;stroke-opacity:1;stroke-dasharray:none;stroke-dashoffset:0"
           d="M 4.2426407,70.32932 C 10.599419,68.794565 17.719266,70.384089 25.9797,74.235869 38.872648,63.53096 41.176064,72.136373 46.669048,74.925514"
           id="path3372"
           inkscape:connector-curvature="0"
           transform="translate(-21.349284,996.9767)"
           sodipodi:nodetypes="ccc" />
      </g>
      <path
         sodipodi:nodetypes="ccssssssssc"
         inkscape:connector-curvature="0"
         id="path3374"
         d="m -32.031295,979.11883 3.722383,0 c 7.364208,0.3053 12.46051,-0.015 14.076597,0 0.853287,0.008 1.552949,0.68708 1.540296,1.54032 -0.06937,4.67819 0.09291,10.29009 0,14.03382 -0.02115,0.85307 -0.68698,1.53648 -1.540296,1.54031 -5.888306,0.0261 -11.418648,0.32113 -17.713407,0.0426 -0.852488,-0.0378 -1.546977,-0.51588 -1.540296,-1.36919 0.12209,-15.59346 -0.05705,-9.49849 -0.08557,-14.24773 -0.0051,-0.85334 0.686972,-1.54033 1.540296,-1.54033 z"
         style="fill:none;stroke:#000000;stroke-width:0.96813697;stroke-linejoin:round;stroke-miterlimit:4;stroke-opacity:1" />
    </g>
    <g
       style="fill:#cccccc;fill-opacity:1"
       transform="translate(200,200)"
       id="g3376">
      <path
         sodipodi:nodetypes="ccssssssssc"
         inkscape:connector-curvature="0"
         id="path3378"
         d="m -14.631769,955.1085 7.6897858,0 c 15.2131497,0.6307 25.7412182,-0.031 29.0797642,0 1.762743,0.016 3.208116,1.4194 3.18198,3.182 -0.143304,9.6643 0.19193,21.2575 0,28.9914 -0.04373,1.7623 -1.41918,3.1741 -3.18198,3.182 -12.1641967,0.054 -23.5889115,0.6634 -36.592773,0.088 -1.761089,-0.078 -3.195782,-1.0657 -3.18198,-2.8285 0.252217,-32.2133 -0.117851,-19.6222 -0.176777,-29.4333 -0.01059,-1.7628 1.419163,-3.182 3.18198,-3.182 z"
         style="fill:#cccccc;fill-opacity:1;stroke:#000000;stroke-width:2;stroke-linejoin:round;stroke-miterlimit:4;stroke-opacity:1" />
    </g>
    <g
       transform="matrix(1.7083967,0,0,1.7083967,240.74825,-515.78747)"
       id="g3380">
      <path
         style="fill:#959595;stroke:none"
         d="m -32.031295,979.11883 3.722385,0 c 7.364206,0.3053 12.460508,-0.015 14.076595,0 0.853287,0.008 1.552949,0.68708 1.540296,1.54032 -0.06937,4.67819 0.09291,10.29009 0,14.03382 -0.02115,0.85307 -0.68698,1.53648 -1.540296,1.54031 -5.888306,0.0261 -11.418648,0.32113 -17.713407,0.0426 -0.852488,-0.0378 -1.546976,-0.51588 -1.540296,-1.36919 0.122092,-15.59346 -0.05705,-9.49849 -0.08557,-14.24773 -0.0051,-0.85334 0.686971,-1.54033 1.540297,-1.54033 z"
         id="path3382"
         inkscape:connector-curvature="0"
         sodipodi:nodetypes="ccssssssssc" />
      <path
         inkscape:connector-curvature="0"
         id="path3384"
         d="m -33.316504,985.16641 -0.181525,10.16543 0.847119,0.78662 4.265854,0.36305 14.703582,-0.36305 1.119408,-0.87738 -0.06051,-8.07789 -3.721276,-2.63212 -2.480851,-0.03 -3.993565,2.32958 -5.899586,-2.14805 z"
         style="fill:#afafaf;stroke:none" />
      <path
         sodipodi:nodetypes="ccc"
         inkscape:connector-curvature="0"
         id="path3386"
         d="m -33.229303,985.02327 c 3.077116,-0.7429 6.523609,0.0266 10.522227,1.89106 6.241065,-5.1819 7.356078,-1.0163 10.015057,0.33382"
         style="fill:none;stroke:#000000;stroke-width:0.48406848;stroke-linecap:round;stroke-linejoin:round;stroke-miterlimit:4;stroke-opacity:1;stroke-dasharray:none;stroke-dashoffset:0" />
      <path
         sodipodi:nodetypes="ccssssssssc"
         inkscape:connector-curvature="0"
         id="path3388"
         d="m -32.031295,979.11883 3.722385,0 c 7.364206,0.3053 12.460508,-0.015 14.076595,0 0.853287,0.008 1.552949,0.68708 1.540296,1.54032 -0.06937,4.67819 0.09291,10.29009 0,14.03382 -0.02115,0.85307 -0.68698,1.53648 -1.540296,1.54031 -5.888306,0.0261 -11.418648,0.32113 -17.713407,0.0426 -0.852488,-0.0378 -1.546976,-0.51588 -1.540296,-1.36919 0.122092,-15.59346 -0.05705,-9.49849 -0.08557,-14.24773 -0.0051,-0.85334 0.686971,-1.54033 1.540297,-1.54033 z"
         style="fill:none;stroke:#000000;stroke-width:0.96813697;stroke-linejoin:round;stroke-miterlimit:4;stroke-opacity:1" />
      <path
         sodipodi:nodetypes="ccsccc"
         inkscape:connector-curvature="0"
         id="path3390"
         d="m -30.54557,994.26336 c -0.355518,0.0397 -1.77759,-0.79005 -1.77759,-0.79005 -0.17912,-0.0597 -0.76765,-2.0598 -0.632032,-2.37014 0.142371,-0.32573 0.711035,-1.42205 0.711035,-1.42205 l 2.054105,4.46369 z"
         style="fill:#5a5a5a;fill-opacity:1;fill-rule:nonzero;stroke:#000000;stroke-width:0.48406848;stroke-linecap:round;stroke-linejoin:round;stroke-miterlimit:4;stroke-opacity:1;stroke-dasharray:none;stroke-dashoffset:0" />
      <path
         inkscape:connector-curvature="0"
         id="path3392"
         d="m -29.75553,992.40672 -1.343068,3.87124 0.908546,0 1.145557,-3.83169 z"
         style="fill:#5a5a5a;fill-opacity:1;fill-rule:nonzero;stroke:#000000;stroke-width:0.48406848;stroke-linecap:round;stroke-linejoin:round;stroke-miterlimit:4;stroke-opacity:1;stroke-dasharray:none;stroke-dashoffset:0" />
      <path
         inkscape:connector-curvature="0"
         id="path3394"
         d="m -28.641498,987.62867 c -0.433048,0.0266 -0.808825,0.44443 -1.061421,1.08935 -0.700922,-0.14817 -1.26699,-0.0522 -1.515318,0.32123 -0.130743,0.19658 -0.157068,0.44873 -0.09776,0.73322 -0.428324,0.23855 -0.684337,0.53557 -0.684337,0.85888 0,0.38697 0.358937,0.73574 0.949692,0.99162 -0.200293,0.56253 -0.184897,1.04006 0.09776,1.31279 0.277965,0.26817 0.760317,0.29189 1.326777,0.10475 0.309018,0.74687 0.758185,1.20973 1.24298,1.18011 0.433942,-0.0266 0.808814,-0.44215 1.061421,-1.08935 0.700922,0.14817 1.26699,0.0522 1.515318,-0.32122 0.221166,-0.33251 0.148225,-0.82481 -0.146644,-1.36169 0.387336,-0.23167 0.614507,-0.51108 0.614507,-0.81701 0,-0.38048 -0.348311,-0.72988 -0.92176,-0.98459 0.133658,-0.48141 0.0902,-0.88929 -0.16061,-1.13127 -0.25465,-0.24567 -0.681602,-0.27921 -1.187116,-0.13966 -0.287299,-0.48736 -0.6511,-0.77054 -1.033489,-0.74716 z"
         style="fill:#929292;fill-opacity:1;fill-rule:nonzero;stroke:#000000;stroke-width:0.48406848;stroke-linecap:round;stroke-linejoin:round;stroke-miterlimit:4;stroke-opacity:1;stroke-dasharray:none;stroke-dashoffset:0" />
      <path
         transform="matrix(0.22345707,0,0,0.22345707,-52.034659,971.47688)"
         d="m 109.60155,86.327614 a 3.9774756,2.9168155 0 1 1 -7.95495,0 3.9774756,2.9168155 0 1 1 7.95495,0 z"
         sodipodi:ry="2.9168155"
         sodipodi:rx="3.9774756"
         sodipodi:cy="86.327614"
         sodipodi:cx="105.62408"
         id="path3396"
         style="fill:#d0d0d0;fill-opacity:1;fill-rule:nonzero;stroke:#000000;stroke-width:1.08313537;stroke-linecap:round;stroke-linejoin:round;stroke-miterlimit:4;stroke-opacity:1;stroke-dasharray:none;stroke-dashoffset:0"
         sodipodi:type="arc" />
      <path
         style="fill:#5a5a5a;fill-opacity:1;fill-rule:nonzero;stroke:#000000;stroke-width:0.48406848;stroke-linecap:round;stroke-linejoin:round;stroke-miterlimit:4;stroke-opacity:1;stroke-dasharray:none;stroke-dashoffset:0"
         d="m -24.073834,993.25384 1.101033,3.08463 -1.02956,0.0605 -0.782507,-3.10559 z"
         id="path3398"
         inkscape:connector-curvature="0"
         sodipodi:nodetypes="ccccc" />
      <path
         style="fill:#929292;fill-opacity:1;fill-rule:nonzero;stroke:#000000;stroke-width:0.48406848;stroke-linecap:round;stroke-linejoin:round;stroke-miterlimit:4;stroke-opacity:1;stroke-dasharray:none;stroke-dashoffset:0"
         d="m -24.03491,989.41285 c 0.382003,0.0228 0.713478,0.38334 0.9363,0.93963 0.618296,-0.12779 1.117636,-0.045 1.336692,0.27708 0.115329,0.16957 0.13855,0.38706 0.08624,0.63244 0.377835,0.20577 0.603667,0.46199 0.603667,0.74086 0,0.33377 -0.316624,0.63462 -0.837743,0.8553 0.176685,0.48523 0.163102,0.89717 -0.08624,1.13238 -0.245195,0.23134 -0.670692,0.25181 -1.170376,0.0904 -0.272589,0.6442 -0.668809,1.04346 -1.096454,1.0179 -0.382792,-0.0227 -0.713472,-0.38135 -0.936302,-0.93962 -0.618297,0.12779 -1.117637,0.045 -1.336691,-0.27708 -0.195095,-0.28681 -0.130753,-0.71143 0.129357,-1.17454 -0.341677,-0.19982 -0.542068,-0.44084 -0.542068,-0.70471 0,-0.3282 0.307252,-0.62958 0.813102,-0.8493 -0.117903,-0.41523 -0.07956,-0.76705 0.141677,-0.97578 0.224632,-0.21193 0.601254,-0.24083 1.047178,-0.12049 0.253434,-0.42036 0.574348,-0.66462 0.911661,-0.64444 z"
         id="path3400"
         inkscape:connector-curvature="0" />
      <path
         sodipodi:type="arc"
         style="fill:#d0d0d0;fill-opacity:1;fill-rule:nonzero;stroke:#000000;stroke-width:1.41164529;stroke-linecap:round;stroke-linejoin:round;stroke-miterlimit:4;stroke-opacity:1;stroke-dasharray:none;stroke-dashoffset:0"
         id="path3402"
         sodipodi:cx="105.62408"
         sodipodi:cy="86.327614"
         sodipodi:rx="3.9774756"
         sodipodi:ry="2.9168155"
         d="m 109.60155,86.327614 a 3.9774756,2.9168155 0 1 1 -7.95495,0 3.9774756,2.9168155 0 1 1 7.95495,0 z"
         transform="matrix(-0.13409011,-0.0767756,-0.11527862,0.15322812,-0.05698124,987.11624)" />
      <path
         sodipodi:nodetypes="ccssssssssc"
         inkscape:connector-curvature="0"
         id="path3404"
         d="m -32.031295,979.11883 3.722383,0 c 7.364208,0.3053 12.46051,-0.015 14.076597,0 0.853287,0.008 1.552949,0.68708 1.540296,1.54032 -0.06937,4.67819 0.09291,10.29009 0,14.03382 -0.02115,0.85307 -0.68698,1.53648 -1.540296,1.54031 -5.888306,0.0261 -11.418648,0.32113 -17.713407,0.0426 -0.852488,-0.0378 -1.546977,-0.51588 -1.540296,-1.36919 0.12209,-15.59346 -0.05705,-9.49849 -0.08557,-14.24773 -0.0051,-0.85334 0.686972,-1.54033 1.540296,-1.54033 z"
         style="fill:#00ccff;stroke:none" />
      <g
         transform="matrix(0.48406848,0,0,0.48406848,-24.948519,468.37408)"
         id="g3406">
        <path
           transform="translate(-21.349284,996.9767)"
           inkscape:connector-curvature="0"
           id="path3408"
           d="m 4.0625,70.625 -0.375,21 1.75,1.625 L 14.25,94 44.625,93.25 46.9375,91.4375 46.8125,74.75 39.125,69.3125 34,69.25 25.75,74.0625 13.5625,69.625 z"
           style="fill:#abc837;stroke:none" />
        <path
           sodipodi:nodetypes="ccc"
           transform="translate(-21.349284,996.9767)"
           inkscape:connector-curvature="0"
           id="path3410"
           d="M 4.2426407,70.32932 C 10.599419,68.794565 17.719266,70.384089 25.9797,74.235869 38.872648,63.53096 41.176064,72.136373 46.669048,74.925514"
           style="fill:none;stroke:#000000;stroke-width:1;stroke-linecap:round;stroke-linejoin:round;stroke-miterlimit:4;stroke-opacity:1;stroke-dasharray:none;stroke-dashoffset:0" />
      </g>
      <path
         style="fill:none;stroke:#000000;stroke-width:0.96813697;stroke-linejoin:round;stroke-miterlimit:4;stroke-opacity:1"
         d="m -32.031295,979.11883 3.722383,0 c 7.364208,0.3053 12.46051,-0.015 14.076597,0 0.853287,0.008 1.552949,0.68708 1.540296,1.54032 -0.06937,4.67819 0.09291,10.29009 0,14.03382 -0.02115,0.85307 -0.68698,1.53648 -1.540296,1.54031 -5.888306,0.0261 -11.418648,0.32113 -17.713407,0.0426 -0.852488,-0.0378 -1.546977,-0.51588 -1.540296,-1.36919 0.12209,-15.59346 -0.05705,-9.49849 -0.08557,-14.24773 -0.0051,-0.85334 0.686972,-1.54033 1.540296,-1.54033 z"
         id="path3412"
         inkscape:connector-curvature="0"
         sodipodi:nodetypes="ccssssssssc" />
    </g>
    <g
       style="fill:#cccccc;fill-opacity:1"
       id="g3414"
       transform="translate(250,200)">
      <path
         style="fill:#cccccc;fill-opacity:1;stroke:#000000;stroke-width:2;stroke-linejoin:round;stroke-miterlimit:4;stroke-opacity:1"
         d="m -14.631769,955.1085 7.6897858,0 c 15.2131497,0.6307 25.7412182,-0.031 29.0797642,0 1.762743,0.016 3.208116,1.4194 3.18198,3.182 -0.143304,9.6643 0.19193,21.2575 0,28.9914 -0.04373,1.7623 -1.41918,3.1741 -3.18198,3.182 -12.1641967,0.054 -23.5889115,0.6634 -36.592773,0.088 -1.761089,-0.078 -3.195782,-1.0657 -3.18198,-2.8285 0.252217,-32.2133 -0.117851,-19.6222 -0.176777,-29.4333 -0.01059,-1.7628 1.419163,-3.182 3.18198,-3.182 z"
         id="path3416"
         inkscape:connector-curvature="0"
         sodipodi:nodetypes="ccssssssssc" />
    </g>
    <g
       id="g3418"
       transform="matrix(1.8728297,0,0,1.8728297,295.79946,-678.20724)">
      <path
         sodipodi:nodetypes="ccssssssssc"
         inkscape:connector-curvature="0"
         id="path3420"
         d="m -32.031295,979.11883 3.722385,0 c 7.364206,0.3053 12.460508,-0.015 14.076595,0 0.853287,0.008 1.552949,0.68708 1.540296,1.54032 -0.06937,4.67819 0.09291,10.29009 0,14.03382 -0.02115,0.85307 -0.68698,1.53648 -1.540296,1.54031 -5.888306,0.0261 -11.418648,0.32113 -17.713407,0.0426 -0.852488,-0.0378 -1.546976,-0.51588 -1.540296,-1.36919 0.122092,-15.59346 -0.05705,-9.49849 -0.08557,-14.24773 -0.0051,-0.85334 0.686971,-1.54033 1.540297,-1.54033 z"
         style="fill:#959595;stroke:none" />
      <path
         style="fill:#afafaf;stroke:none"
         d="m -33.316504,985.16641 -0.181525,10.16543 0.847119,0.78662 4.265854,0.36305 14.703582,-0.36305 1.119408,-0.87738 -0.06051,-8.07789 -3.721276,-2.63212 -2.480851,-0.03 -3.993565,2.32958 -5.899586,-2.14805 z"
         id="path3422"
         inkscape:connector-curvature="0" />
      <path
         style="fill:none;stroke:#000000;stroke-width:0.48406848;stroke-linecap:round;stroke-linejoin:round;stroke-miterlimit:4;stroke-opacity:1;stroke-dasharray:none;stroke-dashoffset:0"
         d="m -33.229303,985.02327 c 3.077116,-0.7429 6.523609,0.0266 10.522227,1.89106 6.241065,-5.1819 7.356078,-1.0163 10.015057,0.33382"
         id="path3424"
         inkscape:connector-curvature="0"
         sodipodi:nodetypes="ccc" />
      <path
         style="fill:none;stroke:#000000;stroke-width:0.96813697;stroke-linejoin:round;stroke-miterlimit:4;stroke-opacity:1"
         d="m -32.031295,979.11883 3.722385,0 c 7.364206,0.3053 12.460508,-0.015 14.076595,0 0.853287,0.008 1.552949,0.68708 1.540296,1.54032 -0.06937,4.67819 0.09291,10.29009 0,14.03382 -0.02115,0.85307 -0.68698,1.53648 -1.540296,1.54031 -5.888306,0.0261 -11.418648,0.32113 -17.713407,0.0426 -0.852488,-0.0378 -1.546976,-0.51588 -1.540296,-1.36919 0.122092,-15.59346 -0.05705,-9.49849 -0.08557,-14.24773 -0.0051,-0.85334 0.686971,-1.54033 1.540297,-1.54033 z"
         id="path3426"
         inkscape:connector-curvature="0"
         sodipodi:nodetypes="ccssssssssc" />
      <path
         style="fill:#5a5a5a;fill-opacity:1;fill-rule:nonzero;stroke:#000000;stroke-width:0.48406848;stroke-linecap:round;stroke-linejoin:round;stroke-miterlimit:4;stroke-opacity:1;stroke-dasharray:none;stroke-dashoffset:0"
         d="m -30.54557,994.26336 c -0.355518,0.0397 -1.77759,-0.79005 -1.77759,-0.79005 -0.17912,-0.0597 -0.76765,-2.0598 -0.632032,-2.37014 0.142371,-0.32573 0.711035,-1.42205 0.711035,-1.42205 l 2.054105,4.46369 z"
         id="path3428"
         inkscape:connector-curvature="0"
         sodipodi:nodetypes="ccsccc" />
      <path
         style="fill:#5a5a5a;fill-opacity:1;fill-rule:nonzero;stroke:#000000;stroke-width:0.48406848;stroke-linecap:round;stroke-linejoin:round;stroke-miterlimit:4;stroke-opacity:1;stroke-dasharray:none;stroke-dashoffset:0"
         d="m -29.75553,992.40672 -1.343068,3.87124 0.908546,0 1.145557,-3.83169 z"
         id="path3430"
         inkscape:connector-curvature="0" />
      <path
         style="fill:#929292;fill-opacity:1;fill-rule:nonzero;stroke:#000000;stroke-width:0.48406848;stroke-linecap:round;stroke-linejoin:round;stroke-miterlimit:4;stroke-opacity:1;stroke-dasharray:none;stroke-dashoffset:0"
         d="m -28.641498,987.62867 c -0.433048,0.0266 -0.808825,0.44443 -1.061421,1.08935 -0.700922,-0.14817 -1.26699,-0.0522 -1.515318,0.32123 -0.130743,0.19658 -0.157068,0.44873 -0.09776,0.73322 -0.428324,0.23855 -0.684337,0.53557 -0.684337,0.85888 0,0.38697 0.358937,0.73574 0.949692,0.99162 -0.200293,0.56253 -0.184897,1.04006 0.09776,1.31279 0.277965,0.26817 0.760317,0.29189 1.326777,0.10475 0.309018,0.74687 0.758185,1.20973 1.24298,1.18011 0.433942,-0.0266 0.808814,-0.44215 1.061421,-1.08935 0.700922,0.14817 1.26699,0.0522 1.515318,-0.32122 0.221166,-0.33251 0.148225,-0.82481 -0.146644,-1.36169 0.387336,-0.23167 0.614507,-0.51108 0.614507,-0.81701 0,-0.38048 -0.348311,-0.72988 -0.92176,-0.98459 0.133658,-0.48141 0.0902,-0.88929 -0.16061,-1.13127 -0.25465,-0.24567 -0.681602,-0.27921 -1.187116,-0.13966 -0.287299,-0.48736 -0.6511,-0.77054 -1.033489,-0.74716 z"
         id="path3432"
         inkscape:connector-curvature="0" />
      <path
         sodipodi:type="arc"
         style="fill:#d0d0d0;fill-opacity:1;fill-rule:nonzero;stroke:#000000;stroke-width:1.08313537;stroke-linecap:round;stroke-linejoin:round;stroke-miterlimit:4;stroke-opacity:1;stroke-dasharray:none;stroke-dashoffset:0"
         id="path3434"
         sodipodi:cx="105.62408"
         sodipodi:cy="86.327614"
         sodipodi:rx="3.9774756"
         sodipodi:ry="2.9168155"
         d="m 109.60155,86.327614 a 3.9774756,2.9168155 0 1 1 -7.95495,0 3.9774756,2.9168155 0 1 1 7.95495,0 z"
         transform="matrix(0.22345707,0,0,0.22345707,-52.034659,971.47688)" />
      <path
         sodipodi:nodetypes="ccccc"
         inkscape:connector-curvature="0"
         id="path3436"
         d="m -24.073834,993.25384 1.101033,3.08463 -1.02956,0.0605 -0.782507,-3.10559 z"
         style="fill:#5a5a5a;fill-opacity:1;fill-rule:nonzero;stroke:#000000;stroke-width:0.48406848;stroke-linecap:round;stroke-linejoin:round;stroke-miterlimit:4;stroke-opacity:1;stroke-dasharray:none;stroke-dashoffset:0" />
      <path
         inkscape:connector-curvature="0"
         id="path3438"
         d="m -24.03491,989.41285 c 0.382003,0.0228 0.713478,0.38334 0.9363,0.93963 0.618296,-0.12779 1.117636,-0.045 1.336692,0.27708 0.115329,0.16957 0.13855,0.38706 0.08624,0.63244 0.377835,0.20577 0.603667,0.46199 0.603667,0.74086 0,0.33377 -0.316624,0.63462 -0.837743,0.8553 0.176685,0.48523 0.163102,0.89717 -0.08624,1.13238 -0.245195,0.23134 -0.670692,0.25181 -1.170376,0.0904 -0.272589,0.6442 -0.668809,1.04346 -1.096454,1.0179 -0.382792,-0.0227 -0.713472,-0.38135 -0.936302,-0.93962 -0.618297,0.12779 -1.117637,0.045 -1.336691,-0.27708 -0.195095,-0.28681 -0.130753,-0.71143 0.129357,-1.17454 -0.341677,-0.19982 -0.542068,-0.44084 -0.542068,-0.70471 0,-0.3282 0.307252,-0.62958 0.813102,-0.8493 -0.117903,-0.41523 -0.07956,-0.76705 0.141677,-0.97578 0.224632,-0.21193 0.601254,-0.24083 1.047178,-0.12049 0.253434,-0.42036 0.574348,-0.66462 0.911661,-0.64444 z"
         style="fill:#929292;fill-opacity:1;fill-rule:nonzero;stroke:#000000;stroke-width:0.48406848;stroke-linecap:round;stroke-linejoin:round;stroke-miterlimit:4;stroke-opacity:1;stroke-dasharray:none;stroke-dashoffset:0" />
      <path
         transform="matrix(-0.13409011,-0.0767756,-0.11527862,0.15322812,-0.05698124,987.11624)"
         d="m 109.60155,86.327614 a 3.9774756,2.9168155 0 1 1 -7.95495,0 3.9774756,2.9168155 0 1 1 7.95495,0 z"
         sodipodi:ry="2.9168155"
         sodipodi:rx="3.9774756"
         sodipodi:cy="86.327614"
         sodipodi:cx="105.62408"
         id="path3440"
         style="fill:#d0d0d0;fill-opacity:1;fill-rule:nonzero;stroke:#000000;stroke-width:1.41164529;stroke-linecap:round;stroke-linejoin:round;stroke-miterlimit:4;stroke-opacity:1;stroke-dasharray:none;stroke-dashoffset:0"
         sodipodi:type="arc" />
      <path
         style="fill:#00ccff;stroke:none"
         d="m -32.031295,979.11883 3.722383,0 c 7.364208,0.3053 12.46051,-0.015 14.076597,0 0.853287,0.008 1.552949,0.68708 1.540296,1.54032 -0.06937,4.67819 0.09291,10.29009 0,14.03382 -0.02115,0.85307 -0.68698,1.53648 -1.540296,1.54031 -5.888306,0.0261 -11.418648,0.32113 -17.713407,0.0426 -0.852488,-0.0378 -1.546977,-0.51588 -1.540296,-1.36919 0.12209,-15.59346 -0.05705,-9.49849 -0.08557,-14.24773 -0.0051,-0.85334 0.686972,-1.54033 1.540296,-1.54033 z"
         id="path3442"
         inkscape:connector-curvature="0"
         sodipodi:nodetypes="ccssssssssc" />
      <g
         id="g3444"
         transform="matrix(0.48406848,0,0,0.48406848,-24.948519,468.37408)">
        <path
           style="fill:#abc837;stroke:none"
           d="m 4.0625,70.625 -0.375,21 1.75,1.625 L 14.25,94 44.625,93.25 46.9375,91.4375 46.8125,74.75 39.125,69.3125 34,69.25 25.75,74.0625 13.5625,69.625 z"
           id="path3446"
           inkscape:connector-curvature="0"
           transform="translate(-21.349284,996.9767)" />
        <path
           style="fill:none;stroke:#000000;stroke-width:1;stroke-linecap:round;stroke-linejoin:round;stroke-miterlimit:4;stroke-opacity:1;stroke-dasharray:none;stroke-dashoffset:0"
           d="M 4.2426407,70.32932 C 10.599419,68.794565 17.719266,70.384089 25.9797,74.235869 38.872648,63.53096 41.176064,72.136373 46.669048,74.925514"
           id="path3448"
           inkscape:connector-curvature="0"
           transform="translate(-21.349284,996.9767)"
           sodipodi:nodetypes="ccc" />
      </g>
      <path
         sodipodi:nodetypes="ccssssssssc"
         inkscape:connector-curvature="0"
         id="path3450"
         d="m -32.031295,979.11883 3.722383,0 c 7.364208,0.3053 12.46051,-0.015 14.076597,0 0.853287,0.008 1.552949,0.68708 1.540296,1.54032 -0.06937,4.67819 0.09291,10.29009 0,14.03382 -0.02115,0.85307 -0.68698,1.53648 -1.540296,1.54031 -5.888306,0.0261 -11.418648,0.32113 -17.713407,0.0426 -0.852488,-0.0378 -1.546977,-0.51588 -1.540296,-1.36919 0.12209,-15.59346 -0.05705,-9.49849 -0.08557,-14.24773 -0.0051,-0.85334 0.686972,-1.54033 1.540296,-1.54033 z"
         style="fill:none;stroke:#000000;stroke-width:0.96813697;stroke-linejoin:round;stroke-miterlimit:4;stroke-opacity:1" />
    </g>
    <g
       id="g3524"
       transform="translate(0,100)">
      <path
         sodipodi:nodetypes="ccssssssssc"
         inkscape:connector-curvature="0"
         id="path3474"
         d="m 285.36824,1055.1085 7.68978,0 c 15.21316,0.6307 25.74122,-0.031 29.07977,0 1.76274,0.016 3.20812,1.4194 3.18198,3.182 -0.1433,9.6643 0.19193,21.2575 0,28.9914 -0.0437,1.7623 -1.41918,3.1741 -3.18198,3.182 -12.1642,0.054 -23.58891,0.6634 -36.59277,0.088 -1.76109,-0.078 -3.19579,-1.0657 -3.18198,-2.8285 0.25221,-32.2133 -0.11786,-19.6222 -0.17678,-29.4333 -0.0106,-1.7628 1.41916,-3.182 3.18198,-3.182 z"
         style="fill:#00ccff;stroke:none" />
      <g
         transform="translate(300,4e-5)"
         id="g3476">
        <path
           transform="translate(-21.349284,996.9767)"
           inkscape:connector-curvature="0"
           id="path3478"
           d="m 4.0625,70.625 -0.375,21 1.75,1.625 L 14.25,94 44.625,93.25 46.9375,91.4375 46.8125,74.75 39.125,69.3125 34,69.25 25.75,74.0625 13.5625,69.625 z"
           style="fill:#abc837;stroke:none" />
        <path
           sodipodi:nodetypes="ccc"
           transform="translate(-21.349284,996.9767)"
           inkscape:connector-curvature="0"
           id="path3480"
           d="M 4.2426407,70.32932 C 10.599419,68.794565 17.719266,70.384089 25.9797,74.235869 38.872648,63.53096 41.176064,72.136373 46.669048,74.925514"
           style="fill:none;stroke:#000000;stroke-width:1;stroke-linecap:round;stroke-linejoin:round;stroke-miterlimit:4;stroke-opacity:1;stroke-dasharray:none;stroke-dashoffset:0" />
      </g>
      <path
         sodipodi:nodetypes="ccssssssssc"
         inkscape:connector-curvature="0"
         id="path3458"
         d="m 285.36824,1055.1085 7.68979,0 c 15.21315,0.6307 25.74121,-0.031 29.07976,0 1.76274,0.016 3.20812,1.4194 3.18198,3.182 -0.1433,9.6643 0.19193,21.2575 0,28.9914 -0.0437,1.7623 -1.41918,3.1741 -3.18198,3.182 -12.1642,0.054 -23.58891,0.6634 -36.59277,0.088 -1.76109,-0.078 -3.19578,-1.0657 -3.18198,-2.8285 0.25222,-32.2133 -0.11785,-19.6222 -0.17678,-29.4333 -0.0106,-1.7628 1.41916,-3.182 3.18198,-3.182 z"
         style="fill:none;stroke:#000000;stroke-width:2;stroke-linejoin:round;stroke-miterlimit:4;stroke-opacity:1" />
    </g>
    <g
       transform="translate(50,150)"
       id="g3488">
      <path
         sodipodi:nodetypes="cc"
         transform="translate(-21.349284,996.9767)"
         inkscape:connector-curvature="0"
         id="path3490"
         d="M 42.1875,40.0625 30.75,31.4375"
         style="fill:none;stroke:#000000;stroke-width:2;stroke-linecap:round;stroke-linejoin:round;stroke-miterlimit:4;stroke-opacity:1;stroke-dasharray:none;stroke-dashoffset:0;marker-start:none;marker-end:none" />
      <path
         transform="translate(-21.349284,996.9767)"
         inkscape:connector-curvature="0"
         id="path3492"
         d="m 35.0625,31.4375 -4.25,0"
         style="fill:none;stroke:#000000;stroke-width:2;stroke-linecap:round;stroke-linejoin:round;stroke-miterlimit:4;stroke-opacity:1;stroke-dasharray:none;stroke-dashoffset:0" />
      <path
         style="fill:none;stroke:#000000;stroke-width:2;stroke-linecap:round;stroke-linejoin:round;stroke-miterlimit:4;stroke-opacity:1;stroke-dasharray:none;stroke-dashoffset:0"
         d="m 10.632892,1032.5131 -1.2143521,-4.0726"
         id="path3494"
         inkscape:connector-curvature="0" />
      <path
         style="fill:none;stroke:#000000;stroke-width:2;stroke-linecap:round;stroke-linejoin:round;stroke-miterlimit:4;stroke-opacity:1;stroke-dasharray:none;stroke-dashoffset:0"
         d="m 16.671267,1037.171 4.249962,-0.018"
         id="path3496"
         inkscape:connector-curvature="0" />
      <path
         inkscape:connector-curvature="0"
         id="path3498"
         d="m 19.7345,1033.0593 1.231291,4.0675"
         style="fill:none;stroke:#000000;stroke-width:2;stroke-linecap:round;stroke-linejoin:round;stroke-miterlimit:4;stroke-opacity:1;stroke-dasharray:none;stroke-dashoffset:0" />
    </g>
    <g
       id="g3500"
       transform="matrix(0.73936496,0,0,0.73936496,105.72505,420.58374)">
      <path
         style="fill:none;stroke:#000000;stroke-width:2;stroke-linecap:round;stroke-linejoin:round;stroke-miterlimit:4;stroke-opacity:1;stroke-dasharray:none;stroke-dashoffset:0;marker-start:none;marker-end:none"
         d="M 42.1875,40.0625 30.75,31.4375"
         id="path3502"
         inkscape:connector-curvature="0"
         transform="translate(-21.349284,996.9767)"
         sodipodi:nodetypes="cc" />
      <path
         style="fill:none;stroke:#000000;stroke-width:2;stroke-linecap:round;stroke-linejoin:round;stroke-miterlimit:4;stroke-opacity:1;stroke-dasharray:none;stroke-dashoffset:0"
         d="m 35.0625,31.4375 -4.25,0"
         id="path3504"
         inkscape:connector-curvature="0"
         transform="translate(-21.349284,996.9767)" />
      <path
         inkscape:connector-curvature="0"
         id="path3506"
         d="m 10.632892,1032.5131 -1.2143521,-4.0726"
         style="fill:none;stroke:#000000;stroke-width:2;stroke-linecap:round;stroke-linejoin:round;stroke-miterlimit:4;stroke-opacity:1;stroke-dasharray:none;stroke-dashoffset:0" />
      <path
         inkscape:connector-curvature="0"
         id="path3508"
         d="m 16.671267,1037.171 4.249962,-0.018"
         style="fill:none;stroke:#000000;stroke-width:2;stroke-linecap:round;stroke-linejoin:round;stroke-miterlimit:4;stroke-opacity:1;stroke-dasharray:none;stroke-dashoffset:0" />
      <path
         style="fill:none;stroke:#000000;stroke-width:2;stroke-linecap:round;stroke-linejoin:round;stroke-miterlimit:4;stroke-opacity:1;stroke-dasharray:none;stroke-dashoffset:0"
         d="m 19.7345,1033.0593 1.231291,4.0675"
         id="path3510"
         inkscape:connector-curvature="0" />
    </g>
    <g
       transform="matrix(0.45266641,0,0,0.45266641,162.02262,718.22586)"
       id="g3512">
      <path
         sodipodi:nodetypes="cc"
         transform="translate(-21.349284,996.9767)"
         inkscape:connector-curvature="0"
         id="path3514"
         d="M 42.1875,40.0625 30.75,31.4375"
         style="fill:none;stroke:#000000;stroke-width:2;stroke-linecap:round;stroke-linejoin:round;stroke-miterlimit:4;stroke-opacity:1;stroke-dasharray:none;stroke-dashoffset:0;marker-start:none;marker-end:none" />
      <path
         transform="translate(-21.349284,996.9767)"
         inkscape:connector-curvature="0"
         id="path3516"
         d="m 35.0625,31.4375 -4.25,0"
         style="fill:none;stroke:#000000;stroke-width:2;stroke-linecap:round;stroke-linejoin:round;stroke-miterlimit:4;stroke-opacity:1;stroke-dasharray:none;stroke-dashoffset:0" />
      <path
         style="fill:none;stroke:#000000;stroke-width:2;stroke-linecap:round;stroke-linejoin:round;stroke-miterlimit:4;stroke-opacity:1;stroke-dasharray:none;stroke-dashoffset:0"
         d="m 10.632892,1032.5131 -1.2143521,-4.0726"
         id="path3518"
         inkscape:connector-curvature="0" />
      <path
         style="fill:none;stroke:#000000;stroke-width:2;stroke-linecap:round;stroke-linejoin:round;stroke-miterlimit:4;stroke-opacity:1;stroke-dasharray:none;stroke-dashoffset:0"
         d="m 16.671267,1037.171 4.249962,-0.018"
         id="path3520"
         inkscape:connector-curvature="0" />
      <path
         inkscape:connector-curvature="0"
         id="path3522"
         d="m 19.7345,1033.0593 1.231291,4.0675"
         style="fill:none;stroke:#000000;stroke-width:2;stroke-linecap:round;stroke-linejoin:round;stroke-miterlimit:4;stroke-opacity:1;stroke-dasharray:none;stroke-dashoffset:0" />
    </g>
    <g
       id="g3627"
       transform="translate(0,200)"
       style="fill:#cccccc">
      <path
         style="fill:#cccccc;stroke:#000000;stroke-width:2;stroke-linejoin:round;stroke-miterlimit:4;stroke-opacity:1"
         d="m -14.631769,955.1085 7.6897858,0 c 15.2131497,0.6307 25.7412182,-0.031 29.0797642,0 1.762743,0.016 3.208116,1.4194 3.18198,3.182 -0.143304,9.6643 0.19193,21.2575 0,28.9914 -0.04373,1.7623 -1.41918,3.1741 -3.18198,3.182 -12.1641967,0.054 -23.5889115,0.6634 -36.592773,0.088 -1.761089,-0.078 -3.195782,-1.0657 -3.18198,-2.8285 0.252217,-32.2133 -0.117851,-19.6222 -0.176777,-29.4333 -0.01059,-1.7628 1.419163,-3.182 3.18198,-3.182 z"
         id="path3629"
         inkscape:connector-curvature="0"
         sodipodi:nodetypes="ccssssssssc" />
    </g>
    <g
       id="g3631"
       transform="translate(19.622213,180.93592)"
       style="filter:url(#filter4613)">
      <path
         sodipodi:nodetypes="ccssssssssc"
         inkscape:connector-curvature="0"
         id="path3633"
         d="m -32.031295,979.11883 3.722385,0 c 7.364206,0.3053 12.460508,-0.015 14.076595,0 0.853287,0.008 1.552949,0.68708 1.540296,1.54032 -0.06937,4.67819 0.09291,10.29009 0,14.03382 -0.02115,0.85307 -0.68698,1.53648 -1.540296,1.54031 -5.888306,0.0261 -11.418648,0.32113 -17.713407,0.0426 -0.852488,-0.0378 -1.546976,-0.51588 -1.540296,-1.36919 0.122092,-15.59346 -0.05705,-9.49849 -0.08557,-14.24773 -0.0051,-0.85334 0.686971,-1.54033 1.540297,-1.54033 z"
         style="fill:#959595;stroke:none" />
      <path
         style="fill:#afafaf;stroke:none"
         d="m -33.316504,985.16641 -0.181525,10.16543 0.847119,0.78662 4.265854,0.36305 14.703582,-0.36305 1.119408,-0.87738 -0.06051,-8.07789 -3.721276,-2.63212 -2.480851,-0.03 -3.993565,2.32958 -5.899586,-2.14805 z"
         id="path3635"
         inkscape:connector-curvature="0" />
      <path
         style="fill:none;stroke:#000000;stroke-width:0.48406848;stroke-linecap:round;stroke-linejoin:round;stroke-miterlimit:4;stroke-opacity:1;stroke-dasharray:none;stroke-dashoffset:0"
         d="m -33.229303,985.02327 c 3.077116,-0.7429 6.523609,0.0266 10.522227,1.89106 6.241065,-5.1819 7.356078,-1.0163 10.015057,0.33382"
         id="path3637"
         inkscape:connector-curvature="0"
         sodipodi:nodetypes="ccc" />
      <path
         style="fill:none;stroke:#000000;stroke-width:0.96813697;stroke-linejoin:round;stroke-miterlimit:4;stroke-opacity:1"
         d="m -32.031295,979.11883 3.722385,0 c 7.364206,0.3053 12.460508,-0.015 14.076595,0 0.853287,0.008 1.552949,0.68708 1.540296,1.54032 -0.06937,4.67819 0.09291,10.29009 0,14.03382 -0.02115,0.85307 -0.68698,1.53648 -1.540296,1.54031 -5.888306,0.0261 -11.418648,0.32113 -17.713407,0.0426 -0.852488,-0.0378 -1.546976,-0.51588 -1.540296,-1.36919 0.122092,-15.59346 -0.05705,-9.49849 -0.08557,-14.24773 -0.0051,-0.85334 0.686971,-1.54033 1.540297,-1.54033 z"
         id="path3639"
         inkscape:connector-curvature="0"
         sodipodi:nodetypes="ccssssssssc" />
      <path
         style="fill:#5a5a5a;fill-opacity:1;fill-rule:nonzero;stroke:#000000;stroke-width:0.48406848;stroke-linecap:round;stroke-linejoin:round;stroke-miterlimit:4;stroke-opacity:1;stroke-dasharray:none;stroke-dashoffset:0"
         d="m -30.54557,994.26336 c -0.355518,0.0397 -1.77759,-0.79005 -1.77759,-0.79005 -0.17912,-0.0597 -0.76765,-2.0598 -0.632032,-2.37014 0.142371,-0.32573 0.711035,-1.42205 0.711035,-1.42205 l 2.054105,4.46369 z"
         id="path3641"
         inkscape:connector-curvature="0"
         sodipodi:nodetypes="ccsccc" />
      <path
         style="fill:#5a5a5a;fill-opacity:1;fill-rule:nonzero;stroke:#000000;stroke-width:0.48406848;stroke-linecap:round;stroke-linejoin:round;stroke-miterlimit:4;stroke-opacity:1;stroke-dasharray:none;stroke-dashoffset:0"
         d="m -29.75553,992.40672 -1.343068,3.87124 0.908546,0 1.145557,-3.83169 z"
         id="path3643"
         inkscape:connector-curvature="0" />
      <path
         style="fill:#929292;fill-opacity:1;fill-rule:nonzero;stroke:#000000;stroke-width:0.48406848;stroke-linecap:round;stroke-linejoin:round;stroke-miterlimit:4;stroke-opacity:1;stroke-dasharray:none;stroke-dashoffset:0"
         d="m -28.641498,987.62867 c -0.433048,0.0266 -0.808825,0.44443 -1.061421,1.08935 -0.700922,-0.14817 -1.26699,-0.0522 -1.515318,0.32123 -0.130743,0.19658 -0.157068,0.44873 -0.09776,0.73322 -0.428324,0.23855 -0.684337,0.53557 -0.684337,0.85888 0,0.38697 0.358937,0.73574 0.949692,0.99162 -0.200293,0.56253 -0.184897,1.04006 0.09776,1.31279 0.277965,0.26817 0.760317,0.29189 1.326777,0.10475 0.309018,0.74687 0.758185,1.20973 1.24298,1.18011 0.433942,-0.0266 0.808814,-0.44215 1.061421,-1.08935 0.700922,0.14817 1.26699,0.0522 1.515318,-0.32122 0.221166,-0.33251 0.148225,-0.82481 -0.146644,-1.36169 0.387336,-0.23167 0.614507,-0.51108 0.614507,-0.81701 0,-0.38048 -0.348311,-0.72988 -0.92176,-0.98459 0.133658,-0.48141 0.0902,-0.88929 -0.16061,-1.13127 -0.25465,-0.24567 -0.681602,-0.27921 -1.187116,-0.13966 -0.287299,-0.48736 -0.6511,-0.77054 -1.033489,-0.74716 z"
         id="path3645"
         inkscape:connector-curvature="0" />
      <path
         sodipodi:type="arc"
         style="fill:#d0d0d0;fill-opacity:1;fill-rule:nonzero;stroke:#000000;stroke-width:1.08313537;stroke-linecap:round;stroke-linejoin:round;stroke-miterlimit:4;stroke-opacity:1;stroke-dasharray:none;stroke-dashoffset:0"
         id="path3647"
         sodipodi:cx="105.62408"
         sodipodi:cy="86.327614"
         sodipodi:rx="3.9774756"
         sodipodi:ry="2.9168155"
         d="m 109.60155,86.327614 a 3.9774756,2.9168155 0 1 1 -7.95495,0 3.9774756,2.9168155 0 1 1 7.95495,0 z"
         transform="matrix(0.22345707,0,0,0.22345707,-52.034659,971.47688)" />
      <path
         sodipodi:nodetypes="ccccc"
         inkscape:connector-curvature="0"
         id="path3649"
         d="m -24.073834,993.25384 1.101033,3.08463 -1.02956,0.0605 -0.782507,-3.10559 z"
         style="fill:#5a5a5a;fill-opacity:1;fill-rule:nonzero;stroke:#000000;stroke-width:0.48406848;stroke-linecap:round;stroke-linejoin:round;stroke-miterlimit:4;stroke-opacity:1;stroke-dasharray:none;stroke-dashoffset:0" />
      <path
         inkscape:connector-curvature="0"
         id="path3651"
         d="m -24.03491,989.41285 c 0.382003,0.0228 0.713478,0.38334 0.9363,0.93963 0.618296,-0.12779 1.117636,-0.045 1.336692,0.27708 0.115329,0.16957 0.13855,0.38706 0.08624,0.63244 0.377835,0.20577 0.603667,0.46199 0.603667,0.74086 0,0.33377 -0.316624,0.63462 -0.837743,0.8553 0.176685,0.48523 0.163102,0.89717 -0.08624,1.13238 -0.245195,0.23134 -0.670692,0.25181 -1.170376,0.0904 -0.272589,0.6442 -0.668809,1.04346 -1.096454,1.0179 -0.382792,-0.0227 -0.713472,-0.38135 -0.936302,-0.93962 -0.618297,0.12779 -1.117637,0.045 -1.336691,-0.27708 -0.195095,-0.28681 -0.130753,-0.71143 0.129357,-1.17454 -0.341677,-0.19982 -0.542068,-0.44084 -0.542068,-0.70471 0,-0.3282 0.307252,-0.62958 0.813102,-0.8493 -0.117903,-0.41523 -0.07956,-0.76705 0.141677,-0.97578 0.224632,-0.21193 0.601254,-0.24083 1.047178,-0.12049 0.253434,-0.42036 0.574348,-0.66462 0.911661,-0.64444 z"
         style="fill:#929292;fill-opacity:1;fill-rule:nonzero;stroke:#000000;stroke-width:0.48406848;stroke-linecap:round;stroke-linejoin:round;stroke-miterlimit:4;stroke-opacity:1;stroke-dasharray:none;stroke-dashoffset:0" />
      <path
         transform="matrix(-0.13409011,-0.0767756,-0.11527862,0.15322812,-0.05698124,987.11624)"
         d="m 109.60155,86.327614 a 3.9774756,2.9168155 0 1 1 -7.95495,0 3.9774756,2.9168155 0 1 1 7.95495,0 z"
         sodipodi:ry="2.9168155"
         sodipodi:rx="3.9774756"
         sodipodi:cy="86.327614"
         sodipodi:cx="105.62408"
         id="path3653"
         style="fill:#d0d0d0;fill-opacity:1;fill-rule:nonzero;stroke:#000000;stroke-width:1.41164529;stroke-linecap:round;stroke-linejoin:round;stroke-miterlimit:4;stroke-opacity:1;stroke-dasharray:none;stroke-dashoffset:0"
         sodipodi:type="arc" />
      <path
         style="fill:#00ccff;stroke:none"
         d="m -32.031295,979.11883 3.722383,0 c 7.364208,0.3053 12.46051,-0.015 14.076597,0 0.853287,0.008 1.552949,0.68708 1.540296,1.54032 -0.06937,4.67819 0.09291,10.29009 0,14.03382 -0.02115,0.85307 -0.68698,1.53648 -1.540296,1.54031 -5.888306,0.0261 -11.418648,0.32113 -17.713407,0.0426 -0.852488,-0.0378 -1.546977,-0.51588 -1.540296,-1.36919 0.12209,-15.59346 -0.05705,-9.49849 -0.08557,-14.24773 -0.0051,-0.85334 0.686972,-1.54033 1.540296,-1.54033 z"
         id="path3655"
         inkscape:connector-curvature="0"
         sodipodi:nodetypes="ccssssssssc" />
      <g
         id="g3657"
         transform="matrix(0.48406848,0,0,0.48406848,-24.948519,468.37408)">
        <path
           style="fill:#abc837;stroke:none"
           d="m 4.0625,70.625 -0.375,21 1.75,1.625 L 14.25,94 44.625,93.25 46.9375,91.4375 46.8125,74.75 39.125,69.3125 34,69.25 25.75,74.0625 13.5625,69.625 z"
           id="path3659"
           inkscape:connector-curvature="0"
           transform="translate(-21.349284,996.9767)" />
        <path
           style="fill:none;stroke:#000000;stroke-width:1;stroke-linecap:round;stroke-linejoin:round;stroke-miterlimit:4;stroke-opacity:1;stroke-dasharray:none;stroke-dashoffset:0"
           d="M 4.2426407,70.32932 C 10.599419,68.794565 17.719266,70.384089 25.9797,74.235869 38.872648,63.53096 41.176064,72.136373 46.669048,74.925514"
           id="path3661"
           inkscape:connector-curvature="0"
           transform="translate(-21.349284,996.9767)"
           sodipodi:nodetypes="ccc" />
      </g>
      <path
         sodipodi:nodetypes="ccssssssssc"
         inkscape:connector-curvature="0"
         id="path3663"
         d="m -32.031295,979.11883 3.722383,0 c 7.364208,0.3053 12.46051,-0.015 14.076597,0 0.853287,0.008 1.552949,0.68708 1.540296,1.54032 -0.06937,4.67819 0.09291,10.29009 0,14.03382 -0.02115,0.85307 -0.68698,1.53648 -1.540296,1.54031 -5.888306,0.0261 -11.418648,0.32113 -17.713407,0.0426 -0.852488,-0.0378 -1.546977,-0.51588 -1.540296,-1.36919 0.12209,-15.59346 -0.05705,-9.49849 -0.08557,-14.24773 -0.0051,-0.85334 0.686972,-1.54033 1.540296,-1.54033 z"
         style="fill:none;stroke:#000000;stroke-width:0.96813697;stroke-linejoin:round;stroke-miterlimit:4;stroke-opacity:1" />
    </g>
    <g
       id="g3665"
       transform="translate(0,150)">
      <path
         sodipodi:nodetypes="cc"
         transform="translate(-21.349284,996.9767)"
         inkscape:connector-curvature="0"
         id="path3667"
         d="M 42.1875,40.0625 30.75,31.4375"
         style="fill:none;stroke:#000000;stroke-width:2;stroke-linecap:round;stroke-linejoin:round;stroke-miterlimit:4;stroke-opacity:1;stroke-dasharray:none;stroke-dashoffset:0;marker-start:none;marker-end:none" />
      <path
         transform="translate(-21.349284,996.9767)"
         inkscape:connector-curvature="0"
         id="path3669"
         d="m 35.0625,31.4375 -4.25,0"
         style="fill:none;stroke:#000000;stroke-width:2;stroke-linecap:round;stroke-linejoin:round;stroke-miterlimit:4;stroke-opacity:1;stroke-dasharray:none;stroke-dashoffset:0" />
      <path
         style="fill:none;stroke:#000000;stroke-width:2;stroke-linecap:round;stroke-linejoin:round;stroke-miterlimit:4;stroke-opacity:1;stroke-dasharray:none;stroke-dashoffset:0"
         d="m 10.632892,1032.5131 -1.2143521,-4.0726"
         id="path3671"
         inkscape:connector-curvature="0" />
      <path
         style="fill:none;stroke:#000000;stroke-width:2;stroke-linecap:round;stroke-linejoin:round;stroke-miterlimit:4;stroke-opacity:1;stroke-dasharray:none;stroke-dashoffset:0"
         d="m 16.671267,1037.171 4.249962,-0.018"
         id="path3673"
         inkscape:connector-curvature="0" />
      <path
         inkscape:connector-curvature="0"
         id="path3675"
         d="m 19.7345,1033.0593 1.231291,4.0675"
         style="fill:none;stroke:#000000;stroke-width:2;stroke-linecap:round;stroke-linejoin:round;stroke-miterlimit:4;stroke-opacity:1;stroke-dasharray:none;stroke-dashoffset:0" />
    </g>
    <g
       id="g4571"
       transform="translate(-300,-50)"
       style="filter:url(#filter4654)">
      <path
         style="fill:#00ccff;stroke:none"
         d="m 285.36824,1055.1085 7.68978,0 c 15.21316,0.6307 25.74122,-0.031 29.07977,0 1.76274,0.016 3.20812,1.4194 3.18198,3.182 -0.1433,9.6643 0.19193,21.2575 0,28.9914 -0.0437,1.7623 -1.41918,3.1741 -3.18198,3.182 -12.1642,0.054 -23.58891,0.6634 -36.59277,0.088 -1.76109,-0.078 -3.19579,-1.0657 -3.18198,-2.8285 0.25221,-32.2133 -0.11786,-19.6222 -0.17678,-29.4333 -0.0106,-1.7628 1.41916,-3.182 3.18198,-3.182 z"
         id="path4573"
         inkscape:connector-curvature="0"
         sodipodi:nodetypes="ccssssssssc" />
      <g
         id="g4575"
         transform="translate(300,4e-5)">
        <path
           style="fill:#abc837;stroke:none"
           d="m 4.0625,70.625 -0.375,21 1.75,1.625 L 14.25,94 44.625,93.25 46.9375,91.4375 46.8125,74.75 39.125,69.3125 34,69.25 25.75,74.0625 13.5625,69.625 z"
           id="path4577"
           inkscape:connector-curvature="0"
           transform="translate(-21.349284,996.9767)" />
        <path
           style="fill:none;stroke:#000000;stroke-width:1;stroke-linecap:round;stroke-linejoin:round;stroke-miterlimit:4;stroke-opacity:1;stroke-dasharray:none;stroke-dashoffset:0"
           d="M 4.2426407,70.32932 C 10.599419,68.794565 17.719266,70.384089 25.9797,74.235869 38.872648,63.53096 41.176064,72.136373 46.669048,74.925514"
           id="path4579"
           inkscape:connector-curvature="0"
           transform="translate(-21.349284,996.9767)"
           sodipodi:nodetypes="ccc" />
      </g>
      <path
         style="fill:none;stroke:#000000;stroke-width:2;stroke-linejoin:round;stroke-miterlimit:4;stroke-opacity:1"
         d="m 285.36824,1055.1085 7.68979,0 c 15.21315,0.6307 25.74121,-0.031 29.07976,0 1.76274,0.016 3.20812,1.4194 3.18198,3.182 -0.1433,9.6643 0.19193,21.2575 0,28.9914 -0.0437,1.7623 -1.41918,3.1741 -3.18198,3.182 -12.1642,0.054 -23.58891,0.6634 -36.59277,0.088 -1.76109,-0.078 -3.19578,-1.0657 -3.18198,-2.8285 0.25222,-32.2133 -0.11785,-19.6222 -0.17678,-29.4333 -0.0106,-1.7628 1.41916,-3.182 3.18198,-3.182 z"
         id="path4581"
         inkscape:connector-curvature="0"
         sodipodi:nodetypes="ccssssssssc" />
    </g>
    <g
       transform="translate(-250,-50)"
       id="g5548">
      <path
         sodipodi:nodetypes="ccssssssssc"
         inkscape:connector-curvature="0"
         id="path5550"
         d="m 285.36824,1055.1085 7.68978,0 c 15.21316,0.6307 25.74122,-0.031 29.07977,0 1.76274,0.016 3.20812,1.4194 3.18198,3.182 -0.1433,9.6643 0.19193,21.2575 0,28.9914 -0.0437,1.7623 -1.41918,3.1741 -3.18198,3.182 -12.1642,0.054 -23.58891,0.6634 -36.59277,0.088 -1.76109,-0.078 -3.19579,-1.0657 -3.18198,-2.8285 0.25221,-32.2133 -0.11786,-19.6222 -0.17678,-29.4333 -0.0106,-1.7628 1.41916,-3.182 3.18198,-3.182 z"
         style="fill:#00ccff;stroke:none" />
      <g
         transform="translate(300,4e-5)"
         id="g5552">
        <path
           transform="translate(-21.349284,996.9767)"
           inkscape:connector-curvature="0"
           id="path5554"
           d="m 4.0625,70.625 -0.375,21 1.75,1.625 L 14.25,94 44.625,93.25 46.9375,91.4375 46.8125,74.75 39.125,69.3125 34,69.25 25.75,74.0625 13.5625,69.625 z"
           style="fill:#abc837;stroke:none" />
        <path
           sodipodi:nodetypes="ccc"
           transform="translate(-21.349284,996.9767)"
           inkscape:connector-curvature="0"
           id="path5556"
           d="M 4.2426407,70.32932 C 10.599419,68.794565 17.719266,70.384089 25.9797,74.235869 38.872648,63.53096 41.176064,72.136373 46.669048,74.925514"
           style="fill:none;stroke:#000000;stroke-width:1;stroke-linecap:round;stroke-linejoin:round;stroke-miterlimit:4;stroke-opacity:1;stroke-dasharray:none;stroke-dashoffset:0" />
      </g>
      <path
         sodipodi:nodetypes="ccssssssssc"
         inkscape:connector-curvature="0"
         id="path5558"
         d="m 285.36824,1055.1085 7.68979,0 c 15.21315,0.6307 25.74121,-0.031 29.07976,0 1.76274,0.016 3.20812,1.4194 3.18198,3.182 -0.1433,9.6643 0.19193,21.2575 0,28.9914 -0.0437,1.7623 -1.41918,3.1741 -3.18198,3.182 -12.1642,0.054 -23.58891,0.6634 -36.59277,0.088 -1.76109,-0.078 -3.19578,-1.0657 -3.18198,-2.8285 0.25222,-32.2133 -0.11785,-19.6222 -0.17678,-29.4333 -0.0106,-1.7628 1.41916,-3.182 3.18198,-3.182 z"
         style="fill:none;stroke:#000000;stroke-width:2;stroke-linejoin:round;stroke-miterlimit:4;stroke-opacity:1" />
    </g>
    <g
       style="filter:url(#filter4654)"
       transform="translate(-300,-100)"
       id="g5633">
      <path
         sodipodi:nodetypes="ccssssssssc"
         inkscape:connector-curvature="0"
         id="path5635"
         d="m 285.36824,1055.1085 7.68978,0 c 15.21316,0.6307 25.74122,-0.031 29.07977,0 1.76274,0.016 3.20812,1.4194 3.18198,3.182 -0.1433,9.6643 0.19193,21.2575 0,28.9914 -0.0437,1.7623 -1.41918,3.1741 -3.18198,3.182 -12.1642,0.054 -23.58891,0.6634 -36.59277,0.088 -1.76109,-0.078 -3.19579,-1.0657 -3.18198,-2.8285 0.25221,-32.2133 -0.11786,-19.6222 -0.17678,-29.4333 -0.0106,-1.7628 1.41916,-3.182 3.18198,-3.182 z"
         style="fill:#00ccff;stroke:none" />
      <g
         transform="translate(300,4e-5)"
         id="g5637">
        <path
           transform="translate(-21.349284,996.9767)"
           inkscape:connector-curvature="0"
           id="path5639"
           d="m 4.0625,70.625 -0.375,21 1.75,1.625 L 14.25,94 44.625,93.25 46.9375,91.4375 46.8125,74.75 39.125,69.3125 34,69.25 25.75,74.0625 13.5625,69.625 z"
           style="fill:#abc837;stroke:none" />
        <path
           sodipodi:nodetypes="ccc"
           transform="translate(-21.349284,996.9767)"
           inkscape:connector-curvature="0"
           id="path5641"
           d="M 4.2426407,70.32932 C 10.599419,68.794565 17.719266,70.384089 25.9797,74.235869 38.872648,63.53096 41.176064,72.136373 46.669048,74.925514"
           style="fill:none;stroke:#000000;stroke-width:1;stroke-linecap:round;stroke-linejoin:round;stroke-miterlimit:4;stroke-opacity:1;stroke-dasharray:none;stroke-dashoffset:0" />
      </g>
      <path
         sodipodi:nodetypes="ccssssssssc"
         inkscape:connector-curvature="0"
         id="path5643"
         d="m 285.36824,1055.1085 7.68979,0 c 15.21315,0.6307 25.74121,-0.031 29.07976,0 1.76274,0.016 3.20812,1.4194 3.18198,3.182 -0.1433,9.6643 0.19193,21.2575 0,28.9914 -0.0437,1.7623 -1.41918,3.1741 -3.18198,3.182 -12.1642,0.054 -23.58891,0.6634 -36.59277,0.088 -1.76109,-0.078 -3.19578,-1.0657 -3.18198,-2.8285 0.25222,-32.2133 -0.11785,-19.6222 -0.17678,-29.4333 -0.0106,-1.7628 1.41916,-3.182 3.18198,-3.182 z"
         style="fill:none;stroke:#000000;stroke-width:2;stroke-linejoin:round;stroke-miterlimit:4;stroke-opacity:1" />
    </g>
    <g
       id="g5645"
       transform="translate(-250,-100)">
      <path
         style="fill:#00ccff;stroke:none"
         d="m 285.36824,1055.1085 7.68978,0 c 15.21316,0.6307 25.74122,-0.031 29.07977,0 1.76274,0.016 3.20812,1.4194 3.18198,3.182 -0.1433,9.6643 0.19193,21.2575 0,28.9914 -0.0437,1.7623 -1.41918,3.1741 -3.18198,3.182 -12.1642,0.054 -23.58891,0.6634 -36.59277,0.088 -1.76109,-0.078 -3.19579,-1.0657 -3.18198,-2.8285 0.25221,-32.2133 -0.11786,-19.6222 -0.17678,-29.4333 -0.0106,-1.7628 1.41916,-3.182 3.18198,-3.182 z"
         id="path5647"
         inkscape:connector-curvature="0"
         sodipodi:nodetypes="ccssssssssc" />
      <g
         id="g5649"
         transform="translate(300,4e-5)">
        <path
           style="fill:#abc837;stroke:none"
           d="m 4.0625,70.625 -0.375,21 1.75,1.625 L 14.25,94 44.625,93.25 46.9375,91.4375 46.8125,74.75 39.125,69.3125 34,69.25 25.75,74.0625 13.5625,69.625 z"
           id="path5651"
           inkscape:connector-curvature="0"
           transform="translate(-21.349284,996.9767)" />
        <path
           style="fill:none;stroke:#000000;stroke-width:1;stroke-linecap:round;stroke-linejoin:round;stroke-miterlimit:4;stroke-opacity:1;stroke-dasharray:none;stroke-dashoffset:0"
           d="M 4.2426407,70.32932 C 10.599419,68.794565 17.719266,70.384089 25.9797,74.235869 38.872648,63.53096 41.176064,72.136373 46.669048,74.925514"
           id="path5653"
           inkscape:connector-curvature="0"
           transform="translate(-21.349284,996.9767)"
           sodipodi:nodetypes="ccc" />
      </g>
      <path
         style="fill:none;stroke:#000000;stroke-width:2;stroke-linejoin:round;stroke-miterlimit:4;stroke-opacity:1"
         d="m 285.36824,1055.1085 7.68979,0 c 15.21315,0.6307 25.74121,-0.031 29.07976,0 1.76274,0.016 3.20812,1.4194 3.18198,3.182 -0.1433,9.6643 0.19193,21.2575 0,28.9914 -0.0437,1.7623 -1.41918,3.1741 -3.18198,3.182 -12.1642,0.054 -23.58891,0.6634 -36.59277,0.088 -1.76109,-0.078 -3.19578,-1.0657 -3.18198,-2.8285 0.25222,-32.2133 -0.11785,-19.6222 -0.17678,-29.4333 -0.0106,-1.7628 1.41916,-3.182 3.18198,-3.182 z"
         id="path5655"
         inkscape:connector-curvature="0"
         sodipodi:nodetypes="ccssssssssc" />
    </g>
    <path
       sodipodi:type="star"
       style="fill:#ffffff;fill-opacity:1;stroke:none"
       id="path5657"
       sodipodi:sides="5"
       sodipodi:cx="165.81654"
       sodipodi:cy="-9.9551048"
       sodipodi:r1="13.400093"
       sodipodi:r2="6.700047"
       sodipodi:arg1="0.63558571"
       sodipodi:arg2="1.2639042"
       inkscape:flatsided="false"
       inkscape:rounded="0"
       inkscape:randomized="0"
       d="m 176.59992,-2.0001536 -8.75931,-1.5679502 -6.25743,6.3268162 -1.21556,-8.8151232 -7.95082,-3.9960742 8.00805,-3.880095 1.34356,-8.796526 6.16481,6.417092 8.78118,-1.440478 -4.19799,7.8460769 z"
       transform="matrix(0.44514139,0,0,0.44514139,-32.592474,969.36704)"
       inkscape:transform-center-x="0.55684624"
       inkscape:transform-center-y="-0.013394923" />
    <path
       inkscape:transform-center-y="0.01120178"
       inkscape:transform-center-x="-0.86955165"
       transform="matrix(0.55785734,0.40247284,-0.40247284,0.55785734,-27.724702,898.53361)"
       d="m 176.59992,-2.0001536 -8.75931,-1.5679502 -6.25743,6.3268162 -1.21556,-8.8151232 -7.95082,-3.9960742 8.00805,-3.880095 1.34356,-8.796526 6.16481,6.417092 8.78118,-1.440478 -4.19799,7.8460769 z"
       inkscape:randomized="0"
       inkscape:rounded="0"
       inkscape:flatsided="false"
       sodipodi:arg2="1.2639042"
       sodipodi:arg1="0.63558571"
       sodipodi:r2="6.700047"
       sodipodi:r1="13.400093"
       sodipodi:cy="-9.9551048"
       sodipodi:cx="165.81654"
       sodipodi:sides="5"
       id="path5659"
       style="fill:#ffffff;fill-opacity:1;stroke:none"
       sodipodi:type="star" />
    <path
       sodipodi:type="star"
       style="fill:#ffffff;fill-opacity:1;stroke:none"
       id="path5661"
       sodipodi:sides="5"
       sodipodi:cx="165.81654"
       sodipodi:cy="-9.9551048"
       sodipodi:r1="13.400093"
       sodipodi:r2="6.700047"
       sodipodi:arg1="0.63558571"
       sodipodi:arg2="1.2639042"
       inkscape:flatsided="false"
       inkscape:rounded="0"
       inkscape:randomized="0"
       d="m 176.59992,-2.0001536 -8.75931,-1.5679502 -6.25743,6.3268162 -1.21556,-8.8151232 -7.95082,-3.9960742 8.00805,-3.880095 1.34356,-8.796526 6.16481,6.417092 8.78118,-1.440478 -4.19799,7.8460769 z"
       transform="matrix(0.26537926,0.19146104,-0.19146104,0.26537926,15.770735,951.12318)"
       inkscape:transform-center-x="-0.41365578"
       inkscape:transform-center-y="0.0053307111" />
    <path
       inkscape:transform-center-y="2.0348451"
       inkscape:transform-center-x="1.7498502"
       transform="matrix(0.32671225,0.01850908,-0.01850908,0.32671225,-12.653301,984.12436)"
       d="m 176.59992,-2.0001536 -8.75931,-1.5679502 -6.25743,6.3268162 -1.21556,-8.8151232 -7.95082,-3.9960742 8.00805,-3.880095 1.34356,-8.796526 6.16481,6.417092 8.78118,-1.440478 -4.19799,7.8460769 z"
       inkscape:randomized="0"
       inkscape:rounded="0"
       inkscape:flatsided="false"
       sodipodi:arg2="1.2639042"
       sodipodi:arg1="0.63558571"
       sodipodi:r2="6.700047"
       sodipodi:r1="13.400093"
       sodipodi:cy="-9.9551048"
       sodipodi:cx="165.81654"
       sodipodi:sides="5"
       id="path5663"
       style="fill:#ffffff;fill-opacity:1;stroke:none"
       sodipodi:type="star" />
    <path
       inkscape:transform-center-y="-0.013394923"
       inkscape:transform-center-x="0.55684624"
       transform="matrix(0.44514139,0,0,0.44514139,-82.592474,969.36704)"
       d="m 176.59992,-2.0001536 -8.75931,-1.5679502 -6.25743,6.3268162 -1.21556,-8.8151232 -7.95082,-3.9960742 8.00805,-3.880095 1.34356,-8.796526 6.16481,6.417092 8.78118,-1.440478 -4.19799,7.8460769 z"
       inkscape:randomized="0"
       inkscape:rounded="0"
       inkscape:flatsided="false"
       sodipodi:arg2="1.2639042"
       sodipodi:arg1="0.63558571"
       sodipodi:r2="6.700047"
       sodipodi:r1="13.400093"
       sodipodi:cy="-9.9551048"
       sodipodi:cx="165.81654"
       sodipodi:sides="5"
       id="path5665"
       style="fill:#ffffff;fill-opacity:1;stroke:none"
       sodipodi:type="star" />
    <path
       sodipodi:type="star"
       style="fill:#ffffff;fill-opacity:1;stroke:none"
       id="path5667"
       sodipodi:sides="5"
       sodipodi:cx="165.81654"
       sodipodi:cy="-9.9551048"
       sodipodi:r1="13.400093"
       sodipodi:r2="6.700047"
       sodipodi:arg1="0.63558571"
       sodipodi:arg2="1.2639042"
       inkscape:flatsided="false"
       inkscape:rounded="0"
       inkscape:randomized="0"
       d="m 176.59992,-2.0001536 -8.75931,-1.5679502 -6.25743,6.3268162 -1.21556,-8.8151232 -7.95082,-3.9960742 8.00805,-3.880095 1.34356,-8.796526 6.16481,6.417092 8.78118,-1.440478 -4.19799,7.8460769 z"
       transform="matrix(0.55785734,0.40247284,-0.40247284,0.55785734,-77.724702,898.53361)"
       inkscape:transform-center-x="-0.86955165"
       inkscape:transform-center-y="0.01120178" />
    <path
       inkscape:transform-center-y="0.0053307111"
       inkscape:transform-center-x="-0.41365578"
       transform="matrix(0.26537926,0.19146104,-0.19146104,0.26537926,-34.229265,951.12318)"
       d="m 176.59992,-2.0001536 -8.75931,-1.5679502 -6.25743,6.3268162 -1.21556,-8.8151232 -7.95082,-3.9960742 8.00805,-3.880095 1.34356,-8.796526 6.16481,6.417092 8.78118,-1.440478 -4.19799,7.8460769 z"
       inkscape:randomized="0"
       inkscape:rounded="0"
       inkscape:flatsided="false"
       sodipodi:arg2="1.2639042"
       sodipodi:arg1="0.63558571"
       sodipodi:r2="6.700047"
       sodipodi:r1="13.400093"
       sodipodi:cy="-9.9551048"
       sodipodi:cx="165.81654"
       sodipodi:sides="5"
       id="path5669"
       style="fill:#ffffff;fill-opacity:1;stroke:none"
       sodipodi:type="star" />
    <path
       sodipodi:type="star"
       style="fill:#ffffff;fill-opacity:1;stroke:none"
       id="path5671"
       sodipodi:sides="5"
       sodipodi:cx="165.81654"
       sodipodi:cy="-9.9551048"
       sodipodi:r1="13.400093"
       sodipodi:r2="6.700047"
       sodipodi:arg1="0.63558571"
       sodipodi:arg2="1.2639042"
       inkscape:flatsided="false"
       inkscape:rounded="0"
       inkscape:randomized="0"
       d="m 176.59992,-2.0001536 -8.75931,-1.5679502 -6.25743,6.3268162 -1.21556,-8.8151232 -7.95082,-3.9960742 8.00805,-3.880095 1.34356,-8.796526 6.16481,6.417092 8.78118,-1.440478 -4.19799,7.8460769 z"
       transform="matrix(0.32671225,0.01850908,-0.01850908,0.32671225,-62.653301,984.12436)"
       inkscape:transform-center-x="1.7498502"
       inkscape:transform-center-y="2.0348451" />
  </g>
</svg>
