<?xml version="1.0" encoding="UTF-8" standalone="no"?>
<!-- Created with Inkscape (http://www.inkscape.org/) -->

<svg
   xmlns:dc="http://purl.org/dc/elements/1.1/"
   xmlns:cc="http://creativecommons.org/ns#"
   xmlns:rdf="http://www.w3.org/1999/02/22-rdf-syntax-ns#"
   xmlns:svg="http://www.w3.org/2000/svg"
   xmlns="http://www.w3.org/2000/svg"
   xmlns:xlink="http://www.w3.org/1999/xlink"
   xmlns:sodipodi="http://sodipodi.sourceforge.net/DTD/sodipodi-0.dtd"
   xmlns:inkscape="http://www.inkscape.org/namespaces/inkscape"
   inkscape:export-ydpi="90"
   inkscape:export-xdpi="90"
   inkscape:export-filename="/home/micha/Programmieren/git/platformer/images/menu/exitOff.png"
   sodipodi:docname="userlevelState.svg"
   inkscape:version="0.48.4 r9939"
   version="1.1"
   id="svg2"
   height="200"
   width="50">
  <sodipodi:namedview
     id="base"
     pagecolor="#000000"
     bordercolor="#666666"
     borderopacity="1.0"
     inkscape:pageopacity="0.0"
     inkscape:pageshadow="2"
     inkscape:zoom="3.1536962"
     inkscape:cx="130.20712"
     inkscape:cy="73.49339"
     inkscape:document-units="px"
     inkscape:current-layer="g14272"
     showgrid="true"
     inkscape:showpageshadow="true"
     inkscape:window-width="1920"
     inkscape:window-height="1025"
     inkscape:window-x="0"
     inkscape:window-y="27"
     inkscape:window-maximized="1"
     inkscape:snap-global="false">
    <inkscape:grid
       originy="0px"
       originx="0px"
       spacingy="10px"
       spacingx="10px"
       snapvisiblegridlinesonly="true"
       enabled="true"
       visible="true"
       empspacing="5"
       id="grid2985"
       type="xygrid" />
  </sodipodi:namedview>
  <defs
     id="defs4">
    <radialGradient
       inkscape:collect="always"
       xlink:href="#linearGradient4966"
       id="radialGradient4996"
       cx="48.959854"
       cy="113.76012"
       fx="48.959854"
       fy="113.76012"
       r="33.720188"
       gradientTransform="matrix(1.0212046,-0.00818988,0.00989763,1.234145,-1.91603,824.10995)"
       gradientUnits="userSpaceOnUse" />
    <linearGradient
       inkscape:collect="always"
       id="linearGradient4966">
      <stop
         style="stop-color:#976811;stop-opacity:1"
         offset="0"
         id="stop4968" />
      <stop
         style="stop-color:#e69f1a;stop-opacity:1"
         offset="1"
         id="stop4970" />
    </linearGradient>
    <radialGradient
       inkscape:collect="always"
       xlink:href="#linearGradient14093"
       id="radialGradient14091"
       gradientUnits="userSpaceOnUse"
       gradientTransform="matrix(1.5293504,-0.00840526,0.01103297,2.0074679,-29.70022,-154.49248)"
       cx="50.879539"
       cy="145.5582"
       fx="50.879539"
       fy="145.5582"
       r="36.474957" />
    <linearGradient
       id="linearGradient14093"
       inkscape:collect="always">
      <stop
         id="stop14095"
         offset="0"
         style="stop-color:#4e83b6;stop-opacity:0.90980393" />
      <stop
         id="stop14097"
         offset="1"
         style="stop-color:#85afd6;stop-opacity:0.58447486" />
    </linearGradient>
  </defs>
  <metadata
     id="metadata7">
    <rdf:RDF>
      <cc:Work
         rdf:about="">
        <dc:format>image/svg+xml</dc:format>
        <dc:type
           rdf:resource="http://purl.org/dc/dcmitype/StillImage" />
        <dc:title />
      </cc:Work>
    </rdf:RDF>
  </metadata>
  <g
     transform="translate(0,-852.3622)"
     id="layer1"
     inkscape:groupmode="layer"
     inkscape:label="Ebene 1">
    <g
       id="g4050"
       transform="matrix(0.69117562,0,0,0.61890615,-236.72819,334.11959)"
       style="stroke-width:3.05790091;stroke-miterlimit:4;stroke-dasharray:none">
      <g
         id="g4052"
         style="stroke-width:3.05790091;stroke-miterlimit:4;stroke-dasharray:none"
         transform="translate(0.75,-48.25)">
        <path
           sodipodi:nodetypes="aaaaa"
           inkscape:connector-curvature="0"
           id="path4054"
           d="m 372.40879,910.50653 c -5.43433,4.33504 -7.93562,15.24121 -3.46532,20.56481 4.62229,5.50459 16.75203,5.48849 21.56319,0.14821 4.44584,-4.93478 2.61367,-15.23511 -2.20777,-19.80363 -3.85111,-3.64908 -11.74268,-4.21783 -15.8901,-0.90939 z"
           style="fill:#6da7ff;fill-opacity:1;stroke:none" />
        <path
           inkscape:connector-curvature="0"
           id="path4056"
           d="m 384.93125,921.45906 c -2.39928,-0.99367 -4.44656,1.61707 -3.41948,3.8135 1.11543,2.4407 4.63309,-0.21166 5.27166,2.75985 -0.0722,2.37486 2.46883,4.27626 3.99993,1.72342 0.076,-2.21691 0.59393,-4.73613 -0.2936,-6.86207 -1.27111,-1.74163 -3.7021,-1.88569 -5.55851,-1.4347 z"
           style="fill:#327d00;fill-opacity:1;stroke:none" />
        <path
           sodipodi:nodetypes="ccscsscccc"
           inkscape:connector-curvature="0"
           id="path4058"
           d="m 381.30733,917.65836 c -2.69629,1.68156 0.48664,5.1193 2.36573,2.66246 0.15982,-1.02863 0.93087,-2.84685 1.74514,-2.78325 0.86576,0.0676 1.20873,2.88702 2.16705,2.6963 0.36183,0.0387 -1.46473,-3.67504 -0.0452,-3.51656 1.66648,0.18604 3.80711,0.57237 3.8322,-0.0946 0.0389,-1.0337 -1.53135,-4.62236 -3.07801,-4.77145 -0.86303,-2.26085 -5.81036,-0.62679 -4.65899,1.81844 1.12317,1.45101 -0.28405,1.52665 -1.114,2.00592 0.36515,1.06013 0.17316,2.1678 -1.21396,1.98276 z"
           style="fill:#327d00;fill-opacity:1;stroke:none" />
        <path
           sodipodi:nodetypes="csccc"
           inkscape:connector-curvature="0"
           id="path4060"
           d="m 373.79432,910.58729 c 2.13805,0.40551 0.17875,5.34436 2.7008,5.09033 2.5326,-0.25509 2.10108,-5.33194 3.96362,-6.64766 0.52443,-2.95495 -4.19931,0.0823 -5.65251,0.74719 -0.36785,0.22872 -0.70697,0.50272 -1.01191,0.81014 z"
           style="fill:#327d00;fill-opacity:1;stroke:none" />
        <path
           sodipodi:nodetypes="ccscsccsccccc"
           inkscape:connector-curvature="0"
           id="path4062"
           d="m 370.25879,913.15055 c 0.90005,2.24227 3.59287,2.69316 5.07097,3.81997 -0.56378,1.56861 -2.64514,2.59679 -3.5945,3.6925 -0.47262,0.54548 0.11648,1.65619 -0.23919,1.76877 -0.82969,0.1632 -0.64016,-1.21807 -1.07772,-1.57533 -1.38023,-1.12691 -3.5465,-1.31914 -3.04081,0.82795 -0.53412,2.2268 1.32897,2.48594 3.00678,2.74454 0.51498,0.63061 -0.83628,1.3316 -0.9954,2.41737 -0.18298,1.24854 0.81158,2.91328 1.39605,4.02416 1.00354,3.30455 -2.60234,-0.0776 -2.60148,-1.70493 -0.6272,-2.33622 -2.01248,-4.60446 -1.34928,-7.15664 -0.17999,-2.61729 0.44032,-5.52753 2.56026,-7.28348 0.41015,-0.4369 0.84921,-0.93891 0.86432,-1.57488 z"
           style="fill:#327d00;fill-opacity:1;stroke:none" />
        <path
           style="fill:none;stroke:#000000;stroke-width:3.05790091;stroke-linecap:butt;stroke-linejoin:miter;stroke-miterlimit:4;stroke-opacity:1;stroke-dasharray:none"
           d="m 372.40879,910.50653 c -5.43433,4.33504 -7.93562,15.24121 -3.46532,20.56481 4.62229,5.50459 16.75203,5.48849 21.56319,0.14821 4.44584,-4.93478 2.61367,-15.23511 -2.20777,-19.80363 -3.85111,-3.64908 -11.74268,-4.21783 -15.8901,-0.90939 z"
           id="path4064"
           inkscape:connector-curvature="0"
           sodipodi:nodetypes="aaaaa" />
      </g>
    </g>
    <path
       style="fill:#ff6600;fill-opacity:1;stroke:#000000;stroke-width:2;stroke-linecap:butt;stroke-linejoin:round;stroke-miterlimit:4;stroke-opacity:1;stroke-dasharray:none"
       d="m 22.162534,878.70583 1.74658,1.13018 -1.397944,6.23507 3.904124,2.36305 -10.993191,1.84927 -2.773988,-9.76026 3.904127,2.67119 z"
       id="path4066"
       inkscape:connector-curvature="0"
       sodipodi:nodetypes="cccccccc" />
    <path
       sodipodi:nodetypes="cccc"
       inkscape:connector-curvature="0"
       id="path3788"
       d="m 16.377126,936.3322 c 6.720761,-1.3537 13.034209,-3.8236 17.855837,-9.4176 -5.170037,-5.5604 -10.431353,-7.8277 -17.639546,-9.434 -1.506626,8.1535 -1.014054,14.755 -0.216291,18.8516 z"
       style="opacity:0.01000001;fill:none;stroke:#000000;stroke-width:2;stroke-linecap:butt;stroke-linejoin:miter;stroke-miterlimit:4;stroke-opacity:1;stroke-dasharray:none" />
    <path
       style="fill:#00ff00;stroke:#000000;stroke-width:2;stroke-linecap:butt;stroke-linejoin:miter;stroke-miterlimit:4;stroke-opacity:1;stroke-dasharray:none"
       d="m 16.377126,936.3322 c 6.720761,-1.3537 13.034209,-3.8236 17.855837,-9.4176 -5.170037,-5.5604 -10.431353,-7.8277 -17.639546,-9.434 -1.506626,8.1535 -1.014054,14.755 -0.216291,18.8516 z"
       id="path3148"
       inkscape:connector-curvature="0"
       sodipodi:nodetypes="cccc" />
    <g
       transform="matrix(0.15152543,0,0,0.15152543,15.731172,880.48725)"
       id="g14272">
      <path
         sodipodi:nodetypes="csccsccsccscc"
         inkscape:connector-curvature="0"
         id="path4936"
         d="m 46.830353,644.10332 c -17.68041,9.45901 -23.37597,14.95033 -28.39285,27.03127 -5.18815,12.4933 -4.03125,46.1875 -4.03125,46.1875 l 70.4375,-0.5 c 0,0 2.68258,-26.938 -6.15625,-48.65627 -8.83884,-21.71828 -26.58929,-24.13393 -26.58929,-24.13393 l 0.59375,-0.78125 c 17.68041,-9.459 23.19741,-15.09767 28.21429,-27.17857 5.18815,-12.4933 4.03125,-46.21875 4.03125,-46.21875 l -70.625,0.5 c 0,0 -2.68259,26.7817 6.15625,48.5 8.83883,21.7183 26.95535,24.5 26.95535,24.5 z"
         style="fill:#6997c5;fill-opacity:0.75294118;stroke:#000000;stroke-width:13.19910431;stroke-linecap:round;stroke-linejoin:round;stroke-miterlimit:4;stroke-opacity:1;stroke-dasharray:none" />
      <path
         sodipodi:nodetypes="ccccsccc"
         inkscape:connector-curvature="0"
         id="path4162"
         d="m 1.6482942,717.14999 2.8571433,2.5 89.4126205,0.3571 3.571428,-3.5714 c 0,0 -0.357142,-1.7857 -4.642857,-3.2143 -4.285714,-1.4286 -84.4126205,-0.3571 -84.4126205,-0.3571 l -6.0714286,0.7143 z"
         style="fill:#ffb411;fill-opacity:1;stroke:#000000;stroke-width:13.19910431;stroke-linejoin:round;stroke-miterlimit:4;stroke-opacity:1;stroke-dasharray:none" />
      <path
         sodipodi:nodetypes="ccccsccc"
         inkscape:connector-curvature="0"
         id="path4934"
         d="m 2.3932179,570.43297 1.6071433,2.50001 88.9075448,0.60964 c 3.974274,-1.84523 3.159591,-3.69045 3.571428,-5.53568 0,0 -0.178571,-0.71429 -4.464286,-2.14286 -4.285714,-1.42857 -86.4075448,0.10461 -86.4075448,0.10461 l -2.678571,1.78572 z"
         style="fill:#ffb411;fill-opacity:1;stroke:#000000;stroke-width:13.19910431;stroke-linejoin:round;stroke-miterlimit:4;stroke-opacity:1;stroke-dasharray:none" />
      <path
         sodipodi:nodetypes="cccccccccccccccccccc"
         inkscape:connector-curvature="0"
         id="path4225"
         d="m -21.311513,877.08869 c -14.220451,4.5761 -5.0998,19.3446 1.82386,26.257 16.7752699,21.071 21.5746609,28.0797 38.268031,49.193 2.28199,7.8852 16.48403,16.0646 7.44073,23.0206 -14.45335,16.1728 -15.78303,18.5883 -30.9636511,34.04441 -10.5415899,9.4625 -19.3846599,20.7655 -27.3628609,32.4071 -8.85357,10.9223 5.484421,22.3171 15.492641,14.3177 11.5672999,-6.6431 23.2197409,-13.3264 32.856531,-22.6945 19.05991,-15.115 22.32609,-19.3664 43.03655,-32.1959 13.47826,10.0003 26.73102,20.289 38.22988,32.5787 14.259462,13.892 15.782302,14.7097 32.665082,25.4426 13.19521,10.4886 26.94848,-8.1848 15.49766,-19.0635 -16.49842,-25.9019 -26.08453,-33.8537 -42.91022,-59.52201 -13.422042,-10.4662 2.99072,-22.1224 9.30834,-31.5809 16.41124,-16.8546 22.93575,-22.9182 36.37323,-42.4278 9.68366,-15.6832 -12.76426,-22.7823 -21.45065,-10.7672 -17.694,13.2889 -23.05297,17.9442 -40.696412,31.3017 -10.74466,9.2849 -24.89813,13.5575 -35.22273,1.6796 -23.90213,-19.8673 -36.51506,-31.7366 -63.119511,-50.3506 -2.93654,-1.0091 -6.10993,-2.1772 -9.2665,-1.64 z"
         style="fill:#ff0000;fill-opacity:1;stroke:#000000;stroke-width:11.94383812;stroke-linecap:round;stroke-linejoin:round;stroke-miterlimit:4;stroke-opacity:1;stroke-dasharray:none" />
    </g>
  </g>
</svg>
