<?xml version="1.0" encoding="UTF-8" standalone="no"?>
<!-- Created with Inkscape (http://www.inkscape.org/) -->

<svg
   xmlns:dc="http://purl.org/dc/elements/1.1/"
   xmlns:cc="http://creativecommons.org/ns#"
   xmlns:rdf="http://www.w3.org/1999/02/22-rdf-syntax-ns#"
   xmlns:svg="http://www.w3.org/2000/svg"
   xmlns="http://www.w3.org/2000/svg"
   xmlns:xlink="http://www.w3.org/1999/xlink"
   xmlns:sodipodi="http://sodipodi.sourceforge.net/DTD/sodipodi-0.dtd"
   xmlns:inkscape="http://www.inkscape.org/namespaces/inkscape"
   width="120"
   height="75"
   id="svg8753"
   version="1.1"
   inkscape:version="0.48.4 r9939"
   sodipodi:docname="creditsFramework.svg">
  <defs
     id="defs8755">
    <linearGradient
       id="linearGradient19664">
      <stop
         style="stop-color:#9bddf1;stop-opacity:1;"
         offset="0"
         id="stop19666" />
      <stop
         style="stop-color:#42b5ff;stop-opacity:1;"
         offset="1"
         id="stop19668" />
    </linearGradient>
    <linearGradient
       id="linearGradient19649">
      <stop
         style="stop-color:#42b5e8;stop-opacity:1;"
         offset="0"
         id="stop19651" />
      <stop
         style="stop-color:#ffffff;stop-opacity:1;"
         offset="1"
         id="stop19653" />
    </linearGradient>
    <linearGradient
       id="linearGradient17395">
      <stop
         style="stop-color:#4cb7e8;stop-opacity:1;"
         offset="0"
         id="stop17397" />
      <stop
         style="stop-color:#ecf5fc;stop-opacity:1;"
         offset="1"
         id="stop17399" />
    </linearGradient>
    <linearGradient
       id="linearGradient3844">
      <stop
         style="stop-color:#ff0000;stop-opacity:1;"
         offset="0"
         id="stop3846" />
      <stop
         style="stop-color:#000000;stop-opacity:1;"
         offset="1"
         id="stop3848" />
    </linearGradient>
    <radialGradient
       inkscape:collect="always"
       xlink:href="#linearGradient7914"
       id="radialGradient7922"
       cx="-163.72485"
       cy="852.82825"
       fx="-163.72485"
       fy="852.82825"
       r="4.7554617"
       gradientTransform="matrix(1.5271354,-0.01399267,0.02628556,2.8687604,63.301784,-1597.4461)"
       gradientUnits="userSpaceOnUse" />
    <linearGradient
       id="linearGradient7914">
      <stop
         style="stop-color:#fcfabc;stop-opacity:1;"
         offset="0"
         id="stop7916" />
      <stop
         id="stop7926"
         offset="0.5"
         style="stop-color:#fcf75a;stop-opacity:1;" />
      <stop
         id="stop7924"
         offset="1"
         style="stop-color:#ffc378;stop-opacity:1;" />
    </linearGradient>
    <mask
       maskUnits="userSpaceOnUse"
       x="23.703"
       y="7.559"
       width="177.445"
       height="156.297"
       id="SVGID_1_">
      <g
         style="filter:url(#Adobe_OpacityMaskFilter)"
         id="g18943">
        <linearGradient
           id="SVGID_2_"
           gradientUnits="userSpaceOnUse"
           x1="112.4253"
           y1="7.5591002"
           x2="112.4253"
           y2="163.856">
          <stop
             offset="0"
             style="stop-color:#FFFFFF"
             id="stop18946" />
          <stop
             offset="1"
             style="stop-color:#000000"
             id="stop18948" />
        </linearGradient>
        <ellipse
           style="fill:url(#SVGID_2_)"
           sodipodi:ry="78.150002"
           sodipodi:rx="88.723"
           sodipodi:cy="85.706001"
           sodipodi:cx="112.425"
           cx="112.425"
           cy="85.706001"
           rx="88.723"
           ry="78.150002"
           id="ellipse18950" />
      </g>
    </mask>
    <filter
       color-interpolation-filters="sRGB"
       id="Adobe_OpacityMaskFilter"
       filterUnits="userSpaceOnUse"
       x="23.702999"
       y="7.559"
       width="177.44501"
       height="156.297">
      <feColorMatrix
         type="matrix"
         values="1 0 0 0 0  0 1 0 0 0  0 0 1 0 0  0 0 0 1 0"
         id="feColorMatrix18940" />
    </filter>
    <linearGradient
       id="linearGradient19026"
       gradientUnits="userSpaceOnUse"
       x1="112.4253"
       y1="7.5591002"
       x2="112.4253"
       y2="163.856">
      <stop
         offset="0"
         style="stop-color:#FFFFFF"
         id="stop19028" />
      <stop
         offset="1"
         style="stop-color:#000000"
         id="stop19030" />
    </linearGradient>
    <mask
       maskUnits="userSpaceOnUse"
       x="16.944"
       y="19.283"
       width="196.965"
       height="195.85"
       id="SVGID_3_">
      <g
         style="filter:url(#Adobe_OpacityMaskFilter_1_)"
         id="g18960">
        <linearGradient
           id="SVGID_4_"
           gradientUnits="userSpaceOnUse"
           x1="199.3394"
           y1="-86.1772"
           x2="199.3394"
           y2="109.1221"
           gradientTransform="matrix(-0.8712,0.4909,-0.4909,-0.8712,294.7211,29.3465)">
          <stop
             offset="0"
             style="stop-color:#FFFFFF"
             id="stop18963" />
          <stop
             offset="1"
             style="stop-color:#000000"
             id="stop18965" />
        </linearGradient>
        <path
           style="fill:url(#SVGID_4_)"
           inkscape:connector-curvature="0"
           d="M 29.418,165.674 C 2.944,118.69 19.989,58.901 67.489,32.136 114.99,5.37 174.96,21.762 201.435,68.746 c 26.474,46.983 9.428,106.769 -38.072,133.534 -47.5,26.765 -107.47,10.377 -133.945,-36.606 z"
           id="path18967" />
      </g>
    </mask>
    <filter
       color-interpolation-filters="sRGB"
       id="Adobe_OpacityMaskFilter_1_"
       filterUnits="userSpaceOnUse"
       x="16.944"
       y="19.283001"
       width="196.965"
       height="195.85001">
      <feColorMatrix
         type="matrix"
         values="1 0 0 0 0  0 1 0 0 0  0 0 1 0 0  0 0 0 1 0"
         id="feColorMatrix18957" />
    </filter>
    <linearGradient
       id="linearGradient19040"
       gradientUnits="userSpaceOnUse"
       x1="199.3394"
       y1="-86.1772"
       x2="199.3394"
       y2="109.1221"
       gradientTransform="matrix(-0.8712,0.4909,-0.4909,-0.8712,294.7211,29.3465)">
      <stop
         offset="0"
         style="stop-color:#FFFFFF"
         id="stop19042" />
      <stop
         offset="1"
         style="stop-color:#000000"
         id="stop19044" />
    </linearGradient>
    <mask
       maskUnits="userSpaceOnUse"
       x="16.592"
       y="68.856"
       width="203.478"
       height="149.876"
       id="SVGID_5_">
      <g
         style="filter:url(#Adobe_OpacityMaskFilter_2_)"
         id="g18977">
        <linearGradient
           id="SVGID_6_"
           gradientUnits="userSpaceOnUse"
           x1="198.9585"
           y1="-87.539597"
           x2="198.9585"
           y2="107.7603"
           gradientTransform="matrix(-0.8712,0.4909,-0.4909,-0.8712,294.7211,29.3465)">
          <stop
             offset="0"
             style="stop-color:#FFFFFF"
             id="stop18980" />
          <stop
             offset="1"
             style="stop-color:#000000"
             id="stop18982" />
        </linearGradient>
        <path
           style="fill:url(#SVGID_6_)"
           inkscape:connector-curvature="0"
           d="M 30.418,166.674 C 3.944,119.69 20.989,59.901 68.489,33.136 115.99,6.37 175.96,22.762 202.435,69.746 c 26.474,46.983 9.428,106.769 -38.072,133.534 -47.5,26.765 -107.47,10.377 -133.945,-36.606 z"
           id="path18984" />
      </g>
    </mask>
    <filter
       color-interpolation-filters="sRGB"
       id="Adobe_OpacityMaskFilter_2_"
       filterUnits="userSpaceOnUse"
       x="16.591999"
       y="68.856003"
       width="203.478"
       height="149.87601">
      <feColorMatrix
         type="matrix"
         values="1 0 0 0 0  0 1 0 0 0  0 0 1 0 0  0 0 0 1 0"
         id="feColorMatrix18974" />
    </filter>
    <linearGradient
       id="linearGradient19054"
       gradientUnits="userSpaceOnUse"
       x1="198.9585"
       y1="-87.539597"
       x2="198.9585"
       y2="107.7603"
       gradientTransform="matrix(-0.8712,0.4909,-0.4909,-0.8712,294.7211,29.3465)">
      <stop
         offset="0"
         style="stop-color:#FFFFFF"
         id="stop19056" />
      <stop
         offset="1"
         style="stop-color:#000000"
         id="stop19058" />
    </linearGradient>
    <linearGradient
       inkscape:collect="always"
       xlink:href="#linearGradient19649"
       id="linearGradient19655"
       x1="36.672054"
       y1="1041.011"
       x2="36.403419"
       y2="1009.761"
       gradientUnits="userSpaceOnUse" />
    <linearGradient
       inkscape:collect="always"
       xlink:href="#linearGradient19664"
       id="linearGradient19670"
       x1="34.260948"
       y1="1029.6251"
       x2="24.188416"
       y2="1038.7166"
       gradientUnits="userSpaceOnUse" />
    <linearGradient
       inkscape:collect="always"
       xlink:href="#linearGradient19649"
       id="linearGradient3476"
       gradientUnits="userSpaceOnUse"
       x1="36.672054"
       y1="1041.011"
       x2="36.403419"
       y2="1009.761" />
    <linearGradient
       inkscape:collect="always"
       xlink:href="#linearGradient19664"
       id="linearGradient3478"
       gradientUnits="userSpaceOnUse"
       x1="34.260948"
       y1="1029.6251"
       x2="24.188416"
       y2="1038.7166" />
  </defs>
  <sodipodi:namedview
     id="base"
     pagecolor="#000000"
     bordercolor="#666666"
     borderopacity="1.0"
     inkscape:pageopacity="0.0"
     inkscape:pageshadow="2"
     inkscape:zoom="2.8"
     inkscape:cx="99.472119"
     inkscape:cy="15.63777"
     inkscape:document-units="px"
     inkscape:current-layer="layer1"
     showgrid="false"
     inkscape:window-width="1280"
     inkscape:window-height="750"
     inkscape:window-x="0"
     inkscape:window-y="25"
     inkscape:window-maximized="1" />
  <metadata
     id="metadata8758">
    <rdf:RDF>
      <cc:Work
         rdf:about="">
        <dc:format>image/svg+xml</dc:format>
        <dc:type
           rdf:resource="http://purl.org/dc/dcmitype/StillImage" />
        <dc:title />
      </cc:Work>
    </rdf:RDF>
  </metadata>
  <g
     inkscape:label="Layer 1"
     inkscape:groupmode="layer"
     id="layer1"
     transform="translate(0,-977.36218)">
    <g
       id="g18018"
       transform="matrix(0.29683321,0,0,0.29683321,33.463556,717.6284)">
      <g
         id="Layer_9"
         transform="translate(-97.51702,941.29724)">
        <circle
           id="circle17823"
           r="10"
           cy="10.335"
           cx="114.279"
           d="m 124.279,10.335 c 0,5.522848 -4.47715,10 -10,10 -5.52285,0 -10,-4.477152 -10,-10 0,-5.5228475 4.47715,-9.99999996 10,-9.99999996 5.52285,0 10,4.47715246 10,9.99999996 z"
           sodipodi:cx="114.279"
           sodipodi:cy="10.335"
           sodipodi:rx="10"
           sodipodi:ry="10" />
        <circle
           id="circle17825"
           r="10"
           cy="10"
           cx="139.612"
           d="m 149.612,10 c 0,5.522847 -4.47715,10 -10,10 -5.52285,0 -10,-4.477153 -10,-10 0,-5.5228475 4.47715,-10 10,-10 5.52285,0 10,4.4771525 10,10 z"
           sodipodi:cx="139.612"
           sodipodi:cy="10"
           sodipodi:rx="10"
           sodipodi:ry="10" />
      </g>
      <g
         id="Layer_3"
         transform="translate(-97.51702,941.29724)">
        <g
           id="g17830">
          <g
             id="g17832">
            <path
               id="path17834"
               d="m 126.419,29.906 c -55.287,0 -55.475,85.041 -0.353,85.041 55.04,0 55.854,-85.041 0.353,-85.041"
               inkscape:connector-curvature="0"
               style="fill:none" />
            <path
               id="path17836"
               d="m 126.419,24.906 c -16.061,0.162 -30.552,7.196 -39.236,20.915 -7.67,12.116 -9.111,27.837 -5.282,41.478 4.06,14.461 14.838,25.804 29.094,30.463 15.53,5.076 33.615,1.679 46.006,-8.884 14.374,-12.252 18.58,-33.677 13.679,-51.324 -5.627,-20.263 -23.637,-32.441 -44.261,-32.648 -6.451,-0.065 -6.445,9.935 0,10 14.639,0.147 27.712,7.472 33.298,21.396 5.004,12.474 3.672,27.057 -3.529,38.379 -8.21,12.908 -24.446,17.367 -38.892,14.402 C 103.223,106.194 93.794,95.09 90.733,81.426 88.358,70.821 90.469,59.316 96.258,50.172 c 6.572,-10.381 18.226,-15.146 30.161,-15.266 6.445,-0.065 6.452,-10.065 0,-10 l 0,0 z"
               inkscape:connector-curvature="0" />
          </g>
        </g>
        <g
           id="g17838">
          <g
             id="g17840">
            <path
               id="path17842"
               d="m 178.397,29.906 c 48.716,110.468 51.349,116.265 104.041,0"
               inkscape:connector-curvature="0"
               style="fill:none" />
            <path
               id="path17844"
               d="m 174.08,32.43 c 9.586,21.736 18.656,43.999 30.382,64.701 5.241,9.255 12.593,21.893 24.465,22.801 11.569,0.885 20.021,-12.921 25.149,-21.195 12.939,-20.876 22.563,-43.995 32.68,-66.306 2.642,-5.825 -5.975,-10.913 -8.635,-5.047 -9.592,21.154 -18.926,42.655 -30.574,62.786 -3.169,5.476 -6.566,10.959 -10.974,15.536 -1.543,1.604 -2.545,2.424 -4.268,3.411 -1.201,0.688 -2.065,0.857 -3.379,0.815 -0.582,-0.051 -0.556,-0.041 0.08,0.027 -0.424,-0.069 -0.837,-0.193 -1.248,-0.316 -0.165,-0.049 -0.753,-0.289 -1.728,-0.876 -1.604,-0.966 -2.992,-2.424 -4.532,-4.152 -4.226,-4.744 -7.359,-10.551 -10.383,-16.096 -10.744,-19.703 -19.356,-40.625 -28.401,-61.135 -2.597,-5.891 -11.211,-0.797 -8.634,5.046 l 0,0 z"
               inkscape:connector-curvature="0" />
          </g>
        </g>
      </g>
      <g
         id="Layer_6"
         transform="translate(-97.51702,941.29724)">
        <g
           id="g17849">
          <g
             id="g17851">
            <path
               id="path17853"
               d="m 332.958,87.255 c 57.148,-12.938 36.661,-53.914 3.234,-57.148 -33.427,-3.234 -51.756,33.427 -40.974,59.305 10.782,25.879 32.349,26.958 51.756,24.801"
               inkscape:connector-curvature="0"
               style="fill:none" />
            <path
               id="path17855"
               d="m 334.288,92.076 c 16.119,-3.771 37.565,-12.266 39.429,-31.426 1.37,-14.087 -9.762,-25.941 -21.77,-31.407 -17.438,-7.938 -37.938,-4.605 -51.258,9.353 -13.145,13.773 -17.356,35.85 -9.787,53.338 4.761,10.999 12.667,20.207 24.025,24.604 10.208,3.952 21.323,3.826 32.048,2.674 6.342,-0.682 6.408,-10.688 0,-10 -9.54,1.025 -19.151,1.334 -28.321,-1.903 -10.214,-3.605 -17.066,-13.445 -20.092,-23.452 -5.278,-17.456 3.682,-39.335 20.828,-46.488 13.844,-5.774 32.803,-1.287 41.323,11.511 9.107,13.679 -4.028,24.854 -16.167,29.692 -4.179,1.665 -8.544,2.838 -12.917,3.862 -6.278,1.468 -3.615,11.11 2.659,9.642 l 0,0 z"
               inkscape:connector-curvature="0" />
          </g>
        </g>
      </g>
      <g
         id="Layer_8"
         transform="translate(-97.51702,941.29724)">
        <g
           id="g17859">
          <g
             id="g17861">
            <path
               id="path17863"
               d="m 10.822,29.224 c -19.854,55.69 12.757,96.622 61.59,83.698"
               inkscape:connector-curvature="0"
               style="fill:none" />
            <path
               id="path17865"
               d="m 6,27.895 c -8.2,23.498 -9.661,51.774 6.323,72.444 14.666,18.965 39.169,23.091 61.417,17.404 6.244,-1.596 3.594,-11.24 -2.658,-9.643 C 52.395,112.876 31.634,109.789 19.553,93.436 6.14,75.279 8.629,50.654 15.643,30.553 17.773,24.448 8.111,21.847 6,27.895 l 0,0 z"
               inkscape:connector-curvature="0" />
          </g>
        </g>
        <g
           id="g17867">
          <path
             id="path17869"
             d="m 364.519,100.526 c 5.073,0 9.115,4.124 9.115,9.28 0,5.238 -4.042,9.32 -9.156,9.32 -5.073,0 -9.197,-4.082 -9.197,-9.32 0,-5.156 4.124,-9.28 9.197,-9.28 h 0.041 z m -0.041,1.443 c -4.083,0 -7.424,3.506 -7.424,7.837 0,4.412 3.341,7.877 7.465,7.877 4.125,0.041 7.424,-3.465 7.424,-7.836 0,-4.372 -3.299,-7.878 -7.424,-7.878 h -0.041 z m -1.732,13.239 h -1.649 v -10.352 c 0.866,-0.124 1.69,-0.248 2.928,-0.248 1.567,0 2.599,0.33 3.218,0.783 0.618,0.454 0.948,1.155 0.948,2.146 0,1.36 -0.907,2.186 -2.021,2.516 v 0.083 c 0.907,0.164 1.525,0.989 1.731,2.516 0.248,1.608 0.495,2.227 0.66,2.557 h -1.732 c -0.247,-0.33 -0.494,-1.278 -0.701,-2.639 -0.247,-1.32 -0.907,-1.815 -2.227,-1.815 h -1.155 v 4.453 z m 0,-5.732 h 1.196 c 1.361,0 2.516,-0.495 2.516,-1.773 0,-0.908 -0.659,-1.814 -2.516,-1.814 -0.536,0 -0.907,0.041 -1.196,0.082 v 3.505 z"
             inkscape:connector-curvature="0" />
        </g>
      </g>
    </g>
    <ellipse
       transform="translate(-235.77412,879.68555)"
       style="fill:#ffffff"
       sodipodi:ry="78.150002"
       sodipodi:rx="88.723"
       sodipodi:cy="85.706001"
       sodipodi:cx="112.425"
       mask="url(#SVGID_1_)"
       cx="112.425"
       cy="85.706001"
       rx="88.723"
       ry="78.150002"
       id="ellipse18952"
       d="m 201.148,85.706001 c 0,43.161059 -39.72264,78.149999 -88.723,78.149999 -49.000357,0 -88.722997,-34.98894 -88.722997,-78.149999 0,-43.161054 39.72264,-78.1500012 88.722997,-78.1500012 49.00036,0 88.723,34.9889472 88.723,78.1500012 z" />
    <ellipse
       style="opacity:0.05;fill:#ffffff"
       sodipodi:ry="97.651001"
       sodipodi:rx="98.723"
       sodipodi:cy="117.21"
       sodipodi:cx="115.427"
       transform="matrix(-0.87119997,0.49089998,-0.49089998,-0.87119997,37.753261,1042.3454)"
       mask="url(#SVGID_3_)"
       cx="115.427"
       cy="117.21"
       rx="98.723"
       ry="97.651001"
       id="ellipse18969"
       d="m 214.15,117.21 c 0,53.93116 -44.19979,97.651 -98.723,97.651 -54.523205,0 -98.722998,-43.71984 -98.722998,-97.651 0,-53.93116 44.199793,-97.651002 98.722998,-97.651002 54.52321,0 98.723,43.719842 98.723,97.651002 z" />
    <path
       transform="translate(-235.77412,879.68555)"
       style="opacity:0.49000005;fill:#ffffff"
       inkscape:connector-curvature="0"
       mask="url(#SVGID_5_)"
       d="m 25.081,168.693 c -0.488,-7.837 -7.488,-13.837 -8.488,-21.837 18.961,46.049 77.023,70.153 123.11,56.377 51.143,-15.287 88.494,-83.168 62.89,-134.377 41.563,34.234 0.892,118.281 -37.787,138.019 -55.026,28.087 -102.632,2.62 -139.725,-38.182"
       id="path18986" />
    <g
       transform="translate(-235.77412,879.68555)"
       id="g18988">
      <g
         id="g18990">
        <path
           style="fill:none"
           inkscape:connector-curvature="0"
           d="M 49.578,93.408 C 61.166,77.5 70.711,68.529 88.544,93.64"
           id="path18992" />
        <path
           style="fill:#ffffff"
           inkscape:connector-curvature="0"
           d="m 54.493,96.849 c 3.132,-4.274 7.432,-11.339 12.882,-12.722 6.666,-1.691 13.454,9.059 16.593,13.395 4.538,6.268 13.67,-1.524 9.152,-7.764 -6.421,-8.87 -14.996,-18.865 -27.055,-17.588 -9.437,0.999 -16.31,10.846 -21.403,17.796 -4.58,6.252 5.258,13.122 9.831,6.883 l 0,0 z"
           id="path18994" />
      </g>
    </g>
    <g
       transform="translate(-235.77412,879.68555)"
       id="g18996">
      <g
         id="g18998">
        <path
           style="fill:none"
           inkscape:connector-curvature="0"
           d="M 139.806,95.008 C 151.391,79.102 160.94,70.129 178.77,95.24"
           id="path19000" />
        <path
           style="fill:#ffffff"
           inkscape:connector-curvature="0"
           d="m 144.721,98.45 c 3.132,-4.274 7.431,-11.338 12.881,-12.721 6.666,-1.691 13.453,9.058 16.592,13.394 4.537,6.268 13.67,-1.524 9.152,-7.764 -6.421,-8.87 -14.994,-18.865 -27.054,-17.587 -9.437,0.999 -16.309,10.845 -21.401,17.795 -4.581,6.252 5.259,13.122 9.83,6.883 l 0,0 z"
           id="path19002" />
      </g>
    </g>
  </g>
</svg>
