<?xml version="1.0" encoding="UTF-8" standalone="no"?>
<!-- Created with Inkscape (http://www.inkscape.org/) -->

<svg
   xmlns:dc="http://purl.org/dc/elements/1.1/"
   xmlns:cc="http://creativecommons.org/ns#"
   xmlns:rdf="http://www.w3.org/1999/02/22-rdf-syntax-ns#"
   xmlns:svg="http://www.w3.org/2000/svg"
   xmlns="http://www.w3.org/2000/svg"
   xmlns:xlink="http://www.w3.org/1999/xlink"
   xmlns:sodipodi="http://sodipodi.sourceforge.net/DTD/sodipodi-0.dtd"
   xmlns:inkscape="http://www.inkscape.org/namespaces/inkscape"
   width="60"
   height="75"
   id="svg8753"
   version="1.1"
   inkscape:version="0.48.4 r9939"
   sodipodi:docname="creditsGraphics.svg">
  <defs
     id="defs8755">
    <radialGradient
       inkscape:collect="always"
       xlink:href="#linearGradient3844"
       id="radialGradient4261"
       gradientUnits="userSpaceOnUse"
       gradientTransform="matrix(0.78258073,2.4641117,-1.9781256,0.62823572,66.243093,-30.179357)"
       cx="16.511036"
       cy="31.652264"
       fx="16.511036"
       fy="31.652264"
       r="1.2319731" />
    <linearGradient
       id="linearGradient3844">
      <stop
         style="stop-color:#ff0000;stop-opacity:1;"
         offset="0"
         id="stop3846" />
      <stop
         style="stop-color:#000000;stop-opacity:1;"
         offset="1"
         id="stop3848" />
    </linearGradient>
    <radialGradient
       inkscape:collect="always"
       xlink:href="#linearGradient3844"
       id="radialGradient15104"
       gradientUnits="userSpaceOnUse"
       gradientTransform="matrix(0.78258073,2.4641117,-1.9781256,0.62823572,66.243093,-30.179357)"
       cx="16.511036"
       cy="31.652264"
       fx="16.511036"
       fy="31.652264"
       r="1.2319731" />
  </defs>
  <sodipodi:namedview
     id="base"
     pagecolor="#000000"
     bordercolor="#666666"
     borderopacity="1.0"
     inkscape:pageopacity="0.0"
     inkscape:pageshadow="2"
     inkscape:zoom="2.8"
     inkscape:cx="0.14509729"
     inkscape:cy="72.411198"
     inkscape:document-units="px"
     inkscape:current-layer="layer1"
     showgrid="false"
     inkscape:window-width="958"
     inkscape:window-height="800"
     inkscape:window-x="281"
     inkscape:window-y="25"
     inkscape:window-maximized="0" />
  <metadata
     id="metadata8758">
    <rdf:RDF>
      <cc:Work
         rdf:about="">
        <dc:format>image/svg+xml</dc:format>
        <dc:type
           rdf:resource="http://purl.org/dc/dcmitype/StillImage" />
        <dc:title />
      </cc:Work>
    </rdf:RDF>
  </metadata>
  <g
     inkscape:label="Layer 1"
     inkscape:groupmode="layer"
     id="layer1"
     transform="translate(0,-977.36218)">
    <g
       id="g15067"
       transform="matrix(1.3093512,0,0,1.3093512,-8.1022264,-315.1185)">
      <g
         transform="translate(-23.262115,968.07311)"
         id="g4235">
        <path
           style="fill:#bb6325;fill-opacity:1;stroke:#000000;stroke-width:1px;stroke-linecap:butt;stroke-linejoin:round;stroke-opacity:1"
           d="m 48.468749,53.527152 0.09821,6.879465 1.491071,0.383928 -0.04911,-6.861607 z"
           id="path3870-2-0"
           inkscape:connector-curvature="0"
           sodipodi:nodetypes="ccccc" />
        <path
           style="fill:#bb6325;fill-opacity:1;stroke:#000000;stroke-width:1px;stroke-linecap:butt;stroke-linejoin:round;stroke-opacity:1"
           d="m 41.138393,51.357509 -0.02679,6.910715 2.303571,0.727678 -0.736607,-7.236607 z"
           id="path3870-2-0-6"
           inkscape:connector-curvature="0"
           sodipodi:nodetypes="ccccc" />
        <path
           style="fill:#bb6325;fill-opacity:1;stroke:#000000;stroke-width:1px;stroke-linecap:butt;stroke-linejoin:round;stroke-opacity:1"
           d="m 42.756696,56.875366 -0.116071,7.379465 1.857143,0.660714 -0.200893,-7.638393 z"
           id="path3870-2"
           inkscape:connector-curvature="0"
           sodipodi:nodetypes="ccccc" />
        <path
           style="fill:#bb6325;fill-opacity:1;stroke:#000000;stroke-width:1px;stroke-linecap:butt;stroke-linejoin:round;stroke-opacity:1"
           d="m 35.379464,54.390991 -0.116071,6.897322 1.741072,0.678571 -0.08482,-7.174107 z"
           id="path3870"
           inkscape:connector-curvature="0"
           transform="translate(-3.5981827e-7,1.7777153e-6)"
           sodipodi:nodetypes="ccccc" />
        <path
           transform="translate(-6.3134534,0.94701801)"
           sodipodi:nodetypes="ccccccc"
           inkscape:connector-curvature="0"
           id="path4870"
           d="m 41.353126,53.470383 9.34962,2.964154 5.992072,-3.469236 -9.217643,-2.96732 -3.219866,-13.25825 -6.439723,0.505071 z"
           style="fill:#bb6325;fill-opacity:1;stroke:#000000;stroke-width:1px;stroke-linecap:butt;stroke-linejoin:round;stroke-opacity:1" />
        <path
           transform="translate(-6.3134534,0.94701801)"
           sodipodi:nodetypes="cc"
           inkscape:connector-curvature="0"
           id="path5661"
           d="M 41.606293,53.095382 47.78967,50.18929"
           style="fill:none;stroke:#000000;stroke-width:1px;stroke-linecap:butt;stroke-linejoin:miter;stroke-opacity:1" />
      </g>
      <path
         style="fill:#333333;stroke:#000000;stroke-width:0.93000001;stroke-linecap:round;stroke-linejoin:miter;stroke-miterlimit:4;stroke-opacity:1;stroke-dasharray:none"
         d="m 30.427774,1010.1036 c 1.04814,1.5955 2.77249,2.5073 4.08544,3.8327 1.70797,1.5703 -0.55345,3.317 -2.234,3.1405 -1.81434,0.1032 -2.96766,-1.4642 -4.07202,-2.6424 -0.25168,-0.2243 -1.89115,-1.8106 -2.20401,-1.939"
         id="path4336-7-3-6"
         inkscape:connector-curvature="0"
         sodipodi:nodetypes="ccccc" />
      <path
         sodipodi:nodetypes="ccscc"
         inkscape:connector-curvature="0"
         id="path4025-7-2-5-8-9-4-7-8-1-2"
         d="m 23.657494,1016.7926 c 1.35284,0.1619 5.32998,0.5988 7.05149,0.9802 0.8771,0.084 0.83385,1.8958 0.57033,2.968 -0.19112,0.7772 -0.11916,1.8231 -1.29389,1.7564 -1.40232,-0.1279 -5.10736,-0.9294 -6.52518,-0.5447"
         style="fill:#333333;stroke:#000000;stroke-width:0.93000001;stroke-linecap:butt;stroke-linejoin:miter;stroke-miterlimit:4;stroke-opacity:1;stroke-dasharray:none" />
      <g
         style="fill:#e3dbdb;stroke-width:2.73781276;stroke-miterlimit:4;stroke-dasharray:none"
         transform="matrix(0.33202157,0.07165133,-0.07165133,0.33202157,-137.75609,887.08861)"
         id="g4324-3-2-0">
        <path
           style="fill:#e3dbdb;fill-opacity:1;stroke:#000000;stroke-width:2.73781276;stroke-linecap:butt;stroke-linejoin:miter;stroke-miterlimit:4;stroke-opacity:1;stroke-dasharray:none"
           d="m 510.04744,224.89 c -3.74735,-1.19241 -4.83986,1.1286 -6.37613,2.73478 -3.90906,4.08693 -0.37491,8.29805 -0.99601,12.61639 -0.26317,1.82978 -3.88995,4.76589 -1.30332,5.81044 1.80561,0.72915 2.92765,-1.06789 3.46373,-2.91686 0.59811,-2.06291 1.86147,-2.56061 1.56432,-4.84136 -0.27186,-2.08659 0.41497,-4.90834 2.76563,-5.20127 2.8299,-0.35266 3.38861,-2.7561 2.73828,-5.23465 -0.55193,-2.10352 0.73316,-4.65773 -1.9353,-4.85512 -0.45896,-0.034 0.51566,2.02666 0.0788,1.88765 z"
           id="path3141-9-5-8-7-3-0-8"
           inkscape:connector-curvature="0"
           sodipodi:nodetypes="ssssssssss" />
        <path
           style="fill:#e3dbdb;fill-opacity:1;stroke:#000000;stroke-width:2.73781276;stroke-linecap:butt;stroke-linejoin:miter;stroke-miterlimit:4;stroke-opacity:1;stroke-dasharray:none"
           d="m 509.36388,223.96832 c -3.41399,-1.95171 -4.79587,0.39712 -6.80627,1.34486 -4.47108,3.46312 -1.94766,8.09565 -3.60534,12.13124 -0.48595,1.78359 -4.79355,3.84269 -2.48647,5.41085 1.61863,1.08255 4.59404,1.25109 4.74252,-0.66825 1.63071,-1.39789 1.60836,-3.57813 1.79299,-5.87074 0.16971,-2.09737 1.42132,-4.45751 3.78958,-4.5101 2.80771,0.49946 4.24858,-2.03114 3.76978,-4.54846 0.2612,-2.15898 1.68844,-4.4024 -0.88017,-5.15198 -0.44179,-0.12892 0.0839,2.08564 -0.31662,1.86258 z"
           id="path3141-9-4-5-3-8-5"
           inkscape:connector-curvature="0"
           sodipodi:nodetypes="ccccccccsc" />
      </g>
      <path
         sodipodi:nodetypes="sscssccss"
         inkscape:connector-curvature="0"
         id="path2985-6-6-0-8-7-5-9-7-1"
         d="m 25.555424,994.07797 c -5.14818,-1.06599 -10.61919,1.3007 -11.22545,6.00023 -0.56066,4.3462 -0.52385,3.6593 0.23706,7.4489 -0.31256,1.4222 -0.30391,2.9827 -0.65314,4.6009 -1.17647,5.4516 1.50747,10.6563 6.00826,11.6276 4.50079,0.9713 9.20111,-1.928 10.24947,-7.4057 0.35102,-1.8342 0.63211,-3.3678 0.88896,-4.877 1.99119,-2.7041 2.70005,-5.4901 2.87555,-8.4212 0.39518,-6.60003 -4.22306,-8.11313 -8.38071,-8.97373 z"
         style="fill:#333333;stroke:#000000;stroke-width:0.93000001;stroke-miterlimit:4;stroke-opacity:1;stroke-dasharray:none" />
      <path
         inkscape:connector-curvature="0"
         id="path4358-8-7-7-5-8-0"
         d="m 14.866114,997.64477 c 3.27507,0.7446 6.67076,0.786 10.00529,1.1346 2.59352,0.1132 5.22253,0.5983 7.79724,0.3263 1.53644,-0.043 2.65131,2.96363 0.80194,3.26363 -1.56837,-0.1661 -3.13465,-0.3196 -4.71864,-0.3666 -3.26569,-0.1232 -6.45115,-0.8509 -9.66588,-1.359 -1.68979,-0.2991 -3.46561,-0.1228 -5.10613,-0.6305 -0.88951,-0.68033 0.49696,-1.81103 0.88618,-2.36843 z"
         style="fill:#e3dbdb;fill-opacity:1;stroke:#000000;stroke-width:0.92993885;stroke-linecap:butt;stroke-linejoin:miter;stroke-miterlimit:4;stroke-opacity:1;stroke-dasharray:none" />
      <g
         style="stroke-width:2.35648537;stroke-miterlimit:4;stroke-dasharray:none"
         transform="matrix(0.39446066,0.01154549,-0.01154549,0.39446066,-183.66329,911.70838)"
         id="g4319-3-9-5">
        <path
           style="fill:#e9c6af;stroke:#000000;stroke-width:2.35664034;stroke-linecap:butt;stroke-linejoin:miter;stroke-miterlimit:4;stroke-opacity:1;stroke-dasharray:none"
           d="m 533.35681,226.58742 c 0.76768,1.73558 3.70531,5.59914 11.27142,3.25656 4.17898,-1.29387 5.43532,0.0177 7.06932,0.24059 0.96507,0.13162 2.30372,-0.2595 2.68503,-0.3803 1.10922,-0.35143 1.41468,-1.4634 1.82638,-2.56973 1.44919,-3.89425 1.01437,-5.83381 0.25719,-7.26075 -0.60779,-1.14542 -4.64319,-0.25997 -7.81761,-0.001 -1.95755,0.15965 -9.64053,-3.64175 -13.98207,-0.37843 -0.4981,0.37439 -0.94761,1.12986 -1.54462,2.18484 -0.6144,1.08571 -0.33286,3.62458 0.23496,4.90828 z"
           id="path4029-4-1-1-0-9"
           inkscape:connector-curvature="0"
           sodipodi:nodetypes="csssssssssc" />
        <path
           style="fill:#000000;fill-opacity:1;stroke:#000000;stroke-width:2.05121613;stroke-linecap:butt;stroke-linejoin:miter;stroke-miterlimit:4;stroke-opacity:1;stroke-dasharray:none"
           d="m 542.34999,223.51886 c -0.59064,0.27049 -1.0959,0.45531 -1.0883,1.20853 -0.005,0.71731 0.3195,1.50206 1.05833,1.72765 0.78323,0.44034 1.56627,-0.23349 1.91594,-0.9075 0.50579,-0.57716 0.47437,-1.12937 -0.19001,-1.87723 -0.32743,-0.36861 -1.16436,-0.42005 -1.69596,-0.15145 z"
           id="path4057-1-3-8-2-9"
           inkscape:connector-curvature="0"
           sodipodi:nodetypes="ccccsc" />
        <path
           style="fill:#000000;fill-opacity:1;stroke:#000000;stroke-width:2.08680105;stroke-linecap:butt;stroke-linejoin:miter;stroke-miterlimit:4;stroke-opacity:1;stroke-dasharray:none"
           d="m 552.31344,223.22501 c -1.80654,0.51355 -1.91033,3.01092 0.39052,2.86663 1.67437,-0.10501 1.20599,-3.15557 -0.39052,-2.86663 z"
           id="path4066-9-2-6-8-0"
           inkscape:connector-curvature="0"
           sodipodi:nodetypes="csc" />
      </g>
      <path
         style="fill:#ffffff;fill-opacity:1;stroke:#000000;stroke-width:0.5;stroke-linecap:butt;stroke-linejoin:round;stroke-miterlimit:4;stroke-opacity:1;stroke-dasharray:none"
         d="m 32.896354,1013.2565 c 0.30393,1.0449 -0.0117,1.7799 -1.60714,1.875 -0.59225,1.7262 -1.35653,3.4524 0.35714,5.1786 2.50053,0.6313 4.96686,0.8523 7.23215,-1.3393 0.45552,-2.6297 1.09552,-0.6476 1.33928,-8.5714 -4.54544,0.9524 -5.43651,1.9048 -7.32143,2.8571 z"
         id="path3786"
         inkscape:connector-curvature="0"
         sodipodi:nodetypes="cccccc" />
      <g
         transform="matrix(0.97749748,0.21094712,-0.21094712,0.97749748,182.6414,146.37014)"
         id="g3826">
        <path
           transform="matrix(1.1404137,-0.24610497,0.21906047,1.0150935,30.07193,872.20951)"
           d="m 5.0892856,12.047241 c 0,0.641045 -0.4796949,1.160714 -1.0714285,1.160714 -0.5917337,0 -1.0714286,-0.519669 -1.0714286,-1.160714 0,-0.641045 0.4796949,-1.160714 1.0714286,-1.160714 0.5917336,0 1.0714285,0.519669 1.0714285,1.160714 z"
           sodipodi:ry="1.1607143"
           sodipodi:rx="1.0714285"
           sodipodi:cy="12.047241"
           sodipodi:cx="4.0178571"
           id="path3788"
           style="fill:#ff0000;fill-opacity:1;stroke:none"
           sodipodi:type="arc" />
        <path
           transform="matrix(0.81458122,-0.17578927,0.17849372,0.82711324,31.920656,872.53328)"
           d="m 5.0892856,12.047241 c 0,0.641045 -0.4796949,1.160714 -1.0714285,1.160714 -0.5917337,0 -1.0714286,-0.519669 -1.0714286,-1.160714 0,-0.641045 0.4796949,-1.160714 1.0714286,-1.160714 0.5917336,0 1.0714285,0.519669 1.0714285,1.160714 z"
           sodipodi:ry="1.1607143"
           sodipodi:rx="1.0714285"
           sodipodi:cy="12.047241"
           sodipodi:cx="4.0178571"
           id="path3788-6"
           style="fill:#ffbb00;fill-opacity:1;stroke:none"
           sodipodi:type="arc" />
        <path
           transform="matrix(0.97749747,-0.21094712,0.21094712,0.97749747,31.920213,869.57903)"
           d="m 5.0892856,12.047241 c 0,0.641045 -0.4796949,1.160714 -1.0714285,1.160714 -0.5917337,0 -1.0714286,-0.519669 -1.0714286,-1.160714 0,-0.641045 0.4796949,-1.160714 1.0714286,-1.160714 0.5917336,0 1.0714285,0.519669 1.0714285,1.160714 z"
           sodipodi:ry="1.1607143"
           sodipodi:rx="1.0714285"
           sodipodi:cy="12.047241"
           sodipodi:cx="4.0178571"
           id="path3788-6-2"
           style="fill:#fff000;fill-opacity:1;stroke:none"
           sodipodi:type="arc" />
      </g>
      <path
         inkscape:transform-center-y="3.319912"
         inkscape:transform-center-x="2.1379796"
         sodipodi:nodetypes="csscc"
         inkscape:connector-curvature="0"
         id="path4025-5-4-4-6-7-0-2-3-6"
         d="m 19.249494,1023.0701 c 1.57243,0.7381 4.75242,1.0809 6.04058,1.2445 1.84126,0.2336 1.99022,-0.8775 2.12983,-2.2448 0.0842,-0.8198 0.42584,-2.4663 -1.07574,-2.669 -1.38472,-0.2563 -1.16483,0.045 -2.4257,-0.7087"
         style="fill:#333333;stroke:#000000;stroke-width:0.93000001;stroke-linecap:round;stroke-linejoin:miter;stroke-miterlimit:4;stroke-opacity:1;stroke-dasharray:none" />
      <g
         transform="matrix(1.6246077,0.51057501,-0.51993568,1.540077,483.2983,-344.08828)"
         id="g3856">
        <path
           sodipodi:nodetypes="cccc"
           transform="matrix(0.97749747,-0.21094712,0.21094712,0.97749747,-27.444051,846.09072)"
           style="fill:#bb6325;fill-opacity:1;stroke:#000000;stroke-width:0.30055726;stroke-linecap:butt;stroke-linejoin:round;stroke-miterlimit:4;stroke-opacity:1;stroke-dasharray:none"
           d="M 20.535714,46.690098 C 19.779323,46.201647 18.273809,39.130575 17.142857,35.350813 l 1.25,-0.357143 c 0.717728,3.907531 2.510722,10.766469 2.142857,11.696428 z"
           id="path3840"
           inkscape:connector-curvature="0" />
        <path
           style="fill:url(#radialGradient15104);fill-opacity:1;stroke:#000000;stroke-width:0.1;stroke-miterlimit:4;stroke-opacity:1;stroke-dasharray:none"
           d="m 16.414979,30.110605 c -0.117383,1.268856 -1.000247,2.430154 0.635175,5.292469 l 1.492907,-0.512736 c -0.124695,-2.232327 -0.834016,-3.716776 -2.128082,-4.779733 z"
           id="path3842"
           inkscape:connector-curvature="0"
           transform="matrix(0.97749747,-0.21094712,0.21094712,0.97749747,-27.444051,846.09072)"
           inkscape:transform-center-x="0.94701801"
           inkscape:transform-center-y="0.3788072"
           sodipodi:nodetypes="cccc" />
        <path
           sodipodi:nodetypes="ccc"
           transform="matrix(0.97749747,-0.21094712,0.21094712,0.97749747,-54.111676,848.64874)"
           inkscape:connector-curvature="0"
           id="path3868"
           d="m 43.28125,33.922241 c 0.533175,1.222026 1.086832,2.677358 1.383929,3.660714 0.01283,-1.311973 -0.548644,-2.759488 -1.383929,-3.660714 z"
           style="fill:#ffffff;fill-opacity:1;stroke:none" />
      </g>
      <path
         sodipodi:nodetypes="cccccc"
         inkscape:connector-curvature="0"
         id="path4051-8-1-8-8-3-8-0-3-6"
         d="m 16.383364,1013.8174 c 0.96322,0.6489 1.98757,1.2012 2.94162,1.8585 1.55708,0.8428 3.35436,1.1065 5.0998,1.1362 1.83577,-0.01 1.38666,-1.6549 1.30219,-2.7779 -0.0388,-1.5524 -2.13292,-1.8773 -3.30492,-2.4139 -0.59774,-0.4761 -1.6662,-0.6232 -1.77924,-1.5177"
         style="fill:#333333;stroke:#000000;stroke-width:0.93000001;stroke-linecap:round;stroke-linejoin:miter;stroke-miterlimit:4;stroke-opacity:1;stroke-dasharray:none" />
      <g
         transform="translate(-22.095425,289.15507)"
         id="g4245">
        <path
           style="fill:#8b4416;fill-opacity:1;stroke:#000000;stroke-width:1px;stroke-linecap:butt;stroke-linejoin:round;stroke-opacity:1"
           d="m 53.634722,60.258925 -1.491071,6.816965 3.232143,1.223214 -0.200893,-7.638393 z"
           id="path3870-2-2"
           inkscape:connector-curvature="0"
           sodipodi:nodetypes="ccccc"
           transform="translate(0,680.3148)" />
        <path
           style="fill:#8b4416;fill-opacity:1;stroke:#000000;stroke-width:1px;stroke-linecap:butt;stroke-linejoin:round;stroke-opacity:1"
           d="m 61.412897,55.662731 -1.303571,7.316965 3.044643,0.723214 -0.200893,-7.638393 z"
           id="path3870-2-2-8"
           inkscape:connector-curvature="0"
           sodipodi:nodetypes="ccccc"
           transform="translate(0,680.3148)" />
        <path
           sodipodi:nodetypes="ccccc"
           inkscape:connector-curvature="0"
           id="path3016"
           d="m 51.178571,740.10312 3.821432,1.54462 11.339285,-6.78571 -2.589277,-0.53576 z"
           style="fill:#8b4416;fill-opacity:1;stroke:#000000;stroke-width:1px;stroke-linecap:butt;stroke-linejoin:round;stroke-opacity:1" />
        <path
           sodipodi:nodetypes="ccccc"
           inkscape:connector-curvature="0"
           id="path3014"
           d="m 59.999999,705.1299 -4.464287,36.33929 10.535715,-6.16071 5.982143,-32.32143 z"
           style="fill:#ffffff;fill-opacity:1;stroke:#000000;stroke-width:1px;stroke-linecap:butt;stroke-linejoin:round;stroke-opacity:1" />
        <path
           style="fill:#8b4416;fill-opacity:1;stroke:#000000;stroke-width:1px;stroke-linecap:butt;stroke-linejoin:round;stroke-opacity:1"
           d="m 63.269051,726.8164 4.126568,22.80722 3.155287,0.59018 -6.625558,-30.15508 z"
           id="path3870-8-2"
           inkscape:connector-curvature="0"
           sodipodi:nodetypes="ccccc" />
      </g>
    </g>
  </g>
</svg>
