<?xml version="1.0" encoding="UTF-8" standalone="no"?>
<!-- Created with Inkscape (http://www.inkscape.org/) -->

<svg
   xmlns:dc="http://purl.org/dc/elements/1.1/"
   xmlns:cc="http://creativecommons.org/ns#"
   xmlns:rdf="http://www.w3.org/1999/02/22-rdf-syntax-ns#"
   xmlns:svg="http://www.w3.org/2000/svg"
   xmlns="http://www.w3.org/2000/svg"
   xmlns:sodipodi="http://sodipodi.sourceforge.net/DTD/sodipodi-0.dtd"
   xmlns:inkscape="http://www.inkscape.org/namespaces/inkscape"
   inkscape:export-ydpi="90"
   inkscape:export-xdpi="90"
   inkscape:export-filename="/home/micha/Programmieren/git/platformer/images/world/world1.png"
   sodipodi:docname="world1.svg"
   inkscape:version="0.48.2 r9819"
   version="1.1"
   id="svg2"
   height="300"
   width="600">
  <sodipodi:namedview
     id="base"
     pagecolor="#ffffff"
     bordercolor="#666666"
     borderopacity="1.0"
     inkscape:pageopacity="0.0"
     inkscape:pageshadow="2"
     inkscape:zoom="2"
     inkscape:cx="342.53369"
     inkscape:cy="202.70523"
     inkscape:document-units="px"
     inkscape:current-layer="layer1"
     showgrid="false"
     inkscape:showpageshadow="true"
     inkscape:window-width="1280"
     inkscape:window-height="750"
     inkscape:window-x="0"
     inkscape:window-y="25"
     inkscape:window-maximized="1"
     showguides="true"
     inkscape:guide-bbox="true">
    <inkscape:grid
       type="xygrid"
       id="grid2985"
       empspacing="5"
       visible="true"
       enabled="true"
       snapvisiblegridlinesonly="true"
       spacingx="5px"
       spacingy="5px"
       originx="0px"
       originy="0px" />
  </sodipodi:namedview>
  <defs
     id="defs4">
    <inkscape:path-effect
       fuse_tolerance="0"
       vertical_pattern="false"
       prop_units="false"
       tang_offset="0"
       normal_offset="0"
       spacing="0"
       scale_y_rel="false"
       prop_scale="0.4"
       copytype="single_stretched"
       pattern="m 4.4999999,552.29967 0,10 10.0000001,-5 z"
       is_visible="true"
       id="path-effect8298"
       effect="skeletal" />
    <inkscape:path-effect
       fuse_tolerance="0"
       vertical_pattern="false"
       prop_units="false"
       tang_offset="0"
       normal_offset="0"
       spacing="0"
       scale_y_rel="false"
       prop_scale="0.4"
       copytype="single_stretched"
       pattern="m 9.8749998,552.48717 0,10 10.0000002,-5 z"
       is_visible="true"
       id="path-effect8295"
       effect="skeletal" />
    <inkscape:path-effect
       fuse_tolerance="0"
       vertical_pattern="false"
       prop_units="false"
       tang_offset="0"
       normal_offset="0"
       spacing="0"
       scale_y_rel="false"
       prop_scale="0.4"
       copytype="single_stretched"
       pattern="m 18.0625,552.73717 0,10 10,-5 z"
       is_visible="true"
       id="path-effect8292"
       effect="skeletal" />
    <inkscape:path-effect
       fuse_tolerance="0"
       vertical_pattern="false"
       prop_units="false"
       tang_offset="0"
       normal_offset="0"
       spacing="0"
       scale_y_rel="false"
       prop_scale="0.4"
       copytype="single_stretched"
       pattern="m 14.125,552.61217 0,10 10,-5 z"
       is_visible="true"
       id="path-effect8289"
       effect="skeletal" />
    <inkscape:path-effect
       fuse_tolerance="0"
       vertical_pattern="false"
       prop_units="false"
       tang_offset="0"
       normal_offset="0"
       spacing="0"
       scale_y_rel="false"
       prop_scale="0.4"
       copytype="single_stretched"
       pattern="m 21.874999,552.67467 0,10 10,-5 z"
       is_visible="true"
       id="path-effect8286"
       effect="skeletal" />
    <inkscape:path-effect
       fuse_tolerance="0"
       vertical_pattern="false"
       prop_units="false"
       tang_offset="0"
       normal_offset="0"
       spacing="0"
       scale_y_rel="false"
       prop_scale="0.4"
       copytype="single_stretched"
       pattern="m 26.624999,552.29967 0,10 10,-5 z"
       is_visible="true"
       id="path-effect8283"
       effect="skeletal" />
    <inkscape:path-effect
       fuse_tolerance="0"
       vertical_pattern="false"
       prop_units="false"
       tang_offset="0"
       normal_offset="0"
       spacing="0"
       scale_y_rel="false"
       prop_scale="0.4"
       copytype="single_stretched"
       pattern="m -0.1875,552.42467 0,10 10,-5 z"
       is_visible="true"
       id="path-effect8280"
       effect="skeletal" />
    <inkscape:path-effect
       fuse_tolerance="0"
       vertical_pattern="false"
       prop_units="false"
       tang_offset="0"
       normal_offset="0"
       spacing="0"
       scale_y_rel="false"
       prop_scale="0.4"
       copytype="single_stretched"
       pattern="m -4.9374999,552.42467 0,10 10,-5 z"
       is_visible="true"
       id="path-effect8277"
       effect="skeletal" />
    <inkscape:path-effect
       fuse_tolerance="0"
       vertical_pattern="false"
       prop_units="false"
       tang_offset="0"
       normal_offset="0"
       spacing="0"
       scale_y_rel="false"
       prop_scale="0.4"
       copytype="single_stretched"
       pattern="m -7.5624998,552.36217 0,10 10,-5 z"
       is_visible="true"
       id="path-effect8274"
       effect="skeletal" />
    <inkscape:path-effect
       effect="skeletal"
       id="path-effect8271"
       is_visible="true"
       pattern="m -7.5624998,552.36217 0,10 10,-5 z"
       copytype="single_stretched"
       prop_scale="0.4"
       scale_y_rel="false"
       spacing="0"
       normal_offset="0"
       tang_offset="0"
       prop_units="false"
       vertical_pattern="false"
       fuse_tolerance="0" />
    <inkscape:path-effect
       effect="skeletal"
       id="path-effect4594"
       is_visible="true"
       pattern="m -7.5624998,552.36217 0,10 10,-5 z"
       copytype="single_stretched"
       prop_scale="0.4"
       scale_y_rel="false"
       spacing="0"
       normal_offset="0"
       tang_offset="0"
       prop_units="false"
       vertical_pattern="false"
       fuse_tolerance="0" />
    <inkscape:path-effect
       effect="skeletal"
       id="path-effect4590"
       is_visible="true"
       pattern="m -4.9374999,552.42467 0,10 10,-5 z"
       copytype="single_stretched"
       prop_scale="0.4"
       scale_y_rel="false"
       spacing="0"
       normal_offset="0"
       tang_offset="0"
       prop_units="false"
       vertical_pattern="false"
       fuse_tolerance="0" />
    <inkscape:path-effect
       effect="skeletal"
       id="path-effect4586"
       is_visible="true"
       pattern="m -0.1875,552.42467 0,10 10,-5 z"
       copytype="single_stretched"
       prop_scale="0.4"
       scale_y_rel="false"
       spacing="0"
       normal_offset="0"
       tang_offset="0"
       prop_units="false"
       vertical_pattern="false"
       fuse_tolerance="0" />
    <inkscape:path-effect
       effect="skeletal"
       id="path-effect4582"
       is_visible="true"
       pattern="m 26.624999,552.29967 0,10 10,-5 z"
       copytype="single_stretched"
       prop_scale="0.4"
       scale_y_rel="false"
       spacing="0"
       normal_offset="0"
       tang_offset="0"
       prop_units="false"
       vertical_pattern="false"
       fuse_tolerance="0" />
    <inkscape:path-effect
       effect="skeletal"
       id="path-effect4578"
       is_visible="true"
       pattern="m 21.874999,552.67467 0,10 10,-5 z"
       copytype="single_stretched"
       prop_scale="0.4"
       scale_y_rel="false"
       spacing="0"
       normal_offset="0"
       tang_offset="0"
       prop_units="false"
       vertical_pattern="false"
       fuse_tolerance="0" />
    <inkscape:path-effect
       effect="skeletal"
       id="path-effect4574"
       is_visible="true"
       pattern="m 14.125,552.61217 0,10 10,-5 z"
       copytype="single_stretched"
       prop_scale="0.4"
       scale_y_rel="false"
       spacing="0"
       normal_offset="0"
       tang_offset="0"
       prop_units="false"
       vertical_pattern="false"
       fuse_tolerance="0" />
    <inkscape:path-effect
       effect="skeletal"
       id="path-effect4570"
       is_visible="true"
       pattern="m 18.0625,552.73717 0,10 10,-5 z"
       copytype="single_stretched"
       prop_scale="0.4"
       scale_y_rel="false"
       spacing="0"
       normal_offset="0"
       tang_offset="0"
       prop_units="false"
       vertical_pattern="false"
       fuse_tolerance="0" />
    <inkscape:path-effect
       effect="skeletal"
       id="path-effect4566"
       is_visible="true"
       pattern="m 9.8749998,552.48717 0,10 10.0000002,-5 z"
       copytype="single_stretched"
       prop_scale="0.4"
       scale_y_rel="false"
       spacing="0"
       normal_offset="0"
       tang_offset="0"
       prop_units="false"
       vertical_pattern="false"
       fuse_tolerance="0" />
    <inkscape:path-effect
       effect="skeletal"
       id="path-effect4562"
       is_visible="true"
       pattern="m 4.4999999,552.29967 0,10 10.0000001,-5 z"
       copytype="single_stretched"
       prop_scale="0.4"
       scale_y_rel="false"
       spacing="0"
       normal_offset="0"
       tang_offset="0"
       prop_units="false"
       vertical_pattern="false"
       fuse_tolerance="0" />
    <inkscape:path-effect
       fuse_tolerance="0"
       vertical_pattern="false"
       prop_units="false"
       tang_offset="0"
       normal_offset="0"
       spacing="0"
       scale_y_rel="false"
       prop_scale="1"
       copytype="single_stretched"
       pattern="M 0,0 0,10 10,5 z"
       is_visible="true"
       id="path-effect4546"
       effect="skeletal" />
    <inkscape:path-effect
       fuse_tolerance="0"
       vertical_pattern="false"
       prop_units="false"
       tang_offset="0"
       normal_offset="0"
       spacing="0"
       scale_y_rel="false"
       prop_scale="1"
       copytype="single_stretched"
       pattern="M 0,0 0,10 10,5 z"
       is_visible="true"
       id="path-effect4542"
       effect="skeletal" />
    <inkscape:path-effect
       fuse_tolerance="0"
       vertical_pattern="false"
       prop_units="false"
       tang_offset="0"
       normal_offset="0"
       spacing="0"
       scale_y_rel="false"
       prop_scale="1"
       copytype="single_stretched"
       pattern="M 0,0 0,10 10,5 z"
       is_visible="true"
       id="path-effect4538"
       effect="skeletal" />
    <inkscape:path-effect
       fuse_tolerance="0"
       vertical_pattern="false"
       prop_units="false"
       tang_offset="0"
       normal_offset="0"
       spacing="0"
       scale_y_rel="false"
       prop_scale="0.4"
       copytype="single_stretched"
       pattern="m -7.5624998,552.36217 0,10 10,-5 z"
       is_visible="true"
       id="path-effect4534"
       effect="skeletal" />
    <inkscape:path-effect
       fuse_tolerance="0"
       vertical_pattern="false"
       prop_units="false"
       tang_offset="0"
       normal_offset="0"
       spacing="0"
       scale_y_rel="false"
       prop_scale="1"
       copytype="single_stretched"
       pattern="m 0,552.36217 0,10 10,-5 z"
       is_visible="true"
       id="path-effect4220"
       effect="skeletal" />
    <inkscape:path-effect
       fuse_tolerance="0"
       vertical_pattern="false"
       prop_units="false"
       tang_offset="0"
       normal_offset="0"
       spacing="0"
       scale_y_rel="false"
       prop_scale="1"
       copytype="single_stretched"
       pattern="M 0,5 10,10 10,0 z"
       is_visible="true"
       id="path-effect6242"
       effect="skeletal" />
    <inkscape:path-effect
       fuse_tolerance="0"
       vertical_pattern="false"
       prop_units="false"
       tang_offset="0"
       normal_offset="0"
       spacing="0"
       scale_y_rel="false"
       prop_scale="1"
       copytype="single_stretched"
       pattern="M 0,5 10,10 10,0 z"
       is_visible="true"
       id="path-effect6238"
       effect="skeletal" />
    <inkscape:path-effect
       fuse_tolerance="0"
       vertical_pattern="false"
       prop_units="false"
       tang_offset="0"
       normal_offset="0"
       spacing="0"
       scale_y_rel="false"
       prop_scale="1"
       copytype="single_stretched"
       pattern="M 0,0 0,10 10,5 z"
       is_visible="true"
       id="path-effect6234"
       effect="skeletal" />
    <inkscape:path-effect
       fuse_tolerance="0"
       vertical_pattern="false"
       prop_units="false"
       tang_offset="0"
       normal_offset="0"
       spacing="0"
       scale_y_rel="false"
       prop_scale="1"
       copytype="single_stretched"
       pattern="M 0,0 0,10 10,5 z"
       is_visible="true"
       id="path-effect6230"
       effect="skeletal" />
    <inkscape:path-effect
       effect="skeletal"
       id="path-effect4562-4"
       is_visible="true"
       pattern="m 4.4999999,552.29967 0,10 10.0000001,-5 z"
       copytype="single_stretched"
       prop_scale="0.4"
       scale_y_rel="false"
       spacing="0"
       normal_offset="0"
       tang_offset="0"
       prop_units="false"
       vertical_pattern="false"
       fuse_tolerance="0" />
    <inkscape:path-effect
       effect="skeletal"
       id="path-effect4566-8"
       is_visible="true"
       pattern="m 9.8749998,552.48717 0,10 10.0000002,-5 z"
       copytype="single_stretched"
       prop_scale="0.4"
       scale_y_rel="false"
       spacing="0"
       normal_offset="0"
       tang_offset="0"
       prop_units="false"
       vertical_pattern="false"
       fuse_tolerance="0" />
    <inkscape:path-effect
       effect="skeletal"
       id="path-effect4570-7"
       is_visible="true"
       pattern="m 18.0625,552.73717 0,10 10,-5 z"
       copytype="single_stretched"
       prop_scale="0.4"
       scale_y_rel="false"
       spacing="0"
       normal_offset="0"
       tang_offset="0"
       prop_units="false"
       vertical_pattern="false"
       fuse_tolerance="0" />
    <inkscape:path-effect
       effect="skeletal"
       id="path-effect4574-0"
       is_visible="true"
       pattern="m 14.125,552.61217 0,10 10,-5 z"
       copytype="single_stretched"
       prop_scale="0.4"
       scale_y_rel="false"
       spacing="0"
       normal_offset="0"
       tang_offset="0"
       prop_units="false"
       vertical_pattern="false"
       fuse_tolerance="0" />
    <inkscape:path-effect
       effect="skeletal"
       id="path-effect4578-2"
       is_visible="true"
       pattern="m 21.874999,552.67467 0,10 10,-5 z"
       copytype="single_stretched"
       prop_scale="0.4"
       scale_y_rel="false"
       spacing="0"
       normal_offset="0"
       tang_offset="0"
       prop_units="false"
       vertical_pattern="false"
       fuse_tolerance="0" />
    <inkscape:path-effect
       effect="skeletal"
       id="path-effect4582-5"
       is_visible="true"
       pattern="m 26.624999,552.29967 0,10 10,-5 z"
       copytype="single_stretched"
       prop_scale="0.4"
       scale_y_rel="false"
       spacing="0"
       normal_offset="0"
       tang_offset="0"
       prop_units="false"
       vertical_pattern="false"
       fuse_tolerance="0" />
    <inkscape:path-effect
       effect="skeletal"
       id="path-effect4586-5"
       is_visible="true"
       pattern="m -0.1875,552.42467 0,10 10,-5 z"
       copytype="single_stretched"
       prop_scale="0.4"
       scale_y_rel="false"
       spacing="0"
       normal_offset="0"
       tang_offset="0"
       prop_units="false"
       vertical_pattern="false"
       fuse_tolerance="0" />
    <inkscape:path-effect
       effect="skeletal"
       id="path-effect4590-6"
       is_visible="true"
       pattern="m -4.9374999,552.42467 0,10 10,-5 z"
       copytype="single_stretched"
       prop_scale="0.4"
       scale_y_rel="false"
       spacing="0"
       normal_offset="0"
       tang_offset="0"
       prop_units="false"
       vertical_pattern="false"
       fuse_tolerance="0" />
    <inkscape:path-effect
       effect="skeletal"
       id="path-effect4594-6"
       is_visible="true"
       pattern="m -7.5624998,552.36217 0,10 10,-5 z"
       copytype="single_stretched"
       prop_scale="0.4"
       scale_y_rel="false"
       spacing="0"
       normal_offset="0"
       tang_offset="0"
       prop_units="false"
       vertical_pattern="false"
       fuse_tolerance="0" />
    <inkscape:path-effect
       fuse_tolerance="0"
       vertical_pattern="false"
       prop_units="false"
       tang_offset="0"
       normal_offset="0"
       spacing="0"
       scale_y_rel="false"
       prop_scale="0.4"
       copytype="single_stretched"
       pattern="m -7.5624998,552.36217 0,10 10,-5 z"
       is_visible="true"
       id="path-effect4534-2"
       effect="skeletal" />
    <inkscape:path-effect
       fuse_tolerance="0"
       vertical_pattern="false"
       prop_units="false"
       tang_offset="0"
       normal_offset="0"
       spacing="0"
       scale_y_rel="false"
       prop_scale="0.4"
       copytype="single_stretched"
       pattern="m 4.4999999,552.29967 0,10 10.0000001,-5 z"
       is_visible="true"
       id="path-effect8298-7"
       effect="skeletal" />
    <inkscape:path-effect
       fuse_tolerance="0"
       vertical_pattern="false"
       prop_units="false"
       tang_offset="0"
       normal_offset="0"
       spacing="0"
       scale_y_rel="false"
       prop_scale="0.4"
       copytype="single_stretched"
       pattern="m 9.8749998,552.48717 0,10 10.0000002,-5 z"
       is_visible="true"
       id="path-effect8295-2"
       effect="skeletal" />
    <inkscape:path-effect
       fuse_tolerance="0"
       vertical_pattern="false"
       prop_units="false"
       tang_offset="0"
       normal_offset="0"
       spacing="0"
       scale_y_rel="false"
       prop_scale="0.4"
       copytype="single_stretched"
       pattern="m 18.0625,552.73717 0,10 10,-5 z"
       is_visible="true"
       id="path-effect8292-1"
       effect="skeletal" />
    <inkscape:path-effect
       fuse_tolerance="0"
       vertical_pattern="false"
       prop_units="false"
       tang_offset="0"
       normal_offset="0"
       spacing="0"
       scale_y_rel="false"
       prop_scale="0.4"
       copytype="single_stretched"
       pattern="m 14.125,552.61217 0,10 10,-5 z"
       is_visible="true"
       id="path-effect8289-8"
       effect="skeletal" />
    <inkscape:path-effect
       fuse_tolerance="0"
       vertical_pattern="false"
       prop_units="false"
       tang_offset="0"
       normal_offset="0"
       spacing="0"
       scale_y_rel="false"
       prop_scale="0.4"
       copytype="single_stretched"
       pattern="m 21.874999,552.67467 0,10 10,-5 z"
       is_visible="true"
       id="path-effect8286-7"
       effect="skeletal" />
    <inkscape:path-effect
       fuse_tolerance="0"
       vertical_pattern="false"
       prop_units="false"
       tang_offset="0"
       normal_offset="0"
       spacing="0"
       scale_y_rel="false"
       prop_scale="0.4"
       copytype="single_stretched"
       pattern="m 26.624999,552.29967 0,10 10,-5 z"
       is_visible="true"
       id="path-effect8283-9"
       effect="skeletal" />
    <inkscape:path-effect
       fuse_tolerance="0"
       vertical_pattern="false"
       prop_units="false"
       tang_offset="0"
       normal_offset="0"
       spacing="0"
       scale_y_rel="false"
       prop_scale="0.4"
       copytype="single_stretched"
       pattern="m -0.1875,552.42467 0,10 10,-5 z"
       is_visible="true"
       id="path-effect8280-8"
       effect="skeletal" />
    <inkscape:path-effect
       fuse_tolerance="0"
       vertical_pattern="false"
       prop_units="false"
       tang_offset="0"
       normal_offset="0"
       spacing="0"
       scale_y_rel="false"
       prop_scale="0.4"
       copytype="single_stretched"
       pattern="m -4.9374999,552.42467 0,10 10,-5 z"
       is_visible="true"
       id="path-effect8277-1"
       effect="skeletal" />
    <inkscape:path-effect
       fuse_tolerance="0"
       vertical_pattern="false"
       prop_units="false"
       tang_offset="0"
       normal_offset="0"
       spacing="0"
       scale_y_rel="false"
       prop_scale="0.4"
       copytype="single_stretched"
       pattern="m -7.5624998,552.36217 0,10 10,-5 z"
       is_visible="true"
       id="path-effect8274-8"
       effect="skeletal" />
    <inkscape:path-effect
       effect="skeletal"
       id="path-effect8271-0"
       is_visible="true"
       pattern="m -7.5624998,552.36217 0,10 10,-5 z"
       copytype="single_stretched"
       prop_scale="0.4"
       scale_y_rel="false"
       spacing="0"
       normal_offset="0"
       tang_offset="0"
       prop_units="false"
       vertical_pattern="false"
       fuse_tolerance="0" />
  </defs>
  <metadata
     id="metadata7">
    <rdf:RDF>
      <cc:Work
         rdf:about="">
        <dc:format>image/svg+xml</dc:format>
        <dc:type
           rdf:resource="http://purl.org/dc/dcmitype/StillImage" />
        <dc:title></dc:title>
      </cc:Work>
    </rdf:RDF>
  </metadata>
  <g
     inkscape:label="Ebene 1"
     inkscape:groupmode="layer"
     id="layer1"
     transform="translate(0,-752.36217)">
    <path
       inkscape:connector-curvature="0"
       id="path6533"
       d="m 106.67857,821.76305 c -1.78585,-3.45308 -11.26383,-14.9985 -16.62991,-17.30292 -2.91751,2.61549 -14.71431,13.14961 -16.74651,22.19521 -1.5323,7.02317 -1.15962,30.54096 -0.59756,30.95819 0.67758,0.17574 34.49399,-6.85267 33.99897,-6.61416 -2.05185,0.98863 1.29301,-0.69333 1.37992,-2.53699 0.31517,-6.68621 -0.50269,-23.25277 -1.40491,-26.69933 z"
       style="fill:#1a1a1a;fill-opacity:1;stroke:#000000;stroke-opacity:1;stroke-width:2;stroke-miterlimit:4;stroke-dasharray:none"
       sodipodi:nodetypes="ccccssc" />
    <path
       inkscape:connector-curvature="0"
       id="path6499"
       d="m 65.934087,981.73118 9.982581,34.64822 15.686914,-45.96193 26.382538,2.82843 17.113,30.4056 11.40866,-24.04164 39.21728,21.92034 26.38254,-28.99141 18.53908,49.49751 19.25212,-52.32593 49.19987,-2.12132 6.41737,48.79035 27.09558,-48.79035 36.36511,54.44725 -3.5652,-61.51832 41.35641,1.41421 2.85216,55.86141 30.66079,-51.61877 25.6695,2.12132 -1.42609,46.66905 21.39125,-38.89087 12.83475,23.33452 21.39124,-38.18377 10.69562,3.53554 17.82604,45.25478 4.27825,-90.50962 -494.85082,33.94113 z"
       style="fill:#1a1a1a;fill-opacity:1;stroke:#000000;stroke-width:1.97661579;stroke-linecap:butt;stroke-linejoin:miter;stroke-miterlimit:4;stroke-opacity:1;stroke-dasharray:none" />
    <path
       sodipodi:nodetypes="ccccccccccccccccccccccccccccccccc"
       inkscape:connector-curvature="0"
       id="path6497"
       d="m 28.855927,979.60986 9.982582,34.64824 19.965163,-29.69849 29.947744,19.79899 13.547794,-12.02082 9.26954,23.33452 12.1217,-43.84061 37.07816,3.53553 9.98258,31.11268 12.1217,-31.11268 13.54779,3.53553 7.84347,34.64825 17.82604,-24.74875 29.23469,6.36396 4.27825,29.69849 30.66079,-45.25484 27.80862,0.70711 11.40866,26.87003 1.42608,-36.06242 44.20858,-0.70711 15.68691,28.99138 7.84346,-33.23402 26.38254,4.94975 4.99129,34.64822 7.84346,-14.14212 5.70432,3.53553 19.96517,-26.87006 22.81733,50.20455 1.42608,-48.79033 33.51295,26.16295 -4.27825,-62.93251 -472.746528,19.09189 z"
       style="fill:#4d4d4d;stroke:#000000;stroke-width:1.97661579;stroke-linecap:butt;stroke-linejoin:miter;stroke-miterlimit:4;stroke-opacity:1;stroke-dasharray:none" />
    <path
       id="path4144"
       d="m 576.77237,829.92467 c -45.89083,5.55911 -124.30299,22.39212 -169.53608,23.5 -36.71992,0.89937 -129.93034,-17.79912 -164.68318,-16.59375 -23.46948,0.81402 -59.00878,15.5579 -79.78909,17.46875 -28.84934,2.65283 -122.467224,-21.16786 -146.311526,-15 -14.8624741,34.0014 1.331856,23.68479 1.418052,54.0625 -2.321642,5.84524 -5.118277,11.47847 -7.46841,17.3125 -2.3847692,5.92001 -7.0275557,11.8793 -6.9957268,18.4375 0.028486,5.86947 4.3147906,11.04835 6.4285054,16.40625 2.2844094,5.79057 4.4676674,11.6043 6.4600174,17.5 1.985466,5.87532 3.47656,11.90248 5.451625,17.78125 1.928532,5.74026 3.993287,11.46822 6.239432,17.09375 0.202141,0.50627 0.41962,0.99719 0.630245,1.5 l 21.617425,-21.90625 18.560734,31.12503 46.354567,-31.12503 36.36517,19.09375 19.94728,-16.25 49.91545,26.15628 12.13223,-24.75003 12.8255,34.65623 30.66144,-33.24998 17.83596,10.59375 42.76216,-15.53125 16.4179,55.84378 7.12178,-37.46878 7.12177,16.24998 15.69312,-40.99998 21.39684,26.875 39.20127,-23.34375 42.79368,25.46873 33.52907,-29.71873 26.37578,25.46875 13.29818,-10.5 c -0.38924,-2.00281 -0.55549,-4.00496 0.0315,-5.90625 1.21389,-3.93178 5.10102,-6.50158 8.00412,-9.4375 3.2088,-3.24506 7.1764,-5.67659 10.33603,-8.96875 2.86905,-2.98941 5.04215,-6.58667 7.75202,-9.71875 3.01054,-3.47963 8.06141,-5.69047 9.45369,-10.0625 1.63139,-5.12286 -1.33525,-10.67152 -2.23738,-15.96875 -0.94861,-5.57027 -2.13549,-11.10364 -3.3403,-16.625 -3.23704,-8.28143 -7.73643,-29.86467 -7.46841,-33.84375 1.47066,-21.83405 1.50274,-24.04259 -6.30245,-45.625 z"
       style="fill:#ac9d93;fill-opacity:1;stroke:#000000;stroke-width:1.97661579;stroke-linecap:butt;stroke-linejoin:miter;stroke-miterlimit:4;stroke-opacity:1;stroke-dasharray:none"
       inkscape:connector-curvature="0" />
    <path
       id="path6322"
       d="m 97.12912,902.85866 c -6.821226,0.0432 -13.599993,1.17241 -20.41992,1.31137 -6.898894,0.14058 -13.79635,-0.49478 -20.696697,-0.48795 -6.460772,0.006 -12.913762,0.54035 -19.374321,0.48795 -7.071301,-0.0574 -14.120109,-0.68348 -21.188743,-0.88441 -0.603663,-0.0172 -1.21071,-0.0141 -1.814421,-0.0304 -1.100855,2.46803 -2.219759,4.93575 -3.229054,7.44125 -2.3847693,5.92001 -7.0434876,11.83144 -7.0116587,18.38965 0.028486,5.86946 4.3136392,11.07994 6.4273549,16.43785 1.3416568,3.40086 2.6515438,6.81285 3.9056168,10.24697 0.632275,-0.0159 1.274037,-0.0573 1.90668,-0.061 7.131134,-0.0423 14.24224,0.76496 21.37326,0.82342 6.786593,0.0556 13.572582,-0.3117 20.358414,-0.42696 6.729406,-0.11429 13.443608,-0.31146 20.173897,-0.27447 6.805301,0.0375 13.614635,0.52816 20.419921,0.48795 6.645671,-0.0393 13.282111,-0.72192 19.927871,-0.70143 6.88233,0.0212 13.75639,0.63484 20.63519,0.85391 6.53332,0.20808 13.05459,0.57348 19.5896,0.42696 6.76327,-0.15164 13.50115,-1.34089 20.26616,-1.34186 6.81257,-9.8e-4 13.57659,1.33893 20.38916,1.34186 6.8365,0.003 13.61417,-1.33698 20.45067,-1.34186 6.79956,-0.005 13.56225,1.09779 20.35842,1.31136 6.5902,0.2071 13.18061,-0.0207 19.77411,-0.0304 6.74557,-0.0101 13.52349,0.16629 20.26615,-0.0305 6.99808,-0.20426 13.94166,-1.21319 20.94272,-1.18938 6.60612,0.0224 13.17148,1.03657 19.77411,1.25037 6.85804,0.22207 13.74626,0.24831 20.60443,0.0304 6.8224,-0.21668 13.59575,-1.15953 20.41993,-1.31137 6.47709,-0.14412 12.95774,0.30609 19.43583,0.39646 7.20614,0.10053 14.41406,8.6e-4 21.61928,0.15249 6.41613,0.13501 12.83417,0.7451 19.25131,0.67093 6.78749,-0.0784 13.53976,-1.13019 20.32766,-1.15888 6.69826,-0.0284 13.38332,0.97395 20.08164,0.9759 7.04662,0.002 14.04986,-1.04178 21.09648,-1.0369 6.48967,0.004 12.94649,0.91218 19.43583,0.9759 6.75905,0.0664 13.53888,-0.4769 20.29691,-0.60993 6.80621,-0.134 13.61368,-0.31551 20.41992,-0.18299 7.07446,0.13775 14.11298,1.03763 21.18874,1.0064 6.44722,-0.0284 12.86649,-1.01215 19.31282,-1.09789 0.92086,-1.2356 1.85314,-2.46537 2.86002,-3.62913 3.01054,-3.47963 8.04885,-5.69196 9.44114,-10.06399 1.63138,-5.12286 -1.34284,-10.68316 -2.24497,-15.98039 -0.94861,-5.57027 -2.14725,-11.09947 -3.35206,-16.62083 -0.44365,-2.03314 -0.92831,-4.04526 -1.41463,-6.06889 -1.79315,0.0181 -3.58866,0.0411 -5.38176,0.061 -6.76766,0.0751 -13.53024,0.16738 -20.29691,0.30497 -6.45884,0.13131 -12.91413,0.47819 -19.37432,0.48795 -6.62976,0.01 -13.23662,-0.4575 -19.86637,-0.45746 -6.92531,5e-5 -13.86366,0.4982 -20.78896,0.48795 -7.05699,-0.0104 -14.10345,-0.36391 -21.15799,-0.54894 -6.35253,-0.16662 -12.71222,-0.56715 -19.06678,-0.51845 -6.79026,0.052 -13.56801,0.88134 -20.35842,0.85391 -7.05259,-0.0285 -14.07572,-0.94187 -21.12723,-1.06739 -6.45195,-0.11483 -12.89308,0.12712 -19.34357,0.30497 -6.82025,0.18806 -13.62841,0.73217 -20.45068,0.82342 -6.70259,0.0897 -13.40923,-0.29897 -20.1124,-0.27447 -7.01084,0.0257 -14.02409,0.42012 -21.03497,0.42695 -6.94791,0.007 -13.87179,-0.39701 -20.81971,-0.39646 -6.61417,5.4e-4 -13.25389,0.54503 -19.86637,0.39646 -6.61873,-0.1487 -13.18544,-1.16568 -19.80486,-1.28087 -7.0996,-0.12355 -14.18088,0.52084 -21.281,0.60994 -6.3071,0.0792 -12.63627,-0.0939 -18.94378,-0.061 -6.7788,0.0353 -13.54975,0.18997 -20.32766,0.30497 -7.06247,0.11983 -14.12543,0.3459 -21.18874,0.39646 -6.54559,0.0468 -13.07795,0.11628 -19.62035,-0.0915 -6.8563,-0.21774 -13.6832,-1.18494 -20.54294,-1.21987 -6.62417,-0.0338 -13.24448,0.7997 -19.86636,0.9759 -6.78302,0.1805 -13.57476,0.24699 -20.35841,0.0914 -7.00814,-0.16064 -13.99436,-1.1118 -21.00423,-1.06739 z"
       style="fill:#e9c6af;fill-opacity:1;stroke:#000000;stroke-width:1.97661579;stroke-linecap:butt;stroke-linejoin:miter;stroke-miterlimit:4;stroke-opacity:1;stroke-dasharray:none"
       inkscape:connector-curvature="0" />
    <path
       inkscape:connector-curvature="0"
       id="path6451"
       d="m 93.207925,851.44676 c 0.03455,-7.28724 0.451211,-14.67665 -0.202792,-21.88335 2.348197,-5.1714 9.917457,-4.30129 13.336447,-8.80402 3.84867,-2.97889 8.43938,-11.36711 12.8553,-4.27891 4.09813,5.20766 10.27227,8.31477 14.59214,13.35442 1.04995,4.95701 0.17682,10.08643 0.24082,15.10209 -1.60806,3.97925 2.26226,12.02496 -3.21441,13.05033 -4.29562,-1.25204 -8.70929,-0.73648 -13.02436,-1.85865 -7.39577,-2.10816 -14.8991,-5.06818 -22.736571,-4.05326 l -0.93474,-0.20671 -0.911834,-0.42194 0,0 z"
       style="fill:#000000;fill-opacity:1;stroke:#000000;stroke-width:1.97661579;stroke-linecap:butt;stroke-linejoin:miter;stroke-miterlimit:4;stroke-opacity:1;stroke-dasharray:none" />
    <path
       style="fill:#000000;fill-opacity:1;stroke:#000000;stroke-width:2.32746959;stroke-linecap:butt;stroke-linejoin:round;stroke-miterlimit:4;stroke-opacity:1;stroke-dasharray:none"
       d="m 176.1875,19.15625 c -3.31456,0.13258 -0.32486,3.37895 -0.71875,4.0625 -1.83367,3.18219 -3.4164,12.106223 -8.71539,13.260723 -3.73329,0.81338 -6.61795,-2.596509 -6.61795,-2.596509 l 2.33854,6.980393 c 4.07292,0.13542 5.47768,2.376223 6.3698,2.511643 0,0 -2.21717,9.1428 -7.6875,11.125 -2.25951,0.81874 -7,-1.65625 -7,-1.65625 l 3.1875,6.75 9.96875,2.78125 c -0.32539,2.614292 -0.63735,5.105194 -0.90625,7.46875 -1.44446,2.092859 -3.38622,4.018194 -5.9375,4.625 -2.143,0.5097 -6.03125,-2.71875 -6.03125,-2.71875 l 3.625,6.59375 7.25,2.1875 c -0.93991,9.665462 -1.59294,18.327279 -2.53125,29.34375 4.32016,2.04583 21.54088,1.62918 27.15625,0 0.46983,-8.90024 -1.11849,-20.075609 -2.71875,-30.28125 l 5.125,-2.3125 2.875,-7.625 c 0,0 -3.88584,4.05499 -6.28125,3.65625 -1.07697,-0.179268 -2.03845,-0.643346 -2.875,-1.28125 -0.16296,-1.044377 -0.3518,-2.192025 -0.5,-3.1875 -0.4024,-2.702907 -1.22726,-5.41831 -2.09375,-8.125 l 7.8125,-2.53125 3.4375,-7.78125 c 0,0 -4.09728,4.21655 -6.5625,3.71875 -5.52492,-1.11562 -6.25,-10.375 -6.25,-10.375 l 7.25552,-2.177697 1.73223,-6.71967 c 0,0 -4.33416,2.450194 -6.98131,1.541974 -4.58771,-1.57401 -5.65481,-10.343087 -7.25644,-13.238357 -0.35871,-0.64845 2.71323,-3.82322 -0.46875,-4 z"
       transform="translate(0,752.36217)"
       id="path6459"
       inkscape:connector-curvature="0"
       sodipodi:nodetypes="csscccsccccsccccccccscscccscccssc" />
    <path
       inkscape:connector-curvature="0"
       id="path6461"
       d="m 249.18576,839.24916 c 0.39805,-5.23202 -0.45245,-10.3752 -1.05241,-15.49801 -1.84414,-5.74829 2.17559,-8.90783 6.79157,-10.78796 4.76969,-4.0954 10.00941,-8.93152 16.07275,-10.35714 0.75209,3.77675 -2.73276,15.50177 4.58402,11.24131 5.14728,-2.83864 9.9225,-6.44946 15.33588,-8.74428 3.93022,1.54544 -2.35641,12.98929 3.42326,11.77058 6.68181,-2.91069 12.96038,-6.73878 19.84184,-9.13891 1.25356,2.47353 -1.17732,8.93008 -1.20325,12.9185 0.16018,9.18542 -0.62512,18.32696 -0.33539,27.52017 -0.32717,7.15316 -8.90414,0.90747 -12.9461,0.95401 -7.80275,-3.26206 -16.30163,-3.34388 -24.61683,-3.19788 -8.50387,-0.26916 -16.91832,-2.13311 -24.81847,-5.13787 l -0.68182,-0.65518 -0.395,-0.88729 -5e-5,-5e-5 z"
       style="fill:#000000;fill-opacity:1;stroke:#000000;stroke-width:1.97661579;stroke-linecap:butt;stroke-linejoin:miter;stroke-miterlimit:4;stroke-opacity:1;stroke-dasharray:none" />
    <path
       inkscape:connector-curvature="0"
       id="path6463"
       d="m 383.59409,857.63394 c 0.43632,-6.31772 1.931,-12.55231 1.42607,-18.92865 -0.069,-5.03145 1.79624,-12.52498 -5.67925,-9.94303 -6.69941,-0.55923 3.94074,-5.98788 5.3294,-8.91941 3.97317,-4.63152 6.13498,-10.60544 10.68857,-14.81647 2.27521,-1.48921 6.58102,-10.71358 6.74091,-4.25741 2.54175,6.57877 8.96852,10.29476 12.52114,16.19153 1.02577,3.8955 5.16377,7.61726 4.95422,11.06474 -6.72646,-0.13121 -5.88404,6.33818 -5.67708,11.03368 0.002,6.28064 0.006,12.64617 -0.93756,18.8574 -3.36876,3.85057 -9.8725,-0.12043 -14.59399,0.36521 -4.90351,-0.30242 -9.82086,-0.88463 -14.77243,-0.64759 z"
       style="fill:#000000;fill-opacity:1;stroke:none" />
    <path
       id="path6465"
       d="m 543.81052,803.89342 c -1.05884,0.1327 -3.16409,2.47577 -3.81299,4.03125 -3.05111,5.88761 -9.92856,2.82425 -15.09438,3.375 -6.40884,0.40513 -12.79644,-0.44397 -19.19098,-0.15625 -7.59728,0.43957 -17.06523,0.89684 -22.21616,-5.75 0.0275,-0.11655 -1.6991,6.61382 -0.31512,8.75 6.07335,3.36212 13.46788,1.97105 20.16786,1.78125 0.0118,0.1887 0.0205,0.37464 0.0315,0.5625 -0.008,1.47011 -0.003,2.93614 0,4.40625 -0.65273,0.0128 -1.30086,0.0404 -1.95376,-0.0312 -1.79559,0.58056 -7.40153,-1.11161 -5.51465,2.46875 0.72561,2.54209 -0.72884,7.40523 3.87601,6.03125 1.24089,-0.0336 2.48071,-0.10892 3.71845,-0.1875 -0.19862,1.09255 -0.39026,2.17395 0.0315,3.25 0.80401,4.21581 0.8708,8.54386 1.48108,12.78125 -0.55307,2.42974 1.69891,4.98428 3.71845,2.53125 -0.15576,-3.38273 0.36188,-6.84342 -0.37815,-10.15625 0.0315,-2.90949 0.0372,-5.80586 0.0315,-8.71875 2.3267,-0.15727 4.66021,-0.31172 6.99573,-0.28125 3.5249,-0.0729 6.80236,-1.43543 10.33603,-1.46875 1.29507,-0.37681 2.67908,-0.52046 4.03357,-0.6875 -0.0659,1.75372 0.17959,3.44889 0.40966,5.1875 -0.0758,2.14734 -0.71257,4.25899 -0.34663,6.4375 -0.21514,2.08793 -0.92825,4.23103 -1.82772,6.15625 1.5169,0.91437 2.59897,0.70219 3.90753,-0.5 0.015,-5.87311 0.002,-11.75188 0,-17.625 1.08985,-0.20195 2.15475,-0.48677 3.15122,-1 0.0221,-2.35583 -1.03655,-5.20117 -3.15122,-5.40625 -3.5e-4,-1.48911 -3.4e-4,-2.97964 0,-4.46875 1.99718,0.009 3.9959,0.0229 5.98733,0.0312 6.81737,1.97857 5.77861,-4.24138 6.17641,-8.5625 0.65328,-2.15113 0.38321,-2.86087 -0.2521,-2.78125 z m -22.24767,11.28125 c 2.61119,-4.2e-4 5.20614,0.0215 7.81505,0.0312 -0.0547,1.03659 -0.0683,2.03718 0.40966,2.96875 -0.0114,0.68495 -0.0287,1.3775 -0.0315,2.0625 -0.0209,0.0127 -0.0421,0.0182 -0.063,0.0312 -5.95284,0.96175 -12.05062,0.58606 -18.02503,0.46875 -1.19941,-0.21359 -2.41743,-0.19494 -3.62391,-0.125 0.0766,-1.30087 0.34312,-2.62363 -0.22058,-3.875 -0.11722,-0.35382 -0.16879,-0.88454 -0.18908,-1.4375 4.62327,-0.0715 9.28511,-0.12425 13.92843,-0.125 z"
       style="fill:#000000;fill-opacity:1;stroke:none"
       inkscape:connector-curvature="0" />
    <path
       inkscape:connector-curvature="0"
       id="path6531"
       d="m 85.396841,830.80296 c -1.008259,-3.0186 -14.344849,-23.73689 -19.270004,-24.59949 -2.678022,1.6275 -15.719812,14.582 -18.642699,18.29758 -1.3503,4.3611 -1.658859,20.13348 -2.060913,20.7065 0.569852,-0.009 24.720431,4.62557 34.441983,6.21453 2.218706,0.36264 4.201539,-0.69612 4.824587,-2.72945 0.580551,-1.89463 -0.559575,-11.43986 0.707046,-17.88967 z"
       style="fill:#000000;fill-opacity:1;stroke:none"
       sodipodi:nodetypes="ccccssc" />
  </g>
</svg>
