<?xml version="1.0" encoding="UTF-8" standalone="no"?>
<!-- Created with Inkscape (http://www.inkscape.org/) -->

<svg
   xmlns:dc="http://purl.org/dc/elements/1.1/"
   xmlns:cc="http://creativecommons.org/ns#"
   xmlns:rdf="http://www.w3.org/1999/02/22-rdf-syntax-ns#"
   xmlns:svg="http://www.w3.org/2000/svg"
   xmlns="http://www.w3.org/2000/svg"
   xmlns:sodipodi="http://sodipodi.sourceforge.net/DTD/sodipodi-0.dtd"
   xmlns:inkscape="http://www.inkscape.org/namespaces/inkscape"
   width="600"
   height="300"
   id="svg2"
   version="1.1"
   inkscape:version="0.48.2 r9819"
   sodipodi:docname="world5.svg"
   inkscape:export-filename="/home/micha/Programmieren/git/platformer/images/world/world5.png"
   inkscape:export-xdpi="90"
   inkscape:export-ydpi="90">
  <sodipodi:namedview
     id="base"
     pagecolor="#ffffff"
     bordercolor="#666666"
     borderopacity="1.0"
     inkscape:pageopacity="0.0"
     inkscape:pageshadow="2"
     inkscape:zoom="1"
     inkscape:cx="387.5324"
     inkscape:cy="77.621682"
     inkscape:document-units="px"
     inkscape:current-layer="layer1"
     showgrid="false"
     inkscape:showpageshadow="true"
     inkscape:window-width="1280"
     inkscape:window-height="750"
     inkscape:window-x="0"
     inkscape:window-y="25"
     inkscape:window-maximized="1"
     showguides="true"
     inkscape:guide-bbox="true">
    <inkscape:grid
       originy="0px"
       originx="0px"
       spacingy="5px"
       spacingx="5px"
       snapvisiblegridlinesonly="true"
       enabled="true"
       visible="true"
       empspacing="5"
       id="grid2985"
       type="xygrid" />
  </sodipodi:namedview>
  <defs
     id="defs4">
    <inkscape:path-effect
       effect="skeletal"
       id="path-effect8298"
       is_visible="true"
       pattern="m 4.4999999,552.29967 0,10 10.0000001,-5 z"
       copytype="single_stretched"
       prop_scale="0.4"
       scale_y_rel="false"
       spacing="0"
       normal_offset="0"
       tang_offset="0"
       prop_units="false"
       vertical_pattern="false"
       fuse_tolerance="0" />
    <inkscape:path-effect
       effect="skeletal"
       id="path-effect8295"
       is_visible="true"
       pattern="m 9.8749998,552.48717 0,10 10.0000002,-5 z"
       copytype="single_stretched"
       prop_scale="0.4"
       scale_y_rel="false"
       spacing="0"
       normal_offset="0"
       tang_offset="0"
       prop_units="false"
       vertical_pattern="false"
       fuse_tolerance="0" />
    <inkscape:path-effect
       effect="skeletal"
       id="path-effect8292"
       is_visible="true"
       pattern="m 18.0625,552.73717 0,10 10,-5 z"
       copytype="single_stretched"
       prop_scale="0.4"
       scale_y_rel="false"
       spacing="0"
       normal_offset="0"
       tang_offset="0"
       prop_units="false"
       vertical_pattern="false"
       fuse_tolerance="0" />
    <inkscape:path-effect
       effect="skeletal"
       id="path-effect8289"
       is_visible="true"
       pattern="m 14.125,552.61217 0,10 10,-5 z"
       copytype="single_stretched"
       prop_scale="0.4"
       scale_y_rel="false"
       spacing="0"
       normal_offset="0"
       tang_offset="0"
       prop_units="false"
       vertical_pattern="false"
       fuse_tolerance="0" />
    <inkscape:path-effect
       effect="skeletal"
       id="path-effect8286"
       is_visible="true"
       pattern="m 21.874999,552.67467 0,10 10,-5 z"
       copytype="single_stretched"
       prop_scale="0.4"
       scale_y_rel="false"
       spacing="0"
       normal_offset="0"
       tang_offset="0"
       prop_units="false"
       vertical_pattern="false"
       fuse_tolerance="0" />
    <inkscape:path-effect
       effect="skeletal"
       id="path-effect8283"
       is_visible="true"
       pattern="m 26.624999,552.29967 0,10 10,-5 z"
       copytype="single_stretched"
       prop_scale="0.4"
       scale_y_rel="false"
       spacing="0"
       normal_offset="0"
       tang_offset="0"
       prop_units="false"
       vertical_pattern="false"
       fuse_tolerance="0" />
    <inkscape:path-effect
       effect="skeletal"
       id="path-effect8280"
       is_visible="true"
       pattern="m -0.1875,552.42467 0,10 10,-5 z"
       copytype="single_stretched"
       prop_scale="0.4"
       scale_y_rel="false"
       spacing="0"
       normal_offset="0"
       tang_offset="0"
       prop_units="false"
       vertical_pattern="false"
       fuse_tolerance="0" />
    <inkscape:path-effect
       effect="skeletal"
       id="path-effect8277"
       is_visible="true"
       pattern="m -4.9374999,552.42467 0,10 10,-5 z"
       copytype="single_stretched"
       prop_scale="0.4"
       scale_y_rel="false"
       spacing="0"
       normal_offset="0"
       tang_offset="0"
       prop_units="false"
       vertical_pattern="false"
       fuse_tolerance="0" />
    <inkscape:path-effect
       effect="skeletal"
       id="path-effect8274"
       is_visible="true"
       pattern="m -7.5624998,552.36217 0,10 10,-5 z"
       copytype="single_stretched"
       prop_scale="0.4"
       scale_y_rel="false"
       spacing="0"
       normal_offset="0"
       tang_offset="0"
       prop_units="false"
       vertical_pattern="false"
       fuse_tolerance="0" />
    <inkscape:path-effect
       fuse_tolerance="0"
       vertical_pattern="false"
       prop_units="false"
       tang_offset="0"
       normal_offset="0"
       spacing="0"
       scale_y_rel="false"
       prop_scale="0.4"
       copytype="single_stretched"
       pattern="m -7.5624998,552.36217 0,10 10,-5 z"
       is_visible="true"
       id="path-effect8271"
       effect="skeletal" />
    <inkscape:path-effect
       fuse_tolerance="0"
       vertical_pattern="false"
       prop_units="false"
       tang_offset="0"
       normal_offset="0"
       spacing="0"
       scale_y_rel="false"
       prop_scale="0.4"
       copytype="single_stretched"
       pattern="m -7.5624998,552.36217 0,10 10,-5 z"
       is_visible="true"
       id="path-effect4594"
       effect="skeletal" />
    <inkscape:path-effect
       fuse_tolerance="0"
       vertical_pattern="false"
       prop_units="false"
       tang_offset="0"
       normal_offset="0"
       spacing="0"
       scale_y_rel="false"
       prop_scale="0.4"
       copytype="single_stretched"
       pattern="m -4.9374999,552.42467 0,10 10,-5 z"
       is_visible="true"
       id="path-effect4590"
       effect="skeletal" />
    <inkscape:path-effect
       fuse_tolerance="0"
       vertical_pattern="false"
       prop_units="false"
       tang_offset="0"
       normal_offset="0"
       spacing="0"
       scale_y_rel="false"
       prop_scale="0.4"
       copytype="single_stretched"
       pattern="m -0.1875,552.42467 0,10 10,-5 z"
       is_visible="true"
       id="path-effect4586"
       effect="skeletal" />
    <inkscape:path-effect
       fuse_tolerance="0"
       vertical_pattern="false"
       prop_units="false"
       tang_offset="0"
       normal_offset="0"
       spacing="0"
       scale_y_rel="false"
       prop_scale="0.4"
       copytype="single_stretched"
       pattern="m 26.624999,552.29967 0,10 10,-5 z"
       is_visible="true"
       id="path-effect4582"
       effect="skeletal" />
    <inkscape:path-effect
       fuse_tolerance="0"
       vertical_pattern="false"
       prop_units="false"
       tang_offset="0"
       normal_offset="0"
       spacing="0"
       scale_y_rel="false"
       prop_scale="0.4"
       copytype="single_stretched"
       pattern="m 21.874999,552.67467 0,10 10,-5 z"
       is_visible="true"
       id="path-effect4578"
       effect="skeletal" />
    <inkscape:path-effect
       fuse_tolerance="0"
       vertical_pattern="false"
       prop_units="false"
       tang_offset="0"
       normal_offset="0"
       spacing="0"
       scale_y_rel="false"
       prop_scale="0.4"
       copytype="single_stretched"
       pattern="m 14.125,552.61217 0,10 10,-5 z"
       is_visible="true"
       id="path-effect4574"
       effect="skeletal" />
    <inkscape:path-effect
       fuse_tolerance="0"
       vertical_pattern="false"
       prop_units="false"
       tang_offset="0"
       normal_offset="0"
       spacing="0"
       scale_y_rel="false"
       prop_scale="0.4"
       copytype="single_stretched"
       pattern="m 18.0625,552.73717 0,10 10,-5 z"
       is_visible="true"
       id="path-effect4570"
       effect="skeletal" />
    <inkscape:path-effect
       fuse_tolerance="0"
       vertical_pattern="false"
       prop_units="false"
       tang_offset="0"
       normal_offset="0"
       spacing="0"
       scale_y_rel="false"
       prop_scale="0.4"
       copytype="single_stretched"
       pattern="m 9.8749998,552.48717 0,10 10.0000002,-5 z"
       is_visible="true"
       id="path-effect4566"
       effect="skeletal" />
    <inkscape:path-effect
       fuse_tolerance="0"
       vertical_pattern="false"
       prop_units="false"
       tang_offset="0"
       normal_offset="0"
       spacing="0"
       scale_y_rel="false"
       prop_scale="0.4"
       copytype="single_stretched"
       pattern="m 4.4999999,552.29967 0,10 10.0000001,-5 z"
       is_visible="true"
       id="path-effect4562"
       effect="skeletal" />
    <inkscape:path-effect
       effect="skeletal"
       id="path-effect4546"
       is_visible="true"
       pattern="M 0,0 0,10 10,5 z"
       copytype="single_stretched"
       prop_scale="1"
       scale_y_rel="false"
       spacing="0"
       normal_offset="0"
       tang_offset="0"
       prop_units="false"
       vertical_pattern="false"
       fuse_tolerance="0" />
    <inkscape:path-effect
       effect="skeletal"
       id="path-effect4542"
       is_visible="true"
       pattern="M 0,0 0,10 10,5 z"
       copytype="single_stretched"
       prop_scale="1"
       scale_y_rel="false"
       spacing="0"
       normal_offset="0"
       tang_offset="0"
       prop_units="false"
       vertical_pattern="false"
       fuse_tolerance="0" />
    <inkscape:path-effect
       effect="skeletal"
       id="path-effect4538"
       is_visible="true"
       pattern="M 0,0 0,10 10,5 z"
       copytype="single_stretched"
       prop_scale="1"
       scale_y_rel="false"
       spacing="0"
       normal_offset="0"
       tang_offset="0"
       prop_units="false"
       vertical_pattern="false"
       fuse_tolerance="0" />
    <inkscape:path-effect
       effect="skeletal"
       id="path-effect4534"
       is_visible="true"
       pattern="m -7.5624998,552.36217 0,10 10,-5 z"
       copytype="single_stretched"
       prop_scale="0.4"
       scale_y_rel="false"
       spacing="0"
       normal_offset="0"
       tang_offset="0"
       prop_units="false"
       vertical_pattern="false"
       fuse_tolerance="0" />
    <inkscape:path-effect
       effect="skeletal"
       id="path-effect4220"
       is_visible="true"
       pattern="m 0,552.36217 0,10 10,-5 z"
       copytype="single_stretched"
       prop_scale="1"
       scale_y_rel="false"
       spacing="0"
       normal_offset="0"
       tang_offset="0"
       prop_units="false"
       vertical_pattern="false"
       fuse_tolerance="0" />
    <inkscape:path-effect
       effect="skeletal"
       id="path-effect6242"
       is_visible="true"
       pattern="M 0,5 10,10 10,0 z"
       copytype="single_stretched"
       prop_scale="1"
       scale_y_rel="false"
       spacing="0"
       normal_offset="0"
       tang_offset="0"
       prop_units="false"
       vertical_pattern="false"
       fuse_tolerance="0" />
    <inkscape:path-effect
       effect="skeletal"
       id="path-effect6238"
       is_visible="true"
       pattern="M 0,5 10,10 10,0 z"
       copytype="single_stretched"
       prop_scale="1"
       scale_y_rel="false"
       spacing="0"
       normal_offset="0"
       tang_offset="0"
       prop_units="false"
       vertical_pattern="false"
       fuse_tolerance="0" />
    <inkscape:path-effect
       effect="skeletal"
       id="path-effect6234"
       is_visible="true"
       pattern="M 0,0 0,10 10,5 z"
       copytype="single_stretched"
       prop_scale="1"
       scale_y_rel="false"
       spacing="0"
       normal_offset="0"
       tang_offset="0"
       prop_units="false"
       vertical_pattern="false"
       fuse_tolerance="0" />
    <inkscape:path-effect
       effect="skeletal"
       id="path-effect6230"
       is_visible="true"
       pattern="M 0,0 0,10 10,5 z"
       copytype="single_stretched"
       prop_scale="1"
       scale_y_rel="false"
       spacing="0"
       normal_offset="0"
       tang_offset="0"
       prop_units="false"
       vertical_pattern="false"
       fuse_tolerance="0" />
    <inkscape:path-effect
       fuse_tolerance="0"
       vertical_pattern="false"
       prop_units="false"
       tang_offset="0"
       normal_offset="0"
       spacing="0"
       scale_y_rel="false"
       prop_scale="0.4"
       copytype="single_stretched"
       pattern="m 4.4999999,552.29967 0,10 10.0000001,-5 z"
       is_visible="true"
       id="path-effect4562-4"
       effect="skeletal" />
    <inkscape:path-effect
       fuse_tolerance="0"
       vertical_pattern="false"
       prop_units="false"
       tang_offset="0"
       normal_offset="0"
       spacing="0"
       scale_y_rel="false"
       prop_scale="0.4"
       copytype="single_stretched"
       pattern="m 9.8749998,552.48717 0,10 10.0000002,-5 z"
       is_visible="true"
       id="path-effect4566-8"
       effect="skeletal" />
    <inkscape:path-effect
       fuse_tolerance="0"
       vertical_pattern="false"
       prop_units="false"
       tang_offset="0"
       normal_offset="0"
       spacing="0"
       scale_y_rel="false"
       prop_scale="0.4"
       copytype="single_stretched"
       pattern="m 18.0625,552.73717 0,10 10,-5 z"
       is_visible="true"
       id="path-effect4570-7"
       effect="skeletal" />
    <inkscape:path-effect
       fuse_tolerance="0"
       vertical_pattern="false"
       prop_units="false"
       tang_offset="0"
       normal_offset="0"
       spacing="0"
       scale_y_rel="false"
       prop_scale="0.4"
       copytype="single_stretched"
       pattern="m 14.125,552.61217 0,10 10,-5 z"
       is_visible="true"
       id="path-effect4574-0"
       effect="skeletal" />
    <inkscape:path-effect
       fuse_tolerance="0"
       vertical_pattern="false"
       prop_units="false"
       tang_offset="0"
       normal_offset="0"
       spacing="0"
       scale_y_rel="false"
       prop_scale="0.4"
       copytype="single_stretched"
       pattern="m 21.874999,552.67467 0,10 10,-5 z"
       is_visible="true"
       id="path-effect4578-2"
       effect="skeletal" />
    <inkscape:path-effect
       fuse_tolerance="0"
       vertical_pattern="false"
       prop_units="false"
       tang_offset="0"
       normal_offset="0"
       spacing="0"
       scale_y_rel="false"
       prop_scale="0.4"
       copytype="single_stretched"
       pattern="m 26.624999,552.29967 0,10 10,-5 z"
       is_visible="true"
       id="path-effect4582-5"
       effect="skeletal" />
    <inkscape:path-effect
       fuse_tolerance="0"
       vertical_pattern="false"
       prop_units="false"
       tang_offset="0"
       normal_offset="0"
       spacing="0"
       scale_y_rel="false"
       prop_scale="0.4"
       copytype="single_stretched"
       pattern="m -0.1875,552.42467 0,10 10,-5 z"
       is_visible="true"
       id="path-effect4586-5"
       effect="skeletal" />
    <inkscape:path-effect
       fuse_tolerance="0"
       vertical_pattern="false"
       prop_units="false"
       tang_offset="0"
       normal_offset="0"
       spacing="0"
       scale_y_rel="false"
       prop_scale="0.4"
       copytype="single_stretched"
       pattern="m -4.9374999,552.42467 0,10 10,-5 z"
       is_visible="true"
       id="path-effect4590-6"
       effect="skeletal" />
    <inkscape:path-effect
       fuse_tolerance="0"
       vertical_pattern="false"
       prop_units="false"
       tang_offset="0"
       normal_offset="0"
       spacing="0"
       scale_y_rel="false"
       prop_scale="0.4"
       copytype="single_stretched"
       pattern="m -7.5624998,552.36217 0,10 10,-5 z"
       is_visible="true"
       id="path-effect4594-6"
       effect="skeletal" />
    <inkscape:path-effect
       effect="skeletal"
       id="path-effect4534-2"
       is_visible="true"
       pattern="m -7.5624998,552.36217 0,10 10,-5 z"
       copytype="single_stretched"
       prop_scale="0.4"
       scale_y_rel="false"
       spacing="0"
       normal_offset="0"
       tang_offset="0"
       prop_units="false"
       vertical_pattern="false"
       fuse_tolerance="0" />
    <inkscape:path-effect
       effect="skeletal"
       id="path-effect8298-7"
       is_visible="true"
       pattern="m 4.4999999,552.29967 0,10 10.0000001,-5 z"
       copytype="single_stretched"
       prop_scale="0.4"
       scale_y_rel="false"
       spacing="0"
       normal_offset="0"
       tang_offset="0"
       prop_units="false"
       vertical_pattern="false"
       fuse_tolerance="0" />
    <inkscape:path-effect
       effect="skeletal"
       id="path-effect8295-2"
       is_visible="true"
       pattern="m 9.8749998,552.48717 0,10 10.0000002,-5 z"
       copytype="single_stretched"
       prop_scale="0.4"
       scale_y_rel="false"
       spacing="0"
       normal_offset="0"
       tang_offset="0"
       prop_units="false"
       vertical_pattern="false"
       fuse_tolerance="0" />
    <inkscape:path-effect
       effect="skeletal"
       id="path-effect8292-1"
       is_visible="true"
       pattern="m 18.0625,552.73717 0,10 10,-5 z"
       copytype="single_stretched"
       prop_scale="0.4"
       scale_y_rel="false"
       spacing="0"
       normal_offset="0"
       tang_offset="0"
       prop_units="false"
       vertical_pattern="false"
       fuse_tolerance="0" />
    <inkscape:path-effect
       effect="skeletal"
       id="path-effect8289-8"
       is_visible="true"
       pattern="m 14.125,552.61217 0,10 10,-5 z"
       copytype="single_stretched"
       prop_scale="0.4"
       scale_y_rel="false"
       spacing="0"
       normal_offset="0"
       tang_offset="0"
       prop_units="false"
       vertical_pattern="false"
       fuse_tolerance="0" />
    <inkscape:path-effect
       effect="skeletal"
       id="path-effect8286-7"
       is_visible="true"
       pattern="m 21.874999,552.67467 0,10 10,-5 z"
       copytype="single_stretched"
       prop_scale="0.4"
       scale_y_rel="false"
       spacing="0"
       normal_offset="0"
       tang_offset="0"
       prop_units="false"
       vertical_pattern="false"
       fuse_tolerance="0" />
    <inkscape:path-effect
       effect="skeletal"
       id="path-effect8283-9"
       is_visible="true"
       pattern="m 26.624999,552.29967 0,10 10,-5 z"
       copytype="single_stretched"
       prop_scale="0.4"
       scale_y_rel="false"
       spacing="0"
       normal_offset="0"
       tang_offset="0"
       prop_units="false"
       vertical_pattern="false"
       fuse_tolerance="0" />
    <inkscape:path-effect
       effect="skeletal"
       id="path-effect8280-8"
       is_visible="true"
       pattern="m -0.1875,552.42467 0,10 10,-5 z"
       copytype="single_stretched"
       prop_scale="0.4"
       scale_y_rel="false"
       spacing="0"
       normal_offset="0"
       tang_offset="0"
       prop_units="false"
       vertical_pattern="false"
       fuse_tolerance="0" />
    <inkscape:path-effect
       effect="skeletal"
       id="path-effect8277-1"
       is_visible="true"
       pattern="m -4.9374999,552.42467 0,10 10,-5 z"
       copytype="single_stretched"
       prop_scale="0.4"
       scale_y_rel="false"
       spacing="0"
       normal_offset="0"
       tang_offset="0"
       prop_units="false"
       vertical_pattern="false"
       fuse_tolerance="0" />
    <inkscape:path-effect
       effect="skeletal"
       id="path-effect8274-8"
       is_visible="true"
       pattern="m -7.5624998,552.36217 0,10 10,-5 z"
       copytype="single_stretched"
       prop_scale="0.4"
       scale_y_rel="false"
       spacing="0"
       normal_offset="0"
       tang_offset="0"
       prop_units="false"
       vertical_pattern="false"
       fuse_tolerance="0" />
    <inkscape:path-effect
       fuse_tolerance="0"
       vertical_pattern="false"
       prop_units="false"
       tang_offset="0"
       normal_offset="0"
       spacing="0"
       scale_y_rel="false"
       prop_scale="0.4"
       copytype="single_stretched"
       pattern="m -7.5624998,552.36217 0,10 10,-5 z"
       is_visible="true"
       id="path-effect8271-0"
       effect="skeletal" />
  </defs>
  <metadata
     id="metadata7">
    <rdf:RDF>
      <cc:Work
         rdf:about="">
        <dc:format>image/svg+xml</dc:format>
        <dc:type
           rdf:resource="http://purl.org/dc/dcmitype/StillImage" />
        <dc:title />
      </cc:Work>
    </rdf:RDF>
  </metadata>
  <g
     transform="translate(0,-752.36217)"
     id="layer1"
     inkscape:groupmode="layer"
     inkscape:label="Ebene 1">
    <path
       style="fill:#b3b3b3;stroke:#000000;stroke-width:2;stroke-linecap:butt;stroke-linejoin:miter;stroke-opacity:1;fill-opacity:1;stroke-miterlimit:4;stroke-dasharray:none"
       d="m 40.305085,215.8543 9.899495,52.3259 23.334523,-56.56855 24.748737,12.02082 4.24264,55.86143 19.79899,-21.92031 18.38478,15.55635 29.69848,-67.17514 15.55635,55.15433 31.1127,-45.25483 26.16295,30.40559 2.12132,23.33452 12.72792,-16.26346 31.8198,-38.18376 16.97056,33.94112 18.38478,-30.40559 42.42641,36.06245 7.77817,-12.72792 41.7193,-4.24265 14.14214,-34.64823 24.04162,71.41779 9.8995,-36.06245 13.43503,26.16295 14.84924,-43.13351 26.87006,31.1127 41.01219,-42.42641 -1.41421,-62.22539 c 0,0 -432.74934,9.19238 -438.4062,10.6066 -5.65685,1.41421 -81.317275,57.27565 -81.317275,57.27565 z"
       id="path3954"
       inkscape:connector-curvature="0"
       transform="translate(0,752.36217)" />
    <path
       style="fill:#4d4d4d;stroke:#000000;stroke-width:2;stroke-linecap:butt;stroke-linejoin:miter;stroke-opacity:1;fill-opacity:1;stroke-miterlimit:4;stroke-dasharray:none"
       d="m 19.798989,227.87511 14.142136,24.04163 7.071067,-33.94112 7.778175,28.99137 11.313708,-14.84924 11.313708,33.23402 7.778174,-19.09188 5.656854,12.72792 14.142136,-31.81981 12.727923,32.52691 6.36396,-16.26345 c 0,0 2.82843,6.36396 5.65685,4.94975 2.82843,-1.41422 19.09189,-21.21321 19.09189,-21.21321 l 12.02081,30.40559 11.31371,-26.16295 9.19239,12.72793 33.23401,-35.35534 21.92031,31.1127 16.26346,-19.79899 10.6066,56.56854 11.31371,-17.67767 19.09188,7.77817 16.97056,-52.3259 9.8995,43.13351 10.6066,-26.16295 23.33452,19.79899 19.79899,-28.99137 21.92031,36.06244 20.5061,-38.18376 16.26345,17.67766 65.76093,-13.43502 24.04163,16.97056 7.07107,-20.5061 12.72792,24.74874 14.84924,-19.79899 18.38478,26.87006 14.14214,-27.57717 -28.28427,-55.86143 -508.409767,-0.70711 z"
       id="path3184"
       inkscape:connector-curvature="0"
       transform="translate(0,752.36217)" />
    <path
       style="fill:#000000;fill-opacity:1;stroke:#000000;stroke-width:2;stroke-linecap:butt;stroke-linejoin:miter;stroke-miterlimit:4;stroke-opacity:1;stroke-dasharray:none"
       d="M 278.375 81.375 C 180.82267 81.231527 82.177665 95.180709 9.1875 126.28125 C 9.059409 134.12322 9.5304475 135.00425 9.09375 142.0625 C 3.2071321 143.1983 0.56576257 175.71585 8.875 207.8125 C 8.220023 216.51964 9.884114 229.24026 12.03125 242.71875 L 24.03125 278.78125 L 30.40625 221.5 L 41 248.375 L 48.09375 225.03125 L 60.8125 246.96875 L 76.375 222.21875 L 94.75 249.78125 L 113.125 223.625 L 142.125 252.625 L 154.84375 223.625 L 162.625 247.6875 L 172.53125 221.5 L 203.65625 254.03125 L 232.625 222.21875 L 241.84375 252.625 L 260.21875 225.75 L 270.8125 250.5 L 272.25 222.21875 L 280 281.625 L 283.5625 222.21875 L 289.90625 246.96875 L 305.46875 223.625 L 337.28125 263.21875 L 362.03125 222.21875 L 383.96875 236.375 L 390.3125 219.375 L 408 236.375 L 420.71875 220.8125 L 432.75 274.53125 L 443.34375 247.6875 L 457.5 262.53125 L 480.125 240.59375 L 499.9375 258.28125 L 511.9375 217.96875 L 529.625 235.65625 L 537.40625 217.28125 L 555.09375 261.09375 L 572.75 231.40625 L 577 283.03125 L 587.21875 253.03125 C 590.77714 235.67006 594.68963 216.65439 594.6875 204.0625 C 589.06481 186.17287 590.48327 160.41417 592.40625 145.375 C 527.43296 105.06183 403.79943 81.559465 278.375 81.375 z "
       transform="translate(0,752.36217)"
       id="path5951" />
    <path
       sodipodi:nodetypes="csssssssssssssssccccsssssssssssssssccc"
       inkscape:connector-curvature="0"
       id="rect6480"
       d="m 8.6916611,959.28933 c 0,0 23.6443679,-0.27948 35.4652589,-0.49857 12.811885,-0.23746 25.6184,-0.98598 38.432083,-0.88438 11.995614,0.0951 23.964807,1.39932 35.960797,1.39831 11.84243,-0.001 23.65781,-1.37785 35.50024,-1.38641 12.52959,-0.009 25.03268,1.4414 37.56224,1.41256 11.93252,-0.0275 23.83641,-1.2354 35.76581,-1.5099 12.74789,-0.29333 25.50244,-0.21664 38.2535,-0.14616 12.29392,0.068 24.58415,0.57008 36.87823,0.54864 12.09468,-0.0211 24.18469,-0.85101 36.27797,-0.66625 12.05068,0.18411 24.06254,1.57069 36.11302,1.76792 12.48414,0.20432 24.9709,-0.28299 37.45252,-0.60625 12.05477,-0.3122 24.0967,-1.06858 36.15352,-1.28761 11.93935,-0.21689 23.88267,-0.053 35.82396,-0.0261 12.56746,0.0283 25.13892,-0.13698 37.70197,0.19731 11.95045,0.31799 23.86815,1.75493 35.82278,1.71984 11.76865,-0.0345 35.25493,-1.90007 35.25493,-1.90007 1.93555,-0.0921 1.65394,-0.74583 1.65384,-1.39766 3.92325,-14.35409 5.75064,-44.02103 -2.22587,-58.35309 -1.66483,-1.03295 -3.41433,-0.68519 -5.15521,-1.69594 0,0 -23.97608,-0.21797 -35.96385,-0.3521 -12.45746,-0.13938 -24.918,-0.1364 -37.37176,-0.47039 -11.67823,-0.31319 -23.33546,-1.49029 -35.01777,-1.43788 -12.32148,0.0553 -24.59833,1.66645 -36.9186,1.84788 -12.23784,0.18022 -24.47483,-0.43218 -36.70974,-0.75488 -11.738,-0.30959 -23.46676,-0.99367 -35.20801,-1.1333 -12.29291,-0.14619 -24.58707,0.1684 -36.88004,0.30958 -12.14762,0.13951 -24.29571,0.27288 -36.44138,0.53115 -11.91303,0.25333 -23.81905,0.80611 -35.73321,0.99894 -11.89956,0.1926 -23.80323,0.33622 -35.70302,0.15778 -12.36266,-0.18538 -24.70739,-1.10059 -37.0702,-1.27597 -11.40566,-0.1618 -22.81428,0.0357 -34.21981,0.20656 -12.57939,0.18841 -25.15179,0.74596 -37.73162,0.90261 -12.03926,0.14991 -24.081741,0.2172 -36.120566,0.0356 -12.217802,-0.1843 -24.422873,-0.90594 -36.639789,-1.14176 -11.729496,-0.22641 -35.1940662,-0.26215 -35.1940662,-0.26215 -5.6093714,3.99715 -7.2183571,34.84434 0.2318423,65.15217 z"
       style="fill:#483737;fill-opacity:1;stroke:#000000;stroke-width:2;stroke-miterlimit:4;stroke-opacity:1;stroke-dasharray:none" />
    <path
       sodipodi:nodetypes="ccccccccccccccccccccccccccccccccccc"
       inkscape:connector-curvature="0"
       id="path6485"
       d="m 286.91053,813.67467 c -3.83072,0.92217 -3.76094,6.61528 -8.0625,7.15625 -3.75878,1.90436 -7.72825,-0.47301 -11.65625,-0.0937 -5.95645,-1.69949 -3.56332,7.14307 -1.25,9.8125 3.06582,2.12461 7.92536,0.0826 9.9375,4 2.46833,3.91343 7.7033,3.58848 11.75,4 4.61006,0.15688 9.28246,1.12654 13.8125,-0.21875 3.98972,-0.34059 7.81086,-1.73807 11.84375,-1.25 1.46003,0.008 2.92881,-0.035 4.375,-0.25 2.93552,-1.27418 6.16154,-6.78777 2.125,-8.53125 -3.57071,-1.44376 -8.91225,-0.24909 -9.96875,-5.125 -1.60083,-3.20732 -3.20581,-7.58486 -7.46875,-7.6875 -5.14248,-0.61301 -10.48709,-0.23379 -15.4375,-1.8125 z m 0.875,4.28125 c 0.35837,0.16955 1.06016,0.0245 1.3125,0.375 0.98381,-0.0144 1.95635,-0.0647 2.9375,0 1.0619,-0.11875 0.75073,0.80826 0.53125,1.46875 -0.0298,0.95138 0.12048,1.91012 -0.15625,2.84375 0.18751,1.09167 -0.7521,0.45427 -1.46875,0.625 -1.17485,0.1376 -2.21299,-0.5205 -3.375,-0.375 -1.18881,0.0724 -2.45246,-0.0372 -3.53125,-0.28125 -0.95031,-0.17655 -0.17884,-0.76313 0.21875,-1.03125 0.90582,-0.29442 1.37485,-1.15185 2.125,-1.6875 0.73393,-0.46745 0.78697,-1.31835 1.40625,-1.9375 z m 9.1875,0.71875 c 0.64554,0.20297 1.3309,0.16225 2,0.15625 1.13954,-0.15888 2.27069,0.39186 3.40625,0.15625 0.99781,-0.54936 1.80488,0.2248 1.625,1.28125 -0.0472,0.87264 0.49585,1.56716 0.84375,2.3125 -0.004,0.78288 0.68823,1.40539 0.90625,2.03125 -0.90932,-0.0885 -1.81151,-0.27832 -2.65625,-0.65625 -1.33132,0.009 -2.66886,-0.0162 -4,0 -1.00784,0.0864 -1.99723,-0.1226 -2.96875,-0.1875 -0.38658,-0.74787 0.13453,-1.82613 0.28125,-2.6875 0.66712,-0.68801 0.16575,-1.64865 0.5625,-2.40625 z"
       style="fill:#000000;fill-opacity:1;stroke:none" />
    <path
       inkscape:connector-curvature="0"
       id="path6504"
       d="m 221.27356,801.05335 c -5.23669,0.0446 -10.37758,1.64444 -9.75,8.25 -0.9051,5.44176 3.59058,17.98556 -6.40625,14.46875 -8.08283,-1.12588 -16.35805,-0.97746 -24.5625,-1.3125 -2.9525,-1.02189 -7.63727,0.91851 -12.4375,0.25 0.48402,4.40309 -1.31391,5.42799 0.1875,10.4375 4.00033,1.52414 4.27946,6.95647 9.15625,7.53125 8.3851,1.3312 16.9834,0.6596 25.4375,1.625 8.39101,1.95182 16.96999,3.51502 25.65625,2.96875 6.50722,-0.30598 16.2485,-0.91009 17.21875,-9.125 2.32826,-8.19039 -9.65397,-23.52147 -11.9375,-31.03125 -3.49849,-1.34313 -6.00098,-1.88458 -7.5,-3.71875 -1.55557,-0.20272 -3.31694,-0.35863 -5.0625,-0.34375 z m -1.5625,6.9375 c 1.03746,0.0302 2.16472,0.63545 3.0625,1.03125 4.64342,0.027 7.49379,4.86063 8.03125,9 0.90234,2.98176 -1.7367,5.28839 -4.59375,5.0625 -2.55221,0.0492 -6.24078,1.12821 -7.75,-1.625 -0.877,-4.16491 -0.24784,-8.48749 -0.4375,-12.71875 0.48815,-0.58148 1.06502,-0.76811 1.6875,-0.75 z"
       style="fill:#000000;fill-opacity:1;stroke:none" />
    <path
       inkscape:connector-curvature="0"
       id="path6524"
       d="m 76.984924,774.55903 c -2.854108,5.46088 -4.975998,15.36994 -7.776333,21.90521 -3.83604,8.95233 -5.276508,18.17881 -9.746787,26.3169 -4.237679,0.88625 -8.512841,2.02443 -11.429528,4.24767 0.166855,0.42581 0.434151,1.33898 0.739694,2.43062 -2.36105,0.28578 -4.679448,0.64928 -6.758382,1.72245 -4.234073,11.82964 10.991612,11.97248 18.785773,5.72319 3.297894,-0.1726 8.334831,-3.70496 9.693366,-0.23713 1.51532,4.63638 2.961401,9.18813 5.807061,13.20691 0.253149,4.869 5.365488,7.78418 5.310432,12.67343 0.960036,1.85065 3.11983,2.17055 4.328558,3.23402 7.50801,-0.21509 4.358811,-8.16441 1.690174,-12.05131 -3.058697,-4.1551 -4.556127,-9.09983 -5.211595,-14.16395 -1.194535,-3.78368 -2.728957,-9.6291 2.635276,-10.91022 4.412077,-0.91121 6.183305,-2.17832 11.83256,-3.85404 -1.21733,-2.19089 -4.360138,-7.26851 -5.993631,-10.32405 -3.873171,0.8797 -8.936883,1.16533 -11.540063,2.6738 -3.125554,2.76537 -7.375087,2.79749 -11.269353,3.79835 -0.03826,0.0102 -0.08377,0.0157 -0.122275,0.026 3.916192,-10.71654 8.980995,-21.13139 11.05459,-32.34496 0.801325,-1.94121 0.465391,-4.52959 1.69053,-5.27871 6.893887,0.92164 22.068959,4.28673 29.373799,4.43355 3.83884,0.0771 10.51727,1.57783 15.47247,2.30555 -0.008,0.0123 -0.0157,0.0247 -0.024,0.037 -2.8105,3.51022 -3.09741,9.16361 -0.0717,12.60219 1.38095,0.94838 6.01957,1.45773 6.15663,0.25821 -2.68228,-0.80833 -4.37459,-6.61059 -4.37459,-6.61059 0,0 -0.38984,-4.38255 2.18047,-5.82998 2.57031,-1.44744 7.61071,-0.0147 7.99238,3.63815 -0.18963,2.15139 0.4479,7.23786 2.8353,3.42328 1.86542,-2.16483 1.42363,-5.13875 0.4071,-7.56194 -0.71535,-2.65815 -3.32672,-4.63586 -6.11933,-3.84415 -1.68936,0.2908 -3.54059,0.54122 -5.19018,1.13387 -10.80385,-4.98649 -23.25992,-3.8298 -34.586119,-7.76745 -6.540983,-3.61364 -12.957482,-3.67055 -17.772199,-5.01194 z"
       style="fill:#000000;fill-opacity:1;stroke:#000000;stroke-width:1px;stroke-linecap:butt;stroke-linejoin:miter;stroke-opacity:1" />
    <path
       sodipodi:nodetypes="sccccccccccsscccccccccs"
       inkscape:connector-curvature="0"
       id="path6550"
       d="m 353.50617,807.52374 c -1.67044,0.0478 -3.36917,0.66198 -4.38544,2.14086 -1.38739,3.20558 -0.83182,1.00985 -1.97513,4.29275 -0.46385,4.17404 -4.84581,3.81155 -8.59626,5.37266 -4.6174,2.0768 -4.68471,3.4175 -8.14256,6.87701 -0.50802,3.93187 -3.94838,7.61861 -3.17584,11.70045 l 22.4219,3.51014 c 0.77391,-1.36228 1.46044,-2.832 1.57598,-4.41752 0.38494,-1.44117 -0.35913,-1.81239 0.85963,-2.36396 7.51156,2.44108 10.08417,-8.12157 2.9848,-10.64981 2.28005,-5.83234 4.76877,-11.57777 5.37804,-15.75442 -1.47398,-0.22244 -5.27467,-0.75591 -6.94512,-0.70816 z m -11.75711,16.70136 c 1.29012,-0.13318 0.57669,2.29193 0.76411,3.15196 0.0818,1.49238 -0.12886,2.95322 -0.38205,4.41752 -0.29286,1.52721 0.20855,3.30309 -0.6686,4.65631 -1.13404,0.30289 -2.45249,-0.0172 -3.67729,0.0955 -1.10111,-0.10974 -2.30981,0.24693 -3.31911,-0.19103 -0.99125,-0.27327 -3.04475,0.0717 -2.36397,-1.69536 0.9267,-1.30381 1.39631,-2.85003 2.05355,-4.27426 1.04479,-1.39148 2.26712,-2.62671 3.29523,-4.03546 1.03234,-1.15622 2.52153,-1.76113 4.01159,-2.07743 0.10471,-0.0329 0.20053,-0.0389 0.28654,-0.0478 z"
       style="fill:#000000;fill-opacity:1;stroke:#000000;stroke-width:0.76411158px;stroke-linecap:butt;stroke-linejoin:miter;stroke-opacity:1" />
    <path
       sodipodi:nodetypes="sccccccccsccccccccccsccc"
       inkscape:connector-curvature="0"
       id="path6562"
       d="m 365.35237,801.89342 c -5.00628,0.22711 -6.84596,2.74691 -2,9.625 -4.41849,3.28732 -4.34795,10.95563 5.375,9.875 2.74393,4.11968 4.07096,8.31934 6.90625,13.46875 -8.68598,8.00811 2.67475,12.38914 7.375,9.90625 4.43602,5.45356 12.074,0.80286 16.6875,-2.1875 6.45659,-5.6417 4.17718,-11.02517 3.0625,-15.15625 -4.3877,-5.61514 -6.98965,-12.55273 -12.09375,-17.5625 -4.8595,-3.68965 -10.91344,-5.80884 -16.84375,-7.0625 -3.25155,-0.64617 -6.19317,-1.00948 -8.46875,-0.90625 z m 11.6875,5.84375 c 1.24444,0.014 2.54213,0.14894 4,0.4375 2.62994,0.53505 6.08122,2.24479 7.375,4.5 2.02213,1.95489 4.83389,5.0542 3.0625,6.65625 -1.55636,0.78111 -7.12114,4.43419 -9,3.28125 -2.91089,-4.08483 -8.62429,-8.33008 -11.0625,-12.78125 l -0.53125,-1.15625 c 2.16673,-0.62256 4.08218,-0.96092 6.15625,-0.9375 z m 20.78737,19.19822 c 2.92801,2.93249 1.43116,8.43736 -1.09987,11.89553 -3.83422,3.31084 -7.69598,-1.92842 -9.78125,-5.21875 -0.53993,-0.85195 -2.14253,-5.83239 -2.06835,-6.82221 3.91418,-2.85708 6.01569,-4.20086 9.01396,-4.48411 2.08504,2.16344 3.21106,3.97156 3.93551,4.62954 z"
       style="fill:#000000;fill-opacity:1;stroke:#000000;stroke-width:1px;stroke-linecap:butt;stroke-linejoin:miter;stroke-opacity:1" />
    <path
       id="path6589"
       transform="translate(0,752.36217)"
       d="M 470.75 14.71875 C 469.80367 17.54246 469.081 21.37023 467.8125 23.5625 C 468.6511 25.03965 470.58662 23.92036 473.875 24.1875 C 491.97882 25.65824 509.86089 29.38037 527.96875 30.9375 C 531.34621 31.227936 534.69917 31.615102 538.03125 32.125 C 537.61205 35.660342 537.28772 39.375287 536.40625 42.3125 C 538.57985 43.602385 541.1074 43.966151 543.59375 44.625 C 541.34545 54.524684 536.59001 66.585406 535.5 75.34375 C 533.59643 90.63927 528.99345 103.60158 524 118 C 530.07946 129.16401 534.7452 117.24865 535.40625 110.8125 C 536.8075 97.561683 548.24396 61.799594 554.125 47.15625 C 557.00486 47.688413 559.89166 48.1415 563.03125 48.25 C 563.72651 48.274 565.84375 48.46875 565.84375 48.46875 C 565.84375 48.46875 565.99733 44.711458 566.34375 41.4375 C 570.96399 43.798735 575.78474 46.717305 578.46875 47.5625 C 579.66227 46.72082 582.2372 43.2947 582.5 40.5 C 581.49189 39.23871 580.3179 38.01878 578.84375 37.375 C 575.41447 35.87739 571.93279 34.46455 568.40625 33.15625 C 568.78961 32.078233 569.125 31.21875 569.125 31.21875 C 569.125 31.21875 563.82103 29.99789 562.9375 29.96875 C 557.60202 28.33545 552.47572 25.85586 547 24.9375 C 544.74858 24.32436 542.26826 23.42942 540 24.5 C 539.91894 24.813022 539.84387 25.011279 539.78125 25.1875 C 535.55704 24.406189 531.32102 23.780034 527.0625 23.375 C 510.9461 21.84215 494.12934 23.08571 478.96875 16.59375 C 476.63382 15.5939 473.88724 15.58447 470.75 14.71875 z "
       style="fill:#000000;stroke:none;stroke-width:1px;stroke-linecap:butt;stroke-linejoin:miter;stroke-opacity:1;fill-opacity:1" />
    <path
       sodipodi:nodetypes="cccccccccc"
       inkscape:connector-curvature="0"
       id="path6612"
       d="m 469.99999,775.61218 c -1.88391,2.80998 -1.1057,6.35493 -2.22018,9.42269 -0.9157,2.86926 -1.29053,7.15014 -1.44738,10.11906 -3.84589,-1.16181 -8.32635,-1.63407 -9.83375,2.29328 4.24955,0.14193 9.39671,2.83818 13.62844,3.245 2.85252,0.93899 3.36351,0.91138 5.29194,1.58408 -0.18737,-3.16978 -2.80338,-4.58385 -5.20207,-5.89022 0.32449,-2.98936 0.96005,-6.6093 0.34429,-9.95916 -0.86189,-2.82858 1.44204,-5.39003 0.97245,-8.13046 0.28986,-2.27592 1.56821,-3.67445 -1.53374,-2.68427 z"
       style="fill:#000000;stroke:none;stroke-width:1px;stroke-linecap:butt;stroke-linejoin:miter;stroke-opacity:1;fill-opacity:1" />
    <path
       id="path6618"
       transform="translate(0,752.36217)"
       d="M 459.34375 46.6875 C 455.72207 46.702239 454.36661 49.307159 453.25 52.8125 C 449.99243 51.56456 443.42718 52.62383 443.25 57 C 441.93149 59.62777 445.52947 59.18538 447.125 59.6875 C 448.49657 56.73641 455.59557 57.7231 453.59375 61.6875 C 456.15829 62.50216 458.59394 62.73859 461.09375 63.25 C 463.22737 58.27369 468.13643 60.95443 466.28125 64.59375 C 467.14074 65.13562 467.06023 65.04432 468 65.1875 C 470.9056 65.63019 473.5972 64.09929 472.5625 60.1875 C 472.1924 56.42747 473.20829 51.08145 468.90625 49.125 C 465.80467 47.71449 464.3278 47.08617 460.09375 46.71875 C 459.83153 46.695996 459.5852 46.686517 459.34375 46.6875 z M 459.875 48.34375 C 460.50906 48.298099 461.17985 48.39333 461.78125 48.53125 C 463.50489 48.96056 465.10249 49.87774 466.90625 49.96875 C 468.34834 50.15054 469.38422 51.53004 469.46875 52.9375 C 469.44845 54.53554 469.75575 55.08939 469.53125 56.71875 C 467.89465 56.19271 465.73906 55.51542 463.9375 55.15625 C 461.68221 54.70662 459.49226 53.9546 457.1875 53.90625 C 456.76188 53.83735 456.32978 53.69144 456 53.40625 C 456.43186 51.84009 456.83966 50.10403 458.125 49 C 458.62901 48.576135 459.24094 48.389401 459.875 48.34375 z "
       style="fill:#000000;stroke:#000000;stroke-width:1px;stroke-linecap:butt;stroke-linejoin:miter;stroke-opacity:1;fill-opacity:1" />
  </g>
</svg>
