<?xml version="1.0" encoding="UTF-8" standalone="no"?>
<!-- Created with Inkscape (http://www.inkscape.org/) -->

<svg
   xmlns:dc="http://purl.org/dc/elements/1.1/"
   xmlns:cc="http://creativecommons.org/ns#"
   xmlns:rdf="http://www.w3.org/1999/02/22-rdf-syntax-ns#"
   xmlns:svg="http://www.w3.org/2000/svg"
   xmlns="http://www.w3.org/2000/svg"
   xmlns:sodipodi="http://sodipodi.sourceforge.net/DTD/sodipodi-0.dtd"
   xmlns:inkscape="http://www.inkscape.org/namespaces/inkscape"
   width="129.12515"
   height="37.817024"
   id="svg2"
   version="1.1"
   inkscape:version="0.48.4 r9939"
   inkscape:export-filename="/home/micha/Projects/Bandana/Background/banner.png"
   inkscape:export-xdpi="278.79999"
   inkscape:export-ydpi="278.79999"
   sodipodi:docname="banner.svg">
  <defs
     id="defs4" />
  <sodipodi:namedview
     id="base"
     pagecolor="#ffffff"
     bordercolor="#666666"
     borderopacity="1.0"
     inkscape:pageopacity="0.0"
     inkscape:pageshadow="2"
     inkscape:zoom="7.9195959"
     inkscape:cx="55.299224"
     inkscape:cy="31.515316"
     inkscape:document-units="px"
     inkscape:current-layer="layer1"
     showgrid="false"
     inkscape:window-width="1916"
     inkscape:window-height="1057"
     inkscape:window-x="0"
     inkscape:window-y="19"
     inkscape:window-maximized="1"
     fit-margin-top="0"
     fit-margin-left="0"
     fit-margin-right="0"
     fit-margin-bottom="0" />
  <metadata
     id="metadata7">
    <rdf:RDF>
      <cc:Work
         rdf:about="">
        <dc:format>image/svg+xml</dc:format>
        <dc:type
           rdf:resource="http://purl.org/dc/dcmitype/StillImage" />
        <dc:title></dc:title>
      </cc:Work>
    </rdf:RDF>
  </metadata>
  <g
     inkscape:label="Layer 1"
     inkscape:groupmode="layer"
     id="layer1"
     transform="translate(0.06265528,-0.18309621)">
    <rect
       style="fill:#9c5d1e;fill-opacity:1;stroke:#4d2e0f;stroke-width:2;stroke-linecap:round;stroke-linejoin:round;stroke-miterlimit:4;stroke-opacity:1;stroke-dasharray:none"
       id="rect3794"
       width="7.0710678"
       height="40.658642"
       x="118.81919"
       y="-1.3263869"
       transform="translate(-0.06265528,0.18309621)"
       inkscape:export-filename="/home/micha/Projects/Bandana/Background/log.png"
       inkscape:export-xdpi="209.14999"
       inkscape:export-ydpi="209.14999" />
    <path
       style="fill:#ffffff;fill-opacity:1;stroke:#000000;stroke-width:2;stroke-linejoin:round;stroke-miterlimit:4;stroke-opacity:1"
       d="m 0.95054663,1.1735878 105.49428337,0 21.62408,0.378807 0,7.7010146 c -13.19906,0.330371 -20.54608,1.8236996 -19.6752,2.8435816 1.12748,1.320388 9.34784,2.752646 19.6752,3.974948 l 0,7.449875 c -6.78055,-0.06264 -13.24762,1.442091 -19.69797,3.030457 6.69835,1.352962 13.20998,2.519197 19.5717,3.535534 l 0.12627,5.891708 -22.63424,1.010153 -104.48412337,0 z"
       id="rect2985"
       inkscape:connector-curvature="0"
       sodipodi:nodetypes="ccccscccccccc"
       inkscape:export-xdpi="209.14999"
       inkscape:export-ydpi="209.14999"
       inkscape:export-filename="/home/micha/Projects/Bandana/Background/banner.png" />
    <g
       id="g3824">
      <path
         sodipodi:type="arc"
         style="fill:#2d2d2d;fill-opacity:0.34259261;stroke:none"
         id="path3812"
         sodipodi:cx="122.60726"
         sodipodi:cy="4.9239321"
         sodipodi:rx="1.5152289"
         sodipodi:ry="1.4520943"
         d="m 124.12249,4.9239321 a 1.5152289,1.4520943 0 1 1 -3.03046,0 1.5152289,1.4520943 0 1 1 3.03046,0 z"
         transform="matrix(0.81019078,-0.7763096,0.79890164,0.74306584,20.573314,95.465472)" />
      <path
         sodipodi:nodetypes="ccccc"
         inkscape:connector-curvature="0"
         id="path3798"
         d="m 122.98656,4.0337411 -0.31567,0.947018 0.63134,0.3156727 0.79011,-0.9840014 z"
         style="fill:#333333;stroke:#333333;stroke-width:1px;stroke-linecap:butt;stroke-linejoin:miter;stroke-opacity:1" />
      <path
         transform="matrix(1.2083333,0,0,1.173913,-24.15374,-2.3147376)"
         d="m 124.12249,4.9239321 a 1.5152289,1.4520943 0 1 1 -3.03046,0 1.5152289,1.4520943 0 1 1 3.03046,0 z"
         sodipodi:ry="1.4520943"
         sodipodi:rx="1.5152289"
         sodipodi:cy="4.9239321"
         sodipodi:cx="122.60726"
         id="path3796"
         style="fill:#666666;fill-opacity:1;stroke:none"
         sodipodi:type="arc" />
    </g>
    <g
       id="g3819"
       transform="translate(0.25253814,-0.25253814)">
      <path
         transform="matrix(0.81019078,-0.7763096,0.79890164,0.74306584,19.720998,110.27052)"
         d="m 124.12249,4.9239321 c 0,0.8019695 -0.67839,1.4520943 -1.51523,1.4520943 -0.83684,0 -1.51523,-0.6501248 -1.51523,-1.4520943 0,-0.8019696 0.67839,-1.4520943 1.51523,-1.4520943 0.83684,0 1.51523,0.6501247 1.51523,1.4520943 z"
         sodipodi:ry="1.4520943"
         sodipodi:rx="1.5152289"
         sodipodi:cy="4.9239321"
         sodipodi:cx="122.60726"
         id="path3810"
         style="fill:#2d2d2d;fill-opacity:0.34259261;stroke:none"
         sodipodi:type="arc" />
      <path
         style="fill:#333333;stroke:#333333;stroke-width:1px;stroke-linecap:butt;stroke-linejoin:miter;stroke-opacity:1"
         d="m 123.63833,18.988418 -0.82202,0.866895 -0.54066,0.01319 0.8319,-1.788668 z"
         id="path3800"
         inkscape:connector-curvature="0"
         sodipodi:nodetypes="ccccc" />
      <path
         sodipodi:type="arc"
         style="fill:#666666;fill-opacity:1;stroke:none"
         id="path3802"
         sodipodi:cx="122.60726"
         sodipodi:cy="4.9239321"
         sodipodi:rx="1.5152289"
         sodipodi:ry="1.4520943"
         d="m 124.12249,4.9239321 c 0,0.8019695 -0.67839,1.4520943 -1.51523,1.4520943 -0.83684,0 -1.51523,-0.6501248 -1.51523,-1.4520943 0,-0.8019696 0.67839,-1.4520943 1.51523,-1.4520943 0.83684,0 1.51523,0.6501247 1.51523,1.4520943 z"
         transform="matrix(0.64458946,-1.0220439,0.99293023,0.62622783,39.432563,140.54847)" />
    </g>
    <g
       id="g3814"
       transform="translate(-0.25253814,-0.94701801)">
      <path
         sodipodi:type="arc"
         style="fill:#2d2d2d;fill-opacity:0.34259261;stroke:none"
         id="path3808"
         sodipodi:cx="122.60726"
         sodipodi:cy="4.9239321"
         sodipodi:rx="1.5152289"
         sodipodi:ry="1.4520943"
         d="m 124.12249,4.9239321 c 0,0.8019695 -0.67839,1.4520943 -1.51523,1.4520943 -0.83684,0 -1.51523,-0.6501248 -1.51523,-1.4520943 0,-0.8019696 0.67839,-1.4520943 1.51523,-1.4520943 0.83684,0 1.51523,0.6501247 1.51523,1.4520943 z"
         transform="matrix(0.81019078,-0.7763096,0.79890164,0.74306584,19.910402,124.25482)" />
      <path
         sodipodi:nodetypes="ccccc"
         inkscape:connector-curvature="0"
         id="path3804"
         d="m 122.7897,32.927145 0.66418,0.835328 0.54066,0.01319 -0.10585,-1.662399 z"
         style="fill:#333333;stroke:#333333;stroke-width:1px;stroke-linecap:butt;stroke-linejoin:miter;stroke-opacity:1" />
      <path
         transform="matrix(0.81019078,-0.7763096,0.79890164,0.74306584,20.257642,123.74974)"
         d="m 124.12249,4.9239321 c 0,0.8019695 -0.67839,1.4520943 -1.51523,1.4520943 -0.83684,0 -1.51523,-0.6501248 -1.51523,-1.4520943 0,-0.8019696 0.67839,-1.4520943 1.51523,-1.4520943 0.83684,0 1.51523,0.6501247 1.51523,1.4520943 z"
         sodipodi:ry="1.4520943"
         sodipodi:rx="1.5152289"
         sodipodi:cy="4.9239321"
         sodipodi:cx="122.60726"
         id="path3806"
         style="fill:#666666;fill-opacity:1;stroke:none"
         sodipodi:type="arc" />
    </g>
  </g>
</svg>
