<?xml version="1.0" encoding="UTF-8" standalone="no"?>
<!-- Created with Inkscape (http://www.inkscape.org/) -->

<svg
   xmlns:dc="http://purl.org/dc/elements/1.1/"
   xmlns:cc="http://creativecommons.org/ns#"
   xmlns:rdf="http://www.w3.org/1999/02/22-rdf-syntax-ns#"
   xmlns:svg="http://www.w3.org/2000/svg"
   xmlns="http://www.w3.org/2000/svg"
   xmlns:sodipodi="http://sodipodi.sourceforge.net/DTD/sodipodi-0.dtd"
   xmlns:inkscape="http://www.inkscape.org/namespaces/inkscape"
   width="600"
   height="360"
   id="svg2"
   version="1.1"
   inkscape:version="0.48.2 r9819"
   sodipodi:docname="world4.svg"
   inkscape:export-filename="/home/micha/Programmieren/git/platformer/images/world/world4.png"
   inkscape:export-xdpi="90"
   inkscape:export-ydpi="90">
  <sodipodi:namedview
     id="base"
     pagecolor="#ffffff"
     bordercolor="#666666"
     borderopacity="1.0"
     inkscape:pageopacity="0.0"
     inkscape:pageshadow="2"
     inkscape:zoom="1"
     inkscape:cx="257.25326"
     inkscape:cy="170.72637"
     inkscape:document-units="px"
     inkscape:current-layer="layer1"
     showgrid="false"
     inkscape:showpageshadow="true"
     inkscape:window-width="1280"
     inkscape:window-height="750"
     inkscape:window-x="0"
     inkscape:window-y="25"
     inkscape:window-maximized="1"
     showguides="true"
     inkscape:guide-bbox="true">
    <inkscape:grid
       type="xygrid"
       id="grid2985"
       empspacing="5"
       visible="true"
       enabled="true"
       snapvisiblegridlinesonly="true"
       spacingx="5px"
       spacingy="5px"
       originx="0px"
       originy="0px" />
  </sodipodi:namedview>
  <defs
     id="defs4">
    <inkscape:path-effect
       fuse_tolerance="0"
       vertical_pattern="false"
       prop_units="false"
       tang_offset="0"
       normal_offset="0"
       spacing="0"
       scale_y_rel="false"
       prop_scale="0.4"
       copytype="single_stretched"
       pattern="m 4.4999999,552.29967 0,10 10.0000001,-5 z"
       is_visible="true"
       id="path-effect8298"
       effect="skeletal" />
    <inkscape:path-effect
       fuse_tolerance="0"
       vertical_pattern="false"
       prop_units="false"
       tang_offset="0"
       normal_offset="0"
       spacing="0"
       scale_y_rel="false"
       prop_scale="0.4"
       copytype="single_stretched"
       pattern="m 9.8749998,552.48717 0,10 10.0000002,-5 z"
       is_visible="true"
       id="path-effect8295"
       effect="skeletal" />
    <inkscape:path-effect
       fuse_tolerance="0"
       vertical_pattern="false"
       prop_units="false"
       tang_offset="0"
       normal_offset="0"
       spacing="0"
       scale_y_rel="false"
       prop_scale="0.4"
       copytype="single_stretched"
       pattern="m 18.0625,552.73717 0,10 10,-5 z"
       is_visible="true"
       id="path-effect8292"
       effect="skeletal" />
    <inkscape:path-effect
       fuse_tolerance="0"
       vertical_pattern="false"
       prop_units="false"
       tang_offset="0"
       normal_offset="0"
       spacing="0"
       scale_y_rel="false"
       prop_scale="0.4"
       copytype="single_stretched"
       pattern="m 14.125,552.61217 0,10 10,-5 z"
       is_visible="true"
       id="path-effect8289"
       effect="skeletal" />
    <inkscape:path-effect
       fuse_tolerance="0"
       vertical_pattern="false"
       prop_units="false"
       tang_offset="0"
       normal_offset="0"
       spacing="0"
       scale_y_rel="false"
       prop_scale="0.4"
       copytype="single_stretched"
       pattern="m 21.874999,552.67467 0,10 10,-5 z"
       is_visible="true"
       id="path-effect8286"
       effect="skeletal" />
    <inkscape:path-effect
       fuse_tolerance="0"
       vertical_pattern="false"
       prop_units="false"
       tang_offset="0"
       normal_offset="0"
       spacing="0"
       scale_y_rel="false"
       prop_scale="0.4"
       copytype="single_stretched"
       pattern="m 26.624999,552.29967 0,10 10,-5 z"
       is_visible="true"
       id="path-effect8283"
       effect="skeletal" />
    <inkscape:path-effect
       fuse_tolerance="0"
       vertical_pattern="false"
       prop_units="false"
       tang_offset="0"
       normal_offset="0"
       spacing="0"
       scale_y_rel="false"
       prop_scale="0.4"
       copytype="single_stretched"
       pattern="m -0.1875,552.42467 0,10 10,-5 z"
       is_visible="true"
       id="path-effect8280"
       effect="skeletal" />
    <inkscape:path-effect
       fuse_tolerance="0"
       vertical_pattern="false"
       prop_units="false"
       tang_offset="0"
       normal_offset="0"
       spacing="0"
       scale_y_rel="false"
       prop_scale="0.4"
       copytype="single_stretched"
       pattern="m -4.9374999,552.42467 0,10 10,-5 z"
       is_visible="true"
       id="path-effect8277"
       effect="skeletal" />
    <inkscape:path-effect
       fuse_tolerance="0"
       vertical_pattern="false"
       prop_units="false"
       tang_offset="0"
       normal_offset="0"
       spacing="0"
       scale_y_rel="false"
       prop_scale="0.4"
       copytype="single_stretched"
       pattern="m -7.5624998,552.36217 0,10 10,-5 z"
       is_visible="true"
       id="path-effect8274"
       effect="skeletal" />
    <inkscape:path-effect
       effect="skeletal"
       id="path-effect8271"
       is_visible="true"
       pattern="m -7.5624998,552.36217 0,10 10,-5 z"
       copytype="single_stretched"
       prop_scale="0.4"
       scale_y_rel="false"
       spacing="0"
       normal_offset="0"
       tang_offset="0"
       prop_units="false"
       vertical_pattern="false"
       fuse_tolerance="0" />
    <inkscape:path-effect
       effect="skeletal"
       id="path-effect4594"
       is_visible="true"
       pattern="m -7.5624998,552.36217 0,10 10,-5 z"
       copytype="single_stretched"
       prop_scale="0.4"
       scale_y_rel="false"
       spacing="0"
       normal_offset="0"
       tang_offset="0"
       prop_units="false"
       vertical_pattern="false"
       fuse_tolerance="0" />
    <inkscape:path-effect
       effect="skeletal"
       id="path-effect4590"
       is_visible="true"
       pattern="m -4.9374999,552.42467 0,10 10,-5 z"
       copytype="single_stretched"
       prop_scale="0.4"
       scale_y_rel="false"
       spacing="0"
       normal_offset="0"
       tang_offset="0"
       prop_units="false"
       vertical_pattern="false"
       fuse_tolerance="0" />
    <inkscape:path-effect
       effect="skeletal"
       id="path-effect4586"
       is_visible="true"
       pattern="m -0.1875,552.42467 0,10 10,-5 z"
       copytype="single_stretched"
       prop_scale="0.4"
       scale_y_rel="false"
       spacing="0"
       normal_offset="0"
       tang_offset="0"
       prop_units="false"
       vertical_pattern="false"
       fuse_tolerance="0" />
    <inkscape:path-effect
       effect="skeletal"
       id="path-effect4582"
       is_visible="true"
       pattern="m 26.624999,552.29967 0,10 10,-5 z"
       copytype="single_stretched"
       prop_scale="0.4"
       scale_y_rel="false"
       spacing="0"
       normal_offset="0"
       tang_offset="0"
       prop_units="false"
       vertical_pattern="false"
       fuse_tolerance="0" />
    <inkscape:path-effect
       effect="skeletal"
       id="path-effect4578"
       is_visible="true"
       pattern="m 21.874999,552.67467 0,10 10,-5 z"
       copytype="single_stretched"
       prop_scale="0.4"
       scale_y_rel="false"
       spacing="0"
       normal_offset="0"
       tang_offset="0"
       prop_units="false"
       vertical_pattern="false"
       fuse_tolerance="0" />
    <inkscape:path-effect
       effect="skeletal"
       id="path-effect4574"
       is_visible="true"
       pattern="m 14.125,552.61217 0,10 10,-5 z"
       copytype="single_stretched"
       prop_scale="0.4"
       scale_y_rel="false"
       spacing="0"
       normal_offset="0"
       tang_offset="0"
       prop_units="false"
       vertical_pattern="false"
       fuse_tolerance="0" />
    <inkscape:path-effect
       effect="skeletal"
       id="path-effect4570"
       is_visible="true"
       pattern="m 18.0625,552.73717 0,10 10,-5 z"
       copytype="single_stretched"
       prop_scale="0.4"
       scale_y_rel="false"
       spacing="0"
       normal_offset="0"
       tang_offset="0"
       prop_units="false"
       vertical_pattern="false"
       fuse_tolerance="0" />
    <inkscape:path-effect
       effect="skeletal"
       id="path-effect4566"
       is_visible="true"
       pattern="m 9.8749998,552.48717 0,10 10.0000002,-5 z"
       copytype="single_stretched"
       prop_scale="0.4"
       scale_y_rel="false"
       spacing="0"
       normal_offset="0"
       tang_offset="0"
       prop_units="false"
       vertical_pattern="false"
       fuse_tolerance="0" />
    <inkscape:path-effect
       effect="skeletal"
       id="path-effect4562"
       is_visible="true"
       pattern="m 4.4999999,552.29967 0,10 10.0000001,-5 z"
       copytype="single_stretched"
       prop_scale="0.4"
       scale_y_rel="false"
       spacing="0"
       normal_offset="0"
       tang_offset="0"
       prop_units="false"
       vertical_pattern="false"
       fuse_tolerance="0" />
    <inkscape:path-effect
       fuse_tolerance="0"
       vertical_pattern="false"
       prop_units="false"
       tang_offset="0"
       normal_offset="0"
       spacing="0"
       scale_y_rel="false"
       prop_scale="1"
       copytype="single_stretched"
       pattern="M 0,0 0,10 10,5 z"
       is_visible="true"
       id="path-effect4546"
       effect="skeletal" />
    <inkscape:path-effect
       fuse_tolerance="0"
       vertical_pattern="false"
       prop_units="false"
       tang_offset="0"
       normal_offset="0"
       spacing="0"
       scale_y_rel="false"
       prop_scale="1"
       copytype="single_stretched"
       pattern="M 0,0 0,10 10,5 z"
       is_visible="true"
       id="path-effect4542"
       effect="skeletal" />
    <inkscape:path-effect
       fuse_tolerance="0"
       vertical_pattern="false"
       prop_units="false"
       tang_offset="0"
       normal_offset="0"
       spacing="0"
       scale_y_rel="false"
       prop_scale="1"
       copytype="single_stretched"
       pattern="M 0,0 0,10 10,5 z"
       is_visible="true"
       id="path-effect4538"
       effect="skeletal" />
    <inkscape:path-effect
       fuse_tolerance="0"
       vertical_pattern="false"
       prop_units="false"
       tang_offset="0"
       normal_offset="0"
       spacing="0"
       scale_y_rel="false"
       prop_scale="0.4"
       copytype="single_stretched"
       pattern="m -7.5624998,552.36217 0,10 10,-5 z"
       is_visible="true"
       id="path-effect4534"
       effect="skeletal" />
    <inkscape:path-effect
       fuse_tolerance="0"
       vertical_pattern="false"
       prop_units="false"
       tang_offset="0"
       normal_offset="0"
       spacing="0"
       scale_y_rel="false"
       prop_scale="1"
       copytype="single_stretched"
       pattern="m 0,552.36217 0,10 10,-5 z"
       is_visible="true"
       id="path-effect4220"
       effect="skeletal" />
    <inkscape:path-effect
       fuse_tolerance="0"
       vertical_pattern="false"
       prop_units="false"
       tang_offset="0"
       normal_offset="0"
       spacing="0"
       scale_y_rel="false"
       prop_scale="1"
       copytype="single_stretched"
       pattern="M 0,5 10,10 10,0 z"
       is_visible="true"
       id="path-effect6242"
       effect="skeletal" />
    <inkscape:path-effect
       fuse_tolerance="0"
       vertical_pattern="false"
       prop_units="false"
       tang_offset="0"
       normal_offset="0"
       spacing="0"
       scale_y_rel="false"
       prop_scale="1"
       copytype="single_stretched"
       pattern="M 0,5 10,10 10,0 z"
       is_visible="true"
       id="path-effect6238"
       effect="skeletal" />
    <inkscape:path-effect
       fuse_tolerance="0"
       vertical_pattern="false"
       prop_units="false"
       tang_offset="0"
       normal_offset="0"
       spacing="0"
       scale_y_rel="false"
       prop_scale="1"
       copytype="single_stretched"
       pattern="M 0,0 0,10 10,5 z"
       is_visible="true"
       id="path-effect6234"
       effect="skeletal" />
    <inkscape:path-effect
       fuse_tolerance="0"
       vertical_pattern="false"
       prop_units="false"
       tang_offset="0"
       normal_offset="0"
       spacing="0"
       scale_y_rel="false"
       prop_scale="1"
       copytype="single_stretched"
       pattern="M 0,0 0,10 10,5 z"
       is_visible="true"
       id="path-effect6230"
       effect="skeletal" />
    <inkscape:path-effect
       effect="skeletal"
       id="path-effect4562-4"
       is_visible="true"
       pattern="m 4.4999999,552.29967 0,10 10.0000001,-5 z"
       copytype="single_stretched"
       prop_scale="0.4"
       scale_y_rel="false"
       spacing="0"
       normal_offset="0"
       tang_offset="0"
       prop_units="false"
       vertical_pattern="false"
       fuse_tolerance="0" />
    <inkscape:path-effect
       effect="skeletal"
       id="path-effect4566-8"
       is_visible="true"
       pattern="m 9.8749998,552.48717 0,10 10.0000002,-5 z"
       copytype="single_stretched"
       prop_scale="0.4"
       scale_y_rel="false"
       spacing="0"
       normal_offset="0"
       tang_offset="0"
       prop_units="false"
       vertical_pattern="false"
       fuse_tolerance="0" />
    <inkscape:path-effect
       effect="skeletal"
       id="path-effect4570-7"
       is_visible="true"
       pattern="m 18.0625,552.73717 0,10 10,-5 z"
       copytype="single_stretched"
       prop_scale="0.4"
       scale_y_rel="false"
       spacing="0"
       normal_offset="0"
       tang_offset="0"
       prop_units="false"
       vertical_pattern="false"
       fuse_tolerance="0" />
    <inkscape:path-effect
       effect="skeletal"
       id="path-effect4574-0"
       is_visible="true"
       pattern="m 14.125,552.61217 0,10 10,-5 z"
       copytype="single_stretched"
       prop_scale="0.4"
       scale_y_rel="false"
       spacing="0"
       normal_offset="0"
       tang_offset="0"
       prop_units="false"
       vertical_pattern="false"
       fuse_tolerance="0" />
    <inkscape:path-effect
       effect="skeletal"
       id="path-effect4578-2"
       is_visible="true"
       pattern="m 21.874999,552.67467 0,10 10,-5 z"
       copytype="single_stretched"
       prop_scale="0.4"
       scale_y_rel="false"
       spacing="0"
       normal_offset="0"
       tang_offset="0"
       prop_units="false"
       vertical_pattern="false"
       fuse_tolerance="0" />
    <inkscape:path-effect
       effect="skeletal"
       id="path-effect4582-5"
       is_visible="true"
       pattern="m 26.624999,552.29967 0,10 10,-5 z"
       copytype="single_stretched"
       prop_scale="0.4"
       scale_y_rel="false"
       spacing="0"
       normal_offset="0"
       tang_offset="0"
       prop_units="false"
       vertical_pattern="false"
       fuse_tolerance="0" />
    <inkscape:path-effect
       effect="skeletal"
       id="path-effect4586-5"
       is_visible="true"
       pattern="m -0.1875,552.42467 0,10 10,-5 z"
       copytype="single_stretched"
       prop_scale="0.4"
       scale_y_rel="false"
       spacing="0"
       normal_offset="0"
       tang_offset="0"
       prop_units="false"
       vertical_pattern="false"
       fuse_tolerance="0" />
    <inkscape:path-effect
       effect="skeletal"
       id="path-effect4590-6"
       is_visible="true"
       pattern="m -4.9374999,552.42467 0,10 10,-5 z"
       copytype="single_stretched"
       prop_scale="0.4"
       scale_y_rel="false"
       spacing="0"
       normal_offset="0"
       tang_offset="0"
       prop_units="false"
       vertical_pattern="false"
       fuse_tolerance="0" />
    <inkscape:path-effect
       effect="skeletal"
       id="path-effect4594-6"
       is_visible="true"
       pattern="m -7.5624998,552.36217 0,10 10,-5 z"
       copytype="single_stretched"
       prop_scale="0.4"
       scale_y_rel="false"
       spacing="0"
       normal_offset="0"
       tang_offset="0"
       prop_units="false"
       vertical_pattern="false"
       fuse_tolerance="0" />
    <inkscape:path-effect
       fuse_tolerance="0"
       vertical_pattern="false"
       prop_units="false"
       tang_offset="0"
       normal_offset="0"
       spacing="0"
       scale_y_rel="false"
       prop_scale="0.4"
       copytype="single_stretched"
       pattern="m -7.5624998,552.36217 0,10 10,-5 z"
       is_visible="true"
       id="path-effect4534-2"
       effect="skeletal" />
    <inkscape:path-effect
       fuse_tolerance="0"
       vertical_pattern="false"
       prop_units="false"
       tang_offset="0"
       normal_offset="0"
       spacing="0"
       scale_y_rel="false"
       prop_scale="0.4"
       copytype="single_stretched"
       pattern="m 4.4999999,552.29967 0,10 10.0000001,-5 z"
       is_visible="true"
       id="path-effect8298-7"
       effect="skeletal" />
    <inkscape:path-effect
       fuse_tolerance="0"
       vertical_pattern="false"
       prop_units="false"
       tang_offset="0"
       normal_offset="0"
       spacing="0"
       scale_y_rel="false"
       prop_scale="0.4"
       copytype="single_stretched"
       pattern="m 9.8749998,552.48717 0,10 10.0000002,-5 z"
       is_visible="true"
       id="path-effect8295-2"
       effect="skeletal" />
    <inkscape:path-effect
       fuse_tolerance="0"
       vertical_pattern="false"
       prop_units="false"
       tang_offset="0"
       normal_offset="0"
       spacing="0"
       scale_y_rel="false"
       prop_scale="0.4"
       copytype="single_stretched"
       pattern="m 18.0625,552.73717 0,10 10,-5 z"
       is_visible="true"
       id="path-effect8292-1"
       effect="skeletal" />
    <inkscape:path-effect
       fuse_tolerance="0"
       vertical_pattern="false"
       prop_units="false"
       tang_offset="0"
       normal_offset="0"
       spacing="0"
       scale_y_rel="false"
       prop_scale="0.4"
       copytype="single_stretched"
       pattern="m 14.125,552.61217 0,10 10,-5 z"
       is_visible="true"
       id="path-effect8289-8"
       effect="skeletal" />
    <inkscape:path-effect
       fuse_tolerance="0"
       vertical_pattern="false"
       prop_units="false"
       tang_offset="0"
       normal_offset="0"
       spacing="0"
       scale_y_rel="false"
       prop_scale="0.4"
       copytype="single_stretched"
       pattern="m 21.874999,552.67467 0,10 10,-5 z"
       is_visible="true"
       id="path-effect8286-7"
       effect="skeletal" />
    <inkscape:path-effect
       fuse_tolerance="0"
       vertical_pattern="false"
       prop_units="false"
       tang_offset="0"
       normal_offset="0"
       spacing="0"
       scale_y_rel="false"
       prop_scale="0.4"
       copytype="single_stretched"
       pattern="m 26.624999,552.29967 0,10 10,-5 z"
       is_visible="true"
       id="path-effect8283-9"
       effect="skeletal" />
    <inkscape:path-effect
       fuse_tolerance="0"
       vertical_pattern="false"
       prop_units="false"
       tang_offset="0"
       normal_offset="0"
       spacing="0"
       scale_y_rel="false"
       prop_scale="0.4"
       copytype="single_stretched"
       pattern="m -0.1875,552.42467 0,10 10,-5 z"
       is_visible="true"
       id="path-effect8280-8"
       effect="skeletal" />
    <inkscape:path-effect
       fuse_tolerance="0"
       vertical_pattern="false"
       prop_units="false"
       tang_offset="0"
       normal_offset="0"
       spacing="0"
       scale_y_rel="false"
       prop_scale="0.4"
       copytype="single_stretched"
       pattern="m -4.9374999,552.42467 0,10 10,-5 z"
       is_visible="true"
       id="path-effect8277-1"
       effect="skeletal" />
    <inkscape:path-effect
       fuse_tolerance="0"
       vertical_pattern="false"
       prop_units="false"
       tang_offset="0"
       normal_offset="0"
       spacing="0"
       scale_y_rel="false"
       prop_scale="0.4"
       copytype="single_stretched"
       pattern="m -7.5624998,552.36217 0,10 10,-5 z"
       is_visible="true"
       id="path-effect8274-8"
       effect="skeletal" />
    <inkscape:path-effect
       effect="skeletal"
       id="path-effect8271-0"
       is_visible="true"
       pattern="m -7.5624998,552.36217 0,10 10,-5 z"
       copytype="single_stretched"
       prop_scale="0.4"
       scale_y_rel="false"
       spacing="0"
       normal_offset="0"
       tang_offset="0"
       prop_units="false"
       vertical_pattern="false"
       fuse_tolerance="0" />
  </defs>
  <metadata
     id="metadata7">
    <rdf:RDF>
      <cc:Work
         rdf:about="">
        <dc:format>image/svg+xml</dc:format>
        <dc:type
           rdf:resource="http://purl.org/dc/dcmitype/StillImage" />
        <dc:title></dc:title>
      </cc:Work>
    </rdf:RDF>
  </metadata>
  <g
     inkscape:label="Ebene 1"
     inkscape:groupmode="layer"
     id="layer1"
     transform="translate(0,-692.36217)">
    <path
       style="fill:#f4e3d7;stroke:#000000;stroke-width:2;stroke-linecap:butt;stroke-linejoin:miter;stroke-miterlimit:4;stroke-opacity:1;stroke-dasharray:none"
       d="m 548.38497,744.02777 c 5.53104,-3.03688 15.11019,-7.85045 16.01025,-5.29765 2.79515,7.92776 6.91668,20.56342 4.70647,20.34207 -5.0165,-0.50241 -10.2892,1.04051 -17.1642,-0.0845 0,0 -5.84173,-13.70301 -3.55252,-14.95993 z"
       id="path5749"
       inkscape:connector-curvature="0"
       sodipodi:nodetypes="ssscs" />
    <path
       style="fill:#f4e3d7;stroke:#000000;stroke-width:2;stroke-linecap:butt;stroke-linejoin:miter;stroke-miterlimit:4;stroke-opacity:1;stroke-dasharray:none"
       d="m 583.45261,715.75995 c 3.93177,6.17693 1.77531,14.44122 2.1261,21.11013 0.19767,3.75789 -1.66628,10.23606 -2.76273,12.68444 -1.76157,3.9336 -1.719,4.17766 -4.95846,7.00319 -2.39591,2.08978 -7.98716,3.15105 -10.9343,2.16149 -4.42018,-1.45559 -4.7805,-6.09388 -4.90162,-10.60694 -1.779,-0.21968 -7.58638,-0.54108 -9.1595,-0.65427 -1.48021,-0.1065 -3.39219,-33.4718 21.30947,-35.76485 3.62247,-0.21069 7.38092,1.08166 9.28104,4.06681 z"
       id="path5747"
       inkscape:connector-curvature="0"
       sodipodi:nodetypes="ssssccscs" />
    <path
       style="fill:#f4e3d7;stroke:#000000;stroke-width:2;stroke-linecap:butt;stroke-linejoin:miter;stroke-miterlimit:4;stroke-opacity:1;stroke-dasharray:none"
       d="M 38.183765,712.10533 C 7.5718914,719.02178 2.621149,791.07081 7.7660239,830.01119 c 6.4092691,48.5103 53.1036491,160.71749 6.7653341,208.10671 44.375661,4.264 113.512202,5.9235 167.470952,7.8398 54.34911,1.9302 106.11801,-9.8983 160.25791,-12.2109 36.82538,-1.573 84.75201,3.3085 127.43528,-0.4593 39.00963,-3.4435 70.97591,-0.1118 109.56175,4.8385 22.9383,-34.4902 5.34733,-136.97608 -6.6371,-173.38775 -12.6023,-38.28894 -23.98233,-75.01938 -19.84372,-116.37905 1.72556,-17.24461 5.08589,-34.84693 22.61517,-36.82045 -22.84679,-6.67221 -70.16975,-5.40654 -92.41379,-8.38797 -109.67651,-14.70026 -221.00498,3.50695 -331.50453,2.88866 -38.22393,-0.21388 -75.734615,1.16712 -113.289515,6.06589 z"
       id="path5742"
       inkscape:connector-curvature="0"
       sodipodi:nodetypes="cscssscsscssc" />
    <path
       style="fill:none;stroke:#0077ff;stroke-width:2;stroke-linecap:butt;stroke-linejoin:miter;stroke-miterlimit:4;stroke-opacity:1;stroke-dasharray:none"
       d="m 37.577164,895.29624 c 69.922006,-8.54941 121.928256,-8.8555 187.855936,-9.452 86.94782,-0.78668 99.54148,-5.95329 185.91574,4.24114 26.52963,3.13119 113.88278,1.8999 140.33657,2.74639"
       id="path5765"
       inkscape:connector-curvature="0"
       sodipodi:nodetypes="cssc" />
    <path
       style="fill:none;stroke:#0077ff;stroke-width:2;stroke-linecap:butt;stroke-linejoin:miter;stroke-miterlimit:4;stroke-opacity:1;stroke-dasharray:none"
       d="m 25.455843,823.12109 c 105.035857,0.45485 209.156587,-14.4787 314.337667,-11.43172 60.94957,1.76564 121.99156,1.91759 182.75839,7.18908"
       id="path5775"
       inkscape:connector-curvature="0"
       sodipodi:nodetypes="csc" />
    <path
       style="fill:none;stroke:#0077ff;stroke-width:2;stroke-linecap:butt;stroke-linejoin:miter;stroke-miterlimit:4;stroke-opacity:1;stroke-dasharray:none"
       d="m 32.526911,750.9962 c 84.227949,-3.04589 168.241499,-10.11655 252.682469,-7.2942 74.73714,2.49801 150.2568,-6.88999 224.6146,2.34446"
       id="path5777"
       inkscape:connector-curvature="0"
       sodipodi:nodetypes="csc" />
    <path
       style="fill:none;stroke:#0077ff;stroke-width:2;stroke-linecap:butt;stroke-linejoin:miter;stroke-miterlimit:4;stroke-opacity:1;stroke-dasharray:none"
       d="m 49.476658,957.47138 c 93.897122,-0.4582 175.696342,0.5284 269.537582,-6.4821 72.39144,-5.4081 166.12384,4.1592 238.67979,0.5323"
       id="path5779"
       inkscape:connector-curvature="0"
       sodipodi:nodetypes="csc" />
    <path
       style="fill:#916f6f;stroke:#000000;stroke-width:2;stroke-linecap:butt;stroke-linejoin:miter;stroke-miterlimit:4;stroke-opacity:1;stroke-dasharray:none"
       d="m 205.41451,782.1089 c 0,0 10.96016,4.5962 13.08148,4.24264 2.12132,-0.35355 16.83471,-4.74893 25.45584,-4.59619 2.77345,0.0491 5.49282,0.91302 8.13173,1.76776 3.91607,1.26841 8.83884,4.94975 11.31371,4.94975 2.47487,0 7.32455,-0.35999 10.96015,0 3.58801,0.35528 10.60661,2.12132 10.60661,2.12132 0,0 8.44095,-3.64593 12.72792,-5.3033 6.53645,-2.52704 13.15912,-4.8298 19.79899,-7.07107 5.15581,-1.74033 10.17916,-4.1149 15.55635,-4.94974 3.02785,-0.4701 6.22753,0.77363 9.19238,0 3.2674,-0.85258 7.42462,-4.94975 8.83884,-4.94975 1.41421,0 9.14335,2.95174 13.78858,2.47487 12.88785,-1.32304 36.06244,-14.49569 36.06244,-14.49569 0,0 6.36397,3.18198 7.77818,3.18198 1.41421,0 8.48528,-6.0104 8.48528,-6.0104 l 4.59619,2.47487 5.65686,-3.18198 3.18198,-1.76777 6.71751,1.06066 c 0,0 6.48956,-2.72924 9.8995,-3.53553 4.73707,-1.12009 9.99079,0.0762 14.49569,-1.76777 3.57768,-1.46445 5.93278,-4.99275 9.19238,-7.07106 2.80007,-1.78533 8.83884,-4.5962 8.83884,-4.5962 0,0 -6.24611,-8.34608 -10.6066,-10.96015 -6.62281,-3.97032 -14.67722,-4.97977 -22.27387,-6.36396 -9.88844,-1.80179 -20.00088,-2.42901 -30.05203,-2.47488 -9.68953,-0.0442 -19.34007,1.26048 -28.99138,2.12132 -11.2132,1.00015 -22.43809,1.97821 -33.58757,3.53554 -10.18929,1.42321 -20.3409,3.17039 -30.40559,5.3033 -10.93318,2.31695 -22.001,4.37567 -32.52691,8.13172 -8.58983,3.06519 -16.50846,7.75851 -24.74874,11.66727 -10.38268,4.92499 -31.1127,14.84924 -31.1127,14.84924 l -18.73833,8.83883 z"
       id="path5828"
       inkscape:connector-curvature="0"
       sodipodi:nodetypes="cssssscsssssscscccccssscssssssssccc" />
    <path
       style="fill:#000000;fill-opacity:1;stroke:none"
       d="M 122.8125 63.65625 C 121.87375 63.698838 120.92142 63.819255 120 64 C 118.64629 64.084938 116.05293 64.782687 116.09375 66.25 C 113.09825 69.504966 111.50008 73.832251 108.6875 77.25 C 106.75639 80.10527 105.59581 83.39571 104.09375 86.46875 C 103.94639 87.10794 103.78123 87.747314 103.59375 88.375 C 103.16922 88.806201 102.9822 89.34829 103.15625 89.71875 C 101.9956 93.205292 100.51659 96.598067 99.96875 100.25 C 99.186395 103.34489 96.842336 106.03876 96.96875 109.34375 C 97.406873 111.37698 99.974314 110.49631 101.125 109.625 C 104.57723 107.17953 105.45814 102.82832 106.71875 99.0625 C 107.82931 95.657325 109.20984 92.344668 110.5625 89.03125 C 111.58388 88.975309 112.5949 88.96311 113.625 89.03125 C 116.90629 89.13517 120.2548 88.85821 123.5 89.1875 C 126.99004 89.8013 130.57196 89.05545 134.09375 89.4375 C 134.35177 89.510151 134.64279 89.530195 134.96875 89.53125 C 136.71408 92.257269 138.32021 95.035305 139.15625 98.21875 C 140.10818 105.49207 145.8437 112.95957 153.90625 110.5625 C 156.83597 105.85172 150.18846 98.87683 148.53125 93.75 C 144.31611 87.27091 141.52277 79.91066 138.875 72.6875 C 136.06838 66.420339 129.38376 63.358136 122.8125 63.65625 z M 117.65625 67.71875 C 122.95884 69.280422 127.22216 73.409305 128.90625 78.71875 C 129.89744 81.545733 131.45345 84.08009 133.0625 86.5625 C 128.81933 86.749951 124.53617 86.194081 120.3125 86.90625 C 117.36924 87.468436 114.35196 87.246558 111.375 87.25 C 113.15315 83.470795 114.98462 79.658063 115.875 75.5625 C 116.24463 73.59395 116.33078 71.59353 116.3125 69.59375 C 116.74615 69.012968 117.28691 68.373575 117.65625 67.71875 z "
       transform="translate(0,692.36217)"
       id="path5830" />
    <path
       style="fill:#241c1c;stroke:#000000;stroke-width:2;stroke-linecap:butt;stroke-linejoin:miter;stroke-miterlimit:4;stroke-opacity:1;stroke-dasharray:none"
       d="m 146.3711,800.84723 c 0,0 39.56949,-19.4358 59.75052,-28.28427 15.83371,-6.94237 31.70842,-13.89861 48.08326,-19.44544 14.70435,-4.98096 29.80981,-8.73084 44.90128,-12.37437 18.01904,-4.35032 36.17696,-8.18181 54.44722,-11.3137 18.16881,-3.11451 36.40319,-6.26954 54.80078,-7.42462 12.70345,-0.79759 36.76955,0.35355 38.18376,0.35355 1.41421,0 16.15894,1.226 23.33452,4.59619 3.71517,1.74492 9.54595,7.77818 9.54595,7.77818 0,0 -9.72122,-6.24354 -15.2028,-7.77818 -9.33086,-2.61228 -26.87006,-2.12132 -28.99138,-2.12132 -2.12132,0 -18.88605,-0.079 -28.28427,0.70711 -14.9478,1.25024 -29.78567,3.70278 -44.54772,6.36396 -19.58716,3.53101 -39.15513,7.41687 -58.33631,12.72792 -19.53866,5.41004 -38.68947,12.21258 -57.6292,19.44544 -19.87746,7.59096 -39.58945,15.72624 -58.68986,25.10229 -7.38806,3.62667 -21.56676,12.02081 -21.56676,12.02081 l -5.3033,-0.7071 -4.5962,3.53553 z"
       id="path5826"
       inkscape:connector-curvature="0"
       sodipodi:nodetypes="cssssssscssssssscccc" />
    <path
       style="fill:#d3bc5f;stroke:#000000;stroke-width:1.81019962;stroke-linecap:butt;stroke-linejoin:miter;stroke-miterlimit:4;stroke-opacity:1;stroke-dasharray:none"
       d="m 482.06231,940.41852 c -0.008,-12.25009 1.77047,-23.89357 4.65179,-39.51625 -8.71451,-1.05786 -17.77773,1.62349 -26.77118,0.94246 -15.00373,0.90641 -30.1086,-0.12137 -45.06284,1.02955 3.4054,12.62463 4.81855,18.48094 6.29948,27.41051 2.99506,7.64144 1.73707,20.67936 11.52344,16.13369 17.24522,-0.50038 20.35137,-1.45665 37.562,-2.17853 2.33228,-0.81025 12.53669,-1.4275 11.79731,-3.82143 z"
       id="path8509"
       inkscape:connector-curvature="0"
       sodipodi:nodetypes="cccccccc" />
    <path
       style="fill:#000000;stroke:#000000;stroke-width:2;stroke-linecap:butt;stroke-linejoin:miter;stroke-opacity:1;stroke-miterlimit:4;stroke-dasharray:none"
       d="m 489.99999,941.36217 c 18.20085,4.10267 17.39604,-22.74391 -1.349,-20.25788 -24.81606,3.29119 -50.7945,-1.90796 -75.17366,3.77081 -16.32269,3.80213 -5.75532,19.89934 3.98813,19.22178 4.35974,-0.30318 0.96082,8.90559 -3.54199,14.70586 -7.92535,10.209 -17.42117,19.82362 -20.37179,32.31795 -3.37474,14.29021 -21.33288,32.09591 -7.84608,44.37081 12.88834,11.7302 32.5909,3.7448 48.86468,5.057 27.08227,2.1837 54.98267,8.6538 81.47405,2.2778 16.56381,-3.9866 10.11781,-29.7753 4.38543,-42.2362 -6.49504,-14.11877 -16.76863,-25.90733 -24.25889,-39.27137 -2.98575,-5.32714 -18.65294,-16.08613 -6.17088,-19.95656 z"
       id="path8495"
       inkscape:connector-curvature="0"
       sodipodi:nodetypes="cssssssssssc" />
    <path
       style="fill:#e9ddaf;stroke:#000000;stroke-width:2;stroke-linecap:butt;stroke-linejoin:miter;stroke-opacity:1;stroke-miterlimit:4;stroke-dasharray:none"
       d="m 421.49999,960.86217 c 13.22928,3.01583 32.38717,-5.67562 41.75038,5.18277 1.3365,10.40974 -1.40683,20.8077 -1.03497,31.23722 3.80122,14.26474 -9.90402,17.15624 -20.77956,15.08854 -15.4551,0.029 -30.98465,-0.8105 -46.37415,-0.4014 -15.75751,-4.0429 2.65461,-17.86136 1.74967,-27.80548 3.79942,-9.59068 10.29961,-21.33382 21.47322,-23.15324 l 1.55527,-0.12301 1.66014,-0.0254 0,0 z"
       id="path8501"
       inkscape:connector-curvature="0" />
    <path
       style="fill:none;stroke:#000000;stroke-width:2;stroke-linecap:round;stroke-linejoin:round;stroke-opacity:1;stroke-miterlimit:4;stroke-dasharray:none"
       d="m 410.82903,971.39845 c -2.73394,2.21915 -5.51594,8.79958 0.41202,7.83461 2.67843,0.0463 5.44283,-3.26815 5.15994,1.08759 2.85654,1.8823 6.91781,-1.20978 8.94715,-3.49953 0.055,0.81168 2.97689,3.27668 5.02767,1.33703 2.35156,-0.97231 3.7158,-5.37334 5.50428,-1.12397 1.96801,0.52797 3.98177,1.2002 5.08083,2.68372 3.95051,-0.0905 6.55498,-4.48002 10.74055,-3.36942 0.24827,10e-6 4.473,-1.5e-4 2.26107,10e-6"
       id="path8516"
       inkscape:connector-curvature="0" />
    <path
       style="fill:none;stroke:#000000;stroke-width:2;stroke-linecap:round;stroke-linejoin:round;stroke-opacity:1;stroke-miterlimit:4;stroke-dasharray:none"
       d="m 404.46507,988.72256 c -0.80712,2.45296 -5.13876,10.5993 0.27446,7.82703 2.1672,-1.59663 5.38543,-4.86472 7.32549,-4.86232 -1.45265,1.27184 -7.32747,4.63014 -2.03239,4.13758 2.63553,0.55374 8.04516,0.88622 9.08417,1.82907 0.91393,-1.26574 0.35421,-7.29135 1.33111,-5.47356 -1.62267,3.67409 1.77772,4.2666 3.95574,2.08696 1.85587,-1.30383 4.59399,-0.92849 1.8455,1.32897 -2.49535,1.55214 -5.06859,6.25921 0.18245,5.14701 2.91836,0.1929 9.78783,0.8429 6.5604,-3.9437 -3.11116,-4.508 4.41938,-6.92647 7.16607,-4.1244 0.6524,3.69071 1.75736,8.3821 6.76137,7.6111 1.24239,-0.29291 2.31927,-1.0744 3.15401,-2.01787"
       id="path8518"
       inkscape:connector-curvature="0" />
    <path
       style="fill:none;stroke:#000000;stroke-width:2;stroke-linecap:butt;stroke-linejoin:round;stroke-opacity:1;stroke-miterlimit:4;stroke-dasharray:none"
       d="m 426.38538,908.11239 c -1.01874,4.72856 8.90744,2.49569 2.69142,-0.32964 -0.88004,-0.34889 -1.92323,-0.23154 -2.69142,0.32964 z"
       id="path8526"
       inkscape:connector-curvature="0"
       sodipodi:nodetypes="ccc" />
    <path
       style="fill:none;stroke:#000000;stroke-width:2;stroke-linecap:butt;stroke-linejoin:round;stroke-opacity:1;stroke-miterlimit:4;stroke-dasharray:none"
       d="m 438.05264,911.64792 c 0.26826,5.7371 8.46757,4.56544 3.8695,-0.24727 -1.12912,-0.83214 -2.91379,-0.90576 -3.8695,0.24727 z"
       id="path8528"
       inkscape:connector-curvature="0"
       sodipodi:nodetypes="ccc" />
    <path
       style="fill:none;stroke:#000000;stroke-width:2;stroke-linecap:butt;stroke-linejoin:round;stroke-opacity:1;stroke-miterlimit:4;stroke-dasharray:none"
       d="m 455.0232,908.11239 c -3.26014,6.59365 7.33579,-1.22516 0,0 z"
       id="path8530"
       inkscape:connector-curvature="0"
       sodipodi:nodetypes="cc" />
    <path
       style="fill:none;stroke:#000000;stroke-width:2;stroke-linecap:butt;stroke-linejoin:round;stroke-opacity:1;stroke-miterlimit:4;stroke-dasharray:none"
       d="m 466.77885,911.38276 c -2.67165,3.90754 4.70105,1.37122 0,0 z"
       id="path8532"
       inkscape:connector-curvature="0"
       sodipodi:nodetypes="cc" />
    <path
       style="fill:none;stroke:#000000;stroke-width:2;stroke-linecap:butt;stroke-linejoin:round;stroke-opacity:1;stroke-miterlimit:4;stroke-dasharray:none"
       d="m 476.3248,906.12362 c -3.8954,3.76622 3.23502,3.55899 0,0 z"
       id="path8534"
       inkscape:connector-curvature="0"
       sodipodi:nodetypes="cc" />
    <path
       style="fill:none;stroke:#000000;stroke-width:2;stroke-linecap:butt;stroke-linejoin:round;stroke-opacity:1;stroke-miterlimit:4;stroke-dasharray:none"
       d="m 476.76674,919.33771 c 4.05407,0.13412 -2.30141,-3.70784 0,0 z"
       id="path8536"
       inkscape:connector-curvature="0"
       sodipodi:nodetypes="cc" />
  </g>
</svg>
