<?xml version="1.0" encoding="UTF-8" standalone="no"?>
<!-- Created with Inkscape (http://www.inkscape.org/) -->

<svg
   xmlns:dc="http://purl.org/dc/elements/1.1/"
   xmlns:cc="http://creativecommons.org/ns#"
   xmlns:rdf="http://www.w3.org/1999/02/22-rdf-syntax-ns#"
   xmlns:svg="http://www.w3.org/2000/svg"
   xmlns="http://www.w3.org/2000/svg"
   xmlns:sodipodi="http://sodipodi.sourceforge.net/DTD/sodipodi-0.dtd"
   xmlns:inkscape="http://www.inkscape.org/namespaces/inkscape"
   width="800"
   height="360"
   id="svg2"
   version="1.1"
   inkscape:version="0.48.3.1 r9886"
   sodipodi:docname="world5.svg"
   inkscape:export-filename="/home/micha/Programmieren/git/platformer/images/world/world5.png"
   inkscape:export-xdpi="90"
   inkscape:export-ydpi="90">
  <sodipodi:namedview
     id="base"
     pagecolor="#000000"
     bordercolor="#666666"
     borderopacity="1.0"
     inkscape:pageopacity="0.0"
     inkscape:pageshadow="2"
     inkscape:zoom="2.8284271"
     inkscape:cx="690.66923"
     inkscape:cy="155.65245"
     inkscape:document-units="px"
     inkscape:current-layer="layer1"
     showgrid="false"
     inkscape:showpageshadow="true"
     inkscape:window-width="1280"
     inkscape:window-height="750"
     inkscape:window-x="0"
     inkscape:window-y="25"
     inkscape:window-maximized="1"
     showguides="true"
     inkscape:guide-bbox="true">
    <inkscape:grid
       originy="0px"
       originx="0px"
       spacingy="5px"
       spacingx="5px"
       snapvisiblegridlinesonly="true"
       enabled="true"
       visible="true"
       empspacing="5"
       id="grid2985"
       type="xygrid" />
  </sodipodi:namedview>
  <defs
     id="defs4">
    <inkscape:path-effect
       effect="skeletal"
       id="path-effect8298"
       is_visible="true"
       pattern="m 4.4999999,552.29967 0,10 10.0000001,-5 z"
       copytype="single_stretched"
       prop_scale="0.4"
       scale_y_rel="false"
       spacing="0"
       normal_offset="0"
       tang_offset="0"
       prop_units="false"
       vertical_pattern="false"
       fuse_tolerance="0" />
    <inkscape:path-effect
       effect="skeletal"
       id="path-effect8295"
       is_visible="true"
       pattern="m 9.8749998,552.48717 0,10 10.0000002,-5 z"
       copytype="single_stretched"
       prop_scale="0.4"
       scale_y_rel="false"
       spacing="0"
       normal_offset="0"
       tang_offset="0"
       prop_units="false"
       vertical_pattern="false"
       fuse_tolerance="0" />
    <inkscape:path-effect
       effect="skeletal"
       id="path-effect8292"
       is_visible="true"
       pattern="m 18.0625,552.73717 0,10 10,-5 z"
       copytype="single_stretched"
       prop_scale="0.4"
       scale_y_rel="false"
       spacing="0"
       normal_offset="0"
       tang_offset="0"
       prop_units="false"
       vertical_pattern="false"
       fuse_tolerance="0" />
    <inkscape:path-effect
       effect="skeletal"
       id="path-effect8289"
       is_visible="true"
       pattern="m 14.125,552.61217 0,10 10,-5 z"
       copytype="single_stretched"
       prop_scale="0.4"
       scale_y_rel="false"
       spacing="0"
       normal_offset="0"
       tang_offset="0"
       prop_units="false"
       vertical_pattern="false"
       fuse_tolerance="0" />
    <inkscape:path-effect
       effect="skeletal"
       id="path-effect8286"
       is_visible="true"
       pattern="m 21.874999,552.67467 0,10 10,-5 z"
       copytype="single_stretched"
       prop_scale="0.4"
       scale_y_rel="false"
       spacing="0"
       normal_offset="0"
       tang_offset="0"
       prop_units="false"
       vertical_pattern="false"
       fuse_tolerance="0" />
    <inkscape:path-effect
       effect="skeletal"
       id="path-effect8283"
       is_visible="true"
       pattern="m 26.624999,552.29967 0,10 10,-5 z"
       copytype="single_stretched"
       prop_scale="0.4"
       scale_y_rel="false"
       spacing="0"
       normal_offset="0"
       tang_offset="0"
       prop_units="false"
       vertical_pattern="false"
       fuse_tolerance="0" />
    <inkscape:path-effect
       effect="skeletal"
       id="path-effect8280"
       is_visible="true"
       pattern="m -0.1875,552.42467 0,10 10,-5 z"
       copytype="single_stretched"
       prop_scale="0.4"
       scale_y_rel="false"
       spacing="0"
       normal_offset="0"
       tang_offset="0"
       prop_units="false"
       vertical_pattern="false"
       fuse_tolerance="0" />
    <inkscape:path-effect
       effect="skeletal"
       id="path-effect8277"
       is_visible="true"
       pattern="m -4.9374999,552.42467 0,10 10,-5 z"
       copytype="single_stretched"
       prop_scale="0.4"
       scale_y_rel="false"
       spacing="0"
       normal_offset="0"
       tang_offset="0"
       prop_units="false"
       vertical_pattern="false"
       fuse_tolerance="0" />
    <inkscape:path-effect
       effect="skeletal"
       id="path-effect8274"
       is_visible="true"
       pattern="m -7.5624998,552.36217 0,10 10,-5 z"
       copytype="single_stretched"
       prop_scale="0.4"
       scale_y_rel="false"
       spacing="0"
       normal_offset="0"
       tang_offset="0"
       prop_units="false"
       vertical_pattern="false"
       fuse_tolerance="0" />
    <inkscape:path-effect
       fuse_tolerance="0"
       vertical_pattern="false"
       prop_units="false"
       tang_offset="0"
       normal_offset="0"
       spacing="0"
       scale_y_rel="false"
       prop_scale="0.4"
       copytype="single_stretched"
       pattern="m -7.5624998,552.36217 0,10 10,-5 z"
       is_visible="true"
       id="path-effect8271"
       effect="skeletal" />
    <inkscape:path-effect
       fuse_tolerance="0"
       vertical_pattern="false"
       prop_units="false"
       tang_offset="0"
       normal_offset="0"
       spacing="0"
       scale_y_rel="false"
       prop_scale="0.4"
       copytype="single_stretched"
       pattern="m -7.5624998,552.36217 0,10 10,-5 z"
       is_visible="true"
       id="path-effect4594"
       effect="skeletal" />
    <inkscape:path-effect
       fuse_tolerance="0"
       vertical_pattern="false"
       prop_units="false"
       tang_offset="0"
       normal_offset="0"
       spacing="0"
       scale_y_rel="false"
       prop_scale="0.4"
       copytype="single_stretched"
       pattern="m -4.9374999,552.42467 0,10 10,-5 z"
       is_visible="true"
       id="path-effect4590"
       effect="skeletal" />
    <inkscape:path-effect
       fuse_tolerance="0"
       vertical_pattern="false"
       prop_units="false"
       tang_offset="0"
       normal_offset="0"
       spacing="0"
       scale_y_rel="false"
       prop_scale="0.4"
       copytype="single_stretched"
       pattern="m -0.1875,552.42467 0,10 10,-5 z"
       is_visible="true"
       id="path-effect4586"
       effect="skeletal" />
    <inkscape:path-effect
       fuse_tolerance="0"
       vertical_pattern="false"
       prop_units="false"
       tang_offset="0"
       normal_offset="0"
       spacing="0"
       scale_y_rel="false"
       prop_scale="0.4"
       copytype="single_stretched"
       pattern="m 26.624999,552.29967 0,10 10,-5 z"
       is_visible="true"
       id="path-effect4582"
       effect="skeletal" />
    <inkscape:path-effect
       fuse_tolerance="0"
       vertical_pattern="false"
       prop_units="false"
       tang_offset="0"
       normal_offset="0"
       spacing="0"
       scale_y_rel="false"
       prop_scale="0.4"
       copytype="single_stretched"
       pattern="m 21.874999,552.67467 0,10 10,-5 z"
       is_visible="true"
       id="path-effect4578"
       effect="skeletal" />
    <inkscape:path-effect
       fuse_tolerance="0"
       vertical_pattern="false"
       prop_units="false"
       tang_offset="0"
       normal_offset="0"
       spacing="0"
       scale_y_rel="false"
       prop_scale="0.4"
       copytype="single_stretched"
       pattern="m 14.125,552.61217 0,10 10,-5 z"
       is_visible="true"
       id="path-effect4574"
       effect="skeletal" />
    <inkscape:path-effect
       fuse_tolerance="0"
       vertical_pattern="false"
       prop_units="false"
       tang_offset="0"
       normal_offset="0"
       spacing="0"
       scale_y_rel="false"
       prop_scale="0.4"
       copytype="single_stretched"
       pattern="m 18.0625,552.73717 0,10 10,-5 z"
       is_visible="true"
       id="path-effect4570"
       effect="skeletal" />
    <inkscape:path-effect
       fuse_tolerance="0"
       vertical_pattern="false"
       prop_units="false"
       tang_offset="0"
       normal_offset="0"
       spacing="0"
       scale_y_rel="false"
       prop_scale="0.4"
       copytype="single_stretched"
       pattern="m 9.8749998,552.48717 0,10 10.0000002,-5 z"
       is_visible="true"
       id="path-effect4566"
       effect="skeletal" />
    <inkscape:path-effect
       fuse_tolerance="0"
       vertical_pattern="false"
       prop_units="false"
       tang_offset="0"
       normal_offset="0"
       spacing="0"
       scale_y_rel="false"
       prop_scale="0.4"
       copytype="single_stretched"
       pattern="m 4.4999999,552.29967 0,10 10.0000001,-5 z"
       is_visible="true"
       id="path-effect4562"
       effect="skeletal" />
    <inkscape:path-effect
       effect="skeletal"
       id="path-effect4546"
       is_visible="true"
       pattern="M 0,0 0,10 10,5 z"
       copytype="single_stretched"
       prop_scale="1"
       scale_y_rel="false"
       spacing="0"
       normal_offset="0"
       tang_offset="0"
       prop_units="false"
       vertical_pattern="false"
       fuse_tolerance="0" />
    <inkscape:path-effect
       effect="skeletal"
       id="path-effect4542"
       is_visible="true"
       pattern="M 0,0 0,10 10,5 z"
       copytype="single_stretched"
       prop_scale="1"
       scale_y_rel="false"
       spacing="0"
       normal_offset="0"
       tang_offset="0"
       prop_units="false"
       vertical_pattern="false"
       fuse_tolerance="0" />
    <inkscape:path-effect
       effect="skeletal"
       id="path-effect4538"
       is_visible="true"
       pattern="M 0,0 0,10 10,5 z"
       copytype="single_stretched"
       prop_scale="1"
       scale_y_rel="false"
       spacing="0"
       normal_offset="0"
       tang_offset="0"
       prop_units="false"
       vertical_pattern="false"
       fuse_tolerance="0" />
    <inkscape:path-effect
       effect="skeletal"
       id="path-effect4534"
       is_visible="true"
       pattern="m -7.5624998,552.36217 0,10 10,-5 z"
       copytype="single_stretched"
       prop_scale="0.4"
       scale_y_rel="false"
       spacing="0"
       normal_offset="0"
       tang_offset="0"
       prop_units="false"
       vertical_pattern="false"
       fuse_tolerance="0" />
    <inkscape:path-effect
       effect="skeletal"
       id="path-effect4220"
       is_visible="true"
       pattern="m 0,552.36217 0,10 10,-5 z"
       copytype="single_stretched"
       prop_scale="1"
       scale_y_rel="false"
       spacing="0"
       normal_offset="0"
       tang_offset="0"
       prop_units="false"
       vertical_pattern="false"
       fuse_tolerance="0" />
    <inkscape:path-effect
       effect="skeletal"
       id="path-effect6242"
       is_visible="true"
       pattern="M 0,5 10,10 10,0 z"
       copytype="single_stretched"
       prop_scale="1"
       scale_y_rel="false"
       spacing="0"
       normal_offset="0"
       tang_offset="0"
       prop_units="false"
       vertical_pattern="false"
       fuse_tolerance="0" />
    <inkscape:path-effect
       effect="skeletal"
       id="path-effect6238"
       is_visible="true"
       pattern="M 0,5 10,10 10,0 z"
       copytype="single_stretched"
       prop_scale="1"
       scale_y_rel="false"
       spacing="0"
       normal_offset="0"
       tang_offset="0"
       prop_units="false"
       vertical_pattern="false"
       fuse_tolerance="0" />
    <inkscape:path-effect
       effect="skeletal"
       id="path-effect6234"
       is_visible="true"
       pattern="M 0,0 0,10 10,5 z"
       copytype="single_stretched"
       prop_scale="1"
       scale_y_rel="false"
       spacing="0"
       normal_offset="0"
       tang_offset="0"
       prop_units="false"
       vertical_pattern="false"
       fuse_tolerance="0" />
    <inkscape:path-effect
       effect="skeletal"
       id="path-effect6230"
       is_visible="true"
       pattern="M 0,0 0,10 10,5 z"
       copytype="single_stretched"
       prop_scale="1"
       scale_y_rel="false"
       spacing="0"
       normal_offset="0"
       tang_offset="0"
       prop_units="false"
       vertical_pattern="false"
       fuse_tolerance="0" />
    <inkscape:path-effect
       fuse_tolerance="0"
       vertical_pattern="false"
       prop_units="false"
       tang_offset="0"
       normal_offset="0"
       spacing="0"
       scale_y_rel="false"
       prop_scale="0.4"
       copytype="single_stretched"
       pattern="m 4.4999999,552.29967 0,10 10.0000001,-5 z"
       is_visible="true"
       id="path-effect4562-4"
       effect="skeletal" />
    <inkscape:path-effect
       fuse_tolerance="0"
       vertical_pattern="false"
       prop_units="false"
       tang_offset="0"
       normal_offset="0"
       spacing="0"
       scale_y_rel="false"
       prop_scale="0.4"
       copytype="single_stretched"
       pattern="m 9.8749998,552.48717 0,10 10.0000002,-5 z"
       is_visible="true"
       id="path-effect4566-8"
       effect="skeletal" />
    <inkscape:path-effect
       fuse_tolerance="0"
       vertical_pattern="false"
       prop_units="false"
       tang_offset="0"
       normal_offset="0"
       spacing="0"
       scale_y_rel="false"
       prop_scale="0.4"
       copytype="single_stretched"
       pattern="m 18.0625,552.73717 0,10 10,-5 z"
       is_visible="true"
       id="path-effect4570-7"
       effect="skeletal" />
    <inkscape:path-effect
       fuse_tolerance="0"
       vertical_pattern="false"
       prop_units="false"
       tang_offset="0"
       normal_offset="0"
       spacing="0"
       scale_y_rel="false"
       prop_scale="0.4"
       copytype="single_stretched"
       pattern="m 14.125,552.61217 0,10 10,-5 z"
       is_visible="true"
       id="path-effect4574-0"
       effect="skeletal" />
    <inkscape:path-effect
       fuse_tolerance="0"
       vertical_pattern="false"
       prop_units="false"
       tang_offset="0"
       normal_offset="0"
       spacing="0"
       scale_y_rel="false"
       prop_scale="0.4"
       copytype="single_stretched"
       pattern="m 21.874999,552.67467 0,10 10,-5 z"
       is_visible="true"
       id="path-effect4578-2"
       effect="skeletal" />
    <inkscape:path-effect
       fuse_tolerance="0"
       vertical_pattern="false"
       prop_units="false"
       tang_offset="0"
       normal_offset="0"
       spacing="0"
       scale_y_rel="false"
       prop_scale="0.4"
       copytype="single_stretched"
       pattern="m 26.624999,552.29967 0,10 10,-5 z"
       is_visible="true"
       id="path-effect4582-5"
       effect="skeletal" />
    <inkscape:path-effect
       fuse_tolerance="0"
       vertical_pattern="false"
       prop_units="false"
       tang_offset="0"
       normal_offset="0"
       spacing="0"
       scale_y_rel="false"
       prop_scale="0.4"
       copytype="single_stretched"
       pattern="m -0.1875,552.42467 0,10 10,-5 z"
       is_visible="true"
       id="path-effect4586-5"
       effect="skeletal" />
    <inkscape:path-effect
       fuse_tolerance="0"
       vertical_pattern="false"
       prop_units="false"
       tang_offset="0"
       normal_offset="0"
       spacing="0"
       scale_y_rel="false"
       prop_scale="0.4"
       copytype="single_stretched"
       pattern="m -4.9374999,552.42467 0,10 10,-5 z"
       is_visible="true"
       id="path-effect4590-6"
       effect="skeletal" />
    <inkscape:path-effect
       fuse_tolerance="0"
       vertical_pattern="false"
       prop_units="false"
       tang_offset="0"
       normal_offset="0"
       spacing="0"
       scale_y_rel="false"
       prop_scale="0.4"
       copytype="single_stretched"
       pattern="m -7.5624998,552.36217 0,10 10,-5 z"
       is_visible="true"
       id="path-effect4594-6"
       effect="skeletal" />
    <inkscape:path-effect
       effect="skeletal"
       id="path-effect4534-2"
       is_visible="true"
       pattern="m -7.5624998,552.36217 0,10 10,-5 z"
       copytype="single_stretched"
       prop_scale="0.4"
       scale_y_rel="false"
       spacing="0"
       normal_offset="0"
       tang_offset="0"
       prop_units="false"
       vertical_pattern="false"
       fuse_tolerance="0" />
    <inkscape:path-effect
       effect="skeletal"
       id="path-effect8298-7"
       is_visible="true"
       pattern="m 4.4999999,552.29967 0,10 10.0000001,-5 z"
       copytype="single_stretched"
       prop_scale="0.4"
       scale_y_rel="false"
       spacing="0"
       normal_offset="0"
       tang_offset="0"
       prop_units="false"
       vertical_pattern="false"
       fuse_tolerance="0" />
    <inkscape:path-effect
       effect="skeletal"
       id="path-effect8295-2"
       is_visible="true"
       pattern="m 9.8749998,552.48717 0,10 10.0000002,-5 z"
       copytype="single_stretched"
       prop_scale="0.4"
       scale_y_rel="false"
       spacing="0"
       normal_offset="0"
       tang_offset="0"
       prop_units="false"
       vertical_pattern="false"
       fuse_tolerance="0" />
    <inkscape:path-effect
       effect="skeletal"
       id="path-effect8292-1"
       is_visible="true"
       pattern="m 18.0625,552.73717 0,10 10,-5 z"
       copytype="single_stretched"
       prop_scale="0.4"
       scale_y_rel="false"
       spacing="0"
       normal_offset="0"
       tang_offset="0"
       prop_units="false"
       vertical_pattern="false"
       fuse_tolerance="0" />
    <inkscape:path-effect
       effect="skeletal"
       id="path-effect8289-8"
       is_visible="true"
       pattern="m 14.125,552.61217 0,10 10,-5 z"
       copytype="single_stretched"
       prop_scale="0.4"
       scale_y_rel="false"
       spacing="0"
       normal_offset="0"
       tang_offset="0"
       prop_units="false"
       vertical_pattern="false"
       fuse_tolerance="0" />
    <inkscape:path-effect
       effect="skeletal"
       id="path-effect8286-7"
       is_visible="true"
       pattern="m 21.874999,552.67467 0,10 10,-5 z"
       copytype="single_stretched"
       prop_scale="0.4"
       scale_y_rel="false"
       spacing="0"
       normal_offset="0"
       tang_offset="0"
       prop_units="false"
       vertical_pattern="false"
       fuse_tolerance="0" />
    <inkscape:path-effect
       effect="skeletal"
       id="path-effect8283-9"
       is_visible="true"
       pattern="m 26.624999,552.29967 0,10 10,-5 z"
       copytype="single_stretched"
       prop_scale="0.4"
       scale_y_rel="false"
       spacing="0"
       normal_offset="0"
       tang_offset="0"
       prop_units="false"
       vertical_pattern="false"
       fuse_tolerance="0" />
    <inkscape:path-effect
       effect="skeletal"
       id="path-effect8280-8"
       is_visible="true"
       pattern="m -0.1875,552.42467 0,10 10,-5 z"
       copytype="single_stretched"
       prop_scale="0.4"
       scale_y_rel="false"
       spacing="0"
       normal_offset="0"
       tang_offset="0"
       prop_units="false"
       vertical_pattern="false"
       fuse_tolerance="0" />
    <inkscape:path-effect
       effect="skeletal"
       id="path-effect8277-1"
       is_visible="true"
       pattern="m -4.9374999,552.42467 0,10 10,-5 z"
       copytype="single_stretched"
       prop_scale="0.4"
       scale_y_rel="false"
       spacing="0"
       normal_offset="0"
       tang_offset="0"
       prop_units="false"
       vertical_pattern="false"
       fuse_tolerance="0" />
    <inkscape:path-effect
       effect="skeletal"
       id="path-effect8274-8"
       is_visible="true"
       pattern="m -7.5624998,552.36217 0,10 10,-5 z"
       copytype="single_stretched"
       prop_scale="0.4"
       scale_y_rel="false"
       spacing="0"
       normal_offset="0"
       tang_offset="0"
       prop_units="false"
       vertical_pattern="false"
       fuse_tolerance="0" />
    <inkscape:path-effect
       fuse_tolerance="0"
       vertical_pattern="false"
       prop_units="false"
       tang_offset="0"
       normal_offset="0"
       spacing="0"
       scale_y_rel="false"
       prop_scale="0.4"
       copytype="single_stretched"
       pattern="m -7.5624998,552.36217 0,10 10,-5 z"
       is_visible="true"
       id="path-effect8271-0"
       effect="skeletal" />
  </defs>
  <metadata
     id="metadata7">
    <rdf:RDF>
      <cc:Work
         rdf:about="">
        <dc:format>image/svg+xml</dc:format>
        <dc:type
           rdf:resource="http://purl.org/dc/dcmitype/StillImage" />
        <dc:title />
      </cc:Work>
    </rdf:RDF>
  </metadata>
  <g
     transform="translate(0,-692.36217)"
     id="layer1"
     inkscape:groupmode="layer"
     inkscape:label="Ebene 1">
    <path
       style="fill:#b3b3b3;fill-opacity:1;stroke:#000000;stroke-width:2;stroke-linecap:butt;stroke-linejoin:miter;stroke-miterlimit:4;stroke-opacity:1;stroke-dasharray:none"
       d="m 93.229233,991.26256 11.596767,45.77604 -8.667611,-134.74482 64.994791,95.77328 4.97005,48.86904 23.19355,-19.1764 21.53687,13.609 15.02544,-144.73177 37.98838,134.21567 36.447,-39.59004 30.64863,26.59954 2.48502,20.4136 14.91014,-14.2276 37.27533,-33.40414 19.88019,29.69254 21.53686,-26.59954 49.70047,31.54824 9.11175,-11.1346 48.87212,-3.7116 40.53786,-116.6305 4.19255,148.7974 11.59677,-31.5483 15.73849,22.8879 17.39515,-37.73414 31.47696,27.21814 93.82351,-122.54993 -1.89373,-62.22539 c 0,0 -579.4823,9.19238 -587.05724,10.6066 -7.57493,1.41421 -67.316067,142.00178 -67.316067,142.00178 z"
       id="path3954"
       inkscape:connector-curvature="0"
       sodipodi:nodetypes="cccccccccccccccccccccccccccsc" />
    <path
       style="fill:#4d4d4d;fill-opacity:1;stroke:#000000;stroke-width:2;stroke-linecap:butt;stroke-linejoin:miter;stroke-miterlimit:4;stroke-opacity:1;stroke-dasharray:none"
       d="m 69.207343,1001.7787 16.566821,21.0322 8.283409,-29.69254 9.111747,25.36234 13.25346,-12.9904 13.25345,29.0738 9.11176,-16.702 6.62671,11.1347 16.56683,-27.8367 14.91014,28.4553 7.45506,-14.2276 c 0,0 3.31337,5.5673 6.62673,4.3301 3.31336,-1.2372 22.36521,-18.5578 22.36521,-18.5578 l 14.0818,26.5996 13.25345,-22.888 10.76844,11.1347 25.56752,-116.54104 39.04306,112.82944 19.05186,-17.32064 12.42511,49.48754 13.25346,-15.4649 22.3652,6.8045 19.88019,-45.77594 11.59677,37.73434 12.42511,-22.888 27.33526,17.3206 23.19354,-25.36234 25.67857,31.54834 24.0219,-33.40414 19.05183,15.46484 77.03572,-11.75334 28.1636,14.84634 8.28341,-17.93924 14.91013,21.65074 17.39516,-17.32064 21.53688,23.50664 16.56681,-24.12524 11.69789,-139.43688 -680.797011,-0.70711 z"
       id="path3184"
       inkscape:connector-curvature="0"
       sodipodi:nodetypes="cccccccccccscccccccccccccccccccccccccccc" />
    <path
       inkscape:connector-curvature="0"
       style="fill:#000000;fill-opacity:1;stroke:#000000;stroke-width:2;stroke-linecap:butt;stroke-linejoin:miter;stroke-miterlimit:4;stroke-opacity:1;stroke-dasharray:none"
       d="m 370.44829,772.05713 c -130.62954,-0.14348 -287.043846,-1.32115 -344.392439,27.90625 -10.7726,5.4902 -14.270554,19.223 -16.194396,32.78125 -7.8826022,1.1358 -11.4195848,33.65335 -0.2929219,65.75 -0.877061,36.2843 20.5648909,67.70873 42.9643519,97.17773 l 28.733846,40.38724 0.366501,-39.85804 12.41006,23.51094 8.309978,-20.42174 14.89939,19.19154 18.23071,-21.65194 21.52541,24.11234 21.52542,-22.88214 33.97208,25.36994 14.89939,-25.36994 9.11536,21.05054 11.60469,-22.90954 36.46141,28.45914 33.93548,-27.83034 10.79931,26.60014 21.52542,-23.51094 12.41006,21.65194 1.68396,-24.74114 9.07874,51.97004 4.1733,-51.97004 7.43139,21.65194 18.23071,-20.42174 37.26679,34.63754 28.99341,-35.86774 25.6987,12.38424 7.4314,-14.87204 20.72004,14.87204 14.8994,-13.61444 14.09402,46.99444 12.41006,-23.4835 16.58334,12.9856 26.5041,-19.1914 23.20936,15.4734 14.05742,-35.26634 20.72003,15.47344 9.11536,-16.07494 20.72004,38.32824 28.25836,-38.69924 -2.59626,57.89074 38.48304,-53.82194 c 19.31834,-30.7443 31.69835,-50.6884 33.58923,-101.46403 -7.52919,-17.88963 -5.62977,-43.64833 -3.05476,-58.6875 -3.30955,-15.06415 -6.58063,-26.14506 -24.63211,-31.80023 C 673.7643,775.25905 510.99176,772.2115 370.44829,772.05713 z"
       id="path5951"
       sodipodi:nodetypes="sscccccccccccccccccccccccccccccccccccccccccccccss" />
    <path
       sodipodi:nodetypes="csssssssssssssssccccsssssssssssssssccc"
       inkscape:connector-curvature="0"
       id="rect6480"
       d="m 9.3230292,897.60929 c 0,0 31.6614988,-0.27948 47.4905168,-0.49857 17.15603,-0.23746 34.304869,-0.98598 51.463304,-0.88438 16.06298,0.0951 32.09058,1.39932 48.15407,1.39831 15.85786,-10e-4 31.6795,-1.37785 47.53736,-1.38641 16.77802,-0.009 33.52055,1.4414 50.29853,1.41256 15.97849,-0.0275 31.91865,-1.2354 47.89297,-1.5099 17.07034,-0.29333 34.14959,-0.21664 51.22417,-0.14616 16.46244,0.068 32.91994,0.57008 49.38259,0.54864 16.19564,-0.0211 32.38503,-0.85101 48.57879,-0.66625 16.13673,0.18411 32.22146,1.57069 48.35792,1.76792 16.71715,0.20432 33.43782,-0.28299 50.1516,-0.60625 16.1422,-0.3122 32.2672,-1.06858 48.41215,-1.28761 15.98764,-0.21689 31.9806,-0.053 47.97084,-0.0261 16.82873,0.0283 33.66281,-0.13698 50.48563,0.19731 16.00251,0.31799 31.96116,1.75493 47.96927,1.71984 15.75906,-0.0345 47.20887,-1.90007 47.20887,-1.90007 2.59184,-0.0921 2.21474,-0.74583 2.21461,-1.39766 5.25351,-14.35409 7.70052,-44.02103 -2.9806,-58.35309 -2.22933,-1.03295 -4.57203,-0.68519 -6.9032,-1.69594 0,0 -32.10568,-0.21797 -48.15816,-0.3521 -16.68143,-0.13938 -33.36698,-0.1364 -50.04346,-0.47039 -15.63798,-0.31319 -31.24785,-1.49029 -46.8913,-1.43788 -16.49934,0.0553 -32.93892,1.66645 -49.43664,1.84788 -16.38734,0.18022 -32.77355,-0.43218 -49.15697,-0.75488 -15.71802,-0.30959 -31.42367,-0.99367 -47.14604,-1.1333 -16.46108,-0.14619 -32.92384,0.1684 -49.38501,0.30958 -16.26653,0.13951 -32.53369,0.27288 -48.79761,0.53115 -15.9524,0.25333 -31.89541,0.80611 -47.84932,0.99894 -15.93437,0.1926 -31.87423,0.33622 -47.8089,0.15778 -16.55449,-0.18538 -33.08496,-1.10059 -49.63965,-1.27597 -15.27299,-0.1618 -30.54995,0.0357 -45.82277,0.20656 -16.8447,0.18841 -33.68004,0.74596 -50.52534,0.90261 -16.12143,0.14991 -32.24716,0.2172 -48.36801,0.0356 -16.360508,-0.1843 -32.70397,-0.90594 -49.063294,-1.14176 -15.706634,-0.22641 -47.1273702,-0.26215 -47.1273702,-0.26215 -7.5113493,3.99715 -9.66589614,34.84434 0.3104534,65.15217 z"
       style="fill:#483737;fill-opacity:1;stroke:#000000;stroke-width:2;stroke-miterlimit:4;stroke-opacity:1;stroke-dasharray:none" />
    <path
       sodipodi:nodetypes="ccccccccccccccccccccccccccccccccccc"
       inkscape:connector-curvature="0"
       id="path6485"
       d="m 376.46328,750.99463 c -3.83072,0.92217 -3.76094,6.61528 -8.0625,7.15625 -3.75878,1.90436 -7.72825,-0.47301 -11.65625,-0.0937 -5.95645,-1.69949 -3.56332,7.14307 -1.25,9.8125 3.06582,2.12461 7.92536,0.0826 9.9375,4 2.46833,3.91343 7.7033,3.58848 11.75,4 4.61006,0.15688 9.28246,1.12654 13.8125,-0.21875 3.98972,-0.34059 7.81086,-1.73807 11.84375,-1.25 1.46003,0.008 2.92881,-0.035 4.375,-0.25 2.93552,-1.27418 6.16154,-6.78777 2.125,-8.53125 -3.57071,-1.44376 -8.91225,-0.24909 -9.96875,-5.125 -1.60083,-3.20732 -3.20581,-7.58486 -7.46875,-7.6875 -5.14248,-0.61301 -10.48709,-0.23379 -15.4375,-1.8125 z m 0.875,4.28125 c 0.35837,0.16955 1.06016,0.0245 1.3125,0.375 0.98381,-0.0144 1.95635,-0.0647 2.9375,0 1.0619,-0.11875 0.75073,0.80826 0.53125,1.46875 -0.0298,0.95138 0.12048,1.91012 -0.15625,2.84375 0.18751,1.09167 -0.7521,0.45427 -1.46875,0.625 -1.17485,0.1376 -2.21299,-0.5205 -3.375,-0.375 -1.18881,0.0724 -2.45246,-0.0372 -3.53125,-0.28125 -0.95031,-0.17655 -0.17884,-0.76313 0.21875,-1.03125 0.90582,-0.29442 1.37485,-1.15185 2.125,-1.6875 0.73393,-0.46745 0.78697,-1.31835 1.40625,-1.9375 z m 9.1875,0.71875 c 0.64554,0.20297 1.3309,0.16225 2,0.15625 1.13954,-0.15888 2.27069,0.39186 3.40625,0.15625 0.99781,-0.54936 1.80488,0.2248 1.625,1.28125 -0.0472,0.87264 0.49585,1.56716 0.84375,2.3125 -0.004,0.78288 0.68823,1.40539 0.90625,2.03125 -0.90932,-0.0885 -1.81151,-0.27832 -2.65625,-0.65625 -1.33132,0.009 -2.66886,-0.0162 -4,0 -1.00784,0.0864 -1.99723,-0.1226 -2.96875,-0.1875 -0.38658,-0.74787 0.13453,-1.82613 0.28125,-2.6875 0.66712,-0.68801 0.16575,-1.64865 0.5625,-2.40625 z"
       style="fill:#000000;fill-opacity:1;stroke:none" />
    <path
       inkscape:connector-curvature="0"
       id="path6504"
       d="m 313.82631,736.37331 c -5.23669,0.0446 -10.37758,1.64444 -9.75,8.25 -0.9051,5.44176 3.59058,17.98556 -6.40625,14.46875 -8.08283,-1.12588 -16.35805,-0.97746 -24.5625,-1.3125 -2.9525,-1.02189 -7.63727,0.91851 -12.4375,0.25 0.48402,4.40309 -1.31391,5.42799 0.1875,10.4375 4.00033,1.52414 4.27946,6.95647 9.15625,7.53125 8.3851,1.3312 16.9834,0.6596 25.4375,1.625 8.39101,1.95182 16.96999,3.51502 25.65625,2.96875 6.50722,-0.30598 16.2485,-0.91009 17.21875,-9.125 2.32826,-8.19039 -9.65397,-23.52147 -11.9375,-31.03125 -3.49849,-1.34313 -6.00098,-1.88458 -7.5,-3.71875 -1.55557,-0.20272 -3.31694,-0.35863 -5.0625,-0.34375 z m -1.5625,6.9375 c 1.03746,0.0302 2.16472,0.63545 3.0625,1.03125 4.64342,0.027 7.49379,4.86063 8.03125,9 0.90234,2.98176 -1.7367,5.28839 -4.59375,5.0625 -2.55221,0.0492 -6.24078,1.12821 -7.75,-1.625 -0.877,-4.16491 -0.24784,-8.48749 -0.4375,-12.71875 0.48815,-0.58148 1.06502,-0.76811 1.6875,-0.75 z"
       style="fill:#000000;fill-opacity:1;stroke:none" />
    <path
       inkscape:connector-curvature="0"
       id="path6524"
       d="m 166.53768,698.87899 c -2.85411,5.46088 -4.976,15.36994 -7.77634,21.90521 -3.83604,8.95233 -5.2765,18.17881 -9.74678,26.3169 -4.23768,0.88625 -8.51284,2.02443 -11.42953,4.24767 0.16685,0.42581 0.43415,1.33898 0.73969,2.43062 -2.36105,0.28578 -4.67945,0.64928 -6.75838,1.72245 -4.23407,11.82964 10.99161,11.97248 18.78577,5.72319 3.2979,-0.1726 8.33483,-3.70496 9.69337,-0.23713 1.51532,4.63638 2.9614,9.18813 5.80706,13.20691 0.25315,4.869 5.36549,7.78418 5.31043,12.67343 0.96004,1.85065 3.11983,2.17055 4.32856,3.23402 7.50801,-0.21509 4.35881,-8.16441 1.69018,-12.05131 -3.0587,-4.1551 -4.55613,-9.09983 -5.2116,-14.16395 -1.19453,-3.78368 -2.72896,-9.6291 2.63528,-10.91022 4.41207,-0.91121 6.1833,-2.17832 11.83256,-3.85404 -1.21733,-2.19089 -4.36014,-7.26851 -5.99363,-10.32405 -3.87318,0.8797 -8.93689,1.16533 -11.54007,2.6738 -3.12555,2.76537 -7.37508,2.79749 -11.26935,3.79835 -0.0383,0.0102 -0.0838,0.0157 -0.12228,0.026 3.9162,-10.71654 8.981,-21.13139 11.05459,-32.34496 0.80133,-1.94121 0.4654,-4.52959 1.69053,-5.27871 6.89389,0.92164 22.06896,4.28673 29.3738,4.43355 3.83884,0.0771 10.51727,1.57783 15.47247,2.30555 -0.008,0.0123 -0.0157,0.0247 -0.024,0.037 -2.8105,3.51022 -3.09741,9.16361 -0.0717,12.60219 1.38095,0.94838 6.01957,1.45773 6.15663,0.25821 -2.68228,-0.80833 -4.37459,-6.61059 -4.37459,-6.61059 0,0 -0.38984,-4.38255 2.18047,-5.82998 2.57031,-1.44744 7.61071,-0.0147 7.99238,3.63815 -0.18963,2.15139 0.4479,7.23786 2.8353,3.42328 1.86542,-2.16483 1.42363,-5.13875 0.4071,-7.56194 -0.71535,-2.65815 -3.32672,-4.63586 -6.11933,-3.84415 -1.68936,0.2908 -3.54059,0.54122 -5.19018,1.13387 -10.80385,-4.98649 -23.25992,-3.8298 -34.58612,-7.76745 -6.54098,-3.61364 -12.95748,-3.67055 -17.77219,-5.01194 z"
       style="fill:#000000;fill-opacity:1;stroke:#000000;stroke-width:2;stroke-linecap:butt;stroke-linejoin:miter;stroke-miterlimit:4;stroke-opacity:1;stroke-dasharray:none" />
    <path
       sodipodi:nodetypes="sccccccccccsscccccccccs"
       inkscape:connector-curvature="0"
       id="path6550"
       d="m 446.05892,742.8437 c -1.67044,0.0478 -3.36917,0.66198 -4.38544,2.14086 -1.38739,3.20558 -0.83182,1.00985 -1.97513,4.29275 -0.46385,4.17404 -4.84581,3.81155 -8.59626,5.37266 -4.6174,2.0768 -4.68471,3.4175 -8.14256,6.87701 -0.50802,3.93187 -3.94838,7.61861 -3.17584,11.70045 l 22.4219,3.51014 c 0.77391,-1.36228 1.46044,-2.832 1.57598,-4.41752 0.38494,-1.44117 -0.35913,-1.81239 0.85963,-2.36396 7.51156,2.44108 10.08417,-8.12157 2.9848,-10.64981 2.28005,-5.83234 4.76877,-11.57777 5.37804,-15.75442 -1.47398,-0.22244 -5.27467,-0.75591 -6.94512,-0.70816 z m -11.75711,16.70136 c 1.29012,-0.13318 0.57669,2.29193 0.76411,3.15196 0.0818,1.49238 -0.12886,2.95322 -0.38205,4.41752 -0.29286,1.52721 0.20855,3.30309 -0.6686,4.65631 -1.13404,0.30289 -2.45249,-0.0172 -3.67729,0.0955 -1.10111,-0.10974 -2.30981,0.24693 -3.31911,-0.19103 -0.99125,-0.27327 -3.04475,0.0717 -2.36397,-1.69536 0.9267,-1.30381 1.39631,-2.85003 2.05355,-4.27426 1.04479,-1.39148 2.26712,-2.62671 3.29523,-4.03546 1.03234,-1.15622 2.52153,-1.76113 4.01159,-2.07743 0.10471,-0.0329 0.20053,-0.0389 0.28654,-0.0478 z"
       style="fill:#000000;fill-opacity:1;stroke:#000000;stroke-width:2;stroke-linecap:butt;stroke-linejoin:miter;stroke-miterlimit:4;stroke-opacity:1;stroke-dasharray:none" />
    <path
       sodipodi:nodetypes="sccccccccsccccccccccsccc"
       inkscape:connector-curvature="0"
       id="path6562"
       d="m 457.90512,737.21338 c -5.00628,0.22711 -6.84596,2.74691 -2,9.625 -4.41849,3.28732 -4.34795,10.95563 5.375,9.875 2.74393,4.11968 4.07096,8.31934 6.90625,13.46875 -8.68598,8.00811 2.67475,12.38914 7.375,9.90625 4.43602,5.45356 12.074,0.80286 16.6875,-2.1875 6.45659,-5.6417 4.17718,-11.02517 3.0625,-15.15625 -4.3877,-5.61514 -6.98965,-12.55273 -12.09375,-17.5625 -4.8595,-3.68965 -10.91344,-5.80884 -16.84375,-7.0625 -3.25155,-0.64617 -6.19317,-1.00948 -8.46875,-0.90625 z m 11.6875,5.84375 c 1.24444,0.014 2.54213,0.14894 4,0.4375 2.62994,0.53505 6.08122,2.24479 7.375,4.5 2.02213,1.95489 4.83389,5.0542 3.0625,6.65625 -1.55636,0.78111 -7.12114,4.43419 -9,3.28125 -2.91089,-4.08483 -8.62429,-8.33008 -11.0625,-12.78125 l -0.53125,-1.15625 c 2.16673,-0.62256 4.08218,-0.96092 6.15625,-0.9375 z m 20.78737,19.19822 c 2.92801,2.93249 1.43116,8.43736 -1.09987,11.89553 -3.83422,3.31084 -7.69598,-1.92842 -9.78125,-5.21875 -0.53993,-0.85195 -2.14253,-5.83239 -2.06835,-6.82221 3.91418,-2.85708 6.01569,-4.20086 9.01396,-4.48411 2.08504,2.16344 3.21106,3.97156 3.93551,4.62954 z"
       style="fill:#000000;fill-opacity:1;stroke:#000000;stroke-width:2;stroke-linecap:butt;stroke-linejoin:miter;stroke-miterlimit:4;stroke-opacity:1;stroke-dasharray:none" />
    <g
       id="g5013"
       transform="translate(100.55276,-73.680037)">
      <path
         style="fill:#000000;fill-opacity:1;stroke:none"
         d="m 470.75,767.08092 c -0.94633,2.82371 -1.669,6.65148 -2.9375,8.84375 0.8386,1.47715 2.77412,0.35786 6.0625,0.625 18.10382,1.47074 35.98589,5.19287 54.09375,6.75 3.37746,0.29044 6.73042,0.6776 10.0625,1.1875 -0.4192,3.53534 -0.74353,7.25029 -1.625,10.1875 2.1736,1.28989 4.70115,1.65365 7.1875,2.3125 -2.2483,9.89968 -7.00374,21.96041 -8.09375,30.71875 -1.90357,15.29552 -6.50655,28.25783 -11.5,42.65625 6.07946,11.16401 10.7452,-0.75135 11.40625,-7.1875 1.40125,-13.25082 12.83771,-49.01291 18.71875,-63.65625 2.87986,0.53216 5.76666,0.98525 8.90625,1.09375 0.69526,0.024 2.8125,0.21875 2.8125,0.21875 0,0 0.15358,-3.75729 0.5,-7.03125 4.62024,2.36123 9.44099,5.2798 12.125,6.125 1.19352,-0.84168 3.76845,-4.2678 4.03125,-7.0625 -1.00811,-1.26129 -2.1821,-2.48122 -3.65625,-3.125 -3.42928,-1.49761 -6.91096,-2.91045 -10.4375,-4.21875 0.38336,-1.07802 0.71875,-1.9375 0.71875,-1.9375 0,0 -5.30397,-1.22086 -6.1875,-1.25 -5.33548,-1.6333 -10.46178,-4.11289 -15.9375,-5.03125 -2.25142,-0.61314 -4.73174,-1.50808 -7,-0.4375 -0.0811,0.31302 -0.15613,0.51128 -0.21875,0.6875 -4.22421,-0.78131 -8.46023,-1.40747 -12.71875,-1.8125 -16.1164,-1.53285 -32.93316,-0.28929 -48.09375,-6.78125 -2.33493,-0.99985 -5.08151,-1.00928 -8.21875,-1.875 z"
         id="path6589"
         inkscape:connector-curvature="0" />
      <path
         style="fill:#000000;fill-opacity:1;stroke:none"
         d="m 469.99999,775.61218 c -1.88391,2.80998 -1.1057,6.35493 -2.22018,9.42269 -0.9157,2.86926 -1.29053,7.15014 -1.44738,10.11906 -3.84589,-1.16181 -8.32635,-1.63407 -9.83375,2.29328 4.24955,0.14193 9.39671,2.83818 13.62844,3.245 2.85252,0.93899 3.36351,0.91138 5.29194,1.58408 -0.18737,-3.16978 -2.80338,-4.58385 -5.20207,-5.89022 0.32449,-2.98936 0.96005,-6.6093 0.34429,-9.95916 -0.86189,-2.82858 1.44204,-5.39003 0.97245,-8.13046 0.28986,-2.27592 1.56821,-3.67445 -1.53374,-2.68427 z"
         id="path6612"
         inkscape:connector-curvature="0"
         sodipodi:nodetypes="cccccccccc" />
      <path
         style="fill:#000000;fill-opacity:1;stroke:#000000;stroke-width:2;stroke-linecap:butt;stroke-linejoin:miter;stroke-miterlimit:4;stroke-opacity:1;stroke-dasharray:none"
         d="m 459.34375,799.04967 c -3.62168,0.0147 -4.97714,2.61966 -6.09375,6.125 -3.25757,-1.24794 -9.82282,-0.18867 -10,4.1875 -1.31851,2.62777 2.27947,2.18538 3.875,2.6875 1.37157,-2.95109 8.47057,-1.9644 6.46875,2 2.56454,0.81466 5.00019,1.05109 7.5,1.5625 2.13362,-4.97631 7.04268,-2.29557 5.1875,1.34375 0.85949,0.54187 0.77898,0.45057 1.71875,0.59375 2.9056,0.44269 5.5972,-1.08821 4.5625,-5 -0.3701,-3.76003 0.64579,-9.10605 -3.65625,-11.0625 -3.10158,-1.41051 -4.57845,-2.03883 -8.8125,-2.40625 -0.26222,-0.0227 -0.50855,-0.0322 -0.75,-0.0312 z m 0.53125,1.65625 c 0.63406,-0.0457 1.30485,0.0496 1.90625,0.1875 1.72364,0.42931 3.32124,1.34649 5.125,1.4375 1.44209,0.18179 2.47797,1.56129 2.5625,2.96875 -0.0203,1.59804 0.287,2.15189 0.0625,3.78125 -1.6366,-0.52604 -3.79219,-1.20333 -5.59375,-1.5625 -2.25529,-0.44963 -4.44524,-1.20165 -6.75,-1.25 -0.42562,-0.0689 -0.85772,-0.21481 -1.1875,-0.5 0.43186,-1.56616 0.83966,-3.30222 2.125,-4.40625 0.50401,-0.42386 1.11594,-0.6106 1.75,-0.65625 z"
         id="path6618"
         inkscape:connector-curvature="0" />
    </g>
  </g>
</svg>
