<?xml version="1.0" encoding="UTF-8" standalone="no"?>
<!-- Created with Inkscape (http://www.inkscape.org/) -->

<svg
   xmlns:dc="http://purl.org/dc/elements/1.1/"
   xmlns:cc="http://creativecommons.org/ns#"
   xmlns:rdf="http://www.w3.org/1999/02/22-rdf-syntax-ns#"
   xmlns:svg="http://www.w3.org/2000/svg"
   xmlns="http://www.w3.org/2000/svg"
   xmlns:sodipodi="http://sodipodi.sourceforge.net/DTD/sodipodi-0.dtd"
   xmlns:inkscape="http://www.inkscape.org/namespaces/inkscape"
   inkscape:export-ydpi="90"
   inkscape:export-xdpi="90"
   inkscape:export-filename="/home/micha/Programmieren/git/platformer/images/world/world1.png"
   sodipodi:docname="world1.svg"
   inkscape:version="0.91 r13725"
   version="1.1"
   id="svg2"
   height="360"
   width="820">
  <sodipodi:namedview
     id="base"
     pagecolor="#ffffff"
     bordercolor="#666666"
     borderopacity="1.0"
     inkscape:pageopacity="0"
     inkscape:pageshadow="2"
     inkscape:zoom="1"
     inkscape:cx="622.01002"
     inkscape:cy="187.42749"
     inkscape:document-units="px"
     inkscape:current-layer="layer1"
     showgrid="false"
     inkscape:showpageshadow="true"
     inkscape:window-width="1920"
     inkscape:window-height="1026"
     inkscape:window-x="0"
     inkscape:window-y="29"
     inkscape:window-maximized="1"
     showguides="true"
     inkscape:guide-bbox="true">
    <inkscape:grid
       type="xygrid"
       id="grid2985"
       empspacing="5"
       visible="true"
       enabled="true"
       snapvisiblegridlinesonly="true"
       spacingx="5px"
       spacingy="5px"
       originx="0px"
       originy="0px" />
  </sodipodi:namedview>
  <defs
     id="defs4">
    <inkscape:path-effect
       fuse_tolerance="0"
       vertical_pattern="false"
       prop_units="false"
       tang_offset="0"
       normal_offset="0"
       spacing="0"
       scale_y_rel="false"
       prop_scale="0.4"
       copytype="single_stretched"
       pattern="m 4.4999999,552.29967 0,10 10.0000001,-5 z"
       is_visible="true"
       id="path-effect8298"
       effect="skeletal" />
    <inkscape:path-effect
       fuse_tolerance="0"
       vertical_pattern="false"
       prop_units="false"
       tang_offset="0"
       normal_offset="0"
       spacing="0"
       scale_y_rel="false"
       prop_scale="0.4"
       copytype="single_stretched"
       pattern="m 9.8749998,552.48717 0,10 10.0000002,-5 z"
       is_visible="true"
       id="path-effect8295"
       effect="skeletal" />
    <inkscape:path-effect
       fuse_tolerance="0"
       vertical_pattern="false"
       prop_units="false"
       tang_offset="0"
       normal_offset="0"
       spacing="0"
       scale_y_rel="false"
       prop_scale="0.4"
       copytype="single_stretched"
       pattern="m 18.0625,552.73717 0,10 10,-5 z"
       is_visible="true"
       id="path-effect8292"
       effect="skeletal" />
    <inkscape:path-effect
       fuse_tolerance="0"
       vertical_pattern="false"
       prop_units="false"
       tang_offset="0"
       normal_offset="0"
       spacing="0"
       scale_y_rel="false"
       prop_scale="0.4"
       copytype="single_stretched"
       pattern="m 14.125,552.61217 0,10 10,-5 z"
       is_visible="true"
       id="path-effect8289"
       effect="skeletal" />
    <inkscape:path-effect
       fuse_tolerance="0"
       vertical_pattern="false"
       prop_units="false"
       tang_offset="0"
       normal_offset="0"
       spacing="0"
       scale_y_rel="false"
       prop_scale="0.4"
       copytype="single_stretched"
       pattern="m 21.874999,552.67467 0,10 10,-5 z"
       is_visible="true"
       id="path-effect8286"
       effect="skeletal" />
    <inkscape:path-effect
       fuse_tolerance="0"
       vertical_pattern="false"
       prop_units="false"
       tang_offset="0"
       normal_offset="0"
       spacing="0"
       scale_y_rel="false"
       prop_scale="0.4"
       copytype="single_stretched"
       pattern="m 26.624999,552.29967 0,10 10,-5 z"
       is_visible="true"
       id="path-effect8283"
       effect="skeletal" />
    <inkscape:path-effect
       fuse_tolerance="0"
       vertical_pattern="false"
       prop_units="false"
       tang_offset="0"
       normal_offset="0"
       spacing="0"
       scale_y_rel="false"
       prop_scale="0.4"
       copytype="single_stretched"
       pattern="m -0.1875,552.42467 0,10 10,-5 z"
       is_visible="true"
       id="path-effect8280"
       effect="skeletal" />
    <inkscape:path-effect
       fuse_tolerance="0"
       vertical_pattern="false"
       prop_units="false"
       tang_offset="0"
       normal_offset="0"
       spacing="0"
       scale_y_rel="false"
       prop_scale="0.4"
       copytype="single_stretched"
       pattern="m -4.9374999,552.42467 0,10 10,-5 z"
       is_visible="true"
       id="path-effect8277"
       effect="skeletal" />
    <inkscape:path-effect
       fuse_tolerance="0"
       vertical_pattern="false"
       prop_units="false"
       tang_offset="0"
       normal_offset="0"
       spacing="0"
       scale_y_rel="false"
       prop_scale="0.4"
       copytype="single_stretched"
       pattern="m -7.5624998,552.36217 0,10 10,-5 z"
       is_visible="true"
       id="path-effect8274"
       effect="skeletal" />
    <inkscape:path-effect
       effect="skeletal"
       id="path-effect8271"
       is_visible="true"
       pattern="m -7.5624998,552.36217 0,10 10,-5 z"
       copytype="single_stretched"
       prop_scale="0.4"
       scale_y_rel="false"
       spacing="0"
       normal_offset="0"
       tang_offset="0"
       prop_units="false"
       vertical_pattern="false"
       fuse_tolerance="0" />
    <inkscape:path-effect
       effect="skeletal"
       id="path-effect4594"
       is_visible="true"
       pattern="m -7.5624998,552.36217 0,10 10,-5 z"
       copytype="single_stretched"
       prop_scale="0.4"
       scale_y_rel="false"
       spacing="0"
       normal_offset="0"
       tang_offset="0"
       prop_units="false"
       vertical_pattern="false"
       fuse_tolerance="0" />
    <inkscape:path-effect
       effect="skeletal"
       id="path-effect4590"
       is_visible="true"
       pattern="m -4.9374999,552.42467 0,10 10,-5 z"
       copytype="single_stretched"
       prop_scale="0.4"
       scale_y_rel="false"
       spacing="0"
       normal_offset="0"
       tang_offset="0"
       prop_units="false"
       vertical_pattern="false"
       fuse_tolerance="0" />
    <inkscape:path-effect
       effect="skeletal"
       id="path-effect4586"
       is_visible="true"
       pattern="m -0.1875,552.42467 0,10 10,-5 z"
       copytype="single_stretched"
       prop_scale="0.4"
       scale_y_rel="false"
       spacing="0"
       normal_offset="0"
       tang_offset="0"
       prop_units="false"
       vertical_pattern="false"
       fuse_tolerance="0" />
    <inkscape:path-effect
       effect="skeletal"
       id="path-effect4582"
       is_visible="true"
       pattern="m 26.624999,552.29967 0,10 10,-5 z"
       copytype="single_stretched"
       prop_scale="0.4"
       scale_y_rel="false"
       spacing="0"
       normal_offset="0"
       tang_offset="0"
       prop_units="false"
       vertical_pattern="false"
       fuse_tolerance="0" />
    <inkscape:path-effect
       effect="skeletal"
       id="path-effect4578"
       is_visible="true"
       pattern="m 21.874999,552.67467 0,10 10,-5 z"
       copytype="single_stretched"
       prop_scale="0.4"
       scale_y_rel="false"
       spacing="0"
       normal_offset="0"
       tang_offset="0"
       prop_units="false"
       vertical_pattern="false"
       fuse_tolerance="0" />
    <inkscape:path-effect
       effect="skeletal"
       id="path-effect4574"
       is_visible="true"
       pattern="m 14.125,552.61217 0,10 10,-5 z"
       copytype="single_stretched"
       prop_scale="0.4"
       scale_y_rel="false"
       spacing="0"
       normal_offset="0"
       tang_offset="0"
       prop_units="false"
       vertical_pattern="false"
       fuse_tolerance="0" />
    <inkscape:path-effect
       effect="skeletal"
       id="path-effect4570"
       is_visible="true"
       pattern="m 18.0625,552.73717 0,10 10,-5 z"
       copytype="single_stretched"
       prop_scale="0.4"
       scale_y_rel="false"
       spacing="0"
       normal_offset="0"
       tang_offset="0"
       prop_units="false"
       vertical_pattern="false"
       fuse_tolerance="0" />
    <inkscape:path-effect
       effect="skeletal"
       id="path-effect4566"
       is_visible="true"
       pattern="m 9.8749998,552.48717 0,10 10.0000002,-5 z"
       copytype="single_stretched"
       prop_scale="0.4"
       scale_y_rel="false"
       spacing="0"
       normal_offset="0"
       tang_offset="0"
       prop_units="false"
       vertical_pattern="false"
       fuse_tolerance="0" />
    <inkscape:path-effect
       effect="skeletal"
       id="path-effect4562"
       is_visible="true"
       pattern="m 4.4999999,552.29967 0,10 10.0000001,-5 z"
       copytype="single_stretched"
       prop_scale="0.4"
       scale_y_rel="false"
       spacing="0"
       normal_offset="0"
       tang_offset="0"
       prop_units="false"
       vertical_pattern="false"
       fuse_tolerance="0" />
    <inkscape:path-effect
       fuse_tolerance="0"
       vertical_pattern="false"
       prop_units="false"
       tang_offset="0"
       normal_offset="0"
       spacing="0"
       scale_y_rel="false"
       prop_scale="1"
       copytype="single_stretched"
       pattern="M 0,0 0,10 10,5 z"
       is_visible="true"
       id="path-effect4546"
       effect="skeletal" />
    <inkscape:path-effect
       fuse_tolerance="0"
       vertical_pattern="false"
       prop_units="false"
       tang_offset="0"
       normal_offset="0"
       spacing="0"
       scale_y_rel="false"
       prop_scale="1"
       copytype="single_stretched"
       pattern="M 0,0 0,10 10,5 z"
       is_visible="true"
       id="path-effect4542"
       effect="skeletal" />
    <inkscape:path-effect
       fuse_tolerance="0"
       vertical_pattern="false"
       prop_units="false"
       tang_offset="0"
       normal_offset="0"
       spacing="0"
       scale_y_rel="false"
       prop_scale="1"
       copytype="single_stretched"
       pattern="M 0,0 0,10 10,5 z"
       is_visible="true"
       id="path-effect4538"
       effect="skeletal" />
    <inkscape:path-effect
       fuse_tolerance="0"
       vertical_pattern="false"
       prop_units="false"
       tang_offset="0"
       normal_offset="0"
       spacing="0"
       scale_y_rel="false"
       prop_scale="0.4"
       copytype="single_stretched"
       pattern="m -7.5624998,552.36217 0,10 10,-5 z"
       is_visible="true"
       id="path-effect4534"
       effect="skeletal" />
    <inkscape:path-effect
       fuse_tolerance="0"
       vertical_pattern="false"
       prop_units="false"
       tang_offset="0"
       normal_offset="0"
       spacing="0"
       scale_y_rel="false"
       prop_scale="1"
       copytype="single_stretched"
       pattern="m 0,552.36217 0,10 10,-5 z"
       is_visible="true"
       id="path-effect4220"
       effect="skeletal" />
    <inkscape:path-effect
       fuse_tolerance="0"
       vertical_pattern="false"
       prop_units="false"
       tang_offset="0"
       normal_offset="0"
       spacing="0"
       scale_y_rel="false"
       prop_scale="1"
       copytype="single_stretched"
       pattern="M 0,5 10,10 10,0 z"
       is_visible="true"
       id="path-effect6242"
       effect="skeletal" />
    <inkscape:path-effect
       fuse_tolerance="0"
       vertical_pattern="false"
       prop_units="false"
       tang_offset="0"
       normal_offset="0"
       spacing="0"
       scale_y_rel="false"
       prop_scale="1"
       copytype="single_stretched"
       pattern="M 0,5 10,10 10,0 z"
       is_visible="true"
       id="path-effect6238"
       effect="skeletal" />
    <inkscape:path-effect
       fuse_tolerance="0"
       vertical_pattern="false"
       prop_units="false"
       tang_offset="0"
       normal_offset="0"
       spacing="0"
       scale_y_rel="false"
       prop_scale="1"
       copytype="single_stretched"
       pattern="M 0,0 0,10 10,5 z"
       is_visible="true"
       id="path-effect6234"
       effect="skeletal" />
    <inkscape:path-effect
       fuse_tolerance="0"
       vertical_pattern="false"
       prop_units="false"
       tang_offset="0"
       normal_offset="0"
       spacing="0"
       scale_y_rel="false"
       prop_scale="1"
       copytype="single_stretched"
       pattern="M 0,0 0,10 10,5 z"
       is_visible="true"
       id="path-effect6230"
       effect="skeletal" />
    <inkscape:path-effect
       effect="skeletal"
       id="path-effect4562-4"
       is_visible="true"
       pattern="m 4.4999999,552.29967 0,10 10.0000001,-5 z"
       copytype="single_stretched"
       prop_scale="0.4"
       scale_y_rel="false"
       spacing="0"
       normal_offset="0"
       tang_offset="0"
       prop_units="false"
       vertical_pattern="false"
       fuse_tolerance="0" />
    <inkscape:path-effect
       effect="skeletal"
       id="path-effect4566-8"
       is_visible="true"
       pattern="m 9.8749998,552.48717 0,10 10.0000002,-5 z"
       copytype="single_stretched"
       prop_scale="0.4"
       scale_y_rel="false"
       spacing="0"
       normal_offset="0"
       tang_offset="0"
       prop_units="false"
       vertical_pattern="false"
       fuse_tolerance="0" />
    <inkscape:path-effect
       effect="skeletal"
       id="path-effect4570-7"
       is_visible="true"
       pattern="m 18.0625,552.73717 0,10 10,-5 z"
       copytype="single_stretched"
       prop_scale="0.4"
       scale_y_rel="false"
       spacing="0"
       normal_offset="0"
       tang_offset="0"
       prop_units="false"
       vertical_pattern="false"
       fuse_tolerance="0" />
    <inkscape:path-effect
       effect="skeletal"
       id="path-effect4574-0"
       is_visible="true"
       pattern="m 14.125,552.61217 0,10 10,-5 z"
       copytype="single_stretched"
       prop_scale="0.4"
       scale_y_rel="false"
       spacing="0"
       normal_offset="0"
       tang_offset="0"
       prop_units="false"
       vertical_pattern="false"
       fuse_tolerance="0" />
    <inkscape:path-effect
       effect="skeletal"
       id="path-effect4578-2"
       is_visible="true"
       pattern="m 21.874999,552.67467 0,10 10,-5 z"
       copytype="single_stretched"
       prop_scale="0.4"
       scale_y_rel="false"
       spacing="0"
       normal_offset="0"
       tang_offset="0"
       prop_units="false"
       vertical_pattern="false"
       fuse_tolerance="0" />
    <inkscape:path-effect
       effect="skeletal"
       id="path-effect4582-5"
       is_visible="true"
       pattern="m 26.624999,552.29967 0,10 10,-5 z"
       copytype="single_stretched"
       prop_scale="0.4"
       scale_y_rel="false"
       spacing="0"
       normal_offset="0"
       tang_offset="0"
       prop_units="false"
       vertical_pattern="false"
       fuse_tolerance="0" />
    <inkscape:path-effect
       effect="skeletal"
       id="path-effect4586-5"
       is_visible="true"
       pattern="m -0.1875,552.42467 0,10 10,-5 z"
       copytype="single_stretched"
       prop_scale="0.4"
       scale_y_rel="false"
       spacing="0"
       normal_offset="0"
       tang_offset="0"
       prop_units="false"
       vertical_pattern="false"
       fuse_tolerance="0" />
    <inkscape:path-effect
       effect="skeletal"
       id="path-effect4590-6"
       is_visible="true"
       pattern="m -4.9374999,552.42467 0,10 10,-5 z"
       copytype="single_stretched"
       prop_scale="0.4"
       scale_y_rel="false"
       spacing="0"
       normal_offset="0"
       tang_offset="0"
       prop_units="false"
       vertical_pattern="false"
       fuse_tolerance="0" />
    <inkscape:path-effect
       effect="skeletal"
       id="path-effect4594-6"
       is_visible="true"
       pattern="m -7.5624998,552.36217 0,10 10,-5 z"
       copytype="single_stretched"
       prop_scale="0.4"
       scale_y_rel="false"
       spacing="0"
       normal_offset="0"
       tang_offset="0"
       prop_units="false"
       vertical_pattern="false"
       fuse_tolerance="0" />
    <inkscape:path-effect
       fuse_tolerance="0"
       vertical_pattern="false"
       prop_units="false"
       tang_offset="0"
       normal_offset="0"
       spacing="0"
       scale_y_rel="false"
       prop_scale="0.4"
       copytype="single_stretched"
       pattern="m -7.5624998,552.36217 0,10 10,-5 z"
       is_visible="true"
       id="path-effect4534-2"
       effect="skeletal" />
    <inkscape:path-effect
       fuse_tolerance="0"
       vertical_pattern="false"
       prop_units="false"
       tang_offset="0"
       normal_offset="0"
       spacing="0"
       scale_y_rel="false"
       prop_scale="0.4"
       copytype="single_stretched"
       pattern="m 4.4999999,552.29967 0,10 10.0000001,-5 z"
       is_visible="true"
       id="path-effect8298-7"
       effect="skeletal" />
    <inkscape:path-effect
       fuse_tolerance="0"
       vertical_pattern="false"
       prop_units="false"
       tang_offset="0"
       normal_offset="0"
       spacing="0"
       scale_y_rel="false"
       prop_scale="0.4"
       copytype="single_stretched"
       pattern="m 9.8749998,552.48717 0,10 10.0000002,-5 z"
       is_visible="true"
       id="path-effect8295-2"
       effect="skeletal" />
    <inkscape:path-effect
       fuse_tolerance="0"
       vertical_pattern="false"
       prop_units="false"
       tang_offset="0"
       normal_offset="0"
       spacing="0"
       scale_y_rel="false"
       prop_scale="0.4"
       copytype="single_stretched"
       pattern="m 18.0625,552.73717 0,10 10,-5 z"
       is_visible="true"
       id="path-effect8292-1"
       effect="skeletal" />
    <inkscape:path-effect
       fuse_tolerance="0"
       vertical_pattern="false"
       prop_units="false"
       tang_offset="0"
       normal_offset="0"
       spacing="0"
       scale_y_rel="false"
       prop_scale="0.4"
       copytype="single_stretched"
       pattern="m 14.125,552.61217 0,10 10,-5 z"
       is_visible="true"
       id="path-effect8289-8"
       effect="skeletal" />
    <inkscape:path-effect
       fuse_tolerance="0"
       vertical_pattern="false"
       prop_units="false"
       tang_offset="0"
       normal_offset="0"
       spacing="0"
       scale_y_rel="false"
       prop_scale="0.4"
       copytype="single_stretched"
       pattern="m 21.874999,552.67467 0,10 10,-5 z"
       is_visible="true"
       id="path-effect8286-7"
       effect="skeletal" />
    <inkscape:path-effect
       fuse_tolerance="0"
       vertical_pattern="false"
       prop_units="false"
       tang_offset="0"
       normal_offset="0"
       spacing="0"
       scale_y_rel="false"
       prop_scale="0.4"
       copytype="single_stretched"
       pattern="m 26.624999,552.29967 0,10 10,-5 z"
       is_visible="true"
       id="path-effect8283-9"
       effect="skeletal" />
    <inkscape:path-effect
       fuse_tolerance="0"
       vertical_pattern="false"
       prop_units="false"
       tang_offset="0"
       normal_offset="0"
       spacing="0"
       scale_y_rel="false"
       prop_scale="0.4"
       copytype="single_stretched"
       pattern="m -0.1875,552.42467 0,10 10,-5 z"
       is_visible="true"
       id="path-effect8280-8"
       effect="skeletal" />
    <inkscape:path-effect
       fuse_tolerance="0"
       vertical_pattern="false"
       prop_units="false"
       tang_offset="0"
       normal_offset="0"
       spacing="0"
       scale_y_rel="false"
       prop_scale="0.4"
       copytype="single_stretched"
       pattern="m -4.9374999,552.42467 0,10 10,-5 z"
       is_visible="true"
       id="path-effect8277-1"
       effect="skeletal" />
    <inkscape:path-effect
       fuse_tolerance="0"
       vertical_pattern="false"
       prop_units="false"
       tang_offset="0"
       normal_offset="0"
       spacing="0"
       scale_y_rel="false"
       prop_scale="0.4"
       copytype="single_stretched"
       pattern="m -7.5624998,552.36217 0,10 10,-5 z"
       is_visible="true"
       id="path-effect8274-8"
       effect="skeletal" />
    <inkscape:path-effect
       effect="skeletal"
       id="path-effect8271-0"
       is_visible="true"
       pattern="m -7.5624998,552.36217 0,10 10,-5 z"
       copytype="single_stretched"
       prop_scale="0.4"
       scale_y_rel="false"
       spacing="0"
       normal_offset="0"
       tang_offset="0"
       prop_units="false"
       vertical_pattern="false"
       fuse_tolerance="0" />
  </defs>
  <metadata
     id="metadata7">
    <rdf:RDF>
      <cc:Work
         rdf:about="">
        <dc:format>image/svg+xml</dc:format>
        <dc:type
           rdf:resource="http://purl.org/dc/dcmitype/StillImage" />
        <dc:title></dc:title>
      </cc:Work>
    </rdf:RDF>
  </metadata>
  <g
     inkscape:label="Ebene 1"
     inkscape:groupmode="layer"
     id="layer1"
     transform="translate(0,-692.36217)">
    <path
       sodipodi:nodetypes="ccccsccsssccc"
       style="fill:#ac9d93;fill-opacity:1;stroke:none"
       d="m 4.9497473,985.20457 c 4.9999999,-14.5 11.7808557,-26.0112 11.7808557,-26.0112 l 27.964174,-61.74268 c 10.5,-19 22.172753,-52.93093 31.672753,-69.93093 50.20458,1.41422 248.71565,-2.32094 455.02158,0.84571 135.63227,2.08186 271.42951,-3.25226 283.76286,-2.25992 0,0 -4.4896,37.85102 -4.31803,56.7358 0,0 -7.70807,28.25775 -12.43503,40.98446 -4.92812,13.2683 -11.30511,28.86582 -16.55635,42.00959 -4.42304,11.0708 -10.13757,26.02548 -14.43502,37.1456 -4.92256,12.7377 -16.24874,47.4542 -16.24874,47.4542 -21.5,-1.25 -625.25458,-6.7271 -735.563238,-2.4844 -1.5,-19.5 -10.6458147,-62.74623 -10.6458147,-62.74623 z"
       id="path10387"
       inkscape:connector-curvature="0" />
    <path
       style="fill:#978477;fill-opacity:1;stroke:none"
       d="m 814.09375,826.64372 -15.59375,43 -14.5625,40.53125 -15.09375,42.75 -13.03125,40.53125 c 4e-4,0 0.125,0 0.125,0 -2.74844,17.24018 -5.43315,38.69378 -4.6875,56.68748 0.27736,-0.8493 11.29532,-34.578 16.15625,-47.1562 4.29745,-11.12018 10.01446,-26.08548 14.4375,-37.15628 5.25124,-13.14377 11.63438,-28.7317 16.5625,-42 4.72696,-12.72671 12.4375,-41 12.4375,-41 -0.15987,-17.59718 3.59416,-50.46779 4.125,-55.03125 -0.33703,-0.5391 -0.63915,-0.94081 -0.875,-1.15625 z M 751.25,1050.175 l -3.03125,0.1562 c 1.0579,0.03 2.4815,0.067 2.9375,0.094 0,0 0.0909,-0.2412 0.0937,-0.25 z"
       id="path11497"
       inkscape:connector-curvature="0" />
    <path
       style="fill:#c7bdb6;fill-opacity:1;stroke:none"
       d="M 5.21875,985.42497 5.125,986.08122 c 0.5340275,2.53672 9.015269,42.97978 10.46875,61.87498 107.53937,-4.1361 684.49285,0.9581 732.625,2.375 l 3.03125,-0.1562 c -4.3e-4,-0.01 4.2e-4,-0.021 0,-0.031 0.99699,-20.615 5.47459,-36.9724 4.6875,-56.68753 0,0 -75.4203,-0.1053 -105.5,-0.5 -31.20945,-0.40952 -62.35295,-2.56707 -93.5625,-2.96875 -30.74954,-0.39577 -58.68546,0.506 -89.4375,0.5625 -30.37918,0.0558 -63.59182,2.2803 -93.96875,1.90625 -30.88379,-0.3803 -68.11628,-3.08286 -99,-3.46875 -30.23754,-0.37781 -60.47965,-2.15523 -90.71875,-2.375 -30.90265,-0.2246 -55.44335,0.74773 -86.34375,0.3125 -30.736765,-0.43292 -92.1875,-1.5 -92.1875,-1.5 z"
       id="path11492"
       inkscape:connector-curvature="0"
       sodipodi:nodetypes="cccccccssssssscc" />
    <path
       inkscape:connector-curvature="0"
       id="path11505"
       d="m 4.9497473,985.20457 c 4.9999999,-14.5 11.7808557,-26.0112 11.7808557,-26.0112 l 27.964174,-61.74268 c 10.5,-19 22.172753,-52.93093 31.672753,-69.93093 50.20458,1.41422 248.71565,-2.32094 455.02158,0.84571 135.63227,2.08186 271.42951,-3.25226 283.76286,-2.25992 0,0 -4.4896,37.85102 -4.31803,56.7358 0,0 -7.70807,28.25775 -12.43503,40.98446 -4.92812,13.2683 -11.30511,28.86582 -16.55635,42.00959 -4.42304,11.0708 -10.13757,26.02548 -14.43502,37.1456 -4.92256,12.7377 -16.24874,47.4542 -16.24874,47.4542 -21.5,-1.25 -625.25458,-6.7271 -735.563238,-2.4844 -1.5,-19.5 -10.6458147,-62.74623 -10.6458147,-62.74623 z"
       style="fill:none;stroke:#000000;stroke-width:2;stroke-linecap:butt;stroke-linejoin:miter;stroke-miterlimit:4;stroke-dasharray:none;stroke-opacity:1"
       sodipodi:nodetypes="ccccsccsssccc" />
    <path
       sodipodi:nodetypes="cssssssscc"
       style="fill:none;stroke:#000000;stroke-width:2;stroke-linecap:butt;stroke-linejoin:miter;stroke-miterlimit:4;stroke-dasharray:none;stroke-opacity:1"
       d="m 5.2059821,985.41554 c 0,0 61.4702639,1.08003 92.2070289,1.51295 30.900399,0.43523 55.437359,-0.54845 86.340009,-0.32385 30.2391,0.21977 60.4818,1.99518 90.71934,2.37299 30.88372,0.38589 68.11571,3.09205 98.9995,3.47235 30.37693,0.37405 63.58668,-1.84563 93.96586,-1.90148 30.75204,-0.0565 58.67658,-0.95752 89.42612,-0.56175 31.20955,0.40168 62.37954,2.57032 93.58899,2.97984 30.0797,0.3947 105.49547,0.49579 105.49547,0.49579 0.43198,18.66422 -3.05393,38.30452 -4.71078,56.70102"
       id="path10389"
       inkscape:connector-curvature="0" />
    <path
       sodipodi:nodetypes="ccccc"
       style="fill:none;stroke:#000000;stroke-width:2;stroke-linecap:butt;stroke-linejoin:miter;stroke-miterlimit:4;stroke-dasharray:none;stroke-opacity:1"
       d="m 755.75499,993.68985 13.08407,-40.76349 15.08408,-42.76349 14.58407,-40.5135 15.58408,-43.01349"
       id="path10391"
       inkscape:connector-curvature="0" />
    <path
       id="path6322"
       d="m 129.01845,900.85912 c -9.14187,0.0432 -18.22682,1.17241 -27.36694,1.31137 -9.245952,0.14058 -18.489978,-0.49478 -27.737878,-0.48795 -8.658777,0.006 -22.68954,0.12589 -31.340619,0.48795 -4.602013,0.1926 -4.024387,0.60573 -5.582089,3.66889 -10.052226,22.64908 -13.131345,31.27605 -19.248288,42.30702 -0.902619,2.6091 -3.292525,5.3177 2.055348,5.564 9.557203,-0.0423 19.087564,0.76496 28.644613,0.82342 9.095446,0.0556 18.190082,-0.3117 27.284509,-0.42696 9.018804,-0.11429 18.01723,-0.31146 27.037214,-0.27447 9.12052,0.0375 18.24645,0.52816 27.36694,0.48795 8.90658,-0.0393 17.80079,-0.72192 26.70749,-0.70143 9.22376,0.0212 18.43643,0.63484 27.65545,0.85391 8.75601,0.20808 17.49587,0.57348 26.25414,0.42696 9.06418,-0.15164 18.09434,-1.34089 27.16087,-1.34186 9.13026,-9.8e-4 18.19546,1.33893 27.32571,1.34186 9.16233,0.003 18.24583,-1.33698 27.40815,-1.34186 9.11283,-0.005 18.17624,1.09779 27.28452,1.31136 8.83224,0.2071 17.66476,-0.0207 26.50142,-0.0304 9.04046,-0.0101 18.12429,0.16629 27.16085,-0.0305 9.37888,-0.20426 18.68472,-1.21319 28.06761,-1.18938 8.85357,0.0224 17.65252,1.03657 26.50141,1.25037 9.19121,0.22207 18.42285,0.24831 27.61423,0.0304 9.14343,-0.21668 18.22113,-1.15953 27.36694,-1.31137 8.68065,-0.14412 17.36607,0.30609 26.04806,0.39646 9.65773,0.10053 19.31784,8.6e-4 28.97433,0.15249 8.59896,0.13501 17.20046,0.7451 25.80076,0.67093 9.09665,-0.0784 18.1461,-1.13019 27.2433,-1.15888 8.97705,-0.0284 17.93643,0.97395 26.91357,0.9759 9.44393,0.002 18.82973,-1.04178 28.27367,-1.0369 8.6975,0.004 17.35099,0.91218 26.04806,0.9759 9.05852,0.0664 18.14491,-0.4769 27.20207,-0.60993 9.12174,-0.134 18.24517,-0.31551 27.36695,-0.18299 9.48124,0.13775 41.77859,0.0341 41.77859,0.0341 1.59318,-0.0385 2.96716,-0.046 4.17589,-3.41659 3.6502,-10.17862 12.52667,-35.22801 16.74392,-45.36283 1.18179,-2.84007 -1.75693,-3.43833 -2.67327,-3.47165 0,0 -10.0016,-0.009 -19.07036,0.12819 -8.65618,0.13131 -31.30761,0.47819 -39.96561,0.48795 -8.88526,0.01 -17.73983,-0.4575 -26.62507,-0.45746 -9.28135,5e-5 -18.58019,0.4982 -27.86153,0.48795 -9.45784,-0.0104 -18.90155,-0.36391 -28.35611,-0.54894 -8.51371,-0.16662 -17.03701,-0.56715 -25.55344,-0.51845 -9.10036,0.052 -18.18396,0.88134 -27.28452,0.85391 -9.45194,-0.0285 -18.86439,-0.94187 -28.31489,-1.06739 -8.64694,-0.11483 -17.2794,0.12712 -25.9244,0.30497 -9.14055,0.18806 -18.2649,0.73217 -27.40817,0.82342 -8.98285,0.0897 -17.97115,-0.29897 -26.95479,-0.27447 -9.39598,0.0257 -18.7952,0.42012 -28.19124,0.42695 -9.31164,0.007 -18.59108,-0.39701 -27.90274,-0.39646 -8.86436,5.4e-4 -17.76296,0.54503 -26.62507,0.39646 -8.87046,-0.1487 -17.67122,-1.16568 -26.54262,-1.28087 -9.51494,-0.12355 -19.00533,0.52084 -28.52097,0.60994 -8.45283,0.0792 -16.93523,-0.0939 -25.38861,-0.061 -9.085,0.0353 -18.15947,0.18997 -27.24329,0.30497 -9.46518,0.11983 -18.93101,0.3459 -28.39731,0.39646 -8.77246,0.0468 -17.52717,0.11628 -26.29535,-0.0915 -9.18887,-0.21774 -18.33834,-1.18494 -27.53182,-1.21987 -8.87776,-0.0338 -17.75035,0.7997 -26.62505,0.9759 -9.09066,0.1805 -18.193,0.24699 -27.2845,0.0914 -9.39237,-0.16064 -18.75536,-1.1118 -28.15004,-1.06738 z"
       style="fill:#d9b399;fill-opacity:1;stroke:#000000;stroke-width:2;stroke-linecap:butt;stroke-linejoin:miter;stroke-miterlimit:4;stroke-dasharray:none;stroke-opacity:1"
       inkscape:connector-curvature="0"
       sodipodi:nodetypes="cscscccsscsssssscscssscsssssscssscsscssssssssssscsssssssssscsc" />
    <path
       style="fill:none;stroke:#917d6f;stroke-width:4;stroke-linecap:round;stroke-linejoin:round;stroke-miterlimit:4;stroke-dasharray:none;stroke-dashoffset:0;stroke-opacity:1"
       d="m 52.953138,926.30672 38.269791,1.29764 c 0,0 28.338901,-1.44811 42.521981,-1.55717 11.10514,-0.0854 26.22191,0.70711 33.3089,0.70711 7.087,0 47.48289,0.331 47.48289,0.331 0,0 42.88988,1.06066 62.37196,0.70711 16.29741,-0.29576 51.36881,-1.17966 69.08628,-1.20363 17.45768,-0.0236 55.50576,0.9425 89.65611,1.27511 5.30445,0.0517 91.77227,-4.81861 110.56796,0.3033 9.94209,2.70926 46.99762,1.04419 51.95852,0.52513 4.9609,-0.51906 40.87037,-1.60702 46.53997,-1.60702 5.66959,0 24.80449,0 41.10458,0 16.3001,0 52.44379,-1.55718 52.44379,-1.55718 l 14.88271,0.51907"
       id="path4800"
       inkscape:connector-curvature="0"
       sodipodi:nodetypes="ccsscssssssscc" />
    <g
       id="g13794"
       style="fill:#917d6f;stroke:#917d6f">
      <path
         sodipodi:nodetypes="sssss"
         inkscape:connector-curvature="0"
         id="path13672"
         d="m 45.91236,926.45219 c 0.472756,2.7333 4.46721,4.02968 7.239529,3.93643 2.528942,-0.0851 7.262916,-0.80527 7.622797,-3.30991 0.437081,-3.04194 -4.252622,-4.81811 -7.325762,-4.83368 -3.251026,-0.0165 -8.090647,1.00366 -7.536564,4.20716 z"
         style="fill:#917d6f;stroke:#917d6f;stroke-width:1px;stroke-linecap:butt;stroke-linejoin:miter;stroke-opacity:1" />
      <path
         sodipodi:nodetypes="sssss"
         inkscape:connector-curvature="0"
         id="path13672-4"
         d="m 742.1096,928.0445 c 0.47276,2.7333 4.46721,4.02968 7.23953,3.93643 2.52894,-0.0851 7.26292,-0.80527 7.6228,-3.30991 0.43708,-3.04194 -4.25262,-4.81811 -7.32576,-4.83368 -3.25103,-0.0165 -8.09065,1.00366 -7.53657,4.20716 z"
         style="fill:#917d6f;stroke:#917d6f;stroke-width:1px;stroke-linecap:butt;stroke-linejoin:miter;stroke-opacity:1" />
      <path
         sodipodi:nodetypes="sssss"
         inkscape:connector-curvature="0"
         id="path13672-8"
         d="m 93.076431,927.49529 c 0.472756,2.7333 4.46721,4.02968 7.239529,3.93643 2.52894,-0.0851 7.26292,-0.80527 7.6228,-3.30991 0.43708,-3.04194 -4.25262,-4.81811 -7.32577,-4.83368 -3.251021,-0.0165 -8.090642,1.00366 -7.536559,4.20716 z"
         style="fill:#917d6f;stroke:#917d6f;stroke-width:1px;stroke-linecap:butt;stroke-linejoin:miter;stroke-opacity:1" />
      <path
         sodipodi:nodetypes="sssss"
         inkscape:connector-curvature="0"
         id="path13672-48"
         d="m 142.57643,926.99529 c 0.47276,2.7333 4.46721,4.02968 7.23953,3.93643 2.52894,-0.0851 7.26292,-0.80527 7.6228,-3.30991 0.43708,-3.04194 -4.25263,-4.81811 -7.32577,-4.83368 -3.25102,-0.0165 -8.09064,1.00366 -7.53656,4.20716 z"
         style="fill:#917d6f;stroke:#917d6f;stroke-width:1px;stroke-linecap:butt;stroke-linejoin:miter;stroke-opacity:1" />
      <path
         sodipodi:nodetypes="sssss"
         inkscape:connector-curvature="0"
         id="path13672-3"
         d="m 191.57643,927.49529 c 0.47275,2.7333 4.46721,4.02968 7.23953,3.93643 2.52894,-0.0851 7.26291,-0.80527 7.62279,-3.30991 0.43709,-3.04194 -4.25262,-4.81811 -7.32576,-4.83368 -3.25102,-0.0165 -8.09064,1.00366 -7.53656,4.20716 z"
         style="fill:#917d6f;stroke:#917d6f;stroke-width:1px;stroke-linecap:butt;stroke-linejoin:miter;stroke-opacity:1" />
      <path
         sodipodi:nodetypes="sssss"
         inkscape:connector-curvature="0"
         id="path13672-33"
         d="m 242.57643,928.49529 c 0.47275,2.7333 4.46721,4.02968 7.23953,3.93643 2.52894,-0.0851 7.26291,-0.80527 7.62279,-3.30991 0.43708,-3.04194 -4.25262,-4.81811 -7.32576,-4.83368 -3.25102,-0.0165 -8.09065,1.00366 -7.53656,4.20716 z"
         style="fill:#917d6f;stroke:#917d6f;stroke-width:1px;stroke-linecap:butt;stroke-linejoin:miter;stroke-opacity:1" />
      <path
         sodipodi:nodetypes="sssss"
         inkscape:connector-curvature="0"
         id="path13672-7"
         d="m 291.57643,927.49529 c 0.47275,2.7333 4.46721,4.02968 7.23952,3.93643 2.52895,-0.0851 7.26292,-0.80527 7.6228,-3.30991 0.43708,-3.04194 -4.25262,-4.81811 -7.32576,-4.83368 -3.25103,-0.0165 -8.09065,1.00366 -7.53656,4.20716 z"
         style="fill:#917d6f;stroke:#917d6f;stroke-width:1px;stroke-linecap:butt;stroke-linejoin:miter;stroke-opacity:1" />
      <path
         sodipodi:nodetypes="sssss"
         inkscape:connector-curvature="0"
         id="path13672-6"
         d="m 342.07642,926.99529 c 0.47276,2.7333 4.46721,4.02968 7.23953,3.93643 2.52895,-0.0851 7.26292,-0.80527 7.6228,-3.30991 0.43708,-3.04194 -4.25262,-4.81811 -7.32576,-4.83368 -3.25103,-0.0165 -8.09065,1.00366 -7.53657,4.20716 z"
         style="fill:#917d6f;stroke:#917d6f;stroke-width:1px;stroke-linecap:butt;stroke-linejoin:miter;stroke-opacity:1" />
      <path
         sodipodi:nodetypes="sssss"
         inkscape:connector-curvature="0"
         id="path13672-9"
         d="m 392.07642,927.49529 c 0.47276,2.7333 4.46721,4.02968 7.23953,3.93643 2.52894,-0.0851 7.26292,-0.80527 7.6228,-3.30991 0.43708,-3.04194 -4.25262,-4.81811 -7.32576,-4.83368 -3.25103,-0.0165 -8.09065,1.00366 -7.53657,4.20716 z"
         style="fill:#917d6f;stroke:#917d6f;stroke-width:1px;stroke-linecap:butt;stroke-linejoin:miter;stroke-opacity:1" />
      <path
         sodipodi:nodetypes="sssss"
         inkscape:connector-curvature="0"
         id="path13672-97"
         d="m 441.57642,927.99529 c 0.47276,2.7333 4.46721,4.02968 7.23953,3.93643 2.52894,-0.0851 7.26292,-0.80527 7.6228,-3.30991 0.43708,-3.04194 -4.25262,-4.81811 -7.32576,-4.83368 -3.25103,-0.0165 -8.09065,1.00366 -7.53657,4.20716 z"
         style="fill:#917d6f;stroke:#917d6f;stroke-width:1px;stroke-linecap:butt;stroke-linejoin:miter;stroke-opacity:1" />
      <path
         sodipodi:nodetypes="sssss"
         inkscape:connector-curvature="0"
         id="path13672-93"
         d="m 491.07642,925.99529 c 0.47276,2.7333 4.46721,4.02968 7.23953,3.93643 2.52894,-0.0851 7.26292,-0.80527 7.6228,-3.30991 0.43708,-3.04194 -4.25262,-4.81811 -7.32577,-4.83368 -3.25102,-0.0165 -8.09064,1.00366 -7.53656,4.20716 z"
         style="fill:#917d6f;stroke:#917d6f;stroke-width:1px;stroke-linecap:butt;stroke-linejoin:miter;stroke-opacity:1" />
      <path
         sodipodi:nodetypes="sssss"
         inkscape:connector-curvature="0"
         id="path13672-80"
         d="m 541.57642,928.99529 c 0.47276,2.7333 4.46721,4.02968 7.23953,3.93643 2.52894,-0.0851 7.26291,-0.80527 7.6228,-3.30991 0.43708,-3.04194 -4.25263,-4.81811 -7.32577,-4.83368 -3.25102,-0.0165 -8.09064,1.00366 -7.53656,4.20716 z"
         style="fill:#917d6f;stroke:#917d6f;stroke-width:1px;stroke-linecap:butt;stroke-linejoin:miter;stroke-opacity:1" />
      <path
         sodipodi:nodetypes="sssss"
         inkscape:connector-curvature="0"
         id="path13672-0"
         d="m 590.57642,928.99529 c 0.47275,2.7333 4.46721,4.02968 7.23953,3.93643 2.52894,-0.0851 7.26291,-0.80527 7.62279,-3.30991 0.43709,-3.04194 -4.25262,-4.81811 -7.32576,-4.83368 -3.25102,-0.0165 -8.09064,1.00366 -7.53656,4.20716 z"
         style="fill:#917d6f;stroke:#917d6f;stroke-width:1px;stroke-linecap:butt;stroke-linejoin:miter;stroke-opacity:1" />
      <path
         sodipodi:nodetypes="sssss"
         inkscape:connector-curvature="0"
         id="path13672-486"
         d="m 639.57642,927.99529 c 0.47275,2.7333 4.46721,4.02968 7.23953,3.93643 2.52894,-0.0851 7.26291,-0.80527 7.62279,-3.30991 0.43708,-3.04194 -4.25262,-4.81811 -7.32576,-4.83368 -3.25103,-0.0165 -8.09065,1.00366 -7.53656,4.20716 z"
         style="fill:#917d6f;stroke:#917d6f;stroke-width:1px;stroke-linecap:butt;stroke-linejoin:miter;stroke-opacity:1" />
      <path
         sodipodi:nodetypes="sssss"
         inkscape:connector-curvature="0"
         id="path13672-06"
         d="m 690.07642,927.99529 c 0.47275,2.7333 4.46721,4.02968 7.23952,3.93643 2.52895,-0.0851 7.26292,-0.80527 7.6228,-3.30991 0.43708,-3.04194 -4.25262,-4.81811 -7.32576,-4.83368 -3.25103,-0.0165 -8.09065,1.00366 -7.53656,4.20716 z"
         style="fill:#917d6f;stroke:#917d6f;stroke-width:1px;stroke-linecap:butt;stroke-linejoin:miter;stroke-opacity:1" />
    </g>
    <g
       id="g105632">
      <path
         id="path105581"
         d="m 325.3566,788.85723 -9.5,4.375 0.125,8.875 -4.16797,5.16406 0.0332,8.28321 -6.90625,5.9375 0.35352,15.02539 -8.13281,1.94531 0.17773,8.13086 31.28906,16.79492 26.86914,-19.62305 -0.35351,-7.42382 -8.83789,-7.24805 -0.53125,-9.19336 -4.17188,-3.70899 -0.23047,-10.73632 -5.89062,-3.97266 0,-11.125 -10.125,-1.5 z"
         style="fill:#857266;fill-opacity:1;fill-rule:evenodd;stroke:#38302b;stroke-width:2;stroke-linecap:round;stroke-linejoin:round;stroke-miterlimit:4;stroke-dasharray:none;stroke-opacity:1"
         inkscape:connector-curvature="0" />
      <path
         inkscape:connector-curvature="0"
         id="path105598"
         d="m 326.86011,797.2734 0.70711,12.55115 -0.53034,3.71231 0.70711,8.83883 -1.76777,6.89429 1.94455,13.25825 0.53033,21.38998"
         style="fill:none;fill-rule:evenodd;stroke:#38302b;stroke-width:2;stroke-linecap:round;stroke-linejoin:round;stroke-miterlimit:4;stroke-dasharray:none;stroke-opacity:1" />
      <path
         sodipodi:nodetypes="ccccc"
         inkscape:connector-curvature="0"
         id="path105575"
         d="m 327.03688,778.00474 c -3.90195,6.62643 -8.92233,10.45678 -14.14213,13.78858 l 14.49569,7.07107 12.37437,-8.13173 c -7.54367,-3.41738 -10.44262,-7.99595 -12.72793,-12.72792 z"
         style="fill:#84909e;fill-opacity:1;fill-rule:evenodd;stroke:#383f47;stroke-width:2;stroke-linecap:round;stroke-linejoin:round;stroke-miterlimit:4;stroke-dasharray:none;stroke-opacity:1" />
      <path
         sodipodi:nodetypes="ccccccc"
         inkscape:connector-curvature="0"
         id="path105577"
         d="m 344.6066,804.23223 -17.25,11.5 -20.5,-10.25 c 3.22786,-1.33117 6.71636,-1.70668 9,-6.5 l 11,5.5 8.75,-5.75 c 1.63401,2.97166 5.44113,4.1324 9,5.5 z"
         style="fill:#84909e;fill-opacity:1;fill-rule:evenodd;stroke:#383f47;stroke-width:2;stroke-linecap:round;stroke-linejoin:round;stroke-miterlimit:4;stroke-dasharray:none;stroke-opacity:1" />
      <path
         sodipodi:nodetypes="ccccccc"
         inkscape:connector-curvature="0"
         id="path105579"
         d="m 327.9816,832.85723 22.375,-15.125 c -6.01454,-1.07245 -7.12821,-3.65286 -9,-6 l -14.25,8.5 -15.25,-7.5 c -2.90252,3.40539 -6.35685,6.16701 -11.25,7.25 z"
         style="fill:#84909e;fill-opacity:1;fill-rule:evenodd;stroke:#383f47;stroke-width:2;stroke-linecap:round;stroke-linejoin:round;stroke-miterlimit:4;stroke-dasharray:none;stroke-opacity:1" />
      <path
         inkscape:connector-curvature="0"
         id="path105583"
         d="m 326.86011,778.35829 0.53033,20.32932"
         style="fill:none;fill-rule:evenodd;stroke:#383f47;stroke-width:2;stroke-linecap:round;stroke-linejoin:round;stroke-miterlimit:4;stroke-dasharray:none;stroke-opacity:1" />
      <path
         sodipodi:nodetypes="cc"
         inkscape:connector-curvature="0"
         id="path105585"
         d="m 326.55833,804.56414 c -0.0883,5.42091 -0.0661,8.27444 0.50889,11.04226"
         style="fill:none;fill-rule:evenodd;stroke:#383f47;stroke-width:2;stroke-linecap:round;stroke-linejoin:round;stroke-miterlimit:4;stroke-dasharray:none;stroke-opacity:1" />
      <path
         sodipodi:nodetypes="cc"
         inkscape:connector-curvature="0"
         id="path105587"
         d="m 327.21366,820.25437 c 0.12493,4.27723 0.24811,8.5562 0.69822,12.50825"
         style="fill:none;fill-rule:evenodd;stroke:#383f47;stroke-width:2;stroke-linecap:round;stroke-linejoin:round;stroke-miterlimit:4;stroke-dasharray:none;stroke-opacity:1" />
      <path
         inkscape:connector-curvature="0"
         id="path105620"
         d="m 340.25,855.11217 -0.75,-9.75 3.5,-4 3.5,0 1.25,9"
         style="fill:#502d16;fill-rule:evenodd;stroke:#28170b;stroke-width:1px;stroke-linecap:butt;stroke-linejoin:miter;stroke-opacity:1;fill-opacity:1" />
      <path
         sodipodi:nodetypes="ccccccc"
         inkscape:connector-curvature="0"
         id="path105589"
         d="m 304.76302,827.67899 22.98097,11.84404 18.38478,-13.6118 c 2.31183,4.61364 7.18687,6.98446 13.25825,8.3085 l -31.28947,22.27386 -36.23923,-19.97576 c 4.9272,-1.85142 9.82114,-3.76104 12.9047,-8.83884 z"
         style="fill:#84909e;fill-opacity:1;fill-rule:evenodd;stroke:#383f47;stroke-width:2;stroke-linecap:round;stroke-linejoin:round;stroke-miterlimit:4;stroke-dasharray:none;stroke-opacity:1" />
      <path
         sodipodi:nodetypes="cc"
         inkscape:connector-curvature="0"
         id="path105591"
         d="m 327.74399,839.34625 c 0.38865,8.04642 0.61211,14.27565 0.53033,17.14734"
         style="fill:none;fill-rule:evenodd;stroke:#383f47;stroke-width:2;stroke-linecap:round;stroke-linejoin:round;stroke-miterlimit:4;stroke-dasharray:none;stroke-opacity:1" />
    </g>
    <g
       id="g105662">
      <g
         style="stroke-width:2.54025936;stroke-miterlimit:4;stroke-dasharray:none"
         transform="matrix(0.78732118,0,0,0.78732118,97.496646,173.56341)"
         id="g105565">
        <path
           sodipodi:nodetypes="cccccc"
           style="fill:#857266;fill-opacity:1;fill-rule:evenodd;stroke:#38302b;stroke-width:2.54025936;stroke-linecap:round;stroke-linejoin:round;stroke-miterlimit:4;stroke-dasharray:none;stroke-opacity:1"
           d="m 388.20162,857.2007 65.40738,10.25305 14.12746,-15.9886 -0.74313,-32.41886 -79.14526,9.16303 z"
           id="path105553"
           inkscape:connector-curvature="0" />
        <path
           style="fill:none;fill-rule:evenodd;stroke:#38302b;stroke-width:2.54025936;stroke-linecap:round;stroke-linejoin:round;stroke-miterlimit:4;stroke-dasharray:none;stroke-opacity:1"
           d="m 453.609,867.63052 -1.09099,-33.26435"
           id="path105563"
           inkscape:connector-curvature="0"
           sodipodi:nodetypes="cc" />
        <path
           style="fill:#84909e;fill-opacity:1;fill-rule:evenodd;stroke:#383f47;stroke-width:2.54025936;stroke-linecap:round;stroke-linejoin:round;stroke-miterlimit:4;stroke-dasharray:none;stroke-opacity:1"
           d="m 383.25188,829.26998 69.65001,8.83884 18.19665,-21.25588 -70.88746,-10.70801 z"
           id="path105555"
           inkscape:connector-curvature="0"
           sodipodi:nodetypes="ccccc" />
        <path
           style="fill:none;fill-rule:evenodd;stroke:#383f47;stroke-width:2.54025936;stroke-linecap:round;stroke-linejoin:round;stroke-miterlimit:4;stroke-dasharray:none;stroke-opacity:1"
           d="m 404.28832,811.06197 49.3207,6.01042"
           id="path105561"
           inkscape:connector-curvature="0"
           sodipodi:nodetypes="cc" />
        <path
           style="fill:none;fill-rule:evenodd;stroke:#383f47;stroke-width:2.54025936;stroke-linecap:round;stroke-linejoin:round;stroke-miterlimit:4;stroke-dasharray:none;stroke-opacity:1"
           d="m 383.60544,829.26998 21.03642,-18.03123 -4.39475,-4.26397"
           id="path105559"
           inkscape:connector-curvature="0"
           sodipodi:nodetypes="ccc" />
        <path
           style="fill:none;fill-rule:evenodd;stroke:#383f47;stroke-width:2.54025936;stroke-linecap:round;stroke-linejoin:round;stroke-miterlimit:4;stroke-dasharray:none;stroke-opacity:1"
           d="m 452.72512,838.2856 0.35356,-21.21321 16.87248,0.37959"
           id="path105557"
           inkscape:connector-curvature="0"
           sodipodi:nodetypes="ccc" />
      </g>
      <path
         inkscape:connector-curvature="0"
         id="path105612"
         d="m 417.5,850.86217 -0.25,-11 8.25,1.25 0.25,11.25"
         style="fill:#502d16;fill-rule:evenodd;stroke:#28170b;stroke-width:1px;stroke-linecap:butt;stroke-linejoin:miter;stroke-opacity:1;fill-opacity:1" />
      <path
         inkscape:connector-curvature="0"
         id="path105614"
         d="m 434.5,842.86217 -0.5,6 12.75,1.5 0.5,-7.25 z"
         style="fill:#312720;fill-rule:evenodd;stroke:#483737;stroke-width:1px;stroke-linecap:butt;stroke-linejoin:miter;stroke-opacity:1;fill-opacity:1" />
    </g>
    <path
       style="fill:#a05a2c;fill-rule:evenodd;stroke:#502d16;stroke-width:2;stroke-linecap:round;stroke-linejoin:round;stroke-miterlimit:4;stroke-dasharray:none;stroke-opacity:1"
       d="m 515.30407,828.73965 0.88388,6.71751 4.94975,8.66206 -4.94975,10.25305 -7.95495,7.07107 -15.9099,4.59619 -15.55635,-0.53033 -18.73833,-3.53553 -17.50089,-2.82843 -10.42983,-1.06066 -15.00825,-4.66942 -10.80115,-2.57842 -17.14734,-4.24264 -27.40038,0.7071 -8.66206,3.35876 -14.14214,10.42983 7.07107,5.83363 11.13693,1.41421 23.5113,-0.53033 18.56155,0.17678 7.42463,-1.23744 12.37436,-6.18718 13.61181,1.76776 53.91689,8.66206 16.61701,-3.18198 15.55635,-3.88909 11.66726,-9.01561 5.65686,-10.6066 -0.17678,-7.42462 -2.47488,-8.13173"
       id="path105673"
       inkscape:connector-curvature="0"
       sodipodi:nodetypes="cccccccccccccccccccccccccccccc" />
    <g
       id="g105645"
       transform="translate(-6,7.75)">
      <g
         transform="translate(54.5,1.25)"
         id="g105547">
        <path
           style="fill:#857266;fill-opacity:1;fill-rule:evenodd;stroke:#38302b;stroke-width:2;stroke-linecap:round;stroke-linejoin:round;stroke-miterlimit:4;stroke-dasharray:none;stroke-opacity:1"
           d="m 305.63352,874.50862 38.94454,1.85355 9.34835,-14.79289 0.0607,-24.52512 -49.76781,10.48959 z"
           id="path104999"
           inkscape:connector-curvature="0"
           sodipodi:nodetypes="cccccc" />
        <path
           style="fill:none;fill-rule:evenodd;stroke:#38302b;stroke-width:2;stroke-linecap:round;stroke-linejoin:round;stroke-miterlimit:4;stroke-dasharray:none;stroke-opacity:1"
           d="m 344.40128,876.3925 0,-26.61092"
           id="path105005"
           inkscape:connector-curvature="0"
           sodipodi:nodetypes="cc" />
        <path
           style="fill:#84909e;fill-opacity:1;fill-rule:evenodd;stroke:#383f47;stroke-width:2;stroke-linecap:round;stroke-linejoin:round;stroke-miterlimit:4;stroke-dasharray:none;stroke-opacity:1"
           d="m 301.77997,849.00863 44.27296,2.17677 9.16638,-15.4948 -24.2929,-13.12132 -15.43934,11.5052 z"
           id="path105001"
           inkscape:connector-curvature="0"
           sodipodi:nodetypes="cccccc" />
        <path
           style="fill:none;fill-rule:evenodd;stroke:#383f47;stroke-width:2;stroke-linecap:round;stroke-linejoin:round;stroke-miterlimit:4;stroke-dasharray:none;stroke-opacity:1"
           d="m 302.48707,849.00862 28.23223,-26.34835 15.12653,29.05546"
           id="path105003"
           inkscape:connector-curvature="0"
           sodipodi:nodetypes="ccc" />
      </g>
      <path
         inkscape:connector-curvature="0"
         id="path105616"
         d="m 389.75,862.61217 0.25,8.25 -10,-1 0.25,-8 z"
         style="fill:#312720;fill-opacity:1;fill-rule:evenodd;stroke:#483737;stroke-width:1px;stroke-linecap:butt;stroke-linejoin:miter;stroke-opacity:1" />
      <path
         inkscape:connector-curvature="0"
         id="path105618"
         d="m 374.5,861.61217 0.25,8.25 -9.75,-0.5 -0.75,-8 z"
         style="fill:#312720;fill-opacity:1;fill-rule:evenodd;stroke:#483737;stroke-width:1px;stroke-linecap:butt;stroke-linejoin:miter;stroke-opacity:1" />
    </g>
  </g>
</svg>
