<?xml version="1.0" encoding="UTF-8" standalone="no"?>
<!-- Created with Inkscape (http://www.inkscape.org/) -->

<svg
   xmlns:dc="http://purl.org/dc/elements/1.1/"
   xmlns:cc="http://creativecommons.org/ns#"
   xmlns:rdf="http://www.w3.org/1999/02/22-rdf-syntax-ns#"
   xmlns:svg="http://www.w3.org/2000/svg"
   xmlns="http://www.w3.org/2000/svg"
   xmlns:sodipodi="http://sodipodi.sourceforge.net/DTD/sodipodi-0.dtd"
   xmlns:inkscape="http://www.inkscape.org/namespaces/inkscape"
   inkscape:export-ydpi="90"
   inkscape:export-xdpi="90"
   inkscape:export-filename="/home/micha/Programmieren/git/platformer/images/world/world1.png"
   sodipodi:docname="world1.svg"
   inkscape:version="0.48.3.1 r9886"
   version="1.1"
   id="svg2"
   height="360"
   width="800">
  <sodipodi:namedview
     id="base"
     pagecolor="#000000"
     bordercolor="#666666"
     borderopacity="1.0"
     inkscape:pageopacity="0.0"
     inkscape:pageshadow="2"
     inkscape:zoom="1"
     inkscape:cx="451.61647"
     inkscape:cy="168.94506"
     inkscape:document-units="px"
     inkscape:current-layer="layer1"
     showgrid="false"
     inkscape:showpageshadow="true"
     inkscape:window-width="1280"
     inkscape:window-height="750"
     inkscape:window-x="0"
     inkscape:window-y="25"
     inkscape:window-maximized="1"
     showguides="true"
     inkscape:guide-bbox="true">
    <inkscape:grid
       type="xygrid"
       id="grid2985"
       empspacing="5"
       visible="true"
       enabled="true"
       snapvisiblegridlinesonly="true"
       spacingx="5px"
       spacingy="5px"
       originx="0px"
       originy="0px" />
  </sodipodi:namedview>
  <defs
     id="defs4">
    <inkscape:path-effect
       fuse_tolerance="0"
       vertical_pattern="false"
       prop_units="false"
       tang_offset="0"
       normal_offset="0"
       spacing="0"
       scale_y_rel="false"
       prop_scale="0.4"
       copytype="single_stretched"
       pattern="m 4.4999999,552.29967 0,10 10.0000001,-5 z"
       is_visible="true"
       id="path-effect8298"
       effect="skeletal" />
    <inkscape:path-effect
       fuse_tolerance="0"
       vertical_pattern="false"
       prop_units="false"
       tang_offset="0"
       normal_offset="0"
       spacing="0"
       scale_y_rel="false"
       prop_scale="0.4"
       copytype="single_stretched"
       pattern="m 9.8749998,552.48717 0,10 10.0000002,-5 z"
       is_visible="true"
       id="path-effect8295"
       effect="skeletal" />
    <inkscape:path-effect
       fuse_tolerance="0"
       vertical_pattern="false"
       prop_units="false"
       tang_offset="0"
       normal_offset="0"
       spacing="0"
       scale_y_rel="false"
       prop_scale="0.4"
       copytype="single_stretched"
       pattern="m 18.0625,552.73717 0,10 10,-5 z"
       is_visible="true"
       id="path-effect8292"
       effect="skeletal" />
    <inkscape:path-effect
       fuse_tolerance="0"
       vertical_pattern="false"
       prop_units="false"
       tang_offset="0"
       normal_offset="0"
       spacing="0"
       scale_y_rel="false"
       prop_scale="0.4"
       copytype="single_stretched"
       pattern="m 14.125,552.61217 0,10 10,-5 z"
       is_visible="true"
       id="path-effect8289"
       effect="skeletal" />
    <inkscape:path-effect
       fuse_tolerance="0"
       vertical_pattern="false"
       prop_units="false"
       tang_offset="0"
       normal_offset="0"
       spacing="0"
       scale_y_rel="false"
       prop_scale="0.4"
       copytype="single_stretched"
       pattern="m 21.874999,552.67467 0,10 10,-5 z"
       is_visible="true"
       id="path-effect8286"
       effect="skeletal" />
    <inkscape:path-effect
       fuse_tolerance="0"
       vertical_pattern="false"
       prop_units="false"
       tang_offset="0"
       normal_offset="0"
       spacing="0"
       scale_y_rel="false"
       prop_scale="0.4"
       copytype="single_stretched"
       pattern="m 26.624999,552.29967 0,10 10,-5 z"
       is_visible="true"
       id="path-effect8283"
       effect="skeletal" />
    <inkscape:path-effect
       fuse_tolerance="0"
       vertical_pattern="false"
       prop_units="false"
       tang_offset="0"
       normal_offset="0"
       spacing="0"
       scale_y_rel="false"
       prop_scale="0.4"
       copytype="single_stretched"
       pattern="m -0.1875,552.42467 0,10 10,-5 z"
       is_visible="true"
       id="path-effect8280"
       effect="skeletal" />
    <inkscape:path-effect
       fuse_tolerance="0"
       vertical_pattern="false"
       prop_units="false"
       tang_offset="0"
       normal_offset="0"
       spacing="0"
       scale_y_rel="false"
       prop_scale="0.4"
       copytype="single_stretched"
       pattern="m -4.9374999,552.42467 0,10 10,-5 z"
       is_visible="true"
       id="path-effect8277"
       effect="skeletal" />
    <inkscape:path-effect
       fuse_tolerance="0"
       vertical_pattern="false"
       prop_units="false"
       tang_offset="0"
       normal_offset="0"
       spacing="0"
       scale_y_rel="false"
       prop_scale="0.4"
       copytype="single_stretched"
       pattern="m -7.5624998,552.36217 0,10 10,-5 z"
       is_visible="true"
       id="path-effect8274"
       effect="skeletal" />
    <inkscape:path-effect
       effect="skeletal"
       id="path-effect8271"
       is_visible="true"
       pattern="m -7.5624998,552.36217 0,10 10,-5 z"
       copytype="single_stretched"
       prop_scale="0.4"
       scale_y_rel="false"
       spacing="0"
       normal_offset="0"
       tang_offset="0"
       prop_units="false"
       vertical_pattern="false"
       fuse_tolerance="0" />
    <inkscape:path-effect
       effect="skeletal"
       id="path-effect4594"
       is_visible="true"
       pattern="m -7.5624998,552.36217 0,10 10,-5 z"
       copytype="single_stretched"
       prop_scale="0.4"
       scale_y_rel="false"
       spacing="0"
       normal_offset="0"
       tang_offset="0"
       prop_units="false"
       vertical_pattern="false"
       fuse_tolerance="0" />
    <inkscape:path-effect
       effect="skeletal"
       id="path-effect4590"
       is_visible="true"
       pattern="m -4.9374999,552.42467 0,10 10,-5 z"
       copytype="single_stretched"
       prop_scale="0.4"
       scale_y_rel="false"
       spacing="0"
       normal_offset="0"
       tang_offset="0"
       prop_units="false"
       vertical_pattern="false"
       fuse_tolerance="0" />
    <inkscape:path-effect
       effect="skeletal"
       id="path-effect4586"
       is_visible="true"
       pattern="m -0.1875,552.42467 0,10 10,-5 z"
       copytype="single_stretched"
       prop_scale="0.4"
       scale_y_rel="false"
       spacing="0"
       normal_offset="0"
       tang_offset="0"
       prop_units="false"
       vertical_pattern="false"
       fuse_tolerance="0" />
    <inkscape:path-effect
       effect="skeletal"
       id="path-effect4582"
       is_visible="true"
       pattern="m 26.624999,552.29967 0,10 10,-5 z"
       copytype="single_stretched"
       prop_scale="0.4"
       scale_y_rel="false"
       spacing="0"
       normal_offset="0"
       tang_offset="0"
       prop_units="false"
       vertical_pattern="false"
       fuse_tolerance="0" />
    <inkscape:path-effect
       effect="skeletal"
       id="path-effect4578"
       is_visible="true"
       pattern="m 21.874999,552.67467 0,10 10,-5 z"
       copytype="single_stretched"
       prop_scale="0.4"
       scale_y_rel="false"
       spacing="0"
       normal_offset="0"
       tang_offset="0"
       prop_units="false"
       vertical_pattern="false"
       fuse_tolerance="0" />
    <inkscape:path-effect
       effect="skeletal"
       id="path-effect4574"
       is_visible="true"
       pattern="m 14.125,552.61217 0,10 10,-5 z"
       copytype="single_stretched"
       prop_scale="0.4"
       scale_y_rel="false"
       spacing="0"
       normal_offset="0"
       tang_offset="0"
       prop_units="false"
       vertical_pattern="false"
       fuse_tolerance="0" />
    <inkscape:path-effect
       effect="skeletal"
       id="path-effect4570"
       is_visible="true"
       pattern="m 18.0625,552.73717 0,10 10,-5 z"
       copytype="single_stretched"
       prop_scale="0.4"
       scale_y_rel="false"
       spacing="0"
       normal_offset="0"
       tang_offset="0"
       prop_units="false"
       vertical_pattern="false"
       fuse_tolerance="0" />
    <inkscape:path-effect
       effect="skeletal"
       id="path-effect4566"
       is_visible="true"
       pattern="m 9.8749998,552.48717 0,10 10.0000002,-5 z"
       copytype="single_stretched"
       prop_scale="0.4"
       scale_y_rel="false"
       spacing="0"
       normal_offset="0"
       tang_offset="0"
       prop_units="false"
       vertical_pattern="false"
       fuse_tolerance="0" />
    <inkscape:path-effect
       effect="skeletal"
       id="path-effect4562"
       is_visible="true"
       pattern="m 4.4999999,552.29967 0,10 10.0000001,-5 z"
       copytype="single_stretched"
       prop_scale="0.4"
       scale_y_rel="false"
       spacing="0"
       normal_offset="0"
       tang_offset="0"
       prop_units="false"
       vertical_pattern="false"
       fuse_tolerance="0" />
    <inkscape:path-effect
       fuse_tolerance="0"
       vertical_pattern="false"
       prop_units="false"
       tang_offset="0"
       normal_offset="0"
       spacing="0"
       scale_y_rel="false"
       prop_scale="1"
       copytype="single_stretched"
       pattern="M 0,0 0,10 10,5 z"
       is_visible="true"
       id="path-effect4546"
       effect="skeletal" />
    <inkscape:path-effect
       fuse_tolerance="0"
       vertical_pattern="false"
       prop_units="false"
       tang_offset="0"
       normal_offset="0"
       spacing="0"
       scale_y_rel="false"
       prop_scale="1"
       copytype="single_stretched"
       pattern="M 0,0 0,10 10,5 z"
       is_visible="true"
       id="path-effect4542"
       effect="skeletal" />
    <inkscape:path-effect
       fuse_tolerance="0"
       vertical_pattern="false"
       prop_units="false"
       tang_offset="0"
       normal_offset="0"
       spacing="0"
       scale_y_rel="false"
       prop_scale="1"
       copytype="single_stretched"
       pattern="M 0,0 0,10 10,5 z"
       is_visible="true"
       id="path-effect4538"
       effect="skeletal" />
    <inkscape:path-effect
       fuse_tolerance="0"
       vertical_pattern="false"
       prop_units="false"
       tang_offset="0"
       normal_offset="0"
       spacing="0"
       scale_y_rel="false"
       prop_scale="0.4"
       copytype="single_stretched"
       pattern="m -7.5624998,552.36217 0,10 10,-5 z"
       is_visible="true"
       id="path-effect4534"
       effect="skeletal" />
    <inkscape:path-effect
       fuse_tolerance="0"
       vertical_pattern="false"
       prop_units="false"
       tang_offset="0"
       normal_offset="0"
       spacing="0"
       scale_y_rel="false"
       prop_scale="1"
       copytype="single_stretched"
       pattern="m 0,552.36217 0,10 10,-5 z"
       is_visible="true"
       id="path-effect4220"
       effect="skeletal" />
    <inkscape:path-effect
       fuse_tolerance="0"
       vertical_pattern="false"
       prop_units="false"
       tang_offset="0"
       normal_offset="0"
       spacing="0"
       scale_y_rel="false"
       prop_scale="1"
       copytype="single_stretched"
       pattern="M 0,5 10,10 10,0 z"
       is_visible="true"
       id="path-effect6242"
       effect="skeletal" />
    <inkscape:path-effect
       fuse_tolerance="0"
       vertical_pattern="false"
       prop_units="false"
       tang_offset="0"
       normal_offset="0"
       spacing="0"
       scale_y_rel="false"
       prop_scale="1"
       copytype="single_stretched"
       pattern="M 0,5 10,10 10,0 z"
       is_visible="true"
       id="path-effect6238"
       effect="skeletal" />
    <inkscape:path-effect
       fuse_tolerance="0"
       vertical_pattern="false"
       prop_units="false"
       tang_offset="0"
       normal_offset="0"
       spacing="0"
       scale_y_rel="false"
       prop_scale="1"
       copytype="single_stretched"
       pattern="M 0,0 0,10 10,5 z"
       is_visible="true"
       id="path-effect6234"
       effect="skeletal" />
    <inkscape:path-effect
       fuse_tolerance="0"
       vertical_pattern="false"
       prop_units="false"
       tang_offset="0"
       normal_offset="0"
       spacing="0"
       scale_y_rel="false"
       prop_scale="1"
       copytype="single_stretched"
       pattern="M 0,0 0,10 10,5 z"
       is_visible="true"
       id="path-effect6230"
       effect="skeletal" />
    <inkscape:path-effect
       effect="skeletal"
       id="path-effect4562-4"
       is_visible="true"
       pattern="m 4.4999999,552.29967 0,10 10.0000001,-5 z"
       copytype="single_stretched"
       prop_scale="0.4"
       scale_y_rel="false"
       spacing="0"
       normal_offset="0"
       tang_offset="0"
       prop_units="false"
       vertical_pattern="false"
       fuse_tolerance="0" />
    <inkscape:path-effect
       effect="skeletal"
       id="path-effect4566-8"
       is_visible="true"
       pattern="m 9.8749998,552.48717 0,10 10.0000002,-5 z"
       copytype="single_stretched"
       prop_scale="0.4"
       scale_y_rel="false"
       spacing="0"
       normal_offset="0"
       tang_offset="0"
       prop_units="false"
       vertical_pattern="false"
       fuse_tolerance="0" />
    <inkscape:path-effect
       effect="skeletal"
       id="path-effect4570-7"
       is_visible="true"
       pattern="m 18.0625,552.73717 0,10 10,-5 z"
       copytype="single_stretched"
       prop_scale="0.4"
       scale_y_rel="false"
       spacing="0"
       normal_offset="0"
       tang_offset="0"
       prop_units="false"
       vertical_pattern="false"
       fuse_tolerance="0" />
    <inkscape:path-effect
       effect="skeletal"
       id="path-effect4574-0"
       is_visible="true"
       pattern="m 14.125,552.61217 0,10 10,-5 z"
       copytype="single_stretched"
       prop_scale="0.4"
       scale_y_rel="false"
       spacing="0"
       normal_offset="0"
       tang_offset="0"
       prop_units="false"
       vertical_pattern="false"
       fuse_tolerance="0" />
    <inkscape:path-effect
       effect="skeletal"
       id="path-effect4578-2"
       is_visible="true"
       pattern="m 21.874999,552.67467 0,10 10,-5 z"
       copytype="single_stretched"
       prop_scale="0.4"
       scale_y_rel="false"
       spacing="0"
       normal_offset="0"
       tang_offset="0"
       prop_units="false"
       vertical_pattern="false"
       fuse_tolerance="0" />
    <inkscape:path-effect
       effect="skeletal"
       id="path-effect4582-5"
       is_visible="true"
       pattern="m 26.624999,552.29967 0,10 10,-5 z"
       copytype="single_stretched"
       prop_scale="0.4"
       scale_y_rel="false"
       spacing="0"
       normal_offset="0"
       tang_offset="0"
       prop_units="false"
       vertical_pattern="false"
       fuse_tolerance="0" />
    <inkscape:path-effect
       effect="skeletal"
       id="path-effect4586-5"
       is_visible="true"
       pattern="m -0.1875,552.42467 0,10 10,-5 z"
       copytype="single_stretched"
       prop_scale="0.4"
       scale_y_rel="false"
       spacing="0"
       normal_offset="0"
       tang_offset="0"
       prop_units="false"
       vertical_pattern="false"
       fuse_tolerance="0" />
    <inkscape:path-effect
       effect="skeletal"
       id="path-effect4590-6"
       is_visible="true"
       pattern="m -4.9374999,552.42467 0,10 10,-5 z"
       copytype="single_stretched"
       prop_scale="0.4"
       scale_y_rel="false"
       spacing="0"
       normal_offset="0"
       tang_offset="0"
       prop_units="false"
       vertical_pattern="false"
       fuse_tolerance="0" />
    <inkscape:path-effect
       effect="skeletal"
       id="path-effect4594-6"
       is_visible="true"
       pattern="m -7.5624998,552.36217 0,10 10,-5 z"
       copytype="single_stretched"
       prop_scale="0.4"
       scale_y_rel="false"
       spacing="0"
       normal_offset="0"
       tang_offset="0"
       prop_units="false"
       vertical_pattern="false"
       fuse_tolerance="0" />
    <inkscape:path-effect
       fuse_tolerance="0"
       vertical_pattern="false"
       prop_units="false"
       tang_offset="0"
       normal_offset="0"
       spacing="0"
       scale_y_rel="false"
       prop_scale="0.4"
       copytype="single_stretched"
       pattern="m -7.5624998,552.36217 0,10 10,-5 z"
       is_visible="true"
       id="path-effect4534-2"
       effect="skeletal" />
    <inkscape:path-effect
       fuse_tolerance="0"
       vertical_pattern="false"
       prop_units="false"
       tang_offset="0"
       normal_offset="0"
       spacing="0"
       scale_y_rel="false"
       prop_scale="0.4"
       copytype="single_stretched"
       pattern="m 4.4999999,552.29967 0,10 10.0000001,-5 z"
       is_visible="true"
       id="path-effect8298-7"
       effect="skeletal" />
    <inkscape:path-effect
       fuse_tolerance="0"
       vertical_pattern="false"
       prop_units="false"
       tang_offset="0"
       normal_offset="0"
       spacing="0"
       scale_y_rel="false"
       prop_scale="0.4"
       copytype="single_stretched"
       pattern="m 9.8749998,552.48717 0,10 10.0000002,-5 z"
       is_visible="true"
       id="path-effect8295-2"
       effect="skeletal" />
    <inkscape:path-effect
       fuse_tolerance="0"
       vertical_pattern="false"
       prop_units="false"
       tang_offset="0"
       normal_offset="0"
       spacing="0"
       scale_y_rel="false"
       prop_scale="0.4"
       copytype="single_stretched"
       pattern="m 18.0625,552.73717 0,10 10,-5 z"
       is_visible="true"
       id="path-effect8292-1"
       effect="skeletal" />
    <inkscape:path-effect
       fuse_tolerance="0"
       vertical_pattern="false"
       prop_units="false"
       tang_offset="0"
       normal_offset="0"
       spacing="0"
       scale_y_rel="false"
       prop_scale="0.4"
       copytype="single_stretched"
       pattern="m 14.125,552.61217 0,10 10,-5 z"
       is_visible="true"
       id="path-effect8289-8"
       effect="skeletal" />
    <inkscape:path-effect
       fuse_tolerance="0"
       vertical_pattern="false"
       prop_units="false"
       tang_offset="0"
       normal_offset="0"
       spacing="0"
       scale_y_rel="false"
       prop_scale="0.4"
       copytype="single_stretched"
       pattern="m 21.874999,552.67467 0,10 10,-5 z"
       is_visible="true"
       id="path-effect8286-7"
       effect="skeletal" />
    <inkscape:path-effect
       fuse_tolerance="0"
       vertical_pattern="false"
       prop_units="false"
       tang_offset="0"
       normal_offset="0"
       spacing="0"
       scale_y_rel="false"
       prop_scale="0.4"
       copytype="single_stretched"
       pattern="m 26.624999,552.29967 0,10 10,-5 z"
       is_visible="true"
       id="path-effect8283-9"
       effect="skeletal" />
    <inkscape:path-effect
       fuse_tolerance="0"
       vertical_pattern="false"
       prop_units="false"
       tang_offset="0"
       normal_offset="0"
       spacing="0"
       scale_y_rel="false"
       prop_scale="0.4"
       copytype="single_stretched"
       pattern="m -0.1875,552.42467 0,10 10,-5 z"
       is_visible="true"
       id="path-effect8280-8"
       effect="skeletal" />
    <inkscape:path-effect
       fuse_tolerance="0"
       vertical_pattern="false"
       prop_units="false"
       tang_offset="0"
       normal_offset="0"
       spacing="0"
       scale_y_rel="false"
       prop_scale="0.4"
       copytype="single_stretched"
       pattern="m -4.9374999,552.42467 0,10 10,-5 z"
       is_visible="true"
       id="path-effect8277-1"
       effect="skeletal" />
    <inkscape:path-effect
       fuse_tolerance="0"
       vertical_pattern="false"
       prop_units="false"
       tang_offset="0"
       normal_offset="0"
       spacing="0"
       scale_y_rel="false"
       prop_scale="0.4"
       copytype="single_stretched"
       pattern="m -7.5624998,552.36217 0,10 10,-5 z"
       is_visible="true"
       id="path-effect8274-8"
       effect="skeletal" />
    <inkscape:path-effect
       effect="skeletal"
       id="path-effect8271-0"
       is_visible="true"
       pattern="m -7.5624998,552.36217 0,10 10,-5 z"
       copytype="single_stretched"
       prop_scale="0.4"
       scale_y_rel="false"
       spacing="0"
       normal_offset="0"
       tang_offset="0"
       prop_units="false"
       vertical_pattern="false"
       fuse_tolerance="0" />
  </defs>
  <metadata
     id="metadata7">
    <rdf:RDF>
      <cc:Work
         rdf:about="">
        <dc:format>image/svg+xml</dc:format>
        <dc:type
           rdf:resource="http://purl.org/dc/dcmitype/StillImage" />
        <dc:title />
      </cc:Work>
    </rdf:RDF>
  </metadata>
  <g
     inkscape:label="Ebene 1"
     inkscape:groupmode="layer"
     id="layer1"
     transform="translate(0,-692.36217)">
    <path
       inkscape:connector-curvature="0"
       id="path6533"
       d="m 141.67857,761.76321 c -1.78585,-3.45308 -11.26383,-14.9985 -16.62991,-17.30292 -2.91751,2.61549 -14.71431,13.14961 -16.74651,22.19521 -1.5323,7.02317 -1.15962,30.54096 -0.59756,30.95819 0.67758,0.17574 34.49399,-6.85267 33.99897,-6.61416 -2.05185,0.98863 1.29301,-0.69333 1.37992,-2.53699 0.31517,-6.68621 -0.50269,-23.25277 -1.40491,-26.69933 z"
       style="fill:#1a1a1a;fill-opacity:1;stroke:#000000;stroke-width:2;stroke-miterlimit:4;stroke-opacity:1;stroke-dasharray:none"
       sodipodi:nodetypes="ccccssc" />
    <path
       inkscape:connector-curvature="0"
       id="path6499"
       d="m 118.57514,989.69179 12.1422,31.44591 19.08062,-41.71396 32.09013,2.56701 20.8152,27.59535 13.87682,-21.81957 47.70153,19.89437 32.09013,-26.3119 22.54982,44.9227 23.41712,-47.4897 59.84375,-1.92526 7.8057,44.28096 32.95742,-44.28096 44.23234,49.41496 -4.3365,-55.83249 50.30344,1.2835 3.4692,50.69839 37.29395,-46.84787 31.22282,1.92525 -1.73461,42.35572 26.01903,-35.29643 15.61141,21.17783 26.01901,-34.65464 13.00951,3.20876 21.68252,41.07208 34.16406,-155.85586 -663.203004,33.94113 z"
       style="fill:#1a1a1a;fill-opacity:1;stroke:#000000;stroke-width:2;stroke-linecap:butt;stroke-linejoin:miter;stroke-miterlimit:4;stroke-opacity:1;stroke-dasharray:none"
       sodipodi:nodetypes="cccccccccccccccccccccccccccc" />
    <path
       sodipodi:nodetypes="ccccccccccccccccccccccccccccccccc"
       inkscape:connector-curvature="0"
       id="path6497"
       d="m 73.475496,987.76653 12.14221,31.44587 24.284414,-26.9536 36.42663,17.9691 16.47873,-10.90983 11.2749,21.17783 14.74411,-39.78865 45.09964,3.20876 12.1422,28.23709 14.7441,-28.23709 16.47872,3.20876 9.54032,31.44593 21.68252,-22.46139 35.55932,5.77579 5.20381,26.9536 37.29393,-41.07217 33.82472,0.64175 13.87681,24.38662 1.73461,-32.7294 53.77264,-0.64176 19.0806,26.31186 9.54033,-30.16237 32.09012,4.49227 6.07111,31.4459 9.54031,-12.83507 6.93839,3.20877 24.28441,-24.38662 27.75364,45.56442 1.7346,-44.2809 40.76312,23.7448 18.81035,-129.58583 -633.578653,19.09189 z"
       style="fill:#4d4d4d;stroke:#000000;stroke-width:2;stroke-linecap:butt;stroke-linejoin:miter;stroke-miterlimit:4;stroke-opacity:1;stroke-dasharray:none" />
    <path
       id="path4144"
       d="m 771.84016,769.92483 c -61.50327,5.55911 -166.59186,22.39212 -227.21361,23.5 -49.21233,0.89937 -174.13368,-17.79912 -220.70971,-16.59375 -31.45399,0.81402 -79.08404,15.5579 -106.93397,17.46875 -38.66412,2.65283 -164.131553,-21.16786 -196.087876,-15 -19.91880636,34.0014 1.784964,23.68479 1.900485,54.0625 -3.111484,5.84524 -6.859557,11.47847 -10.009223,17.3125 -3.1960869,5.92001 -9.4183863,11.8793 -9.375729,18.4375 0.038177,5.86947 5.7827121,11.04835 8.615534,16.40625 0.711649,1.34599 2.335785,4.52925 5.531272,11.40386 10.5527,40.04192 37.116209,76.37149 55.626614,108.79916 l 26.294131,-19.88157 22.576152,28.24827 56.3829,-28.24827 44.2324,17.32897 24.26266,-14.74806 60.71415,23.73876 14.75691,-22.46248 15.60017,31.45318 37.29473,-30.1769 21.69457,9.6146 52.01333,-14.09575 19.96974,50.68245 8.6625,-34.0058 8.66249,14.7481 19.08816,-37.21055 26.02582,24.39105 47.68207,-21.18617 52.05165,23.11477 40.78274,-26.97197 32.08191,23.11477 16.1751,-9.5295 c -0.47345,-1.8177 -0.67566,-3.6348 0.0383,-5.36036 4.89171,-7.3387 15.44274,-11.46541 22.30785,-16.70506 3.48973,-2.71312 38.93511,-76.39217 42.5669,-79.52425 4.03475,-3.47963 10.80397,-5.69047 12.66991,-10.0625 2.1864,-5.12286 -1.78951,-10.67152 -2.99855,-15.96875 -1.27134,-5.57027 -2.86201,-11.10364 -4.4767,-16.625 -4.33831,-8.28143 -10.36843,-29.86467 -10.00922,-33.84375 1.97099,-21.83405 2.01398,-24.04259 -8.44658,-45.625 z"
       style="fill:#ac9d93;fill-opacity:1;stroke:#000000;stroke-width:2;stroke-linecap:butt;stroke-linejoin:miter;stroke-miterlimit:4;stroke-opacity:1;stroke-dasharray:none"
       inkscape:connector-curvature="0"
       sodipodi:nodetypes="csssccssscccccccccccccccccccccccccssscscc" />
    <path
       id="path6322"
       d="m 129.01845,842.85882 c -9.14187,0.0432 -18.22682,1.17241 -27.36694,1.31137 -9.245952,0.14058 -18.489978,-0.49478 -27.737878,-0.48795 -8.658777,0.006 -17.307126,0.54035 -25.965619,0.48795 -9.477013,-0.0574 -18.923882,-0.68348 -28.397321,-0.88441 -0.809034,-0.0172 -1.622604,-0.0141 -2.431702,-0.0304 -1.475375,2.46803 -2.974939,4.93575 -4.327603,7.44125 -3.1960877,5.92001 -9.4397391,11.83144 -9.3970817,18.38965 0.038177,5.86946 5.7811736,11.07994 8.6139927,16.43785 1.798099,3.40086 3.553619,6.81285 5.234338,10.24697 0.847381,-0.0159 1.707475,-0.0573 2.555348,-0.061 9.557203,-0.0423 19.087564,0.76496 28.644613,0.82342 9.095446,0.0556 18.190082,-0.3117 27.284509,-0.42696 9.018804,-0.11429 18.01723,-0.31146 27.037214,-0.27447 9.12052,0.0375 18.24645,0.52816 27.36694,0.48795 8.90658,-0.0393 17.80079,-0.72192 26.70749,-0.70143 9.22376,0.0212 18.43643,0.63484 27.65545,0.85391 8.75601,0.20808 17.49587,0.57348 26.25414,0.42696 9.06418,-0.15164 18.09434,-1.34089 27.16087,-1.34186 9.13026,-9.8e-4 18.19546,1.33893 27.32571,1.34186 9.16233,0.003 18.24583,-1.33698 27.40815,-1.34186 9.11283,-0.005 18.17624,1.09779 27.28452,1.31136 8.83224,0.2071 17.66476,-0.0207 26.50142,-0.0304 9.04046,-0.0101 18.12429,0.16629 27.16085,-0.0305 9.37888,-0.20426 18.68472,-1.21319 28.06761,-1.18938 8.85357,0.0224 17.65252,1.03657 26.50141,1.25037 9.19121,0.22207 18.42285,0.24831 27.61423,0.0304 9.14343,-0.21668 18.22113,-1.15953 27.36694,-1.31137 8.68065,-0.14412 17.36607,0.30609 26.04806,0.39646 9.65773,0.10053 19.31784,8.6e-4 28.97433,0.15249 8.59896,0.13501 17.20046,0.7451 25.80076,0.67093 9.09665,-0.0784 18.1461,-1.13019 27.2433,-1.15888 8.97705,-0.0284 17.93643,0.97395 26.91357,0.9759 9.44393,0.002 18.82973,-1.04178 28.27367,-1.0369 8.6975,0.004 17.35099,0.91218 26.04806,0.9759 9.05852,0.0664 18.14491,-0.4769 27.20207,-0.60993 9.12174,-0.134 18.24517,-0.31551 27.36695,-0.18299 9.48124,0.13775 18.91432,1.03763 28.39731,1.0064 8.64061,-0.0284 17.24377,-1.01215 25.8832,-1.09789 1.23414,-1.2356 2.48359,-2.46537 3.83302,-3.62913 4.03474,-3.47963 10.78713,-5.69196 12.65308,-10.06399 2.18639,-5.12286 -1.79968,-10.68316 -3.00872,-15.98039 -1.27133,-5.57027 -2.87776,-11.09947 -4.49246,-16.62083 -0.59458,-2.03314 -1.24412,-4.04526 -1.89589,-6.06889 -2.40319,0.0181 -4.80955,0.0411 -7.21268,0.061 -9.07007,0.0751 -18.13333,0.16738 -27.20209,0.30497 -8.65618,0.13131 -17.30761,0.47819 -25.96561,0.48795 -8.88526,0.01 -17.73983,-0.4575 -26.62507,-0.45746 -9.28135,5e-5 -18.58019,0.4982 -27.86153,0.48795 -9.45784,-0.0104 -18.90155,-0.36391 -28.35611,-0.54894 -8.51371,-0.16662 -17.03701,-0.56715 -25.55344,-0.51845 -9.10036,0.052 -18.18396,0.88134 -27.28452,0.85391 -9.45194,-0.0285 -18.86439,-0.94187 -28.31489,-1.06739 -8.64694,-0.11483 -17.2794,0.12712 -25.9244,0.30497 -9.14055,0.18806 -18.2649,0.73217 -27.40817,0.82342 -8.98285,0.0897 -17.97115,-0.29897 -26.95479,-0.27447 -9.39598,0.0257 -18.7952,0.42012 -28.19124,0.42695 -9.31164,0.007 -18.59108,-0.39701 -27.90274,-0.39646 -8.86436,5.4e-4 -17.76296,0.54503 -26.62507,0.39646 -8.87046,-0.1487 -17.67122,-1.16568 -26.54262,-1.28087 -9.51494,-0.12355 -19.00533,0.52084 -28.52097,0.60994 -8.45283,0.0792 -16.93523,-0.0939 -25.38861,-0.061 -9.085,0.0353 -18.15947,0.18997 -27.24329,0.30497 -9.46518,0.11983 -18.93101,0.3459 -28.39731,0.39646 -8.77246,0.0468 -17.52717,0.11628 -26.29535,-0.0915 -9.18887,-0.21774 -18.33834,-1.18494 -27.53182,-1.21987 -8.87776,-0.0338 -17.75035,0.7997 -26.62505,0.9759 -9.09066,0.1805 -18.193,0.24699 -27.2845,0.0914 -9.39237,-0.16064 -18.75536,-1.1118 -28.15004,-1.06739 z"
       style="fill:#e9c6af;fill-opacity:1;stroke:#000000;stroke-width:2;stroke-linecap:butt;stroke-linejoin:miter;stroke-miterlimit:4;stroke-opacity:1;stroke-dasharray:none"
       inkscape:connector-curvature="0" />
    <path
       style="fill:#000000;fill-opacity:1;stroke:#000000;stroke-width:2.32746959;stroke-linecap:butt;stroke-linejoin:round;stroke-miterlimit:4;stroke-opacity:1;stroke-dasharray:none"
       d="m 265.1875,706.51858 c -3.31456,0.13258 -0.32486,3.37895 -0.71875,4.0625 -1.83367,3.18219 -3.4164,12.10622 -8.71539,13.26072 -3.73329,0.81338 -6.61795,-2.59651 -6.61795,-2.59651 l 2.33854,6.9804 c 4.07292,0.13542 5.47768,2.37622 6.3698,2.51164 0,0 -2.21717,9.1428 -7.6875,11.125 -2.25951,0.81874 -7,-1.65625 -7,-1.65625 l 3.1875,6.75 9.96875,2.78125 c -0.32539,2.61429 -0.63735,5.10519 -0.90625,7.46875 -1.44446,2.09286 -3.38622,4.01819 -5.9375,4.625 -2.143,0.5097 -6.03125,-2.71875 -6.03125,-2.71875 l 3.625,6.59375 7.25,2.1875 c -0.93991,9.66546 -1.59294,18.32728 -2.53125,29.34375 4.32016,2.04583 21.54088,1.62918 27.15625,0 0.46983,-8.90024 -1.11849,-20.07561 -2.71875,-30.28125 l 5.125,-2.3125 2.875,-7.625 c 0,0 -3.88584,4.05499 -6.28125,3.65625 -1.07697,-0.17927 -2.03845,-0.64335 -2.875,-1.28125 -0.16296,-1.04438 -0.3518,-2.19202 -0.5,-3.1875 -0.4024,-2.70291 -1.22726,-5.41831 -2.09375,-8.125 l 7.8125,-2.53125 3.4375,-7.78125 c 0,0 -4.09728,4.21655 -6.5625,3.71875 -5.52492,-1.11562 -6.25,-10.375 -6.25,-10.375 l 7.25552,-2.1777 1.73223,-6.71967 c 0,0 -4.33416,2.4502 -6.98131,1.54198 -4.58771,-1.57401 -5.65481,-10.34309 -7.25644,-13.23836 -0.35871,-0.64845 2.71323,-3.82322 -0.46875,-4 z"
       id="path6459"
       inkscape:connector-curvature="0"
       sodipodi:nodetypes="csscccsccccsccccccccscscccscccssc" />
    <path
       inkscape:connector-curvature="0"
       id="path6461"
       d="m 352.18576,778.24932 c 0.39805,-5.23202 -0.45245,-10.3752 -1.05241,-15.49801 -1.84414,-5.74829 2.17559,-8.90783 6.79157,-10.78796 4.76969,-4.0954 10.00941,-8.93152 16.07275,-10.35714 0.75209,3.77675 -2.73276,15.50177 4.58402,11.24131 5.14728,-2.83864 9.9225,-6.44946 15.33588,-8.74428 3.93022,1.54544 -2.35641,12.98929 3.42326,11.77058 6.68181,-2.91069 12.96038,-6.73878 19.84184,-9.13891 1.25356,2.47353 -1.17732,8.93008 -1.20325,12.9185 0.16018,9.18542 -0.62512,18.32696 -0.33539,27.52017 -0.32717,7.15316 -8.90414,0.90747 -12.9461,0.95401 -7.80275,-3.26206 -16.30163,-3.34388 -24.61683,-3.19788 -8.50387,-0.26916 -16.91832,-2.13311 -24.81847,-5.13787 l -0.68182,-0.65518 -0.395,-0.88729 -5e-5,-5e-5 z"
       style="fill:#000000;fill-opacity:1;stroke:#000000;stroke-width:1.97661579;stroke-linecap:butt;stroke-linejoin:miter;stroke-miterlimit:4;stroke-opacity:1;stroke-dasharray:none" />
    <path
       inkscape:connector-curvature="0"
       id="path6463"
       d="m 627.02325,791.31997 c -0.91425,-6.26643 -1.2875,-0.78967 -1.26765,-7.18594 -0.31283,-5.02219 -2.74107,-12.35266 4.90873,-10.34515 6.63769,-1.06576 -3.9192,-5.99316 -5.99057,-8.48949 -3.89665,-4.69608 -6.73242,-10.36115 -11.78158,-13.96308 -2.2137,-1.57919 -4.12467,-8.43356 -7.04441,-3.73386 -2.03544,6.7526 -8.8226,10.65512 -11.25698,17.09459 -1.42446,3.76803 -4.57114,7.98698 -4.10071,11.40864 9.34879,-0.64103 5.11039,-0.66712 6.49762,10.5713 0.47438,6.2627 -0.63681,1.03017 0.77514,7.15194 3.65111,3.58397 9.83493,-0.86889 14.57965,-0.74277 4.86645,-0.67347 9.72547,-1.62697 14.68076,-1.76618 z"
       style="fill:#000000;fill-opacity:1;stroke:none"
       sodipodi:nodetypes="cccsscsccccc" />
    <path
       id="path6465"
       d="m 720.81052,739.89358 c -1.05884,0.1327 -3.16409,2.47577 -3.81299,4.03125 -3.05111,5.88761 -9.92856,2.82425 -15.09438,3.375 -6.40884,0.40513 -12.79644,-0.44397 -19.19098,-0.15625 -7.59728,0.43957 -17.06523,0.89684 -22.21616,-5.75 0.0275,-0.11655 -1.6991,6.61382 -0.31512,8.75 6.07335,3.36212 13.46788,1.97105 20.16786,1.78125 0.0118,0.1887 0.0205,0.37464 0.0315,0.5625 -0.008,1.47011 -0.003,2.93614 0,4.40625 -0.65273,0.0128 -1.30086,0.0404 -1.95376,-0.0312 -1.79559,0.58056 -7.40153,-1.11161 -5.51465,2.46875 0.72561,2.54209 -0.72884,7.40523 3.87601,6.03125 1.24089,-0.0336 2.48071,-0.10892 3.71845,-0.1875 -0.19862,1.09255 -0.39026,2.17395 0.0315,3.25 0.80401,4.21581 0.8708,8.54386 1.48108,12.78125 -0.55307,2.42974 1.69891,4.98428 3.71845,2.53125 -0.15576,-3.38273 0.36188,-6.84342 -0.37815,-10.15625 0.0315,-2.90949 0.0372,-5.80586 0.0315,-8.71875 2.3267,-0.15727 4.66021,-0.31172 6.99573,-0.28125 3.5249,-0.0729 6.80236,-1.43543 10.33603,-1.46875 1.29507,-0.37681 2.67908,-0.52046 4.03357,-0.6875 -0.0659,1.75372 0.17959,3.44889 0.40966,5.1875 -0.0758,2.14734 -0.71257,4.25899 -0.34663,6.4375 -0.21514,2.08793 -0.92825,4.23103 -1.82772,6.15625 1.5169,0.91437 2.59897,0.70219 3.90753,-0.5 0.015,-5.87311 0.002,-11.75188 0,-17.625 1.08985,-0.20195 2.15475,-0.48677 3.15122,-1 0.0221,-2.35583 -1.03655,-5.20117 -3.15122,-5.40625 -3.5e-4,-1.48911 -3.4e-4,-2.97964 0,-4.46875 1.99718,0.009 3.9959,0.0229 5.98733,0.0312 6.81737,1.97857 5.77861,-4.24138 6.17641,-8.5625 0.65328,-2.15113 0.38321,-2.86087 -0.2521,-2.78125 z m -22.24767,11.28125 c 2.61119,-4.2e-4 5.20614,0.0215 7.81505,0.0312 -0.0547,1.03659 -0.0683,2.03718 0.40966,2.96875 -0.0114,0.68495 -0.0287,1.3775 -0.0315,2.0625 -0.0209,0.0127 -0.0421,0.0182 -0.063,0.0312 -5.95284,0.96175 -12.05062,0.58606 -18.02503,0.46875 -1.19941,-0.21359 -2.41743,-0.19494 -3.62391,-0.125 0.0766,-1.30087 0.34312,-2.62363 -0.22058,-3.875 -0.11722,-0.35382 -0.16879,-0.88454 -0.18908,-1.4375 4.62327,-0.0715 9.28511,-0.12425 13.92843,-0.125 z"
       style="fill:#000000;fill-opacity:1;stroke:none"
       inkscape:connector-curvature="0" />
    <path
       style="fill:#e9c6af;fill-opacity:1;stroke:#000000;stroke-width:2;stroke-miterlimit:4;stroke-opacity:1;stroke-dasharray:none"
       d="m 125.82993,787.73717 c 0,0 19.92755,14.37992 29.81964,18.625 9.24761,3.96852 26.80415,8 30.15468,8 3.35051,0 30.82477,-4 35.5155,-4.5 4.69073,-0.5 28.53713,-2.62686 42.88666,-3 9.37842,-0.24387 22.78353,1 28.14436,0.5 5.36084,-0.5 21.26265,-7.64305 32.165,-11 8.36172,-2.57467 16.46974,-6.28069 25.46395,-7 12.78354,-1.02236 31.49488,3.5 38.19592,4 6.70105,0.5 42.88666,3.5 46.90728,4.5 4.02063,1 20.77322,6 25.46396,8 4.69072,2 32.16498,5 35.5155,5 3.35053,0 30.82479,-2.5 33.50521,-2.5 2.68041,0 43.69703,-4.96994 65.67019,-4.5 9.03096,0.19314 21.44332,2.5 26.80415,3 5.36083,0.5 28.14437,2.5 32.8351,2 4.69072,-0.5 22.28346,-2.76109 29.48457,-8.5 5.1182,-4.07894 5.9079,-10.44374 6.70104,-16 0.26132,-1.83054 -0.55164,-4.12998 -0.55164,-4.12998 l 12.61351,-1.56066 c 0,0 2.11033,7.99474 2.01032,12.19064 -0.12867,5.39719 1.35444,11.89946 -3.35052,16 -3.8131,3.32325 -11.0481,2.98922 -16.7526,4 -8.36064,1.48142 -16.89714,2.49846 -25.46396,3 -11.35686,0.66488 -22.78809,-0.24028 -34.17529,0 -11.85273,0.2501 -23.65965,1.35518 -35.51552,1.5 -9.38286,0.11461 -20.77322,-1 -28.14437,-0.5 -7.37114,0.5 -53.65906,1.74143 -80.41247,0.5 -16.86828,-0.78273 -35.54331,1.20352 -50.2578,-5 -3.73568,-1.57494 -4.2689,-5.9745 -8.04125,-7.5 -8.08984,-3.27145 -18.3644,-1.03309 -27.47427,-2 -14.39971,-1.52837 -28.45889,-7.3733 -42.88665,-6 -16.15657,1.53786 -29.16085,10.88243 -44.22686,15.5 -10.52123,3.22464 -29.48458,8.5 -32.165,8.5 -2.68041,0 -71.03101,4 -73.71143,4 -2.68041,0 -31.49488,-3 -35.51551,-3.5 -4.02062,-0.5 -33.28054,-10.11754 -46.23718,-19 -3.5583,-2.43941 -11.55928,-15.25 -11.55928,-15.25 z"
       id="path5479"
       inkscape:connector-curvature="0"
       sodipodi:nodetypes="csssssssssssssssssccssssssssssssssssscc" />
    <path
       inkscape:connector-curvature="0"
       id="path6451"
       d="m 128.20792,791.44692 c 0.0345,-7.28724 0.45122,-14.67665 -0.20279,-21.88335 2.3482,-5.1714 9.91746,-4.30129 13.33645,-8.80402 3.84867,-2.97889 8.43938,-11.36711 12.8553,-4.27891 4.09813,5.20766 10.27227,8.31477 14.59214,13.35442 1.04995,4.95701 0.17682,10.08643 0.24082,15.10209 -1.60806,3.97925 2.26226,12.02496 -3.21441,13.05033 -4.29562,-1.25204 -8.70929,-0.73648 -13.02436,-1.85865 -7.39577,-2.10816 -14.8991,-5.06818 -22.73657,-4.05326 l -0.93474,-0.20671 -0.91184,-0.42194 0,0 z"
       style="fill:#000000;fill-opacity:1;stroke:#000000;stroke-width:1.97661579;stroke-linecap:butt;stroke-linejoin:miter;stroke-miterlimit:4;stroke-opacity:1;stroke-dasharray:none" />
    <path
       inkscape:connector-curvature="0"
       id="path6531"
       d="m 120.39684,770.80312 c -1.00826,-3.0186 -14.34485,-23.73689 -19.27,-24.59949 -2.678026,1.6275 -15.719816,14.582 -18.642703,18.29758 -1.3503,4.3611 -1.658859,20.13348 -2.060913,20.7065 0.569852,-0.009 24.720436,4.62557 34.441986,6.21453 2.2187,0.36264 4.20154,-0.69612 4.82458,-2.72945 0.58056,-1.89463 -0.55957,-11.43986 0.70705,-17.88967 z"
       style="fill:#000000;fill-opacity:1;stroke:none"
       sodipodi:nodetypes="ccccssc" />
    <path
       style="fill:#000000;fill-opacity:1;stroke:none"
       d="m 345.86046,819.84438 c -1.87381,-0.81858 -0.63466,-0.18883 -3.5419,-0.67587 2.87023,-5.44433 8.40691,-10.85152 13.2579,-14.38241 4.82021,-3.50849 4.78261,-2.74445 10.44377,-5.61794 6.26861,5.78319 15.21331,15.51843 22.59534,19.88283 -4.53371,1.02685 -3.10733,-0.43449 -6.11942,1.22034 2.52508,5.65473 2.30167,4.18951 1.80338,10.10974 -6.29567,0.53733 -13.26008,0.50563 -19.70182,1.47739 -4.40595,0.66466 -14.38942,-0.79054 -19.2092,-0.85343 -0.0346,-8.09319 0.6095,-6.66164 0.47195,-11.16065 z"
       id="path5989"
       inkscape:connector-curvature="0"
       sodipodi:nodetypes="ccsccccscc" />
    <path
       style="fill:#000000;fill-opacity:1;stroke:none"
       d="m 477.4375,763.83092 c -0.92117,-0.007 -1.8539,0.0517 -2.78125,0.1875 -2.2032,0.11449 -4.36814,0.25949 -6.5625,0.3125 -2.09561,0.15288 -4.17619,0.43948 -6.25,0.78125 -3.00919,-0.64143 -1.66369,2.8665 -1.8125,4.59375 0.24842,2.90388 0.0256,5.88607 0.0937,8.8125 -0.0361,0.55377 -0.0556,1.68321 0.125,2.59375 -0.3337,0.003 -0.66749,0.0115 -1,0 l -0.0312,0.15625 -0.0312,0.15625 c -0.0308,0.96126 -0.86764,2.04319 -0.53125,2.875 1.70026,-0.0232 3.41633,0.47462 4.84375,1.40625 -0.0122,2.10271 0.0222,4.21082 -0.0312,6.3125 -0.0386,1.49688 0.4828,2.95446 0.5,4.4375 0.044,1.20614 1.34565,1.68355 2.375,1.65625 2.37723,-0.11624 4.75374,0.18935 7.125,0.28125 0.88439,0.0358 2.28973,0.61902 2.75,-0.4375 -0.0253,-1.88907 -0.0282,-3.80217 0.15625,-5.6875 -0.0968,-1.80676 0.34525,-3.59927 0.1875,-5.40625 -0.29191,-0.96427 0.57078,-1.7827 1.5,-1.75 0.94164,-0.21163 2.01555,0.26506 2.84375,-0.21875 0.58387,-1.01172 0.0102,-2.27224 0.375,-3.34375 -0.23993,0.041 -0.47723,0.057 -0.71875,0.0625 0.0494,-0.19823 0.0317,-0.44218 -0.0937,-0.75 -0.10869,-1.84203 0.10308,-3.65572 0.15625,-5.46875 -0.40939,-2.09186 -0.065,-4.18131 -0.0312,-6.28125 -0.43794,-1.59551 0.27601,-3.97706 -0.375,-5.125 -0.927,-0.0964 -1.86008,-0.14935 -2.78125,-0.15625 z m -13.53125,3.125 c 0.91497,0.008 1.92765,0.15251 2.71875,0 0.89334,0.006 1.79414,-0.005 2.6875,0 -0.017,1.4458 0.55005,3.80572 0.65625,5.5 -0.75495,-0.15035 -1.15251,-0.15745 -2.875,-0.0937 0.38061,1.52052 1.07532,4.64398 1.34375,5.84375 1.1826,0.053 2.80175,-0.12501 4.59375,-0.28125 0.0928,-1.57921 0.67021,-4.13893 0.8125,-5.78125 -1.85862,-0.0967 -1.78486,0.85256 -2.65625,-0.0937 -0.47212,-1.51275 -0.37004,-3.36424 -0.4375,-5.0625 2.26458,0.01 4.51773,0.002 6.78125,-0.0312 1.24633,1.28317 1.07411,3.46795 1.6875,5.15625 0.41568,2.9259 0.60698,5.94411 0,8.84375 -0.0642,0.23883 -0.0661,0.42728 -0.0312,0.59375 -0.99764,-0.0997 -1.99697,-0.23019 -2.96875,0.0937 -2.15937,0.0271 -4.3095,-0.0145 -6.46875,0.0312 -1.77143,0.21988 -3.48275,-0.72693 -5.25,-0.34375 -0.73965,-0.15371 -1.49983,-0.2108 -2.25,-0.21875 0.008,-2.30814 0.13684,-4.62274 -0.46875,-6.875 0.0225,-2.12113 -0.15841,-4.25945 -0.0625,-6.375 0.42948,-0.78912 1.27253,-0.91387 2.1875,-0.90625 z"
       id="path5995"
       inkscape:connector-curvature="0" />
  </g>
</svg>
