<?xml version="1.0" encoding="UTF-8" standalone="no"?>
<!-- Created with Inkscape (http://www.inkscape.org/) -->

<svg
   xmlns:dc="http://purl.org/dc/elements/1.1/"
   xmlns:cc="http://creativecommons.org/ns#"
   xmlns:rdf="http://www.w3.org/1999/02/22-rdf-syntax-ns#"
   xmlns:svg="http://www.w3.org/2000/svg"
   xmlns="http://www.w3.org/2000/svg"
   xmlns:sodipodi="http://sodipodi.sourceforge.net/DTD/sodipodi-0.dtd"
   xmlns:inkscape="http://www.inkscape.org/namespaces/inkscape"
   width="600"
   height="360"
   id="svg2"
   version="1.1"
   inkscape:version="0.48.2 r9819"
   sodipodi:docname="world3.svg"
   inkscape:export-filename="/home/micha/Programmieren/git/platformer/images/world/world3.png"
   inkscape:export-xdpi="90"
   inkscape:export-ydpi="90">
  <sodipodi:namedview
     id="base"
     pagecolor="#000000"
     bordercolor="#666666"
     borderopacity="1.0"
     inkscape:pageopacity="0.0"
     inkscape:pageshadow="2"
     inkscape:zoom="1"
     inkscape:cx="275.3592"
     inkscape:cy="143.94542"
     inkscape:document-units="px"
     inkscape:current-layer="layer1"
     showgrid="false"
     inkscape:showpageshadow="true"
     inkscape:window-width="1280"
     inkscape:window-height="750"
     inkscape:window-x="0"
     inkscape:window-y="25"
     inkscape:window-maximized="1"
     showguides="true"
     inkscape:guide-bbox="true">
    <inkscape:grid
       type="xygrid"
       id="grid2985"
       empspacing="5"
       visible="true"
       enabled="true"
       snapvisiblegridlinesonly="true"
       spacingx="5px"
       spacingy="5px"
       originx="0px"
       originy="0px" />
  </sodipodi:namedview>
  <defs
     id="defs4">
    <inkscape:path-effect
       fuse_tolerance="0"
       vertical_pattern="false"
       prop_units="false"
       tang_offset="0"
       normal_offset="0"
       spacing="0"
       scale_y_rel="false"
       prop_scale="0.4"
       copytype="single_stretched"
       pattern="m 4.4999999,552.29967 0,10 10.0000001,-5 z"
       is_visible="true"
       id="path-effect8298"
       effect="skeletal" />
    <inkscape:path-effect
       fuse_tolerance="0"
       vertical_pattern="false"
       prop_units="false"
       tang_offset="0"
       normal_offset="0"
       spacing="0"
       scale_y_rel="false"
       prop_scale="0.4"
       copytype="single_stretched"
       pattern="m 9.8749998,552.48717 0,10 10.0000002,-5 z"
       is_visible="true"
       id="path-effect8295"
       effect="skeletal" />
    <inkscape:path-effect
       fuse_tolerance="0"
       vertical_pattern="false"
       prop_units="false"
       tang_offset="0"
       normal_offset="0"
       spacing="0"
       scale_y_rel="false"
       prop_scale="0.4"
       copytype="single_stretched"
       pattern="m 18.0625,552.73717 0,10 10,-5 z"
       is_visible="true"
       id="path-effect8292"
       effect="skeletal" />
    <inkscape:path-effect
       fuse_tolerance="0"
       vertical_pattern="false"
       prop_units="false"
       tang_offset="0"
       normal_offset="0"
       spacing="0"
       scale_y_rel="false"
       prop_scale="0.4"
       copytype="single_stretched"
       pattern="m 14.125,552.61217 0,10 10,-5 z"
       is_visible="true"
       id="path-effect8289"
       effect="skeletal" />
    <inkscape:path-effect
       fuse_tolerance="0"
       vertical_pattern="false"
       prop_units="false"
       tang_offset="0"
       normal_offset="0"
       spacing="0"
       scale_y_rel="false"
       prop_scale="0.4"
       copytype="single_stretched"
       pattern="m 21.874999,552.67467 0,10 10,-5 z"
       is_visible="true"
       id="path-effect8286"
       effect="skeletal" />
    <inkscape:path-effect
       fuse_tolerance="0"
       vertical_pattern="false"
       prop_units="false"
       tang_offset="0"
       normal_offset="0"
       spacing="0"
       scale_y_rel="false"
       prop_scale="0.4"
       copytype="single_stretched"
       pattern="m 26.624999,552.29967 0,10 10,-5 z"
       is_visible="true"
       id="path-effect8283"
       effect="skeletal" />
    <inkscape:path-effect
       fuse_tolerance="0"
       vertical_pattern="false"
       prop_units="false"
       tang_offset="0"
       normal_offset="0"
       spacing="0"
       scale_y_rel="false"
       prop_scale="0.4"
       copytype="single_stretched"
       pattern="m -0.1875,552.42467 0,10 10,-5 z"
       is_visible="true"
       id="path-effect8280"
       effect="skeletal" />
    <inkscape:path-effect
       fuse_tolerance="0"
       vertical_pattern="false"
       prop_units="false"
       tang_offset="0"
       normal_offset="0"
       spacing="0"
       scale_y_rel="false"
       prop_scale="0.4"
       copytype="single_stretched"
       pattern="m -4.9374999,552.42467 0,10 10,-5 z"
       is_visible="true"
       id="path-effect8277"
       effect="skeletal" />
    <inkscape:path-effect
       fuse_tolerance="0"
       vertical_pattern="false"
       prop_units="false"
       tang_offset="0"
       normal_offset="0"
       spacing="0"
       scale_y_rel="false"
       prop_scale="0.4"
       copytype="single_stretched"
       pattern="m -7.5624998,552.36217 0,10 10,-5 z"
       is_visible="true"
       id="path-effect8274"
       effect="skeletal" />
    <inkscape:path-effect
       effect="skeletal"
       id="path-effect8271"
       is_visible="true"
       pattern="m -7.5624998,552.36217 0,10 10,-5 z"
       copytype="single_stretched"
       prop_scale="0.4"
       scale_y_rel="false"
       spacing="0"
       normal_offset="0"
       tang_offset="0"
       prop_units="false"
       vertical_pattern="false"
       fuse_tolerance="0" />
    <inkscape:path-effect
       effect="skeletal"
       id="path-effect4594"
       is_visible="true"
       pattern="m -7.5624998,552.36217 0,10 10,-5 z"
       copytype="single_stretched"
       prop_scale="0.4"
       scale_y_rel="false"
       spacing="0"
       normal_offset="0"
       tang_offset="0"
       prop_units="false"
       vertical_pattern="false"
       fuse_tolerance="0" />
    <inkscape:path-effect
       effect="skeletal"
       id="path-effect4590"
       is_visible="true"
       pattern="m -4.9374999,552.42467 0,10 10,-5 z"
       copytype="single_stretched"
       prop_scale="0.4"
       scale_y_rel="false"
       spacing="0"
       normal_offset="0"
       tang_offset="0"
       prop_units="false"
       vertical_pattern="false"
       fuse_tolerance="0" />
    <inkscape:path-effect
       effect="skeletal"
       id="path-effect4586"
       is_visible="true"
       pattern="m -0.1875,552.42467 0,10 10,-5 z"
       copytype="single_stretched"
       prop_scale="0.4"
       scale_y_rel="false"
       spacing="0"
       normal_offset="0"
       tang_offset="0"
       prop_units="false"
       vertical_pattern="false"
       fuse_tolerance="0" />
    <inkscape:path-effect
       effect="skeletal"
       id="path-effect4582"
       is_visible="true"
       pattern="m 26.624999,552.29967 0,10 10,-5 z"
       copytype="single_stretched"
       prop_scale="0.4"
       scale_y_rel="false"
       spacing="0"
       normal_offset="0"
       tang_offset="0"
       prop_units="false"
       vertical_pattern="false"
       fuse_tolerance="0" />
    <inkscape:path-effect
       effect="skeletal"
       id="path-effect4578"
       is_visible="true"
       pattern="m 21.874999,552.67467 0,10 10,-5 z"
       copytype="single_stretched"
       prop_scale="0.4"
       scale_y_rel="false"
       spacing="0"
       normal_offset="0"
       tang_offset="0"
       prop_units="false"
       vertical_pattern="false"
       fuse_tolerance="0" />
    <inkscape:path-effect
       effect="skeletal"
       id="path-effect4574"
       is_visible="true"
       pattern="m 14.125,552.61217 0,10 10,-5 z"
       copytype="single_stretched"
       prop_scale="0.4"
       scale_y_rel="false"
       spacing="0"
       normal_offset="0"
       tang_offset="0"
       prop_units="false"
       vertical_pattern="false"
       fuse_tolerance="0" />
    <inkscape:path-effect
       effect="skeletal"
       id="path-effect4570"
       is_visible="true"
       pattern="m 18.0625,552.73717 0,10 10,-5 z"
       copytype="single_stretched"
       prop_scale="0.4"
       scale_y_rel="false"
       spacing="0"
       normal_offset="0"
       tang_offset="0"
       prop_units="false"
       vertical_pattern="false"
       fuse_tolerance="0" />
    <inkscape:path-effect
       effect="skeletal"
       id="path-effect4566"
       is_visible="true"
       pattern="m 9.8749998,552.48717 0,10 10.0000002,-5 z"
       copytype="single_stretched"
       prop_scale="0.4"
       scale_y_rel="false"
       spacing="0"
       normal_offset="0"
       tang_offset="0"
       prop_units="false"
       vertical_pattern="false"
       fuse_tolerance="0" />
    <inkscape:path-effect
       effect="skeletal"
       id="path-effect4562"
       is_visible="true"
       pattern="m 4.4999999,552.29967 0,10 10.0000001,-5 z"
       copytype="single_stretched"
       prop_scale="0.4"
       scale_y_rel="false"
       spacing="0"
       normal_offset="0"
       tang_offset="0"
       prop_units="false"
       vertical_pattern="false"
       fuse_tolerance="0" />
    <inkscape:path-effect
       fuse_tolerance="0"
       vertical_pattern="false"
       prop_units="false"
       tang_offset="0"
       normal_offset="0"
       spacing="0"
       scale_y_rel="false"
       prop_scale="1"
       copytype="single_stretched"
       pattern="M 0,0 0,10 10,5 z"
       is_visible="true"
       id="path-effect4546"
       effect="skeletal" />
    <inkscape:path-effect
       fuse_tolerance="0"
       vertical_pattern="false"
       prop_units="false"
       tang_offset="0"
       normal_offset="0"
       spacing="0"
       scale_y_rel="false"
       prop_scale="1"
       copytype="single_stretched"
       pattern="M 0,0 0,10 10,5 z"
       is_visible="true"
       id="path-effect4542"
       effect="skeletal" />
    <inkscape:path-effect
       fuse_tolerance="0"
       vertical_pattern="false"
       prop_units="false"
       tang_offset="0"
       normal_offset="0"
       spacing="0"
       scale_y_rel="false"
       prop_scale="1"
       copytype="single_stretched"
       pattern="M 0,0 0,10 10,5 z"
       is_visible="true"
       id="path-effect4538"
       effect="skeletal" />
    <inkscape:path-effect
       fuse_tolerance="0"
       vertical_pattern="false"
       prop_units="false"
       tang_offset="0"
       normal_offset="0"
       spacing="0"
       scale_y_rel="false"
       prop_scale="0.4"
       copytype="single_stretched"
       pattern="m -7.5624998,552.36217 0,10 10,-5 z"
       is_visible="true"
       id="path-effect4534"
       effect="skeletal" />
    <inkscape:path-effect
       fuse_tolerance="0"
       vertical_pattern="false"
       prop_units="false"
       tang_offset="0"
       normal_offset="0"
       spacing="0"
       scale_y_rel="false"
       prop_scale="1"
       copytype="single_stretched"
       pattern="m 0,552.36217 0,10 10,-5 z"
       is_visible="true"
       id="path-effect4220"
       effect="skeletal" />
    <inkscape:path-effect
       fuse_tolerance="0"
       vertical_pattern="false"
       prop_units="false"
       tang_offset="0"
       normal_offset="0"
       spacing="0"
       scale_y_rel="false"
       prop_scale="1"
       copytype="single_stretched"
       pattern="M 0,5 10,10 10,0 z"
       is_visible="true"
       id="path-effect6242"
       effect="skeletal" />
    <inkscape:path-effect
       fuse_tolerance="0"
       vertical_pattern="false"
       prop_units="false"
       tang_offset="0"
       normal_offset="0"
       spacing="0"
       scale_y_rel="false"
       prop_scale="1"
       copytype="single_stretched"
       pattern="M 0,5 10,10 10,0 z"
       is_visible="true"
       id="path-effect6238"
       effect="skeletal" />
    <inkscape:path-effect
       fuse_tolerance="0"
       vertical_pattern="false"
       prop_units="false"
       tang_offset="0"
       normal_offset="0"
       spacing="0"
       scale_y_rel="false"
       prop_scale="1"
       copytype="single_stretched"
       pattern="M 0,0 0,10 10,5 z"
       is_visible="true"
       id="path-effect6234"
       effect="skeletal" />
    <inkscape:path-effect
       fuse_tolerance="0"
       vertical_pattern="false"
       prop_units="false"
       tang_offset="0"
       normal_offset="0"
       spacing="0"
       scale_y_rel="false"
       prop_scale="1"
       copytype="single_stretched"
       pattern="M 0,0 0,10 10,5 z"
       is_visible="true"
       id="path-effect6230"
       effect="skeletal" />
    <inkscape:path-effect
       effect="skeletal"
       id="path-effect4562-4"
       is_visible="true"
       pattern="m 4.4999999,552.29967 0,10 10.0000001,-5 z"
       copytype="single_stretched"
       prop_scale="0.4"
       scale_y_rel="false"
       spacing="0"
       normal_offset="0"
       tang_offset="0"
       prop_units="false"
       vertical_pattern="false"
       fuse_tolerance="0" />
    <inkscape:path-effect
       effect="skeletal"
       id="path-effect4566-8"
       is_visible="true"
       pattern="m 9.8749998,552.48717 0,10 10.0000002,-5 z"
       copytype="single_stretched"
       prop_scale="0.4"
       scale_y_rel="false"
       spacing="0"
       normal_offset="0"
       tang_offset="0"
       prop_units="false"
       vertical_pattern="false"
       fuse_tolerance="0" />
    <inkscape:path-effect
       effect="skeletal"
       id="path-effect4570-7"
       is_visible="true"
       pattern="m 18.0625,552.73717 0,10 10,-5 z"
       copytype="single_stretched"
       prop_scale="0.4"
       scale_y_rel="false"
       spacing="0"
       normal_offset="0"
       tang_offset="0"
       prop_units="false"
       vertical_pattern="false"
       fuse_tolerance="0" />
    <inkscape:path-effect
       effect="skeletal"
       id="path-effect4574-0"
       is_visible="true"
       pattern="m 14.125,552.61217 0,10 10,-5 z"
       copytype="single_stretched"
       prop_scale="0.4"
       scale_y_rel="false"
       spacing="0"
       normal_offset="0"
       tang_offset="0"
       prop_units="false"
       vertical_pattern="false"
       fuse_tolerance="0" />
    <inkscape:path-effect
       effect="skeletal"
       id="path-effect4578-2"
       is_visible="true"
       pattern="m 21.874999,552.67467 0,10 10,-5 z"
       copytype="single_stretched"
       prop_scale="0.4"
       scale_y_rel="false"
       spacing="0"
       normal_offset="0"
       tang_offset="0"
       prop_units="false"
       vertical_pattern="false"
       fuse_tolerance="0" />
    <inkscape:path-effect
       effect="skeletal"
       id="path-effect4582-5"
       is_visible="true"
       pattern="m 26.624999,552.29967 0,10 10,-5 z"
       copytype="single_stretched"
       prop_scale="0.4"
       scale_y_rel="false"
       spacing="0"
       normal_offset="0"
       tang_offset="0"
       prop_units="false"
       vertical_pattern="false"
       fuse_tolerance="0" />
    <inkscape:path-effect
       effect="skeletal"
       id="path-effect4586-5"
       is_visible="true"
       pattern="m -0.1875,552.42467 0,10 10,-5 z"
       copytype="single_stretched"
       prop_scale="0.4"
       scale_y_rel="false"
       spacing="0"
       normal_offset="0"
       tang_offset="0"
       prop_units="false"
       vertical_pattern="false"
       fuse_tolerance="0" />
    <inkscape:path-effect
       effect="skeletal"
       id="path-effect4590-6"
       is_visible="true"
       pattern="m -4.9374999,552.42467 0,10 10,-5 z"
       copytype="single_stretched"
       prop_scale="0.4"
       scale_y_rel="false"
       spacing="0"
       normal_offset="0"
       tang_offset="0"
       prop_units="false"
       vertical_pattern="false"
       fuse_tolerance="0" />
    <inkscape:path-effect
       effect="skeletal"
       id="path-effect4594-6"
       is_visible="true"
       pattern="m -7.5624998,552.36217 0,10 10,-5 z"
       copytype="single_stretched"
       prop_scale="0.4"
       scale_y_rel="false"
       spacing="0"
       normal_offset="0"
       tang_offset="0"
       prop_units="false"
       vertical_pattern="false"
       fuse_tolerance="0" />
    <inkscape:path-effect
       fuse_tolerance="0"
       vertical_pattern="false"
       prop_units="false"
       tang_offset="0"
       normal_offset="0"
       spacing="0"
       scale_y_rel="false"
       prop_scale="0.4"
       copytype="single_stretched"
       pattern="m -7.5624998,552.36217 0,10 10,-5 z"
       is_visible="true"
       id="path-effect4534-2"
       effect="skeletal" />
    <inkscape:path-effect
       fuse_tolerance="0"
       vertical_pattern="false"
       prop_units="false"
       tang_offset="0"
       normal_offset="0"
       spacing="0"
       scale_y_rel="false"
       prop_scale="0.4"
       copytype="single_stretched"
       pattern="m 4.4999999,552.29967 0,10 10.0000001,-5 z"
       is_visible="true"
       id="path-effect8298-7"
       effect="skeletal" />
    <inkscape:path-effect
       fuse_tolerance="0"
       vertical_pattern="false"
       prop_units="false"
       tang_offset="0"
       normal_offset="0"
       spacing="0"
       scale_y_rel="false"
       prop_scale="0.4"
       copytype="single_stretched"
       pattern="m 9.8749998,552.48717 0,10 10.0000002,-5 z"
       is_visible="true"
       id="path-effect8295-2"
       effect="skeletal" />
    <inkscape:path-effect
       fuse_tolerance="0"
       vertical_pattern="false"
       prop_units="false"
       tang_offset="0"
       normal_offset="0"
       spacing="0"
       scale_y_rel="false"
       prop_scale="0.4"
       copytype="single_stretched"
       pattern="m 18.0625,552.73717 0,10 10,-5 z"
       is_visible="true"
       id="path-effect8292-1"
       effect="skeletal" />
    <inkscape:path-effect
       fuse_tolerance="0"
       vertical_pattern="false"
       prop_units="false"
       tang_offset="0"
       normal_offset="0"
       spacing="0"
       scale_y_rel="false"
       prop_scale="0.4"
       copytype="single_stretched"
       pattern="m 14.125,552.61217 0,10 10,-5 z"
       is_visible="true"
       id="path-effect8289-8"
       effect="skeletal" />
    <inkscape:path-effect
       fuse_tolerance="0"
       vertical_pattern="false"
       prop_units="false"
       tang_offset="0"
       normal_offset="0"
       spacing="0"
       scale_y_rel="false"
       prop_scale="0.4"
       copytype="single_stretched"
       pattern="m 21.874999,552.67467 0,10 10,-5 z"
       is_visible="true"
       id="path-effect8286-7"
       effect="skeletal" />
    <inkscape:path-effect
       fuse_tolerance="0"
       vertical_pattern="false"
       prop_units="false"
       tang_offset="0"
       normal_offset="0"
       spacing="0"
       scale_y_rel="false"
       prop_scale="0.4"
       copytype="single_stretched"
       pattern="m 26.624999,552.29967 0,10 10,-5 z"
       is_visible="true"
       id="path-effect8283-9"
       effect="skeletal" />
    <inkscape:path-effect
       fuse_tolerance="0"
       vertical_pattern="false"
       prop_units="false"
       tang_offset="0"
       normal_offset="0"
       spacing="0"
       scale_y_rel="false"
       prop_scale="0.4"
       copytype="single_stretched"
       pattern="m -0.1875,552.42467 0,10 10,-5 z"
       is_visible="true"
       id="path-effect8280-8"
       effect="skeletal" />
    <inkscape:path-effect
       fuse_tolerance="0"
       vertical_pattern="false"
       prop_units="false"
       tang_offset="0"
       normal_offset="0"
       spacing="0"
       scale_y_rel="false"
       prop_scale="0.4"
       copytype="single_stretched"
       pattern="m -4.9374999,552.42467 0,10 10,-5 z"
       is_visible="true"
       id="path-effect8277-1"
       effect="skeletal" />
    <inkscape:path-effect
       fuse_tolerance="0"
       vertical_pattern="false"
       prop_units="false"
       tang_offset="0"
       normal_offset="0"
       spacing="0"
       scale_y_rel="false"
       prop_scale="0.4"
       copytype="single_stretched"
       pattern="m -7.5624998,552.36217 0,10 10,-5 z"
       is_visible="true"
       id="path-effect8274-8"
       effect="skeletal" />
    <inkscape:path-effect
       effect="skeletal"
       id="path-effect8271-0"
       is_visible="true"
       pattern="m -7.5624998,552.36217 0,10 10,-5 z"
       copytype="single_stretched"
       prop_scale="0.4"
       scale_y_rel="false"
       spacing="0"
       normal_offset="0"
       tang_offset="0"
       prop_units="false"
       vertical_pattern="false"
       fuse_tolerance="0" />
  </defs>
  <metadata
     id="metadata7">
    <rdf:RDF>
      <cc:Work
         rdf:about="">
        <dc:format>image/svg+xml</dc:format>
        <dc:type
           rdf:resource="http://purl.org/dc/dcmitype/StillImage" />
        <dc:title></dc:title>
      </cc:Work>
    </rdf:RDF>
  </metadata>
  <g
     inkscape:label="Ebene 1"
     inkscape:groupmode="layer"
     id="layer1"
     transform="translate(0,-692.36217)">
    <rect
       style="fill:#000000;fill-opacity:1;stroke:none"
       id="rect7151"
       width="70.5"
       height="43.75"
       x="313.75"
       y="262.5"
       transform="translate(0,692.36217)" />
    <path
       style="fill:#782121;fill-opacity:1;stroke:#000000;stroke-width:1.96688712;stroke-miterlimit:4;stroke-opacity:1"
       d="m 88.868523,743.91309 24.685667,-1.10751 24.72266,1.38851 24.58939,0.003 0.3216,10.59064 1.16831,12.77524 -0.30417,13.55168 -1.42174,11.97705 -24.71456,-0.45026 -23.93334,0.88947 -25.011893,-1.55564 -24.786799,0.40067 0.220813,-12.7171 1.424213,-12.34267 0.2263,-11.22987 -0.09616,-12.47144 z"
       id="rect4613-8"
       inkscape:connector-curvature="0"
       sodipodi:nodetypes="ccccccccccccccccc" />
    <path
       style="fill:#a02c2c;fill-opacity:1;stroke:#000000;stroke-width:1.96688712;stroke-miterlimit:4;stroke-opacity:1"
       d="m 187.14259,743.75748 24.86589,-1.06507 25.99551,0.1169 23.27012,1.4347 -0.17697,10.82396 0.37505,13.86658 0.32094,10.39377 -0.57827,14.04405 -24.82587,-0.28015 -24.71137,-0.39545 -22.66858,-0.38672 -26.50455,0.37599 1.10527,-11.39948 -1.08384,-13.04886 -0.0137,-12.66073 1.21545,-11.39375 z"
       id="rect4613-3"
       inkscape:connector-curvature="0"
       sodipodi:nodetypes="ccccccccccccccccc" />
    <path
       style="fill:#782121;fill-opacity:1;stroke:#000000;stroke-width:1.96688712;stroke-miterlimit:4;stroke-opacity:1"
       d="m 285.63415,742.83408 25.53486,-0.37109 25.29252,1.41912 23.48416,-1.40689 0.64029,14.14244 -1.08828,10.6857 -0.25708,12.69565 0.0226,12.23227 -23.68663,-0.6105 -23.78496,1.56831 -25.80226,-1.47151 -25.10166,1.17182 0.55323,-11.67459 -0.32837,-12.52289 -0.2633,-12.87997 0.17751,-12.81278 z"
       id="rect4613-0"
       inkscape:connector-curvature="0"
       sodipodi:nodetypes="ccccccccccccccccc" />
    <path
       sodipodi:nodetypes="ccccc"
       inkscape:connector-curvature="0"
       id="rect5641"
       d="m 6.0062671,841.43318 54.8856569,-2.47488 0,56.28332 -55.4248704,-4.625 c -3.4999999,-9.875 -2.7107864,-41.18345 0.5392135,-49.18344 z"
       style="fill:#e9afaf;fill-opacity:1;stroke:#000000;stroke-width:2.23157692;stroke-linecap:round;stroke-linejoin:round;stroke-miterlimit:4;stroke-opacity:1;stroke-dashoffset:0" />
    <path
       style="fill:#a02c2c;fill-opacity:1;stroke:#000000;stroke-width:1.96688712;stroke-miterlimit:4;stroke-opacity:1"
       d="m 40.914632,791.85738 24.445662,1.34631 26.318759,-0.35556 23.348267,-1.18481 0.73615,14.10815 0.22186,10.70207 -0.28422,13.91349 -0.76277,10.48015 -25.109676,1.31143 -24.460738,0.20706 -23.047176,-1.22487 -24.392054,0.40569 -0.836425,-11.10725 0.815004,-12.97722 -1.160203,-11.62611 0.399394,-14.08988 z"
       id="rect4696"
       inkscape:connector-curvature="0"
       sodipodi:nodetypes="ccccccccccccccccc" />
    <path
       style="fill:#a02c2c;fill-opacity:1;stroke:#000000;stroke-width:1.96688712;stroke-miterlimit:4;stroke-opacity:1"
       d="m 139.525,791.69438 24.76371,1.87354 24.65355,0.0113 24.00427,-1.65535 0.6483,13.95485 -0.16549,10.35475 0.66048,12.36692 0.44348,13.62175 -25.78721,-1.37414 -25.17415,1.29492 -22.70837,-0.55539 -24.56783,0.19877 -0.67536,-13.23694 0.17993,-10.50524 -0.0386,-12.27214 -0.008,-12.76823 z"
       id="rect4698"
       inkscape:connector-curvature="0"
       sodipodi:nodetypes="ccccccccccccccccc" />
    <path
       style="fill:#a02c2c;fill-opacity:1;stroke:#000000;stroke-width:1.96688712;stroke-miterlimit:4;stroke-opacity:1"
       d="m 237.30569,792.90253 26.48106,-0.0755 23.2577,-1.13377 24.63586,-0.0187 1.00604,12.51737 -1.16361,12.1391 0.43197,14.13469 -0.44031,10.4561 -24.70625,0.0806 -23.12163,0.29267 -26.18889,-0.16056 -24.74446,0.25348 -0.0794,-11.87147 1.93571,-12.08284 -1.86164,-12.16074 1.86719,-12.53321 z"
       id="rect4700"
       inkscape:connector-curvature="0"
       sodipodi:nodetypes="ccccccccccccccccc" />
    <path
       style="fill:#782121;fill-opacity:1;stroke:#000000;stroke-width:1.96688712;stroke-miterlimit:4;stroke-opacity:1"
       d="m 336.76307,791.63655 24.61894,0.007 25.289,1.32977 24.64592,-0.2161 -0.79286,13.10747 -1.10421,11.65845 0.12642,11.38736 1.22794,11.98121 -25.88234,1.3484 -24.32917,0.30763 -23.07853,-0.36791 -24.5063,-0.28924 -1.68471,-11.72419 1.14491,-12.09475 0.16058,-13.95508 -0.16757,-11.76592 z"
       id="rect4702"
       inkscape:connector-curvature="0"
       sodipodi:nodetypes="ccccccccccccccccc" />
    <path
       style="fill:#c83737;fill-opacity:1;stroke:#000000;stroke-width:1.96688712;stroke-miterlimit:4;stroke-opacity:1"
       d="m 434.13513,793.1812 24.85847,-1.40927 24.52379,1.62181 25.31022,0.18416 0.77487,10.95311 -1.65712,13.30191 1.67422,11.33009 -0.85549,11.6327 -25.59697,0.68059 -23.16544,-0.556 -24.93395,1.83 -23.91027,-0.41923 -0.37429,-11.96714 -1.09472,-13.90552 0.13378,-10.72846 0.5361,-13.35549 z"
       id="rect4704"
       inkscape:connector-curvature="0"
       sodipodi:nodetypes="ccccccccccccccccc" />
    <path
       style="fill:#e9afaf;fill-opacity:1;stroke:#000000;stroke-width:1.96688712;stroke-miterlimit:4;stroke-opacity:1"
       d="m 79.630726,841.39022 24.294204,1.15547 22.99883,-0.90044 26.50983,0.38881 -0.27427,11.31992 0.28087,13.24053 -0.70464,13.01182 -0.12644,10.36667 -24.25341,1.84619 -25.98113,-0.57445 -24.623804,-0.42107 -23.38556,1.0822 -0.231827,-14.23382 0.560632,-10.49696 0.118426,-13.82349 -0.770675,-10.75564 z"
       id="rect4710"
       inkscape:connector-curvature="0"
       sodipodi:nodetypes="ccccccccccccccccc" />
    <path
       style="fill:#e9afaf;fill-opacity:1;stroke:#000000;stroke-width:1.96688712;stroke-miterlimit:4;stroke-opacity:1"
       d="m 176.14347,842.10436 25.79257,-1.27096 24.8596,0.1296 23.10018,1.12412 1.81299,11.5431 0.0182,12.33152 -1.49441,11.9117 -0.29004,12.64896 -22.85476,-0.077 -25.7988,1.41525 -25.08773,-1.37184 -22.75846,0.68087 -0.0744,-12.94527 -1.71527,-11.33658 1.35456,-11.98571 -1.20201,-12.93171 z"
       id="rect4712"
       inkscape:connector-curvature="0"
       sodipodi:nodetypes="ccccccccccccccccc" />
    <path
       style="fill:#e9afaf;fill-opacity:1;stroke:#000000;stroke-width:1.96688712;stroke-miterlimit:4;stroke-opacity:1"
       d="m 276.39088,841.65493 23.51459,-0.85738 23.74437,0.68109 26.28579,0.9189 -1.00456,12.62501 0.12371,12.31616 0.45886,10.39411 -0.72307,14.12164 -24.29953,-1.88468 -23.96433,0.14757 -24.24373,0.36889 -24.6728,1.05954 -1.13808,-11.97386 0.20159,-14.18061 -0.82667,-11.26605 1.20481,-11.48401 z"
       id="rect4714"
       inkscape:connector-curvature="0"
       sodipodi:nodetypes="ccccccccccccccccc" />
    <path
       style="fill:#e9afaf;fill-opacity:1;stroke:#000000;stroke-width:1.96688712;stroke-miterlimit:4;stroke-opacity:1"
       d="m 373.15628,842.55319 24.20692,-0.82627 25.00257,0.85386 25.71521,0.002 0.41901,11.53197 -1.50635,11.41579 -0.36351,12.70151 0.66666,13.67518 -23.59649,-1.57161 -25.9148,-0.19523 -23.37864,0.0684 -25.10112,-0.23431 0.85041,-11.35062 -1.18773,-13.22288 0.0401,-10.36161 0.0878,-12.28257 z"
       id="rect4716"
       inkscape:connector-curvature="0"
       sodipodi:nodetypes="ccccccccccccccccc" />
    <path
       style="fill:#c83737;fill-opacity:1;stroke:#000000;stroke-width:1.96688712;stroke-miterlimit:4;stroke-opacity:1"
       d="m 29.526421,889.96547 23.868549,0.3413 24.430833,0.24633 24.951967,-0.43005 1.44129,13.49934 0.0674,11.77689 -0.86994,11.45046 0.50529,12.49917 -24.478173,0.099 -26.18977,1.09892 -23.249303,0.4481 -26.0181157,-0.9355 1.9309097,-12.48836 0.033191,-12.07799 -1.9588888,-12.36965 0.9815485,-12.73485 z"
       id="rect4720"
       inkscape:connector-curvature="0"
       sodipodi:nodetypes="ccccccccccccccccc" />
    <path
       style="fill:#c83737;fill-opacity:1;stroke:#000000;stroke-width:1.96688712;stroke-miterlimit:4;stroke-opacity:1"
       d="m 126.94719,891.19814 24.6906,0.2506 25.01093,0.38813 25.8,-1.47133 -1.77524,12.85481 0.93142,11.33219 0.18645,14.2493 0.81502,11.57439 -24.65479,-0.69266 -24.48367,0.42706 -25.90109,0.9359 -25.21682,-1.1285 0.52666,-12.97204 0.43306,-12.39482 -0.96272,-11.12175 1.60415,-12.29076 z"
       id="rect4722"
       inkscape:connector-curvature="0"
       sodipodi:nodetypes="ccccccccccccccccc" />
    <path
       style="fill:#a02c2c;fill-opacity:1;stroke:#000000;stroke-width:1.96688712;stroke-miterlimit:4;stroke-opacity:1"
       d="m 226.98601,890.30449 22.86124,0.5842 26.10992,-0.76064 24.82194,1.42195 0.19293,11.53556 -1.62731,13.18145 1.58128,11.89474 -0.67738,11.00719 -24.03179,0.38246 -24.40456,0.57843 -26.54601,-0.1257 -24.57021,0.3271 0.1817,-11.90323 -0.16614,-13.16538 0.77377,-11.05265 0.17364,-13.02328 z"
       id="rect4724"
       inkscape:connector-curvature="0"
       sodipodi:nodetypes="ccccccccccccccccc" />
    <path
       style="fill:#782121;fill-opacity:1;stroke:#000000;stroke-width:1.96688712;stroke-miterlimit:4;stroke-opacity:1"
       d="m 324.24972,890.02477 24.97276,-0.0584 24.83528,1.91928 23.36352,-0.60069 0.0321,11.54256 1.68337,13.29103 -1.72397,12.02126 1.34867,12.87212 -24.48261,-0.056 -26.0573,-1.08292 -22.86922,-0.36988 -26.06186,1.2976 -0.27235,-12.94123 0.34638,-11.57508 -0.31071,-13.307 0.72895,-11.27698 z"
       id="rect4726"
       inkscape:connector-curvature="0"
       sodipodi:nodetypes="ccccccccccccccccc" />
    <path
       style="fill:#a02c2c;fill-opacity:1;stroke:#000000;stroke-width:1.96688712;stroke-miterlimit:4;stroke-opacity:1"
       d="m 423.85128,891.2966 24.1214,0.52373 25.06361,-1.18388 22.69874,0.54798 0.12927,12.59173 -0.0745,12.15491 -0.003,11.50758 0.65193,13.63288 -25.16838,-0.429 -22.82182,-0.83967 -26.38947,0.77127 -23.96351,0.4977 -0.51516,-13.86183 -0.21656,-11.6194 0.94452,-13.33178 -0.40264,-10.94943 z"
       id="rect4728"
       inkscape:connector-curvature="0"
       sodipodi:nodetypes="ccccccccccccccccc" />
    <path
       style="fill:#a02c2c;fill-opacity:1;stroke:#000000;stroke-width:1.96688712;stroke-miterlimit:4;stroke-opacity:1"
       d="m 79.608206,940.55583 23.826804,-1.41089 23.99259,1.83909 25.81535,-1.48938 -1.05266,13.85748 0.95855,10.6296 -0.95098,13.9589 1.26843,11.4095 -25.31616,0.8935 -25.29911,-1.8193 -23.648986,1.7293 -25.293903,-1.8165 1.182935,-11.0864 -0.06845,-12.1098 -1.195887,-11.795 -0.105863,-13.86042 z"
       id="rect4734"
       inkscape:connector-curvature="0"
       sodipodi:nodetypes="ccccccccccccccccc" />
    <path
       style="fill:#782121;fill-opacity:1;stroke:#000000;stroke-width:1.96688712;stroke-miterlimit:4;stroke-opacity:1"
       d="m 176.34383,940.78323 25.1949,-1.63888 24.76505,-0.01 24.25312,1.92658 1.09102,11.8923 -0.27329,12.5669 0.41432,11.688 -1.70355,12.7237 -22.95606,-1.0694 -25.58577,1.4026 -23.83466,-1.7251 -25.77591,-0.066 -0.17844,-12.1378 -0.16192,-12.0485 1.82849,-11.5787 -1.36445,-11.7306 z"
       id="rect4736"
       inkscape:connector-curvature="0"
       sodipodi:nodetypes="ccccccccccccccccc" />
    <path
       style="fill:#a02c2c;fill-opacity:1;stroke:#000000;stroke-width:1.96688712;stroke-miterlimit:4;stroke-opacity:1"
       d="m 275.16739,939.16943 24.10934,0.28657 25.87001,1.47393 23.14003,-1.23456 0.1685,12.04676 1.06796,6.7368 -5.70666,7.03189 -13.19152,19.61788 -10.04497,3.64332 -19.73223,0.0214 -25.41107,1.4833 -25.58155,-1.1217 0.0738,-11.7579 -0.061,-12.8996 1.30532,-13.0043 -0.0944,-11.65732 z"
       id="rect4738"
       inkscape:connector-curvature="0"
       sodipodi:nodetypes="ccccccccccccccccc" />
    <path
       style="fill:#c83737;fill-opacity:1;stroke:#000000;stroke-width:1.96688712;stroke-miterlimit:4;stroke-opacity:1"
       d="m 373.11796,940.86623 25.07625,-1.71726 23.85257,0.54227 24.70886,1.05119 0.71962,10.6888 -0.42617,14.1402 1.44974,11.4941 -0.67557,11.2926 -25.80279,1.3051 -22.70446,-0.5287 -18.42406,0.1613 -6.29322,-2.53903 -16.87924,-13.23711 -8.21558,-15.39508 0.63189,-5.91238 -0.88059,-12.75406 z"
       id="rect4740"
       inkscape:connector-curvature="0"
       sodipodi:nodetypes="ccccccccccccccccc" />
    <path
       style="fill:#782121;fill-opacity:1;stroke:#000000;stroke-width:1.96688712;stroke-miterlimit:4;stroke-opacity:1"
       d="m 482.12054,743.40697 24.70062,-0.43617 26.37605,0.80504 22.77215,0.069 0.15794,11.22634 0.17868,13.75808 -0.40783,11.67748 1.75865,12.67647 -24.88809,-1.43012 -25.99925,0.50432 -22.7328,0.65767 -24.9081,-1.08157 0.34724,-11.30112 -1.34431,-13.41884 -0.17253,-12.19795 1.23108,-11.87112 z"
       id="rect4613-7-6"
       inkscape:connector-curvature="0"
       sodipodi:nodetypes="ccccccccccccccccc" />
    <path
       sodipodi:nodetypes="ccccc"
       inkscape:connector-curvature="0"
       id="rect5641-9"
       d="m 595.55494,841.79843 -55.29986,-2.47488 0,56.28332 54.9463,-3.18198 c 4.06588,-11.13693 4.41942,-38.9592 0.35356,-50.62646 z"
       style="fill:#e9afaf;fill-opacity:1;stroke:#000000;stroke-width:2.23157692;stroke-linecap:round;stroke-linejoin:round;stroke-miterlimit:4;stroke-opacity:1;stroke-dashoffset:0" />
    <path
       style="fill:#a02c2c;fill-opacity:1;stroke:#000000;stroke-width:1.96688712;stroke-miterlimit:4;stroke-opacity:1"
       d="m 532.8574,791.71419 25.77993,1.49488 20.49994,0.0244 0.48675,10.47584 0.152,13.84482 -1.43197,10.95065 1.73878,13.00659 -21.55292,-0.45682 -24.66913,-0.0688 -24.4469,1.45603 -0.46023,-13.90587 0.58572,-11.84095 -1.26545,-12.68896 0.67309,-11.69047 z"
       id="rect4704-8"
       inkscape:connector-curvature="0"
       sodipodi:nodetypes="ccccccccccccccc" />
    <path
       style="fill:#e9afaf;fill-opacity:1;stroke:#000000;stroke-width:1.96688712;stroke-miterlimit:4;stroke-opacity:1"
       d="m 472.40411,840.83987 24.99635,1.61618 24.85677,-0.74323 22.79381,-0.49294 1.33403,12.0167 0.40145,13.46093 -0.11504,12.5163 -1.6209,11.1789 -23.20398,1.35664 -24.22569,-0.48447 -24.90139,-1.08314 -24.52354,1.47873 -1.6355,-12.77893 0.81103,-11.54661 0.38207,-14.22029 -0.81019,-11.78531 z"
       id="rect4716-0"
       inkscape:connector-curvature="0"
       sodipodi:nodetypes="ccccccccccccccccc" />
    <path
       style="fill:#c83737;fill-opacity:1;stroke:#000000;stroke-width:1.96688712;stroke-miterlimit:4;stroke-opacity:1"
       d="m 520.84172,890.06608 25.76638,0.24182 24.17016,1.56695 24.60568,-0.007 -0.61878,10.42797 1.23027,13.44647 -0.27788,12.79274 0.26512,11.32623 -25.05878,-0.60098 -25.34527,-0.0816 -23.57659,1.60495 -24.49088,-0.1224 0.13187,-13.0756 -0.4737,-11.19268 -1.17503,-12.45631 0.13156,-12.7832 z"
       id="rect4728-6"
       inkscape:connector-curvature="0"
       sodipodi:nodetypes="ccccccccccccccccc" />
    <path
       style="fill:#a02c2c;fill-opacity:1;stroke:#000000;stroke-width:1.96688712;stroke-miterlimit:4;stroke-opacity:1"
       d="m 472.2836,941.08753 24.09756,-1.9006 25.85917,0.74162 24.59767,0.31238 -1.80994,12.6942 1.70575,12.2266 -0.44931,10.9501 0.55686,13.27 -25.30632,0.8597 -25.47857,-0.1962 -24.62362,-1.4715 -24.67781,1.3401 1.67026,-13.2925 0.0308,-11.6208 -1.53958,-11.8085 1.5569,-12.8911 z"
       id="rect4740-8"
       inkscape:connector-curvature="0"
       sodipodi:nodetypes="ccccccccccccccccc" />
    <path
       style="fill:#c83737;fill-opacity:1;stroke:#000000;stroke-width:1.96688712;stroke-miterlimit:4;stroke-opacity:1"
       d="m 560.73184,987.21098 -23.86855,0.3413 -24.43083,0.2464 -24.95197,-0.4301 -1.44129,13.49932 -0.0674,11.7769 0.86994,11.4505 -0.50529,12.4992 24.47818,0.099 26.18977,1.0989 23.2493,0.4481 26.01812,-0.9355 -1.93091,-12.4884 -0.0332,-12.078 1.95889,-12.3696 -0.98155,-12.73492 z"
       id="rect4720-4"
       inkscape:connector-curvature="0"
       sodipodi:nodetypes="ccccccccccccccccc" />
    <path
       style="fill:#a02c2c;fill-opacity:1;stroke:#000000;stroke-width:1.96688712;stroke-miterlimit:4;stroke-opacity:1"
       d="m 464.01818,989.44368 -24.6906,0.2506 -25.01093,0.3881 -25.8,-1.4713 1.77524,12.85482 -0.93142,11.3322 -0.18645,14.2493 -0.81502,11.5744 24.65479,-0.6927 24.48367,0.4271 25.90109,0.9359 25.21682,-1.1285 -0.52666,-12.9721 -0.43306,-12.3948 0.96272,-11.1217 -1.60415,-12.29082 z"
       id="rect4722-3"
       inkscape:connector-curvature="0"
       sodipodi:nodetypes="ccccccccccccccccc" />
    <path
       style="fill:#a02c2c;fill-opacity:1;stroke:#000000;stroke-width:1.96688711999999999;stroke-miterlimit:4;stroke-opacity:1"
       d="m 374.76274,989.31775 -21.97736,4.47328 -31.05967,-3.7658 -32.24656,-1.22965 -0.19293,11.53552 1.62731,13.1815 -1.58128,11.8947 0.67738,11.0072 24.03179,0.3825 24.40456,0.5784 26.54601,-0.1257 24.57021,0.3271 -0.1817,-11.9032 0.16614,-13.1654 -0.77377,-11.0527 -0.17364,-13.02332 z"
       id="rect4724-3"
       inkscape:connector-curvature="0"
       sodipodi:nodetypes="ccccccccccccccccc" />
    <path
       style="fill:#c83737;fill-opacity:1;stroke:#000000;stroke-width:1.96688711999999999;stroke-miterlimit:4;stroke-opacity:1"
       d="m 264.59432,988.86127 -25.14953,0.47233 -21.83008,0.32831 -24.77773,-1.13103 -0.0321,11.54262 -1.68337,13.291 1.72397,12.0213 -1.34867,12.8721 24.48261,-0.056 26.0573,-1.0829 22.86922,-0.3699 26.06186,1.2976 0.27235,-12.9412 -0.34638,-11.5751 0.31071,-13.307 -0.72895,-11.27702 z"
       id="rect4726-1"
       inkscape:connector-curvature="0"
       sodipodi:nodetypes="ccccccccccccccccc" />
    <path
       style="fill:#501616;fill-opacity:1;stroke:#000000;stroke-width:1.96688712;stroke-miterlimit:4;stroke-opacity:1"
       d="m 166.40698,988.54218 -24.1214,0.5237 -25.06361,-1.1839 -22.69874,0.548 -0.12927,12.59172 0.0745,12.1549 0.003,11.5076 -0.65193,13.6329 25.16838,-0.429 22.82182,-0.8397 26.38947,0.7713 23.96351,0.4977 0.51516,-13.8618 0.21656,-11.6194 -0.94452,-13.33181 0.40264,-10.94951 z"
       id="rect4728-9"
       inkscape:connector-curvature="0"
       sodipodi:nodetypes="ccccccccccccccccc" />
    <path
       style="fill:#c83737;fill-opacity:1;stroke:#000000;stroke-width:1.96688712;stroke-miterlimit:4;stroke-opacity:1"
       d="m 69.41654,987.31158 -25.76638,0.2419 -25.79487,0.49624 0.61878,10.42801 -1.23027,13.44637 0.27788,12.7928 -0.26512,11.3262 27.42308,0.3777 23.57659,1.605 24.49088,-0.1224 -0.13187,-13.0756 0.4737,-11.1927 1.17503,-12.4563 -0.13156,-12.78322 z"
       id="rect4728-6-5"
       inkscape:connector-curvature="0"
       sodipodi:nodetypes="ccccccccccccccc" />
    <g
       id="g7696"
       transform="matrix(0.85000343,0,0,0.85000343,51.346481,146.42043)">
      <path
         inkscape:connector-curvature="0"
         id="path7153"
         d="m 355.85147,976.17142 c -3.13154,1.10831 -5.31327,5.74277 -1.74811,7.77191 3.3383,2.133 5.6168,-1.88943 4.66257,-4.81669 -0.16668,-1.49134 -1.21673,-3.13017 -2.91446,-2.95522 z"
         style="fill:#ffffff;stroke:none" />
      <path
         inkscape:connector-curvature="0"
         id="path7676"
         d="m 345.0681,977.23208 c -4.64366,0.26363 -2.91815,8.56662 1.54169,6.43721 3.5827,-1.01302 2.67233,-8.2872 -1.54169,-6.43721 z"
         style="fill:#ffffff;stroke:none" />
    </g>
    <path
       style="fill:#552200;stroke:#000000;stroke-width:2;stroke-linecap:butt;stroke-linejoin:miter;stroke-miterlimit:4;stroke-opacity:1;stroke-dasharray:none"
       d="m 365.375,991.79967 c 1.1584,6.38538 -4.40656,19.02883 -10.63569,27.17473 -1.41668,1.8526 -2.09343,2.3004 -5.66735,4.4541 2.60014,-0.4257 12.01414,-8.1651 12.91783,-9.6473 3.16251,-5.1869 3.46498,-5.2796 5.24913,-9.9225 1.06839,-2.7803 2.48105,-6.63157 2.22809,-12.49957 -1.55402,0.0411 -1.34224,0.057 -4.09201,0.44054 z"
       id="path7700"
       inkscape:connector-curvature="0"
       sodipodi:nodetypes="cscsscc" />
  </g>
</svg>
