<?xml version="1.0" encoding="UTF-8" standalone="no"?>
<!-- Created with Inkscape (http://www.inkscape.org/) -->

<svg
   xmlns:dc="http://purl.org/dc/elements/1.1/"
   xmlns:cc="http://creativecommons.org/ns#"
   xmlns:rdf="http://www.w3.org/1999/02/22-rdf-syntax-ns#"
   xmlns:svg="http://www.w3.org/2000/svg"
   xmlns="http://www.w3.org/2000/svg"
   xmlns:sodipodi="http://sodipodi.sourceforge.net/DTD/sodipodi-0.dtd"
   xmlns:inkscape="http://www.inkscape.org/namespaces/inkscape"
   inkscape:export-ydpi="90"
   inkscape:export-xdpi="90"
   inkscape:export-filename="/home/micha/Programmieren/git/platformer/images/world/world2.png"
   sodipodi:docname="world2.svg"
   inkscape:version="0.91 r13725"
   version="1.1"
   id="svg2"
   height="360"
   width="820">
  <sodipodi:namedview
     id="base"
     pagecolor="#ffffff"
     bordercolor="#666666"
     borderopacity="1.0"
     inkscape:pageopacity="0"
     inkscape:pageshadow="2"
     inkscape:zoom="1.0000001"
     inkscape:cx="436.43551"
     inkscape:cy="124.21452"
     inkscape:document-units="px"
     inkscape:current-layer="layer1"
     showgrid="false"
     inkscape:showpageshadow="true"
     inkscape:window-width="1280"
     inkscape:window-height="750"
     inkscape:window-x="0"
     inkscape:window-y="25"
     inkscape:window-maximized="1"
     showguides="true"
     inkscape:guide-bbox="true">
    <inkscape:grid
       originy="0px"
       originx="0px"
       spacingy="5px"
       spacingx="5px"
       snapvisiblegridlinesonly="true"
       enabled="true"
       visible="true"
       empspacing="5"
       id="grid2985"
       type="xygrid" />
  </sodipodi:namedview>
  <defs
     id="defs4">
    <inkscape:path-effect
       effect="skeletal"
       id="path-effect8298"
       is_visible="true"
       pattern="m 4.4999999,552.29967 0,10 10.0000001,-5 z"
       copytype="single_stretched"
       prop_scale="0.4"
       scale_y_rel="false"
       spacing="0"
       normal_offset="0"
       tang_offset="0"
       prop_units="false"
       vertical_pattern="false"
       fuse_tolerance="0" />
    <inkscape:path-effect
       effect="skeletal"
       id="path-effect8295"
       is_visible="true"
       pattern="m 9.8749998,552.48717 0,10 10.0000002,-5 z"
       copytype="single_stretched"
       prop_scale="0.4"
       scale_y_rel="false"
       spacing="0"
       normal_offset="0"
       tang_offset="0"
       prop_units="false"
       vertical_pattern="false"
       fuse_tolerance="0" />
    <inkscape:path-effect
       effect="skeletal"
       id="path-effect8292"
       is_visible="true"
       pattern="m 18.0625,552.73717 0,10 10,-5 z"
       copytype="single_stretched"
       prop_scale="0.4"
       scale_y_rel="false"
       spacing="0"
       normal_offset="0"
       tang_offset="0"
       prop_units="false"
       vertical_pattern="false"
       fuse_tolerance="0" />
    <inkscape:path-effect
       effect="skeletal"
       id="path-effect8289"
       is_visible="true"
       pattern="m 14.125,552.61217 0,10 10,-5 z"
       copytype="single_stretched"
       prop_scale="0.4"
       scale_y_rel="false"
       spacing="0"
       normal_offset="0"
       tang_offset="0"
       prop_units="false"
       vertical_pattern="false"
       fuse_tolerance="0" />
    <inkscape:path-effect
       effect="skeletal"
       id="path-effect8286"
       is_visible="true"
       pattern="m 21.874999,552.67467 0,10 10,-5 z"
       copytype="single_stretched"
       prop_scale="0.4"
       scale_y_rel="false"
       spacing="0"
       normal_offset="0"
       tang_offset="0"
       prop_units="false"
       vertical_pattern="false"
       fuse_tolerance="0" />
    <inkscape:path-effect
       effect="skeletal"
       id="path-effect8283"
       is_visible="true"
       pattern="m 26.624999,552.29967 0,10 10,-5 z"
       copytype="single_stretched"
       prop_scale="0.4"
       scale_y_rel="false"
       spacing="0"
       normal_offset="0"
       tang_offset="0"
       prop_units="false"
       vertical_pattern="false"
       fuse_tolerance="0" />
    <inkscape:path-effect
       effect="skeletal"
       id="path-effect8280"
       is_visible="true"
       pattern="m -0.1875,552.42467 0,10 10,-5 z"
       copytype="single_stretched"
       prop_scale="0.4"
       scale_y_rel="false"
       spacing="0"
       normal_offset="0"
       tang_offset="0"
       prop_units="false"
       vertical_pattern="false"
       fuse_tolerance="0" />
    <inkscape:path-effect
       effect="skeletal"
       id="path-effect8277"
       is_visible="true"
       pattern="m -4.9374999,552.42467 0,10 10,-5 z"
       copytype="single_stretched"
       prop_scale="0.4"
       scale_y_rel="false"
       spacing="0"
       normal_offset="0"
       tang_offset="0"
       prop_units="false"
       vertical_pattern="false"
       fuse_tolerance="0" />
    <inkscape:path-effect
       effect="skeletal"
       id="path-effect8274"
       is_visible="true"
       pattern="m -7.5624998,552.36217 0,10 10,-5 z"
       copytype="single_stretched"
       prop_scale="0.4"
       scale_y_rel="false"
       spacing="0"
       normal_offset="0"
       tang_offset="0"
       prop_units="false"
       vertical_pattern="false"
       fuse_tolerance="0" />
    <inkscape:path-effect
       fuse_tolerance="0"
       vertical_pattern="false"
       prop_units="false"
       tang_offset="0"
       normal_offset="0"
       spacing="0"
       scale_y_rel="false"
       prop_scale="0.4"
       copytype="single_stretched"
       pattern="m -7.5624998,552.36217 0,10 10,-5 z"
       is_visible="true"
       id="path-effect8271"
       effect="skeletal" />
    <inkscape:path-effect
       fuse_tolerance="0"
       vertical_pattern="false"
       prop_units="false"
       tang_offset="0"
       normal_offset="0"
       spacing="0"
       scale_y_rel="false"
       prop_scale="0.4"
       copytype="single_stretched"
       pattern="m -7.5624998,552.36217 0,10 10,-5 z"
       is_visible="true"
       id="path-effect4594"
       effect="skeletal" />
    <inkscape:path-effect
       fuse_tolerance="0"
       vertical_pattern="false"
       prop_units="false"
       tang_offset="0"
       normal_offset="0"
       spacing="0"
       scale_y_rel="false"
       prop_scale="0.4"
       copytype="single_stretched"
       pattern="m -4.9374999,552.42467 0,10 10,-5 z"
       is_visible="true"
       id="path-effect4590"
       effect="skeletal" />
    <inkscape:path-effect
       fuse_tolerance="0"
       vertical_pattern="false"
       prop_units="false"
       tang_offset="0"
       normal_offset="0"
       spacing="0"
       scale_y_rel="false"
       prop_scale="0.4"
       copytype="single_stretched"
       pattern="m -0.1875,552.42467 0,10 10,-5 z"
       is_visible="true"
       id="path-effect4586"
       effect="skeletal" />
    <inkscape:path-effect
       fuse_tolerance="0"
       vertical_pattern="false"
       prop_units="false"
       tang_offset="0"
       normal_offset="0"
       spacing="0"
       scale_y_rel="false"
       prop_scale="0.4"
       copytype="single_stretched"
       pattern="m 26.624999,552.29967 0,10 10,-5 z"
       is_visible="true"
       id="path-effect4582"
       effect="skeletal" />
    <inkscape:path-effect
       fuse_tolerance="0"
       vertical_pattern="false"
       prop_units="false"
       tang_offset="0"
       normal_offset="0"
       spacing="0"
       scale_y_rel="false"
       prop_scale="0.4"
       copytype="single_stretched"
       pattern="m 21.874999,552.67467 0,10 10,-5 z"
       is_visible="true"
       id="path-effect4578"
       effect="skeletal" />
    <inkscape:path-effect
       fuse_tolerance="0"
       vertical_pattern="false"
       prop_units="false"
       tang_offset="0"
       normal_offset="0"
       spacing="0"
       scale_y_rel="false"
       prop_scale="0.4"
       copytype="single_stretched"
       pattern="m 14.125,552.61217 0,10 10,-5 z"
       is_visible="true"
       id="path-effect4574"
       effect="skeletal" />
    <inkscape:path-effect
       fuse_tolerance="0"
       vertical_pattern="false"
       prop_units="false"
       tang_offset="0"
       normal_offset="0"
       spacing="0"
       scale_y_rel="false"
       prop_scale="0.4"
       copytype="single_stretched"
       pattern="m 18.0625,552.73717 0,10 10,-5 z"
       is_visible="true"
       id="path-effect4570"
       effect="skeletal" />
    <inkscape:path-effect
       fuse_tolerance="0"
       vertical_pattern="false"
       prop_units="false"
       tang_offset="0"
       normal_offset="0"
       spacing="0"
       scale_y_rel="false"
       prop_scale="0.4"
       copytype="single_stretched"
       pattern="m 9.8749998,552.48717 0,10 10.0000002,-5 z"
       is_visible="true"
       id="path-effect4566"
       effect="skeletal" />
    <inkscape:path-effect
       fuse_tolerance="0"
       vertical_pattern="false"
       prop_units="false"
       tang_offset="0"
       normal_offset="0"
       spacing="0"
       scale_y_rel="false"
       prop_scale="0.4"
       copytype="single_stretched"
       pattern="m 4.4999999,552.29967 0,10 10.0000001,-5 z"
       is_visible="true"
       id="path-effect4562"
       effect="skeletal" />
    <inkscape:path-effect
       effect="skeletal"
       id="path-effect4546"
       is_visible="true"
       pattern="M 0,0 0,10 10,5 z"
       copytype="single_stretched"
       prop_scale="1"
       scale_y_rel="false"
       spacing="0"
       normal_offset="0"
       tang_offset="0"
       prop_units="false"
       vertical_pattern="false"
       fuse_tolerance="0" />
    <inkscape:path-effect
       effect="skeletal"
       id="path-effect4542"
       is_visible="true"
       pattern="M 0,0 0,10 10,5 z"
       copytype="single_stretched"
       prop_scale="1"
       scale_y_rel="false"
       spacing="0"
       normal_offset="0"
       tang_offset="0"
       prop_units="false"
       vertical_pattern="false"
       fuse_tolerance="0" />
    <inkscape:path-effect
       effect="skeletal"
       id="path-effect4538"
       is_visible="true"
       pattern="M 0,0 0,10 10,5 z"
       copytype="single_stretched"
       prop_scale="1"
       scale_y_rel="false"
       spacing="0"
       normal_offset="0"
       tang_offset="0"
       prop_units="false"
       vertical_pattern="false"
       fuse_tolerance="0" />
    <inkscape:path-effect
       effect="skeletal"
       id="path-effect4534"
       is_visible="true"
       pattern="m -7.5624998,552.36217 0,10 10,-5 z"
       copytype="single_stretched"
       prop_scale="0.4"
       scale_y_rel="false"
       spacing="0"
       normal_offset="0"
       tang_offset="0"
       prop_units="false"
       vertical_pattern="false"
       fuse_tolerance="0" />
    <inkscape:path-effect
       effect="skeletal"
       id="path-effect4220"
       is_visible="true"
       pattern="m 0,552.36217 0,10 10,-5 z"
       copytype="single_stretched"
       prop_scale="1"
       scale_y_rel="false"
       spacing="0"
       normal_offset="0"
       tang_offset="0"
       prop_units="false"
       vertical_pattern="false"
       fuse_tolerance="0" />
    <inkscape:path-effect
       effect="skeletal"
       id="path-effect6242"
       is_visible="true"
       pattern="M 0,5 10,10 10,0 z"
       copytype="single_stretched"
       prop_scale="1"
       scale_y_rel="false"
       spacing="0"
       normal_offset="0"
       tang_offset="0"
       prop_units="false"
       vertical_pattern="false"
       fuse_tolerance="0" />
    <inkscape:path-effect
       effect="skeletal"
       id="path-effect6238"
       is_visible="true"
       pattern="M 0,5 10,10 10,0 z"
       copytype="single_stretched"
       prop_scale="1"
       scale_y_rel="false"
       spacing="0"
       normal_offset="0"
       tang_offset="0"
       prop_units="false"
       vertical_pattern="false"
       fuse_tolerance="0" />
    <inkscape:path-effect
       effect="skeletal"
       id="path-effect6234"
       is_visible="true"
       pattern="M 0,0 0,10 10,5 z"
       copytype="single_stretched"
       prop_scale="1"
       scale_y_rel="false"
       spacing="0"
       normal_offset="0"
       tang_offset="0"
       prop_units="false"
       vertical_pattern="false"
       fuse_tolerance="0" />
    <inkscape:path-effect
       effect="skeletal"
       id="path-effect6230"
       is_visible="true"
       pattern="M 0,0 0,10 10,5 z"
       copytype="single_stretched"
       prop_scale="1"
       scale_y_rel="false"
       spacing="0"
       normal_offset="0"
       tang_offset="0"
       prop_units="false"
       vertical_pattern="false"
       fuse_tolerance="0" />
    <inkscape:path-effect
       fuse_tolerance="0"
       vertical_pattern="false"
       prop_units="false"
       tang_offset="0"
       normal_offset="0"
       spacing="0"
       scale_y_rel="false"
       prop_scale="0.4"
       copytype="single_stretched"
       pattern="m 4.4999999,552.29967 0,10 10.0000001,-5 z"
       is_visible="true"
       id="path-effect4562-4"
       effect="skeletal" />
    <inkscape:path-effect
       fuse_tolerance="0"
       vertical_pattern="false"
       prop_units="false"
       tang_offset="0"
       normal_offset="0"
       spacing="0"
       scale_y_rel="false"
       prop_scale="0.4"
       copytype="single_stretched"
       pattern="m 9.8749998,552.48717 0,10 10.0000002,-5 z"
       is_visible="true"
       id="path-effect4566-8"
       effect="skeletal" />
    <inkscape:path-effect
       fuse_tolerance="0"
       vertical_pattern="false"
       prop_units="false"
       tang_offset="0"
       normal_offset="0"
       spacing="0"
       scale_y_rel="false"
       prop_scale="0.4"
       copytype="single_stretched"
       pattern="m 18.0625,552.73717 0,10 10,-5 z"
       is_visible="true"
       id="path-effect4570-7"
       effect="skeletal" />
    <inkscape:path-effect
       fuse_tolerance="0"
       vertical_pattern="false"
       prop_units="false"
       tang_offset="0"
       normal_offset="0"
       spacing="0"
       scale_y_rel="false"
       prop_scale="0.4"
       copytype="single_stretched"
       pattern="m 14.125,552.61217 0,10 10,-5 z"
       is_visible="true"
       id="path-effect4574-0"
       effect="skeletal" />
    <inkscape:path-effect
       fuse_tolerance="0"
       vertical_pattern="false"
       prop_units="false"
       tang_offset="0"
       normal_offset="0"
       spacing="0"
       scale_y_rel="false"
       prop_scale="0.4"
       copytype="single_stretched"
       pattern="m 21.874999,552.67467 0,10 10,-5 z"
       is_visible="true"
       id="path-effect4578-2"
       effect="skeletal" />
    <inkscape:path-effect
       fuse_tolerance="0"
       vertical_pattern="false"
       prop_units="false"
       tang_offset="0"
       normal_offset="0"
       spacing="0"
       scale_y_rel="false"
       prop_scale="0.4"
       copytype="single_stretched"
       pattern="m 26.624999,552.29967 0,10 10,-5 z"
       is_visible="true"
       id="path-effect4582-5"
       effect="skeletal" />
    <inkscape:path-effect
       fuse_tolerance="0"
       vertical_pattern="false"
       prop_units="false"
       tang_offset="0"
       normal_offset="0"
       spacing="0"
       scale_y_rel="false"
       prop_scale="0.4"
       copytype="single_stretched"
       pattern="m -0.1875,552.42467 0,10 10,-5 z"
       is_visible="true"
       id="path-effect4586-5"
       effect="skeletal" />
    <inkscape:path-effect
       fuse_tolerance="0"
       vertical_pattern="false"
       prop_units="false"
       tang_offset="0"
       normal_offset="0"
       spacing="0"
       scale_y_rel="false"
       prop_scale="0.4"
       copytype="single_stretched"
       pattern="m -4.9374999,552.42467 0,10 10,-5 z"
       is_visible="true"
       id="path-effect4590-6"
       effect="skeletal" />
    <inkscape:path-effect
       fuse_tolerance="0"
       vertical_pattern="false"
       prop_units="false"
       tang_offset="0"
       normal_offset="0"
       spacing="0"
       scale_y_rel="false"
       prop_scale="0.4"
       copytype="single_stretched"
       pattern="m -7.5624998,552.36217 0,10 10,-5 z"
       is_visible="true"
       id="path-effect4594-6"
       effect="skeletal" />
    <inkscape:path-effect
       effect="skeletal"
       id="path-effect4534-2"
       is_visible="true"
       pattern="m -7.5624998,552.36217 0,10 10,-5 z"
       copytype="single_stretched"
       prop_scale="0.4"
       scale_y_rel="false"
       spacing="0"
       normal_offset="0"
       tang_offset="0"
       prop_units="false"
       vertical_pattern="false"
       fuse_tolerance="0" />
    <inkscape:path-effect
       effect="skeletal"
       id="path-effect8298-7"
       is_visible="true"
       pattern="m 4.4999999,552.29967 0,10 10.0000001,-5 z"
       copytype="single_stretched"
       prop_scale="0.4"
       scale_y_rel="false"
       spacing="0"
       normal_offset="0"
       tang_offset="0"
       prop_units="false"
       vertical_pattern="false"
       fuse_tolerance="0" />
    <inkscape:path-effect
       effect="skeletal"
       id="path-effect8295-2"
       is_visible="true"
       pattern="m 9.8749998,552.48717 0,10 10.0000002,-5 z"
       copytype="single_stretched"
       prop_scale="0.4"
       scale_y_rel="false"
       spacing="0"
       normal_offset="0"
       tang_offset="0"
       prop_units="false"
       vertical_pattern="false"
       fuse_tolerance="0" />
    <inkscape:path-effect
       effect="skeletal"
       id="path-effect8292-1"
       is_visible="true"
       pattern="m 18.0625,552.73717 0,10 10,-5 z"
       copytype="single_stretched"
       prop_scale="0.4"
       scale_y_rel="false"
       spacing="0"
       normal_offset="0"
       tang_offset="0"
       prop_units="false"
       vertical_pattern="false"
       fuse_tolerance="0" />
    <inkscape:path-effect
       effect="skeletal"
       id="path-effect8289-8"
       is_visible="true"
       pattern="m 14.125,552.61217 0,10 10,-5 z"
       copytype="single_stretched"
       prop_scale="0.4"
       scale_y_rel="false"
       spacing="0"
       normal_offset="0"
       tang_offset="0"
       prop_units="false"
       vertical_pattern="false"
       fuse_tolerance="0" />
    <inkscape:path-effect
       effect="skeletal"
       id="path-effect8286-7"
       is_visible="true"
       pattern="m 21.874999,552.67467 0,10 10,-5 z"
       copytype="single_stretched"
       prop_scale="0.4"
       scale_y_rel="false"
       spacing="0"
       normal_offset="0"
       tang_offset="0"
       prop_units="false"
       vertical_pattern="false"
       fuse_tolerance="0" />
    <inkscape:path-effect
       effect="skeletal"
       id="path-effect8283-9"
       is_visible="true"
       pattern="m 26.624999,552.29967 0,10 10,-5 z"
       copytype="single_stretched"
       prop_scale="0.4"
       scale_y_rel="false"
       spacing="0"
       normal_offset="0"
       tang_offset="0"
       prop_units="false"
       vertical_pattern="false"
       fuse_tolerance="0" />
    <inkscape:path-effect
       effect="skeletal"
       id="path-effect8280-8"
       is_visible="true"
       pattern="m -0.1875,552.42467 0,10 10,-5 z"
       copytype="single_stretched"
       prop_scale="0.4"
       scale_y_rel="false"
       spacing="0"
       normal_offset="0"
       tang_offset="0"
       prop_units="false"
       vertical_pattern="false"
       fuse_tolerance="0" />
    <inkscape:path-effect
       effect="skeletal"
       id="path-effect8277-1"
       is_visible="true"
       pattern="m -4.9374999,552.42467 0,10 10,-5 z"
       copytype="single_stretched"
       prop_scale="0.4"
       scale_y_rel="false"
       spacing="0"
       normal_offset="0"
       tang_offset="0"
       prop_units="false"
       vertical_pattern="false"
       fuse_tolerance="0" />
    <inkscape:path-effect
       effect="skeletal"
       id="path-effect8274-8"
       is_visible="true"
       pattern="m -7.5624998,552.36217 0,10 10,-5 z"
       copytype="single_stretched"
       prop_scale="0.4"
       scale_y_rel="false"
       spacing="0"
       normal_offset="0"
       tang_offset="0"
       prop_units="false"
       vertical_pattern="false"
       fuse_tolerance="0" />
    <inkscape:path-effect
       fuse_tolerance="0"
       vertical_pattern="false"
       prop_units="false"
       tang_offset="0"
       normal_offset="0"
       spacing="0"
       scale_y_rel="false"
       prop_scale="0.4"
       copytype="single_stretched"
       pattern="m -7.5624998,552.36217 0,10 10,-5 z"
       is_visible="true"
       id="path-effect8271-0"
       effect="skeletal" />
  </defs>
  <metadata
     id="metadata7">
    <rdf:RDF>
      <cc:Work
         rdf:about="">
        <dc:format>image/svg+xml</dc:format>
        <dc:type
           rdf:resource="http://purl.org/dc/dcmitype/StillImage" />
        <dc:title></dc:title>
      </cc:Work>
    </rdf:RDF>
  </metadata>
  <g
     transform="translate(0,-692.36217)"
     id="layer1"
     inkscape:groupmode="layer"
     inkscape:label="Ebene 1">
    <path
       sodipodi:nodetypes="ccccsccsssccc"
       style="fill:#502d16;fill-opacity:1;stroke:none"
       d="m 2.920279,984.81257 c 5,-14.5 11.780856,-26.0112 11.780856,-26.0112 l 27.964174,-61.74268 c 10.5,-19 22.172753,-52.93093 31.672753,-69.93093 50.204578,1.41422 248.715648,-2.32094 455.021578,0.84571 135.63227,2.08186 271.42951,-3.25226 283.76286,-2.25992 0,0 -4.4896,37.85102 -4.31803,56.7358 0,0 -7.70807,28.25775 -12.43503,40.98446 -4.92812,13.2683 -11.30511,28.86582 -16.55635,42.00959 -4.42304,11.0708 -10.13757,26.02548 -14.43502,37.1456 -4.92256,12.7377 -16.24874,47.4542 -16.24874,47.4542 -21.5,-1.25 -625.25458,-6.7271 -735.563236,-2.4844 -1.5,-19.5 -10.645815,-62.74623 -10.645815,-62.74623 z"
       id="path10387"
       inkscape:connector-curvature="0" />
    <path
       inkscape:connector-curvature="0"
       style="fill:#321c0e;fill-opacity:1;stroke:none"
       d="m 812.06428,826.25172 -15.59375,43 -14.5625,40.53125 -15.09375,42.75 -13.03125,40.53125 c 4e-4,0 0.125,0 0.125,0 -2.74844,17.24018 -5.43315,38.69378 -4.6875,56.68748 0.27736,-0.8493 11.29532,-34.578 16.15625,-47.1562 4.29745,-11.12018 10.01446,-26.08548 14.4375,-37.15628 5.25124,-13.14377 11.63438,-28.7317 16.5625,-42 4.72696,-12.72671 12.4375,-41 12.4375,-41 -0.15987,-17.59718 3.59416,-50.46778 4.125,-55.03125 -0.33703,-0.53909 -0.63915,-0.94081 -0.875,-1.15625 z m -62.84375,223.53128 -3.03125,0.1562 c 1.0579,0.03 2.4815,0.067 2.9375,0.094 0,0 0.0909,-0.2413 0.0937,-0.25 z"
       id="path11497" />
    <path
       inkscape:connector-curvature="0"
       style="fill:#6f3e1e;fill-opacity:1;stroke:none"
       d="m 3.189282,985.03297 -0.09375,0.65625 c 0.534027,2.53672 9.015269,42.97978 10.46875,61.87498 107.539368,-4.1361 684.492848,0.9581 732.624998,2.375 l 3.03125,-0.1562 c -4.3e-4,-0.01 4.2e-4,-0.021 0,-0.031 -0.74565,-17.9937 1.93906,-39.4473 4.6875,-56.68753 0,0 -75.4203,-0.1053 -105.5,-0.5 -31.20945,-0.40952 -62.35295,-2.56707 -93.5625,-2.96875 -30.74954,-0.39577 -58.68546,0.506 -89.4375,0.5625 -30.37918,0.0558 -63.59182,2.2803 -93.96875,1.90625 -30.88379,-0.3803 -68.11628,-3.08286 -99,-3.46875 -30.23754,-0.37781 -60.47965,-2.15523 -90.71875,-2.375 -30.90265,-0.2246 -55.44335,0.74773 -86.343748,0.3125 -30.736765,-0.43292 -92.1875,-1.5 -92.1875,-1.5 z"
       id="path11492"
       sodipodi:nodetypes="cccccccssssssscc" />
    <path
       inkscape:connector-curvature="0"
       id="path11505"
       d="m 2.920279,984.81257 c 5,-14.5 11.780856,-26.0112 11.780856,-26.0112 l 27.964174,-61.74268 c 10.5,-19 22.172753,-52.93093 31.672753,-69.93093 50.204578,1.41422 248.715648,-2.32094 455.021578,0.84571 135.63227,2.08186 271.42951,-3.25226 283.76286,-2.25992 0,0 -4.4896,37.85102 -4.31803,56.7358 0,0 -7.70807,28.25775 -12.43503,40.98446 -4.92812,13.2683 -11.30511,28.86582 -16.55635,42.00959 -4.42304,11.0708 -10.13757,26.02548 -14.43502,37.1456 -4.92256,12.7377 -16.24874,47.4542 -16.24874,47.4542 -21.5,-1.25 -625.25458,-6.7271 -735.563236,-2.4844 -1.5,-19.5 -10.645815,-62.74623 -10.645815,-62.74623 z"
       style="fill:none;stroke:#000000;stroke-width:2;stroke-linecap:butt;stroke-linejoin:miter;stroke-miterlimit:4;stroke-dasharray:none;stroke-opacity:1"
       sodipodi:nodetypes="ccccsccsssccc" />
    <path
       sodipodi:nodetypes="cssssssscc"
       style="fill:none;stroke:#000000;stroke-width:2;stroke-linecap:butt;stroke-linejoin:miter;stroke-miterlimit:4;stroke-dasharray:none;stroke-opacity:1"
       d="m 3.176514,985.02354 c 0,0 61.470264,1.08003 92.207028,1.51295 30.900398,0.43523 55.437358,-0.54845 86.340008,-0.32385 30.2391,0.21977 60.4818,1.99518 90.71934,2.37299 30.88372,0.38589 68.11571,3.09205 98.9995,3.47235 30.37693,0.37405 63.58668,-1.84563 93.96586,-1.90148 30.75204,-0.0565 58.67658,-0.95752 89.42612,-0.56175 31.20955,0.40168 62.37954,2.57032 93.58899,2.97984 30.0797,0.3947 105.49547,0.49579 105.49547,0.49579 -2.75,17.25002 -5.46078,38.70102 -4.71078,56.70102"
       id="path10389"
       inkscape:connector-curvature="0" />
    <path
       sodipodi:nodetypes="ccccc"
       style="fill:none;stroke:#000000;stroke-width:2;stroke-linecap:butt;stroke-linejoin:miter;stroke-miterlimit:4;stroke-dasharray:none;stroke-opacity:1"
       d="m 753.72552,993.29785 13.08407,-40.76349 15.08408,-42.76349 14.58407,-40.5135 15.58408,-43.01349"
       id="path10391"
       inkscape:connector-curvature="0" />
    <path
       style="fill:#c8b7b7;stroke:#000000;stroke-width:2;stroke-linecap:butt;stroke-linejoin:miter;stroke-miterlimit:4;stroke-dasharray:none;stroke-opacity:1"
       d="m 44.478653,898.23748 c -1.363633,0.0238 -3.806712,-2.26174 -6.228146,2.4856 -7.968835,14.06077 -15.659254,29.92268 -23.381044,51.94363 -0.765047,2.22231 -0.368959,4.71648 1.992881,4.47697 9.122623,-1.00112 17.800613,-5.18956 27.071526,-5.0625 8.055296,0.11041 15.355809,3.89383 23.341857,4.6875 9.434026,0.93752 19.020907,0.0309 28.53825,0.0625 10.905483,0.0362 21.823333,0.1016 32.728883,0.125 9.46437,0.02 19.01605,0.84388 28.41254,0 7.84051,-0.70415 15.13879,-3.68014 23.0066,-4.1875 9.25484,-0.5968 18.49525,1.49095 27.78394,1.40625 11.55087,-0.10531 22.97974,-2.4647 34.53086,-2.375 10.18231,0.079 20.25496,1.51366 30.34022,2.5625 8.12298,0.84477 16.0651,3.16225 24.2638,3 10.68829,-0.21152 20.65663,-5.33534 31.34598,-5.15625 8.10267,0.13575 15.37374,4.3747 23.46757,4.6875 11.4686,0.44323 22.55404,-4.42028 34.02799,-4.0625 8.10998,0.25289 15.54759,3.85987 23.6352,4.375 11.15138,0.71028 22.37367,-0.80147 33.48321,-1.8125 7.16226,-0.65181 14.14376,-2.26974 21.33035,-2.75 9.48807,-0.63407 19.07455,-0.62203 28.58015,-0.15625 11.69257,0.57295 23.13957,2.96814 34.82421,3.625 9.35794,0.52605 18.83799,1.0492 28.16109,0.25 7.69776,-0.65988 14.85358,-3.42915 22.54564,-4.125 11.26839,-1.01942 22.71889,-0.0383 34.06989,-0.0312 7.58201,0.005 15.18418,-0.24255 22.75517,0.0625 11.78127,0.47469 23.4141,3.1332 35.20136,2.75 7.62738,-0.24796 14.82723,-3.2332 22.46183,-3.25 11.29942,-0.0248 22.05807,3.96191 33.31557,4.6875 7.42612,0.47865 28.95802,0.27887 36.37802,-0.25 2.15153,0.21818 5.92321,-1.00133 6.90832,-4.08813 4.41959,-13.84864 14.67589,-35.91705 18.49112,-49.10739 0.4378,-1.51362 -0.54266,-3.88244 -2.66783,-4.01558 -7.3779,-0.37118 -14.7859,-0.39331 -22.14493,0.0548 -7.46391,0.45455 -28.62004,2.54124 -36.04275,3.28125 -9.94548,0.99152 -20.01678,1.35536 -30.04688,1.5625 -11.1161,0.22957 -22.23788,-0.43905 -33.35749,-0.34375 -8.13226,0.0697 -16.30825,1.33794 -24.38952,0.65625 -9.66291,-0.81509 -18.43894,-5.46427 -28.16109,-5.625 -9.04332,-0.14951 -17.44629,4.10957 -26.48483,4.375 -11.69769,0.34353 -23.0757,-3.6692 -34.7823,-3.625 -7.23534,0.0273 -14.27824,2.05119 -21.49798,2.40625 -9.44196,0.46435 -18.92751,0.076 -28.37063,-0.375 -11.32892,-0.54103 -22.53,-3.33673 -33.86036,-2.8125 -10.04451,0.46474 -19.34877,4.31663 -29.33447,5.25 -8.03013,0.75057 -16.22168,0.53383 -24.3057,0.25 -11.45746,-0.40225 -22.72986,-3.01832 -34.19561,-2.78125 -8.39659,0.17361 -16.45185,2.9574 -24.85049,3.0625 -10.74367,0.13444 -21.27131,-2.418 -31.97457,-3.125 -9.34922,-0.61756 -18.73345,-0.99665 -28.11919,-0.96875 -9.58134,0.0284 -19.16616,0.4903 -28.70587,1.15625 -8.7952,0.61397 -17.44229,2.7033 -26.27531,2.625 -10.24583,-0.0908 -20.10978,-3.13412 -30.34022,-3.5625 -9.52926,-0.39901 -19.10417,0.40879 -28.62206,0.9375 -9.08814,0.50484 -18.10857,1.62565 -27.19725,2.125 -8.67201,0.47646 -17.43259,1.58747 -26.06577,0.8125 -8.99634,-0.80757 -17.10258,-4.87374 -26.107681,-5.625 -8.881469,-0.74095 -17.799397,1.1865 -26.736275,1.1875 -9.590123,10e-4 -19.202354,-1.82247 -28.747781,-1.65625 z"
       id="path6810"
       inkscape:connector-curvature="0"
       sodipodi:nodetypes="ccccssscssssssssssssssssssssscsscsssssssssssssssssssssssscsc" />
    <path
       style="fill:none;stroke:#917d6f;stroke-width:4;stroke-linecap:round;stroke-linejoin:round;stroke-miterlimit:4;stroke-dasharray:none;stroke-dashoffset:0;stroke-opacity:1"
       d="m 752.64858,927.54359 -40.74466,0.82368 -40.04711,-0.56415 c 0,0 -26.22191,0 -33.3089,0 -7.087,0 -42.8867,1.08321 -42.8867,1.08321 0,0 -53.14293,0 -69.79658,-2.12132 -16.16944,-2.05964 -46.06551,1.53321 -63.78298,1.55718 -17.45768,0.0236 -54.67919,0.11592 -89.28478,-0.86089 -20.48114,-0.57812 -82.86819,-0.1385 -102.78979,0.40385 -5.6675,0.15429 -55.50067,-0.39774 -60.46157,0.12132 -4.9609,0.51906 -42.99169,-1.22141 -48.66129,-1.22141 -5.66959,0 -24.80449,0 -41.10458,0 -16.3001,0 -52.443792,1.55718 -52.443792,1.55718 l -14.88271,-0.51907"
       id="path4800"
       inkscape:connector-curvature="0"
       sodipodi:nodetypes="cccscssssssscc" />
    <g
       transform="translate(-1.2121492,0.5492162)"
       id="g13794"
       style="fill:#917d6f;stroke:#917d6f">
      <path
         sodipodi:nodetypes="sssss"
         inkscape:connector-curvature="0"
         id="path13672"
         d="m 45.91236,926.45219 c 0.472756,2.7333 4.46721,4.02968 7.239529,3.93643 2.528942,-0.0851 7.262916,-0.80527 7.622797,-3.30991 0.437081,-3.04194 -4.252622,-4.81811 -7.325762,-4.83368 -3.251026,-0.0165 -8.090647,1.00366 -7.536564,4.20716 z"
         style="fill:#917d6f;stroke:#917d6f;stroke-width:1px;stroke-linecap:butt;stroke-linejoin:miter;stroke-opacity:1" />
      <path
         sodipodi:nodetypes="sssss"
         inkscape:connector-curvature="0"
         id="path13672-4"
         d="m 742.1096,928.0445 c 0.47276,2.7333 4.46721,4.02968 7.23953,3.93643 2.52894,-0.0851 7.26292,-0.80527 7.6228,-3.30991 0.43708,-3.04194 -4.25262,-4.81811 -7.32576,-4.83368 -3.25103,-0.0165 -8.09065,1.00366 -7.53657,4.20716 z"
         style="fill:#917d6f;stroke:#917d6f;stroke-width:1px;stroke-linecap:butt;stroke-linejoin:miter;stroke-opacity:1" />
      <path
         sodipodi:nodetypes="sssss"
         inkscape:connector-curvature="0"
         id="path13672-8"
         d="m 93.076431,927.49529 c 0.472756,2.7333 4.46721,4.02968 7.239529,3.93643 2.52894,-0.0851 7.26292,-0.80527 7.6228,-3.30991 0.43708,-3.04194 -4.25262,-4.81811 -7.32577,-4.83368 -3.251021,-0.0165 -8.090642,1.00366 -7.536559,4.20716 z"
         style="fill:#917d6f;stroke:#917d6f;stroke-width:1px;stroke-linecap:butt;stroke-linejoin:miter;stroke-opacity:1" />
      <path
         sodipodi:nodetypes="sssss"
         inkscape:connector-curvature="0"
         id="path13672-48"
         d="m 142.57643,926.99529 c 0.47276,2.7333 4.46721,4.02968 7.23953,3.93643 2.52894,-0.0851 7.26292,-0.80527 7.6228,-3.30991 0.43708,-3.04194 -4.25263,-4.81811 -7.32577,-4.83368 -3.25102,-0.0165 -8.09064,1.00366 -7.53656,4.20716 z"
         style="fill:#917d6f;stroke:#917d6f;stroke-width:1px;stroke-linecap:butt;stroke-linejoin:miter;stroke-opacity:1" />
      <path
         sodipodi:nodetypes="sssss"
         inkscape:connector-curvature="0"
         id="path13672-3"
         d="m 191.57643,927.49529 c 0.47275,2.7333 4.46721,4.02968 7.23953,3.93643 2.52894,-0.0851 7.26291,-0.80527 7.62279,-3.30991 0.43709,-3.04194 -4.25262,-4.81811 -7.32576,-4.83368 -3.25102,-0.0165 -8.09064,1.00366 -7.53656,4.20716 z"
         style="fill:#917d6f;stroke:#917d6f;stroke-width:1px;stroke-linecap:butt;stroke-linejoin:miter;stroke-opacity:1" />
      <path
         sodipodi:nodetypes="sssss"
         inkscape:connector-curvature="0"
         id="path13672-33"
         d="m 242.57643,928.49529 c 0.47275,2.7333 4.46721,4.02968 7.23953,3.93643 2.52894,-0.0851 7.26291,-0.80527 7.62279,-3.30991 0.43708,-3.04194 -4.25262,-4.81811 -7.32576,-4.83368 -3.25102,-0.0165 -8.09065,1.00366 -7.53656,4.20716 z"
         style="fill:#917d6f;stroke:#917d6f;stroke-width:1px;stroke-linecap:butt;stroke-linejoin:miter;stroke-opacity:1" />
      <path
         sodipodi:nodetypes="sssss"
         inkscape:connector-curvature="0"
         id="path13672-7"
         d="m 291.57643,927.49529 c 0.47275,2.7333 4.46721,4.02968 7.23952,3.93643 2.52895,-0.0851 7.26292,-0.80527 7.6228,-3.30991 0.43708,-3.04194 -4.25262,-4.81811 -7.32576,-4.83368 -3.25103,-0.0165 -8.09065,1.00366 -7.53656,4.20716 z"
         style="fill:#917d6f;stroke:#917d6f;stroke-width:1px;stroke-linecap:butt;stroke-linejoin:miter;stroke-opacity:1" />
      <path
         sodipodi:nodetypes="sssss"
         inkscape:connector-curvature="0"
         id="path13672-6"
         d="m 342.07642,926.99529 c 0.47276,2.7333 4.46721,4.02968 7.23953,3.93643 2.52895,-0.0851 7.26292,-0.80527 7.6228,-3.30991 0.43708,-3.04194 -4.25262,-4.81811 -7.32576,-4.83368 -3.25103,-0.0165 -8.09065,1.00366 -7.53657,4.20716 z"
         style="fill:#917d6f;stroke:#917d6f;stroke-width:1px;stroke-linecap:butt;stroke-linejoin:miter;stroke-opacity:1" />
      <path
         sodipodi:nodetypes="sssss"
         inkscape:connector-curvature="0"
         id="path13672-9"
         d="m 392.07642,927.49529 c 0.47276,2.7333 4.46721,4.02968 7.23953,3.93643 2.52894,-0.0851 7.26292,-0.80527 7.6228,-3.30991 0.43708,-3.04194 -4.25262,-4.81811 -7.32576,-4.83368 -3.25103,-0.0165 -8.09065,1.00366 -7.53657,4.20716 z"
         style="fill:#917d6f;stroke:#917d6f;stroke-width:1px;stroke-linecap:butt;stroke-linejoin:miter;stroke-opacity:1" />
      <path
         sodipodi:nodetypes="sssss"
         inkscape:connector-curvature="0"
         id="path13672-97"
         d="m 441.57642,927.99529 c 0.47276,2.7333 4.46721,4.02968 7.23953,3.93643 2.52894,-0.0851 7.26292,-0.80527 7.6228,-3.30991 0.43708,-3.04194 -4.25262,-4.81811 -7.32576,-4.83368 -3.25103,-0.0165 -8.09065,1.00366 -7.53657,4.20716 z"
         style="fill:#917d6f;stroke:#917d6f;stroke-width:1px;stroke-linecap:butt;stroke-linejoin:miter;stroke-opacity:1" />
      <path
         sodipodi:nodetypes="sssss"
         inkscape:connector-curvature="0"
         id="path13672-93"
         d="m 491.07642,925.99529 c 0.47276,2.7333 4.46721,4.02968 7.23953,3.93643 2.52894,-0.0851 7.26292,-0.80527 7.6228,-3.30991 0.43708,-3.04194 -4.25262,-4.81811 -7.32577,-4.83368 -3.25102,-0.0165 -8.09064,1.00366 -7.53656,4.20716 z"
         style="fill:#917d6f;stroke:#917d6f;stroke-width:1px;stroke-linecap:butt;stroke-linejoin:miter;stroke-opacity:1" />
      <path
         sodipodi:nodetypes="sssss"
         inkscape:connector-curvature="0"
         id="path13672-80"
         d="m 541.57642,928.99529 c 0.47276,2.7333 4.46721,4.02968 7.23953,3.93643 2.52894,-0.0851 7.26291,-0.80527 7.6228,-3.30991 0.43708,-3.04194 -4.25263,-4.81811 -7.32577,-4.83368 -3.25102,-0.0165 -8.09064,1.00366 -7.53656,4.20716 z"
         style="fill:#917d6f;stroke:#917d6f;stroke-width:1px;stroke-linecap:butt;stroke-linejoin:miter;stroke-opacity:1" />
      <path
         sodipodi:nodetypes="sssss"
         inkscape:connector-curvature="0"
         id="path13672-0"
         d="m 590.57642,928.99529 c 0.47275,2.7333 4.46721,4.02968 7.23953,3.93643 2.52894,-0.0851 7.26291,-0.80527 7.62279,-3.30991 0.43709,-3.04194 -4.25262,-4.81811 -7.32576,-4.83368 -3.25102,-0.0165 -8.09064,1.00366 -7.53656,4.20716 z"
         style="fill:#917d6f;stroke:#917d6f;stroke-width:1px;stroke-linecap:butt;stroke-linejoin:miter;stroke-opacity:1" />
      <path
         sodipodi:nodetypes="sssss"
         inkscape:connector-curvature="0"
         id="path13672-486"
         d="m 639.57642,927.99529 c 0.47275,2.7333 4.46721,4.02968 7.23953,3.93643 2.52894,-0.0851 7.26291,-0.80527 7.62279,-3.30991 0.43708,-3.04194 -4.25262,-4.81811 -7.32576,-4.83368 -3.25103,-0.0165 -8.09065,1.00366 -7.53656,4.20716 z"
         style="fill:#917d6f;stroke:#917d6f;stroke-width:1px;stroke-linecap:butt;stroke-linejoin:miter;stroke-opacity:1" />
      <path
         sodipodi:nodetypes="sssss"
         inkscape:connector-curvature="0"
         id="path13672-06"
         d="m 690.07642,927.99529 c 0.47275,2.7333 4.46721,4.02968 7.23952,3.93643 2.52895,-0.0851 7.26292,-0.80527 7.6228,-3.30991 0.43708,-3.04194 -4.25262,-4.81811 -7.32576,-4.83368 -3.25103,-0.0165 -8.09065,1.00366 -7.53656,4.20716 z"
         style="fill:#917d6f;stroke:#917d6f;stroke-width:1px;stroke-linecap:butt;stroke-linejoin:miter;stroke-opacity:1" />
    </g>
  </g>
</svg>
