<?xml version="1.0" encoding="UTF-8" standalone="no"?>
<!-- Created with Inkscape (http://www.inkscape.org/) -->

<svg
   xmlns:dc="http://purl.org/dc/elements/1.1/"
   xmlns:cc="http://creativecommons.org/ns#"
   xmlns:rdf="http://www.w3.org/1999/02/22-rdf-syntax-ns#"
   xmlns:svg="http://www.w3.org/2000/svg"
   xmlns="http://www.w3.org/2000/svg"
   xmlns:sodipodi="http://sodipodi.sourceforge.net/DTD/sodipodi-0.dtd"
   xmlns:inkscape="http://www.inkscape.org/namespaces/inkscape"
   inkscape:export-ydpi="90"
   inkscape:export-xdpi="90"
   inkscape:export-filename="/home/micha/Programmieren/git/platformer/images/world/world1.png"
   sodipodi:docname="world1.svg"
   inkscape:version="0.48.2 r9819"
   version="1.1"
   id="svg2"
   height="360"
   width="600">
  <sodipodi:namedview
     id="base"
     pagecolor="#000000"
     bordercolor="#666666"
     borderopacity="1.0"
     inkscape:pageopacity="0.0"
     inkscape:pageshadow="2"
     inkscape:zoom="1.4142136"
     inkscape:cx="320.20512"
     inkscape:cy="199.71915"
     inkscape:document-units="px"
     inkscape:current-layer="layer1"
     showgrid="false"
     inkscape:showpageshadow="true"
     inkscape:window-width="1280"
     inkscape:window-height="750"
     inkscape:window-x="0"
     inkscape:window-y="25"
     inkscape:window-maximized="1"
     showguides="true"
     inkscape:guide-bbox="true">
    <inkscape:grid
       type="xygrid"
       id="grid2985"
       empspacing="5"
       visible="true"
       enabled="true"
       snapvisiblegridlinesonly="true"
       spacingx="5px"
       spacingy="5px"
       originx="0px"
       originy="0px" />
  </sodipodi:namedview>
  <defs
     id="defs4">
    <inkscape:path-effect
       fuse_tolerance="0"
       vertical_pattern="false"
       prop_units="false"
       tang_offset="0"
       normal_offset="0"
       spacing="0"
       scale_y_rel="false"
       prop_scale="0.4"
       copytype="single_stretched"
       pattern="m 4.4999999,552.29967 0,10 10.0000001,-5 z"
       is_visible="true"
       id="path-effect8298"
       effect="skeletal" />
    <inkscape:path-effect
       fuse_tolerance="0"
       vertical_pattern="false"
       prop_units="false"
       tang_offset="0"
       normal_offset="0"
       spacing="0"
       scale_y_rel="false"
       prop_scale="0.4"
       copytype="single_stretched"
       pattern="m 9.8749998,552.48717 0,10 10.0000002,-5 z"
       is_visible="true"
       id="path-effect8295"
       effect="skeletal" />
    <inkscape:path-effect
       fuse_tolerance="0"
       vertical_pattern="false"
       prop_units="false"
       tang_offset="0"
       normal_offset="0"
       spacing="0"
       scale_y_rel="false"
       prop_scale="0.4"
       copytype="single_stretched"
       pattern="m 18.0625,552.73717 0,10 10,-5 z"
       is_visible="true"
       id="path-effect8292"
       effect="skeletal" />
    <inkscape:path-effect
       fuse_tolerance="0"
       vertical_pattern="false"
       prop_units="false"
       tang_offset="0"
       normal_offset="0"
       spacing="0"
       scale_y_rel="false"
       prop_scale="0.4"
       copytype="single_stretched"
       pattern="m 14.125,552.61217 0,10 10,-5 z"
       is_visible="true"
       id="path-effect8289"
       effect="skeletal" />
    <inkscape:path-effect
       fuse_tolerance="0"
       vertical_pattern="false"
       prop_units="false"
       tang_offset="0"
       normal_offset="0"
       spacing="0"
       scale_y_rel="false"
       prop_scale="0.4"
       copytype="single_stretched"
       pattern="m 21.874999,552.67467 0,10 10,-5 z"
       is_visible="true"
       id="path-effect8286"
       effect="skeletal" />
    <inkscape:path-effect
       fuse_tolerance="0"
       vertical_pattern="false"
       prop_units="false"
       tang_offset="0"
       normal_offset="0"
       spacing="0"
       scale_y_rel="false"
       prop_scale="0.4"
       copytype="single_stretched"
       pattern="m 26.624999,552.29967 0,10 10,-5 z"
       is_visible="true"
       id="path-effect8283"
       effect="skeletal" />
    <inkscape:path-effect
       fuse_tolerance="0"
       vertical_pattern="false"
       prop_units="false"
       tang_offset="0"
       normal_offset="0"
       spacing="0"
       scale_y_rel="false"
       prop_scale="0.4"
       copytype="single_stretched"
       pattern="m -0.1875,552.42467 0,10 10,-5 z"
       is_visible="true"
       id="path-effect8280"
       effect="skeletal" />
    <inkscape:path-effect
       fuse_tolerance="0"
       vertical_pattern="false"
       prop_units="false"
       tang_offset="0"
       normal_offset="0"
       spacing="0"
       scale_y_rel="false"
       prop_scale="0.4"
       copytype="single_stretched"
       pattern="m -4.9374999,552.42467 0,10 10,-5 z"
       is_visible="true"
       id="path-effect8277"
       effect="skeletal" />
    <inkscape:path-effect
       fuse_tolerance="0"
       vertical_pattern="false"
       prop_units="false"
       tang_offset="0"
       normal_offset="0"
       spacing="0"
       scale_y_rel="false"
       prop_scale="0.4"
       copytype="single_stretched"
       pattern="m -7.5624998,552.36217 0,10 10,-5 z"
       is_visible="true"
       id="path-effect8274"
       effect="skeletal" />
    <inkscape:path-effect
       effect="skeletal"
       id="path-effect8271"
       is_visible="true"
       pattern="m -7.5624998,552.36217 0,10 10,-5 z"
       copytype="single_stretched"
       prop_scale="0.4"
       scale_y_rel="false"
       spacing="0"
       normal_offset="0"
       tang_offset="0"
       prop_units="false"
       vertical_pattern="false"
       fuse_tolerance="0" />
    <inkscape:path-effect
       effect="skeletal"
       id="path-effect4594"
       is_visible="true"
       pattern="m -7.5624998,552.36217 0,10 10,-5 z"
       copytype="single_stretched"
       prop_scale="0.4"
       scale_y_rel="false"
       spacing="0"
       normal_offset="0"
       tang_offset="0"
       prop_units="false"
       vertical_pattern="false"
       fuse_tolerance="0" />
    <inkscape:path-effect
       effect="skeletal"
       id="path-effect4590"
       is_visible="true"
       pattern="m -4.9374999,552.42467 0,10 10,-5 z"
       copytype="single_stretched"
       prop_scale="0.4"
       scale_y_rel="false"
       spacing="0"
       normal_offset="0"
       tang_offset="0"
       prop_units="false"
       vertical_pattern="false"
       fuse_tolerance="0" />
    <inkscape:path-effect
       effect="skeletal"
       id="path-effect4586"
       is_visible="true"
       pattern="m -0.1875,552.42467 0,10 10,-5 z"
       copytype="single_stretched"
       prop_scale="0.4"
       scale_y_rel="false"
       spacing="0"
       normal_offset="0"
       tang_offset="0"
       prop_units="false"
       vertical_pattern="false"
       fuse_tolerance="0" />
    <inkscape:path-effect
       effect="skeletal"
       id="path-effect4582"
       is_visible="true"
       pattern="m 26.624999,552.29967 0,10 10,-5 z"
       copytype="single_stretched"
       prop_scale="0.4"
       scale_y_rel="false"
       spacing="0"
       normal_offset="0"
       tang_offset="0"
       prop_units="false"
       vertical_pattern="false"
       fuse_tolerance="0" />
    <inkscape:path-effect
       effect="skeletal"
       id="path-effect4578"
       is_visible="true"
       pattern="m 21.874999,552.67467 0,10 10,-5 z"
       copytype="single_stretched"
       prop_scale="0.4"
       scale_y_rel="false"
       spacing="0"
       normal_offset="0"
       tang_offset="0"
       prop_units="false"
       vertical_pattern="false"
       fuse_tolerance="0" />
    <inkscape:path-effect
       effect="skeletal"
       id="path-effect4574"
       is_visible="true"
       pattern="m 14.125,552.61217 0,10 10,-5 z"
       copytype="single_stretched"
       prop_scale="0.4"
       scale_y_rel="false"
       spacing="0"
       normal_offset="0"
       tang_offset="0"
       prop_units="false"
       vertical_pattern="false"
       fuse_tolerance="0" />
    <inkscape:path-effect
       effect="skeletal"
       id="path-effect4570"
       is_visible="true"
       pattern="m 18.0625,552.73717 0,10 10,-5 z"
       copytype="single_stretched"
       prop_scale="0.4"
       scale_y_rel="false"
       spacing="0"
       normal_offset="0"
       tang_offset="0"
       prop_units="false"
       vertical_pattern="false"
       fuse_tolerance="0" />
    <inkscape:path-effect
       effect="skeletal"
       id="path-effect4566"
       is_visible="true"
       pattern="m 9.8749998,552.48717 0,10 10.0000002,-5 z"
       copytype="single_stretched"
       prop_scale="0.4"
       scale_y_rel="false"
       spacing="0"
       normal_offset="0"
       tang_offset="0"
       prop_units="false"
       vertical_pattern="false"
       fuse_tolerance="0" />
    <inkscape:path-effect
       effect="skeletal"
       id="path-effect4562"
       is_visible="true"
       pattern="m 4.4999999,552.29967 0,10 10.0000001,-5 z"
       copytype="single_stretched"
       prop_scale="0.4"
       scale_y_rel="false"
       spacing="0"
       normal_offset="0"
       tang_offset="0"
       prop_units="false"
       vertical_pattern="false"
       fuse_tolerance="0" />
    <inkscape:path-effect
       fuse_tolerance="0"
       vertical_pattern="false"
       prop_units="false"
       tang_offset="0"
       normal_offset="0"
       spacing="0"
       scale_y_rel="false"
       prop_scale="1"
       copytype="single_stretched"
       pattern="M 0,0 0,10 10,5 z"
       is_visible="true"
       id="path-effect4546"
       effect="skeletal" />
    <inkscape:path-effect
       fuse_tolerance="0"
       vertical_pattern="false"
       prop_units="false"
       tang_offset="0"
       normal_offset="0"
       spacing="0"
       scale_y_rel="false"
       prop_scale="1"
       copytype="single_stretched"
       pattern="M 0,0 0,10 10,5 z"
       is_visible="true"
       id="path-effect4542"
       effect="skeletal" />
    <inkscape:path-effect
       fuse_tolerance="0"
       vertical_pattern="false"
       prop_units="false"
       tang_offset="0"
       normal_offset="0"
       spacing="0"
       scale_y_rel="false"
       prop_scale="1"
       copytype="single_stretched"
       pattern="M 0,0 0,10 10,5 z"
       is_visible="true"
       id="path-effect4538"
       effect="skeletal" />
    <inkscape:path-effect
       fuse_tolerance="0"
       vertical_pattern="false"
       prop_units="false"
       tang_offset="0"
       normal_offset="0"
       spacing="0"
       scale_y_rel="false"
       prop_scale="0.4"
       copytype="single_stretched"
       pattern="m -7.5624998,552.36217 0,10 10,-5 z"
       is_visible="true"
       id="path-effect4534"
       effect="skeletal" />
    <inkscape:path-effect
       fuse_tolerance="0"
       vertical_pattern="false"
       prop_units="false"
       tang_offset="0"
       normal_offset="0"
       spacing="0"
       scale_y_rel="false"
       prop_scale="1"
       copytype="single_stretched"
       pattern="m 0,552.36217 0,10 10,-5 z"
       is_visible="true"
       id="path-effect4220"
       effect="skeletal" />
    <inkscape:path-effect
       fuse_tolerance="0"
       vertical_pattern="false"
       prop_units="false"
       tang_offset="0"
       normal_offset="0"
       spacing="0"
       scale_y_rel="false"
       prop_scale="1"
       copytype="single_stretched"
       pattern="M 0,5 10,10 10,0 z"
       is_visible="true"
       id="path-effect6242"
       effect="skeletal" />
    <inkscape:path-effect
       fuse_tolerance="0"
       vertical_pattern="false"
       prop_units="false"
       tang_offset="0"
       normal_offset="0"
       spacing="0"
       scale_y_rel="false"
       prop_scale="1"
       copytype="single_stretched"
       pattern="M 0,5 10,10 10,0 z"
       is_visible="true"
       id="path-effect6238"
       effect="skeletal" />
    <inkscape:path-effect
       fuse_tolerance="0"
       vertical_pattern="false"
       prop_units="false"
       tang_offset="0"
       normal_offset="0"
       spacing="0"
       scale_y_rel="false"
       prop_scale="1"
       copytype="single_stretched"
       pattern="M 0,0 0,10 10,5 z"
       is_visible="true"
       id="path-effect6234"
       effect="skeletal" />
    <inkscape:path-effect
       fuse_tolerance="0"
       vertical_pattern="false"
       prop_units="false"
       tang_offset="0"
       normal_offset="0"
       spacing="0"
       scale_y_rel="false"
       prop_scale="1"
       copytype="single_stretched"
       pattern="M 0,0 0,10 10,5 z"
       is_visible="true"
       id="path-effect6230"
       effect="skeletal" />
    <inkscape:path-effect
       effect="skeletal"
       id="path-effect4562-4"
       is_visible="true"
       pattern="m 4.4999999,552.29967 0,10 10.0000001,-5 z"
       copytype="single_stretched"
       prop_scale="0.4"
       scale_y_rel="false"
       spacing="0"
       normal_offset="0"
       tang_offset="0"
       prop_units="false"
       vertical_pattern="false"
       fuse_tolerance="0" />
    <inkscape:path-effect
       effect="skeletal"
       id="path-effect4566-8"
       is_visible="true"
       pattern="m 9.8749998,552.48717 0,10 10.0000002,-5 z"
       copytype="single_stretched"
       prop_scale="0.4"
       scale_y_rel="false"
       spacing="0"
       normal_offset="0"
       tang_offset="0"
       prop_units="false"
       vertical_pattern="false"
       fuse_tolerance="0" />
    <inkscape:path-effect
       effect="skeletal"
       id="path-effect4570-7"
       is_visible="true"
       pattern="m 18.0625,552.73717 0,10 10,-5 z"
       copytype="single_stretched"
       prop_scale="0.4"
       scale_y_rel="false"
       spacing="0"
       normal_offset="0"
       tang_offset="0"
       prop_units="false"
       vertical_pattern="false"
       fuse_tolerance="0" />
    <inkscape:path-effect
       effect="skeletal"
       id="path-effect4574-0"
       is_visible="true"
       pattern="m 14.125,552.61217 0,10 10,-5 z"
       copytype="single_stretched"
       prop_scale="0.4"
       scale_y_rel="false"
       spacing="0"
       normal_offset="0"
       tang_offset="0"
       prop_units="false"
       vertical_pattern="false"
       fuse_tolerance="0" />
    <inkscape:path-effect
       effect="skeletal"
       id="path-effect4578-2"
       is_visible="true"
       pattern="m 21.874999,552.67467 0,10 10,-5 z"
       copytype="single_stretched"
       prop_scale="0.4"
       scale_y_rel="false"
       spacing="0"
       normal_offset="0"
       tang_offset="0"
       prop_units="false"
       vertical_pattern="false"
       fuse_tolerance="0" />
    <inkscape:path-effect
       effect="skeletal"
       id="path-effect4582-5"
       is_visible="true"
       pattern="m 26.624999,552.29967 0,10 10,-5 z"
       copytype="single_stretched"
       prop_scale="0.4"
       scale_y_rel="false"
       spacing="0"
       normal_offset="0"
       tang_offset="0"
       prop_units="false"
       vertical_pattern="false"
       fuse_tolerance="0" />
    <inkscape:path-effect
       effect="skeletal"
       id="path-effect4586-5"
       is_visible="true"
       pattern="m -0.1875,552.42467 0,10 10,-5 z"
       copytype="single_stretched"
       prop_scale="0.4"
       scale_y_rel="false"
       spacing="0"
       normal_offset="0"
       tang_offset="0"
       prop_units="false"
       vertical_pattern="false"
       fuse_tolerance="0" />
    <inkscape:path-effect
       effect="skeletal"
       id="path-effect4590-6"
       is_visible="true"
       pattern="m -4.9374999,552.42467 0,10 10,-5 z"
       copytype="single_stretched"
       prop_scale="0.4"
       scale_y_rel="false"
       spacing="0"
       normal_offset="0"
       tang_offset="0"
       prop_units="false"
       vertical_pattern="false"
       fuse_tolerance="0" />
    <inkscape:path-effect
       effect="skeletal"
       id="path-effect4594-6"
       is_visible="true"
       pattern="m -7.5624998,552.36217 0,10 10,-5 z"
       copytype="single_stretched"
       prop_scale="0.4"
       scale_y_rel="false"
       spacing="0"
       normal_offset="0"
       tang_offset="0"
       prop_units="false"
       vertical_pattern="false"
       fuse_tolerance="0" />
    <inkscape:path-effect
       fuse_tolerance="0"
       vertical_pattern="false"
       prop_units="false"
       tang_offset="0"
       normal_offset="0"
       spacing="0"
       scale_y_rel="false"
       prop_scale="0.4"
       copytype="single_stretched"
       pattern="m -7.5624998,552.36217 0,10 10,-5 z"
       is_visible="true"
       id="path-effect4534-2"
       effect="skeletal" />
    <inkscape:path-effect
       fuse_tolerance="0"
       vertical_pattern="false"
       prop_units="false"
       tang_offset="0"
       normal_offset="0"
       spacing="0"
       scale_y_rel="false"
       prop_scale="0.4"
       copytype="single_stretched"
       pattern="m 4.4999999,552.29967 0,10 10.0000001,-5 z"
       is_visible="true"
       id="path-effect8298-7"
       effect="skeletal" />
    <inkscape:path-effect
       fuse_tolerance="0"
       vertical_pattern="false"
       prop_units="false"
       tang_offset="0"
       normal_offset="0"
       spacing="0"
       scale_y_rel="false"
       prop_scale="0.4"
       copytype="single_stretched"
       pattern="m 9.8749998,552.48717 0,10 10.0000002,-5 z"
       is_visible="true"
       id="path-effect8295-2"
       effect="skeletal" />
    <inkscape:path-effect
       fuse_tolerance="0"
       vertical_pattern="false"
       prop_units="false"
       tang_offset="0"
       normal_offset="0"
       spacing="0"
       scale_y_rel="false"
       prop_scale="0.4"
       copytype="single_stretched"
       pattern="m 18.0625,552.73717 0,10 10,-5 z"
       is_visible="true"
       id="path-effect8292-1"
       effect="skeletal" />
    <inkscape:path-effect
       fuse_tolerance="0"
       vertical_pattern="false"
       prop_units="false"
       tang_offset="0"
       normal_offset="0"
       spacing="0"
       scale_y_rel="false"
       prop_scale="0.4"
       copytype="single_stretched"
       pattern="m 14.125,552.61217 0,10 10,-5 z"
       is_visible="true"
       id="path-effect8289-8"
       effect="skeletal" />
    <inkscape:path-effect
       fuse_tolerance="0"
       vertical_pattern="false"
       prop_units="false"
       tang_offset="0"
       normal_offset="0"
       spacing="0"
       scale_y_rel="false"
       prop_scale="0.4"
       copytype="single_stretched"
       pattern="m 21.874999,552.67467 0,10 10,-5 z"
       is_visible="true"
       id="path-effect8286-7"
       effect="skeletal" />
    <inkscape:path-effect
       fuse_tolerance="0"
       vertical_pattern="false"
       prop_units="false"
       tang_offset="0"
       normal_offset="0"
       spacing="0"
       scale_y_rel="false"
       prop_scale="0.4"
       copytype="single_stretched"
       pattern="m 26.624999,552.29967 0,10 10,-5 z"
       is_visible="true"
       id="path-effect8283-9"
       effect="skeletal" />
    <inkscape:path-effect
       fuse_tolerance="0"
       vertical_pattern="false"
       prop_units="false"
       tang_offset="0"
       normal_offset="0"
       spacing="0"
       scale_y_rel="false"
       prop_scale="0.4"
       copytype="single_stretched"
       pattern="m -0.1875,552.42467 0,10 10,-5 z"
       is_visible="true"
       id="path-effect8280-8"
       effect="skeletal" />
    <inkscape:path-effect
       fuse_tolerance="0"
       vertical_pattern="false"
       prop_units="false"
       tang_offset="0"
       normal_offset="0"
       spacing="0"
       scale_y_rel="false"
       prop_scale="0.4"
       copytype="single_stretched"
       pattern="m -4.9374999,552.42467 0,10 10,-5 z"
       is_visible="true"
       id="path-effect8277-1"
       effect="skeletal" />
    <inkscape:path-effect
       fuse_tolerance="0"
       vertical_pattern="false"
       prop_units="false"
       tang_offset="0"
       normal_offset="0"
       spacing="0"
       scale_y_rel="false"
       prop_scale="0.4"
       copytype="single_stretched"
       pattern="m -7.5624998,552.36217 0,10 10,-5 z"
       is_visible="true"
       id="path-effect8274-8"
       effect="skeletal" />
    <inkscape:path-effect
       effect="skeletal"
       id="path-effect8271-0"
       is_visible="true"
       pattern="m -7.5624998,552.36217 0,10 10,-5 z"
       copytype="single_stretched"
       prop_scale="0.4"
       scale_y_rel="false"
       spacing="0"
       normal_offset="0"
       tang_offset="0"
       prop_units="false"
       vertical_pattern="false"
       fuse_tolerance="0" />
  </defs>
  <metadata
     id="metadata7">
    <rdf:RDF>
      <cc:Work
         rdf:about="">
        <dc:format>image/svg+xml</dc:format>
        <dc:type
           rdf:resource="http://purl.org/dc/dcmitype/StillImage" />
        <dc:title />
      </cc:Work>
    </rdf:RDF>
  </metadata>
  <g
     inkscape:label="Ebene 1"
     inkscape:groupmode="layer"
     id="layer1"
     transform="translate(0,-692.36217)">
    <path
       inkscape:connector-curvature="0"
       id="path6533"
       d="m 106.67857,761.76321 c -1.78585,-3.45308 -11.26383,-14.9985 -16.62991,-17.30292 -2.91751,2.61549 -14.71431,13.14961 -16.74651,22.19521 -1.5323,7.02317 -1.15962,30.54096 -0.59756,30.95819 0.67758,0.17574 34.49399,-6.85267 33.99897,-6.61416 -2.05185,0.98863 1.29301,-0.69333 1.37992,-2.53699 0.31517,-6.68621 -0.50269,-23.25277 -1.40491,-26.69933 z"
       style="fill:#1a1a1a;fill-opacity:1;stroke:#000000;stroke-width:2;stroke-miterlimit:4;stroke-opacity:1;stroke-dasharray:none"
       sodipodi:nodetypes="ccccssc" />
    <path
       inkscape:connector-curvature="0"
       id="path6499"
       d="m 89.336808,989.69179 9.059944,31.44591 14.237058,-41.71396 23.94414,2.56701 15.53133,27.59535 10.35422,-21.81957 35.59264,19.89437 23.94414,-26.3119 16.82561,44.9227 17.47275,-47.4897 44.65259,-1.92526 5.82424,44.28096 24.59128,-44.28096 33.00408,49.41496 -3.23569,-55.83249 37.53406,1.2835 2.58855,50.69839 27.82698,-46.84787 23.297,1.92525 -1.29428,42.35572 19.41417,-35.29643 11.6485,21.17783 19.41416,-34.65464 9.70708,3.20876 16.17848,41.07208 25.49161,-155.85586 -494.85082,33.94113 z"
       style="fill:#1a1a1a;fill-opacity:1;stroke:#000000;stroke-width:1.97661579;stroke-linecap:butt;stroke-linejoin:miter;stroke-miterlimit:4;stroke-opacity:1;stroke-dasharray:none"
       sodipodi:nodetypes="cccccccccccccccccccccccccccc" />
    <path
       sodipodi:nodetypes="ccccccccccccccccccccccccccccccccc"
       inkscape:connector-curvature="0"
       id="path6497"
       d="m 55.685586,987.76653 9.059945,31.44587 18.119889,-26.9536 27.17983,17.9691 12.29565,-10.90983 8.4128,21.17783 11.00136,-39.78865 33.65122,3.20876 9.05994,28.23709 11.00136,-28.23709 12.29564,3.20876 7.11854,31.44593 16.17847,-22.46139 26.53269,5.77579 3.88283,26.9536 27.82698,-41.07217 25.23841,0.64175 10.35422,24.38662 1.29428,-32.7294 40.12261,-0.64176 14.23705,26.31186 7.11854,-30.16237 23.94414,4.49227 4.52997,31.4459 7.11853,-12.83507 5.1771,3.20877 18.11989,-24.38662 20.70845,45.56442 1.29428,-44.2809 30.41552,23.7448 14.0354,-129.58583 -472.746528,19.09189 z"
       style="fill:#4d4d4d;stroke:#000000;stroke-width:1.97661579;stroke-linecap:butt;stroke-linejoin:miter;stroke-miterlimit:4;stroke-opacity:1;stroke-dasharray:none" />
    <path
       id="path4144"
       d="m 576.77237,769.92483 c -45.89083,5.55911 -124.30299,22.39212 -169.53608,23.5 -36.71992,0.89937 -129.93034,-17.79912 -164.68318,-16.59375 -23.46948,0.81402 -59.00878,15.5579 -79.78909,17.46875 -28.84934,2.65283 -122.467224,-21.16786 -146.311526,-15 -14.8624741,34.0014 1.331856,23.68479 1.418052,54.0625 -2.321642,5.84524 -5.118277,11.47847 -7.46841,17.3125 -2.3847692,5.92001 -7.0275557,11.8793 -6.9957268,18.4375 0.028486,5.86947 4.3147871,11.04835 6.4285054,16.40625 0.5309984,1.34599 1.7428524,4.52925 4.1271744,11.40386 7.873927,40.04192 27.694365,76.37149 41.505957,108.79916 l 19.619441,-19.88157 16.845264,28.24827 42.070259,-28.24827 33.00413,17.32897 18.10366,-14.74806 45.30203,23.73876 11.01091,-22.46248 11.64011,31.45318 27.82757,-30.1769 16.18747,9.6146 38.80989,-14.09575 14.90048,50.68245 6.46355,-34.0058 6.46354,14.7481 14.24269,-37.21055 19.41924,24.39105 35.57811,-21.18617 38.83849,23.11477 30.43015,-26.97197 23.93801,23.11477 12.0691,-9.5295 c -0.35327,-1.8177 -0.50415,-3.6348 0.0286,-5.36036 3.64997,-7.3387 11.52264,-11.46541 16.64506,-16.70506 2.60388,-2.71312 29.05155,-76.39217 31.76142,-79.52425 3.01054,-3.47963 8.06141,-5.69047 9.45369,-10.0625 1.63139,-5.12286 -1.33525,-10.67152 -2.23738,-15.96875 -0.94861,-5.57027 -2.13549,-11.10364 -3.3403,-16.625 -3.23704,-8.28143 -7.73643,-29.86467 -7.46841,-33.84375 1.47066,-21.83405 1.50274,-24.04259 -6.30244,-45.625 z"
       style="fill:#ac9d93;fill-opacity:1;stroke:#000000;stroke-width:1.97661579;stroke-linecap:butt;stroke-linejoin:miter;stroke-miterlimit:4;stroke-opacity:1;stroke-dasharray:none"
       inkscape:connector-curvature="0"
       sodipodi:nodetypes="csssccssscccccccccccccccccccccccccssscscc" />
    <path
       id="path6322"
       d="m 97.12912,842.85882 c -6.821226,0.0432 -13.599993,1.17241 -20.41992,1.31137 -6.898894,0.14058 -13.79635,-0.49478 -20.696697,-0.48795 -6.460772,0.006 -12.913762,0.54035 -19.374321,0.48795 -7.071301,-0.0574 -14.120109,-0.68348 -21.188743,-0.88441 -0.603663,-0.0172 -1.21071,-0.0141 -1.814421,-0.0304 -1.100855,2.46803 -2.219759,4.93575 -3.229054,7.44125 -2.3847693,5.92001 -7.0434876,11.83144 -7.0116587,18.38965 0.028486,5.86946 4.3136392,11.07994 6.4273549,16.43785 1.3416568,3.40086 2.6515438,6.81285 3.9056168,10.24697 0.632275,-0.0159 1.274037,-0.0573 1.90668,-0.061 7.131134,-0.0423 14.24224,0.76496 21.37326,0.82342 6.786593,0.0556 13.572582,-0.3117 20.358414,-0.42696 6.729406,-0.11429 13.443608,-0.31146 20.173897,-0.27447 6.805301,0.0375 13.614635,0.52816 20.419921,0.48795 6.645671,-0.0393 13.282111,-0.72192 19.927871,-0.70143 6.88233,0.0212 13.75639,0.63484 20.63519,0.85391 6.53332,0.20808 13.05459,0.57348 19.5896,0.42696 6.76327,-0.15164 13.50115,-1.34089 20.26616,-1.34186 6.81257,-9.8e-4 13.57659,1.33893 20.38916,1.34186 6.8365,0.003 13.61417,-1.33698 20.45067,-1.34186 6.79956,-0.005 13.56225,1.09779 20.35842,1.31136 6.5902,0.2071 13.18061,-0.0207 19.77411,-0.0304 6.74557,-0.0101 13.52349,0.16629 20.26615,-0.0305 6.99808,-0.20426 13.94166,-1.21319 20.94272,-1.18938 6.60612,0.0224 13.17148,1.03657 19.77411,1.25037 6.85804,0.22207 13.74626,0.24831 20.60443,0.0304 6.8224,-0.21668 13.59575,-1.15953 20.41993,-1.31137 6.47709,-0.14412 12.95774,0.30609 19.43583,0.39646 7.20614,0.10053 14.41406,8.6e-4 21.61928,0.15249 6.41613,0.13501 12.83417,0.7451 19.25131,0.67093 6.78749,-0.0784 13.53976,-1.13019 20.32766,-1.15888 6.69826,-0.0284 13.38332,0.97395 20.08164,0.9759 7.04662,0.002 14.04986,-1.04178 21.09648,-1.0369 6.48967,0.004 12.94649,0.91218 19.43583,0.9759 6.75905,0.0664 13.53888,-0.4769 20.29691,-0.60993 6.80621,-0.134 13.61368,-0.31551 20.41992,-0.18299 7.07446,0.13775 14.11298,1.03763 21.18874,1.0064 6.44722,-0.0284 12.86649,-1.01215 19.31282,-1.09789 0.92086,-1.2356 1.85314,-2.46537 2.86002,-3.62913 3.01054,-3.47963 8.04885,-5.69196 9.44114,-10.06399 1.63138,-5.12286 -1.34284,-10.68316 -2.24497,-15.98039 -0.94861,-5.57027 -2.14725,-11.09947 -3.35206,-16.62083 -0.44365,-2.03314 -0.92831,-4.04526 -1.41463,-6.06889 -1.79315,0.0181 -3.58866,0.0411 -5.38176,0.061 -6.76766,0.0751 -13.53024,0.16738 -20.29691,0.30497 -6.45884,0.13131 -12.91413,0.47819 -19.37432,0.48795 -6.62976,0.01 -13.23662,-0.4575 -19.86637,-0.45746 -6.92531,5e-5 -13.86366,0.4982 -20.78896,0.48795 -7.05699,-0.0104 -14.10345,-0.36391 -21.15799,-0.54894 -6.35253,-0.16662 -12.71222,-0.56715 -19.06678,-0.51845 -6.79026,0.052 -13.56801,0.88134 -20.35842,0.85391 -7.05259,-0.0285 -14.07572,-0.94187 -21.12723,-1.06739 -6.45195,-0.11483 -12.89308,0.12712 -19.34357,0.30497 -6.82025,0.18806 -13.62841,0.73217 -20.45068,0.82342 -6.70259,0.0897 -13.40923,-0.29897 -20.1124,-0.27447 -7.01084,0.0257 -14.02409,0.42012 -21.03497,0.42695 -6.94791,0.007 -13.87179,-0.39701 -20.81971,-0.39646 -6.61417,5.4e-4 -13.25389,0.54503 -19.86637,0.39646 -6.61873,-0.1487 -13.18544,-1.16568 -19.80486,-1.28087 -7.0996,-0.12355 -14.18088,0.52084 -21.281,0.60994 -6.3071,0.0792 -12.63627,-0.0939 -18.94378,-0.061 -6.7788,0.0353 -13.54975,0.18997 -20.32766,0.30497 -7.06247,0.11983 -14.12543,0.3459 -21.18874,0.39646 -6.54559,0.0468 -13.07795,0.11628 -19.62035,-0.0915 -6.8563,-0.21774 -13.6832,-1.18494 -20.54294,-1.21987 -6.62417,-0.0338 -13.24448,0.7997 -19.86636,0.9759 -6.78302,0.1805 -13.57476,0.24699 -20.35841,0.0914 -7.00814,-0.16064 -13.99436,-1.1118 -21.00423,-1.06739 z"
       style="fill:#e9c6af;fill-opacity:1;stroke:#000000;stroke-width:1.97661579;stroke-linecap:butt;stroke-linejoin:miter;stroke-miterlimit:4;stroke-opacity:1;stroke-dasharray:none"
       inkscape:connector-curvature="0" />
    <path
       style="fill:#000000;fill-opacity:1;stroke:#000000;stroke-width:2.32746959;stroke-linecap:butt;stroke-linejoin:round;stroke-miterlimit:4;stroke-opacity:1;stroke-dasharray:none"
       d="m 176.1875,711.51858 c -3.31456,0.13258 -0.32486,3.37895 -0.71875,4.0625 -1.83367,3.18219 -3.4164,12.10622 -8.71539,13.26072 -3.73329,0.81338 -6.61795,-2.59651 -6.61795,-2.59651 l 2.33854,6.9804 c 4.07292,0.13542 5.47768,2.37622 6.3698,2.51164 0,0 -2.21717,9.1428 -7.6875,11.125 -2.25951,0.81874 -7,-1.65625 -7,-1.65625 l 3.1875,6.75 9.96875,2.78125 c -0.32539,2.61429 -0.63735,5.10519 -0.90625,7.46875 -1.44446,2.09286 -3.38622,4.01819 -5.9375,4.625 -2.143,0.5097 -6.03125,-2.71875 -6.03125,-2.71875 l 3.625,6.59375 7.25,2.1875 c -0.93991,9.66546 -1.59294,18.32728 -2.53125,29.34375 4.32016,2.04583 21.54088,1.62918 27.15625,0 0.46983,-8.90024 -1.11849,-20.07561 -2.71875,-30.28125 l 5.125,-2.3125 2.875,-7.625 c 0,0 -3.88584,4.05499 -6.28125,3.65625 -1.07697,-0.17927 -2.03845,-0.64335 -2.875,-1.28125 -0.16296,-1.04438 -0.3518,-2.19202 -0.5,-3.1875 -0.4024,-2.70291 -1.22726,-5.41831 -2.09375,-8.125 l 7.8125,-2.53125 3.4375,-7.78125 c 0,0 -4.09728,4.21655 -6.5625,3.71875 -5.52492,-1.11562 -6.25,-10.375 -6.25,-10.375 l 7.25552,-2.1777 1.73223,-6.71967 c 0,0 -4.33416,2.4502 -6.98131,1.54198 -4.58771,-1.57401 -5.65481,-10.34309 -7.25644,-13.23836 -0.35871,-0.64845 2.71323,-3.82322 -0.46875,-4 z"
       id="path6459"
       inkscape:connector-curvature="0"
       sodipodi:nodetypes="csscccsccccsccccccccscscccscccssc" />
    <path
       inkscape:connector-curvature="0"
       id="path6461"
       d="m 249.18576,779.24932 c 0.39805,-5.23202 -0.45245,-10.3752 -1.05241,-15.49801 -1.84414,-5.74829 2.17559,-8.90783 6.79157,-10.78796 4.76969,-4.0954 10.00941,-8.93152 16.07275,-10.35714 0.75209,3.77675 -2.73276,15.50177 4.58402,11.24131 5.14728,-2.83864 9.9225,-6.44946 15.33588,-8.74428 3.93022,1.54544 -2.35641,12.98929 3.42326,11.77058 6.68181,-2.91069 12.96038,-6.73878 19.84184,-9.13891 1.25356,2.47353 -1.17732,8.93008 -1.20325,12.9185 0.16018,9.18542 -0.62512,18.32696 -0.33539,27.52017 -0.32717,7.15316 -8.90414,0.90747 -12.9461,0.95401 -7.80275,-3.26206 -16.30163,-3.34388 -24.61683,-3.19788 -8.50387,-0.26916 -16.91832,-2.13311 -24.81847,-5.13787 l -0.68182,-0.65518 -0.395,-0.88729 -5e-5,-5e-5 z"
       style="fill:#000000;fill-opacity:1;stroke:#000000;stroke-width:1.97661579;stroke-linecap:butt;stroke-linejoin:miter;stroke-miterlimit:4;stroke-opacity:1;stroke-dasharray:none" />
    <path
       inkscape:connector-curvature="0"
       id="path6463"
       d="m 465.02325,793.31997 c -0.91425,-6.26643 -1.2875,-0.78967 -1.26765,-7.18594 -0.31283,-5.02219 -2.74107,-12.35266 4.90873,-10.34515 6.63769,-1.06576 -3.9192,-5.99316 -5.99057,-8.48949 -3.89665,-4.69608 -6.73242,-10.36115 -11.78158,-13.96308 -2.2137,-1.57919 -4.12467,-8.43356 -7.04441,-3.73386 -2.03544,6.7526 -8.8226,10.65512 -11.25698,17.09459 -1.42446,3.76803 -4.57114,7.98698 -4.10071,11.40864 9.34879,-0.64103 5.11039,-0.66712 6.49762,10.5713 0.47438,6.2627 -0.63681,1.03017 0.77514,7.15194 3.65111,3.58397 9.83493,-0.86889 14.57965,-0.74277 4.86645,-0.67347 9.72547,-1.62697 14.68076,-1.76618 z"
       style="fill:#000000;fill-opacity:1;stroke:none"
       sodipodi:nodetypes="cccsscsccccc" />
    <path
       id="path6465"
       d="m 543.81052,743.89358 c -1.05884,0.1327 -3.16409,2.47577 -3.81299,4.03125 -3.05111,5.88761 -9.92856,2.82425 -15.09438,3.375 -6.40884,0.40513 -12.79644,-0.44397 -19.19098,-0.15625 -7.59728,0.43957 -17.06523,0.89684 -22.21616,-5.75 0.0275,-0.11655 -1.6991,6.61382 -0.31512,8.75 6.07335,3.36212 13.46788,1.97105 20.16786,1.78125 0.0118,0.1887 0.0205,0.37464 0.0315,0.5625 -0.008,1.47011 -0.003,2.93614 0,4.40625 -0.65273,0.0128 -1.30086,0.0404 -1.95376,-0.0312 -1.79559,0.58056 -7.40153,-1.11161 -5.51465,2.46875 0.72561,2.54209 -0.72884,7.40523 3.87601,6.03125 1.24089,-0.0336 2.48071,-0.10892 3.71845,-0.1875 -0.19862,1.09255 -0.39026,2.17395 0.0315,3.25 0.80401,4.21581 0.8708,8.54386 1.48108,12.78125 -0.55307,2.42974 1.69891,4.98428 3.71845,2.53125 -0.15576,-3.38273 0.36188,-6.84342 -0.37815,-10.15625 0.0315,-2.90949 0.0372,-5.80586 0.0315,-8.71875 2.3267,-0.15727 4.66021,-0.31172 6.99573,-0.28125 3.5249,-0.0729 6.80236,-1.43543 10.33603,-1.46875 1.29507,-0.37681 2.67908,-0.52046 4.03357,-0.6875 -0.0659,1.75372 0.17959,3.44889 0.40966,5.1875 -0.0758,2.14734 -0.71257,4.25899 -0.34663,6.4375 -0.21514,2.08793 -0.92825,4.23103 -1.82772,6.15625 1.5169,0.91437 2.59897,0.70219 3.90753,-0.5 0.015,-5.87311 0.002,-11.75188 0,-17.625 1.08985,-0.20195 2.15475,-0.48677 3.15122,-1 0.0221,-2.35583 -1.03655,-5.20117 -3.15122,-5.40625 -3.5e-4,-1.48911 -3.4e-4,-2.97964 0,-4.46875 1.99718,0.009 3.9959,0.0229 5.98733,0.0312 6.81737,1.97857 5.77861,-4.24138 6.17641,-8.5625 0.65328,-2.15113 0.38321,-2.86087 -0.2521,-2.78125 z m -22.24767,11.28125 c 2.61119,-4.2e-4 5.20614,0.0215 7.81505,0.0312 -0.0547,1.03659 -0.0683,2.03718 0.40966,2.96875 -0.0114,0.68495 -0.0287,1.3775 -0.0315,2.0625 -0.0209,0.0127 -0.0421,0.0182 -0.063,0.0312 -5.95284,0.96175 -12.05062,0.58606 -18.02503,0.46875 -1.19941,-0.21359 -2.41743,-0.19494 -3.62391,-0.125 0.0766,-1.30087 0.34312,-2.62363 -0.22058,-3.875 -0.11722,-0.35382 -0.16879,-0.88454 -0.18908,-1.4375 4.62327,-0.0715 9.28511,-0.12425 13.92843,-0.125 z"
       style="fill:#000000;fill-opacity:1;stroke:none"
       inkscape:connector-curvature="0" />
    <path
       style="fill:#e9c6af;fill-opacity:1;stroke:#000000;stroke-opacity:1;stroke-width:2;stroke-miterlimit:4;stroke-dasharray:none"
       d="m 94.75,95.375 c 0,0 14.86899,14.37992 22.25,18.625 6.90014,3.96852 20,8 22.5,8 2.5,0 23,-4 26.5,-4.5 3.5,-0.5 21.29306,-2.62686 32,-3 6.99774,-0.24387 17,1 21,0.5 4,-0.5 15.86518,-7.64305 24,-11 6.23912,-2.57467 12.28895,-6.280691 19,-7 9.53848,-1.022361 23.5,3.5 28.5,4 5,0.5 32,3.5 35,4.5 3,1 15.5,6 19,8 3.5,2 24,5 26.5,5 2.5,0 23,-2.5 25,-2.5 2,0 32.60467,-4.96994 49,-4.5 6.73848,0.19314 16,2.5 20,3 4,0.5 21,2.5 24.5,2 3.5,-0.5 16.62687,-2.76109 22,-8.5 3.81896,-4.07894 4.40819,-10.443744 5,-16 0.19498,-1.830539 -0.41161,-4.129981 -0.41161,-4.129981 L 525.5,86.309359 c 0,0 1.57463,7.994745 1.5,12.190641 -0.096,5.39719 1.01062,11.89946 -2.5,16 -2.84515,3.32325 -8.24357,2.98922 -12.5,4 -6.23831,1.48142 -12.60785,2.49846 -19,3 -8.47396,0.66488 -17.0034,-0.24028 -25.5,0 -8.84394,0.2501 -17.65371,1.35518 -26.5,1.5 -7.00105,0.11461 -15.5,-1 -21,-0.5 -5.5,0.5 -40.03787,1.74143 -60,0.5 -12.58631,-0.78273 -26.52074,1.20352 -37.5,-5 -2.78739,-1.57494 -3.18525,-5.9745 -6,-7.5 -6.03626,-3.27145 -13.70265,-1.03309 -20.5,-2 -10.74439,-1.52837 -21.23469,-7.3733 -32,-6 -12.05527,1.53786 -21.75845,10.88243 -33,15.5 -7.85044,3.22464 -22,8.5 -24,8.5 -2,0 -53,4 -55,4 -2,0 -23.5,-3 -26.5,-3.5 -3,-0.5 -24.83237,-10.11754 -34.5,-19 -2.655045,-2.43941 -8.625,-15.25 -8.625,-15.25 z"
       id="path5479"
       inkscape:connector-curvature="0"
       transform="translate(0,692.36217)"
       sodipodi:nodetypes="csssssssssssssssssccssssssssssssssssscc" />
    <path
       inkscape:connector-curvature="0"
       id="path6451"
       d="m 93.207925,791.44692 c 0.03455,-7.28724 0.451211,-14.67665 -0.202792,-21.88335 2.348197,-5.1714 9.917457,-4.30129 13.336447,-8.80402 3.84867,-2.97889 8.43938,-11.36711 12.8553,-4.27891 4.09813,5.20766 10.27227,8.31477 14.59214,13.35442 1.04995,4.95701 0.17682,10.08643 0.24082,15.10209 -1.60806,3.97925 2.26226,12.02496 -3.21441,13.05033 -4.29562,-1.25204 -8.70929,-0.73648 -13.02436,-1.85865 -7.39577,-2.10816 -14.8991,-5.06818 -22.736571,-4.05326 l -0.93474,-0.20671 -0.911834,-0.42194 0,0 z"
       style="fill:#000000;fill-opacity:1;stroke:#000000;stroke-width:1.97661579;stroke-linecap:butt;stroke-linejoin:miter;stroke-miterlimit:4;stroke-opacity:1;stroke-dasharray:none" />
    <path
       inkscape:connector-curvature="0"
       id="path6531"
       d="m 85.396841,770.80312 c -1.008259,-3.0186 -14.344849,-23.73689 -19.270004,-24.59949 -2.678022,1.6275 -15.719812,14.582 -18.642699,18.29758 -1.3503,4.3611 -1.658859,20.13348 -2.060913,20.7065 0.569852,-0.009 24.720431,4.62557 34.441983,6.21453 2.218706,0.36264 4.201539,-0.69612 4.824587,-2.72945 0.580551,-1.89463 -0.559575,-11.43986 0.707046,-17.88967 z"
       style="fill:#000000;fill-opacity:1;stroke:none"
       sodipodi:nodetypes="ccccssc" />
    <path
       style="fill:#000000;fill-opacity:1;stroke:none"
       d="m 255.86046,821.84438 c -1.87381,-0.81858 -0.63466,-0.18883 -3.5419,-0.67587 2.87023,-5.44433 8.40691,-10.85152 13.2579,-14.38241 4.82021,-3.50849 4.78261,-2.74445 10.44377,-5.61794 6.26861,5.78319 15.21331,15.51843 22.59534,19.88283 -4.53371,1.02685 -3.10733,-0.43449 -6.11942,1.22034 2.52508,5.65473 2.30167,4.18951 1.80338,10.10974 -6.29567,0.53733 -13.26008,0.50563 -19.70182,1.47739 -4.40595,0.66466 -14.38942,-0.79054 -19.2092,-0.85343 -0.0346,-8.09319 0.6095,-6.66164 0.47195,-11.16065 z"
       id="path5989"
       inkscape:connector-curvature="0"
       sodipodi:nodetypes="ccsccccscc" />
    <path
       style="fill:#000000;stroke:none;stroke-width:2;stroke-linecap:butt;stroke-linejoin:miter;stroke-opacity:1;stroke-miterlimit:4;stroke-dasharray:none;fill-opacity:1"
       d="M 363.4375 67.46875 C 362.51633 67.46185 361.5836 67.52042 360.65625 67.65625 C 358.45305 67.77074 356.28811 67.91574 354.09375 67.96875 C 351.99814 68.12163 349.91756 68.40823 347.84375 68.75 C 344.83456 68.10857 346.18006 71.6165 346.03125 73.34375 C 346.27967 76.24763 346.05688 79.22982 346.125 82.15625 C 346.08891 82.71002 346.06936 83.839462 346.25 84.75 C 345.9163 84.75311 345.58251 84.761543 345.25 84.75 L 345.21875 84.90625 L 345.1875 85.0625 C 345.15675 86.02376 344.31986 87.10569 344.65625 87.9375 C 346.35651 87.91428 348.07258 88.41212 349.5 89.34375 C 349.4878 91.44646 349.52225 93.55457 349.46875 95.65625 C 349.43015 97.15313 349.95155 98.61071 349.96875 100.09375 C 350.01274 101.29989 351.3144 101.7773 352.34375 101.75 C 354.72098 101.63376 357.09749 101.93935 359.46875 102.03125 C 360.35314 102.06701 361.75848 102.65027 362.21875 101.59375 C 362.19349 99.70468 362.19058 97.79158 362.375 95.90625 C 362.27822 94.09949 362.72025 92.30698 362.5625 90.5 C 362.27059 89.53573 363.13328 88.7173 364.0625 88.75 C 365.00414 88.53837 366.07805 89.01506 366.90625 88.53125 C 367.49012 87.51953 366.91641 86.25901 367.28125 85.1875 C 367.04132 85.228493 366.80402 85.24445 366.5625 85.25 C 366.61193 85.051771 366.59422 84.807824 366.46875 84.5 C 366.36006 82.65797 366.57183 80.84428 366.625 79.03125 C 366.21561 76.93939 366.56005 74.84994 366.59375 72.75 C 366.15581 71.15449 366.86976 68.77294 366.21875 67.625 C 365.29175 67.52857 364.35867 67.47565 363.4375 67.46875 z M 349.90625 70.59375 C 350.82122 70.601374 351.8339 70.74626 352.625 70.59375 C 353.51834 70.600089 354.41914 70.588406 355.3125 70.59375 C 355.29554 72.039552 355.86255 74.399466 355.96875 76.09375 C 355.2138 75.9434 354.81624 75.9363 353.09375 76 C 353.47436 77.52052 354.16907 80.64398 354.4375 81.84375 C 355.6201 81.89677 357.23925 81.71874 359.03125 81.5625 C 359.12407 79.98329 359.70146 77.42357 359.84375 75.78125 C 357.98513 75.68459 358.05889 76.63381 357.1875 75.6875 C 356.71538 74.174746 356.81746 72.323263 356.75 70.625 C 359.01458 70.63462 361.26773 70.627135 363.53125 70.59375 C 364.77758 71.87692 364.60536 74.0617 365.21875 75.75 C 365.63443 78.6759 365.82573 81.69411 365.21875 84.59375 C 365.15453 84.832578 365.15269 85.021034 365.1875 85.1875 C 364.18986 85.087771 363.19053 84.957309 362.21875 85.28125 C 360.05938 85.30835 357.90925 85.2667 355.75 85.3125 C 353.97857 85.53238 352.26725 84.58557 350.5 84.96875 C 349.76035 84.815045 349.00017 84.757947 348.25 84.75 C 348.25813 82.441857 348.38684 80.127257 347.78125 77.875 C 347.80375 75.75387 347.62284 73.61555 347.71875 71.5 C 348.14823 70.710885 348.99128 70.586126 349.90625 70.59375 z "
       transform="translate(0,692.36217)"
       id="path5995" />
  </g>
</svg>
