<?xml version="1.0" encoding="UTF-8" standalone="no"?>
<!-- Created with Inkscape (http://www.inkscape.org/) -->

<svg
   xmlns:dc="http://purl.org/dc/elements/1.1/"
   xmlns:cc="http://creativecommons.org/ns#"
   xmlns:rdf="http://www.w3.org/1999/02/22-rdf-syntax-ns#"
   xmlns:svg="http://www.w3.org/2000/svg"
   xmlns="http://www.w3.org/2000/svg"
   xmlns:sodipodi="http://sodipodi.sourceforge.net/DTD/sodipodi-0.dtd"
   xmlns:inkscape="http://www.inkscape.org/namespaces/inkscape"
   inkscape:export-ydpi="90"
   inkscape:export-xdpi="90"
   inkscape:export-filename="/home/micha/Programmieren/git/platformer/images/world/world2.png"
   sodipodi:docname="world4.svg"
   inkscape:version="0.48.4 r9939"
   version="1.1"
   id="svg2"
   height="360"
   width="820">
  <sodipodi:namedview
     id="base"
     pagecolor="#000000"
     bordercolor="#666666"
     borderopacity="1.0"
     inkscape:pageopacity="0.0"
     inkscape:pageshadow="2"
     inkscape:zoom="1"
     inkscape:cx="557.57345"
     inkscape:cy="183.17774"
     inkscape:document-units="px"
     inkscape:current-layer="layer1"
     showgrid="false"
     inkscape:showpageshadow="true"
     inkscape:window-width="1280"
     inkscape:window-height="750"
     inkscape:window-x="0"
     inkscape:window-y="25"
     inkscape:window-maximized="1"
     showguides="true"
     inkscape:guide-bbox="true">
    <inkscape:grid
       originy="0px"
       originx="0px"
       spacingy="5px"
       spacingx="5px"
       snapvisiblegridlinesonly="true"
       enabled="true"
       visible="true"
       empspacing="5"
       id="grid2985"
       type="xygrid" />
  </sodipodi:namedview>
  <defs
     id="defs4">
    <inkscape:path-effect
       effect="skeletal"
       id="path-effect8298"
       is_visible="true"
       pattern="m 4.4999999,552.29967 0,10 10.0000001,-5 z"
       copytype="single_stretched"
       prop_scale="0.4"
       scale_y_rel="false"
       spacing="0"
       normal_offset="0"
       tang_offset="0"
       prop_units="false"
       vertical_pattern="false"
       fuse_tolerance="0" />
    <inkscape:path-effect
       effect="skeletal"
       id="path-effect8295"
       is_visible="true"
       pattern="m 9.8749998,552.48717 0,10 10.0000002,-5 z"
       copytype="single_stretched"
       prop_scale="0.4"
       scale_y_rel="false"
       spacing="0"
       normal_offset="0"
       tang_offset="0"
       prop_units="false"
       vertical_pattern="false"
       fuse_tolerance="0" />
    <inkscape:path-effect
       effect="skeletal"
       id="path-effect8292"
       is_visible="true"
       pattern="m 18.0625,552.73717 0,10 10,-5 z"
       copytype="single_stretched"
       prop_scale="0.4"
       scale_y_rel="false"
       spacing="0"
       normal_offset="0"
       tang_offset="0"
       prop_units="false"
       vertical_pattern="false"
       fuse_tolerance="0" />
    <inkscape:path-effect
       effect="skeletal"
       id="path-effect8289"
       is_visible="true"
       pattern="m 14.125,552.61217 0,10 10,-5 z"
       copytype="single_stretched"
       prop_scale="0.4"
       scale_y_rel="false"
       spacing="0"
       normal_offset="0"
       tang_offset="0"
       prop_units="false"
       vertical_pattern="false"
       fuse_tolerance="0" />
    <inkscape:path-effect
       effect="skeletal"
       id="path-effect8286"
       is_visible="true"
       pattern="m 21.874999,552.67467 0,10 10,-5 z"
       copytype="single_stretched"
       prop_scale="0.4"
       scale_y_rel="false"
       spacing="0"
       normal_offset="0"
       tang_offset="0"
       prop_units="false"
       vertical_pattern="false"
       fuse_tolerance="0" />
    <inkscape:path-effect
       effect="skeletal"
       id="path-effect8283"
       is_visible="true"
       pattern="m 26.624999,552.29967 0,10 10,-5 z"
       copytype="single_stretched"
       prop_scale="0.4"
       scale_y_rel="false"
       spacing="0"
       normal_offset="0"
       tang_offset="0"
       prop_units="false"
       vertical_pattern="false"
       fuse_tolerance="0" />
    <inkscape:path-effect
       effect="skeletal"
       id="path-effect8280"
       is_visible="true"
       pattern="m -0.1875,552.42467 0,10 10,-5 z"
       copytype="single_stretched"
       prop_scale="0.4"
       scale_y_rel="false"
       spacing="0"
       normal_offset="0"
       tang_offset="0"
       prop_units="false"
       vertical_pattern="false"
       fuse_tolerance="0" />
    <inkscape:path-effect
       effect="skeletal"
       id="path-effect8277"
       is_visible="true"
       pattern="m -4.9374999,552.42467 0,10 10,-5 z"
       copytype="single_stretched"
       prop_scale="0.4"
       scale_y_rel="false"
       spacing="0"
       normal_offset="0"
       tang_offset="0"
       prop_units="false"
       vertical_pattern="false"
       fuse_tolerance="0" />
    <inkscape:path-effect
       effect="skeletal"
       id="path-effect8274"
       is_visible="true"
       pattern="m -7.5624998,552.36217 0,10 10,-5 z"
       copytype="single_stretched"
       prop_scale="0.4"
       scale_y_rel="false"
       spacing="0"
       normal_offset="0"
       tang_offset="0"
       prop_units="false"
       vertical_pattern="false"
       fuse_tolerance="0" />
    <inkscape:path-effect
       fuse_tolerance="0"
       vertical_pattern="false"
       prop_units="false"
       tang_offset="0"
       normal_offset="0"
       spacing="0"
       scale_y_rel="false"
       prop_scale="0.4"
       copytype="single_stretched"
       pattern="m -7.5624998,552.36217 0,10 10,-5 z"
       is_visible="true"
       id="path-effect8271"
       effect="skeletal" />
    <inkscape:path-effect
       fuse_tolerance="0"
       vertical_pattern="false"
       prop_units="false"
       tang_offset="0"
       normal_offset="0"
       spacing="0"
       scale_y_rel="false"
       prop_scale="0.4"
       copytype="single_stretched"
       pattern="m -7.5624998,552.36217 0,10 10,-5 z"
       is_visible="true"
       id="path-effect4594"
       effect="skeletal" />
    <inkscape:path-effect
       fuse_tolerance="0"
       vertical_pattern="false"
       prop_units="false"
       tang_offset="0"
       normal_offset="0"
       spacing="0"
       scale_y_rel="false"
       prop_scale="0.4"
       copytype="single_stretched"
       pattern="m -4.9374999,552.42467 0,10 10,-5 z"
       is_visible="true"
       id="path-effect4590"
       effect="skeletal" />
    <inkscape:path-effect
       fuse_tolerance="0"
       vertical_pattern="false"
       prop_units="false"
       tang_offset="0"
       normal_offset="0"
       spacing="0"
       scale_y_rel="false"
       prop_scale="0.4"
       copytype="single_stretched"
       pattern="m -0.1875,552.42467 0,10 10,-5 z"
       is_visible="true"
       id="path-effect4586"
       effect="skeletal" />
    <inkscape:path-effect
       fuse_tolerance="0"
       vertical_pattern="false"
       prop_units="false"
       tang_offset="0"
       normal_offset="0"
       spacing="0"
       scale_y_rel="false"
       prop_scale="0.4"
       copytype="single_stretched"
       pattern="m 26.624999,552.29967 0,10 10,-5 z"
       is_visible="true"
       id="path-effect4582"
       effect="skeletal" />
    <inkscape:path-effect
       fuse_tolerance="0"
       vertical_pattern="false"
       prop_units="false"
       tang_offset="0"
       normal_offset="0"
       spacing="0"
       scale_y_rel="false"
       prop_scale="0.4"
       copytype="single_stretched"
       pattern="m 21.874999,552.67467 0,10 10,-5 z"
       is_visible="true"
       id="path-effect4578"
       effect="skeletal" />
    <inkscape:path-effect
       fuse_tolerance="0"
       vertical_pattern="false"
       prop_units="false"
       tang_offset="0"
       normal_offset="0"
       spacing="0"
       scale_y_rel="false"
       prop_scale="0.4"
       copytype="single_stretched"
       pattern="m 14.125,552.61217 0,10 10,-5 z"
       is_visible="true"
       id="path-effect4574"
       effect="skeletal" />
    <inkscape:path-effect
       fuse_tolerance="0"
       vertical_pattern="false"
       prop_units="false"
       tang_offset="0"
       normal_offset="0"
       spacing="0"
       scale_y_rel="false"
       prop_scale="0.4"
       copytype="single_stretched"
       pattern="m 18.0625,552.73717 0,10 10,-5 z"
       is_visible="true"
       id="path-effect4570"
       effect="skeletal" />
    <inkscape:path-effect
       fuse_tolerance="0"
       vertical_pattern="false"
       prop_units="false"
       tang_offset="0"
       normal_offset="0"
       spacing="0"
       scale_y_rel="false"
       prop_scale="0.4"
       copytype="single_stretched"
       pattern="m 9.8749998,552.48717 0,10 10.0000002,-5 z"
       is_visible="true"
       id="path-effect4566"
       effect="skeletal" />
    <inkscape:path-effect
       fuse_tolerance="0"
       vertical_pattern="false"
       prop_units="false"
       tang_offset="0"
       normal_offset="0"
       spacing="0"
       scale_y_rel="false"
       prop_scale="0.4"
       copytype="single_stretched"
       pattern="m 4.4999999,552.29967 0,10 10.0000001,-5 z"
       is_visible="true"
       id="path-effect4562"
       effect="skeletal" />
    <inkscape:path-effect
       effect="skeletal"
       id="path-effect4546"
       is_visible="true"
       pattern="M 0,0 0,10 10,5 z"
       copytype="single_stretched"
       prop_scale="1"
       scale_y_rel="false"
       spacing="0"
       normal_offset="0"
       tang_offset="0"
       prop_units="false"
       vertical_pattern="false"
       fuse_tolerance="0" />
    <inkscape:path-effect
       effect="skeletal"
       id="path-effect4542"
       is_visible="true"
       pattern="M 0,0 0,10 10,5 z"
       copytype="single_stretched"
       prop_scale="1"
       scale_y_rel="false"
       spacing="0"
       normal_offset="0"
       tang_offset="0"
       prop_units="false"
       vertical_pattern="false"
       fuse_tolerance="0" />
    <inkscape:path-effect
       effect="skeletal"
       id="path-effect4538"
       is_visible="true"
       pattern="M 0,0 0,10 10,5 z"
       copytype="single_stretched"
       prop_scale="1"
       scale_y_rel="false"
       spacing="0"
       normal_offset="0"
       tang_offset="0"
       prop_units="false"
       vertical_pattern="false"
       fuse_tolerance="0" />
    <inkscape:path-effect
       effect="skeletal"
       id="path-effect4534"
       is_visible="true"
       pattern="m -7.5624998,552.36217 0,10 10,-5 z"
       copytype="single_stretched"
       prop_scale="0.4"
       scale_y_rel="false"
       spacing="0"
       normal_offset="0"
       tang_offset="0"
       prop_units="false"
       vertical_pattern="false"
       fuse_tolerance="0" />
    <inkscape:path-effect
       effect="skeletal"
       id="path-effect4220"
       is_visible="true"
       pattern="m 0,552.36217 0,10 10,-5 z"
       copytype="single_stretched"
       prop_scale="1"
       scale_y_rel="false"
       spacing="0"
       normal_offset="0"
       tang_offset="0"
       prop_units="false"
       vertical_pattern="false"
       fuse_tolerance="0" />
    <inkscape:path-effect
       effect="skeletal"
       id="path-effect6242"
       is_visible="true"
       pattern="M 0,5 10,10 10,0 z"
       copytype="single_stretched"
       prop_scale="1"
       scale_y_rel="false"
       spacing="0"
       normal_offset="0"
       tang_offset="0"
       prop_units="false"
       vertical_pattern="false"
       fuse_tolerance="0" />
    <inkscape:path-effect
       effect="skeletal"
       id="path-effect6238"
       is_visible="true"
       pattern="M 0,5 10,10 10,0 z"
       copytype="single_stretched"
       prop_scale="1"
       scale_y_rel="false"
       spacing="0"
       normal_offset="0"
       tang_offset="0"
       prop_units="false"
       vertical_pattern="false"
       fuse_tolerance="0" />
    <inkscape:path-effect
       effect="skeletal"
       id="path-effect6234"
       is_visible="true"
       pattern="M 0,0 0,10 10,5 z"
       copytype="single_stretched"
       prop_scale="1"
       scale_y_rel="false"
       spacing="0"
       normal_offset="0"
       tang_offset="0"
       prop_units="false"
       vertical_pattern="false"
       fuse_tolerance="0" />
    <inkscape:path-effect
       effect="skeletal"
       id="path-effect6230"
       is_visible="true"
       pattern="M 0,0 0,10 10,5 z"
       copytype="single_stretched"
       prop_scale="1"
       scale_y_rel="false"
       spacing="0"
       normal_offset="0"
       tang_offset="0"
       prop_units="false"
       vertical_pattern="false"
       fuse_tolerance="0" />
    <inkscape:path-effect
       fuse_tolerance="0"
       vertical_pattern="false"
       prop_units="false"
       tang_offset="0"
       normal_offset="0"
       spacing="0"
       scale_y_rel="false"
       prop_scale="0.4"
       copytype="single_stretched"
       pattern="m 4.4999999,552.29967 0,10 10.0000001,-5 z"
       is_visible="true"
       id="path-effect4562-4"
       effect="skeletal" />
    <inkscape:path-effect
       fuse_tolerance="0"
       vertical_pattern="false"
       prop_units="false"
       tang_offset="0"
       normal_offset="0"
       spacing="0"
       scale_y_rel="false"
       prop_scale="0.4"
       copytype="single_stretched"
       pattern="m 9.8749998,552.48717 0,10 10.0000002,-5 z"
       is_visible="true"
       id="path-effect4566-8"
       effect="skeletal" />
    <inkscape:path-effect
       fuse_tolerance="0"
       vertical_pattern="false"
       prop_units="false"
       tang_offset="0"
       normal_offset="0"
       spacing="0"
       scale_y_rel="false"
       prop_scale="0.4"
       copytype="single_stretched"
       pattern="m 18.0625,552.73717 0,10 10,-5 z"
       is_visible="true"
       id="path-effect4570-7"
       effect="skeletal" />
    <inkscape:path-effect
       fuse_tolerance="0"
       vertical_pattern="false"
       prop_units="false"
       tang_offset="0"
       normal_offset="0"
       spacing="0"
       scale_y_rel="false"
       prop_scale="0.4"
       copytype="single_stretched"
       pattern="m 14.125,552.61217 0,10 10,-5 z"
       is_visible="true"
       id="path-effect4574-0"
       effect="skeletal" />
    <inkscape:path-effect
       fuse_tolerance="0"
       vertical_pattern="false"
       prop_units="false"
       tang_offset="0"
       normal_offset="0"
       spacing="0"
       scale_y_rel="false"
       prop_scale="0.4"
       copytype="single_stretched"
       pattern="m 21.874999,552.67467 0,10 10,-5 z"
       is_visible="true"
       id="path-effect4578-2"
       effect="skeletal" />
    <inkscape:path-effect
       fuse_tolerance="0"
       vertical_pattern="false"
       prop_units="false"
       tang_offset="0"
       normal_offset="0"
       spacing="0"
       scale_y_rel="false"
       prop_scale="0.4"
       copytype="single_stretched"
       pattern="m 26.624999,552.29967 0,10 10,-5 z"
       is_visible="true"
       id="path-effect4582-5"
       effect="skeletal" />
    <inkscape:path-effect
       fuse_tolerance="0"
       vertical_pattern="false"
       prop_units="false"
       tang_offset="0"
       normal_offset="0"
       spacing="0"
       scale_y_rel="false"
       prop_scale="0.4"
       copytype="single_stretched"
       pattern="m -0.1875,552.42467 0,10 10,-5 z"
       is_visible="true"
       id="path-effect4586-5"
       effect="skeletal" />
    <inkscape:path-effect
       fuse_tolerance="0"
       vertical_pattern="false"
       prop_units="false"
       tang_offset="0"
       normal_offset="0"
       spacing="0"
       scale_y_rel="false"
       prop_scale="0.4"
       copytype="single_stretched"
       pattern="m -4.9374999,552.42467 0,10 10,-5 z"
       is_visible="true"
       id="path-effect4590-6"
       effect="skeletal" />
    <inkscape:path-effect
       fuse_tolerance="0"
       vertical_pattern="false"
       prop_units="false"
       tang_offset="0"
       normal_offset="0"
       spacing="0"
       scale_y_rel="false"
       prop_scale="0.4"
       copytype="single_stretched"
       pattern="m -7.5624998,552.36217 0,10 10,-5 z"
       is_visible="true"
       id="path-effect4594-6"
       effect="skeletal" />
    <inkscape:path-effect
       effect="skeletal"
       id="path-effect4534-2"
       is_visible="true"
       pattern="m -7.5624998,552.36217 0,10 10,-5 z"
       copytype="single_stretched"
       prop_scale="0.4"
       scale_y_rel="false"
       spacing="0"
       normal_offset="0"
       tang_offset="0"
       prop_units="false"
       vertical_pattern="false"
       fuse_tolerance="0" />
    <inkscape:path-effect
       effect="skeletal"
       id="path-effect8298-7"
       is_visible="true"
       pattern="m 4.4999999,552.29967 0,10 10.0000001,-5 z"
       copytype="single_stretched"
       prop_scale="0.4"
       scale_y_rel="false"
       spacing="0"
       normal_offset="0"
       tang_offset="0"
       prop_units="false"
       vertical_pattern="false"
       fuse_tolerance="0" />
    <inkscape:path-effect
       effect="skeletal"
       id="path-effect8295-2"
       is_visible="true"
       pattern="m 9.8749998,552.48717 0,10 10.0000002,-5 z"
       copytype="single_stretched"
       prop_scale="0.4"
       scale_y_rel="false"
       spacing="0"
       normal_offset="0"
       tang_offset="0"
       prop_units="false"
       vertical_pattern="false"
       fuse_tolerance="0" />
    <inkscape:path-effect
       effect="skeletal"
       id="path-effect8292-1"
       is_visible="true"
       pattern="m 18.0625,552.73717 0,10 10,-5 z"
       copytype="single_stretched"
       prop_scale="0.4"
       scale_y_rel="false"
       spacing="0"
       normal_offset="0"
       tang_offset="0"
       prop_units="false"
       vertical_pattern="false"
       fuse_tolerance="0" />
    <inkscape:path-effect
       effect="skeletal"
       id="path-effect8289-8"
       is_visible="true"
       pattern="m 14.125,552.61217 0,10 10,-5 z"
       copytype="single_stretched"
       prop_scale="0.4"
       scale_y_rel="false"
       spacing="0"
       normal_offset="0"
       tang_offset="0"
       prop_units="false"
       vertical_pattern="false"
       fuse_tolerance="0" />
    <inkscape:path-effect
       effect="skeletal"
       id="path-effect8286-7"
       is_visible="true"
       pattern="m 21.874999,552.67467 0,10 10,-5 z"
       copytype="single_stretched"
       prop_scale="0.4"
       scale_y_rel="false"
       spacing="0"
       normal_offset="0"
       tang_offset="0"
       prop_units="false"
       vertical_pattern="false"
       fuse_tolerance="0" />
    <inkscape:path-effect
       effect="skeletal"
       id="path-effect8283-9"
       is_visible="true"
       pattern="m 26.624999,552.29967 0,10 10,-5 z"
       copytype="single_stretched"
       prop_scale="0.4"
       scale_y_rel="false"
       spacing="0"
       normal_offset="0"
       tang_offset="0"
       prop_units="false"
       vertical_pattern="false"
       fuse_tolerance="0" />
    <inkscape:path-effect
       effect="skeletal"
       id="path-effect8280-8"
       is_visible="true"
       pattern="m -0.1875,552.42467 0,10 10,-5 z"
       copytype="single_stretched"
       prop_scale="0.4"
       scale_y_rel="false"
       spacing="0"
       normal_offset="0"
       tang_offset="0"
       prop_units="false"
       vertical_pattern="false"
       fuse_tolerance="0" />
    <inkscape:path-effect
       effect="skeletal"
       id="path-effect8277-1"
       is_visible="true"
       pattern="m -4.9374999,552.42467 0,10 10,-5 z"
       copytype="single_stretched"
       prop_scale="0.4"
       scale_y_rel="false"
       spacing="0"
       normal_offset="0"
       tang_offset="0"
       prop_units="false"
       vertical_pattern="false"
       fuse_tolerance="0" />
    <inkscape:path-effect
       effect="skeletal"
       id="path-effect8274-8"
       is_visible="true"
       pattern="m -7.5624998,552.36217 0,10 10,-5 z"
       copytype="single_stretched"
       prop_scale="0.4"
       scale_y_rel="false"
       spacing="0"
       normal_offset="0"
       tang_offset="0"
       prop_units="false"
       vertical_pattern="false"
       fuse_tolerance="0" />
    <inkscape:path-effect
       fuse_tolerance="0"
       vertical_pattern="false"
       prop_units="false"
       tang_offset="0"
       normal_offset="0"
       spacing="0"
       scale_y_rel="false"
       prop_scale="0.4"
       copytype="single_stretched"
       pattern="m -7.5624998,552.36217 0,10 10,-5 z"
       is_visible="true"
       id="path-effect8271-0"
       effect="skeletal" />
  </defs>
  <metadata
     id="metadata7">
    <rdf:RDF>
      <cc:Work
         rdf:about="">
        <dc:format>image/svg+xml</dc:format>
        <dc:type
           rdf:resource="http://purl.org/dc/dcmitype/StillImage" />
        <dc:title />
      </cc:Work>
    </rdf:RDF>
  </metadata>
  <g
     transform="translate(0,-692.36217)"
     id="layer1"
     inkscape:groupmode="layer"
     inkscape:label="Ebene 1">
    <path
       sodipodi:nodetypes="ccccsccsssccc"
       style="fill:#e4bf18;fill-opacity:1;stroke:none"
       d="m 2.920279,984.81257 c 5,-14.5 11.780856,-26.0112 11.780856,-26.0112 l 27.964174,-61.74268 c 10.5,-19 22.172753,-52.93093 31.672753,-69.93093 50.204578,1.41422 248.715648,-2.32094 455.021578,0.84571 135.63227,2.08186 271.42951,-3.25226 283.76286,-2.25992 0,0 -4.4896,37.85102 -4.31803,56.7358 0,0 -7.70807,28.25775 -12.43503,40.98446 -4.92812,13.2683 -11.30511,28.86582 -16.55635,42.00959 -4.42304,11.0708 -10.13757,26.02548 -14.43502,37.1456 -4.92256,12.7377 -16.24874,47.4542 -16.24874,47.4542 -21.5,-1.25 -625.25458,-6.7271 -735.563236,-2.4844 -1.5,-19.5 -10.645815,-62.74623 -10.645815,-62.74623 z"
       id="path10387"
       inkscape:connector-curvature="0" />
    <path
       inkscape:connector-curvature="0"
       style="fill:#c6a615;fill-opacity:1;stroke:none"
       d="m 812.06428,826.25172 -15.59375,43 -14.5625,40.53125 -15.09375,42.75 -13.03125,40.53125 c 4e-4,0 0.125,0 0.125,0 -2.74844,17.24018 -5.43315,38.69378 -4.6875,56.68748 0.27736,-0.8493 11.29532,-34.578 16.15625,-47.1562 4.29745,-11.12018 10.01446,-26.08548 14.4375,-37.15628 5.25124,-13.14377 11.63438,-28.7317 16.5625,-42 4.72696,-12.72671 12.4375,-41 12.4375,-41 -0.15987,-17.59718 3.59416,-50.46778 4.125,-55.03125 -0.33703,-0.53909 -0.63915,-0.94081 -0.875,-1.15625 z m -62.84375,223.53128 -3.03125,0.1562 c 1.0579,0.03 2.4815,0.067 2.9375,0.094 0,0 0.0909,-0.2413 0.0937,-0.25 z"
       id="path11497" />
    <path
       inkscape:connector-curvature="0"
       style="fill:#e9c72d;fill-opacity:1;stroke:none"
       d="m 3.189282,985.03297 -0.09375,0.65625 c 0.534027,2.53672 9.015269,42.97978 10.46875,61.87498 107.539368,-4.1361 684.492848,0.9581 732.624998,2.375 l 3.03125,-0.1562 c -4.3e-4,-0.01 4.2e-4,-0.021 0,-0.031 -0.74565,-17.9937 1.93906,-39.4473 4.6875,-56.68753 0,0 -75.4203,-0.1053 -105.5,-0.5 -31.20945,-0.40952 -62.35295,-2.56707 -93.5625,-2.96875 -30.74954,-0.39577 -58.68546,0.506 -89.4375,0.5625 -30.37918,0.0558 -63.59182,2.2803 -93.96875,1.90625 -30.88379,-0.3803 -68.11628,-3.08286 -99,-3.46875 -30.23754,-0.37781 -60.47965,-2.15523 -90.71875,-2.375 -30.90265,-0.2246 -55.44335,0.74773 -86.343748,0.3125 -30.736765,-0.43292 -92.1875,-1.5 -92.1875,-1.5 z"
       id="path11492"
       sodipodi:nodetypes="cccccccssssssscc" />
    <path
       inkscape:connector-curvature="0"
       id="path11505"
       d="m 2.920279,984.81257 c 5,-14.5 11.780856,-26.0112 11.780856,-26.0112 l 27.964174,-61.74268 c 10.5,-19 22.172753,-52.93093 31.672753,-69.93093 50.204578,1.41422 248.715648,-2.32094 455.021578,0.84571 135.63227,2.08186 271.42951,-3.25226 283.76286,-2.25992 0,0 -4.4896,37.85102 -4.31803,56.7358 0,0 -7.70807,28.25775 -12.43503,40.98446 -4.92812,13.2683 -11.30511,28.86582 -16.55635,42.00959 -4.42304,11.0708 -10.13757,26.02548 -14.43502,37.1456 -4.92256,12.7377 -16.24874,47.4542 -16.24874,47.4542 -21.5,-1.25 -625.25458,-6.7271 -735.563236,-2.4844 -1.5,-19.5 -10.645815,-62.74623 -10.645815,-62.74623 z"
       style="fill:none;stroke:#000000;stroke-width:2;stroke-linecap:butt;stroke-linejoin:miter;stroke-miterlimit:4;stroke-opacity:1;stroke-dasharray:none"
       sodipodi:nodetypes="ccccsccsssccc" />
    <path
       style="fill:#d9a117;fill-opacity:1;stroke:none"
       d="m 404.3125,4.375 c -31.30684,33.44139 -117.40625,138.46875 -117.40625,138.46875 6.39202,5.40228 16.49365,13.31998 22.36504,17.66089 9.49693,-0.45012 18.83275,1.67403 16.97887,15.07532 10.26374,8.91883 14.52041,14.03151 22.87479,23.37316 56.99406,-9.43834 126.76804,-1.58453 180.3248,-22.32018 C 495.56519,120.95247 441.70675,56.66745 404.3125,4.375 z"
       transform="translate(0,692.36217)"
       id="path4284"
       inkscape:connector-curvature="0"
       sodipodi:nodetypes="ccccccc" />
    <path
       style="opacity:0.3;fill:#000000;fill-opacity:1;stroke:none"
       d="m 349.31072,198.07256 c 0,0 161.19089,-1.48528 210.19089,-10.98528 -10,-9.5 -130.24264,-50.52691 -130.24264,-50.52691 l -6.40916,21.91422 z"
       id="path4294"
       inkscape:connector-curvature="0"
       transform="translate(0,692.36217)"
       sodipodi:nodetypes="ccccc" />
    <path
       style="fill:#c39115;fill-opacity:1;stroke:#000000;stroke-width:2.45661235;stroke-linecap:butt;stroke-linejoin:miter;stroke-miterlimit:4;stroke-opacity:1;stroke-dasharray:none"
       d="m 404.1875,5.59375 c 0.71047,36.944578 -48.11492,152.98471 -55.09375,193.1875 0.0484,0.0552 0.10793,0.10096 0.15625,0.15625 56.99406,-9.43834 128.0572,-0.50825 181.61396,-21.2439 C 497.2708,122.49197 442.54831,57.435756 405.28125,5.71875 c -0.0103,-0.00881 -0.021,-0.022443 -0.0312,-0.03125 z"
       transform="translate(0,692.36217)"
       id="path3490"
       inkscape:connector-curvature="0"
       sodipodi:nodetypes="ccccccc" />
    <path
       sodipodi:nodetypes="cssssssscc"
       style="fill:none;stroke:#000000;stroke-width:2;stroke-linecap:butt;stroke-linejoin:miter;stroke-miterlimit:4;stroke-opacity:1;stroke-dasharray:none"
       d="m 3.176514,985.02354 c 0,0 61.470264,1.08003 92.207028,1.51295 30.900398,0.43523 55.437358,-0.54845 86.340008,-0.32385 30.2391,0.21977 60.4818,1.99518 90.71934,2.37299 30.88372,0.38589 68.11571,3.09205 98.9995,3.47235 30.37693,0.37405 63.58668,-1.84563 93.96586,-1.90148 30.75204,-0.0565 58.67658,-0.95752 89.42612,-0.56175 31.20955,0.40168 62.37954,2.57032 93.58899,2.97984 30.0797,0.3947 105.49547,0.49579 105.49547,0.49579 -2.75,17.25002 -5.46078,38.70102 -4.71078,56.70102"
       id="path10389"
       inkscape:connector-curvature="0" />
    <path
       sodipodi:nodetypes="ccccc"
       style="fill:none;stroke:#000000;stroke-width:2;stroke-linecap:butt;stroke-linejoin:miter;stroke-miterlimit:4;stroke-opacity:1;stroke-dasharray:none"
       d="m 753.72552,993.29785 13.08407,-40.76349 15.08408,-42.76349 14.58407,-40.5135 15.58408,-43.01349"
       id="path10391"
       inkscape:connector-curvature="0" />
    <path
       style="fill:#b39e82;stroke:#000000;stroke-width:2;stroke-linecap:butt;stroke-linejoin:miter;stroke-miterlimit:4;stroke-opacity:1;stroke-dasharray:none;fill-opacity:1"
       d="m 44.478653,898.23748 c -1.363633,0.0238 -3.806712,-2.26174 -6.228146,2.4856 -7.968835,14.06077 -15.659254,29.92268 -23.381044,51.94363 -0.765047,2.22231 -0.368959,4.71648 1.992881,4.47697 9.122623,-1.00112 17.800613,-5.18956 27.071526,-5.0625 8.055296,0.11041 15.355809,3.89383 23.341857,4.6875 9.434026,0.93752 19.020907,0.0309 28.53825,0.0625 10.905483,0.0362 21.823333,0.1016 32.728883,0.125 9.46437,0.02 19.01605,0.84388 28.41254,0 7.84051,-0.70415 15.13879,-3.68014 23.0066,-4.1875 9.25484,-0.5968 18.49525,1.49095 27.78394,1.40625 11.55087,-0.10531 22.97974,-2.4647 34.53086,-2.375 10.18231,0.079 20.25496,1.51366 30.34022,2.5625 8.12298,0.84477 16.0651,3.16225 24.2638,3 10.68829,-0.21152 20.65663,-5.33534 31.34598,-5.15625 8.10267,0.13575 15.37374,4.3747 23.46757,4.6875 11.4686,0.44323 22.55404,-4.42028 34.02799,-4.0625 8.10998,0.25289 15.54759,3.85987 23.6352,4.375 11.15138,0.71028 22.37367,-0.80147 33.48321,-1.8125 7.16226,-0.65181 14.14376,-2.26974 21.33035,-2.75 9.48807,-0.63407 19.07455,-0.62203 28.58015,-0.15625 11.69257,0.57295 23.13957,2.96814 34.82421,3.625 9.35794,0.52605 18.83799,1.0492 28.16109,0.25 7.69776,-0.65988 14.85358,-3.42915 22.54564,-4.125 11.26839,-1.01942 22.71889,-0.0383 34.06989,-0.0312 7.58201,0.005 15.18418,-0.24255 22.75517,0.0625 11.78127,0.47469 23.4141,3.1332 35.20136,2.75 7.62738,-0.24796 14.82723,-3.2332 22.46183,-3.25 11.29942,-0.0248 22.05807,3.96191 33.31557,4.6875 7.42612,0.47865 28.95802,0.27887 36.37802,-0.25 2.15153,0.21818 5.92321,-1.00133 6.90832,-4.08813 4.41959,-13.84864 14.67589,-35.91705 18.49112,-49.10739 0.4378,-1.51362 -0.54266,-3.88244 -2.66783,-4.01558 -7.3779,-0.37118 -14.7859,-0.39331 -22.14493,0.0548 -7.46391,0.45455 -28.62004,2.54124 -36.04275,3.28125 -9.94548,0.99152 -20.01678,1.35536 -30.04688,1.5625 -11.1161,0.22957 -22.23788,-0.43905 -33.35749,-0.34375 -8.13226,0.0697 -16.30825,1.33794 -24.38952,0.65625 -9.66291,-0.81509 -18.43894,-5.46427 -28.16109,-5.625 -9.04332,-0.14951 -17.44629,4.10957 -26.48483,4.375 -11.69769,0.34353 -23.0757,-3.6692 -34.7823,-3.625 -7.23534,0.0273 -14.27824,2.05119 -21.49798,2.40625 -9.44196,0.46435 -18.92751,0.076 -28.37063,-0.375 -11.32892,-0.54103 -22.53,-3.33673 -33.86036,-2.8125 -10.04451,0.46474 -19.34877,4.31663 -29.33447,5.25 -8.03013,0.75057 -16.22168,0.53383 -24.3057,0.25 -11.45746,-0.40225 -22.72986,-3.01832 -34.19561,-2.78125 -8.39659,0.17361 -16.45185,2.9574 -24.85049,3.0625 -10.74367,0.13444 -21.27131,-2.418 -31.97457,-3.125 -9.34922,-0.61756 -18.73345,-0.99665 -28.11919,-0.96875 -9.58134,0.0284 -19.16616,0.4903 -28.70587,1.15625 -8.7952,0.61397 -17.44229,2.7033 -26.27531,2.625 -10.24583,-0.0908 -20.10978,-3.13412 -30.34022,-3.5625 -9.52926,-0.39901 -19.10417,0.40879 -28.62206,0.9375 -9.08814,0.50484 -18.10857,1.62565 -27.19725,2.125 -8.67201,0.47646 -17.43259,1.58747 -26.06577,0.8125 -8.99634,-0.80757 -17.10258,-4.87374 -26.107681,-5.625 -8.881469,-0.74095 -17.799397,1.1865 -26.736275,1.1875 -9.590123,10e-4 -19.202354,-1.82247 -28.747781,-1.65625 z"
       id="path6810"
       inkscape:connector-curvature="0"
       sodipodi:nodetypes="ccccssscssssssssssssssssssssscsscsssssssssssssssssssssssscsc" />
    <path
       style="fill:none;stroke:#917d6f;stroke-width:4;stroke-linecap:round;stroke-linejoin:round;stroke-miterlimit:4;stroke-opacity:1;stroke-dasharray:none;stroke-dashoffset:0"
       d="m 753.14858,925.04359 -38.26979,-1.29764 -42.52198,1.55717 c 0,0 -26.22191,0 -33.3089,0 -7.087,0 -47.48289,-1.03811 -47.48289,-1.03811 0,0 -48.90029,0 -65.20039,0 -16.30009,0 -46.06551,1.53321 -63.78298,1.55718 -17.45768,0.0236 -51.15755,6.73552 -85.05991,2.61398 -8.62904,-1.04904 -109.38469,-1.90626 -113.74994,0.0503 -5.17371,2.31886 -48.76539,-3.51906 -53.72629,-3 -4.9609,0.51906 -42.99169,-1.22141 -48.66129,-1.22141 -5.66959,0 -24.80449,0 -41.10458,0 -16.3001,0 -52.443792,1.55718 -52.443792,1.55718 l -14.88271,-0.51907"
       id="path4800"
       inkscape:connector-curvature="0"
       sodipodi:nodetypes="cccscssssssscc" />
    <g
       id="g3469"
       transform="translate(63.999994,-1.9999998)">
      <path
         transform="translate(0,692.36217)"
         inkscape:connector-curvature="0"
         id="path4557"
         d="m 645.99994,173.50002 9.49999,3 -10.99999,8 -17,0 12.5,4 -11.5,2 7,6 19.49999,-9 9.5,-11 12.5,3.5 -3.5,6 2,4 5,-7.5 13,2.5 11,7.5 -3.5,-7.5 8,-6 -18,0.5 -4.5,-7 6,-6.5 -8,2 -2.5,7 -7,-1 -8.5,-5 -17.49999,0.5 z"
         style="opacity:0.3;fill:#000000;fill-opacity:1;stroke:none" />
      <g
         transform="translate(86.521854,-12.757358)"
         id="g4508">
        <path
           style="fill:#24221c;stroke:#000000;stroke-width:2;stroke-linecap:butt;stroke-linejoin:miter;stroke-miterlimit:4;stroke-opacity:1;stroke-dasharray:none"
           d="m 560.74264,727.96268 c 0,0 4.6293,8.76637 4.25,14 -0.21297,2.93857 -3.11624,6.13629 -4.25,7.75 -0.70733,1.00676 -2.375,-3.6875 -2.375,-3.6875 0,0 0.68581,8.7303 -0.375,12.6875 -0.90728,3.38446 -4.5,9.5 -4.5,9.5 0,0 3.90045,5.35066 4.5,8.5 0.14112,0.7413 -0.11371,1.50779 -0.25,2.25 -0.48186,2.62409 -1.11129,5.2344 -2,7.75 -0.67081,1.89883 -2.02339,3.54337 -2.5,5.5 -0.77017,3.16182 -0.19253,6.51029 -0.5,9.75 -0.28616,3.01525 -1.25,9 -1.25,9 0,0 -1.25,4.75 -3,6.25 -1.75,1.5 -3.25,-0.25 -3.25,-0.25 l -4.5,-5 2.75,-5 c 0,0 2.69344,-4.14239 3.25,-6.5 0.32548,-1.37877 -0.60999,-2.97139 0,-4.25 0.96947,-2.03213 5.25,-4.25 5.25,-4.25 l 2,-6 c 0,0 -4.11008,1.25466 -6,2.25 -1.80004,0.94801 -4.03241,1.7104 -5,3.5 -1.26891,2.3469 0.80936,5.55137 -0.25,8 -0.65513,1.51428 -3.5,3.5 -3.5,3.5 l -3,-7.25 -5.75,-0.75 -6,-0.25 c 0,0 -1.86703,-2.30661 -3,-3.25 -1.4391,-1.1983 -2.9563,-2.46188 -4.75,-3 -4.07154,-1.22148 -8.58333,-1.09163 -12.75,-0.25 -2.41347,0.4875 -5.75,3.125 -5.75,3.125 0,0 7.40625,-0.4375 8.40625,-0.4375 1,0 6.18708,-0.9508 8.96875,0.5625 1.48222,0.80637 4.375,3.75 4.375,3.75 0,0 -5.6839,0.14623 -8.5,0.5 -2.61076,0.32798 -5.46133,0.69791 -7.21875,2.65625 -1.34042,1.49367 -2.875,6.4375 -2.875,6.4375 0,0 4.13846,-2.98737 5.21875,-3.59375 1.92399,-1.07996 3.42422,-1.84303 5.625,-2 3.49509,-0.24928 10.5,0.5 10.5,0.5 l 4,7 6.5,5 -0.25,2.5 4.25,2.75 1,9 6.25,4.25 1.5,9 c 0,0 -10.65185,-11.49928 -17,-16 -4.13514,-2.93174 -13.5,-7 -13.5,-7 0,0 -10.51144,-0.0652 -15.5,-1.5 -1.07447,-0.30904 -1.89825,-1.30985 -3,-1.5 -4.0539,-0.69965 -12.25,1.5 -12.25,1.5 l -0.5,2.5 c 0,0 4.31899,-0.7391 6.5,-0.75 1.59206,-0.008 4.75,0.5 4.75,0.5 l -10.75,8 c 0,0 6.99535,-2.89456 11,-3.9375 2.00737,-0.52279 2.49455,-0.14794 3.4375,-0.0312 4.13595,0.51179 12.0625,-0.7813 12.0625,-0.7813 0,0 -2.88461,4.2601 -4.75,6 -1.40294,1.30856 -6,4.3125 -6,4.3125 0,0 4.81595,-1.17885 6.71875,-2.03125 3.17326,-1.42151 8.03125,-6.78125 8.03125,-6.78125 0,0 11.84931,6.12163 17.375,11.21875 4.5178,4.1674 12.875,16.03125 12.875,16.03125 l -3,18 -3.75,6 24,4.75 8.25,-2.75 c 0,0 19,-0.25 20,-0.5 0,0 -8,-3.25 -9.75,-3.5 -1.75,-0.25 -10.75,0.25 -10.75,0.25 l -1,-2 -4.75,0.5 -5.75,-5.5 -3.5,-11.75 c 0,0 -0.25,-11.75 -0.25,-14 0,-2.25 0.25,-13.75 0.25,-13.75 l 2,-9.5 c 0,0 4.16661,-8.01995 7,-11.5 2.15913,-2.65191 4.70671,-5.02719 7.5,-7 3.98824,-2.81677 8.49048,-4.87796 13,-6.75 3.55375,-1.47527 11,-3.5 11,-3.5 l -0.75,-12 -1.25,8.75 c 0,0 -4.25,2.75 -5.25,2.75 -1,0 -7.80144,3.73642 -11.75,5.5 -3.88649,1.73586 -10,4.5 -11.75,5 -1.75,0.5 -6.75,8.5 -6.75,8.5 0,0 -0.29724,-14.05223 1.5,-20.75 0.84035,-3.13173 2.56837,-5.97764 4.25,-8.75 1.66825,-2.75031 4,-7.75 5.75,-7.75 1.75,0 8.75,-3 9.75,-2.75 1,0.25 -7.5,-3.75 -7.5,-3.75 l 7.5,-13.75 -10.25,15 -4.25,-3.75 2,6.25 -7.5,7.75 -3,-5 c 0,0 4.58751,-5.07338 5.5,-8.25 0.80558,-2.80445 -1.1267,-5.96697 -0.25,-8.75 1.09168,-3.46549 5.32114,-5.30854 5.5,-8.9375 0.28704,-5.82388 -6.75,-14.0625 -6.75,-14.0625 z m -27.5,71.75 2.875,5.875 -1.875,2.25 -4.125,-2.5 -3.5,-5.375 c 1.25,0 6.625,-0.25 6.625,-0.25 z"
           id="path4469"
           inkscape:connector-curvature="0"
           sodipodi:nodetypes="csscscssssscscccssccsssccccssscsscsscssccccccccscssccsccsscscscsccccccscccccsccssscccssscsssscccccccsssccccccc" />
        <path
           style="opacity:0.5;fill:#000000;fill-opacity:1;stroke:none"
           d="m 574.33639,762.46268 c -0.88389,0.17677 -10.40625,9 -10.40625,9 l -3.5625,6.90625 -2.46875,15 c 0,0 0.81668,-0.86745 0.96875,-1.03125 0.22512,-2.90875 0.55727,-5.75923 1.125,-7.875 0.84035,-3.13173 2.56837,-5.97764 4.25,-8.75 1.66825,-2.75031 4,-7.75 5.75,-7.75 1.75,0 8.75,-3 9.75,-2.75 0.74618,0.18654 -3.05183,-1.63144 -5.40625,-2.75 z m -13.4375,46.875 -2.46875,1.375 -6.53125,13.59375 0.53125,25.65625 0.34375,9.53125 10.78125,13.96875 -0.53125,4.25 0.125,0.125 7.84375,-2.625 c 0,0 19,-0.25 20,-0.5 0,0 -8,-3.25 -9.75,-3.5 -1.75,-0.25 -10.75,0.25 -10.75,0.25 l -1,-2 -4.75,0.5 -5.75,-5.5 -3.5,-11.75 c 0,0 -0.25,-11.75 -0.25,-14 0,-2.25 0.25,-13.75 0.25,-13.75 l 2,-9.5 c 0,0 1.55112,-3.00369 3.40625,-6.125 z m -20.65625,2.25 1.21875,9.5625 4.59375,5.8125 2.03125,-9.46875 c -1.56873,0.93877 -2.84375,-0.53125 -2.84375,-0.53125 l -4.5,-5 0.15625,-0.28125 -0.65625,-0.0937 z"
           id="path4497"
           inkscape:connector-curvature="0" />
      </g>
    </g>
    <g
       id="g3475"
       transform="translate(-137.99999,0.9999999)">
      <path
         transform="translate(0,692.36217)"
         inkscape:connector-curvature="0"
         id="path4555"
         d="m 283.01946,174.56126 14.49569,3.18199 10.6066,-7.07107 11.13693,-0.35356 7.24784,4.24264 -2.47487,4.06587 c 0,0 3.88909,4.24264 4.94975,4.06586 1.06066,-0.17677 6.18718,-4.06586 6.18718,-4.06586 l 10.25305,3.35876 3.18198,-4.06587 18.38477,2.65165 2.82843,-4.94974 -11.31371,-3.35876 -10.96015,0.7071 -12.02082,-1.59099 -12.90469,-6.89429 -1.94455,0.35356 -14.14213,0.35355 -4.59619,-0.35355 z"
         style="opacity:0.3;fill:#000000;fill-opacity:1;stroke:none" />
      <path
         sodipodi:nodetypes="csssscc"
         inkscape:connector-curvature="0"
         id="path4518"
         d="m 346.49514,864.36827 c -0.18491,-6.04896 2.0773,-10.73246 1.73825,-16.76126 -0.45385,-8.07007 -0.25185,-15.49593 -4.11516,-22.59569 -1.35424,-2.48874 -7.19928,-2.51712 -8.5,0 -3.26077,6.31013 -2.41639,14.07347 -2.47956,21.16855 -0.0493,5.53531 1.92195,12.57469 1.59692,18.0897 4.95354,2.70521 8.74374,1.52128 11.75955,0.0987 z"
         style="fill:#2ca02c;fill-opacity:1;stroke:#000000;stroke-width:2;stroke-linecap:butt;stroke-linejoin:miter;stroke-miterlimit:4;stroke-opacity:1;stroke-dasharray:none" />
      <g
         transform="translate(1.4142134,4.2426403)"
         id="g4512">
        <path
           style="fill:#2ca02c;stroke:#000000;stroke-width:2;stroke-linecap:butt;stroke-linejoin:miter;stroke-miterlimit:4;stroke-opacity:1;stroke-dasharray:none"
           d="m 305.63536,853.03402 c -0.81833,-6.24584 -0.23487,-15.79633 0.37132,-20.38185 -7.59701,-2.64114 -17.51,0.29785 -22.80433,-7.82623 -4.04778,-6.21128 -4.31657,-18.27541 3.1442,-20.73893 7.94949,-2.62489 1.64602,7.55264 3.45625,11.112 2.58718,5.08704 11.63212,9.09103 15.68706,5.2636 2.55131,-2.40815 1.41848,-10.80004 0.81599,-14.93291 -1.20592,-8.27221 -0.93606,-17.20935 2.01196,-25.0797 3.8574,-10.29812 16.63861,2.7444 12.09514,10.6613 -3.22983,5.62793 -0.13675,19.68506 10.21537,14.77542 6.6796,-3.16789 6.54712,-15.2862 14.58711,-9.43283 6.85703,4.99214 -2.02177,16.91819 -8.62301,20.64807 -5.65008,3.19245 -17.79023,-1.44098 -17.60571,9.13829 0.43812,7.98083 -2.61695,20.40864 -0.0592,27.51197 -4.83411,0.85621 -10.03026,0.82815 -13.29212,-0.7182 z"
           id="path4437"
           inkscape:connector-curvature="0"
           sodipodi:nodetypes="ccssssssssssccc" />
        <path
           inkscape:connector-curvature="0"
           style="opacity:0.5;fill:#000000;fill-opacity:1;stroke:none"
           d="m 318.28125,87.40625 c -0.83843,1.662248 -1.85264,2.563596 -2.21875,4.0625 -0.71446,2.925074 -0.1092,6.853995 0.1875,9.03125 0.29353,2.15397 -0.74649,8.38694 1.9375,10.9375 0.79141,0.75207 3.25,0.40625 3.25,0.40625 -2.65041,-3.5714 -2.92706,-9.79033 -1.03125,-13.09375 2.07724,-3.619542 0.53191,-8.301805 -2.125,-11.34375 z M 347.25,107 c 0,0 -6.74619,11.25932 -12.25,14.25 -4.35961,2.36894 -9.80571,0.76823 -14.5,2.375 -1.73095,0.59248 -4.51584,1.83106 -4.875,3.625 -2.28175,11.39683 -1.34375,34.65625 -1.34375,34.65625 1.54124,-0.0726 3.11415,-0.25812 4.65625,-0.53125 -2.55775,-7.10333 0.50062,-19.51917 0.0625,-27.5 -0.18452,-10.57927 11.94367,-5.93255 17.59375,-9.125 5.43227,-3.06938 12.39641,-11.69894 10.875,-17.4375 L 347.25,107 z m -58.9375,27.09375 c -1.1284,-0.0191 -1.85065,0.2964 -3.34375,0.53125 5.40144,5.28838 13.79058,3.3924 20.53125,5.5 l 0.5,-3.03125 c 0,0 -5.78166,-0.76423 -8.65625,-1.25 -3.02354,-0.51094 -5.96528,-1.69812 -9.03125,-1.75 z"
           transform="translate(0,692.36217)"
           id="path4445" />
      </g>
      <path
         sodipodi:nodetypes="scsssccsss"
         inkscape:connector-curvature="0"
         id="path4526"
         transform="translate(0,692.36217)"
         d="m 339.84375,130.78125 c -0.52739,-0.001 -1.03375,0.0488 -1.53125,0.15625 0,0 4.05117,9.18823 4.8125,14.09375 0.83249,5.36408 0.59519,10.93478 -0.34375,16.28125 -0.35383,2.01479 -1.88531,3.76858 -1.96875,5.8125 -0.0876,2.14566 1.5625,6.25 1.5625,6.25 1.51683,-0.25265 2.89311,-0.79391 4.125,-1.375 -0.18491,-6.04896 2.0578,-10.7212 1.71875,-16.75 -0.45385,-8.07007 -0.23044,-15.49399 -4.09375,-22.59375 -0.67712,-1.24437 -2.48812,-1.87145 -4.28125,-1.875 z"
         style="opacity:0.5;fill:#000000;fill-opacity:1;stroke:none" />
      <path
         sodipodi:nodetypes="sssssssss"
         inkscape:connector-curvature="0"
         id="path4531"
         d="m 292.46165,865.80154 c 3.03443,-0.41313 5.32132,-0.91182 7.32997,-3.2235 3.02082,-3.47655 4.32331,-8.00975 2.21601,-12.105 -2.30184,-4.47332 -4.48873,-6.26121 -9.33961,-7.59461 -5.73975,-1.57774 -11.47945,-2.27872 -17.00174,-0.0565 -3.49902,1.40804 -6.25321,2.96643 -7.66776,6.46281 -1.17316,2.89973 -1.92829,6.35691 -0.96843,9.33406 0.62975,1.95326 2.26161,3.67283 4.09275,4.59953 7.11355,3.59999 13.43908,3.65876 21.33881,2.58321 z"
         style="fill:#2ca02c;fill-opacity:1;stroke:#000000;stroke-width:2;stroke-linecap:butt;stroke-linejoin:miter;stroke-miterlimit:4;stroke-opacity:1;stroke-dasharray:none" />
      <path
         sodipodi:nodetypes="ccccccc"
         inkscape:connector-curvature="0"
         id="path4533"
         d="m 272.39338,849.08014 c 5.25266,0.28458 9.03645,-2.30541 9.35682,3.369 4.00732,-3.852 4.83635,-4.1364 8.27145,-0.79945 -0.303,-9.15725 3.39233,-6.93225 7.31356,-6.60168 -1.04611,-2.41115 -4.99461,-3.03075 -7.23214,-3.32331 -1.69,-0.48986 -10.11239,-1.15387 -16.48254,1.31253 6.73148,-0.074 4.14854,1.03002 -1.22715,6.04291 z"
         style="fill:#f4eed7;stroke:#000000;stroke-width:1px;stroke-linecap:butt;stroke-linejoin:miter;stroke-opacity:1" />
      <path
         sodipodi:nodetypes="ccccscc"
         inkscape:connector-curvature="0"
         id="path4541"
         d="m 288.32167,843.64268 c 0.0264,-1.80468 -1.06342,-2.32597 -1.43644,-4.03252 -0.15826,-0.25742 -0.42834,-1.95767 -0.35911,-2.84387 -0.62217,0.62885 -0.93441,0.41636 -1.55983,-0.0311 -0.2415,1.483 -0.85113,3.2769 -1.86758,4.24781 -0.8553,0.81698 -2.00574,2.50454 -1.08411,3.53176 1.24994,0.66925 6.11177,1.69889 6.30707,-0.87206 z"
         style="fill:#decd87;stroke:#000000;stroke-width:1px;stroke-linecap:butt;stroke-linejoin:miter;stroke-opacity:1" />
      <path
         sodipodi:nodetypes="cssccsssc"
         inkscape:connector-curvature="0"
         id="path4548"
         transform="translate(0,692.36217)"
         d="m 297.03125,152.25 c 0,0 1.9396,5.82659 1,8.53125 -0.95719,2.75529 -3.86901,4.41764 -6.1875,6.1875 -1.88762,1.44094 -6.1875,3.53125 -6.1875,3.53125 l -8.28125,2.71875 c 4.79482,1.18228 9.56679,0.97125 15.09375,0.21875 3.03443,-0.41313 5.30385,-0.90707 7.3125,-3.21875 3.02082,-3.47655 4.32605,-7.9985 2.21875,-12.09375 -1.46578,-2.84856 -2.87862,-4.62826 -4.96875,-5.875 z"
         style="opacity:0.5;fill:#000000;fill-opacity:1;stroke:none" />
      <path
         transform="translate(0,692.36217)"
         inkscape:connector-curvature="0"
         id="path4553"
         d="m 285.74997,144.87502 -0.5625,5.5 1.25,2.25 3.625,1.75 2.1875,-2.0625 c 0,0 1.8125,-2.1875 1.5,-2.1875 -0.3125,0 -6.1875,-1.0625 -6.1875,-1.0625 0,0 -0.9375,-1.1875 -0.875,-1.5625 0.0625,-0.375 -0.375,-3.125 -0.375,-3.125 z"
         style="opacity:0.3;fill:#000000;fill-opacity:1;stroke:none" />
    </g>
    <path
       style="fill:#a57b12;stroke:none;stroke-width:1px;stroke-linecap:butt;stroke-linejoin:miter;stroke-opacity:1;fill-opacity:1"
       d="m 322.3523,178.62711 9.81111,-33.58757 6.98268,-2.03293 -11.22532,34.55984 z"
       id="path4315"
       inkscape:connector-curvature="0"
       transform="translate(0,692.36217)" />
    <path
       sodipodi:nodetypes="ccsccccccc"
       inkscape:connector-curvature="0"
       id="path4292"
       transform="translate(0,692.36217)"
       d="m 404.3125,4.375 c -31.30684,33.44139 -117.40625,138.46875 -117.40625,138.46875 0,0 2.06651,1.41902 5.62083,4.06682 3.55433,2.6478 11.15973,8.82247 17.111,13.73759 2.05531,-7.34248 6.44467,-23.42744 6.44467,-23.42744 l 20.02786,7.39053 c 0,0 -6.37382,23.32059 -9.03327,31.40952 8.01128,7.85444 15.74769,15.90518 22.04856,23.01063 56.99311,-9.43849 128.53485,-1.30926 182.09161,-22.04491 C 497.33295,121.30602 441.70675,56.66745 404.3125,4.375 z"
       style="fill:none;stroke:#000000;stroke-width:2.45661235;stroke-linecap:butt;stroke-linejoin:miter;stroke-miterlimit:4;stroke-opacity:1;stroke-dasharray:none" />
    <path
       style="fill:#c39115;stroke:none;stroke-width:1px;stroke-linecap:butt;stroke-linejoin:miter;stroke-opacity:1;fill-opacity:1"
       d="m 315.36962,134.6981 16.61701,10.25305 7.24785,-2.03293 -16.17507,-8.92722 z"
       id="path4313"
       inkscape:connector-curvature="0"
       transform="translate(0,692.36217)" />
    <path
       style="fill:#594104;stroke:none;stroke-width:1px;stroke-linecap:butt;stroke-linejoin:miter;stroke-opacity:1;fill-opacity:1"
       d="m 309.27083,167.22501 0.44194,0.61872 12.99309,-2.20971 5.74524,-19.79899 -11.66726,-6.98268 z"
       id="path4317"
       inkscape:connector-curvature="0"
       transform="translate(0,692.36217)" />
    <path
       style="fill:#d9a117;fill-opacity:1;stroke:#000000;stroke-width:1px;stroke-linecap:butt;stroke-linejoin:miter;stroke-opacity:1"
       d="m 323.25,134.125 -7.96875,0.46875 -8.375,30.6875 2.65311,2.70175 7.37814,-29.01425 11.4375,6.75 -8.625,30.8125 2.75,2.40625 5.5,-1.5625 11.25,-34.5 z"
       transform="translate(0,692.36217)"
       id="path4300"
       inkscape:connector-curvature="0"
       sodipodi:nodetypes="ccccccccccc" />
    <path
       style="fill:none;stroke:#000000;stroke-width:1px;stroke-linecap:butt;stroke-linejoin:miter;stroke-opacity:1"
       d="m 339.24997,835.48719 -7.15596,1.65902 -9.68719,34.17677"
       id="path4302"
       inkscape:connector-curvature="0"
       sodipodi:nodetypes="ccc" />
    <path
       style="fill:none;stroke:#000000;stroke-width:1px;stroke-linecap:butt;stroke-linejoin:miter;stroke-opacity:1"
       d="m 331.99045,837.21943 -16.91421,-9.96448"
       id="path4304"
       inkscape:connector-curvature="0"
       sodipodi:nodetypes="cc" />
    <path
       style="fill:none;stroke:#000000;stroke-width:1px;stroke-linecap:butt;stroke-linejoin:miter;stroke-opacity:1"
       d="m 309.57005,168.03728 13.55492,-2.53726"
       id="path4308"
       inkscape:connector-curvature="0"
       transform="translate(0,692.36217)"
       sodipodi:nodetypes="cc" />
  </g>
</svg>
