<?xml version="1.0" encoding="UTF-8" standalone="no"?>
<!-- Created with Inkscape (http://www.inkscape.org/) -->

<svg
   xmlns:dc="http://purl.org/dc/elements/1.1/"
   xmlns:cc="http://creativecommons.org/ns#"
   xmlns:rdf="http://www.w3.org/1999/02/22-rdf-syntax-ns#"
   xmlns:svg="http://www.w3.org/2000/svg"
   xmlns="http://www.w3.org/2000/svg"
   xmlns:sodipodi="http://sodipodi.sourceforge.net/DTD/sodipodi-0.dtd"
   xmlns:inkscape="http://www.inkscape.org/namespaces/inkscape"
   width="150"
   height="30"
   id="svg2"
   version="1.1"
   inkscape:version="0.48.2 r9819"
   sodipodi:docname="poff.svg"
   inkscape:export-filename="/home/micha/Programmieren/git/platformer/images/poff.png"
   inkscape:export-xdpi="90"
   inkscape:export-ydpi="90">
  <sodipodi:namedview
     id="base"
     pagecolor="#ffffff"
     bordercolor="#666666"
     borderopacity="1.0"
     inkscape:pageopacity="0.0"
     inkscape:pageshadow="2"
     inkscape:zoom="4"
     inkscape:cx="88.131882"
     inkscape:cy="5.0084598"
     inkscape:document-units="px"
     inkscape:current-layer="layer1"
     showgrid="false"
     inkscape:showpageshadow="true"
     inkscape:window-width="1280"
     inkscape:window-height="750"
     inkscape:window-x="0"
     inkscape:window-y="25"
     inkscape:window-maximized="1">
    <inkscape:grid
       type="xygrid"
       id="grid2985"
       empspacing="5"
       visible="true"
       enabled="true"
       snapvisiblegridlinesonly="true"
       spacingx="10px"
       spacingy="10px"
       originx="0px"
       originy="0px" />
  </sodipodi:namedview>
  <defs
     id="defs4" />
  <metadata
     id="metadata7">
    <rdf:RDF>
      <cc:Work
         rdf:about="">
        <dc:format>image/svg+xml</dc:format>
        <dc:type
           rdf:resource="http://purl.org/dc/dcmitype/StillImage" />
        <dc:title></dc:title>
      </cc:Work>
    </rdf:RDF>
  </metadata>
  <g
     inkscape:label="Ebene 1"
     inkscape:groupmode="layer"
     id="layer1"
     transform="translate(0,-1022.3622)">
    <path
       style="fill:#e3dbdb;fill-opacity:1;stroke:#000000;stroke-width:2;stroke-linecap:butt;stroke-linejoin:miter;stroke-miterlimit:4;stroke-opacity:1;stroke-dasharray:none"
       d="m 35.93867,1038.7556 c 0.711805,2.5046 3.465004,2.1892 5.036753,1.4557 0.01888,1.6968 -0.519077,5.2573 1.831246,5.3306 1.975763,-0.4544 3.526938,-3.8387 4.031658,-5.8209 1.294133,1.0624 3.706703,2.1184 5.456263,2.1151 2.678945,0.079 2.122599,-3.1261 0.301241,-4.0008 -0.781181,-0.3814 -2.325183,-1.4884 -4.09255,-1.1435 3.284831,-0.947 3.655918,-2.9614 3.741613,-4.2651 -0.182911,-2.5157 -3.086016,-3.0286 -5.242964,-3.23 -2.469831,-0.2306 -5.008011,2.3846 -4.094824,4.356 -2.51035,0.613 -7.716797,2.9662 -6.968436,5.2029 z"
       id="path3843"
       inkscape:connector-curvature="0"
       sodipodi:nodetypes="ccccccccscc" />
    <path
       style="fill:#e3dbdb;fill-opacity:1;stroke:#000000;stroke-width:2;stroke-linecap:butt;stroke-linejoin:miter;stroke-miterlimit:4;stroke-opacity:1;stroke-dasharray:none"
       d="m 75.700484,1026.8735 c 2.166379,0.9844 4.650214,-0.3971 6.743535,0.9611 1.4957,0.4952 1.342444,1.5376 0.385733,2.3764 1.881728,0.2473 3.07613,1.9182 2.703202,3.8323 0.215551,1.1228 -1.360178,1.4059 -2.320459,2.2797 2.044836,0.5282 1.937341,0.8176 2.240739,1.2231 0.969279,1.2955 1.248571,3.285 -0.09325,4.6385 -0.858755,1.1814 -2.575494,-0.7249 -1.843387,-0.049 0.858059,2.1445 1.499227,3.4027 -0.662813,3.9837 -1.304415,0.3506 -3.056442,-0.1792 -4.227555,-1.8117 0.703125,2.5888 -4.230607,4.0246 -5.943962,3.7204 -1.987814,-0.3529 -3.670525,-2.7445 -3.85915,-4.3629 -1.720111,1.152 -3.994828,0.358 -3.518402,-1.6306 0.234664,-1.8782 -2.261434,-2.6547 -1.396431,-4.8474 -0.06945,-1.8555 1.327881,-2.7254 2.975226,-2.7568 -1.163053,-1.4426 -0.935972,-4.6526 1.438764,-4.6538 0.71723,-0.3804 1.05853,-0.1671 2.797458,0.7305 0.629033,-1.625 2.922568,-4.6918 4.580754,-3.6333 z"
       id="path3906"
       inkscape:connector-curvature="0"
       sodipodi:nodetypes="cccccsccscsccccccc" />
    <path
       style="fill:#e3dbdb;fill-opacity:1;stroke:#000000;stroke-width:2;stroke-linecap:butt;stroke-linejoin:miter;stroke-miterlimit:4;stroke-opacity:1;stroke-dasharray:none"
       d="m 12.397116,1034.2041 c -0.880154,0.096 -1.754988,0.5341 -1.958562,1.4646 -0.4930163,0.7544 -1.0063685,1.5602 -0.8609965,2.5073 -0.158992,1.1201 0.8883395,1.6279 1.5750365,2.1305 -0.15848,1.0607 1.210244,1.0755 1.913871,1.2661 1.019253,0.091 2.122724,0.2108 3.01332,-0.3824 0.893558,-0.3186 0.30703,-1.4801 0.97217,-1.7644 0.825312,0.2528 1.561199,-0.3144 2.06742,-0.9063 0.469054,-0.5817 0.609733,-1.7942 -0.267546,-2.0628 -0.778405,-0.1778 -0.01733,-1.6909 -1.005946,-1.9638 -1.040733,-0.6571 -2.113449,-1.5163 -3.418469,-1.4149 -0.750869,0.038 -1.813272,0.2889 -2.030297,1.1257 l -10e-7,4e-4 0,0 z"
       id="path3959"
       inkscape:connector-curvature="0" />
    <g
       id="g4029"
       style="fill:#e3dbdb;fill-opacity:1;stroke-width:2.36884437;stroke-miterlimit:4;stroke-dasharray:none"
       transform="matrix(0.84429354,0,0,0.84429354,16.30131,178.42388)">
      <path
         sodipodi:nodetypes="cccccccccc"
         inkscape:connector-curvature="0"
         id="path4009"
         d="m 101.11627,1007.5493 c 1.44501,-1.9893 3.49723,-4.1632 5.99705,-2.4471 2.14286,0.2287 4.31851,0.087 6.40679,0.4841 1.59452,0.4051 2.25267,1.9908 0.98233,3.0931 1.34005,0.4704 1.14753,1.1627 2.32758,1.1821 2.15444,1.316 1.67397,5.3213 -1.5656,5.378 -3.04871,2.6772 -3.37401,-2.3526 -5.34726,-3.6433 -2.33331,-0.3738 -4.15858,-2.7022 -6.637,-2.2734 -1.0651,0.1783 -4.769327,0.7425 -2.68579,-0.7085 0.11887,-0.3689 0.21243,-0.7967 0.5219,-1.065 z"
         style="fill:#e3dbdb;fill-opacity:1;stroke:#000000;stroke-width:2.36884437;stroke-linecap:butt;stroke-linejoin:miter;stroke-miterlimit:4;stroke-opacity:1;stroke-dasharray:none" />
      <path
         inkscape:connector-curvature="0"
         id="path4011"
         d="m 113.7558,1020.1888 c 0.14087,2.3829 1.9468,4.1422 2.97454,6.1358 0.39282,3.0595 -3.2998,2.4374 -4.82947,1.0718 -1.73725,-1.0019 -4.60064,-2.6977 -2.95392,-5.0286 1.02307,-1.4795 2.97321,-2.6485 4.80885,-2.179 z"
         style="fill:#e3dbdb;fill-opacity:1;stroke:#000000;stroke-width:2.36884437;stroke-linecap:butt;stroke-linejoin:miter;stroke-miterlimit:4;stroke-opacity:1;stroke-dasharray:none" />
      <path
         sodipodi:nodetypes="cccccc"
         inkscape:connector-curvature="0"
         id="path4013"
         d="m 92.905058,1021.9485 c -1.018271,-1.784 -2.215442,-3.8148 -1.384061,-5.9989 1.444095,-1.4517 3.612499,-2.6891 5.700482,-1.7743 1.679372,1.1194 3.297861,2.716 3.259461,4.9121 0.44651,2.2991 -1.542664,5.2615 -3.165363,6.0072 -2.077356,1.6761 -4.912038,-0.4836 -4.410519,-3.1461 z"
         style="fill:#e3dbdb;fill-opacity:1;stroke:#000000;stroke-width:2.36884437;stroke-linecap:butt;stroke-linejoin:miter;stroke-miterlimit:4;stroke-opacity:1;stroke-dasharray:none" />
      <path
         inkscape:connector-curvature="0"
         id="path4015"
         d="m 98.641396,1027.8786 c 1.133626,2.4946 4.399234,2.7482 6.772624,2.4418 2.21271,-0.3271 2.08123,-3.5829 -0.34426,-2.7561 -2.02857,0.036 -4.74038,-1.098 -6.428364,0.3143 z"
         style="fill:#e3dbdb;fill-opacity:1;stroke:#000000;stroke-width:2.36884437;stroke-linecap:butt;stroke-linejoin:miter;stroke-miterlimit:4;stroke-opacity:1;stroke-dasharray:none" />
    </g>
    <g
       id="g4304"
       transform="matrix(0.89221398,0,0,0.89221398,14.472905,111.68867)"
       style="stroke-width:2.24161473;stroke-miterlimit:4;stroke-dasharray:none">
      <path
         inkscape:connector-curvature="0"
         id="path4067"
         d="m 123.75,1037.6747 c -0.14386,0.9066 -0.0239,1.831 -0.0563,2.7445 -0.0485,0.7251 0.65618,1.1806 1.31729,1.0095 0.71214,0.041 1.50065,-0.4989 1.49184,-1.2624 0.0793,-0.6736 0.0731,-1.4788 -0.46113,-1.9699 -0.3246,-0.567 -0.8408,-1.0657 -1.54057,-1.0407 -0.32865,-0.036 -0.83795,0.083 -0.7511,0.519 z"
         style="fill:#e3dbdb;fill-opacity:1;stroke:#000000;stroke-width:2.24161473;stroke-linecap:butt;stroke-linejoin:miter;stroke-miterlimit:4;stroke-opacity:1;stroke-dasharray:none" />
      <path
         inkscape:connector-curvature="0"
         id="path4069"
         d="m 144.3125,1045.1747 c -0.43318,-0.1676 -0.86512,-0.4939 -1.35446,-0.3441 -0.32033,0.093 -0.81782,0.1836 -0.71669,0.6347 -0.0664,0.3624 0.21943,0.6041 0.35823,0.9006 0.21761,0.299 0.48053,0.964 0.96552,0.7411 0.14284,0.047 0.76184,-0.2189 0.49937,-0.1278 0.4938,-0.07 0.45609,-0.6515 0.42911,-1.0247 0.0365,-0.274 0.0172,-0.5661 -0.18108,-0.7798 z"
         style="fill:#e3dbdb;fill-opacity:1;stroke:#000000;stroke-width:2.24161473;stroke-linecap:butt;stroke-linejoin:miter;stroke-miterlimit:4;stroke-opacity:1;stroke-dasharray:none" />
      <path
         inkscape:connector-curvature="0"
         id="path4071"
         d="m 140.9375,1025.4872 c -1.03521,-0.018 -2.07676,-0.054 -3.10674,-0.026 -0.96516,-0.2271 -1.94242,0.725 -1.67599,1.6979 0.42156,0.9757 1.4998,1.3874 2.34636,1.8956 1.02938,0.2963 1.90887,1.2245 3.05071,0.9695 1.27341,-0.2311 2.8353,-0.6959 3.31386,-2.0456 0.0626,-0.8611 -0.3897,-1.8487 -1.10573,-2.3331 -0.95159,-0.4529 -1.82151,-0.5011 -2.82247,-0.1585 z"
         style="fill:#e3dbdb;fill-opacity:1;stroke:#000000;stroke-width:2.24161473;stroke-linecap:butt;stroke-linejoin:miter;stroke-miterlimit:4;stroke-opacity:1;stroke-dasharray:none" />
    </g>
    <path
       style="fill:#e3dbdb;stroke:#000000;stroke-width:2;stroke-linecap:butt;stroke-linejoin:miter;stroke-miterlimit:4;stroke-opacity:1;stroke-dasharray:none"
       d="m 9.6678325,1081.1667 c -3.3858555,0.5726 2.0440655,4.604 1.7693955,0.8111 -0.05363,-0.7406 -1.147284,-0.9163 -1.7693955,-0.8111 z"
       id="path3016"
       inkscape:connector-curvature="0"
       sodipodi:nodetypes="sss" />
    <g
       id="g3907"
       transform="translate(-1.7895247,69.8661)">
      <path
         sodipodi:nodetypes="cccc"
         inkscape:connector-curvature="0"
         id="path3828"
         d="m 69.851029,1015.5926 c 0.673929,2.2846 3.945713,2.7006 5.278974,0.7821 1.366921,-1.9877 -1.224347,-2.6354 -2.62912,-1.7365 -0.622933,0.2984 -3.012398,-0.185 -2.649854,0.9544 z"
         style="fill:#e3dbdb;stroke:#000000;stroke-width:2;stroke-linecap:butt;stroke-linejoin:miter;stroke-miterlimit:4;stroke-opacity:1;stroke-dasharray:none" />
      <path
         sodipodi:nodetypes="ccccc"
         inkscape:connector-curvature="0"
         id="path3830"
         d="m 75.773048,1012.5874 c 1.588549,1.1653 3.079403,-0.9713 2.359218,-2.4581 0.04272,-1.7303 -1.600304,-3.4372 -3.334507,-2.4265 -1.87007,0.411 -1.027429,1.8269 0.07447,2.5279 0.504457,0.689 0.741708,1.5292 0.900819,2.3567 z"
         style="fill:#e3dbdb;stroke:#000000;stroke-width:2;stroke-linecap:butt;stroke-linejoin:miter;stroke-miterlimit:4;stroke-opacity:1;stroke-dasharray:none" />
      <path
         sodipodi:nodetypes="ccsc"
         inkscape:connector-curvature="0"
         id="path3832"
         d="m 70.363434,1008.0635 c -1.0302,0.8915 -2.432994,4.1241 -2.716083,5.8777 -1.852004,-0.5998 -2.692862,-3.0762 -2.286599,-4.8621 0.490086,-2.1543 3.457437,-1.5987 5.002682,-1.0156 z"
         style="fill:#e3dbdb;stroke:#000000;stroke-width:2;stroke-linecap:butt;stroke-linejoin:miter;stroke-miterlimit:4;stroke-opacity:1;stroke-dasharray:none" />
    </g>
    <path
       style="fill:#e3dbdb;stroke:#000000;stroke-width:2;stroke-linecap:butt;stroke-linejoin:miter;stroke-miterlimit:4;stroke-opacity:1;stroke-dasharray:none"
       d="m 47.955613,1084.0674 c -0.754125,2.1092 2.274356,3.7713 4.013772,3.381 1.327851,-1.2977 3.133793,-2.5905 1.342746,-4.2364 2.576666,0.8908 3.529401,-2.1179 2.806741,-4.1303 -1.541101,-2.0986 -3.924817,0.2266 -5.810389,-0.097 -1.907268,-0.8113 -4.878337,-3.0433 -6.393623,-0.7805 -0.797712,2.3018 0.20358,5.4016 2.757916,6.0103 0.434158,0.085 0.87399,2e-4 1.282837,-0.147 z"
       id="path3020-6"
       inkscape:connector-curvature="0"
       sodipodi:nodetypes="ccccccccc" />
    <path
       style="fill:#e3dbdb;stroke:#000000;stroke-width:2;stroke-linecap:butt;stroke-linejoin:miter;stroke-miterlimit:4;stroke-opacity:1;stroke-dasharray:none"
       d="m 27.51767,1083.0752 c -1.021492,2.3577 3.192713,4.4849 3.973072,1.3812 1.258895,0.2929 4.069967,-0.3302 3.077259,-3.0292 -0.840628,-1.6141 -2.504311,-1.9234 -4.213324,-1.1056 -1.43068,-1.2609 -4.206925,-2.6843 -5.068518,-0.3769 -0.302763,1.4938 0.505156,3.211 2.231511,3.1303 z"
       id="path3018"
       inkscape:connector-curvature="0"
       sodipodi:nodetypes="ccccccc" />
  </g>
</svg>
