<?xml version="1.0" encoding="UTF-8" standalone="no"?>
<!-- Created with Inkscape (http://www.inkscape.org/) -->

<svg
   xmlns:dc="http://purl.org/dc/elements/1.1/"
   xmlns:cc="http://creativecommons.org/ns#"
   xmlns:rdf="http://www.w3.org/1999/02/22-rdf-syntax-ns#"
   xmlns:svg="http://www.w3.org/2000/svg"
   xmlns="http://www.w3.org/2000/svg"
   xmlns:sodipodi="http://sodipodi.sourceforge.net/DTD/sodipodi-0.dtd"
   xmlns:inkscape="http://www.inkscape.org/namespaces/inkscape"
   width="240"
   height="480"
   id="svg2"
   version="1.1"
   inkscape:version="0.48.2 r9819">
  <sodipodi:namedview
     id="base"
     pagecolor="#ffffff"
     bordercolor="#666666"
     borderopacity="1.0"
     inkscape:pageopacity="0.0"
     inkscape:pageshadow="2"
     inkscape:zoom="2.8"
     inkscape:cx="138.42739"
     inkscape:cy="407.12644"
     inkscape:document-units="px"
     inkscape:current-layer="layer1"
     showgrid="true"
     inkscape:showpageshadow="true"
     inkscape:window-width="1280"
     inkscape:window-height="750"
     inkscape:window-x="0"
     inkscape:window-y="25"
     inkscape:window-maximized="1">
    <inkscape:grid
       spacingy="10px"
       spacingx="10px"
       snapvisiblegridlinesonly="true"
       enabled="true"
       visible="true"
       empspacing="4"
       id="grid2985"
       type="xygrid" />
  </sodipodi:namedview>
  <defs
     id="defs4" />
  <metadata
     id="metadata7">
    <rdf:RDF>
      <cc:Work
         rdf:about="">
        <dc:format>image/svg+xml</dc:format>
        <dc:type
           rdf:resource="http://purl.org/dc/dcmitype/StillImage" />
        <dc:title />
      </cc:Work>
    </rdf:RDF>
  </metadata>
  <g
     transform="translate(0,-572.36217)"
     id="layer1"
     inkscape:groupmode="layer"
     inkscape:label="Ebene 1">
    <path
       sodipodi:nodetypes="ccccccccccccccccccccccccccccccccccccccccccccccccc"
       inkscape:connector-curvature="0"
       id="rect3396"
       d="M40.0 40.0C39.8810306487 40.2754020708 50.2919063595 39.9307852296 50.0 40.0C49.7193206326 39.8940797477 60.1813384218 40.2389903427 60.0 40.0C60.298562606 39.9706678088 70.2934739085 40.0622340115 70.0 40.0C70.1734081091 40.2448052999 80.2936403977 40.0614436652 80.0 40.0C79.7053561953 40.056436119 90.2717199599 40.1271545144 90.0 40.0C90.2007639928 39.7770788786 99.9597814116 39.7027081025 100.0 40.0C100.005254001 39.7000459991 109.705499739 40.0571804467 110.0 40.0C109.898987827 40.2824828278 120.053176813 40.2952494431 120.0 40.0C119.92459364 40.2903685383 130.291421109 40.0712302217 130.0 40.0C130.27650685 39.8836214405 140.139752658 39.734539642 140.0 40.0C140.147570906 40.2611950133 149.753414822 40.1708676604 150.0 40.0C149.890759219 39.7205962441 160.231758338 40.1904943037 160.0 40.0C160.299960228 40.004885598 159.794768443 50.2188150254 160.0 50.0C159.882571076 49.7239375886 160.038241237 60.2975527096 160.0 60.0C159.946501212 60.2951912715 159.763661216 69.8152190859 160.0 70.0C160.15075085 69.7406273175 160.276140993 79.8827559844 160.0 80.0C160.233611738 80.1882167984 159.855071803 90.2626705632 160.0 90.0C159.703135202 89.9567414883 160.29069215 100.074149045 160.0 100.0C160.170188294 100.247054552 159.701662533 110.031539866 160.0 110.0C160.298463734 109.969678283 159.753281983 120.170675795 160.0 120.0C159.741865378 119.847138873 159.708046619 130.069016161 160.0 130.0C159.815884552 129.763142429 159.707423133 140.06632333 160.0 140.0C159.848349806 140.258847882 159.755393587 150.173688543 160.0 150.0C159.730978445 149.867231742 159.702701101 159.959833202 160.0 160.0C160.151864161 159.741277593 150.287628943 160.08526194 150.0 160.0C150.294015422 159.940376692 140.181770611 160.238661795 140.0 160.0C140.095324893 160.284452407 129.928081644 159.708747949 130.0 160.0C130.255891819 160.156586666 119.730852757 159.867486722 120.0 160.0C120.243213317 160.175633965 110.299966017 159.995483859 110.0 160.0C109.784701722 159.791082172 99.804332317 159.772592513 100.0 160.0C99.961592246 160.297531262 89.7964842012 160.220411721 90.0 160.0C90.1621047816 159.747567738 79.7485014329 160.163549619 80.0 160.0C79.9855927967 160.299653866 69.7373735966 159.854991795 70.0 160.0C69.9883516363 159.700226214 59.7090914086 159.926704717 60.0 160.0C59.7351339043 160.140875685 49.7014022274 159.97102799 50.0 160.0C49.7213716574 160.111203659 40.2896030067 160.078294991 40.0 160.0C39.7375756798 159.854626401 40.1526718576 150.258246609 40.0 150.0C40.2864910674 149.910989464 39.8817470754 140.275710451 40.0 140.0C39.7447585928 139.842355364 39.8749275062 129.727315423 40.0 130.0C40.0125087087 129.700260881 39.7630653109 120.184016196 40.0 120.0C40.0055077444 120.299949449 40.2949997107 109.945454809 40.0 110.0C39.720653574 110.1093873 39.7485603357 100.163640161 40.0 100.0C40.1590517481 100.254366957 40.0363354911 89.7022085642 40.0 90.0C39.8703920573 90.2705582901 40.0513541366 80.2955719198 40.0 80.0C40.0373934566 80.2976604383 39.9426880055 69.705525311 40.0 70.0C40.1154003305 69.7230834586 40.169088021 60.2478088948 40.0 60.0C39.8368042579 59.7482716605 40.2665722257 50.1376199682 40.0 50.0C40.006140102 49.7000628294 39.8953293623 39.7188522368 40.0 40.0"
       style="fill:#4d4d4d;fill-opacity:1;stroke:#000000;stroke-width:2;stroke-linejoin:miter;stroke-miterlimit:4"
       transform="translate(0,572.36217)" />
  </g>
</svg>
