<?xml version="1.0" encoding="UTF-8" standalone="no"?>
<!-- Created with Inkscape (http://www.inkscape.org/) -->

<svg
   xmlns:dc="http://purl.org/dc/elements/1.1/"
   xmlns:cc="http://creativecommons.org/ns#"
   xmlns:rdf="http://www.w3.org/1999/02/22-rdf-syntax-ns#"
   xmlns:svg="http://www.w3.org/2000/svg"
   xmlns="http://www.w3.org/2000/svg"
   xmlns:sodipodi="http://sodipodi.sourceforge.net/DTD/sodipodi-0.dtd"
   xmlns:inkscape="http://www.inkscape.org/namespaces/inkscape"
   inkscape:export-ydpi="90"
   inkscape:export-xdpi="90"
   inkscape:export-filename="/home/micha/Programmieren/git/platformer/images/menu/exitOff.png"
   sodipodi:docname="highlight.svg"
   inkscape:version="0.48.4 r9939"
   version="1.1"
   id="svg2"
   height="70"
   width="140">
  <sodipodi:namedview
     id="base"
     pagecolor="#000000"
     bordercolor="#666666"
     borderopacity="1.0"
     inkscape:pageopacity="0.0"
     inkscape:pageshadow="2"
     inkscape:zoom="5.6568544"
     inkscape:cx="96.695521"
     inkscape:cy="24.616747"
     inkscape:document-units="px"
     inkscape:current-layer="layer1"
     showgrid="true"
     inkscape:showpageshadow="true"
     inkscape:window-width="1280"
     inkscape:window-height="750"
     inkscape:window-x="0"
     inkscape:window-y="25"
     inkscape:window-maximized="1"
     inkscape:snap-global="true">
    <inkscape:grid
       originy="0px"
       originx="0px"
       spacingy="10px"
       spacingx="10px"
       snapvisiblegridlinesonly="true"
       enabled="true"
       visible="true"
       empspacing="5"
       id="grid2985"
       type="xygrid" />
  </sodipodi:namedview>
  <defs
     id="defs4">
    <linearGradient
       id="linearGradient3833">
      <stop
         id="stop3835"
         offset="0"
         style="stop-color:#f2c5c5;stop-opacity:1;" />
      <stop
         style="stop-color:#da6e6e;stop-opacity:1;"
         offset="0.63529414"
         id="stop3837" />
      <stop
         id="stop3841"
         offset="1"
         style="stop-color:#9d2323;stop-opacity:1;" />
    </linearGradient>
    <linearGradient
       id="linearGradient3779">
      <stop
         style="stop-color:#871f1f;stop-opacity:1;"
         offset="0"
         id="stop3781" />
      <stop
         id="stop3787"
         offset="0.63529414"
         style="stop-color:#da6e6e;stop-opacity:1;" />
      <stop
         style="stop-color:#e38e8e;stop-opacity:1;"
         offset="0.75"
         id="stop3789" />
      <stop
         style="stop-color:#9d2323;stop-opacity:1;"
         offset="1"
         id="stop3783" />
    </linearGradient>
    <linearGradient
       id="linearGradient3791">
      <stop
         style="stop-color:#cf8888;stop-opacity:1;"
         offset="0"
         id="stop3793" />
      <stop
         id="stop3799"
         offset="0.84705883"
         style="stop-color:#973d3d;stop-opacity:1;" />
      <stop
         style="stop-color:#7c3232;stop-opacity:1;"
         offset="1"
         id="stop3795" />
    </linearGradient>
  </defs>
  <metadata
     id="metadata7">
    <rdf:RDF>
      <cc:Work
         rdf:about="">
        <dc:format>image/svg+xml</dc:format>
        <dc:type
           rdf:resource="http://purl.org/dc/dcmitype/StillImage" />
        <dc:title />
      </cc:Work>
    </rdf:RDF>
  </metadata>
  <g
     transform="translate(0,-982.3622)"
     id="layer1"
     inkscape:groupmode="layer"
     inkscape:label="Ebene 1">
    <path
       sodipodi:nodetypes="sssssssss"
       inkscape:connector-curvature="0"
       id="path8758"
       d="m 88.499066,989.86064 c 11.000623,0 22.001244,0 33.001864,0 11.00063,0 11.00063,0 11.00063,11.00066 0,11.0006 0,22.0012 0,33.0018 0,11.0007 0,11.0007 -11.00063,11.0007 -11.00062,0 -22.001241,0 -33.001864,0 -11.000623,0 -11.000623,0 -11.000623,-11.0007 0,-11.0006 0,-22.0012 0,-33.0018 0,-11.00066 0,-11.00066 11.000623,-11.00066 z"
       style="fill:#ffffff;stroke:none;stroke-width:3.30018687000000011;stroke-linecap:butt;stroke-linejoin:miter;stroke-miterlimit:4;stroke-opacity:1;stroke-dasharray:none;opacity:0.20000000000000001" />
    <flowRoot
       xml:space="preserve"
       id="flowRoot18816"
       style="font-size:15px;font-style:normal;font-weight:normal;line-height:125%;letter-spacing:0px;word-spacing:0px;fill:#000000;fill-opacity:1;stroke:none;font-family:Sans"
       transform="translate(0,1002.3622)"><flowRegion
         id="flowRegion18818"><rect
           id="rect18820"
           width="43.663849"
           height="38.890869"
           x="4.4194174"
           y="7.2200403" /></flowRegion><flowPara
         id="flowPara18822">Eraser</flowPara><flowPara
         id="flowPara18824">hover</flowPara><flowPara
         id="flowPara18847" /><flowPara
         id="flowPara18826" /></flowRoot>    <path
       style="fill:none;stroke:#ff0000;stroke-width:3.30018687000000011;stroke-linecap:butt;stroke-linejoin:miter;stroke-miterlimit:4;stroke-opacity:1;stroke-dasharray:none"
       d="m 88.499066,989.86064 c 11.000623,0 22.001244,0 33.001864,0 11.00063,0 11.00063,0 11.00063,11.00066 0,11.0006 0,22.0012 0,33.0018 0,11.0007 0,11.0007 -11.00063,11.0007 -11.00062,0 -22.001241,0 -33.001864,0 -11.000623,0 -11.000623,0 -11.000623,-11.0007 0,-11.0006 0,-22.0012 0,-33.0018 0,-11.00066 0,-11.00066 11.000623,-11.00066 z"
       id="path9227"
       inkscape:connector-curvature="0"
       sodipodi:nodetypes="sssssssss" />
    <path
       style="fill:none;stroke:#ffffff;stroke-width:1;stroke-linecap:butt;stroke-linejoin:miter;stroke-miterlimit:4;stroke-opacity:1;stroke-dasharray:none"
       d="m 20,992.3622 c 10,0 20,0 30,0 10,0 10,0 10,10 0,10 0,20 0,30 0,10 0,10 -10,10 -10,0 -20,0 -30,0 -10,0 -10,0 -10,-10 0,-10 0,-20 0,-30 0,-10 0,-10 10,-10 z"
       id="path9227-8"
       inkscape:connector-curvature="0"
       sodipodi:nodetypes="sssssssss" />
  </g>
</svg>
